%TF.GenerationSoftware,KiCad,Pcbnew,8.0.6*%
%TF.CreationDate,2025-01-23T17:56:30+01:00*%
%TF.ProjectId,soleil,736f6c65-696c-42e6-9b69-6361645f7063,rev?*%
%TF.SameCoordinates,Original*%
%TF.FileFunction,Copper,L4,Bot*%
%TF.FilePolarity,Positive*%
%FSLAX46Y46*%
G04 Gerber Fmt 4.6, Leading zero omitted, Abs format (unit mm)*
G04 Created by KiCad (PCBNEW 8.0.6) date 2025-01-23 17:56:30*
%MOMM*%
%LPD*%
G01*
G04 APERTURE LIST*
G04 Aperture macros list*
%AMRoundRect*
0 Rectangle with rounded corners*
0 $1 Rounding radius*
0 $2 $3 $4 $5 $6 $7 $8 $9 X,Y pos of 4 corners*
0 Add a 4 corners polygon primitive as box body*
4,1,4,$2,$3,$4,$5,$6,$7,$8,$9,$2,$3,0*
0 Add four circle primitives for the rounded corners*
1,1,$1+$1,$2,$3*
1,1,$1+$1,$4,$5*
1,1,$1+$1,$6,$7*
1,1,$1+$1,$8,$9*
0 Add four rect primitives between the rounded corners*
20,1,$1+$1,$2,$3,$4,$5,0*
20,1,$1+$1,$4,$5,$6,$7,0*
20,1,$1+$1,$6,$7,$8,$9,0*
20,1,$1+$1,$8,$9,$2,$3,0*%
%AMFreePoly0*
4,1,6,1.000000,0.000000,0.500000,-0.750000,-0.500000,-0.750000,-0.500000,0.750000,0.500000,0.750000,1.000000,0.000000,1.000000,0.000000,$1*%
%AMFreePoly1*
4,1,6,0.500000,-0.750000,-0.650000,-0.750000,-0.150000,0.000000,-0.650000,0.750000,0.500000,0.750000,0.500000,-0.750000,0.500000,-0.750000,$1*%
G04 Aperture macros list end*
%TA.AperFunction,ComponentPad*%
%ADD10RoundRect,0.249900X-0.400100X0.275100X-0.400100X-0.275100X0.400100X-0.275100X0.400100X0.275100X0*%
%TD*%
%TA.AperFunction,ComponentPad*%
%ADD11O,1.300000X1.050000*%
%TD*%
%TA.AperFunction,HeatsinkPad*%
%ADD12C,0.500000*%
%TD*%
%TA.AperFunction,HeatsinkPad*%
%ADD13R,1.600000X0.500000*%
%TD*%
%TA.AperFunction,ComponentPad*%
%ADD14O,1.100000X1.700000*%
%TD*%
%TA.AperFunction,SMDPad,CuDef*%
%ADD15FreePoly0,90.000000*%
%TD*%
%TA.AperFunction,SMDPad,CuDef*%
%ADD16FreePoly1,90.000000*%
%TD*%
%TA.AperFunction,ViaPad*%
%ADD17C,0.500000*%
%TD*%
%TA.AperFunction,ViaPad*%
%ADD18C,0.700000*%
%TD*%
%TA.AperFunction,ViaPad*%
%ADD19C,1.000000*%
%TD*%
%TA.AperFunction,Conductor*%
%ADD20C,0.300000*%
%TD*%
G04 APERTURE END LIST*
D10*
%TO.P,U5,1,VCC*%
%TO.N,+4V*%
X119300000Y-88230000D03*
D11*
%TO.P,U5,2,GND*%
%TO.N,GND*%
X119300000Y-89500000D03*
%TO.P,U5,3,OUT*%
%TO.N,/Architecture/Load Switch/~{POWER_ON}*%
X119300000Y-90770000D03*
%TD*%
D12*
%TO.P,U8,7,PAD*%
%TO.N,GND*%
X141550000Y-84100000D03*
D13*
X142100000Y-84100000D03*
D12*
X142650000Y-84100000D03*
%TD*%
D14*
%TO.P,J3,S1,SHIELD*%
%TO.N,GND*%
X164680000Y-99900000D03*
X164680000Y-103700000D03*
X173320000Y-99900000D03*
X173320000Y-103700000D03*
%TD*%
D15*
%TO.P,JP1,1,A*%
%TO.N,Net-(JP1-A)*%
X119300000Y-95812500D03*
D16*
%TO.P,JP1,2,B*%
%TO.N,/Architecture/Battery Input/~{BATT_LOW}*%
X119300000Y-94362500D03*
%TD*%
D17*
%TO.N,GND*%
X123700000Y-90900000D03*
D18*
X158900000Y-78500000D03*
X148700000Y-78500000D03*
X169000000Y-103700000D03*
X153800000Y-78500000D03*
X128600000Y-78500000D03*
D17*
X126650000Y-93000000D03*
X133200000Y-98800000D03*
D18*
X157000000Y-103700000D03*
X161400000Y-78500000D03*
X174400000Y-78500000D03*
D17*
X130900000Y-85100000D03*
D18*
X144500000Y-103700000D03*
X135900000Y-90200000D03*
X136100000Y-78500000D03*
D17*
X124400000Y-81900000D03*
D18*
X159300000Y-97500000D03*
D17*
X140600000Y-89407315D03*
X127600000Y-85400000D03*
D18*
X121100000Y-92400000D03*
X124400000Y-103700000D03*
X134400000Y-103700000D03*
D17*
X129100000Y-90300000D03*
D18*
X127900000Y-103700000D03*
X166500000Y-78500000D03*
D17*
X176100000Y-90900000D03*
X138200000Y-93400000D03*
X144688853Y-90360000D03*
D18*
X169000000Y-78500000D03*
X133500000Y-78500000D03*
X125600000Y-78500000D03*
X164000000Y-78500000D03*
X171300000Y-78500000D03*
D17*
X142080000Y-87200000D03*
D18*
X138600000Y-78500000D03*
D17*
X144200000Y-88000000D03*
D18*
X143700000Y-78500000D03*
D17*
X140700000Y-93100000D03*
X118100000Y-95000000D03*
X120348780Y-85283382D03*
X137600000Y-86800000D03*
D18*
X175500000Y-81200000D03*
D17*
X128392360Y-84323912D03*
D18*
X151300000Y-78500000D03*
D17*
X140700000Y-91900000D03*
D18*
X146200000Y-78500000D03*
D17*
X140636656Y-87385530D03*
D18*
X135900000Y-88200000D03*
X156400000Y-78500000D03*
X141100000Y-78500000D03*
X130900000Y-78500000D03*
X146800000Y-97500000D03*
D17*
%TO.N,+BATT*%
X133900000Y-100500000D03*
X140200000Y-94500000D03*
%TO.N,+4V*%
X122100000Y-88250000D03*
X127000000Y-91800000D03*
%TO.N,Net-(U2-VOUT)*%
X126029609Y-97599858D03*
X128100000Y-99500000D03*
D19*
%TO.N,VBUS*%
X139900000Y-82600000D03*
X144700000Y-82600000D03*
D17*
X122300000Y-84000000D03*
%TO.N,/Architecture/I2C_SDA*%
X142800000Y-88400000D03*
X134400000Y-89800000D03*
X133300000Y-85100000D03*
X132300000Y-95700000D03*
X176100000Y-88900000D03*
%TO.N,/Architecture/Load Switch/POWER_OFF*%
X124400000Y-102700000D03*
X171600000Y-82800000D03*
%TO.N,/Architecture/I2C_SCL*%
X135100000Y-89800000D03*
X133300000Y-83800000D03*
X131400000Y-95700000D03*
X143490001Y-88857315D03*
X133700000Y-96250000D03*
X176100000Y-87900000D03*
%TO.N,/Architecture/Load Switch/~{POWER_ON}*%
X122700000Y-97400000D03*
X130500000Y-95700000D03*
X127181000Y-97639999D03*
%TO.N,/Architecture/Battery Input/~{BATT_LOW}*%
X124500000Y-91700000D03*
X118100000Y-94200000D03*
%TO.N,Net-(U6-FB)*%
X129100000Y-89300000D03*
X129100000Y-85700000D03*
%TO.N,Net-(JP1-A)*%
X138200000Y-94300000D03*
X136500000Y-101800000D03*
X142120000Y-88857315D03*
X118100000Y-95800000D03*
%TO.N,Net-(U7-STAT2)*%
X139023583Y-92070521D03*
X123300000Y-84000000D03*
%TO.N,+3V3*%
X126900000Y-81900000D03*
X147200000Y-80500000D03*
X147250000Y-88100000D03*
X130900000Y-83800000D03*
X176100000Y-89900000D03*
X147200000Y-81900000D03*
X147250000Y-90200000D03*
X135800000Y-83800000D03*
X133900000Y-97350000D03*
X126900000Y-81200000D03*
X129800000Y-95700000D03*
X147200000Y-81200000D03*
X126900000Y-80500000D03*
%TD*%
D20*
%TO.N,/Architecture/Battery Input/~{BATT_LOW}*%
X119137500Y-94200000D02*
X119300000Y-94362500D01*
X118100000Y-94200000D02*
X119137500Y-94200000D01*
%TO.N,Net-(JP1-A)*%
X119287500Y-95800000D02*
X119300000Y-95812500D01*
X118100000Y-95800000D02*
X119287500Y-95800000D01*
%TD*%
%TA.AperFunction,Conductor*%
%TO.N,GND*%
G36*
X179502065Y-75300615D02*
G01*
X179798112Y-75317241D01*
X179806346Y-75318170D01*
X180096603Y-75367486D01*
X180104671Y-75369327D01*
X180387605Y-75450839D01*
X180395418Y-75453573D01*
X180667428Y-75566244D01*
X180674904Y-75569844D01*
X180932594Y-75712263D01*
X180939608Y-75716671D01*
X181179716Y-75887037D01*
X181186203Y-75892209D01*
X181405741Y-76088400D01*
X181411604Y-76094263D01*
X181607789Y-76313795D01*
X181612962Y-76320283D01*
X181783324Y-76560385D01*
X181787738Y-76567410D01*
X181817499Y-76621258D01*
X181930155Y-76825095D01*
X181933755Y-76832571D01*
X182046422Y-77104571D01*
X182049163Y-77112404D01*
X182130669Y-77395317D01*
X182132515Y-77403408D01*
X182181828Y-77693647D01*
X182182758Y-77701893D01*
X182199384Y-77997934D01*
X182199500Y-78002083D01*
X182199500Y-101997916D01*
X182199384Y-102002065D01*
X182182758Y-102298106D01*
X182181828Y-102306352D01*
X182132515Y-102596591D01*
X182130669Y-102604682D01*
X182049163Y-102887595D01*
X182046422Y-102895428D01*
X181933755Y-103167428D01*
X181930155Y-103174904D01*
X181787740Y-103432587D01*
X181783324Y-103439614D01*
X181612962Y-103679716D01*
X181607789Y-103686204D01*
X181411604Y-103905736D01*
X181405736Y-103911604D01*
X181186204Y-104107789D01*
X181179716Y-104112962D01*
X180939614Y-104283324D01*
X180932587Y-104287740D01*
X180674904Y-104430155D01*
X180667428Y-104433755D01*
X180395428Y-104546422D01*
X180387595Y-104549163D01*
X180104682Y-104630669D01*
X180096591Y-104632515D01*
X179806352Y-104681828D01*
X179798106Y-104682758D01*
X179502066Y-104699384D01*
X179497917Y-104699500D01*
X173859812Y-104699500D01*
X173807486Y-104677826D01*
X173785812Y-104625500D01*
X173807486Y-104573174D01*
X173902562Y-104478098D01*
X173902563Y-104478096D01*
X173984642Y-104355254D01*
X174041177Y-104218767D01*
X174041179Y-104218760D01*
X174070000Y-104073868D01*
X174070000Y-103950000D01*
X173620000Y-103950000D01*
X173620000Y-103450000D01*
X174070000Y-103450000D01*
X174070000Y-103326131D01*
X174041179Y-103181239D01*
X174041177Y-103181232D01*
X173984642Y-103044745D01*
X173902563Y-102921903D01*
X173798096Y-102817436D01*
X173675254Y-102735357D01*
X173570000Y-102691758D01*
X173570000Y-103233011D01*
X173560060Y-103215795D01*
X173504205Y-103159940D01*
X173435796Y-103120444D01*
X173359496Y-103100000D01*
X173280504Y-103100000D01*
X173204204Y-103120444D01*
X173135795Y-103159940D01*
X173079940Y-103215795D01*
X173070000Y-103233011D01*
X173070000Y-102691759D01*
X173069999Y-102691758D01*
X172964745Y-102735357D01*
X172841903Y-102817436D01*
X172841902Y-102817438D01*
X172737438Y-102921902D01*
X172737436Y-102921903D01*
X172655357Y-103044745D01*
X172598822Y-103181232D01*
X172598820Y-103181239D01*
X172570000Y-103326131D01*
X172570000Y-103450000D01*
X173020000Y-103450000D01*
X173020000Y-103950000D01*
X172570000Y-103950000D01*
X172570000Y-104073868D01*
X172598820Y-104218760D01*
X172598822Y-104218767D01*
X172655357Y-104355254D01*
X172737436Y-104478096D01*
X172832514Y-104573174D01*
X172854188Y-104625500D01*
X172832514Y-104677826D01*
X172780188Y-104699500D01*
X165219812Y-104699500D01*
X165167486Y-104677826D01*
X165145812Y-104625500D01*
X165167486Y-104573174D01*
X165262562Y-104478098D01*
X165262563Y-104478096D01*
X165344642Y-104355254D01*
X165401177Y-104218767D01*
X165401179Y-104218760D01*
X165430000Y-104073868D01*
X165430000Y-103950000D01*
X164980000Y-103950000D01*
X164980000Y-103450000D01*
X165430000Y-103450000D01*
X165430000Y-103326131D01*
X165401179Y-103181239D01*
X165401177Y-103181232D01*
X165344642Y-103044745D01*
X165262563Y-102921903D01*
X165158096Y-102817436D01*
X165035254Y-102735357D01*
X164930000Y-102691758D01*
X164930000Y-103233011D01*
X164920060Y-103215795D01*
X164864205Y-103159940D01*
X164795796Y-103120444D01*
X164719496Y-103100000D01*
X164640504Y-103100000D01*
X164564204Y-103120444D01*
X164495795Y-103159940D01*
X164439940Y-103215795D01*
X164430000Y-103233011D01*
X164430000Y-102691759D01*
X164429999Y-102691758D01*
X164324745Y-102735357D01*
X164201903Y-102817436D01*
X164201902Y-102817438D01*
X164097438Y-102921902D01*
X164097436Y-102921903D01*
X164015357Y-103044745D01*
X163958822Y-103181232D01*
X163958820Y-103181239D01*
X163930000Y-103326131D01*
X163930000Y-103450000D01*
X164380000Y-103450000D01*
X164380000Y-103950000D01*
X163930000Y-103950000D01*
X163930000Y-104073868D01*
X163958820Y-104218760D01*
X163958822Y-104218767D01*
X164015357Y-104355254D01*
X164097436Y-104478096D01*
X164192514Y-104573174D01*
X164214188Y-104625500D01*
X164192514Y-104677826D01*
X164140188Y-104699500D01*
X120502083Y-104699500D01*
X120497934Y-104699384D01*
X120201893Y-104682758D01*
X120193647Y-104681828D01*
X119903408Y-104632515D01*
X119895317Y-104630669D01*
X119612404Y-104549163D01*
X119604571Y-104546422D01*
X119332571Y-104433755D01*
X119325095Y-104430155D01*
X119067412Y-104287740D01*
X119060385Y-104283324D01*
X118820283Y-104112962D01*
X118813795Y-104107789D01*
X118737375Y-104039496D01*
X118594258Y-103911599D01*
X118588400Y-103905741D01*
X118392209Y-103686203D01*
X118387037Y-103679716D01*
X118259842Y-103500452D01*
X118216671Y-103439608D01*
X118212263Y-103432594D01*
X118069844Y-103174904D01*
X118066244Y-103167428D01*
X118063142Y-103159940D01*
X117953573Y-102895418D01*
X117950839Y-102887605D01*
X117869327Y-102604671D01*
X117867486Y-102596603D01*
X117818170Y-102306346D01*
X117817241Y-102298106D01*
X117812135Y-102207189D01*
X117800616Y-102002065D01*
X117800500Y-101997916D01*
X117800500Y-101356767D01*
X118449500Y-101356767D01*
X118449500Y-101643233D01*
X118467163Y-101800000D01*
X118481574Y-101927901D01*
X118481575Y-101927902D01*
X118545315Y-102207173D01*
X118545320Y-102207189D01*
X118639931Y-102477571D01*
X118764222Y-102735664D01*
X118916634Y-102978227D01*
X119081064Y-103184416D01*
X119095243Y-103202195D01*
X119297805Y-103404757D01*
X119521773Y-103583366D01*
X119764331Y-103735775D01*
X120022428Y-103860068D01*
X120292818Y-103954682D01*
X120292823Y-103954683D01*
X120292826Y-103954684D01*
X120339892Y-103965426D01*
X120572102Y-104018426D01*
X120856767Y-104050500D01*
X120856771Y-104050500D01*
X121143229Y-104050500D01*
X121143233Y-104050500D01*
X121427898Y-104018426D01*
X121707182Y-103954682D01*
X121977572Y-103860068D01*
X122235669Y-103735775D01*
X122478227Y-103583366D01*
X122702195Y-103404757D01*
X122904757Y-103202195D01*
X123083366Y-102978227D01*
X123235775Y-102735669D01*
X123252952Y-102700000D01*
X123994508Y-102700000D01*
X124014353Y-102825301D01*
X124014353Y-102825302D01*
X124014354Y-102825304D01*
X124071950Y-102938342D01*
X124161658Y-103028050D01*
X124274696Y-103085646D01*
X124400000Y-103105492D01*
X124525304Y-103085646D01*
X124638342Y-103028050D01*
X124728050Y-102938342D01*
X124785646Y-102825304D01*
X124805492Y-102700000D01*
X124785646Y-102574696D01*
X124728050Y-102461658D01*
X124638342Y-102371950D01*
X124525304Y-102314354D01*
X124525302Y-102314353D01*
X124525301Y-102314353D01*
X124400000Y-102294508D01*
X124274698Y-102314353D01*
X124161656Y-102371951D01*
X124071951Y-102461656D01*
X124014353Y-102574698D01*
X123994508Y-102700000D01*
X123252952Y-102700000D01*
X123360068Y-102477572D01*
X123454682Y-102207182D01*
X123518426Y-101927898D01*
X123532837Y-101800000D01*
X136094508Y-101800000D01*
X136114353Y-101925301D01*
X136114353Y-101925302D01*
X136114354Y-101925304D01*
X136171950Y-102038342D01*
X136261658Y-102128050D01*
X136374696Y-102185646D01*
X136500000Y-102205492D01*
X136625304Y-102185646D01*
X136738342Y-102128050D01*
X136828050Y-102038342D01*
X136885646Y-101925304D01*
X136905492Y-101800000D01*
X136885646Y-101674696D01*
X136828050Y-101561658D01*
X136738342Y-101471950D01*
X136625304Y-101414354D01*
X136625302Y-101414353D01*
X136625301Y-101414353D01*
X136500000Y-101394508D01*
X136374698Y-101414353D01*
X136261656Y-101471951D01*
X136171951Y-101561656D01*
X136114353Y-101674698D01*
X136094508Y-101800000D01*
X123532837Y-101800000D01*
X123550500Y-101643233D01*
X123550500Y-101356767D01*
X176449500Y-101356767D01*
X176449500Y-101643233D01*
X176467163Y-101800000D01*
X176481574Y-101927901D01*
X176481575Y-101927902D01*
X176545315Y-102207173D01*
X176545320Y-102207189D01*
X176639931Y-102477571D01*
X176764222Y-102735664D01*
X176916634Y-102978227D01*
X177081064Y-103184416D01*
X177095243Y-103202195D01*
X177297805Y-103404757D01*
X177521773Y-103583366D01*
X177764331Y-103735775D01*
X178022428Y-103860068D01*
X178292818Y-103954682D01*
X178292823Y-103954683D01*
X178292826Y-103954684D01*
X178339892Y-103965426D01*
X178572102Y-104018426D01*
X178856767Y-104050500D01*
X178856771Y-104050500D01*
X179143229Y-104050500D01*
X179143233Y-104050500D01*
X179427898Y-104018426D01*
X179707182Y-103954682D01*
X179977572Y-103860068D01*
X180235669Y-103735775D01*
X180478227Y-103583366D01*
X180702195Y-103404757D01*
X180904757Y-103202195D01*
X181083366Y-102978227D01*
X181235775Y-102735669D01*
X181360068Y-102477572D01*
X181454682Y-102207182D01*
X181518426Y-101927898D01*
X181550500Y-101643233D01*
X181550500Y-101356767D01*
X181518426Y-101072102D01*
X181454682Y-100792818D01*
X181360068Y-100522428D01*
X181320402Y-100440060D01*
X181235777Y-100264335D01*
X181235776Y-100264334D01*
X181235775Y-100264331D01*
X181083366Y-100021773D01*
X180904757Y-99797805D01*
X180702195Y-99595243D01*
X180478227Y-99416634D01*
X180235669Y-99264225D01*
X180235668Y-99264224D01*
X180235664Y-99264222D01*
X179977571Y-99139931D01*
X179707189Y-99045320D01*
X179707173Y-99045315D01*
X179427902Y-98981575D01*
X179427901Y-98981574D01*
X179305898Y-98967828D01*
X179143233Y-98949500D01*
X178856767Y-98949500D01*
X178714434Y-98965537D01*
X178572098Y-98981574D01*
X178572097Y-98981575D01*
X178292826Y-99045315D01*
X178292810Y-99045320D01*
X178022428Y-99139931D01*
X177764335Y-99264222D01*
X177521772Y-99416634D01*
X177297805Y-99595242D01*
X177095242Y-99797805D01*
X176916634Y-100021772D01*
X176764222Y-100264335D01*
X176639931Y-100522428D01*
X176545320Y-100792810D01*
X176545315Y-100792826D01*
X176481575Y-101072097D01*
X176481574Y-101072098D01*
X176481574Y-101072102D01*
X176449500Y-101356767D01*
X123550500Y-101356767D01*
X123518426Y-101072102D01*
X123454682Y-100792818D01*
X123360068Y-100522428D01*
X123349267Y-100500000D01*
X133494508Y-100500000D01*
X133514353Y-100625301D01*
X133514353Y-100625302D01*
X133514354Y-100625304D01*
X133571950Y-100738342D01*
X133661658Y-100828050D01*
X133774696Y-100885646D01*
X133900000Y-100905492D01*
X134025304Y-100885646D01*
X134138342Y-100828050D01*
X134228050Y-100738342D01*
X134285646Y-100625304D01*
X134305492Y-100500000D01*
X134285646Y-100374696D01*
X134228050Y-100261658D01*
X134138342Y-100171950D01*
X134025304Y-100114354D01*
X134025302Y-100114353D01*
X134025301Y-100114353D01*
X133900000Y-100094508D01*
X133774698Y-100114353D01*
X133661656Y-100171951D01*
X133571951Y-100261656D01*
X133514353Y-100374698D01*
X133494508Y-100500000D01*
X123349267Y-100500000D01*
X123320402Y-100440060D01*
X123235777Y-100264335D01*
X123235776Y-100264334D01*
X123235775Y-100264331D01*
X123083366Y-100021773D01*
X122904757Y-99797805D01*
X122702195Y-99595243D01*
X122582764Y-99500000D01*
X127694508Y-99500000D01*
X127714353Y-99625301D01*
X127714353Y-99625302D01*
X127714354Y-99625304D01*
X127771950Y-99738342D01*
X127861658Y-99828050D01*
X127974696Y-99885646D01*
X128100000Y-99905492D01*
X128225304Y-99885646D01*
X128338342Y-99828050D01*
X128428050Y-99738342D01*
X128485646Y-99625304D01*
X128501353Y-99526131D01*
X163930000Y-99526131D01*
X163930000Y-99650000D01*
X164380000Y-99650000D01*
X164380000Y-100150000D01*
X163930000Y-100150000D01*
X163930000Y-100273868D01*
X163958820Y-100418760D01*
X163958822Y-100418767D01*
X164015357Y-100555254D01*
X164097436Y-100678096D01*
X164201903Y-100782563D01*
X164324742Y-100864641D01*
X164429999Y-100908240D01*
X164430000Y-100908239D01*
X164430000Y-100366988D01*
X164439940Y-100384205D01*
X164495795Y-100440060D01*
X164564204Y-100479556D01*
X164640504Y-100500000D01*
X164719496Y-100500000D01*
X164795796Y-100479556D01*
X164864205Y-100440060D01*
X164920060Y-100384205D01*
X164930000Y-100366988D01*
X164930000Y-100908240D01*
X165035257Y-100864641D01*
X165158096Y-100782563D01*
X165158098Y-100782562D01*
X165262562Y-100678098D01*
X165262563Y-100678096D01*
X165344642Y-100555254D01*
X165401177Y-100418767D01*
X165401179Y-100418760D01*
X165430000Y-100273868D01*
X165430000Y-100150000D01*
X164980000Y-100150000D01*
X164980000Y-99650000D01*
X165430000Y-99650000D01*
X165430000Y-99526131D01*
X172570000Y-99526131D01*
X172570000Y-99650000D01*
X173020000Y-99650000D01*
X173020000Y-100150000D01*
X172570000Y-100150000D01*
X172570000Y-100273868D01*
X172598820Y-100418760D01*
X172598822Y-100418767D01*
X172655357Y-100555254D01*
X172737436Y-100678096D01*
X172841903Y-100782563D01*
X172964742Y-100864641D01*
X173069999Y-100908240D01*
X173070000Y-100908239D01*
X173070000Y-100366988D01*
X173079940Y-100384205D01*
X173135795Y-100440060D01*
X173204204Y-100479556D01*
X173280504Y-100500000D01*
X173359496Y-100500000D01*
X173435796Y-100479556D01*
X173504205Y-100440060D01*
X173560060Y-100384205D01*
X173570000Y-100366988D01*
X173570000Y-100908240D01*
X173675257Y-100864641D01*
X173798096Y-100782563D01*
X173798098Y-100782562D01*
X173902562Y-100678098D01*
X173902563Y-100678096D01*
X173984642Y-100555254D01*
X174041177Y-100418767D01*
X174041179Y-100418760D01*
X174070000Y-100273868D01*
X174070000Y-100150000D01*
X173620000Y-100150000D01*
X173620000Y-99650000D01*
X174070000Y-99650000D01*
X174070000Y-99526131D01*
X174041179Y-99381239D01*
X174041177Y-99381232D01*
X173984642Y-99244745D01*
X173902563Y-99121903D01*
X173798096Y-99017436D01*
X173675254Y-98935357D01*
X173570000Y-98891758D01*
X173570000Y-99433011D01*
X173560060Y-99415795D01*
X173504205Y-99359940D01*
X173435796Y-99320444D01*
X173359496Y-99300000D01*
X173280504Y-99300000D01*
X173204204Y-99320444D01*
X173135795Y-99359940D01*
X173079940Y-99415795D01*
X173070000Y-99433011D01*
X173070000Y-98891759D01*
X173069999Y-98891758D01*
X172964745Y-98935357D01*
X172841903Y-99017436D01*
X172841902Y-99017438D01*
X172737438Y-99121902D01*
X172737436Y-99121903D01*
X172655357Y-99244745D01*
X172598822Y-99381232D01*
X172598820Y-99381239D01*
X172570000Y-99526131D01*
X165430000Y-99526131D01*
X165401179Y-99381239D01*
X165401177Y-99381232D01*
X165344642Y-99244745D01*
X165262563Y-99121903D01*
X165158096Y-99017436D01*
X165035254Y-98935357D01*
X164930000Y-98891758D01*
X164930000Y-99433011D01*
X164920060Y-99415795D01*
X164864205Y-99359940D01*
X164795796Y-99320444D01*
X164719496Y-99300000D01*
X164640504Y-99300000D01*
X164564204Y-99320444D01*
X164495795Y-99359940D01*
X164439940Y-99415795D01*
X164430000Y-99433011D01*
X164430000Y-98891759D01*
X164429999Y-98891758D01*
X164324745Y-98935357D01*
X164201903Y-99017436D01*
X164201902Y-99017438D01*
X164097438Y-99121902D01*
X164097436Y-99121903D01*
X164015357Y-99244745D01*
X163958822Y-99381232D01*
X163958820Y-99381239D01*
X163930000Y-99526131D01*
X128501353Y-99526131D01*
X128505492Y-99500000D01*
X128485646Y-99374696D01*
X128428050Y-99261658D01*
X128338342Y-99171950D01*
X128225304Y-99114354D01*
X128225302Y-99114353D01*
X128225301Y-99114353D01*
X128100000Y-99094508D01*
X127974698Y-99114353D01*
X127861656Y-99171951D01*
X127771951Y-99261656D01*
X127714353Y-99374698D01*
X127694508Y-99500000D01*
X122582764Y-99500000D01*
X122478227Y-99416634D01*
X122235669Y-99264225D01*
X122235668Y-99264224D01*
X122235664Y-99264222D01*
X121977571Y-99139931D01*
X121707189Y-99045320D01*
X121707173Y-99045315D01*
X121427902Y-98981575D01*
X121427901Y-98981574D01*
X121305898Y-98967828D01*
X121143233Y-98949500D01*
X120856767Y-98949500D01*
X120714434Y-98965537D01*
X120572098Y-98981574D01*
X120572097Y-98981575D01*
X120292826Y-99045315D01*
X120292810Y-99045320D01*
X120022428Y-99139931D01*
X119764335Y-99264222D01*
X119521772Y-99416634D01*
X119297805Y-99595242D01*
X119095242Y-99797805D01*
X118916634Y-100021772D01*
X118764222Y-100264335D01*
X118639931Y-100522428D01*
X118545320Y-100792810D01*
X118545315Y-100792826D01*
X118481575Y-101072097D01*
X118481574Y-101072098D01*
X118481574Y-101072102D01*
X118449500Y-101356767D01*
X117800500Y-101356767D01*
X117800500Y-97400000D01*
X122294508Y-97400000D01*
X122314353Y-97525301D01*
X122314353Y-97525302D01*
X122314354Y-97525304D01*
X122371950Y-97638342D01*
X122461658Y-97728050D01*
X122574696Y-97785646D01*
X122700000Y-97805492D01*
X122825304Y-97785646D01*
X122938342Y-97728050D01*
X123028050Y-97638342D01*
X123047659Y-97599858D01*
X125624117Y-97599858D01*
X125643962Y-97725159D01*
X125643962Y-97725160D01*
X125643963Y-97725162D01*
X125701559Y-97838200D01*
X125791267Y-97927908D01*
X125904305Y-97985504D01*
X126029609Y-98005350D01*
X126154913Y-97985504D01*
X126267951Y-97927908D01*
X126357659Y-97838200D01*
X126415255Y-97725162D01*
X126428743Y-97639999D01*
X126775508Y-97639999D01*
X126795353Y-97765300D01*
X126795353Y-97765301D01*
X126795354Y-97765303D01*
X126852950Y-97878341D01*
X126942658Y-97968049D01*
X127055696Y-98025645D01*
X127181000Y-98045491D01*
X127306304Y-98025645D01*
X127419342Y-97968049D01*
X127509050Y-97878341D01*
X127566646Y-97765303D01*
X127586492Y-97639999D01*
X127566646Y-97514695D01*
X127509050Y-97401657D01*
X127457393Y-97350000D01*
X133494508Y-97350000D01*
X133514353Y-97475301D01*
X133514353Y-97475302D01*
X133514354Y-97475304D01*
X133571950Y-97588342D01*
X133661658Y-97678050D01*
X133774696Y-97735646D01*
X133900000Y-97755492D01*
X134025304Y-97735646D01*
X134138342Y-97678050D01*
X134228050Y-97588342D01*
X134285646Y-97475304D01*
X134305492Y-97350000D01*
X134285646Y-97224696D01*
X134228050Y-97111658D01*
X134138342Y-97021950D01*
X134025304Y-96964354D01*
X134025302Y-96964353D01*
X134025301Y-96964353D01*
X133900000Y-96944508D01*
X133774698Y-96964353D01*
X133661656Y-97021951D01*
X133571951Y-97111656D01*
X133514353Y-97224698D01*
X133494508Y-97350000D01*
X127457393Y-97350000D01*
X127419342Y-97311949D01*
X127306304Y-97254353D01*
X127306302Y-97254352D01*
X127306301Y-97254352D01*
X127181000Y-97234507D01*
X127055698Y-97254352D01*
X126942656Y-97311950D01*
X126852951Y-97401655D01*
X126795353Y-97514697D01*
X126775508Y-97639999D01*
X126428743Y-97639999D01*
X126435101Y-97599858D01*
X126415255Y-97474554D01*
X126357659Y-97361516D01*
X126267951Y-97271808D01*
X126154913Y-97214212D01*
X126154911Y-97214211D01*
X126154910Y-97214211D01*
X126029609Y-97194366D01*
X125904307Y-97214211D01*
X125791265Y-97271809D01*
X125701560Y-97361514D01*
X125643962Y-97474556D01*
X125624117Y-97599858D01*
X123047659Y-97599858D01*
X123085646Y-97525304D01*
X123105492Y-97400000D01*
X123085646Y-97274696D01*
X123028050Y-97161658D01*
X122938342Y-97071950D01*
X122825304Y-97014354D01*
X122825302Y-97014353D01*
X122825301Y-97014353D01*
X122700000Y-96994508D01*
X122574698Y-97014353D01*
X122461656Y-97071951D01*
X122371951Y-97161656D01*
X122314353Y-97274698D01*
X122294508Y-97400000D01*
X117800500Y-97400000D01*
X117800500Y-96217645D01*
X117822174Y-96165319D01*
X117874500Y-96143645D01*
X117908095Y-96151711D01*
X117974695Y-96185645D01*
X117974695Y-96185646D01*
X117991827Y-96188359D01*
X118100000Y-96205492D01*
X118225304Y-96185646D01*
X118286906Y-96154257D01*
X118343367Y-96149814D01*
X118386434Y-96186596D01*
X118394500Y-96220192D01*
X118394500Y-96312502D01*
X118415332Y-96390249D01*
X118415333Y-96390250D01*
X118472250Y-96447167D01*
X118549997Y-96467999D01*
X118549998Y-96468000D01*
X118550000Y-96468000D01*
X120050002Y-96468000D01*
X120050002Y-96467999D01*
X120127750Y-96447167D01*
X120184667Y-96390250D01*
X120205499Y-96312502D01*
X120205500Y-96312502D01*
X120205500Y-96250000D01*
X133294508Y-96250000D01*
X133314353Y-96375301D01*
X133314353Y-96375302D01*
X133314354Y-96375304D01*
X133371950Y-96488342D01*
X133461658Y-96578050D01*
X133574696Y-96635646D01*
X133700000Y-96655492D01*
X133825304Y-96635646D01*
X133938342Y-96578050D01*
X134028050Y-96488342D01*
X134085646Y-96375304D01*
X134105492Y-96250000D01*
X134085646Y-96124696D01*
X134028050Y-96011658D01*
X133938342Y-95921950D01*
X133825304Y-95864354D01*
X133825302Y-95864353D01*
X133825301Y-95864353D01*
X133700000Y-95844508D01*
X133574698Y-95864353D01*
X133461656Y-95921951D01*
X133371951Y-96011656D01*
X133314353Y-96124698D01*
X133294508Y-96250000D01*
X120205500Y-96250000D01*
X120205500Y-95700000D01*
X129394508Y-95700000D01*
X129414353Y-95825301D01*
X129414353Y-95825302D01*
X129414354Y-95825304D01*
X129471950Y-95938342D01*
X129561658Y-96028050D01*
X129674696Y-96085646D01*
X129800000Y-96105492D01*
X129925304Y-96085646D01*
X130038342Y-96028050D01*
X130097674Y-95968718D01*
X130150000Y-95947044D01*
X130202326Y-95968718D01*
X130261658Y-96028050D01*
X130374696Y-96085646D01*
X130500000Y-96105492D01*
X130625304Y-96085646D01*
X130738342Y-96028050D01*
X130828050Y-95938342D01*
X130884066Y-95828403D01*
X130927133Y-95791622D01*
X130983595Y-95796065D01*
X131015933Y-95828403D01*
X131071950Y-95938342D01*
X131161658Y-96028050D01*
X131274696Y-96085646D01*
X131400000Y-96105492D01*
X131525304Y-96085646D01*
X131638342Y-96028050D01*
X131728050Y-95938342D01*
X131784066Y-95828403D01*
X131827133Y-95791622D01*
X131883595Y-95796065D01*
X131915933Y-95828403D01*
X131971950Y-95938342D01*
X132061658Y-96028050D01*
X132174696Y-96085646D01*
X132300000Y-96105492D01*
X132425304Y-96085646D01*
X132538342Y-96028050D01*
X132628050Y-95938342D01*
X132685646Y-95825304D01*
X132705492Y-95700000D01*
X132685646Y-95574696D01*
X132628050Y-95461658D01*
X132538342Y-95371950D01*
X132425304Y-95314354D01*
X132425302Y-95314353D01*
X132425301Y-95314353D01*
X132300000Y-95294508D01*
X132174698Y-95314353D01*
X132061656Y-95371951D01*
X131971948Y-95461659D01*
X131915934Y-95571594D01*
X131872867Y-95608377D01*
X131816405Y-95603933D01*
X131784066Y-95571594D01*
X131728051Y-95461659D01*
X131638343Y-95371951D01*
X131638342Y-95371950D01*
X131525304Y-95314354D01*
X131525302Y-95314353D01*
X131525301Y-95314353D01*
X131400000Y-95294508D01*
X131274698Y-95314353D01*
X131161656Y-95371951D01*
X131071948Y-95461659D01*
X131015934Y-95571594D01*
X130972867Y-95608377D01*
X130916405Y-95603933D01*
X130884066Y-95571594D01*
X130828051Y-95461659D01*
X130738343Y-95371951D01*
X130738342Y-95371950D01*
X130625304Y-95314354D01*
X130625302Y-95314353D01*
X130625301Y-95314353D01*
X130500000Y-95294508D01*
X130374698Y-95314353D01*
X130261656Y-95371951D01*
X130202326Y-95431282D01*
X130150000Y-95452956D01*
X130097674Y-95431282D01*
X130038343Y-95371951D01*
X130038342Y-95371950D01*
X129925304Y-95314354D01*
X129925302Y-95314353D01*
X129925301Y-95314353D01*
X129800000Y-95294508D01*
X129674698Y-95314353D01*
X129561656Y-95371951D01*
X129471951Y-95461656D01*
X129414353Y-95574698D01*
X129394508Y-95700000D01*
X120205500Y-95700000D01*
X120205500Y-95312500D01*
X120189392Y-95243578D01*
X120189392Y-95243577D01*
X120161263Y-95211570D01*
X120143001Y-95157957D01*
X120164522Y-95110394D01*
X120184667Y-95090250D01*
X120205499Y-95012502D01*
X120205500Y-95012502D01*
X120205500Y-94300000D01*
X137794508Y-94300000D01*
X137814353Y-94425301D01*
X137814353Y-94425302D01*
X137814354Y-94425304D01*
X137871950Y-94538342D01*
X137961658Y-94628050D01*
X138074696Y-94685646D01*
X138200000Y-94705492D01*
X138325304Y-94685646D01*
X138438342Y-94628050D01*
X138528050Y-94538342D01*
X138547586Y-94500000D01*
X139794508Y-94500000D01*
X139814353Y-94625301D01*
X139814353Y-94625302D01*
X139814354Y-94625304D01*
X139871950Y-94738342D01*
X139961658Y-94828050D01*
X140074696Y-94885646D01*
X140200000Y-94905492D01*
X140325304Y-94885646D01*
X140438342Y-94828050D01*
X140528050Y-94738342D01*
X140585646Y-94625304D01*
X140605492Y-94500000D01*
X140585646Y-94374696D01*
X140528050Y-94261658D01*
X140438342Y-94171950D01*
X140325304Y-94114354D01*
X140325302Y-94114353D01*
X140325301Y-94114353D01*
X140200000Y-94094508D01*
X140074698Y-94114353D01*
X139961656Y-94171951D01*
X139871951Y-94261656D01*
X139814353Y-94374698D01*
X139794508Y-94500000D01*
X138547586Y-94500000D01*
X138585646Y-94425304D01*
X138605492Y-94300000D01*
X138585646Y-94174696D01*
X138528050Y-94061658D01*
X138438342Y-93971950D01*
X138325304Y-93914354D01*
X138325302Y-93914353D01*
X138325301Y-93914353D01*
X138200000Y-93894508D01*
X138074698Y-93914353D01*
X137961656Y-93971951D01*
X137871951Y-94061656D01*
X137814353Y-94174698D01*
X137794508Y-94300000D01*
X120205500Y-94300000D01*
X120205500Y-93862498D01*
X120205499Y-93862497D01*
X120202862Y-93852657D01*
X120184667Y-93784750D01*
X120127750Y-93727833D01*
X120127749Y-93727832D01*
X120050002Y-93707000D01*
X120050000Y-93707000D01*
X118550000Y-93707000D01*
X118549998Y-93707000D01*
X118472250Y-93727832D01*
X118415332Y-93784750D01*
X118409176Y-93807725D01*
X118374696Y-93852657D01*
X118318543Y-93860048D01*
X118304103Y-93854504D01*
X118225304Y-93814354D01*
X118225304Y-93814353D01*
X118100000Y-93794508D01*
X117974698Y-93814353D01*
X117908095Y-93848289D01*
X117851632Y-93852732D01*
X117808565Y-93815949D01*
X117800500Y-93782354D01*
X117800500Y-91700000D01*
X124094508Y-91700000D01*
X124114353Y-91825301D01*
X124114353Y-91825302D01*
X124114354Y-91825304D01*
X124171950Y-91938342D01*
X124261658Y-92028050D01*
X124374696Y-92085646D01*
X124500000Y-92105492D01*
X124625304Y-92085646D01*
X124738342Y-92028050D01*
X124828050Y-91938342D01*
X124885646Y-91825304D01*
X124889654Y-91800000D01*
X126594508Y-91800000D01*
X126614353Y-91925301D01*
X126614353Y-91925302D01*
X126614354Y-91925304D01*
X126671950Y-92038342D01*
X126761658Y-92128050D01*
X126874696Y-92185646D01*
X127000000Y-92205492D01*
X127125304Y-92185646D01*
X127238342Y-92128050D01*
X127295871Y-92070521D01*
X138618091Y-92070521D01*
X138637936Y-92195822D01*
X138637936Y-92195823D01*
X138637937Y-92195825D01*
X138695533Y-92308863D01*
X138785241Y-92398571D01*
X138898279Y-92456167D01*
X139023583Y-92476013D01*
X139148887Y-92456167D01*
X139261925Y-92398571D01*
X139351633Y-92308863D01*
X139409229Y-92195825D01*
X139429075Y-92070521D01*
X139409229Y-91945217D01*
X139351633Y-91832179D01*
X139261925Y-91742471D01*
X139148887Y-91684875D01*
X139148885Y-91684874D01*
X139148884Y-91684874D01*
X139023583Y-91665029D01*
X138898281Y-91684874D01*
X138785239Y-91742472D01*
X138695534Y-91832177D01*
X138695533Y-91832179D01*
X138641440Y-91938343D01*
X138637936Y-91945219D01*
X138618091Y-92070521D01*
X127295871Y-92070521D01*
X127328050Y-92038342D01*
X127385646Y-91925304D01*
X127405492Y-91800000D01*
X127385646Y-91674696D01*
X127328050Y-91561658D01*
X127238342Y-91471950D01*
X127125304Y-91414354D01*
X127125302Y-91414353D01*
X127125301Y-91414353D01*
X127000000Y-91394508D01*
X126874698Y-91414353D01*
X126761656Y-91471951D01*
X126671951Y-91561656D01*
X126614353Y-91674698D01*
X126594508Y-91800000D01*
X124889654Y-91800000D01*
X124905492Y-91700000D01*
X124885646Y-91574696D01*
X124828050Y-91461658D01*
X124738342Y-91371950D01*
X124625304Y-91314354D01*
X124625302Y-91314353D01*
X124625301Y-91314353D01*
X124500000Y-91294508D01*
X124374698Y-91314353D01*
X124261656Y-91371951D01*
X124171951Y-91461656D01*
X124114353Y-91574698D01*
X124094508Y-91700000D01*
X117800500Y-91700000D01*
X117800500Y-89249999D01*
X118493818Y-89249999D01*
X118493819Y-89250000D01*
X119019670Y-89250000D01*
X118999925Y-89269745D01*
X118950556Y-89355255D01*
X118925000Y-89450630D01*
X118925000Y-89549370D01*
X118950556Y-89644745D01*
X118999925Y-89730255D01*
X119019670Y-89750000D01*
X118493819Y-89750000D01*
X118532511Y-89843412D01*
X118611853Y-89962157D01*
X118712842Y-90063146D01*
X118772843Y-90103237D01*
X118804309Y-90150329D01*
X118793260Y-90205878D01*
X118772845Y-90226294D01*
X118744393Y-90245305D01*
X118744393Y-90245306D01*
X118650306Y-90339393D01*
X118650304Y-90339394D01*
X118576379Y-90450031D01*
X118525460Y-90572961D01*
X118525458Y-90572968D01*
X118499500Y-90703469D01*
X118499500Y-90836530D01*
X118525458Y-90967031D01*
X118525460Y-90967038D01*
X118576379Y-91089968D01*
X118650304Y-91200605D01*
X118744394Y-91294695D01*
X118855031Y-91368620D01*
X118977961Y-91419539D01*
X118977968Y-91419541D01*
X119044093Y-91432694D01*
X119108469Y-91445500D01*
X119108470Y-91445500D01*
X119491530Y-91445500D01*
X119491531Y-91445500D01*
X119622036Y-91419540D01*
X119744969Y-91368620D01*
X119855606Y-91294695D01*
X119949695Y-91200606D01*
X120023620Y-91089969D01*
X120074540Y-90967036D01*
X120100500Y-90836531D01*
X120100500Y-90703469D01*
X120074541Y-90572968D01*
X120074539Y-90572961D01*
X120023620Y-90450031D01*
X119949695Y-90339394D01*
X119855603Y-90245302D01*
X119827155Y-90226294D01*
X119795690Y-90179202D01*
X119806740Y-90123653D01*
X119827156Y-90103237D01*
X119887157Y-90063145D01*
X119887158Y-90063145D01*
X119988146Y-89962157D01*
X120067488Y-89843412D01*
X120085470Y-89800000D01*
X133994508Y-89800000D01*
X134014353Y-89925301D01*
X134014353Y-89925302D01*
X134014354Y-89925304D01*
X134071950Y-90038342D01*
X134161658Y-90128050D01*
X134274696Y-90185646D01*
X134400000Y-90205492D01*
X134525304Y-90185646D01*
X134638342Y-90128050D01*
X134697674Y-90068718D01*
X134750000Y-90047044D01*
X134802326Y-90068718D01*
X134861658Y-90128050D01*
X134974696Y-90185646D01*
X135100000Y-90205492D01*
X135134675Y-90200000D01*
X146844508Y-90200000D01*
X146864353Y-90325301D01*
X146864353Y-90325302D01*
X146864354Y-90325304D01*
X146921950Y-90438342D01*
X147011658Y-90528050D01*
X147124696Y-90585646D01*
X147250000Y-90605492D01*
X147375304Y-90585646D01*
X147488342Y-90528050D01*
X147578050Y-90438342D01*
X147635646Y-90325304D01*
X147655492Y-90200000D01*
X147635646Y-90074696D01*
X147578050Y-89961658D01*
X147516392Y-89900000D01*
X175694508Y-89900000D01*
X175714353Y-90025301D01*
X175714353Y-90025302D01*
X175714354Y-90025304D01*
X175771950Y-90138342D01*
X175861658Y-90228050D01*
X175974696Y-90285646D01*
X176100000Y-90305492D01*
X176225304Y-90285646D01*
X176338342Y-90228050D01*
X176428050Y-90138342D01*
X176485646Y-90025304D01*
X176505492Y-89900000D01*
X176485646Y-89774696D01*
X176428050Y-89661658D01*
X176338342Y-89571950D01*
X176225304Y-89514354D01*
X176225302Y-89514353D01*
X176225301Y-89514353D01*
X176100000Y-89494508D01*
X175974698Y-89514353D01*
X175861656Y-89571951D01*
X175771951Y-89661656D01*
X175714353Y-89774698D01*
X175694508Y-89900000D01*
X147516392Y-89900000D01*
X147488342Y-89871950D01*
X147375304Y-89814354D01*
X147375302Y-89814353D01*
X147375301Y-89814353D01*
X147250000Y-89794508D01*
X147124698Y-89814353D01*
X147011656Y-89871951D01*
X146921951Y-89961656D01*
X146864353Y-90074698D01*
X146844508Y-90200000D01*
X135134675Y-90200000D01*
X135225304Y-90185646D01*
X135338342Y-90128050D01*
X135428050Y-90038342D01*
X135485646Y-89925304D01*
X135505492Y-89800000D01*
X135485646Y-89674696D01*
X135428050Y-89561658D01*
X135338342Y-89471950D01*
X135225304Y-89414354D01*
X135225302Y-89414353D01*
X135225301Y-89414353D01*
X135100000Y-89394508D01*
X134974698Y-89414353D01*
X134861656Y-89471951D01*
X134802326Y-89531282D01*
X134750000Y-89552956D01*
X134697674Y-89531282D01*
X134638343Y-89471951D01*
X134638342Y-89471950D01*
X134525304Y-89414354D01*
X134525302Y-89414353D01*
X134525301Y-89414353D01*
X134400000Y-89394508D01*
X134274698Y-89414353D01*
X134161656Y-89471951D01*
X134071951Y-89561656D01*
X134014353Y-89674698D01*
X133994508Y-89800000D01*
X120085470Y-89800000D01*
X120106181Y-89750000D01*
X119580330Y-89750000D01*
X119600075Y-89730255D01*
X119649444Y-89644745D01*
X119675000Y-89549370D01*
X119675000Y-89450630D01*
X119649444Y-89355255D01*
X119617543Y-89300000D01*
X128694508Y-89300000D01*
X128714353Y-89425301D01*
X128714353Y-89425302D01*
X128714354Y-89425304D01*
X128771950Y-89538342D01*
X128861658Y-89628050D01*
X128974696Y-89685646D01*
X129100000Y-89705492D01*
X129225304Y-89685646D01*
X129338342Y-89628050D01*
X129428050Y-89538342D01*
X129485646Y-89425304D01*
X129505492Y-89300000D01*
X129485646Y-89174696D01*
X129428050Y-89061658D01*
X129338342Y-88971950D01*
X129225304Y-88914354D01*
X129225302Y-88914353D01*
X129225301Y-88914353D01*
X129100000Y-88894508D01*
X128974698Y-88914353D01*
X128861656Y-88971951D01*
X128771951Y-89061656D01*
X128714353Y-89174698D01*
X128694508Y-89300000D01*
X119617543Y-89300000D01*
X119600075Y-89269745D01*
X119580330Y-89250000D01*
X120106181Y-89250000D01*
X120106181Y-89249999D01*
X120067488Y-89156587D01*
X119988146Y-89037842D01*
X119907714Y-88957410D01*
X119886040Y-88905084D01*
X119905826Y-88857315D01*
X141714508Y-88857315D01*
X141734353Y-88982616D01*
X141734353Y-88982617D01*
X141734354Y-88982619D01*
X141791950Y-89095657D01*
X141881658Y-89185365D01*
X141994696Y-89242961D01*
X142120000Y-89262807D01*
X142245304Y-89242961D01*
X142358342Y-89185365D01*
X142448050Y-89095657D01*
X142505646Y-88982619D01*
X142525492Y-88857315D01*
X142522765Y-88840100D01*
X142535986Y-88785030D01*
X142584276Y-88755436D01*
X142629447Y-88762590D01*
X142674696Y-88785646D01*
X142674695Y-88785646D01*
X142691827Y-88788359D01*
X142800000Y-88805492D01*
X142925304Y-88785646D01*
X142981430Y-88757047D01*
X143037890Y-88752604D01*
X143080958Y-88789386D01*
X143088113Y-88834557D01*
X143084509Y-88857313D01*
X143084509Y-88857314D01*
X143104354Y-88982616D01*
X143104354Y-88982617D01*
X143104355Y-88982619D01*
X143161951Y-89095657D01*
X143251659Y-89185365D01*
X143364697Y-89242961D01*
X143490001Y-89262807D01*
X143615305Y-89242961D01*
X143728343Y-89185365D01*
X143818051Y-89095657D01*
X143875647Y-88982619D01*
X143888732Y-88900000D01*
X175694508Y-88900000D01*
X175714353Y-89025301D01*
X175714353Y-89025302D01*
X175714354Y-89025304D01*
X175771950Y-89138342D01*
X175861658Y-89228050D01*
X175974696Y-89285646D01*
X176100000Y-89305492D01*
X176225304Y-89285646D01*
X176338342Y-89228050D01*
X176428050Y-89138342D01*
X176485646Y-89025304D01*
X176505492Y-88900000D01*
X176485646Y-88774696D01*
X176428050Y-88661658D01*
X176338342Y-88571950D01*
X176225304Y-88514354D01*
X176225302Y-88514353D01*
X176225301Y-88514353D01*
X176100000Y-88494508D01*
X175974698Y-88514353D01*
X175861656Y-88571951D01*
X175771951Y-88661656D01*
X175714353Y-88774698D01*
X175694508Y-88900000D01*
X143888732Y-88900000D01*
X143895493Y-88857315D01*
X143875647Y-88732011D01*
X143818051Y-88618973D01*
X143728343Y-88529265D01*
X143615305Y-88471669D01*
X143615303Y-88471668D01*
X143615302Y-88471668D01*
X143490001Y-88451823D01*
X143364699Y-88471668D01*
X143364697Y-88471668D01*
X143364697Y-88471669D01*
X143319452Y-88494723D01*
X143308571Y-88500267D01*
X143252108Y-88504710D01*
X143209041Y-88467927D01*
X143201887Y-88422757D01*
X143205492Y-88400000D01*
X143185646Y-88274696D01*
X143128050Y-88161658D01*
X143066392Y-88100000D01*
X146844508Y-88100000D01*
X146864353Y-88225301D01*
X146864353Y-88225302D01*
X146864354Y-88225304D01*
X146921950Y-88338342D01*
X147011658Y-88428050D01*
X147124696Y-88485646D01*
X147250000Y-88505492D01*
X147375304Y-88485646D01*
X147488342Y-88428050D01*
X147578050Y-88338342D01*
X147635646Y-88225304D01*
X147655492Y-88100000D01*
X147635646Y-87974696D01*
X147597586Y-87900000D01*
X175694508Y-87900000D01*
X175714353Y-88025301D01*
X175714353Y-88025302D01*
X175714354Y-88025304D01*
X175771950Y-88138342D01*
X175861658Y-88228050D01*
X175974696Y-88285646D01*
X176100000Y-88305492D01*
X176225304Y-88285646D01*
X176338342Y-88228050D01*
X176428050Y-88138342D01*
X176485646Y-88025304D01*
X176505492Y-87900000D01*
X176485646Y-87774696D01*
X176428050Y-87661658D01*
X176338342Y-87571950D01*
X176225304Y-87514354D01*
X176225302Y-87514353D01*
X176225301Y-87514353D01*
X176100000Y-87494508D01*
X175974698Y-87514353D01*
X175861656Y-87571951D01*
X175771951Y-87661656D01*
X175714353Y-87774698D01*
X175694508Y-87900000D01*
X147597586Y-87900000D01*
X147578050Y-87861658D01*
X147488342Y-87771950D01*
X147375304Y-87714354D01*
X147375302Y-87714353D01*
X147375301Y-87714353D01*
X147250000Y-87694508D01*
X147124698Y-87714353D01*
X147011656Y-87771951D01*
X146921951Y-87861656D01*
X146864353Y-87974698D01*
X146844508Y-88100000D01*
X143066392Y-88100000D01*
X143038342Y-88071950D01*
X142925304Y-88014354D01*
X142925302Y-88014353D01*
X142925301Y-88014353D01*
X142800000Y-87994508D01*
X142674698Y-88014353D01*
X142561656Y-88071951D01*
X142471951Y-88161656D01*
X142414353Y-88274698D01*
X142394508Y-88400000D01*
X142394508Y-88400001D01*
X142397234Y-88417214D01*
X142384012Y-88472286D01*
X142335720Y-88501878D01*
X142290550Y-88494723D01*
X142245304Y-88471669D01*
X142245304Y-88471668D01*
X142120000Y-88451823D01*
X141994698Y-88471668D01*
X141881656Y-88529266D01*
X141791951Y-88618971D01*
X141734353Y-88732013D01*
X141714508Y-88857315D01*
X119905826Y-88857315D01*
X119907714Y-88852758D01*
X119926442Y-88839152D01*
X119938383Y-88833068D01*
X120028068Y-88743383D01*
X120085650Y-88630373D01*
X120100500Y-88536612D01*
X120100500Y-88250000D01*
X121694508Y-88250000D01*
X121714353Y-88375301D01*
X121714353Y-88375302D01*
X121714354Y-88375304D01*
X121771950Y-88488342D01*
X121861658Y-88578050D01*
X121974696Y-88635646D01*
X122100000Y-88655492D01*
X122225304Y-88635646D01*
X122338342Y-88578050D01*
X122428050Y-88488342D01*
X122485646Y-88375304D01*
X122505492Y-88250000D01*
X122485646Y-88124696D01*
X122428050Y-88011658D01*
X122338342Y-87921950D01*
X122225304Y-87864354D01*
X122225302Y-87864353D01*
X122225301Y-87864353D01*
X122100000Y-87844508D01*
X121974698Y-87864353D01*
X121861656Y-87921951D01*
X121771951Y-88011656D01*
X121714353Y-88124698D01*
X121694508Y-88250000D01*
X120100500Y-88250000D01*
X120100500Y-87923388D01*
X120100272Y-87921951D01*
X120091150Y-87864354D01*
X120085650Y-87829627D01*
X120028068Y-87716617D01*
X119938383Y-87626932D01*
X119938381Y-87626930D01*
X119825373Y-87569350D01*
X119825373Y-87569349D01*
X119731613Y-87554500D01*
X119731612Y-87554500D01*
X118868388Y-87554500D01*
X118868387Y-87554500D01*
X118774626Y-87569349D01*
X118774626Y-87569350D01*
X118661618Y-87626930D01*
X118571930Y-87716618D01*
X118514350Y-87829626D01*
X118514349Y-87829626D01*
X118499500Y-87923387D01*
X118499500Y-88536612D01*
X118514350Y-88630373D01*
X118571930Y-88743381D01*
X118571932Y-88743383D01*
X118661617Y-88833068D01*
X118673554Y-88839150D01*
X118710336Y-88882216D01*
X118705893Y-88938679D01*
X118692285Y-88957409D01*
X118611855Y-89037840D01*
X118611853Y-89037842D01*
X118532511Y-89156587D01*
X118493818Y-89249999D01*
X117800500Y-89249999D01*
X117800500Y-85700000D01*
X128694508Y-85700000D01*
X128714353Y-85825301D01*
X128714353Y-85825302D01*
X128714354Y-85825304D01*
X128771950Y-85938342D01*
X128861658Y-86028050D01*
X128974696Y-86085646D01*
X129100000Y-86105492D01*
X129225304Y-86085646D01*
X129338342Y-86028050D01*
X129428050Y-85938342D01*
X129485646Y-85825304D01*
X129505492Y-85700000D01*
X129485646Y-85574696D01*
X129428050Y-85461658D01*
X129338342Y-85371950D01*
X129225304Y-85314354D01*
X129225302Y-85314353D01*
X129225301Y-85314353D01*
X129100000Y-85294508D01*
X128974698Y-85314353D01*
X128861656Y-85371951D01*
X128771951Y-85461656D01*
X128714353Y-85574698D01*
X128694508Y-85700000D01*
X117800500Y-85700000D01*
X117800500Y-85100000D01*
X132894508Y-85100000D01*
X132914353Y-85225301D01*
X132914353Y-85225302D01*
X132914354Y-85225304D01*
X132971950Y-85338342D01*
X133061658Y-85428050D01*
X133174696Y-85485646D01*
X133300000Y-85505492D01*
X133425304Y-85485646D01*
X133538342Y-85428050D01*
X133628050Y-85338342D01*
X133685646Y-85225304D01*
X133705492Y-85100000D01*
X133685646Y-84974696D01*
X133628050Y-84861658D01*
X133538342Y-84771950D01*
X133425304Y-84714354D01*
X133425302Y-84714353D01*
X133425301Y-84714353D01*
X133300000Y-84694508D01*
X133174698Y-84714353D01*
X133061656Y-84771951D01*
X132971951Y-84861656D01*
X132914353Y-84974698D01*
X132894508Y-85100000D01*
X117800500Y-85100000D01*
X117800500Y-84542792D01*
X141460759Y-84542792D01*
X141485302Y-84550000D01*
X141614701Y-84550000D01*
X141639239Y-84542793D01*
X141639240Y-84542793D01*
X141639239Y-84542792D01*
X142560759Y-84542792D01*
X142585302Y-84550000D01*
X142714701Y-84550000D01*
X142739239Y-84542793D01*
X142739240Y-84542793D01*
X142650000Y-84453553D01*
X142560759Y-84542792D01*
X141639239Y-84542792D01*
X141550000Y-84453553D01*
X141460759Y-84542792D01*
X117800500Y-84542792D01*
X117800500Y-84000000D01*
X121894508Y-84000000D01*
X121914353Y-84125301D01*
X121914353Y-84125302D01*
X121914354Y-84125304D01*
X121971950Y-84238342D01*
X122061658Y-84328050D01*
X122174696Y-84385646D01*
X122300000Y-84405492D01*
X122425304Y-84385646D01*
X122538342Y-84328050D01*
X122628050Y-84238342D01*
X122685646Y-84125304D01*
X122705492Y-84000000D01*
X122894508Y-84000000D01*
X122914353Y-84125301D01*
X122914353Y-84125302D01*
X122914354Y-84125304D01*
X122971950Y-84238342D01*
X123061658Y-84328050D01*
X123174696Y-84385646D01*
X123300000Y-84405492D01*
X123425304Y-84385646D01*
X123538342Y-84328050D01*
X123628050Y-84238342D01*
X123685646Y-84125304D01*
X123705492Y-84000000D01*
X123685646Y-83874696D01*
X123647586Y-83800000D01*
X130494508Y-83800000D01*
X130514353Y-83925301D01*
X130514353Y-83925302D01*
X130514354Y-83925304D01*
X130571950Y-84038342D01*
X130661658Y-84128050D01*
X130774696Y-84185646D01*
X130900000Y-84205492D01*
X131025304Y-84185646D01*
X131138342Y-84128050D01*
X131228050Y-84038342D01*
X131285646Y-83925304D01*
X131305492Y-83800000D01*
X132894508Y-83800000D01*
X132914353Y-83925301D01*
X132914353Y-83925302D01*
X132914354Y-83925304D01*
X132971950Y-84038342D01*
X133061658Y-84128050D01*
X133174696Y-84185646D01*
X133300000Y-84205492D01*
X133425304Y-84185646D01*
X133538342Y-84128050D01*
X133628050Y-84038342D01*
X133685646Y-83925304D01*
X133705492Y-83800000D01*
X135394508Y-83800000D01*
X135414353Y-83925301D01*
X135414353Y-83925302D01*
X135414354Y-83925304D01*
X135471950Y-84038342D01*
X135561658Y-84128050D01*
X135674696Y-84185646D01*
X135800000Y-84205492D01*
X135925304Y-84185646D01*
X136038342Y-84128050D01*
X136066393Y-84099999D01*
X141095373Y-84099999D01*
X141108077Y-84188367D01*
X141108078Y-84188367D01*
X141196446Y-84099999D01*
X141176556Y-84080109D01*
X141450000Y-84080109D01*
X141450000Y-84119891D01*
X141465224Y-84156645D01*
X141493355Y-84184776D01*
X141530109Y-84200000D01*
X141569891Y-84200000D01*
X141606645Y-84184776D01*
X141634776Y-84156645D01*
X141650000Y-84119891D01*
X141650000Y-84100000D01*
X141903553Y-84100000D01*
X141991920Y-84188367D01*
X142004626Y-84099999D01*
X142195373Y-84099999D01*
X142208077Y-84188367D01*
X142208078Y-84188367D01*
X142296446Y-84099999D01*
X142276556Y-84080109D01*
X142550000Y-84080109D01*
X142550000Y-84119891D01*
X142565224Y-84156645D01*
X142593355Y-84184776D01*
X142630109Y-84200000D01*
X142669891Y-84200000D01*
X142706645Y-84184776D01*
X142734776Y-84156645D01*
X142750000Y-84119891D01*
X142750000Y-84100000D01*
X143003553Y-84100000D01*
X143091920Y-84188367D01*
X143104626Y-84099999D01*
X143091920Y-84011631D01*
X143003553Y-84100000D01*
X142750000Y-84100000D01*
X142750000Y-84080109D01*
X142734776Y-84043355D01*
X142706645Y-84015224D01*
X142669891Y-84000000D01*
X142630109Y-84000000D01*
X142593355Y-84015224D01*
X142565224Y-84043355D01*
X142550000Y-84080109D01*
X142276556Y-84080109D01*
X142208078Y-84011631D01*
X142208077Y-84011631D01*
X142195373Y-84099999D01*
X142004626Y-84099999D01*
X141991920Y-84011631D01*
X141903553Y-84100000D01*
X141650000Y-84100000D01*
X141650000Y-84080109D01*
X141634776Y-84043355D01*
X141606645Y-84015224D01*
X141569891Y-84000000D01*
X141530109Y-84000000D01*
X141493355Y-84015224D01*
X141465224Y-84043355D01*
X141450000Y-84080109D01*
X141176556Y-84080109D01*
X141108078Y-84011631D01*
X141108077Y-84011631D01*
X141095373Y-84099999D01*
X136066393Y-84099999D01*
X136128050Y-84038342D01*
X136185646Y-83925304D01*
X136205492Y-83800000D01*
X136185646Y-83674696D01*
X136176734Y-83657205D01*
X141460758Y-83657205D01*
X141549999Y-83746446D01*
X141639239Y-83657205D01*
X142560758Y-83657205D01*
X142649999Y-83746446D01*
X142739239Y-83657205D01*
X142714700Y-83650000D01*
X142585298Y-83650000D01*
X142560758Y-83657205D01*
X141639239Y-83657205D01*
X141614700Y-83650000D01*
X141485298Y-83650000D01*
X141460758Y-83657205D01*
X136176734Y-83657205D01*
X136128050Y-83561658D01*
X136038342Y-83471950D01*
X135925304Y-83414354D01*
X135925302Y-83414353D01*
X135925301Y-83414353D01*
X135800000Y-83394508D01*
X135674698Y-83414353D01*
X135561656Y-83471951D01*
X135471951Y-83561656D01*
X135414353Y-83674698D01*
X135394508Y-83800000D01*
X133705492Y-83800000D01*
X133685646Y-83674696D01*
X133628050Y-83561658D01*
X133538342Y-83471950D01*
X133425304Y-83414354D01*
X133425302Y-83414353D01*
X133425301Y-83414353D01*
X133300000Y-83394508D01*
X133174698Y-83414353D01*
X133061656Y-83471951D01*
X132971951Y-83561656D01*
X132914353Y-83674698D01*
X132894508Y-83800000D01*
X131305492Y-83800000D01*
X131285646Y-83674696D01*
X131228050Y-83561658D01*
X131138342Y-83471950D01*
X131025304Y-83414354D01*
X131025302Y-83414353D01*
X131025301Y-83414353D01*
X130900000Y-83394508D01*
X130774698Y-83414353D01*
X130661656Y-83471951D01*
X130571951Y-83561656D01*
X130514353Y-83674698D01*
X130494508Y-83800000D01*
X123647586Y-83800000D01*
X123628050Y-83761658D01*
X123538342Y-83671950D01*
X123425304Y-83614354D01*
X123425302Y-83614353D01*
X123425301Y-83614353D01*
X123300000Y-83594508D01*
X123174698Y-83614353D01*
X123061656Y-83671951D01*
X122971951Y-83761656D01*
X122914353Y-83874698D01*
X122894508Y-84000000D01*
X122705492Y-84000000D01*
X122685646Y-83874696D01*
X122628050Y-83761658D01*
X122538342Y-83671950D01*
X122425304Y-83614354D01*
X122425302Y-83614353D01*
X122425301Y-83614353D01*
X122300000Y-83594508D01*
X122174698Y-83614353D01*
X122061656Y-83671951D01*
X121971951Y-83761656D01*
X121914353Y-83874698D01*
X121894508Y-84000000D01*
X117800500Y-84000000D01*
X117800500Y-82599996D01*
X139244722Y-82599996D01*
X139244722Y-82600003D01*
X139263761Y-82756808D01*
X139263764Y-82756822D01*
X139319778Y-82904521D01*
X139409516Y-83034529D01*
X139409517Y-83034530D01*
X139527760Y-83139283D01*
X139667635Y-83212696D01*
X139821015Y-83250500D01*
X139821019Y-83250500D01*
X139978981Y-83250500D01*
X139978985Y-83250500D01*
X140132365Y-83212696D01*
X140272240Y-83139283D01*
X140390483Y-83034530D01*
X140480220Y-82904523D01*
X140536237Y-82756818D01*
X140555278Y-82600000D01*
X140555278Y-82599996D01*
X144044722Y-82599996D01*
X144044722Y-82600003D01*
X144063761Y-82756808D01*
X144063764Y-82756822D01*
X144119778Y-82904521D01*
X144209516Y-83034529D01*
X144209517Y-83034530D01*
X144327760Y-83139283D01*
X144467635Y-83212696D01*
X144621015Y-83250500D01*
X144621019Y-83250500D01*
X144778981Y-83250500D01*
X144778985Y-83250500D01*
X144932365Y-83212696D01*
X145072240Y-83139283D01*
X145190483Y-83034530D01*
X145280220Y-82904523D01*
X145319860Y-82800000D01*
X171194508Y-82800000D01*
X171214353Y-82925301D01*
X171214353Y-82925302D01*
X171214354Y-82925304D01*
X171271950Y-83038342D01*
X171361658Y-83128050D01*
X171474696Y-83185646D01*
X171600000Y-83205492D01*
X171725304Y-83185646D01*
X171838342Y-83128050D01*
X171928050Y-83038342D01*
X171985646Y-82925304D01*
X172005492Y-82800000D01*
X171985646Y-82674696D01*
X171928050Y-82561658D01*
X171838342Y-82471950D01*
X171725304Y-82414354D01*
X171725302Y-82414353D01*
X171725301Y-82414353D01*
X171600000Y-82394508D01*
X171474698Y-82414353D01*
X171361656Y-82471951D01*
X171271951Y-82561656D01*
X171214353Y-82674698D01*
X171194508Y-82800000D01*
X145319860Y-82800000D01*
X145336237Y-82756818D01*
X145355278Y-82600000D01*
X145350622Y-82561658D01*
X145336238Y-82443191D01*
X145336237Y-82443182D01*
X145325304Y-82414353D01*
X145280221Y-82295478D01*
X145190483Y-82165470D01*
X145072240Y-82060717D01*
X145004767Y-82025304D01*
X144932366Y-81987304D01*
X144778987Y-81949500D01*
X144778985Y-81949500D01*
X144621015Y-81949500D01*
X144621012Y-81949500D01*
X144467633Y-81987304D01*
X144327761Y-82060716D01*
X144209516Y-82165470D01*
X144119779Y-82295478D01*
X144119778Y-82295478D01*
X144063764Y-82443177D01*
X144063761Y-82443191D01*
X144044722Y-82599996D01*
X140555278Y-82599996D01*
X140550622Y-82561658D01*
X140536238Y-82443191D01*
X140536237Y-82443182D01*
X140525304Y-82414353D01*
X140480221Y-82295478D01*
X140390483Y-82165470D01*
X140272240Y-82060717D01*
X140204767Y-82025304D01*
X140132366Y-81987304D01*
X139978987Y-81949500D01*
X139978985Y-81949500D01*
X139821015Y-81949500D01*
X139821012Y-81949500D01*
X139667633Y-81987304D01*
X139527761Y-82060716D01*
X139409516Y-82165470D01*
X139319779Y-82295478D01*
X139319778Y-82295478D01*
X139263764Y-82443177D01*
X139263761Y-82443191D01*
X139244722Y-82599996D01*
X117800500Y-82599996D01*
X117800500Y-78356767D01*
X118449500Y-78356767D01*
X118449500Y-78643233D01*
X118463453Y-78767068D01*
X118481574Y-78927901D01*
X118481575Y-78927902D01*
X118545315Y-79207173D01*
X118545320Y-79207189D01*
X118639931Y-79477571D01*
X118764222Y-79735664D01*
X118916634Y-79978227D01*
X119028410Y-80118390D01*
X119095243Y-80202195D01*
X119297805Y-80404757D01*
X119521773Y-80583366D01*
X119764331Y-80735775D01*
X119764334Y-80735776D01*
X119764335Y-80735777D01*
X119955942Y-80828050D01*
X120022428Y-80860068D01*
X120292818Y-80954682D01*
X120292823Y-80954683D01*
X120292826Y-80954684D01*
X120323373Y-80961656D01*
X120572102Y-81018426D01*
X120856767Y-81050500D01*
X120856771Y-81050500D01*
X121143229Y-81050500D01*
X121143233Y-81050500D01*
X121427898Y-81018426D01*
X121707182Y-80954682D01*
X121977572Y-80860068D01*
X122235669Y-80735775D01*
X122478227Y-80583366D01*
X122702195Y-80404757D01*
X122904757Y-80202195D01*
X123083366Y-79978227D01*
X123235775Y-79735669D01*
X123360068Y-79477572D01*
X123454682Y-79207182D01*
X123518426Y-78927898D01*
X123550500Y-78643233D01*
X123550500Y-78356767D01*
X123518426Y-78072102D01*
X123462490Y-77827028D01*
X123454684Y-77792826D01*
X123454679Y-77792810D01*
X123360068Y-77522428D01*
X123235777Y-77264335D01*
X123235776Y-77264334D01*
X123235775Y-77264331D01*
X123168686Y-77157560D01*
X125134500Y-77157560D01*
X125134500Y-77302439D01*
X125162763Y-77444531D01*
X125162766Y-77444542D01*
X125218206Y-77578387D01*
X125297963Y-77697752D01*
X125298700Y-77698854D01*
X125401146Y-77801300D01*
X125521610Y-77881792D01*
X125521611Y-77881792D01*
X125521612Y-77881793D01*
X125655457Y-77937233D01*
X125655462Y-77937235D01*
X125797560Y-77965500D01*
X125797561Y-77965500D01*
X125942438Y-77965500D01*
X125942440Y-77965500D01*
X126004109Y-77953233D01*
X126059658Y-77964282D01*
X126091124Y-78011374D01*
X126084482Y-78059404D01*
X126083054Y-78062204D01*
X126027585Y-78232921D01*
X126027582Y-78232934D01*
X125999500Y-78410240D01*
X125999500Y-78589759D01*
X126027582Y-78767065D01*
X126027585Y-78767078D01*
X126083055Y-78937797D01*
X126083057Y-78937800D01*
X126084479Y-78940591D01*
X126088925Y-78997053D01*
X126052143Y-79040121D01*
X126004110Y-79046766D01*
X125942440Y-79034500D01*
X125797560Y-79034500D01*
X125769449Y-79040091D01*
X125655468Y-79062763D01*
X125655457Y-79062766D01*
X125521612Y-79118206D01*
X125401149Y-79198697D01*
X125298697Y-79301149D01*
X125218206Y-79421612D01*
X125162766Y-79555457D01*
X125162763Y-79555468D01*
X125134500Y-79697560D01*
X125134500Y-79842439D01*
X125162763Y-79984531D01*
X125162766Y-79984542D01*
X125218206Y-80118387D01*
X125277550Y-80207202D01*
X125298700Y-80238854D01*
X125401146Y-80341300D01*
X125521610Y-80421792D01*
X125655462Y-80477235D01*
X125797560Y-80505500D01*
X125797561Y-80505500D01*
X125942439Y-80505500D01*
X125942440Y-80505500D01*
X126084538Y-80477235D01*
X126218390Y-80421792D01*
X126338854Y-80341300D01*
X126400994Y-80279159D01*
X126453318Y-80257485D01*
X126505644Y-80279159D01*
X126527319Y-80331484D01*
X126519254Y-80365078D01*
X126514354Y-80374694D01*
X126514353Y-80374695D01*
X126494508Y-80500000D01*
X126514353Y-80625301D01*
X126514353Y-80625302D01*
X126514354Y-80625304D01*
X126571950Y-80738342D01*
X126571951Y-80738343D01*
X126631282Y-80797674D01*
X126652956Y-80850000D01*
X126631282Y-80902326D01*
X126571951Y-80961656D01*
X126514353Y-81074698D01*
X126494508Y-81200000D01*
X126514353Y-81325301D01*
X126514353Y-81325302D01*
X126514354Y-81325304D01*
X126571950Y-81438342D01*
X126571951Y-81438343D01*
X126631282Y-81497674D01*
X126652956Y-81550000D01*
X126631282Y-81602326D01*
X126571951Y-81661656D01*
X126514353Y-81774698D01*
X126494508Y-81900000D01*
X126514353Y-82025301D01*
X126514353Y-82025302D01*
X126514354Y-82025304D01*
X126571950Y-82138342D01*
X126661658Y-82228050D01*
X126774696Y-82285646D01*
X126900000Y-82305492D01*
X127025304Y-82285646D01*
X127138342Y-82228050D01*
X127228050Y-82138342D01*
X127285646Y-82025304D01*
X127305492Y-81900000D01*
X127285646Y-81774696D01*
X127228050Y-81661658D01*
X127168718Y-81602326D01*
X127147044Y-81550000D01*
X127168718Y-81497674D01*
X127228050Y-81438342D01*
X127285646Y-81325304D01*
X127305492Y-81200000D01*
X127285646Y-81074696D01*
X127228050Y-80961658D01*
X127168718Y-80902326D01*
X127147044Y-80850000D01*
X127168718Y-80797674D01*
X127228050Y-80738342D01*
X127285646Y-80625304D01*
X127305492Y-80500000D01*
X127285646Y-80374696D01*
X127228050Y-80261658D01*
X127138342Y-80171950D01*
X127025304Y-80114354D01*
X127025302Y-80114353D01*
X127025301Y-80114353D01*
X126900000Y-80094508D01*
X126774698Y-80114353D01*
X126661654Y-80171952D01*
X126661653Y-80171952D01*
X126648077Y-80185529D01*
X126595751Y-80207202D01*
X126543426Y-80185526D01*
X126521753Y-80133200D01*
X126527385Y-80104886D01*
X126577235Y-79984538D01*
X126605500Y-79842440D01*
X126605500Y-79697560D01*
X126593233Y-79635888D01*
X126604282Y-79580341D01*
X126651375Y-79548875D01*
X126699410Y-79555521D01*
X126702200Y-79556943D01*
X126702202Y-79556943D01*
X126702205Y-79556945D01*
X126872921Y-79612414D01*
X126872927Y-79612415D01*
X126872932Y-79612417D01*
X126991138Y-79631139D01*
X127050240Y-79640500D01*
X127050241Y-79640500D01*
X127229760Y-79640500D01*
X127274086Y-79633479D01*
X127407068Y-79612417D01*
X127407075Y-79612414D01*
X127407078Y-79612414D01*
X127577794Y-79556945D01*
X127577794Y-79556944D01*
X127577800Y-79556943D01*
X127580583Y-79555524D01*
X127637043Y-79551071D01*
X127680116Y-79587846D01*
X127686766Y-79635888D01*
X127674500Y-79697559D01*
X127674500Y-79842439D01*
X127702763Y-79984531D01*
X127702766Y-79984542D01*
X127758206Y-80118387D01*
X127817550Y-80207202D01*
X127838700Y-80238854D01*
X127941146Y-80341300D01*
X128061610Y-80421792D01*
X128195462Y-80477235D01*
X128337560Y-80505500D01*
X128337561Y-80505500D01*
X128482439Y-80505500D01*
X128482440Y-80505500D01*
X128624538Y-80477235D01*
X128758390Y-80421792D01*
X128878854Y-80341300D01*
X128981300Y-80238854D01*
X129061792Y-80118390D01*
X129117235Y-79984538D01*
X129145500Y-79842440D01*
X129145500Y-79697560D01*
X130214500Y-79697560D01*
X130214500Y-79842439D01*
X130242763Y-79984531D01*
X130242766Y-79984542D01*
X130298206Y-80118387D01*
X130357550Y-80207202D01*
X130378700Y-80238854D01*
X130481146Y-80341300D01*
X130601610Y-80421792D01*
X130735462Y-80477235D01*
X130877560Y-80505500D01*
X130877561Y-80505500D01*
X131022439Y-80505500D01*
X131022440Y-80505500D01*
X131164538Y-80477235D01*
X131298390Y-80421792D01*
X131418854Y-80341300D01*
X131521300Y-80238854D01*
X131601792Y-80118390D01*
X131657235Y-79984538D01*
X131685500Y-79842440D01*
X131685500Y-79697560D01*
X132754500Y-79697560D01*
X132754500Y-79842439D01*
X132782763Y-79984531D01*
X132782766Y-79984542D01*
X132838206Y-80118387D01*
X132897550Y-80207202D01*
X132918700Y-80238854D01*
X133021146Y-80341300D01*
X133141610Y-80421792D01*
X133275462Y-80477235D01*
X133417560Y-80505500D01*
X133417561Y-80505500D01*
X133562439Y-80505500D01*
X133562440Y-80505500D01*
X133704538Y-80477235D01*
X133838390Y-80421792D01*
X133958854Y-80341300D01*
X134061300Y-80238854D01*
X134141792Y-80118390D01*
X134197235Y-79984538D01*
X134225500Y-79842440D01*
X134225500Y-79697560D01*
X135294500Y-79697560D01*
X135294500Y-79842439D01*
X135322763Y-79984531D01*
X135322766Y-79984542D01*
X135378206Y-80118387D01*
X135437550Y-80207202D01*
X135458700Y-80238854D01*
X135561146Y-80341300D01*
X135681610Y-80421792D01*
X135815462Y-80477235D01*
X135957560Y-80505500D01*
X135957561Y-80505500D01*
X136102439Y-80505500D01*
X136102440Y-80505500D01*
X136244538Y-80477235D01*
X136378390Y-80421792D01*
X136498854Y-80341300D01*
X136601300Y-80238854D01*
X136681792Y-80118390D01*
X136737235Y-79984538D01*
X136765500Y-79842440D01*
X136765500Y-79697560D01*
X137834500Y-79697560D01*
X137834500Y-79842439D01*
X137862763Y-79984531D01*
X137862766Y-79984542D01*
X137918206Y-80118387D01*
X137977550Y-80207202D01*
X137998700Y-80238854D01*
X138101146Y-80341300D01*
X138221610Y-80421792D01*
X138355462Y-80477235D01*
X138497560Y-80505500D01*
X138497561Y-80505500D01*
X138642439Y-80505500D01*
X138642440Y-80505500D01*
X138784538Y-80477235D01*
X138918390Y-80421792D01*
X139038854Y-80341300D01*
X139141300Y-80238854D01*
X139221792Y-80118390D01*
X139277235Y-79984538D01*
X139305500Y-79842440D01*
X139305500Y-79697560D01*
X140374500Y-79697560D01*
X140374500Y-79842439D01*
X140402763Y-79984531D01*
X140402766Y-79984542D01*
X140458206Y-80118387D01*
X140517550Y-80207202D01*
X140538700Y-80238854D01*
X140641146Y-80341300D01*
X140761610Y-80421792D01*
X140895462Y-80477235D01*
X141037560Y-80505500D01*
X141037561Y-80505500D01*
X141182439Y-80505500D01*
X141182440Y-80505500D01*
X141324538Y-80477235D01*
X141458390Y-80421792D01*
X141578854Y-80341300D01*
X141681300Y-80238854D01*
X141761792Y-80118390D01*
X141817235Y-79984538D01*
X141845500Y-79842440D01*
X141845500Y-79697560D01*
X142914500Y-79697560D01*
X142914500Y-79842439D01*
X142942763Y-79984531D01*
X142942766Y-79984542D01*
X142998206Y-80118387D01*
X143057550Y-80207202D01*
X143078700Y-80238854D01*
X143181146Y-80341300D01*
X143301610Y-80421792D01*
X143435462Y-80477235D01*
X143577560Y-80505500D01*
X143577561Y-80505500D01*
X143722439Y-80505500D01*
X143722440Y-80505500D01*
X143864538Y-80477235D01*
X143998390Y-80421792D01*
X144118854Y-80341300D01*
X144221300Y-80238854D01*
X144301792Y-80118390D01*
X144357235Y-79984538D01*
X144385500Y-79842440D01*
X144385500Y-79697560D01*
X145454500Y-79697560D01*
X145454500Y-79842439D01*
X145482763Y-79984531D01*
X145482766Y-79984542D01*
X145538206Y-80118387D01*
X145597550Y-80207202D01*
X145618700Y-80238854D01*
X145721146Y-80341300D01*
X145841610Y-80421792D01*
X145975462Y-80477235D01*
X146117560Y-80505500D01*
X146117561Y-80505500D01*
X146262439Y-80505500D01*
X146262440Y-80505500D01*
X146404538Y-80477235D01*
X146538390Y-80421792D01*
X146658854Y-80341300D01*
X146688861Y-80311292D01*
X146741184Y-80289619D01*
X146793510Y-80311292D01*
X146815185Y-80363618D01*
X146814274Y-80375194D01*
X146794508Y-80499998D01*
X146794508Y-80499999D01*
X146814353Y-80625301D01*
X146814353Y-80625302D01*
X146814354Y-80625304D01*
X146871950Y-80738342D01*
X146871951Y-80738343D01*
X146931282Y-80797674D01*
X146952956Y-80850000D01*
X146931282Y-80902326D01*
X146871951Y-80961656D01*
X146814353Y-81074698D01*
X146794508Y-81200000D01*
X146814353Y-81325301D01*
X146814353Y-81325302D01*
X146814354Y-81325304D01*
X146871950Y-81438342D01*
X146871951Y-81438343D01*
X146931282Y-81497674D01*
X146952956Y-81550000D01*
X146931282Y-81602326D01*
X146871951Y-81661656D01*
X146814353Y-81774698D01*
X146794508Y-81900000D01*
X146814353Y-82025301D01*
X146814353Y-82025302D01*
X146814354Y-82025304D01*
X146871950Y-82138342D01*
X146961658Y-82228050D01*
X147074696Y-82285646D01*
X147200000Y-82305492D01*
X147325304Y-82285646D01*
X147438342Y-82228050D01*
X147528050Y-82138342D01*
X147585646Y-82025304D01*
X147605492Y-81900000D01*
X147585646Y-81774696D01*
X147528050Y-81661658D01*
X147468718Y-81602326D01*
X147447044Y-81550000D01*
X147468718Y-81497674D01*
X147528050Y-81438342D01*
X147585646Y-81325304D01*
X147605492Y-81200000D01*
X147585646Y-81074696D01*
X147528050Y-80961658D01*
X147468718Y-80902326D01*
X147447044Y-80850000D01*
X147468718Y-80797674D01*
X147528050Y-80738342D01*
X147585646Y-80625304D01*
X147605492Y-80500000D01*
X147585646Y-80374696D01*
X147528050Y-80261658D01*
X147438342Y-80171950D01*
X147325304Y-80114354D01*
X147325302Y-80114353D01*
X147325301Y-80114353D01*
X147200000Y-80094508D01*
X147074698Y-80114353D01*
X146960329Y-80172627D01*
X146903866Y-80177070D01*
X146860799Y-80140287D01*
X146856356Y-80083824D01*
X146858367Y-80078373D01*
X146897235Y-79984538D01*
X146925500Y-79842440D01*
X146925500Y-79697560D01*
X147994500Y-79697560D01*
X147994500Y-79842439D01*
X148022763Y-79984531D01*
X148022766Y-79984542D01*
X148078206Y-80118387D01*
X148137550Y-80207202D01*
X148158700Y-80238854D01*
X148261146Y-80341300D01*
X148381610Y-80421792D01*
X148515462Y-80477235D01*
X148657560Y-80505500D01*
X148657561Y-80505500D01*
X148802439Y-80505500D01*
X148802440Y-80505500D01*
X148944538Y-80477235D01*
X149078390Y-80421792D01*
X149198854Y-80341300D01*
X149301300Y-80238854D01*
X149381792Y-80118390D01*
X149437235Y-79984538D01*
X149465500Y-79842440D01*
X149465500Y-79697560D01*
X150534500Y-79697560D01*
X150534500Y-79842439D01*
X150562763Y-79984531D01*
X150562766Y-79984542D01*
X150618206Y-80118387D01*
X150677550Y-80207202D01*
X150698700Y-80238854D01*
X150801146Y-80341300D01*
X150921610Y-80421792D01*
X151055462Y-80477235D01*
X151197560Y-80505500D01*
X151197561Y-80505500D01*
X151342439Y-80505500D01*
X151342440Y-80505500D01*
X151484538Y-80477235D01*
X151618390Y-80421792D01*
X151738854Y-80341300D01*
X151841300Y-80238854D01*
X151921792Y-80118390D01*
X151977235Y-79984538D01*
X152005500Y-79842440D01*
X152005500Y-79697560D01*
X153074500Y-79697560D01*
X153074500Y-79842439D01*
X153102763Y-79984531D01*
X153102766Y-79984542D01*
X153158206Y-80118387D01*
X153217550Y-80207202D01*
X153238700Y-80238854D01*
X153341146Y-80341300D01*
X153461610Y-80421792D01*
X153595462Y-80477235D01*
X153737560Y-80505500D01*
X153737561Y-80505500D01*
X153882439Y-80505500D01*
X153882440Y-80505500D01*
X154024538Y-80477235D01*
X154158390Y-80421792D01*
X154278854Y-80341300D01*
X154381300Y-80238854D01*
X154461792Y-80118390D01*
X154517235Y-79984538D01*
X154545500Y-79842440D01*
X154545500Y-79697560D01*
X155614500Y-79697560D01*
X155614500Y-79842439D01*
X155642763Y-79984531D01*
X155642766Y-79984542D01*
X155698206Y-80118387D01*
X155757550Y-80207202D01*
X155778700Y-80238854D01*
X155881146Y-80341300D01*
X156001610Y-80421792D01*
X156135462Y-80477235D01*
X156277560Y-80505500D01*
X156277561Y-80505500D01*
X156422439Y-80505500D01*
X156422440Y-80505500D01*
X156564538Y-80477235D01*
X156698390Y-80421792D01*
X156818854Y-80341300D01*
X156921300Y-80238854D01*
X157001792Y-80118390D01*
X157057235Y-79984538D01*
X157085500Y-79842440D01*
X157085500Y-79697560D01*
X158154500Y-79697560D01*
X158154500Y-79842439D01*
X158182763Y-79984531D01*
X158182766Y-79984542D01*
X158238206Y-80118387D01*
X158297550Y-80207202D01*
X158318700Y-80238854D01*
X158421146Y-80341300D01*
X158541610Y-80421792D01*
X158675462Y-80477235D01*
X158817560Y-80505500D01*
X158817561Y-80505500D01*
X158962439Y-80505500D01*
X158962440Y-80505500D01*
X159104538Y-80477235D01*
X159238390Y-80421792D01*
X159358854Y-80341300D01*
X159461300Y-80238854D01*
X159541792Y-80118390D01*
X159597235Y-79984538D01*
X159625500Y-79842440D01*
X159625500Y-79697560D01*
X160694500Y-79697560D01*
X160694500Y-79842439D01*
X160722763Y-79984531D01*
X160722766Y-79984542D01*
X160778206Y-80118387D01*
X160837550Y-80207202D01*
X160858700Y-80238854D01*
X160961146Y-80341300D01*
X161081610Y-80421792D01*
X161215462Y-80477235D01*
X161357560Y-80505500D01*
X161357561Y-80505500D01*
X161502439Y-80505500D01*
X161502440Y-80505500D01*
X161644538Y-80477235D01*
X161778390Y-80421792D01*
X161898854Y-80341300D01*
X162001300Y-80238854D01*
X162081792Y-80118390D01*
X162137235Y-79984538D01*
X162165500Y-79842440D01*
X162165500Y-79697560D01*
X163234500Y-79697560D01*
X163234500Y-79842439D01*
X163262763Y-79984531D01*
X163262766Y-79984542D01*
X163318206Y-80118387D01*
X163377550Y-80207202D01*
X163398700Y-80238854D01*
X163501146Y-80341300D01*
X163621610Y-80421792D01*
X163755462Y-80477235D01*
X163897560Y-80505500D01*
X163897561Y-80505500D01*
X164042439Y-80505500D01*
X164042440Y-80505500D01*
X164184538Y-80477235D01*
X164318390Y-80421792D01*
X164438854Y-80341300D01*
X164541300Y-80238854D01*
X164621792Y-80118390D01*
X164677235Y-79984538D01*
X164705500Y-79842440D01*
X164705500Y-79697560D01*
X165774500Y-79697560D01*
X165774500Y-79842439D01*
X165802763Y-79984531D01*
X165802766Y-79984542D01*
X165858206Y-80118387D01*
X165917550Y-80207202D01*
X165938700Y-80238854D01*
X166041146Y-80341300D01*
X166161610Y-80421792D01*
X166295462Y-80477235D01*
X166437560Y-80505500D01*
X166437561Y-80505500D01*
X166582439Y-80505500D01*
X166582440Y-80505500D01*
X166724538Y-80477235D01*
X166858390Y-80421792D01*
X166978854Y-80341300D01*
X167081300Y-80238854D01*
X167161792Y-80118390D01*
X167217235Y-79984538D01*
X167245500Y-79842440D01*
X167245500Y-79697560D01*
X168314500Y-79697560D01*
X168314500Y-79842439D01*
X168342763Y-79984531D01*
X168342766Y-79984542D01*
X168398206Y-80118387D01*
X168457550Y-80207202D01*
X168478700Y-80238854D01*
X168581146Y-80341300D01*
X168701610Y-80421792D01*
X168835462Y-80477235D01*
X168977560Y-80505500D01*
X168977561Y-80505500D01*
X169122439Y-80505500D01*
X169122440Y-80505500D01*
X169264538Y-80477235D01*
X169398390Y-80421792D01*
X169518854Y-80341300D01*
X169621300Y-80238854D01*
X169701792Y-80118390D01*
X169757235Y-79984538D01*
X169785500Y-79842440D01*
X169785500Y-79697560D01*
X169757235Y-79555462D01*
X169701792Y-79421610D01*
X169621300Y-79301146D01*
X169518854Y-79198700D01*
X169398390Y-79118208D01*
X169398389Y-79118207D01*
X169398387Y-79118206D01*
X169264542Y-79062766D01*
X169264531Y-79062763D01*
X169150699Y-79040121D01*
X169122440Y-79034500D01*
X168977560Y-79034500D01*
X168949449Y-79040091D01*
X168835468Y-79062763D01*
X168835457Y-79062766D01*
X168701612Y-79118206D01*
X168581149Y-79198697D01*
X168478697Y-79301149D01*
X168398206Y-79421612D01*
X168342766Y-79555457D01*
X168342763Y-79555468D01*
X168314500Y-79697560D01*
X167245500Y-79697560D01*
X167217235Y-79555462D01*
X167161792Y-79421610D01*
X167081300Y-79301146D01*
X166978854Y-79198700D01*
X166858390Y-79118208D01*
X166858389Y-79118207D01*
X166858387Y-79118206D01*
X166724542Y-79062766D01*
X166724531Y-79062763D01*
X166610699Y-79040121D01*
X166582440Y-79034500D01*
X166437560Y-79034500D01*
X166409449Y-79040091D01*
X166295468Y-79062763D01*
X166295457Y-79062766D01*
X166161612Y-79118206D01*
X166041149Y-79198697D01*
X165938697Y-79301149D01*
X165858206Y-79421612D01*
X165802766Y-79555457D01*
X165802763Y-79555468D01*
X165774500Y-79697560D01*
X164705500Y-79697560D01*
X164677235Y-79555462D01*
X164621792Y-79421610D01*
X164541300Y-79301146D01*
X164438854Y-79198700D01*
X164318390Y-79118208D01*
X164318389Y-79118207D01*
X164318387Y-79118206D01*
X164184542Y-79062766D01*
X164184531Y-79062763D01*
X164070699Y-79040121D01*
X164042440Y-79034500D01*
X163897560Y-79034500D01*
X163869449Y-79040091D01*
X163755468Y-79062763D01*
X163755457Y-79062766D01*
X163621612Y-79118206D01*
X163501149Y-79198697D01*
X163398697Y-79301149D01*
X163318206Y-79421612D01*
X163262766Y-79555457D01*
X163262763Y-79555468D01*
X163234500Y-79697560D01*
X162165500Y-79697560D01*
X162137235Y-79555462D01*
X162081792Y-79421610D01*
X162001300Y-79301146D01*
X161898854Y-79198700D01*
X161778390Y-79118208D01*
X161778389Y-79118207D01*
X161778387Y-79118206D01*
X161644542Y-79062766D01*
X161644531Y-79062763D01*
X161530699Y-79040121D01*
X161502440Y-79034500D01*
X161357560Y-79034500D01*
X161329449Y-79040091D01*
X161215468Y-79062763D01*
X161215457Y-79062766D01*
X161081612Y-79118206D01*
X160961149Y-79198697D01*
X160858697Y-79301149D01*
X160778206Y-79421612D01*
X160722766Y-79555457D01*
X160722763Y-79555468D01*
X160694500Y-79697560D01*
X159625500Y-79697560D01*
X159597235Y-79555462D01*
X159541792Y-79421610D01*
X159461300Y-79301146D01*
X159358854Y-79198700D01*
X159238390Y-79118208D01*
X159238389Y-79118207D01*
X159238387Y-79118206D01*
X159104542Y-79062766D01*
X159104531Y-79062763D01*
X158990699Y-79040121D01*
X158962440Y-79034500D01*
X158817560Y-79034500D01*
X158789449Y-79040091D01*
X158675468Y-79062763D01*
X158675457Y-79062766D01*
X158541612Y-79118206D01*
X158421149Y-79198697D01*
X158318697Y-79301149D01*
X158238206Y-79421612D01*
X158182766Y-79555457D01*
X158182763Y-79555468D01*
X158154500Y-79697560D01*
X157085500Y-79697560D01*
X157057235Y-79555462D01*
X157001792Y-79421610D01*
X156921300Y-79301146D01*
X156818854Y-79198700D01*
X156698390Y-79118208D01*
X156698389Y-79118207D01*
X156698387Y-79118206D01*
X156564542Y-79062766D01*
X156564531Y-79062763D01*
X156450699Y-79040121D01*
X156422440Y-79034500D01*
X156277560Y-79034500D01*
X156249449Y-79040091D01*
X156135468Y-79062763D01*
X156135457Y-79062766D01*
X156001612Y-79118206D01*
X155881149Y-79198697D01*
X155778697Y-79301149D01*
X155698206Y-79421612D01*
X155642766Y-79555457D01*
X155642763Y-79555468D01*
X155614500Y-79697560D01*
X154545500Y-79697560D01*
X154517235Y-79555462D01*
X154461792Y-79421610D01*
X154381300Y-79301146D01*
X154278854Y-79198700D01*
X154158390Y-79118208D01*
X154158389Y-79118207D01*
X154158387Y-79118206D01*
X154024542Y-79062766D01*
X154024531Y-79062763D01*
X153910699Y-79040121D01*
X153882440Y-79034500D01*
X153737560Y-79034500D01*
X153709449Y-79040091D01*
X153595468Y-79062763D01*
X153595457Y-79062766D01*
X153461612Y-79118206D01*
X153341149Y-79198697D01*
X153238697Y-79301149D01*
X153158206Y-79421612D01*
X153102766Y-79555457D01*
X153102763Y-79555468D01*
X153074500Y-79697560D01*
X152005500Y-79697560D01*
X151977235Y-79555462D01*
X151921792Y-79421610D01*
X151841300Y-79301146D01*
X151738854Y-79198700D01*
X151618390Y-79118208D01*
X151618389Y-79118207D01*
X151618387Y-79118206D01*
X151484542Y-79062766D01*
X151484531Y-79062763D01*
X151370699Y-79040121D01*
X151342440Y-79034500D01*
X151197560Y-79034500D01*
X151169449Y-79040091D01*
X151055468Y-79062763D01*
X151055457Y-79062766D01*
X150921612Y-79118206D01*
X150801149Y-79198697D01*
X150698697Y-79301149D01*
X150618206Y-79421612D01*
X150562766Y-79555457D01*
X150562763Y-79555468D01*
X150534500Y-79697560D01*
X149465500Y-79697560D01*
X149437235Y-79555462D01*
X149381792Y-79421610D01*
X149301300Y-79301146D01*
X149198854Y-79198700D01*
X149078390Y-79118208D01*
X149078389Y-79118207D01*
X149078387Y-79118206D01*
X148944542Y-79062766D01*
X148944531Y-79062763D01*
X148830699Y-79040121D01*
X148802440Y-79034500D01*
X148657560Y-79034500D01*
X148629449Y-79040091D01*
X148515468Y-79062763D01*
X148515457Y-79062766D01*
X148381612Y-79118206D01*
X148261149Y-79198697D01*
X148158697Y-79301149D01*
X148078206Y-79421612D01*
X148022766Y-79555457D01*
X148022763Y-79555468D01*
X147994500Y-79697560D01*
X146925500Y-79697560D01*
X146897235Y-79555462D01*
X146841792Y-79421610D01*
X146761300Y-79301146D01*
X146658854Y-79198700D01*
X146538390Y-79118208D01*
X146538389Y-79118207D01*
X146538387Y-79118206D01*
X146404542Y-79062766D01*
X146404531Y-79062763D01*
X146290699Y-79040121D01*
X146262440Y-79034500D01*
X146117560Y-79034500D01*
X146089449Y-79040091D01*
X145975468Y-79062763D01*
X145975457Y-79062766D01*
X145841612Y-79118206D01*
X145721149Y-79198697D01*
X145618697Y-79301149D01*
X145538206Y-79421612D01*
X145482766Y-79555457D01*
X145482763Y-79555468D01*
X145454500Y-79697560D01*
X144385500Y-79697560D01*
X144357235Y-79555462D01*
X144301792Y-79421610D01*
X144221300Y-79301146D01*
X144118854Y-79198700D01*
X143998390Y-79118208D01*
X143998389Y-79118207D01*
X143998387Y-79118206D01*
X143864542Y-79062766D01*
X143864531Y-79062763D01*
X143750699Y-79040121D01*
X143722440Y-79034500D01*
X143577560Y-79034500D01*
X143549449Y-79040091D01*
X143435468Y-79062763D01*
X143435457Y-79062766D01*
X143301612Y-79118206D01*
X143181149Y-79198697D01*
X143078697Y-79301149D01*
X142998206Y-79421612D01*
X142942766Y-79555457D01*
X142942763Y-79555468D01*
X142914500Y-79697560D01*
X141845500Y-79697560D01*
X141817235Y-79555462D01*
X141761792Y-79421610D01*
X141681300Y-79301146D01*
X141578854Y-79198700D01*
X141458390Y-79118208D01*
X141458389Y-79118207D01*
X141458387Y-79118206D01*
X141324542Y-79062766D01*
X141324531Y-79062763D01*
X141210699Y-79040121D01*
X141182440Y-79034500D01*
X141037560Y-79034500D01*
X141009449Y-79040091D01*
X140895468Y-79062763D01*
X140895457Y-79062766D01*
X140761612Y-79118206D01*
X140641149Y-79198697D01*
X140538697Y-79301149D01*
X140458206Y-79421612D01*
X140402766Y-79555457D01*
X140402763Y-79555468D01*
X140374500Y-79697560D01*
X139305500Y-79697560D01*
X139277235Y-79555462D01*
X139221792Y-79421610D01*
X139141300Y-79301146D01*
X139038854Y-79198700D01*
X138918390Y-79118208D01*
X138918389Y-79118207D01*
X138918387Y-79118206D01*
X138784542Y-79062766D01*
X138784531Y-79062763D01*
X138670699Y-79040121D01*
X138642440Y-79034500D01*
X138497560Y-79034500D01*
X138469449Y-79040091D01*
X138355468Y-79062763D01*
X138355457Y-79062766D01*
X138221612Y-79118206D01*
X138101149Y-79198697D01*
X137998697Y-79301149D01*
X137918206Y-79421612D01*
X137862766Y-79555457D01*
X137862763Y-79555468D01*
X137834500Y-79697560D01*
X136765500Y-79697560D01*
X136737235Y-79555462D01*
X136681792Y-79421610D01*
X136601300Y-79301146D01*
X136498854Y-79198700D01*
X136378390Y-79118208D01*
X136378389Y-79118207D01*
X136378387Y-79118206D01*
X136244542Y-79062766D01*
X136244531Y-79062763D01*
X136130699Y-79040121D01*
X136102440Y-79034500D01*
X135957560Y-79034500D01*
X135929449Y-79040091D01*
X135815468Y-79062763D01*
X135815457Y-79062766D01*
X135681612Y-79118206D01*
X135561149Y-79198697D01*
X135458697Y-79301149D01*
X135378206Y-79421612D01*
X135322766Y-79555457D01*
X135322763Y-79555468D01*
X135294500Y-79697560D01*
X134225500Y-79697560D01*
X134197235Y-79555462D01*
X134141792Y-79421610D01*
X134061300Y-79301146D01*
X133958854Y-79198700D01*
X133838390Y-79118208D01*
X133838389Y-79118207D01*
X133838387Y-79118206D01*
X133704542Y-79062766D01*
X133704531Y-79062763D01*
X133590699Y-79040121D01*
X133562440Y-79034500D01*
X133417560Y-79034500D01*
X133389449Y-79040091D01*
X133275468Y-79062763D01*
X133275457Y-79062766D01*
X133141612Y-79118206D01*
X133021149Y-79198697D01*
X132918697Y-79301149D01*
X132838206Y-79421612D01*
X132782766Y-79555457D01*
X132782763Y-79555468D01*
X132754500Y-79697560D01*
X131685500Y-79697560D01*
X131657235Y-79555462D01*
X131601792Y-79421610D01*
X131521300Y-79301146D01*
X131418854Y-79198700D01*
X131298390Y-79118208D01*
X131298389Y-79118207D01*
X131298387Y-79118206D01*
X131164542Y-79062766D01*
X131164531Y-79062763D01*
X131050699Y-79040121D01*
X131022440Y-79034500D01*
X130877560Y-79034500D01*
X130849449Y-79040091D01*
X130735468Y-79062763D01*
X130735457Y-79062766D01*
X130601612Y-79118206D01*
X130481149Y-79198697D01*
X130378697Y-79301149D01*
X130298206Y-79421612D01*
X130242766Y-79555457D01*
X130242763Y-79555468D01*
X130214500Y-79697560D01*
X129145500Y-79697560D01*
X129117235Y-79555462D01*
X129061792Y-79421610D01*
X128981300Y-79301146D01*
X128878854Y-79198700D01*
X128758390Y-79118208D01*
X128758389Y-79118207D01*
X128758387Y-79118206D01*
X128624542Y-79062766D01*
X128624531Y-79062763D01*
X128510699Y-79040121D01*
X128482440Y-79034500D01*
X128337560Y-79034500D01*
X128337559Y-79034500D01*
X128275888Y-79046766D01*
X128220340Y-79035716D01*
X128188875Y-78988623D01*
X128195524Y-78940583D01*
X128196943Y-78937800D01*
X128252417Y-78767068D01*
X128280500Y-78589759D01*
X128280500Y-78410241D01*
X128252417Y-78232932D01*
X128252415Y-78232927D01*
X128252414Y-78232921D01*
X128196945Y-78062205D01*
X128196943Y-78062202D01*
X128196943Y-78062200D01*
X128195521Y-78059410D01*
X128191072Y-78002951D01*
X128227851Y-77959880D01*
X128275889Y-77953233D01*
X128296941Y-77957420D01*
X128337560Y-77965500D01*
X128337561Y-77965500D01*
X128482439Y-77965500D01*
X128482440Y-77965500D01*
X128624538Y-77937235D01*
X128758390Y-77881792D01*
X128878854Y-77801300D01*
X128981300Y-77698854D01*
X129061792Y-77578390D01*
X129117235Y-77444538D01*
X129145500Y-77302440D01*
X129145500Y-77157560D01*
X130214500Y-77157560D01*
X130214500Y-77302439D01*
X130242763Y-77444531D01*
X130242766Y-77444542D01*
X130298206Y-77578387D01*
X130377963Y-77697752D01*
X130378700Y-77698854D01*
X130481146Y-77801300D01*
X130601610Y-77881792D01*
X130601611Y-77881792D01*
X130601612Y-77881793D01*
X130735457Y-77937233D01*
X130735462Y-77937235D01*
X130877560Y-77965500D01*
X130877561Y-77965500D01*
X131022439Y-77965500D01*
X131022440Y-77965500D01*
X131164538Y-77937235D01*
X131298390Y-77881792D01*
X131418854Y-77801300D01*
X131521300Y-77698854D01*
X131601792Y-77578390D01*
X131657235Y-77444538D01*
X131685500Y-77302440D01*
X131685500Y-77157560D01*
X132754500Y-77157560D01*
X132754500Y-77302439D01*
X132782763Y-77444531D01*
X132782766Y-77444542D01*
X132838206Y-77578387D01*
X132917963Y-77697752D01*
X132918700Y-77698854D01*
X133021146Y-77801300D01*
X133141610Y-77881792D01*
X133141611Y-77881792D01*
X133141612Y-77881793D01*
X133275457Y-77937233D01*
X133275462Y-77937235D01*
X133417560Y-77965500D01*
X133417561Y-77965500D01*
X133562439Y-77965500D01*
X133562440Y-77965500D01*
X133704538Y-77937235D01*
X133838390Y-77881792D01*
X133958854Y-77801300D01*
X134061300Y-77698854D01*
X134141792Y-77578390D01*
X134197235Y-77444538D01*
X134225500Y-77302440D01*
X134225500Y-77157560D01*
X135294500Y-77157560D01*
X135294500Y-77302439D01*
X135322763Y-77444531D01*
X135322766Y-77444542D01*
X135378206Y-77578387D01*
X135457963Y-77697752D01*
X135458700Y-77698854D01*
X135561146Y-77801300D01*
X135681610Y-77881792D01*
X135681611Y-77881792D01*
X135681612Y-77881793D01*
X135815457Y-77937233D01*
X135815462Y-77937235D01*
X135957560Y-77965500D01*
X135957561Y-77965500D01*
X136102439Y-77965500D01*
X136102440Y-77965500D01*
X136244538Y-77937235D01*
X136378390Y-77881792D01*
X136498854Y-77801300D01*
X136601300Y-77698854D01*
X136681792Y-77578390D01*
X136737235Y-77444538D01*
X136765500Y-77302440D01*
X136765500Y-77157560D01*
X137834500Y-77157560D01*
X137834500Y-77302439D01*
X137862763Y-77444531D01*
X137862766Y-77444542D01*
X137918206Y-77578387D01*
X137997963Y-77697752D01*
X137998700Y-77698854D01*
X138101146Y-77801300D01*
X138221610Y-77881792D01*
X138221611Y-77881792D01*
X138221612Y-77881793D01*
X138355457Y-77937233D01*
X138355462Y-77937235D01*
X138497560Y-77965500D01*
X138497561Y-77965500D01*
X138642439Y-77965500D01*
X138642440Y-77965500D01*
X138784538Y-77937235D01*
X138918390Y-77881792D01*
X139038854Y-77801300D01*
X139141300Y-77698854D01*
X139221792Y-77578390D01*
X139277235Y-77444538D01*
X139305500Y-77302440D01*
X139305500Y-77157560D01*
X140374500Y-77157560D01*
X140374500Y-77302439D01*
X140402763Y-77444531D01*
X140402766Y-77444542D01*
X140458206Y-77578387D01*
X140537963Y-77697752D01*
X140538700Y-77698854D01*
X140641146Y-77801300D01*
X140761610Y-77881792D01*
X140761611Y-77881792D01*
X140761612Y-77881793D01*
X140895457Y-77937233D01*
X140895462Y-77937235D01*
X141037560Y-77965500D01*
X141037561Y-77965500D01*
X141182439Y-77965500D01*
X141182440Y-77965500D01*
X141324538Y-77937235D01*
X141458390Y-77881792D01*
X141578854Y-77801300D01*
X141681300Y-77698854D01*
X141761792Y-77578390D01*
X141817235Y-77444538D01*
X141845500Y-77302440D01*
X141845500Y-77157560D01*
X142914500Y-77157560D01*
X142914500Y-77302439D01*
X142942763Y-77444531D01*
X142942766Y-77444542D01*
X142998206Y-77578387D01*
X143077963Y-77697752D01*
X143078700Y-77698854D01*
X143181146Y-77801300D01*
X143301610Y-77881792D01*
X143301611Y-77881792D01*
X143301612Y-77881793D01*
X143435457Y-77937233D01*
X143435462Y-77937235D01*
X143577560Y-77965500D01*
X143577561Y-77965500D01*
X143722439Y-77965500D01*
X143722440Y-77965500D01*
X143864538Y-77937235D01*
X143998390Y-77881792D01*
X144118854Y-77801300D01*
X144221300Y-77698854D01*
X144301792Y-77578390D01*
X144357235Y-77444538D01*
X144385500Y-77302440D01*
X144385500Y-77157560D01*
X145454500Y-77157560D01*
X145454500Y-77302439D01*
X145482763Y-77444531D01*
X145482766Y-77444542D01*
X145538206Y-77578387D01*
X145617963Y-77697752D01*
X145618700Y-77698854D01*
X145721146Y-77801300D01*
X145841610Y-77881792D01*
X145841611Y-77881792D01*
X145841612Y-77881793D01*
X145975457Y-77937233D01*
X145975462Y-77937235D01*
X146117560Y-77965500D01*
X146117561Y-77965500D01*
X146262439Y-77965500D01*
X146262440Y-77965500D01*
X146404538Y-77937235D01*
X146538390Y-77881792D01*
X146658854Y-77801300D01*
X146761300Y-77698854D01*
X146841792Y-77578390D01*
X146897235Y-77444538D01*
X146925500Y-77302440D01*
X146925500Y-77157560D01*
X147994500Y-77157560D01*
X147994500Y-77302439D01*
X148022763Y-77444531D01*
X148022766Y-77444542D01*
X148078206Y-77578387D01*
X148157963Y-77697752D01*
X148158700Y-77698854D01*
X148261146Y-77801300D01*
X148381610Y-77881792D01*
X148381611Y-77881792D01*
X148381612Y-77881793D01*
X148515457Y-77937233D01*
X148515462Y-77937235D01*
X148657560Y-77965500D01*
X148657561Y-77965500D01*
X148802439Y-77965500D01*
X148802440Y-77965500D01*
X148944538Y-77937235D01*
X149078390Y-77881792D01*
X149198854Y-77801300D01*
X149301300Y-77698854D01*
X149381792Y-77578390D01*
X149437235Y-77444538D01*
X149465500Y-77302440D01*
X149465500Y-77157560D01*
X150534500Y-77157560D01*
X150534500Y-77302439D01*
X150562763Y-77444531D01*
X150562766Y-77444542D01*
X150618206Y-77578387D01*
X150697963Y-77697752D01*
X150698700Y-77698854D01*
X150801146Y-77801300D01*
X150921610Y-77881792D01*
X150921611Y-77881792D01*
X150921612Y-77881793D01*
X151055457Y-77937233D01*
X151055462Y-77937235D01*
X151197560Y-77965500D01*
X151197561Y-77965500D01*
X151342439Y-77965500D01*
X151342440Y-77965500D01*
X151484538Y-77937235D01*
X151618390Y-77881792D01*
X151738854Y-77801300D01*
X151841300Y-77698854D01*
X151921792Y-77578390D01*
X151977235Y-77444538D01*
X152005500Y-77302440D01*
X152005500Y-77157560D01*
X153074500Y-77157560D01*
X153074500Y-77302439D01*
X153102763Y-77444531D01*
X153102766Y-77444542D01*
X153158206Y-77578387D01*
X153237963Y-77697752D01*
X153238700Y-77698854D01*
X153341146Y-77801300D01*
X153461610Y-77881792D01*
X153461611Y-77881792D01*
X153461612Y-77881793D01*
X153595457Y-77937233D01*
X153595462Y-77937235D01*
X153737560Y-77965500D01*
X153737561Y-77965500D01*
X153882439Y-77965500D01*
X153882440Y-77965500D01*
X154024538Y-77937235D01*
X154158390Y-77881792D01*
X154278854Y-77801300D01*
X154381300Y-77698854D01*
X154461792Y-77578390D01*
X154517235Y-77444538D01*
X154545500Y-77302440D01*
X154545500Y-77157560D01*
X155614500Y-77157560D01*
X155614500Y-77302439D01*
X155642763Y-77444531D01*
X155642766Y-77444542D01*
X155698206Y-77578387D01*
X155777963Y-77697752D01*
X155778700Y-77698854D01*
X155881146Y-77801300D01*
X156001610Y-77881792D01*
X156001611Y-77881792D01*
X156001612Y-77881793D01*
X156135457Y-77937233D01*
X156135462Y-77937235D01*
X156277560Y-77965500D01*
X156277561Y-77965500D01*
X156422439Y-77965500D01*
X156422440Y-77965500D01*
X156564538Y-77937235D01*
X156698390Y-77881792D01*
X156818854Y-77801300D01*
X156921300Y-77698854D01*
X157001792Y-77578390D01*
X157057235Y-77444538D01*
X157085500Y-77302440D01*
X157085500Y-77157560D01*
X158154500Y-77157560D01*
X158154500Y-77302439D01*
X158182763Y-77444531D01*
X158182766Y-77444542D01*
X158238206Y-77578387D01*
X158317963Y-77697752D01*
X158318700Y-77698854D01*
X158421146Y-77801300D01*
X158541610Y-77881792D01*
X158541611Y-77881792D01*
X158541612Y-77881793D01*
X158675457Y-77937233D01*
X158675462Y-77937235D01*
X158817560Y-77965500D01*
X158817561Y-77965500D01*
X158962439Y-77965500D01*
X158962440Y-77965500D01*
X159104538Y-77937235D01*
X159238390Y-77881792D01*
X159358854Y-77801300D01*
X159461300Y-77698854D01*
X159541792Y-77578390D01*
X159597235Y-77444538D01*
X159625500Y-77302440D01*
X159625500Y-77157560D01*
X160694500Y-77157560D01*
X160694500Y-77302439D01*
X160722763Y-77444531D01*
X160722766Y-77444542D01*
X160778206Y-77578387D01*
X160857963Y-77697752D01*
X160858700Y-77698854D01*
X160961146Y-77801300D01*
X161081610Y-77881792D01*
X161081611Y-77881792D01*
X161081612Y-77881793D01*
X161215457Y-77937233D01*
X161215462Y-77937235D01*
X161357560Y-77965500D01*
X161357561Y-77965500D01*
X161502439Y-77965500D01*
X161502440Y-77965500D01*
X161644538Y-77937235D01*
X161778390Y-77881792D01*
X161898854Y-77801300D01*
X162001300Y-77698854D01*
X162081792Y-77578390D01*
X162137235Y-77444538D01*
X162165500Y-77302440D01*
X162165500Y-77157560D01*
X163234500Y-77157560D01*
X163234500Y-77302439D01*
X163262763Y-77444531D01*
X163262766Y-77444542D01*
X163318206Y-77578387D01*
X163397963Y-77697752D01*
X163398700Y-77698854D01*
X163501146Y-77801300D01*
X163621610Y-77881792D01*
X163621611Y-77881792D01*
X163621612Y-77881793D01*
X163755457Y-77937233D01*
X163755462Y-77937235D01*
X163897560Y-77965500D01*
X163897561Y-77965500D01*
X164042439Y-77965500D01*
X164042440Y-77965500D01*
X164184538Y-77937235D01*
X164318390Y-77881792D01*
X164438854Y-77801300D01*
X164541300Y-77698854D01*
X164621792Y-77578390D01*
X164677235Y-77444538D01*
X164705500Y-77302440D01*
X164705500Y-77157560D01*
X165774500Y-77157560D01*
X165774500Y-77302439D01*
X165802763Y-77444531D01*
X165802766Y-77444542D01*
X165858206Y-77578387D01*
X165937963Y-77697752D01*
X165938700Y-77698854D01*
X166041146Y-77801300D01*
X166161610Y-77881792D01*
X166161611Y-77881792D01*
X166161612Y-77881793D01*
X166295457Y-77937233D01*
X166295462Y-77937235D01*
X166437560Y-77965500D01*
X166437561Y-77965500D01*
X166582439Y-77965500D01*
X166582440Y-77965500D01*
X166724538Y-77937235D01*
X166858390Y-77881792D01*
X166978854Y-77801300D01*
X167081300Y-77698854D01*
X167161792Y-77578390D01*
X167217235Y-77444538D01*
X167245500Y-77302440D01*
X167245500Y-77157560D01*
X168314500Y-77157560D01*
X168314500Y-77302439D01*
X168342763Y-77444531D01*
X168342766Y-77444542D01*
X168398206Y-77578387D01*
X168477963Y-77697752D01*
X168478700Y-77698854D01*
X168581146Y-77801300D01*
X168701610Y-77881792D01*
X168701611Y-77881792D01*
X168701612Y-77881793D01*
X168835457Y-77937233D01*
X168835462Y-77937235D01*
X168977560Y-77965500D01*
X168977561Y-77965500D01*
X169122439Y-77965500D01*
X169122440Y-77965500D01*
X169264538Y-77937235D01*
X169398390Y-77881792D01*
X169518854Y-77801300D01*
X169621300Y-77698854D01*
X169701792Y-77578390D01*
X169757235Y-77444538D01*
X169785500Y-77302440D01*
X169785500Y-77157560D01*
X170854500Y-77157560D01*
X170854500Y-77302439D01*
X170882763Y-77444531D01*
X170882766Y-77444542D01*
X170938206Y-77578387D01*
X171017963Y-77697752D01*
X171018700Y-77698854D01*
X171121146Y-77801300D01*
X171241610Y-77881792D01*
X171241611Y-77881792D01*
X171241612Y-77881793D01*
X171375457Y-77937233D01*
X171375462Y-77937235D01*
X171517560Y-77965500D01*
X171517561Y-77965500D01*
X171662438Y-77965500D01*
X171662440Y-77965500D01*
X171724109Y-77953233D01*
X171779658Y-77964282D01*
X171811124Y-78011374D01*
X171804482Y-78059404D01*
X171803054Y-78062204D01*
X171747585Y-78232921D01*
X171747582Y-78232934D01*
X171719500Y-78410240D01*
X171719500Y-78589759D01*
X171747582Y-78767065D01*
X171747585Y-78767078D01*
X171803055Y-78937797D01*
X171803057Y-78937800D01*
X171804479Y-78940591D01*
X171808925Y-78997053D01*
X171772143Y-79040121D01*
X171724110Y-79046766D01*
X171662440Y-79034500D01*
X171517560Y-79034500D01*
X171489449Y-79040091D01*
X171375468Y-79062763D01*
X171375457Y-79062766D01*
X171241612Y-79118206D01*
X171121149Y-79198697D01*
X171018697Y-79301149D01*
X170938206Y-79421612D01*
X170882766Y-79555457D01*
X170882763Y-79555468D01*
X170854500Y-79697560D01*
X170854500Y-79842439D01*
X170882763Y-79984531D01*
X170882766Y-79984542D01*
X170938206Y-80118387D01*
X170997550Y-80207202D01*
X171018700Y-80238854D01*
X171121146Y-80341300D01*
X171241610Y-80421792D01*
X171375462Y-80477235D01*
X171517560Y-80505500D01*
X171517561Y-80505500D01*
X171662439Y-80505500D01*
X171662440Y-80505500D01*
X171804538Y-80477235D01*
X171938390Y-80421792D01*
X172058854Y-80341300D01*
X172161300Y-80238854D01*
X172241792Y-80118390D01*
X172297235Y-79984538D01*
X172325500Y-79842440D01*
X172325500Y-79697560D01*
X172313233Y-79635888D01*
X172324282Y-79580341D01*
X172371375Y-79548875D01*
X172419410Y-79555521D01*
X172422200Y-79556943D01*
X172422202Y-79556943D01*
X172422205Y-79556945D01*
X172592921Y-79612414D01*
X172592927Y-79612415D01*
X172592932Y-79612417D01*
X172711138Y-79631139D01*
X172770240Y-79640500D01*
X172770241Y-79640500D01*
X172949760Y-79640500D01*
X172994086Y-79633479D01*
X173127068Y-79612417D01*
X173127075Y-79612414D01*
X173127078Y-79612414D01*
X173297794Y-79556945D01*
X173297794Y-79556944D01*
X173297800Y-79556943D01*
X173300583Y-79555524D01*
X173357043Y-79551071D01*
X173400116Y-79587846D01*
X173406766Y-79635888D01*
X173394500Y-79697559D01*
X173394500Y-79842439D01*
X173422763Y-79984531D01*
X173422766Y-79984542D01*
X173478206Y-80118387D01*
X173537550Y-80207202D01*
X173558700Y-80238854D01*
X173661146Y-80341300D01*
X173781610Y-80421792D01*
X173915462Y-80477235D01*
X174057560Y-80505500D01*
X174057561Y-80505500D01*
X174202439Y-80505500D01*
X174202440Y-80505500D01*
X174344538Y-80477235D01*
X174478390Y-80421792D01*
X174598854Y-80341300D01*
X174701300Y-80238854D01*
X174781792Y-80118390D01*
X174837235Y-79984538D01*
X174865500Y-79842440D01*
X174865500Y-79697560D01*
X174837235Y-79555462D01*
X174781792Y-79421610D01*
X174701300Y-79301146D01*
X174598854Y-79198700D01*
X174478390Y-79118208D01*
X174478389Y-79118207D01*
X174478387Y-79118206D01*
X174344542Y-79062766D01*
X174344531Y-79062763D01*
X174230699Y-79040121D01*
X174202440Y-79034500D01*
X174057560Y-79034500D01*
X174057559Y-79034500D01*
X173995888Y-79046766D01*
X173940340Y-79035716D01*
X173908875Y-78988623D01*
X173915524Y-78940583D01*
X173916943Y-78937800D01*
X173972417Y-78767068D01*
X174000500Y-78589759D01*
X174000500Y-78410241D01*
X173992031Y-78356767D01*
X176449500Y-78356767D01*
X176449500Y-78643233D01*
X176463453Y-78767068D01*
X176481574Y-78927901D01*
X176481575Y-78927902D01*
X176545315Y-79207173D01*
X176545320Y-79207189D01*
X176639931Y-79477571D01*
X176764222Y-79735664D01*
X176916634Y-79978227D01*
X177028410Y-80118390D01*
X177095243Y-80202195D01*
X177297805Y-80404757D01*
X177521773Y-80583366D01*
X177764331Y-80735775D01*
X177764334Y-80735776D01*
X177764335Y-80735777D01*
X177955942Y-80828050D01*
X178022428Y-80860068D01*
X178292818Y-80954682D01*
X178292823Y-80954683D01*
X178292826Y-80954684D01*
X178323373Y-80961656D01*
X178572102Y-81018426D01*
X178856767Y-81050500D01*
X178856771Y-81050500D01*
X179143229Y-81050500D01*
X179143233Y-81050500D01*
X179427898Y-81018426D01*
X179707182Y-80954682D01*
X179977572Y-80860068D01*
X180235669Y-80735775D01*
X180478227Y-80583366D01*
X180702195Y-80404757D01*
X180904757Y-80202195D01*
X181083366Y-79978227D01*
X181235775Y-79735669D01*
X181360068Y-79477572D01*
X181454682Y-79207182D01*
X181518426Y-78927898D01*
X181550500Y-78643233D01*
X181550500Y-78356767D01*
X181518426Y-78072102D01*
X181462490Y-77827028D01*
X181454684Y-77792826D01*
X181454679Y-77792810D01*
X181360068Y-77522428D01*
X181235777Y-77264335D01*
X181235776Y-77264334D01*
X181235775Y-77264331D01*
X181083366Y-77021773D01*
X180904757Y-76797805D01*
X180702195Y-76595243D01*
X180680831Y-76578206D01*
X180478227Y-76416634D01*
X180235664Y-76264222D01*
X179977571Y-76139931D01*
X179707189Y-76045320D01*
X179707173Y-76045315D01*
X179427902Y-75981575D01*
X179427901Y-75981574D01*
X179305898Y-75967828D01*
X179143233Y-75949500D01*
X178856767Y-75949500D01*
X178714434Y-75965537D01*
X178572098Y-75981574D01*
X178572097Y-75981575D01*
X178292826Y-76045315D01*
X178292810Y-76045320D01*
X178022428Y-76139931D01*
X177764335Y-76264222D01*
X177521772Y-76416634D01*
X177297805Y-76595242D01*
X177095242Y-76797805D01*
X176916634Y-77021772D01*
X176764222Y-77264335D01*
X176639931Y-77522428D01*
X176545320Y-77792810D01*
X176545315Y-77792826D01*
X176481575Y-78072097D01*
X176481574Y-78072098D01*
X176481574Y-78072102D01*
X176449500Y-78356767D01*
X173992031Y-78356767D01*
X173972417Y-78232932D01*
X173972415Y-78232927D01*
X173972414Y-78232921D01*
X173916945Y-78062205D01*
X173916943Y-78062202D01*
X173916943Y-78062200D01*
X173915521Y-78059410D01*
X173911072Y-78002951D01*
X173947851Y-77959880D01*
X173995889Y-77953233D01*
X174016941Y-77957420D01*
X174057560Y-77965500D01*
X174057561Y-77965500D01*
X174202439Y-77965500D01*
X174202440Y-77965500D01*
X174344538Y-77937235D01*
X174478390Y-77881792D01*
X174598854Y-77801300D01*
X174701300Y-77698854D01*
X174781792Y-77578390D01*
X174837235Y-77444538D01*
X174865500Y-77302440D01*
X174865500Y-77157560D01*
X174837235Y-77015462D01*
X174781792Y-76881610D01*
X174701300Y-76761146D01*
X174598854Y-76658700D01*
X174478390Y-76578208D01*
X174478389Y-76578207D01*
X174478387Y-76578206D01*
X174344542Y-76522766D01*
X174344531Y-76522763D01*
X174227818Y-76499548D01*
X174202440Y-76494500D01*
X174057560Y-76494500D01*
X174032182Y-76499548D01*
X173915468Y-76522763D01*
X173915457Y-76522766D01*
X173781612Y-76578206D01*
X173661149Y-76658697D01*
X173558697Y-76761149D01*
X173478206Y-76881612D01*
X173422766Y-77015457D01*
X173422763Y-77015468D01*
X173394500Y-77157560D01*
X173394500Y-77302439D01*
X173406766Y-77364110D01*
X173395716Y-77419659D01*
X173348624Y-77451124D01*
X173300591Y-77444479D01*
X173297800Y-77443057D01*
X173297797Y-77443055D01*
X173127078Y-77387585D01*
X173127065Y-77387582D01*
X172949760Y-77359500D01*
X172949759Y-77359500D01*
X172770241Y-77359500D01*
X172770240Y-77359500D01*
X172592934Y-77387582D01*
X172592921Y-77387585D01*
X172422204Y-77443054D01*
X172420173Y-77444089D01*
X172419403Y-77444482D01*
X172362941Y-77448923D01*
X172319875Y-77412139D01*
X172313233Y-77364109D01*
X172325500Y-77302438D01*
X172325500Y-77157560D01*
X172297236Y-77015468D01*
X172297235Y-77015462D01*
X172241792Y-76881610D01*
X172161300Y-76761146D01*
X172058854Y-76658700D01*
X171938390Y-76578208D01*
X171938389Y-76578207D01*
X171938387Y-76578206D01*
X171804542Y-76522766D01*
X171804531Y-76522763D01*
X171687818Y-76499548D01*
X171662440Y-76494500D01*
X171517560Y-76494500D01*
X171492182Y-76499548D01*
X171375468Y-76522763D01*
X171375457Y-76522766D01*
X171241612Y-76578206D01*
X171121149Y-76658697D01*
X171018697Y-76761149D01*
X170938206Y-76881612D01*
X170882766Y-77015457D01*
X170882763Y-77015468D01*
X170854500Y-77157560D01*
X169785500Y-77157560D01*
X169757235Y-77015462D01*
X169701792Y-76881610D01*
X169621300Y-76761146D01*
X169518854Y-76658700D01*
X169398390Y-76578208D01*
X169398389Y-76578207D01*
X169398387Y-76578206D01*
X169264542Y-76522766D01*
X169264531Y-76522763D01*
X169147818Y-76499548D01*
X169122440Y-76494500D01*
X168977560Y-76494500D01*
X168952182Y-76499548D01*
X168835468Y-76522763D01*
X168835457Y-76522766D01*
X168701612Y-76578206D01*
X168581149Y-76658697D01*
X168478697Y-76761149D01*
X168398206Y-76881612D01*
X168342766Y-77015457D01*
X168342763Y-77015468D01*
X168314500Y-77157560D01*
X167245500Y-77157560D01*
X167217235Y-77015462D01*
X167161792Y-76881610D01*
X167081300Y-76761146D01*
X166978854Y-76658700D01*
X166858390Y-76578208D01*
X166858389Y-76578207D01*
X166858387Y-76578206D01*
X166724542Y-76522766D01*
X166724531Y-76522763D01*
X166607818Y-76499548D01*
X166582440Y-76494500D01*
X166437560Y-76494500D01*
X166412182Y-76499548D01*
X166295468Y-76522763D01*
X166295457Y-76522766D01*
X166161612Y-76578206D01*
X166041149Y-76658697D01*
X165938697Y-76761149D01*
X165858206Y-76881612D01*
X165802766Y-77015457D01*
X165802763Y-77015468D01*
X165774500Y-77157560D01*
X164705500Y-77157560D01*
X164677235Y-77015462D01*
X164621792Y-76881610D01*
X164541300Y-76761146D01*
X164438854Y-76658700D01*
X164318390Y-76578208D01*
X164318389Y-76578207D01*
X164318387Y-76578206D01*
X164184542Y-76522766D01*
X164184531Y-76522763D01*
X164067818Y-76499548D01*
X164042440Y-76494500D01*
X163897560Y-76494500D01*
X163872182Y-76499548D01*
X163755468Y-76522763D01*
X163755457Y-76522766D01*
X163621612Y-76578206D01*
X163501149Y-76658697D01*
X163398697Y-76761149D01*
X163318206Y-76881612D01*
X163262766Y-77015457D01*
X163262763Y-77015468D01*
X163234500Y-77157560D01*
X162165500Y-77157560D01*
X162137235Y-77015462D01*
X162081792Y-76881610D01*
X162001300Y-76761146D01*
X161898854Y-76658700D01*
X161778390Y-76578208D01*
X161778389Y-76578207D01*
X161778387Y-76578206D01*
X161644542Y-76522766D01*
X161644531Y-76522763D01*
X161527818Y-76499548D01*
X161502440Y-76494500D01*
X161357560Y-76494500D01*
X161332182Y-76499548D01*
X161215468Y-76522763D01*
X161215457Y-76522766D01*
X161081612Y-76578206D01*
X160961149Y-76658697D01*
X160858697Y-76761149D01*
X160778206Y-76881612D01*
X160722766Y-77015457D01*
X160722763Y-77015468D01*
X160694500Y-77157560D01*
X159625500Y-77157560D01*
X159597235Y-77015462D01*
X159541792Y-76881610D01*
X159461300Y-76761146D01*
X159358854Y-76658700D01*
X159238390Y-76578208D01*
X159238389Y-76578207D01*
X159238387Y-76578206D01*
X159104542Y-76522766D01*
X159104531Y-76522763D01*
X158987818Y-76499548D01*
X158962440Y-76494500D01*
X158817560Y-76494500D01*
X158792182Y-76499548D01*
X158675468Y-76522763D01*
X158675457Y-76522766D01*
X158541612Y-76578206D01*
X158421149Y-76658697D01*
X158318697Y-76761149D01*
X158238206Y-76881612D01*
X158182766Y-77015457D01*
X158182763Y-77015468D01*
X158154500Y-77157560D01*
X157085500Y-77157560D01*
X157057235Y-77015462D01*
X157001792Y-76881610D01*
X156921300Y-76761146D01*
X156818854Y-76658700D01*
X156698390Y-76578208D01*
X156698389Y-76578207D01*
X156698387Y-76578206D01*
X156564542Y-76522766D01*
X156564531Y-76522763D01*
X156447818Y-76499548D01*
X156422440Y-76494500D01*
X156277560Y-76494500D01*
X156252182Y-76499548D01*
X156135468Y-76522763D01*
X156135457Y-76522766D01*
X156001612Y-76578206D01*
X155881149Y-76658697D01*
X155778697Y-76761149D01*
X155698206Y-76881612D01*
X155642766Y-77015457D01*
X155642763Y-77015468D01*
X155614500Y-77157560D01*
X154545500Y-77157560D01*
X154517235Y-77015462D01*
X154461792Y-76881610D01*
X154381300Y-76761146D01*
X154278854Y-76658700D01*
X154158390Y-76578208D01*
X154158389Y-76578207D01*
X154158387Y-76578206D01*
X154024542Y-76522766D01*
X154024531Y-76522763D01*
X153907818Y-76499548D01*
X153882440Y-76494500D01*
X153737560Y-76494500D01*
X153712182Y-76499548D01*
X153595468Y-76522763D01*
X153595457Y-76522766D01*
X153461612Y-76578206D01*
X153341149Y-76658697D01*
X153238697Y-76761149D01*
X153158206Y-76881612D01*
X153102766Y-77015457D01*
X153102763Y-77015468D01*
X153074500Y-77157560D01*
X152005500Y-77157560D01*
X151977235Y-77015462D01*
X151921792Y-76881610D01*
X151841300Y-76761146D01*
X151738854Y-76658700D01*
X151618390Y-76578208D01*
X151618389Y-76578207D01*
X151618387Y-76578206D01*
X151484542Y-76522766D01*
X151484531Y-76522763D01*
X151367818Y-76499548D01*
X151342440Y-76494500D01*
X151197560Y-76494500D01*
X151172182Y-76499548D01*
X151055468Y-76522763D01*
X151055457Y-76522766D01*
X150921612Y-76578206D01*
X150801149Y-76658697D01*
X150698697Y-76761149D01*
X150618206Y-76881612D01*
X150562766Y-77015457D01*
X150562763Y-77015468D01*
X150534500Y-77157560D01*
X149465500Y-77157560D01*
X149437235Y-77015462D01*
X149381792Y-76881610D01*
X149301300Y-76761146D01*
X149198854Y-76658700D01*
X149078390Y-76578208D01*
X149078389Y-76578207D01*
X149078387Y-76578206D01*
X148944542Y-76522766D01*
X148944531Y-76522763D01*
X148827818Y-76499548D01*
X148802440Y-76494500D01*
X148657560Y-76494500D01*
X148632182Y-76499548D01*
X148515468Y-76522763D01*
X148515457Y-76522766D01*
X148381612Y-76578206D01*
X148261149Y-76658697D01*
X148158697Y-76761149D01*
X148078206Y-76881612D01*
X148022766Y-77015457D01*
X148022763Y-77015468D01*
X147994500Y-77157560D01*
X146925500Y-77157560D01*
X146897235Y-77015462D01*
X146841792Y-76881610D01*
X146761300Y-76761146D01*
X146658854Y-76658700D01*
X146538390Y-76578208D01*
X146538389Y-76578207D01*
X146538387Y-76578206D01*
X146404542Y-76522766D01*
X146404531Y-76522763D01*
X146287818Y-76499548D01*
X146262440Y-76494500D01*
X146117560Y-76494500D01*
X146092182Y-76499548D01*
X145975468Y-76522763D01*
X145975457Y-76522766D01*
X145841612Y-76578206D01*
X145721149Y-76658697D01*
X145618697Y-76761149D01*
X145538206Y-76881612D01*
X145482766Y-77015457D01*
X145482763Y-77015468D01*
X145454500Y-77157560D01*
X144385500Y-77157560D01*
X144357235Y-77015462D01*
X144301792Y-76881610D01*
X144221300Y-76761146D01*
X144118854Y-76658700D01*
X143998390Y-76578208D01*
X143998389Y-76578207D01*
X143998387Y-76578206D01*
X143864542Y-76522766D01*
X143864531Y-76522763D01*
X143747818Y-76499548D01*
X143722440Y-76494500D01*
X143577560Y-76494500D01*
X143552182Y-76499548D01*
X143435468Y-76522763D01*
X143435457Y-76522766D01*
X143301612Y-76578206D01*
X143181149Y-76658697D01*
X143078697Y-76761149D01*
X142998206Y-76881612D01*
X142942766Y-77015457D01*
X142942763Y-77015468D01*
X142914500Y-77157560D01*
X141845500Y-77157560D01*
X141817235Y-77015462D01*
X141761792Y-76881610D01*
X141681300Y-76761146D01*
X141578854Y-76658700D01*
X141458390Y-76578208D01*
X141458389Y-76578207D01*
X141458387Y-76578206D01*
X141324542Y-76522766D01*
X141324531Y-76522763D01*
X141207818Y-76499548D01*
X141182440Y-76494500D01*
X141037560Y-76494500D01*
X141012182Y-76499548D01*
X140895468Y-76522763D01*
X140895457Y-76522766D01*
X140761612Y-76578206D01*
X140641149Y-76658697D01*
X140538697Y-76761149D01*
X140458206Y-76881612D01*
X140402766Y-77015457D01*
X140402763Y-77015468D01*
X140374500Y-77157560D01*
X139305500Y-77157560D01*
X139277235Y-77015462D01*
X139221792Y-76881610D01*
X139141300Y-76761146D01*
X139038854Y-76658700D01*
X138918390Y-76578208D01*
X138918389Y-76578207D01*
X138918387Y-76578206D01*
X138784542Y-76522766D01*
X138784531Y-76522763D01*
X138667818Y-76499548D01*
X138642440Y-76494500D01*
X138497560Y-76494500D01*
X138472182Y-76499548D01*
X138355468Y-76522763D01*
X138355457Y-76522766D01*
X138221612Y-76578206D01*
X138101149Y-76658697D01*
X137998697Y-76761149D01*
X137918206Y-76881612D01*
X137862766Y-77015457D01*
X137862763Y-77015468D01*
X137834500Y-77157560D01*
X136765500Y-77157560D01*
X136737235Y-77015462D01*
X136681792Y-76881610D01*
X136601300Y-76761146D01*
X136498854Y-76658700D01*
X136378390Y-76578208D01*
X136378389Y-76578207D01*
X136378387Y-76578206D01*
X136244542Y-76522766D01*
X136244531Y-76522763D01*
X136127818Y-76499548D01*
X136102440Y-76494500D01*
X135957560Y-76494500D01*
X135932182Y-76499548D01*
X135815468Y-76522763D01*
X135815457Y-76522766D01*
X135681612Y-76578206D01*
X135561149Y-76658697D01*
X135458697Y-76761149D01*
X135378206Y-76881612D01*
X135322766Y-77015457D01*
X135322763Y-77015468D01*
X135294500Y-77157560D01*
X134225500Y-77157560D01*
X134197235Y-77015462D01*
X134141792Y-76881610D01*
X134061300Y-76761146D01*
X133958854Y-76658700D01*
X133838390Y-76578208D01*
X133838389Y-76578207D01*
X133838387Y-76578206D01*
X133704542Y-76522766D01*
X133704531Y-76522763D01*
X133587818Y-76499548D01*
X133562440Y-76494500D01*
X133417560Y-76494500D01*
X133392182Y-76499548D01*
X133275468Y-76522763D01*
X133275457Y-76522766D01*
X133141612Y-76578206D01*
X133021149Y-76658697D01*
X132918697Y-76761149D01*
X132838206Y-76881612D01*
X132782766Y-77015457D01*
X132782763Y-77015468D01*
X132754500Y-77157560D01*
X131685500Y-77157560D01*
X131657235Y-77015462D01*
X131601792Y-76881610D01*
X131521300Y-76761146D01*
X131418854Y-76658700D01*
X131298390Y-76578208D01*
X131298389Y-76578207D01*
X131298387Y-76578206D01*
X131164542Y-76522766D01*
X131164531Y-76522763D01*
X131047818Y-76499548D01*
X131022440Y-76494500D01*
X130877560Y-76494500D01*
X130852182Y-76499548D01*
X130735468Y-76522763D01*
X130735457Y-76522766D01*
X130601612Y-76578206D01*
X130481149Y-76658697D01*
X130378697Y-76761149D01*
X130298206Y-76881612D01*
X130242766Y-77015457D01*
X130242763Y-77015468D01*
X130214500Y-77157560D01*
X129145500Y-77157560D01*
X129117235Y-77015462D01*
X129061792Y-76881610D01*
X128981300Y-76761146D01*
X128878854Y-76658700D01*
X128758390Y-76578208D01*
X128758389Y-76578207D01*
X128758387Y-76578206D01*
X128624542Y-76522766D01*
X128624531Y-76522763D01*
X128507818Y-76499548D01*
X128482440Y-76494500D01*
X128337560Y-76494500D01*
X128312182Y-76499548D01*
X128195468Y-76522763D01*
X128195457Y-76522766D01*
X128061612Y-76578206D01*
X127941149Y-76658697D01*
X127838697Y-76761149D01*
X127758206Y-76881612D01*
X127702766Y-77015457D01*
X127702763Y-77015468D01*
X127674500Y-77157560D01*
X127674500Y-77302439D01*
X127686766Y-77364110D01*
X127675716Y-77419659D01*
X127628624Y-77451124D01*
X127580591Y-77444479D01*
X127577800Y-77443057D01*
X127577797Y-77443055D01*
X127407078Y-77387585D01*
X127407065Y-77387582D01*
X127229760Y-77359500D01*
X127229759Y-77359500D01*
X127050241Y-77359500D01*
X127050240Y-77359500D01*
X126872934Y-77387582D01*
X126872921Y-77387585D01*
X126702204Y-77443054D01*
X126700173Y-77444089D01*
X126699403Y-77444482D01*
X126642941Y-77448923D01*
X126599875Y-77412139D01*
X126593233Y-77364109D01*
X126605500Y-77302438D01*
X126605500Y-77157560D01*
X126577236Y-77015468D01*
X126577235Y-77015462D01*
X126521792Y-76881610D01*
X126441300Y-76761146D01*
X126338854Y-76658700D01*
X126218390Y-76578208D01*
X126218389Y-76578207D01*
X126218387Y-76578206D01*
X126084542Y-76522766D01*
X126084531Y-76522763D01*
X125967818Y-76499548D01*
X125942440Y-76494500D01*
X125797560Y-76494500D01*
X125772182Y-76499548D01*
X125655468Y-76522763D01*
X125655457Y-76522766D01*
X125521612Y-76578206D01*
X125401149Y-76658697D01*
X125298697Y-76761149D01*
X125218206Y-76881612D01*
X125162766Y-77015457D01*
X125162763Y-77015468D01*
X125134500Y-77157560D01*
X123168686Y-77157560D01*
X123083366Y-77021773D01*
X122904757Y-76797805D01*
X122702195Y-76595243D01*
X122680831Y-76578206D01*
X122478227Y-76416634D01*
X122235664Y-76264222D01*
X121977571Y-76139931D01*
X121707189Y-76045320D01*
X121707173Y-76045315D01*
X121427902Y-75981575D01*
X121427901Y-75981574D01*
X121305898Y-75967828D01*
X121143233Y-75949500D01*
X120856767Y-75949500D01*
X120714434Y-75965537D01*
X120572098Y-75981574D01*
X120572097Y-75981575D01*
X120292826Y-76045315D01*
X120292810Y-76045320D01*
X120022428Y-76139931D01*
X119764335Y-76264222D01*
X119521772Y-76416634D01*
X119297805Y-76595242D01*
X119095242Y-76797805D01*
X118916634Y-77021772D01*
X118764222Y-77264335D01*
X118639931Y-77522428D01*
X118545320Y-77792810D01*
X118545315Y-77792826D01*
X118481575Y-78072097D01*
X118481574Y-78072098D01*
X118481574Y-78072102D01*
X118449500Y-78356767D01*
X117800500Y-78356767D01*
X117800500Y-78002083D01*
X117800616Y-77997934D01*
X117804025Y-77937233D01*
X117817241Y-77701885D01*
X117818171Y-77693647D01*
X117837754Y-77578390D01*
X117867487Y-77403392D01*
X117869326Y-77395332D01*
X117950841Y-77112389D01*
X117953571Y-77104586D01*
X118066246Y-76832564D01*
X118069840Y-76825102D01*
X118212268Y-76567397D01*
X118216665Y-76560399D01*
X118387044Y-76320273D01*
X118392202Y-76313804D01*
X118588408Y-76094249D01*
X118594249Y-76088408D01*
X118813804Y-75892202D01*
X118820273Y-75887044D01*
X119060399Y-75716665D01*
X119067397Y-75712268D01*
X119325102Y-75569840D01*
X119332564Y-75566246D01*
X119604586Y-75453571D01*
X119612389Y-75450841D01*
X119895332Y-75369326D01*
X119903392Y-75367487D01*
X120193655Y-75318170D01*
X120201885Y-75317241D01*
X120497934Y-75300615D01*
X120502083Y-75300500D01*
X120547595Y-75300500D01*
X179452405Y-75300500D01*
X179497917Y-75300500D01*
X179502065Y-75300615D01*
G37*
%TD.AperFunction*%
%TA.AperFunction,Conductor*%
G36*
X117908095Y-94551711D02*
G01*
X117974695Y-94585645D01*
X117974695Y-94585646D01*
X117991827Y-94588359D01*
X118100000Y-94605492D01*
X118225304Y-94585646D01*
X118286906Y-94554257D01*
X118343367Y-94549814D01*
X118386434Y-94586596D01*
X118394500Y-94620192D01*
X118394500Y-95012487D01*
X118394822Y-95022509D01*
X118420615Y-95098755D01*
X118420616Y-95098757D01*
X118430221Y-95107198D01*
X118455217Y-95158021D01*
X118436954Y-95211633D01*
X118435354Y-95213396D01*
X118415333Y-95234749D01*
X118394500Y-95312501D01*
X118394500Y-95379807D01*
X118372826Y-95432133D01*
X118320500Y-95453807D01*
X118286907Y-95445742D01*
X118225304Y-95414354D01*
X118225302Y-95414353D01*
X118225301Y-95414353D01*
X118100000Y-95394508D01*
X117974698Y-95414353D01*
X117908095Y-95448289D01*
X117851632Y-95452732D01*
X117808565Y-95415949D01*
X117800500Y-95382354D01*
X117800500Y-94617645D01*
X117822174Y-94565319D01*
X117874500Y-94543645D01*
X117908095Y-94551711D01*
G37*
%TD.AperFunction*%
%TD*%
M02*
