%TF.GenerationSoftware,KiCad,Pcbnew,8.0.6*%
%TF.CreationDate,2025-01-23T17:56:30+01:00*%
%TF.ProjectId,soleil,736f6c65-696c-42e6-9b69-6361645f7063,rev?*%
%TF.SameCoordinates,Original*%
%TF.FileFunction,Paste,Top*%
%TF.FilePolarity,Positive*%
%FSLAX46Y46*%
G04 Gerber Fmt 4.6, Leading zero omitted, Abs format (unit mm)*
G04 Created by KiCad (PCBNEW 8.0.6) date 2025-01-23 17:56:30*
%MOMM*%
%LPD*%
G01*
G04 APERTURE LIST*
G04 Aperture macros list*
%AMRoundRect*
0 Rectangle with rounded corners*
0 $1 Rounding radius*
0 $2 $3 $4 $5 $6 $7 $8 $9 X,Y pos of 4 corners*
0 Add a 4 corners polygon primitive as box body*
4,1,4,$2,$3,$4,$5,$6,$7,$8,$9,$2,$3,0*
0 Add four circle primitives for the rounded corners*
1,1,$1+$1,$2,$3*
1,1,$1+$1,$4,$5*
1,1,$1+$1,$6,$7*
1,1,$1+$1,$8,$9*
0 Add four rect primitives between the rounded corners*
20,1,$1+$1,$2,$3,$4,$5,0*
20,1,$1+$1,$4,$5,$6,$7,0*
20,1,$1+$1,$6,$7,$8,$9,0*
20,1,$1+$1,$8,$9,$2,$3,0*%
G04 Aperture macros list end*
%ADD10RoundRect,0.140000X0.170000X-0.140000X0.170000X0.140000X-0.170000X0.140000X-0.170000X-0.140000X0*%
%ADD11RoundRect,0.150000X-0.150000X-0.200000X0.150000X-0.200000X0.150000X0.200000X-0.150000X0.200000X0*%
%ADD12RoundRect,0.140000X-0.170000X0.140000X-0.170000X-0.140000X0.170000X-0.140000X0.170000X0.140000X0*%
%ADD13RoundRect,0.140000X-0.140000X-0.170000X0.140000X-0.170000X0.140000X0.170000X-0.140000X0.170000X0*%
%ADD14RoundRect,0.147500X0.172500X-0.147500X0.172500X0.147500X-0.172500X0.147500X-0.172500X-0.147500X0*%
%ADD15RoundRect,0.250000X-0.250000X-0.475000X0.250000X-0.475000X0.250000X0.475000X-0.250000X0.475000X0*%
%ADD16RoundRect,0.135000X-0.185000X0.135000X-0.185000X-0.135000X0.185000X-0.135000X0.185000X0.135000X0*%
%ADD17R,1.270000X1.680000*%
%ADD18R,1.270000X1.500000*%
%ADD19R,0.600000X0.500000*%
%ADD20R,0.300000X0.750000*%
%ADD21RoundRect,0.135000X-0.135000X-0.185000X0.135000X-0.185000X0.135000X0.185000X-0.135000X0.185000X0*%
%ADD22RoundRect,0.250000X-0.300000X0.300000X-0.300000X-0.300000X0.300000X-0.300000X0.300000X0.300000X0*%
%ADD23RoundRect,0.250000X0.250000X0.475000X-0.250000X0.475000X-0.250000X-0.475000X0.250000X-0.475000X0*%
%ADD24R,3.429000X2.413000*%
%ADD25RoundRect,0.150000X0.150000X0.200000X-0.150000X0.200000X-0.150000X-0.200000X0.150000X-0.200000X0*%
%ADD26RoundRect,0.050000X0.100000X-0.285000X0.100000X0.285000X-0.100000X0.285000X-0.100000X-0.285000X0*%
%ADD27RoundRect,0.172500X0.172500X-0.262500X0.172500X0.262500X-0.172500X0.262500X-0.172500X-0.262500X0*%
%ADD28RoundRect,0.093750X0.106250X-0.093750X0.106250X0.093750X-0.106250X0.093750X-0.106250X-0.093750X0*%
%ADD29RoundRect,0.135000X0.135000X0.185000X-0.135000X0.185000X-0.135000X-0.185000X0.135000X-0.185000X0*%
%ADD30RoundRect,0.135000X0.185000X-0.135000X0.185000X0.135000X-0.185000X0.135000X-0.185000X-0.135000X0*%
%ADD31RoundRect,0.250000X-0.250000X-1.500000X0.250000X-1.500000X0.250000X1.500000X-0.250000X1.500000X0*%
%ADD32RoundRect,0.250001X-0.499999X-1.449999X0.499999X-1.449999X0.499999X1.449999X-0.499999X1.449999X0*%
%ADD33R,0.304800X0.254000*%
%ADD34R,1.260000X0.728000*%
%ADD35R,0.254000X0.711200*%
%ADD36R,0.711200X0.254000*%
%ADD37R,0.250000X0.700000*%
%ADD38RoundRect,0.147500X-0.172500X0.147500X-0.172500X-0.147500X0.172500X-0.147500X0.172500X0.147500X0*%
%ADD39R,1.000000X0.900000*%
%ADD40C,0.245000*%
%ADD41R,0.600000X1.100000*%
%ADD42RoundRect,0.175000X-0.175000X-0.425000X0.175000X-0.425000X0.175000X0.425000X-0.175000X0.425000X0*%
%ADD43RoundRect,0.190000X0.190000X0.410000X-0.190000X0.410000X-0.190000X-0.410000X0.190000X-0.410000X0*%
%ADD44RoundRect,0.200000X0.200000X0.400000X-0.200000X0.400000X-0.200000X-0.400000X0.200000X-0.400000X0*%
%ADD45RoundRect,0.175000X0.175000X0.425000X-0.175000X0.425000X-0.175000X-0.425000X0.175000X-0.425000X0*%
%ADD46RoundRect,0.190000X-0.190000X-0.410000X0.190000X-0.410000X0.190000X0.410000X-0.190000X0.410000X0*%
%ADD47RoundRect,0.200000X-0.200000X-0.400000X0.200000X-0.400000X0.200000X0.400000X-0.200000X0.400000X0*%
%ADD48O,1.100000X1.700000*%
%ADD49RoundRect,0.150000X0.625000X-0.150000X0.625000X0.150000X-0.625000X0.150000X-0.625000X-0.150000X0*%
%ADD50RoundRect,0.250000X0.650000X-0.350000X0.650000X0.350000X-0.650000X0.350000X-0.650000X-0.350000X0*%
%ADD51R,0.203200X0.660400*%
%ADD52R,1.200000X0.720000*%
G04 APERTURE END LIST*
D10*
%TO.C,C23*%
X144200000Y-89780000D03*
X144200000Y-88820000D03*
%TD*%
D11*
%TO.C,D3*%
X164400000Y-97400000D03*
X163000000Y-97400000D03*
%TD*%
D12*
%TO.C,C24*%
X124400000Y-89920000D03*
X124400000Y-90880000D03*
%TD*%
D13*
%TO.C,C17*%
X138920000Y-93100000D03*
X139880000Y-93100000D03*
%TD*%
D14*
%TO.C,D2*%
X119700000Y-85833382D03*
X119700000Y-84863382D03*
%TD*%
D15*
%TO.C,C14*%
X125650000Y-84300000D03*
X127550000Y-84300000D03*
%TD*%
D16*
%TO.C,R13*%
X139900000Y-88740000D03*
X139900000Y-89760000D03*
%TD*%
D12*
%TO.C,C7*%
X139900000Y-83620000D03*
X139900000Y-84580000D03*
%TD*%
D17*
%TO.C,J2*%
X125870000Y-81220000D03*
D18*
X125870000Y-75860000D03*
D17*
X128410000Y-81220000D03*
D18*
X128410000Y-75860000D03*
D17*
X130950000Y-81220000D03*
D18*
X130950000Y-75860000D03*
D17*
X133490000Y-81220000D03*
D18*
X133490000Y-75860000D03*
D17*
X136030000Y-81220000D03*
D18*
X136030000Y-75860000D03*
D17*
X138570000Y-81220000D03*
D18*
X138570000Y-75860000D03*
D17*
X141110000Y-81220000D03*
D18*
X141110000Y-75860000D03*
D17*
X143650000Y-81220000D03*
D18*
X143650000Y-75860000D03*
D17*
X146190000Y-81220000D03*
D18*
X146190000Y-75860000D03*
D17*
X148730000Y-81220000D03*
D18*
X148730000Y-75860000D03*
D17*
X151270000Y-81220000D03*
D18*
X151270000Y-75860000D03*
D17*
X153810000Y-81220000D03*
D18*
X153810000Y-75860000D03*
D17*
X156350000Y-81220000D03*
D18*
X156350000Y-75860000D03*
D17*
X158890000Y-81220000D03*
D18*
X158890000Y-75860000D03*
D17*
X161430000Y-81220000D03*
D18*
X161430000Y-75860000D03*
D17*
X163970000Y-81220000D03*
D18*
X163970000Y-75860000D03*
D17*
X166510000Y-81220000D03*
D18*
X166510000Y-75860000D03*
D17*
X169050000Y-81220000D03*
D18*
X169050000Y-75860000D03*
D17*
X171590000Y-81220000D03*
D18*
X171590000Y-75860000D03*
D17*
X174130000Y-81220000D03*
D18*
X174130000Y-75860000D03*
%TD*%
D19*
%TO.C,U1*%
X130802500Y-99102500D03*
X131552500Y-99102500D03*
X130802500Y-98452500D03*
X131552500Y-98452500D03*
D20*
X130427500Y-100277500D03*
X130927500Y-100277500D03*
X131427500Y-100277500D03*
X131927500Y-100277500D03*
X131927500Y-97277500D03*
X131427500Y-97277500D03*
X130927500Y-97277500D03*
X130427500Y-97277500D03*
%TD*%
D21*
%TO.C,R1*%
X131590000Y-83800000D03*
X132610000Y-83800000D03*
%TD*%
D22*
%TO.C,D6*%
X122800000Y-82600000D03*
X122800000Y-85400000D03*
%TD*%
D23*
%TO.C,C13*%
X127550000Y-95300000D03*
X125650000Y-95300000D03*
%TD*%
D16*
%TO.C,R8*%
X125400000Y-102690000D03*
X125400000Y-103710000D03*
%TD*%
D24*
%TO.C,L1*%
X132100000Y-93221000D03*
X132100000Y-87379000D03*
%TD*%
D25*
%TO.C,D1*%
X156000000Y-94200000D03*
X157400000Y-94200000D03*
%TD*%
D16*
%TO.C,R5*%
X126600000Y-97090000D03*
X126600000Y-98110000D03*
%TD*%
D26*
%TO.C,U3*%
X136750000Y-84840000D03*
X137250000Y-84840000D03*
X137750000Y-84840000D03*
X138250000Y-84840000D03*
X138250000Y-83360000D03*
X137750000Y-83360000D03*
X137250000Y-83360000D03*
X136750000Y-83360000D03*
%TD*%
D21*
%TO.C,R21*%
X134090000Y-85100000D03*
X135110000Y-85100000D03*
%TD*%
D23*
%TO.C,C12*%
X127550000Y-93000000D03*
X125650000Y-93000000D03*
%TD*%
D10*
%TO.C,C2*%
X133177500Y-100480000D03*
X133177500Y-99520000D03*
%TD*%
D25*
%TO.C,D4*%
X143500000Y-94200000D03*
X144900000Y-94200000D03*
%TD*%
D27*
%TO.C,U8*%
X141700000Y-84100000D03*
X142500000Y-84100000D03*
D28*
X141450000Y-84987500D03*
X142100000Y-84987500D03*
X142750000Y-84987500D03*
X142750000Y-83212500D03*
X142100000Y-83212500D03*
X141450000Y-83212500D03*
%TD*%
D29*
%TO.C,R16*%
X137590000Y-94300000D03*
X136570000Y-94300000D03*
%TD*%
D16*
%TO.C,R12*%
X139900000Y-90840000D03*
X139900000Y-91860000D03*
%TD*%
D19*
%TO.C,U4*%
X134925000Y-99125000D03*
X135675000Y-99125000D03*
X134925000Y-98475000D03*
X135675000Y-98475000D03*
D20*
X134550000Y-100250000D03*
X135050000Y-100250000D03*
X135550000Y-100250000D03*
X136050000Y-100250000D03*
X136050000Y-97350000D03*
X135550000Y-97350000D03*
X135050000Y-97350000D03*
X134550000Y-97350000D03*
%TD*%
D13*
%TO.C,C16*%
X136600000Y-93100000D03*
X137560000Y-93100000D03*
%TD*%
D12*
%TO.C,C6*%
X126600000Y-102720000D03*
X126600000Y-103680000D03*
%TD*%
D30*
%TO.C,R4*%
X175100000Y-100010000D03*
X175100000Y-98990000D03*
%TD*%
D16*
%TO.C,R7*%
X121000000Y-84838382D03*
X121000000Y-85858382D03*
%TD*%
D12*
%TO.C,C11*%
X121000000Y-88250000D03*
X121000000Y-89210000D03*
%TD*%
D13*
%TO.C,C9*%
X136620000Y-86200000D03*
X137580000Y-86200000D03*
%TD*%
D31*
%TO.C,J1*%
X156000000Y-97450000D03*
X158000000Y-97450000D03*
D32*
X153650000Y-103200000D03*
X160350000Y-103200000D03*
%TD*%
D12*
%TO.C,C19*%
X141400000Y-86220000D03*
X141400000Y-87180000D03*
%TD*%
D10*
%TO.C,C21*%
X144200000Y-91880000D03*
X144200000Y-90920000D03*
%TD*%
D12*
%TO.C,C20*%
X144200000Y-83620000D03*
X144200000Y-84580000D03*
%TD*%
D16*
%TO.C,R15*%
X144200000Y-86180000D03*
X144200000Y-87200000D03*
%TD*%
D12*
%TO.C,C10*%
X133200000Y-97120000D03*
X133200000Y-98080000D03*
%TD*%
D33*
%TO.C,U2*%
X127350001Y-99549100D03*
X126850000Y-99549100D03*
X126350000Y-99549100D03*
X125849999Y-99549100D03*
X125849999Y-101250900D03*
X126350000Y-101250900D03*
X126850000Y-101250900D03*
X127350001Y-101250900D03*
D34*
X126600000Y-100400000D03*
%TD*%
D29*
%TO.C,R2*%
X135110000Y-83800000D03*
X134090000Y-83800000D03*
%TD*%
D35*
%TO.C,U6*%
X127553301Y-88796700D03*
X127053300Y-88796700D03*
X126553300Y-88796700D03*
X126053299Y-88796700D03*
D36*
X125800000Y-89550000D03*
X125800000Y-90050000D03*
D35*
X126053299Y-90803300D03*
X126553300Y-90803300D03*
X127053300Y-90803300D03*
X127553301Y-90803300D03*
D36*
X127806600Y-90050000D03*
X127806600Y-89550000D03*
D37*
X127053300Y-89800000D03*
X126553300Y-89800000D03*
%TD*%
D16*
%TO.C,R14*%
X142800000Y-86190000D03*
X142800000Y-87210000D03*
%TD*%
D13*
%TO.C,C18*%
X136620000Y-87500000D03*
X137580000Y-87500000D03*
%TD*%
D15*
%TO.C,C15*%
X125650000Y-86600000D03*
X127550000Y-86600000D03*
%TD*%
D12*
%TO.C,C5*%
X127800000Y-97120000D03*
X127800000Y-98080000D03*
%TD*%
D38*
%TO.C,D5*%
X119700000Y-82166618D03*
X119700000Y-83136618D03*
%TD*%
D21*
%TO.C,R9*%
X129090000Y-83800000D03*
X130110000Y-83800000D03*
%TD*%
D29*
%TO.C,R20*%
X132610000Y-85100000D03*
X131590000Y-85100000D03*
%TD*%
D39*
%TO.C,SW1*%
X119300000Y-97550000D03*
X119300000Y-93450000D03*
X120900000Y-97550000D03*
X120900000Y-93450000D03*
%TD*%
D31*
%TO.C,J4*%
X143500000Y-97450000D03*
X145500000Y-97450000D03*
D32*
X141150000Y-103200000D03*
X147850000Y-103200000D03*
%TD*%
D40*
%TO.C,U9*%
X141600000Y-91200000D03*
X142100000Y-91200000D03*
X142600000Y-91200000D03*
X141600000Y-91700000D03*
X142100000Y-91700000D03*
X142600000Y-91700000D03*
X141600000Y-92200000D03*
X142100000Y-92200000D03*
X142600000Y-92200000D03*
%TD*%
D21*
%TO.C,R18*%
X138890000Y-87500000D03*
X139910000Y-87500000D03*
%TD*%
D41*
%TO.C,Y1*%
X131877500Y-103200000D03*
X130477500Y-103200000D03*
%TD*%
D12*
%TO.C,C4*%
X133177500Y-102720000D03*
X133177500Y-103680000D03*
%TD*%
D13*
%TO.C,C8*%
X138920000Y-86200000D03*
X139880000Y-86200000D03*
%TD*%
D42*
%TO.C,J3*%
X168500000Y-99820000D03*
D43*
X170520000Y-99820000D03*
D44*
X171750000Y-99820000D03*
D45*
X169500000Y-99820000D03*
D46*
X167480000Y-99820000D03*
D47*
X166250000Y-99820000D03*
D48*
X164680000Y-99900000D03*
X164680000Y-103700000D03*
X173320000Y-99900000D03*
X173320000Y-103700000D03*
%TD*%
D30*
%TO.C,R3*%
X162900000Y-100010000D03*
X162900000Y-98990000D03*
%TD*%
D16*
%TO.C,R19*%
X141400000Y-88790000D03*
X141400000Y-89810000D03*
%TD*%
D21*
%TO.C,R10*%
X129090000Y-85100000D03*
X130110000Y-85100000D03*
%TD*%
D12*
%TO.C,C3*%
X129200000Y-97120000D03*
X129200000Y-98080000D03*
%TD*%
%TO.C,C1*%
X129177500Y-102720000D03*
X129177500Y-103680000D03*
%TD*%
D30*
%TO.C,R6*%
X125400000Y-98110000D03*
X125400000Y-97090000D03*
%TD*%
D49*
%TO.C,J5*%
X177625000Y-90912500D03*
X177625000Y-89912500D03*
X177625000Y-88912500D03*
X177625000Y-87912500D03*
D50*
X181500000Y-92212500D03*
X181500000Y-86612500D03*
%TD*%
D30*
%TO.C,R11*%
X121000000Y-83161618D03*
X121000000Y-82141618D03*
%TD*%
D51*
%TO.C,U7*%
X136599900Y-91430300D03*
X136999950Y-91430300D03*
X137400000Y-91430300D03*
X137800050Y-91430300D03*
X138200100Y-91430300D03*
X138200100Y-89169700D03*
X137800050Y-89169700D03*
X137400000Y-89169700D03*
X136999950Y-89169700D03*
X136599900Y-89169700D03*
D52*
X137400000Y-90300000D03*
%TD*%
M02*
