%TF.GenerationSoftware,KiCad,Pcbnew,8.0.4*%
%TF.CreationDate,2024-08-29T10:26:42+02:00*%
%TF.ProjectId,soleil_powerpack,736f6c65-696c-45f7-906f-776572706163,rev?*%
%TF.SameCoordinates,Original*%
%TF.FileFunction,Copper,L4,Bot*%
%TF.FilePolarity,Positive*%
%FSLAX46Y46*%
G04 Gerber Fmt 4.6, Leading zero omitted, Abs format (unit mm)*
G04 Created by KiCad (PCBNEW 8.0.4) date 2024-08-29 10:26:42*
%MOMM*%
%LPD*%
G01*
G04 APERTURE LIST*
G04 Aperture macros list*
%AMRoundRect*
0 Rectangle with rounded corners*
0 $1 Rounding radius*
0 $2 $3 $4 $5 $6 $7 $8 $9 X,Y pos of 4 corners*
0 Add a 4 corners polygon primitive as box body*
4,1,4,$2,$3,$4,$5,$6,$7,$8,$9,$2,$3,0*
0 Add four circle primitives for the rounded corners*
1,1,$1+$1,$2,$3*
1,1,$1+$1,$4,$5*
1,1,$1+$1,$6,$7*
1,1,$1+$1,$8,$9*
0 Add four rect primitives between the rounded corners*
20,1,$1+$1,$2,$3,$4,$5,0*
20,1,$1+$1,$4,$5,$6,$7,0*
20,1,$1+$1,$6,$7,$8,$9,0*
20,1,$1+$1,$8,$9,$2,$3,0*%
G04 Aperture macros list end*
%TA.AperFunction,ComponentPad*%
%ADD10RoundRect,0.249900X-0.400100X0.275100X-0.400100X-0.275100X0.400100X-0.275100X0.400100X0.275100X0*%
%TD*%
%TA.AperFunction,ComponentPad*%
%ADD11O,1.300000X1.050000*%
%TD*%
%TA.AperFunction,ComponentPad*%
%ADD12O,1.100000X1.700000*%
%TD*%
%TA.AperFunction,ViaPad*%
%ADD13C,0.600000*%
%TD*%
%TA.AperFunction,ViaPad*%
%ADD14C,0.450000*%
%TD*%
%TA.AperFunction,ViaPad*%
%ADD15C,0.550000*%
%TD*%
%TA.AperFunction,ViaPad*%
%ADD16C,0.800000*%
%TD*%
%TA.AperFunction,ViaPad*%
%ADD17C,0.700000*%
%TD*%
%TA.AperFunction,Conductor*%
%ADD18C,0.200000*%
%TD*%
%TA.AperFunction,Conductor*%
%ADD19C,0.500000*%
%TD*%
%TA.AperFunction,Conductor*%
%ADD20C,0.300000*%
%TD*%
%TA.AperFunction,Conductor*%
%ADD21C,0.800000*%
%TD*%
%TA.AperFunction,Conductor*%
%ADD22C,0.250000*%
%TD*%
%TA.AperFunction,Conductor*%
%ADD23C,1.000000*%
%TD*%
%TA.AperFunction,Conductor*%
%ADD24C,0.400000*%
%TD*%
G04 APERTURE END LIST*
D10*
%TO.P,U5,1,VCC*%
%TO.N,+4V*%
X119700000Y-63230000D03*
D11*
%TO.P,U5,2,GND*%
%TO.N,GND*%
X119700000Y-64500000D03*
%TO.P,U5,3,OUT*%
%TO.N,Net-(JP2-A)*%
X119700000Y-65770000D03*
%TD*%
D12*
%TO.P,J1,S1,SHIELD*%
%TO.N,GND*%
X165780000Y-73500000D03*
X165780000Y-77300000D03*
X174420000Y-73500000D03*
X174420000Y-77300000D03*
%TD*%
D13*
%TO.N,GND*%
X167300000Y-75500000D03*
X172900000Y-75500000D03*
X124400000Y-78500000D03*
X121800000Y-61500000D03*
X136100000Y-61200000D03*
X149800000Y-61700000D03*
X155500000Y-61500000D03*
X162700000Y-61600000D03*
X158200000Y-60600000D03*
X164000000Y-66000000D03*
X159800000Y-78500000D03*
X157700000Y-78500000D03*
X159800000Y-76000000D03*
X157700000Y-76000000D03*
X151700000Y-78500000D03*
X151700000Y-76000000D03*
X148700000Y-76000000D03*
X148700000Y-78500000D03*
X144800000Y-78500000D03*
X144800000Y-76000000D03*
X142800000Y-78500000D03*
X142800000Y-73500000D03*
X142800000Y-76000000D03*
X152500000Y-71700000D03*
X156000000Y-69800000D03*
X147100000Y-68700000D03*
X152500000Y-69800000D03*
X161500000Y-71000000D03*
X166500000Y-60500000D03*
X139500000Y-53500000D03*
X124500000Y-59500000D03*
X134500000Y-53500000D03*
X132000000Y-53500000D03*
X136100000Y-70000000D03*
X126500000Y-59000000D03*
X172500000Y-77500000D03*
X158000000Y-66000000D03*
X170000000Y-66000000D03*
D14*
X129175003Y-66800000D03*
D13*
X180000000Y-57500000D03*
X137500000Y-76000000D03*
X141500000Y-60000000D03*
X152500000Y-53500000D03*
X129500000Y-78500000D03*
D14*
X144750000Y-72200000D03*
D13*
X170000000Y-63500000D03*
X126500000Y-70000000D03*
X133500000Y-70000000D03*
D14*
X158150000Y-64400002D03*
D13*
X164000000Y-71000000D03*
D14*
X135400000Y-63000000D03*
D13*
X156000000Y-67500000D03*
X170100000Y-77500000D03*
X128500000Y-59000000D03*
X130500000Y-70000000D03*
D14*
X145700000Y-59500003D03*
X145700000Y-60900000D03*
D13*
X152500000Y-67500000D03*
X155000000Y-53500000D03*
X170000000Y-60500000D03*
X120000000Y-61500000D03*
X176500000Y-71000000D03*
D14*
X126600000Y-67450003D03*
D13*
X160000000Y-53500000D03*
X176500000Y-57500000D03*
X149500000Y-53500000D03*
X162500000Y-53500000D03*
X147000000Y-53500000D03*
X167700000Y-77500000D03*
X137250000Y-57500000D03*
X120000000Y-70500000D03*
X137500000Y-78500000D03*
X131900000Y-73000000D03*
X129500000Y-53500000D03*
X144500000Y-53500000D03*
X137000000Y-53500000D03*
X166500000Y-66000000D03*
X165000000Y-53500000D03*
X149027225Y-64008732D03*
X134750000Y-57500000D03*
X126500000Y-73000000D03*
X139500000Y-61500000D03*
X157500000Y-53500000D03*
X180000000Y-71000000D03*
X161500000Y-66000000D03*
X167500000Y-53500000D03*
X137500000Y-73500000D03*
D14*
X143800000Y-59525003D03*
D13*
X149000000Y-67500000D03*
X142000000Y-53500000D03*
X139500000Y-63000000D03*
X170000000Y-53500000D03*
D14*
%TO.N,+BATT*%
X146743241Y-66343241D03*
X153425000Y-65075000D03*
D15*
%TO.N,+3V3*%
X141400000Y-61200000D03*
X145300000Y-63000000D03*
D14*
X127100000Y-56200000D03*
D13*
%TO.N,+4V*%
X133600000Y-66800000D03*
D15*
X145700000Y-69800000D03*
X145700000Y-69100000D03*
D14*
X124425000Y-63875000D03*
D13*
X132000000Y-66800000D03*
X132800000Y-66800000D03*
D15*
X145700000Y-70500000D03*
D14*
%TO.N,Net-(D2-A)*%
X126099958Y-65750706D03*
X126100000Y-60059882D03*
D16*
%TO.N,+6V*%
X131700000Y-63300000D03*
X158500000Y-59375000D03*
X138500000Y-64800000D03*
X131700000Y-62200000D03*
X131700000Y-64500000D03*
X149100000Y-60100000D03*
X156300000Y-59375000D03*
X137408565Y-64625000D03*
X157400000Y-59375000D03*
%TO.N,+5V*%
X124300000Y-56200000D03*
X123500000Y-62000000D03*
X124300000Y-53000000D03*
X123500000Y-59000000D03*
X123500000Y-60500000D03*
X124300000Y-54700000D03*
D14*
%TO.N,/POWER_OFF*%
X139150000Y-59375000D03*
X147281233Y-58126637D03*
%TO.N,/I2C2_SDA*%
X158149997Y-63750000D03*
X146400000Y-60900000D03*
D15*
X145700000Y-58800000D03*
X143800000Y-58825000D03*
D14*
%TO.N,/I2C2_SCL*%
X158600000Y-63200000D03*
X145700000Y-60200000D03*
%TO.N,/~{RTC_ALARM}*%
X180800000Y-62200000D03*
X160550000Y-60950000D03*
%TO.N,/~{POWER_ON}*%
X138670406Y-68075000D03*
X172150000Y-68800000D03*
X126600000Y-66800000D03*
X153350000Y-68800000D03*
%TO.N,Net-(JP2-A)*%
X180800000Y-64700000D03*
%TO.N,Net-(L1-Pad2)*%
X139900000Y-73300000D03*
X140500000Y-79200000D03*
X139900000Y-79200000D03*
X141100000Y-78500000D03*
X141100000Y-73300000D03*
X139900000Y-78500000D03*
X140500000Y-74000000D03*
X141700000Y-73300000D03*
X141700000Y-74000000D03*
X141700000Y-70750006D03*
X141100000Y-74000000D03*
X139900000Y-74000000D03*
X141100000Y-70750000D03*
X140500000Y-78500000D03*
X140500000Y-70750000D03*
X141700000Y-78500000D03*
X140500000Y-73300000D03*
X141700000Y-79200000D03*
X141100000Y-79200000D03*
X139900000Y-70750000D03*
X141700000Y-69550000D03*
X141700000Y-70150003D03*
%TO.N,/5V_EN*%
X128525000Y-66800000D03*
X144750000Y-72850003D03*
%TO.N,Net-(JP3-B)*%
X180800000Y-67200000D03*
D17*
X122250000Y-67100000D03*
%TD*%
D18*
%TO.N,+BATT*%
X148000000Y-65050000D02*
X146743241Y-66306759D01*
X153425000Y-65075000D02*
X153400000Y-65050000D01*
X153400000Y-65050000D02*
X148000000Y-65050000D01*
X146743241Y-66306759D02*
X146743241Y-66343241D01*
D19*
%TO.N,+3V3*%
X141400000Y-61200000D02*
X141400000Y-61800000D01*
D20*
X134800000Y-60550000D02*
X140750000Y-60550000D01*
X127100000Y-56200000D02*
X130450000Y-56200000D01*
D19*
X144600000Y-62300000D02*
X145300000Y-63000000D01*
X141400000Y-61800000D02*
X141900000Y-62300000D01*
X141900000Y-62300000D02*
X144600000Y-62300000D01*
D20*
X130450000Y-56200000D02*
X134800000Y-60550000D01*
X140750000Y-60550000D02*
X141400000Y-61200000D01*
%TO.N,+4V*%
X124425000Y-63875000D02*
X122375000Y-63875000D01*
D21*
X133600000Y-66800000D02*
X143450000Y-66800000D01*
X132000000Y-66800000D02*
X133600000Y-66800000D01*
D20*
X121730000Y-63230000D02*
X119700000Y-63230000D01*
D21*
X143450000Y-66800000D02*
X145700000Y-69050000D01*
X145700000Y-69050000D02*
X145700000Y-70500000D01*
D20*
X122375000Y-63875000D02*
X121730000Y-63230000D01*
D22*
%TO.N,Net-(D2-A)*%
X126087381Y-65738129D02*
X126099958Y-65750706D01*
X126100000Y-60059882D02*
X126087381Y-60072501D01*
X126087381Y-60072501D02*
X126087381Y-65738129D01*
D23*
%TO.N,+6V*%
X149100000Y-60100000D02*
X153000000Y-60100000D01*
X132000000Y-64800000D02*
X131700000Y-64500000D01*
X156300000Y-59375000D02*
X157400000Y-59375000D01*
X153725000Y-59375000D02*
X156300000Y-59375000D01*
X138500000Y-64800000D02*
X132000000Y-64800000D01*
X157400000Y-59375000D02*
X158500000Y-59375000D01*
X131700000Y-64500000D02*
X131700000Y-62200000D01*
X153000000Y-60100000D02*
X153725000Y-59375000D01*
X137583565Y-64800000D02*
X138500000Y-64800000D01*
X137408565Y-64625000D02*
X137583565Y-64800000D01*
%TO.N,+5V*%
X124300000Y-56200000D02*
X124300000Y-54700000D01*
X124300000Y-57200000D02*
X124300000Y-56200000D01*
X123500000Y-58000000D02*
X124300000Y-57200000D01*
X124300000Y-54700000D02*
X124300000Y-53000000D01*
X123500000Y-59050000D02*
X123500000Y-58000000D01*
X123500000Y-59000000D02*
X123500000Y-62000000D01*
D22*
%TO.N,/POWER_OFF*%
X146804596Y-57650000D02*
X142050000Y-57650000D01*
X140325000Y-59375000D02*
X139150000Y-59375000D01*
X147281233Y-58126637D02*
X146804596Y-57650000D01*
X142050000Y-57650000D02*
X140325000Y-59375000D01*
D18*
%TO.N,/I2C2_SDA*%
X158124997Y-63725000D02*
X149825000Y-63725000D01*
X158149997Y-63750000D02*
X158124997Y-63725000D01*
X149825000Y-63725000D02*
X147000000Y-60900000D01*
D20*
X143800000Y-58825000D02*
X145675000Y-58825000D01*
X145675000Y-58825000D02*
X145700000Y-58800000D01*
D18*
X147000000Y-60900000D02*
X146400000Y-60900000D01*
%TO.N,/I2C2_SCL*%
X147000000Y-60200000D02*
X145700000Y-60200000D01*
X158600000Y-63200000D02*
X150000000Y-63200000D01*
X150000000Y-63200000D02*
X147000000Y-60200000D01*
%TO.N,/~{RTC_ALARM}*%
X160550000Y-60950000D02*
X161800000Y-62200000D01*
X161800000Y-62200000D02*
X180800000Y-62200000D01*
D22*
%TO.N,/~{POWER_ON}*%
X126600000Y-66800000D02*
X127550000Y-66800000D01*
X127550000Y-66800000D02*
X128825000Y-68075000D01*
D24*
X172150000Y-68800000D02*
X153350000Y-68800000D01*
D22*
X128825000Y-68075000D02*
X138670406Y-68075000D01*
D20*
%TO.N,Net-(JP2-A)*%
X119700000Y-65770000D02*
X122520000Y-65770000D01*
X122520000Y-65770000D02*
X125400000Y-68650000D01*
X178350000Y-64700000D02*
X180800000Y-64700000D01*
X144350000Y-71700000D02*
X144100000Y-71950000D01*
X139000000Y-68650000D02*
X139600000Y-68050000D01*
X139600000Y-68050000D02*
X142855026Y-68050000D01*
X173675000Y-69375000D02*
X178350000Y-64700000D01*
X142855026Y-68050000D02*
X144350000Y-69544974D01*
X153850000Y-73500000D02*
X157975000Y-69375000D01*
X144100000Y-71950000D02*
X144100000Y-73150000D01*
X125400000Y-68650000D02*
X139000000Y-68650000D01*
X144350000Y-69544974D02*
X144350000Y-71700000D01*
X157975000Y-69375000D02*
X173675000Y-69375000D01*
X144450000Y-73500000D02*
X153850000Y-73500000D01*
X144100000Y-73150000D02*
X144450000Y-73500000D01*
D22*
%TO.N,/5V_EN*%
X144975000Y-70800000D02*
X145400000Y-71225000D01*
X145400000Y-72500000D02*
X145049997Y-72850003D01*
X144975000Y-69350304D02*
X144975000Y-70800000D01*
X145049997Y-72850003D02*
X144750000Y-72850003D01*
X128911396Y-67525000D02*
X143149696Y-67525000D01*
X145400000Y-71225000D02*
X145400000Y-72500000D01*
X143149696Y-67525000D02*
X144975000Y-69350304D01*
X128525000Y-67138604D02*
X128911396Y-67525000D01*
X128525000Y-66800000D02*
X128525000Y-67138604D01*
D20*
%TO.N,Net-(JP3-B)*%
X125192893Y-69150000D02*
X139350000Y-69150000D01*
X176700000Y-67200000D02*
X180800000Y-67200000D01*
X123142894Y-67100000D02*
X124900000Y-68857107D01*
X158300000Y-70000000D02*
X173900000Y-70000000D01*
X143850000Y-71450000D02*
X143550000Y-71750000D01*
X143550000Y-71750000D02*
X143550000Y-73350000D01*
X143550000Y-73350000D02*
X144300000Y-74100000D01*
X144300000Y-74100000D02*
X154200000Y-74100000D01*
X139350000Y-69150000D02*
X139950000Y-68550000D01*
X154200000Y-74100000D02*
X158300000Y-70000000D01*
X122250000Y-67100000D02*
X123142894Y-67100000D01*
X143850000Y-69752081D02*
X143850000Y-71450000D01*
X139950000Y-68550000D02*
X142647919Y-68550000D01*
X173900000Y-70000000D02*
X176700000Y-67200000D01*
X142647919Y-68550000D02*
X143850000Y-69752081D01*
X124900000Y-68857107D02*
X125192893Y-69150000D01*
%TD*%
%TA.AperFunction,Conductor*%
%TO.N,GND*%
G36*
X179502777Y-50300655D02*
G01*
X179796701Y-50317162D01*
X179807724Y-50318404D01*
X180095224Y-50367252D01*
X180106018Y-50369715D01*
X180386251Y-50450449D01*
X180396722Y-50454113D01*
X180666134Y-50565708D01*
X180676136Y-50570525D01*
X180931354Y-50711578D01*
X180940755Y-50717485D01*
X181178575Y-50886228D01*
X181187254Y-50893149D01*
X181272966Y-50969745D01*
X181404697Y-51087467D01*
X181412532Y-51095302D01*
X181452416Y-51139932D01*
X181606850Y-51312745D01*
X181613771Y-51321424D01*
X181782514Y-51559244D01*
X181788421Y-51568645D01*
X181929474Y-51823863D01*
X181934291Y-51833865D01*
X182045884Y-52103273D01*
X182049551Y-52113752D01*
X182130280Y-52393966D01*
X182132750Y-52404790D01*
X182181594Y-52692270D01*
X182182837Y-52703302D01*
X182199344Y-52997222D01*
X182199500Y-53002773D01*
X182199500Y-76997226D01*
X182199344Y-77002777D01*
X182182837Y-77296697D01*
X182181594Y-77307729D01*
X182132750Y-77595209D01*
X182130280Y-77606033D01*
X182049551Y-77886247D01*
X182045884Y-77896726D01*
X181934291Y-78166134D01*
X181929474Y-78176136D01*
X181788421Y-78431354D01*
X181782514Y-78440755D01*
X181613771Y-78678575D01*
X181606850Y-78687254D01*
X181412540Y-78904689D01*
X181404689Y-78912540D01*
X181187254Y-79106850D01*
X181178575Y-79113771D01*
X180940755Y-79282514D01*
X180931354Y-79288421D01*
X180676136Y-79429474D01*
X180666134Y-79434291D01*
X180396726Y-79545884D01*
X180386247Y-79549551D01*
X180106033Y-79630280D01*
X180095209Y-79632750D01*
X179807729Y-79681594D01*
X179796697Y-79682837D01*
X179502778Y-79699344D01*
X179497227Y-79699500D01*
X142387842Y-79699500D01*
X142329651Y-79680593D01*
X142293687Y-79631093D01*
X142293686Y-79569911D01*
X142294407Y-79567687D01*
X142295443Y-79564502D01*
X142305500Y-79501000D01*
X142305500Y-76926128D01*
X165030000Y-76926128D01*
X165030000Y-77149999D01*
X165030001Y-77150000D01*
X165480000Y-77150000D01*
X165480000Y-77450000D01*
X165030001Y-77450000D01*
X165030000Y-77450001D01*
X165030000Y-77673871D01*
X165058821Y-77818764D01*
X165058823Y-77818770D01*
X165115358Y-77955257D01*
X165197434Y-78078093D01*
X165301906Y-78182565D01*
X165424742Y-78264641D01*
X165561235Y-78321178D01*
X165561234Y-78321178D01*
X165630000Y-78334855D01*
X165630000Y-77859808D01*
X165664204Y-77879556D01*
X165740504Y-77900000D01*
X165819496Y-77900000D01*
X165895796Y-77879556D01*
X165930000Y-77859808D01*
X165930000Y-78334854D01*
X165998765Y-78321178D01*
X166135257Y-78264641D01*
X166258093Y-78182565D01*
X166362565Y-78078093D01*
X166444641Y-77955257D01*
X166501176Y-77818770D01*
X166501178Y-77818764D01*
X166529999Y-77673871D01*
X166530000Y-77673867D01*
X166530000Y-77450001D01*
X166529999Y-77450000D01*
X166080000Y-77450000D01*
X166080000Y-77150000D01*
X166529999Y-77150000D01*
X166530000Y-77149999D01*
X166530000Y-76926132D01*
X166529999Y-76926128D01*
X173670000Y-76926128D01*
X173670000Y-77149999D01*
X173670001Y-77150000D01*
X174120000Y-77150000D01*
X174120000Y-77450000D01*
X173670001Y-77450000D01*
X173670000Y-77450001D01*
X173670000Y-77673871D01*
X173698821Y-77818764D01*
X173698823Y-77818770D01*
X173755358Y-77955257D01*
X173837434Y-78078093D01*
X173941906Y-78182565D01*
X174064742Y-78264641D01*
X174201235Y-78321178D01*
X174201234Y-78321178D01*
X174270000Y-78334855D01*
X174270000Y-77859808D01*
X174304204Y-77879556D01*
X174380504Y-77900000D01*
X174459496Y-77900000D01*
X174535796Y-77879556D01*
X174570000Y-77859808D01*
X174570000Y-78334854D01*
X174638765Y-78321178D01*
X174775257Y-78264641D01*
X174898093Y-78182565D01*
X175002565Y-78078093D01*
X175084641Y-77955257D01*
X175141176Y-77818770D01*
X175141178Y-77818764D01*
X175169999Y-77673871D01*
X175170000Y-77673867D01*
X175170000Y-77450001D01*
X175169999Y-77450000D01*
X174720000Y-77450000D01*
X174720000Y-77150000D01*
X175169999Y-77150000D01*
X175170000Y-77149999D01*
X175170000Y-76926132D01*
X175169999Y-76926128D01*
X175141178Y-76781235D01*
X175141176Y-76781229D01*
X175084641Y-76644742D01*
X175002565Y-76521906D01*
X174898093Y-76417434D01*
X174807295Y-76356765D01*
X176449500Y-76356765D01*
X176449500Y-76643234D01*
X176481573Y-76927896D01*
X176545318Y-77207185D01*
X176639930Y-77477569D01*
X176764223Y-77735667D01*
X176867481Y-77900000D01*
X176916634Y-77978227D01*
X177095243Y-78202195D01*
X177297805Y-78404757D01*
X177521773Y-78583366D01*
X177643052Y-78659570D01*
X177764332Y-78735776D01*
X177897795Y-78800048D01*
X178022428Y-78860068D01*
X178022431Y-78860069D01*
X178022430Y-78860069D01*
X178292814Y-78954681D01*
X178292817Y-78954681D01*
X178292818Y-78954682D01*
X178572102Y-79018426D01*
X178856767Y-79050500D01*
X178856768Y-79050500D01*
X179143232Y-79050500D01*
X179143233Y-79050500D01*
X179427898Y-79018426D01*
X179707182Y-78954682D01*
X179977572Y-78860068D01*
X180235669Y-78735775D01*
X180478227Y-78583366D01*
X180702195Y-78404757D01*
X180904757Y-78202195D01*
X181083366Y-77978227D01*
X181235775Y-77735669D01*
X181360068Y-77477572D01*
X181454682Y-77207182D01*
X181518426Y-76927898D01*
X181550500Y-76643233D01*
X181550500Y-76356767D01*
X181518426Y-76072102D01*
X181454682Y-75792818D01*
X181360068Y-75522428D01*
X181235776Y-75264332D01*
X181083365Y-75021772D01*
X180904757Y-74797805D01*
X180702195Y-74595243D01*
X180478227Y-74416634D01*
X180478225Y-74416633D01*
X180235667Y-74264223D01*
X179977568Y-74139930D01*
X179977569Y-74139930D01*
X179707185Y-74045318D01*
X179427896Y-73981573D01*
X179143234Y-73949500D01*
X179143233Y-73949500D01*
X178856767Y-73949500D01*
X178856765Y-73949500D01*
X178572103Y-73981573D01*
X178292814Y-74045318D01*
X178022430Y-74139930D01*
X177764332Y-74264223D01*
X177521772Y-74416634D01*
X177297806Y-74595242D01*
X177095242Y-74797806D01*
X176916634Y-75021772D01*
X176764223Y-75264332D01*
X176639930Y-75522430D01*
X176545318Y-75792814D01*
X176481573Y-76072103D01*
X176449500Y-76356765D01*
X174807295Y-76356765D01*
X174775257Y-76335358D01*
X174638767Y-76278822D01*
X174570000Y-76265143D01*
X174570000Y-76740191D01*
X174535796Y-76720444D01*
X174459496Y-76700000D01*
X174380504Y-76700000D01*
X174304204Y-76720444D01*
X174270000Y-76740191D01*
X174270000Y-76265143D01*
X174201232Y-76278822D01*
X174064742Y-76335358D01*
X173941906Y-76417434D01*
X173837434Y-76521906D01*
X173755358Y-76644742D01*
X173698823Y-76781229D01*
X173698821Y-76781235D01*
X173670000Y-76926128D01*
X166529999Y-76926128D01*
X166501178Y-76781235D01*
X166501176Y-76781229D01*
X166444641Y-76644742D01*
X166362565Y-76521906D01*
X166258093Y-76417434D01*
X166135257Y-76335358D01*
X165998767Y-76278822D01*
X165930000Y-76265143D01*
X165930000Y-76740191D01*
X165895796Y-76720444D01*
X165819496Y-76700000D01*
X165740504Y-76700000D01*
X165664204Y-76720444D01*
X165630000Y-76740191D01*
X165630000Y-76265143D01*
X165561232Y-76278822D01*
X165424742Y-76335358D01*
X165301906Y-76417434D01*
X165197434Y-76521906D01*
X165115358Y-76644742D01*
X165058823Y-76781229D01*
X165058821Y-76781235D01*
X165030000Y-76926128D01*
X142305500Y-76926128D01*
X142305500Y-69599000D01*
X142302970Y-69566856D01*
X142298125Y-69536263D01*
X142298116Y-69536206D01*
X142297353Y-69531718D01*
X142297352Y-69531713D01*
X142261408Y-69447617D01*
X142248948Y-69430468D01*
X142225444Y-69398117D01*
X142201203Y-69370372D01*
X142122693Y-69323464D01*
X142122691Y-69323463D01*
X142122689Y-69323462D01*
X142074966Y-69307957D01*
X142035555Y-69283806D01*
X141953221Y-69201473D01*
X141953217Y-69201470D01*
X141833129Y-69140282D01*
X141833127Y-69140281D01*
X141700000Y-69119196D01*
X141566872Y-69140281D01*
X141566870Y-69140282D01*
X141446782Y-69201470D01*
X141446778Y-69201473D01*
X141382747Y-69265504D01*
X141328230Y-69293281D01*
X141312744Y-69294500D01*
X139940190Y-69294500D01*
X139881999Y-69275593D01*
X139846035Y-69226093D01*
X139846035Y-69164907D01*
X139870186Y-69125496D01*
X140066186Y-68929496D01*
X140120703Y-68901719D01*
X140136190Y-68900500D01*
X142461729Y-68900500D01*
X142519920Y-68919407D01*
X142531733Y-68929496D01*
X143470504Y-69868266D01*
X143498281Y-69922783D01*
X143499500Y-69938270D01*
X143499500Y-71263810D01*
X143480593Y-71322001D01*
X143470504Y-71333813D01*
X143269530Y-71534787D01*
X143240373Y-71585287D01*
X143240374Y-71585288D01*
X143223386Y-71614710D01*
X143199500Y-71703857D01*
X143199500Y-73396143D01*
X143214964Y-73453856D01*
X143214963Y-73453856D01*
X143223385Y-73485285D01*
X143223386Y-73485288D01*
X143269530Y-73565212D01*
X144084788Y-74380470D01*
X144147426Y-74416634D01*
X144164712Y-74426614D01*
X144253856Y-74450500D01*
X144253858Y-74450500D01*
X154246142Y-74450500D01*
X154246144Y-74450500D01*
X154335288Y-74426614D01*
X154352574Y-74416634D01*
X154415212Y-74380470D01*
X155669554Y-73126128D01*
X165030000Y-73126128D01*
X165030000Y-73349999D01*
X165030001Y-73350000D01*
X165480000Y-73350000D01*
X165480000Y-73650000D01*
X165030001Y-73650000D01*
X165030000Y-73650001D01*
X165030000Y-73873871D01*
X165058821Y-74018764D01*
X165058823Y-74018770D01*
X165115358Y-74155257D01*
X165197434Y-74278093D01*
X165301906Y-74382565D01*
X165424742Y-74464641D01*
X165561235Y-74521178D01*
X165561234Y-74521178D01*
X165630000Y-74534855D01*
X165630000Y-74059808D01*
X165664204Y-74079556D01*
X165740504Y-74100000D01*
X165819496Y-74100000D01*
X165895796Y-74079556D01*
X165930000Y-74059808D01*
X165930000Y-74534854D01*
X165998765Y-74521178D01*
X166135257Y-74464641D01*
X166258093Y-74382565D01*
X166362565Y-74278093D01*
X166444641Y-74155257D01*
X166501176Y-74018770D01*
X166501178Y-74018764D01*
X166529999Y-73873871D01*
X166530000Y-73873867D01*
X166530000Y-73650001D01*
X166529999Y-73650000D01*
X166080000Y-73650000D01*
X166080000Y-73350000D01*
X166529999Y-73350000D01*
X166530000Y-73349999D01*
X166530000Y-73126132D01*
X166529999Y-73126128D01*
X173670000Y-73126128D01*
X173670000Y-73349999D01*
X173670001Y-73350000D01*
X174120000Y-73350000D01*
X174120000Y-73650000D01*
X173670001Y-73650000D01*
X173670000Y-73650001D01*
X173670000Y-73873871D01*
X173698821Y-74018764D01*
X173698823Y-74018770D01*
X173755358Y-74155257D01*
X173837434Y-74278093D01*
X173941906Y-74382565D01*
X174064742Y-74464641D01*
X174201235Y-74521178D01*
X174201234Y-74521178D01*
X174270000Y-74534855D01*
X174270000Y-74059808D01*
X174304204Y-74079556D01*
X174380504Y-74100000D01*
X174459496Y-74100000D01*
X174535796Y-74079556D01*
X174570000Y-74059808D01*
X174570000Y-74534854D01*
X174638765Y-74521178D01*
X174775257Y-74464641D01*
X174898093Y-74382565D01*
X175002565Y-74278093D01*
X175084641Y-74155257D01*
X175141176Y-74018770D01*
X175141178Y-74018764D01*
X175169999Y-73873871D01*
X175170000Y-73873867D01*
X175170000Y-73650001D01*
X175169999Y-73650000D01*
X174720000Y-73650000D01*
X174720000Y-73350000D01*
X175169999Y-73350000D01*
X175170000Y-73349999D01*
X175170000Y-73126132D01*
X175169999Y-73126128D01*
X175141178Y-72981235D01*
X175141176Y-72981229D01*
X175084641Y-72844742D01*
X175002565Y-72721906D01*
X174898093Y-72617434D01*
X174775257Y-72535358D01*
X174638767Y-72478822D01*
X174570000Y-72465143D01*
X174570000Y-72940191D01*
X174535796Y-72920444D01*
X174459496Y-72900000D01*
X174380504Y-72900000D01*
X174304204Y-72920444D01*
X174270000Y-72940191D01*
X174270000Y-72465143D01*
X174201232Y-72478822D01*
X174064742Y-72535358D01*
X173941906Y-72617434D01*
X173837434Y-72721906D01*
X173755358Y-72844742D01*
X173698823Y-72981229D01*
X173698821Y-72981235D01*
X173670000Y-73126128D01*
X166529999Y-73126128D01*
X166501178Y-72981235D01*
X166501176Y-72981229D01*
X166444641Y-72844742D01*
X166362565Y-72721906D01*
X166258093Y-72617434D01*
X166135257Y-72535358D01*
X165998767Y-72478822D01*
X165930000Y-72465143D01*
X165930000Y-72940191D01*
X165895796Y-72920444D01*
X165819496Y-72900000D01*
X165740504Y-72900000D01*
X165664204Y-72920444D01*
X165630000Y-72940191D01*
X165630000Y-72465143D01*
X165561232Y-72478822D01*
X165424742Y-72535358D01*
X165301906Y-72617434D01*
X165197434Y-72721906D01*
X165115358Y-72844742D01*
X165058823Y-72981229D01*
X165058821Y-72981235D01*
X165030000Y-73126128D01*
X155669554Y-73126128D01*
X158416186Y-70379496D01*
X158470703Y-70351719D01*
X158486190Y-70350500D01*
X173946142Y-70350500D01*
X173946144Y-70350500D01*
X174035288Y-70326614D01*
X174048132Y-70319197D01*
X174048136Y-70319197D01*
X174086860Y-70296838D01*
X174115212Y-70280470D01*
X176816186Y-67579496D01*
X176870703Y-67551719D01*
X176886190Y-67550500D01*
X180526882Y-67550500D01*
X180571826Y-67561289D01*
X180666874Y-67609719D01*
X180800000Y-67630804D01*
X180933126Y-67609719D01*
X181053220Y-67548528D01*
X181148528Y-67453220D01*
X181209719Y-67333126D01*
X181230804Y-67200000D01*
X181209719Y-67066874D01*
X181148528Y-66946780D01*
X181053220Y-66851472D01*
X181053217Y-66851470D01*
X180933129Y-66790282D01*
X180933127Y-66790281D01*
X180800000Y-66769196D01*
X180666874Y-66790281D01*
X180666872Y-66790281D01*
X180571827Y-66838710D01*
X180526882Y-66849500D01*
X176935189Y-66849500D01*
X176876998Y-66830593D01*
X176841034Y-66781093D01*
X176841034Y-66719907D01*
X176865185Y-66680496D01*
X178466185Y-65079496D01*
X178520702Y-65051719D01*
X178536189Y-65050500D01*
X180526882Y-65050500D01*
X180571826Y-65061289D01*
X180666874Y-65109719D01*
X180800000Y-65130804D01*
X180933126Y-65109719D01*
X181053220Y-65048528D01*
X181148528Y-64953220D01*
X181209719Y-64833126D01*
X181230804Y-64700000D01*
X181209719Y-64566874D01*
X181148528Y-64446780D01*
X181053220Y-64351472D01*
X181053217Y-64351470D01*
X180933129Y-64290282D01*
X180933127Y-64290281D01*
X180800000Y-64269196D01*
X180666874Y-64290281D01*
X180666872Y-64290281D01*
X180571827Y-64338710D01*
X180526882Y-64349500D01*
X178303856Y-64349500D01*
X178282378Y-64355255D01*
X178220940Y-64371716D01*
X178220941Y-64371717D01*
X178214710Y-64373386D01*
X178134790Y-64419529D01*
X173558814Y-68995504D01*
X173504297Y-69023281D01*
X173488810Y-69024500D01*
X172661161Y-69024500D01*
X172602970Y-69005593D01*
X172567006Y-68956093D01*
X172563380Y-68910013D01*
X172580804Y-68800000D01*
X172580804Y-68799999D01*
X172562001Y-68681284D01*
X172559719Y-68666874D01*
X172498528Y-68546780D01*
X172403220Y-68451472D01*
X172403217Y-68451470D01*
X172283129Y-68390282D01*
X172283127Y-68390281D01*
X172150000Y-68369196D01*
X172016872Y-68390281D01*
X172009462Y-68392689D01*
X172009021Y-68391334D01*
X171975013Y-68399500D01*
X153524987Y-68399500D01*
X153490978Y-68391334D01*
X153490538Y-68392689D01*
X153483127Y-68390281D01*
X153350000Y-68369196D01*
X153216872Y-68390281D01*
X153216870Y-68390282D01*
X153096782Y-68451470D01*
X153001470Y-68546782D01*
X152940282Y-68666870D01*
X152940281Y-68666872D01*
X152919196Y-68799999D01*
X152919196Y-68800000D01*
X152940281Y-68933127D01*
X152940282Y-68933129D01*
X152986217Y-69023281D01*
X153001472Y-69053220D01*
X153096780Y-69148528D01*
X153216874Y-69209719D01*
X153350000Y-69230804D01*
X153483126Y-69209719D01*
X153483129Y-69209717D01*
X153490538Y-69207311D01*
X153490978Y-69208665D01*
X153524987Y-69200500D01*
X157414810Y-69200500D01*
X157473001Y-69219407D01*
X157508965Y-69268907D01*
X157508965Y-69330093D01*
X157484814Y-69369504D01*
X153733814Y-73120504D01*
X153679297Y-73148281D01*
X153663810Y-73149500D01*
X145449834Y-73149500D01*
X145391643Y-73130593D01*
X145355679Y-73081093D01*
X145355679Y-73019907D01*
X145379828Y-72980498D01*
X145660465Y-72699862D01*
X145703318Y-72625639D01*
X145725500Y-72542853D01*
X145725500Y-72457147D01*
X145725500Y-71275840D01*
X145725501Y-71275827D01*
X145725501Y-71190815D01*
X145744408Y-71132624D01*
X145793908Y-71096660D01*
X145798842Y-71095198D01*
X145931784Y-71059577D01*
X146068716Y-70980520D01*
X146180520Y-70868716D01*
X146259577Y-70731784D01*
X146300500Y-70579057D01*
X146300500Y-69137045D01*
X146300501Y-69137032D01*
X146300501Y-68970942D01*
X146300500Y-68970940D01*
X146290368Y-68933129D01*
X146259577Y-68818216D01*
X146180520Y-68681284D01*
X143930521Y-66431286D01*
X143930520Y-66431284D01*
X143842476Y-66343240D01*
X146312437Y-66343240D01*
X146312437Y-66343241D01*
X146333522Y-66476368D01*
X146333523Y-66476370D01*
X146378005Y-66563670D01*
X146394713Y-66596461D01*
X146490021Y-66691769D01*
X146610115Y-66752960D01*
X146743241Y-66774045D01*
X146876367Y-66752960D01*
X146996461Y-66691769D01*
X147091769Y-66596461D01*
X147152960Y-66476367D01*
X147174045Y-66343241D01*
X147174045Y-66343240D01*
X147174045Y-66341933D01*
X147174449Y-66340688D01*
X147175264Y-66335545D01*
X147176078Y-66335674D01*
X147192952Y-66283742D01*
X147203041Y-66271929D01*
X148095475Y-65379496D01*
X148149992Y-65351719D01*
X148165479Y-65350500D01*
X153057744Y-65350500D01*
X153115935Y-65369407D01*
X153127747Y-65379496D01*
X153167752Y-65419500D01*
X153171780Y-65423528D01*
X153171782Y-65423529D01*
X153270010Y-65473579D01*
X153291874Y-65484719D01*
X153425000Y-65505804D01*
X153558126Y-65484719D01*
X153678220Y-65423528D01*
X153773528Y-65328220D01*
X153834719Y-65208126D01*
X153855804Y-65075000D01*
X153854163Y-65064642D01*
X153844611Y-65004329D01*
X153834719Y-64941874D01*
X153773528Y-64821780D01*
X153678220Y-64726472D01*
X153678217Y-64726470D01*
X153558129Y-64665282D01*
X153558127Y-64665281D01*
X153425000Y-64644196D01*
X153291872Y-64665281D01*
X153291870Y-64665282D01*
X153171783Y-64726470D01*
X153166107Y-64730594D01*
X153107918Y-64749500D01*
X148039562Y-64749500D01*
X147960438Y-64749500D01*
X147913661Y-64762033D01*
X147884007Y-64769979D01*
X147815493Y-64809536D01*
X147815488Y-64809540D01*
X146729567Y-65895459D01*
X146675053Y-65923236D01*
X146610112Y-65933522D01*
X146610111Y-65933523D01*
X146490023Y-65994711D01*
X146394711Y-66090023D01*
X146333523Y-66210111D01*
X146333522Y-66210113D01*
X146312437Y-66343240D01*
X143842476Y-66343240D01*
X143818716Y-66319480D01*
X143818713Y-66319478D01*
X143728159Y-66267197D01*
X143728156Y-66267196D01*
X143681787Y-66240424D01*
X143681786Y-66240423D01*
X143681785Y-66240423D01*
X143529057Y-66199499D01*
X143370943Y-66199499D01*
X143364880Y-66199499D01*
X143364864Y-66199500D01*
X133679057Y-66199500D01*
X131920943Y-66199500D01*
X131768216Y-66240423D01*
X131631284Y-66319480D01*
X131519480Y-66431284D01*
X131440423Y-66568216D01*
X131399500Y-66720943D01*
X131399500Y-66879057D01*
X131440423Y-67031784D01*
X131451518Y-67051002D01*
X131464239Y-67110849D01*
X131439352Y-67166744D01*
X131386364Y-67197337D01*
X131365781Y-67199500D01*
X129087231Y-67199500D01*
X129029040Y-67180593D01*
X129017227Y-67170504D01*
X128933304Y-67086581D01*
X128905527Y-67032064D01*
X128915097Y-66971635D01*
X128934719Y-66933126D01*
X128955804Y-66800000D01*
X128934719Y-66666874D01*
X128934718Y-66666872D01*
X128934717Y-66666870D01*
X128873529Y-66546782D01*
X128873528Y-66546780D01*
X128778220Y-66451472D01*
X128778217Y-66451470D01*
X128658129Y-66390282D01*
X128658127Y-66390281D01*
X128525000Y-66369196D01*
X128391872Y-66390281D01*
X128391870Y-66390282D01*
X128271782Y-66451470D01*
X128176470Y-66546782D01*
X128115282Y-66666870D01*
X128115281Y-66666871D01*
X128113123Y-66680498D01*
X128085343Y-66735014D01*
X128030826Y-66762790D01*
X127970394Y-66753216D01*
X127945341Y-66735014D01*
X127749862Y-66539535D01*
X127749859Y-66539533D01*
X127749857Y-66539531D01*
X127675642Y-66496683D01*
X127675644Y-66496683D01*
X127643521Y-66488076D01*
X127592853Y-66474500D01*
X127592851Y-66474500D01*
X126917082Y-66474500D01*
X126858893Y-66455594D01*
X126853223Y-66451475D01*
X126853220Y-66451472D01*
X126813599Y-66431284D01*
X126733129Y-66390282D01*
X126733127Y-66390281D01*
X126600000Y-66369196D01*
X126466872Y-66390281D01*
X126466870Y-66390282D01*
X126346782Y-66451470D01*
X126251470Y-66546782D01*
X126190282Y-66666870D01*
X126190281Y-66666872D01*
X126169196Y-66799999D01*
X126169196Y-66800000D01*
X126190281Y-66933127D01*
X126190282Y-66933129D01*
X126251470Y-67053217D01*
X126251472Y-67053220D01*
X126346780Y-67148528D01*
X126466874Y-67209719D01*
X126600000Y-67230804D01*
X126733126Y-67209719D01*
X126853220Y-67148528D01*
X126853226Y-67148521D01*
X126858893Y-67144406D01*
X126917082Y-67125500D01*
X127374165Y-67125500D01*
X127432356Y-67144407D01*
X127444169Y-67154496D01*
X128420169Y-68130496D01*
X128447946Y-68185013D01*
X128438375Y-68245445D01*
X128395110Y-68288710D01*
X128350165Y-68299500D01*
X125586190Y-68299500D01*
X125527999Y-68280593D01*
X125516186Y-68270504D01*
X124145334Y-66899652D01*
X122996387Y-65750705D01*
X125669154Y-65750705D01*
X125669154Y-65750706D01*
X125690239Y-65883833D01*
X125690240Y-65883835D01*
X125751428Y-66003923D01*
X125751430Y-66003926D01*
X125846738Y-66099234D01*
X125966832Y-66160425D01*
X126099958Y-66181510D01*
X126233084Y-66160425D01*
X126353178Y-66099234D01*
X126448486Y-66003926D01*
X126509677Y-65883832D01*
X126530762Y-65750706D01*
X126509677Y-65617580D01*
X126448486Y-65497486D01*
X126448485Y-65497485D01*
X126448483Y-65497482D01*
X126441875Y-65490874D01*
X126414099Y-65436356D01*
X126412881Y-65420873D01*
X126412881Y-62131004D01*
X130999500Y-62131004D01*
X130999500Y-64568996D01*
X131026420Y-64704327D01*
X131026420Y-64704329D01*
X131079223Y-64831808D01*
X131152763Y-64941870D01*
X131155886Y-64946543D01*
X131553457Y-65344114D01*
X131668189Y-65420775D01*
X131668190Y-65420775D01*
X131668191Y-65420776D01*
X131697070Y-65432738D01*
X131795672Y-65473580D01*
X131931006Y-65500500D01*
X131931007Y-65500500D01*
X138568992Y-65500500D01*
X138568993Y-65500500D01*
X138704328Y-65473580D01*
X138831811Y-65420775D01*
X138946542Y-65344114D01*
X139044114Y-65246542D01*
X139120775Y-65131811D01*
X139173580Y-65004328D01*
X139200500Y-64868993D01*
X139200500Y-64731007D01*
X139173580Y-64595672D01*
X139120775Y-64468189D01*
X139120774Y-64468187D01*
X139120771Y-64468182D01*
X139044114Y-64353458D01*
X138946541Y-64255885D01*
X138831817Y-64179228D01*
X138831806Y-64179222D01*
X138704328Y-64126420D01*
X138568995Y-64099500D01*
X138568993Y-64099500D01*
X137912998Y-64099500D01*
X137857997Y-64082816D01*
X137740373Y-64004223D01*
X137612893Y-63951420D01*
X137477561Y-63924500D01*
X137477559Y-63924500D01*
X137339571Y-63924500D01*
X137339568Y-63924500D01*
X137204237Y-63951420D01*
X137204235Y-63951420D01*
X137076756Y-64004223D01*
X136959133Y-64082816D01*
X136904132Y-64099500D01*
X132499500Y-64099500D01*
X132441309Y-64080593D01*
X132405345Y-64031093D01*
X132400500Y-64000500D01*
X132400500Y-62131008D01*
X132400499Y-62131004D01*
X132389680Y-62076614D01*
X132373580Y-61995672D01*
X132342226Y-61919976D01*
X132320777Y-61868193D01*
X132320771Y-61868182D01*
X132244114Y-61753458D01*
X132146541Y-61655885D01*
X132031817Y-61579228D01*
X132031806Y-61579222D01*
X131904328Y-61526420D01*
X131768995Y-61499500D01*
X131768993Y-61499500D01*
X131631007Y-61499500D01*
X131631004Y-61499500D01*
X131495672Y-61526420D01*
X131495670Y-61526420D01*
X131368193Y-61579222D01*
X131368182Y-61579228D01*
X131253458Y-61655885D01*
X131155885Y-61753458D01*
X131079228Y-61868182D01*
X131079222Y-61868193D01*
X131026420Y-61995670D01*
X131026420Y-61995672D01*
X130999500Y-62131004D01*
X126412881Y-62131004D01*
X126412881Y-60389756D01*
X126431788Y-60331565D01*
X126441871Y-60319758D01*
X126448528Y-60313102D01*
X126509719Y-60193008D01*
X126530804Y-60059882D01*
X126509719Y-59926756D01*
X126448528Y-59806662D01*
X126353220Y-59711354D01*
X126353217Y-59711352D01*
X126233129Y-59650164D01*
X126233127Y-59650163D01*
X126100000Y-59629078D01*
X125966872Y-59650163D01*
X125966870Y-59650164D01*
X125846782Y-59711352D01*
X125751470Y-59806664D01*
X125690282Y-59926752D01*
X125690281Y-59926754D01*
X125669196Y-60059881D01*
X125669196Y-60059882D01*
X125690281Y-60193009D01*
X125705759Y-60223386D01*
X125751090Y-60312353D01*
X125761881Y-60357297D01*
X125761881Y-65453207D01*
X125751091Y-65498150D01*
X125747192Y-65505804D01*
X125690239Y-65617580D01*
X125669154Y-65750705D01*
X122996387Y-65750705D01*
X122735212Y-65489530D01*
X122726879Y-65484719D01*
X122655290Y-65443387D01*
X122655289Y-65443386D01*
X122654816Y-65443259D01*
X122654344Y-65443133D01*
X122654343Y-65443132D01*
X122591671Y-65426340D01*
X122566144Y-65419500D01*
X122566142Y-65419500D01*
X120516270Y-65419500D01*
X120458079Y-65400593D01*
X120433955Y-65375502D01*
X120388532Y-65307521D01*
X120287479Y-65206468D01*
X120285661Y-65204650D01*
X120257884Y-65150133D01*
X120267455Y-65089701D01*
X120285662Y-65064642D01*
X120388136Y-64962169D01*
X120388143Y-64962160D01*
X120467488Y-64843414D01*
X120467488Y-64843413D01*
X120522138Y-64711476D01*
X120522139Y-64711473D01*
X120534367Y-64650000D01*
X120046410Y-64650000D01*
X120049444Y-64644745D01*
X120075000Y-64549370D01*
X120075000Y-64450630D01*
X120049444Y-64355255D01*
X120046410Y-64350000D01*
X120534366Y-64350000D01*
X120534366Y-64349999D01*
X120522139Y-64288526D01*
X120522138Y-64288523D01*
X120467488Y-64156586D01*
X120467488Y-64156585D01*
X120388143Y-64037839D01*
X120388140Y-64037835D01*
X120362735Y-64012430D01*
X120334958Y-63957913D01*
X120344529Y-63897481D01*
X120373951Y-63862771D01*
X120422178Y-63827178D01*
X120485138Y-63741870D01*
X120502801Y-63717938D01*
X120502801Y-63717937D01*
X120502803Y-63717935D01*
X120527693Y-63646800D01*
X120564757Y-63598122D01*
X120621137Y-63580500D01*
X121543810Y-63580500D01*
X121602001Y-63599407D01*
X121613814Y-63609496D01*
X122159788Y-64155470D01*
X122167146Y-64159718D01*
X122216167Y-64188021D01*
X122216172Y-64188023D01*
X122239708Y-64201612D01*
X122239709Y-64201612D01*
X122239712Y-64201614D01*
X122328856Y-64225500D01*
X122328857Y-64225500D01*
X122421144Y-64225500D01*
X124151882Y-64225500D01*
X124196826Y-64236289D01*
X124291874Y-64284719D01*
X124425000Y-64305804D01*
X124558126Y-64284719D01*
X124678220Y-64223528D01*
X124773528Y-64128220D01*
X124834719Y-64008126D01*
X124855804Y-63875000D01*
X124834719Y-63741874D01*
X124773528Y-63621780D01*
X124678220Y-63526472D01*
X124678217Y-63526470D01*
X124558129Y-63465282D01*
X124558127Y-63465281D01*
X124425000Y-63444196D01*
X124291874Y-63465281D01*
X124291872Y-63465281D01*
X124196827Y-63513710D01*
X124151882Y-63524500D01*
X122561190Y-63524500D01*
X122502999Y-63505593D01*
X122491186Y-63495504D01*
X122222424Y-63226742D01*
X121945212Y-62949530D01*
X121865288Y-62903386D01*
X121860226Y-62902029D01*
X121850785Y-62899499D01*
X121850785Y-62899500D01*
X121776144Y-62879500D01*
X121776142Y-62879500D01*
X120621137Y-62879500D01*
X120562946Y-62860593D01*
X120527693Y-62813199D01*
X120502803Y-62742065D01*
X120502801Y-62742063D01*
X120502801Y-62742061D01*
X120422181Y-62632825D01*
X120422174Y-62632818D01*
X120312938Y-62552198D01*
X120289835Y-62544114D01*
X120184780Y-62507354D01*
X120184778Y-62507353D01*
X120184776Y-62507353D01*
X120154354Y-62504500D01*
X120154346Y-62504500D01*
X119245654Y-62504500D01*
X119245645Y-62504500D01*
X119215223Y-62507353D01*
X119087061Y-62552198D01*
X118977825Y-62632818D01*
X118977818Y-62632825D01*
X118897198Y-62742061D01*
X118852353Y-62870223D01*
X118849500Y-62900645D01*
X118849500Y-63559354D01*
X118852353Y-63589776D01*
X118852353Y-63589778D01*
X118852354Y-63589780D01*
X118863551Y-63621780D01*
X118897198Y-63717938D01*
X118977818Y-63827174D01*
X118977822Y-63827178D01*
X119026048Y-63862770D01*
X119061641Y-63912538D01*
X119061183Y-63973722D01*
X119037265Y-64012428D01*
X119011864Y-64037829D01*
X119011856Y-64037839D01*
X118932511Y-64156585D01*
X118932511Y-64156586D01*
X118877861Y-64288523D01*
X118877860Y-64288526D01*
X118865633Y-64349999D01*
X118865634Y-64350000D01*
X119353590Y-64350000D01*
X119350556Y-64355255D01*
X119325000Y-64450630D01*
X119325000Y-64549370D01*
X119350556Y-64644745D01*
X119353590Y-64650000D01*
X118865633Y-64650000D01*
X118877860Y-64711473D01*
X118877861Y-64711476D01*
X118932511Y-64843413D01*
X118932511Y-64843414D01*
X119011856Y-64962160D01*
X119011859Y-64962164D01*
X119114338Y-65064643D01*
X119142115Y-65119160D01*
X119132544Y-65179592D01*
X119114338Y-65204651D01*
X119011471Y-65307517D01*
X119011468Y-65307521D01*
X118932074Y-65426340D01*
X118932068Y-65426351D01*
X118877381Y-65558378D01*
X118877381Y-65558380D01*
X118849500Y-65698542D01*
X118849500Y-65841457D01*
X118877381Y-65981619D01*
X118877381Y-65981621D01*
X118932068Y-66113648D01*
X118932074Y-66113659D01*
X118977412Y-66181510D01*
X119011468Y-66232479D01*
X119112521Y-66333532D01*
X119165896Y-66369196D01*
X119231340Y-66412925D01*
X119231351Y-66412931D01*
X119275660Y-66431284D01*
X119363380Y-66467619D01*
X119503545Y-66495500D01*
X119503546Y-66495500D01*
X119896454Y-66495500D01*
X119896455Y-66495500D01*
X120036620Y-66467619D01*
X120168653Y-66412929D01*
X120287479Y-66333532D01*
X120388532Y-66232479D01*
X120433955Y-66164497D01*
X120482005Y-66126619D01*
X120516270Y-66120500D01*
X122333810Y-66120500D01*
X122392001Y-66139407D01*
X122403814Y-66149496D01*
X122834814Y-66580496D01*
X122862591Y-66635013D01*
X122853020Y-66695445D01*
X122809755Y-66738710D01*
X122764810Y-66749500D01*
X122723764Y-66749500D01*
X122665573Y-66730593D01*
X122645223Y-66710769D01*
X122642623Y-66707381D01*
X122642621Y-66707380D01*
X122642621Y-66707379D01*
X122527625Y-66619139D01*
X122527621Y-66619137D01*
X122393709Y-66563670D01*
X122393708Y-66563669D01*
X122250000Y-66544750D01*
X122106291Y-66563669D01*
X122106290Y-66563670D01*
X121972378Y-66619137D01*
X121972374Y-66619139D01*
X121857381Y-66707377D01*
X121857377Y-66707381D01*
X121769139Y-66822374D01*
X121769137Y-66822378D01*
X121713670Y-66956290D01*
X121713669Y-66956291D01*
X121694750Y-67099999D01*
X121694750Y-67100000D01*
X121713669Y-67243708D01*
X121713670Y-67243709D01*
X121750707Y-67333127D01*
X121769139Y-67377625D01*
X121857379Y-67492621D01*
X121972375Y-67580861D01*
X122106291Y-67636330D01*
X122250000Y-67655250D01*
X122393709Y-67636330D01*
X122527625Y-67580861D01*
X122642621Y-67492621D01*
X122643385Y-67491624D01*
X122645223Y-67489231D01*
X122695649Y-67454576D01*
X122723764Y-67450500D01*
X122956704Y-67450500D01*
X123014895Y-67469407D01*
X123026707Y-67479495D01*
X123827804Y-68280593D01*
X124619529Y-69072318D01*
X124619530Y-69072319D01*
X124619529Y-69072319D01*
X124912423Y-69365211D01*
X124912424Y-69365213D01*
X124977680Y-69430468D01*
X124977682Y-69430470D01*
X125026595Y-69458710D01*
X125057605Y-69476614D01*
X125146749Y-69500500D01*
X139245500Y-69500500D01*
X139303691Y-69519407D01*
X139339655Y-69568907D01*
X139344500Y-69599500D01*
X139344500Y-79501000D01*
X139347030Y-79533143D01*
X139351883Y-79563793D01*
X139352645Y-79568278D01*
X139353903Y-79572551D01*
X139352193Y-79633713D01*
X139314859Y-79682188D01*
X139258930Y-79699500D01*
X120502773Y-79699500D01*
X120497222Y-79699344D01*
X120203302Y-79682837D01*
X120192270Y-79681594D01*
X119904790Y-79632750D01*
X119893966Y-79630280D01*
X119613752Y-79549551D01*
X119603273Y-79545884D01*
X119333865Y-79434291D01*
X119323863Y-79429474D01*
X119068645Y-79288421D01*
X119059244Y-79282514D01*
X118821424Y-79113771D01*
X118812745Y-79106850D01*
X118711695Y-79016547D01*
X118595302Y-78912532D01*
X118587467Y-78904697D01*
X118469745Y-78772966D01*
X118393149Y-78687254D01*
X118386228Y-78678575D01*
X118217485Y-78440755D01*
X118211578Y-78431354D01*
X118196878Y-78404757D01*
X118070525Y-78176136D01*
X118065708Y-78166134D01*
X117987874Y-77978227D01*
X117954113Y-77896722D01*
X117950448Y-77886247D01*
X117869715Y-77606018D01*
X117867252Y-77595224D01*
X117818404Y-77307724D01*
X117817162Y-77296697D01*
X117800656Y-77002777D01*
X117800500Y-76997226D01*
X117800500Y-76356765D01*
X118449500Y-76356765D01*
X118449500Y-76643234D01*
X118481573Y-76927896D01*
X118545318Y-77207185D01*
X118639930Y-77477569D01*
X118764223Y-77735667D01*
X118867481Y-77900000D01*
X118916634Y-77978227D01*
X119095243Y-78202195D01*
X119297805Y-78404757D01*
X119521773Y-78583366D01*
X119643052Y-78659570D01*
X119764332Y-78735776D01*
X119897795Y-78800048D01*
X120022428Y-78860068D01*
X120022431Y-78860069D01*
X120022430Y-78860069D01*
X120292814Y-78954681D01*
X120292817Y-78954681D01*
X120292818Y-78954682D01*
X120572102Y-79018426D01*
X120856767Y-79050500D01*
X120856768Y-79050500D01*
X121143232Y-79050500D01*
X121143233Y-79050500D01*
X121427898Y-79018426D01*
X121707182Y-78954682D01*
X121977572Y-78860068D01*
X122235669Y-78735775D01*
X122478227Y-78583366D01*
X122702195Y-78404757D01*
X122904757Y-78202195D01*
X123083366Y-77978227D01*
X123235775Y-77735669D01*
X123360068Y-77477572D01*
X123454682Y-77207182D01*
X123518426Y-76927898D01*
X123550500Y-76643233D01*
X123550500Y-76356767D01*
X123518426Y-76072102D01*
X123454682Y-75792818D01*
X123360068Y-75522428D01*
X123235776Y-75264332D01*
X123083365Y-75021772D01*
X122904757Y-74797805D01*
X122702195Y-74595243D01*
X122478227Y-74416634D01*
X122478225Y-74416633D01*
X122235667Y-74264223D01*
X121977568Y-74139930D01*
X121977569Y-74139930D01*
X121707185Y-74045318D01*
X121427896Y-73981573D01*
X121143234Y-73949500D01*
X121143233Y-73949500D01*
X120856767Y-73949500D01*
X120856765Y-73949500D01*
X120572103Y-73981573D01*
X120292814Y-74045318D01*
X120022430Y-74139930D01*
X119764332Y-74264223D01*
X119521772Y-74416634D01*
X119297806Y-74595242D01*
X119095242Y-74797806D01*
X118916634Y-75021772D01*
X118764223Y-75264332D01*
X118639930Y-75522430D01*
X118545318Y-75792814D01*
X118481573Y-76072103D01*
X118449500Y-76356765D01*
X117800500Y-76356765D01*
X117800500Y-53356765D01*
X118449500Y-53356765D01*
X118449500Y-53643234D01*
X118481573Y-53927896D01*
X118545318Y-54207185D01*
X118639930Y-54477569D01*
X118764223Y-54735667D01*
X118916634Y-54978227D01*
X119095243Y-55202195D01*
X119297805Y-55404757D01*
X119521773Y-55583366D01*
X119643052Y-55659570D01*
X119764332Y-55735776D01*
X119833730Y-55769196D01*
X120022428Y-55860068D01*
X120022431Y-55860069D01*
X120022430Y-55860069D01*
X120292814Y-55954681D01*
X120292817Y-55954681D01*
X120292818Y-55954682D01*
X120572102Y-56018426D01*
X120856767Y-56050500D01*
X120856768Y-56050500D01*
X121143232Y-56050500D01*
X121143233Y-56050500D01*
X121427898Y-56018426D01*
X121707182Y-55954682D01*
X121977572Y-55860068D01*
X122235669Y-55735775D01*
X122478227Y-55583366D01*
X122702195Y-55404757D01*
X122904757Y-55202195D01*
X123083366Y-54978227D01*
X123235775Y-54735669D01*
X123360068Y-54477572D01*
X123369892Y-54449497D01*
X123407056Y-54343290D01*
X123444121Y-54294610D01*
X123502722Y-54277013D01*
X123560473Y-54297221D01*
X123595317Y-54347516D01*
X123599500Y-54375988D01*
X123599500Y-56868835D01*
X123580593Y-56927026D01*
X123570504Y-56938839D01*
X122955883Y-57553460D01*
X122879223Y-57668191D01*
X122826420Y-57795670D01*
X122826420Y-57795672D01*
X122800344Y-57926767D01*
X122800341Y-57926779D01*
X122799500Y-57931004D01*
X122799500Y-62068995D01*
X122826420Y-62204327D01*
X122826420Y-62204329D01*
X122879222Y-62331806D01*
X122879228Y-62331817D01*
X122955885Y-62446541D01*
X123053458Y-62544114D01*
X123168182Y-62620771D01*
X123168193Y-62620777D01*
X123192401Y-62630804D01*
X123295672Y-62673580D01*
X123431007Y-62700500D01*
X123431008Y-62700500D01*
X123568992Y-62700500D01*
X123568993Y-62700500D01*
X123704328Y-62673580D01*
X123831811Y-62620775D01*
X123946542Y-62544114D01*
X124044114Y-62446542D01*
X124120775Y-62331811D01*
X124173580Y-62204328D01*
X124200500Y-62068993D01*
X124200500Y-58931007D01*
X124200500Y-58331164D01*
X124219407Y-58272973D01*
X124229490Y-58261166D01*
X124844114Y-57646543D01*
X124920775Y-57531811D01*
X124973580Y-57404328D01*
X125000500Y-57268994D01*
X125000500Y-57131006D01*
X125000500Y-56199999D01*
X126669196Y-56199999D01*
X126669196Y-56200000D01*
X126690281Y-56333127D01*
X126690282Y-56333129D01*
X126751470Y-56453217D01*
X126751472Y-56453220D01*
X126846780Y-56548528D01*
X126966874Y-56609719D01*
X127074945Y-56626835D01*
X127099999Y-56630804D01*
X127099999Y-56630803D01*
X127100000Y-56630804D01*
X127233126Y-56609719D01*
X127328173Y-56561289D01*
X127373118Y-56550500D01*
X130263810Y-56550500D01*
X130322001Y-56569407D01*
X130333814Y-56579496D01*
X134584788Y-60830470D01*
X134584790Y-60830471D01*
X134656623Y-60871945D01*
X134656632Y-60871948D01*
X134656634Y-60871950D01*
X134664712Y-60876614D01*
X134753856Y-60900500D01*
X140563810Y-60900500D01*
X140622001Y-60919407D01*
X140633814Y-60929496D01*
X140898878Y-61194560D01*
X140926655Y-61249077D01*
X140926866Y-61250475D01*
X140939067Y-61335338D01*
X140940551Y-61338586D01*
X140949500Y-61379718D01*
X140949500Y-61859311D01*
X140965756Y-61919976D01*
X140965756Y-61919978D01*
X140965757Y-61919978D01*
X140965757Y-61919979D01*
X140980201Y-61973887D01*
X140980202Y-61973889D01*
X140980203Y-61973892D01*
X141039507Y-62076609D01*
X141039508Y-62076610D01*
X141039509Y-62076611D01*
X141039511Y-62076614D01*
X141623386Y-62660490D01*
X141726113Y-62719799D01*
X141750320Y-62726284D01*
X141750325Y-62726287D01*
X141750326Y-62726286D01*
X141840688Y-62750499D01*
X141840690Y-62750500D01*
X141840691Y-62750500D01*
X144372389Y-62750500D01*
X144430580Y-62769407D01*
X144442393Y-62779496D01*
X144860761Y-63197864D01*
X144880808Y-63226738D01*
X144895870Y-63259718D01*
X144985411Y-63363055D01*
X145100439Y-63436978D01*
X145231633Y-63475500D01*
X145231634Y-63475500D01*
X145368366Y-63475500D01*
X145368367Y-63475500D01*
X145499561Y-63436978D01*
X145614589Y-63363055D01*
X145704130Y-63259718D01*
X145760931Y-63135342D01*
X145770775Y-63066874D01*
X145780390Y-63000002D01*
X145780390Y-62999997D01*
X145760932Y-62864662D01*
X145760930Y-62864654D01*
X145704131Y-62740284D01*
X145704130Y-62740283D01*
X145704130Y-62740282D01*
X145614589Y-62636945D01*
X145614588Y-62636944D01*
X145614587Y-62636943D01*
X145510096Y-62569792D01*
X145493615Y-62556512D01*
X145268909Y-62331806D01*
X144876614Y-61939511D01*
X144876611Y-61939509D01*
X144876610Y-61939508D01*
X144876609Y-61939507D01*
X144773890Y-61880202D01*
X144773886Y-61880200D01*
X144749673Y-61873712D01*
X144749673Y-61873713D01*
X144659309Y-61849500D01*
X144659307Y-61849500D01*
X142127612Y-61849500D01*
X142069421Y-61830593D01*
X142057608Y-61820504D01*
X141879496Y-61642392D01*
X141851719Y-61587875D01*
X141850500Y-61572388D01*
X141850500Y-61379718D01*
X141859449Y-61338586D01*
X141860931Y-61335342D01*
X141861584Y-61330804D01*
X141880390Y-61200002D01*
X141880390Y-61199997D01*
X141860932Y-61064662D01*
X141860930Y-61064654D01*
X141804131Y-60940284D01*
X141804130Y-60940283D01*
X141804130Y-60940282D01*
X141714589Y-60836945D01*
X141599561Y-60763022D01*
X141599558Y-60763021D01*
X141468368Y-60724500D01*
X141468367Y-60724500D01*
X141461190Y-60724500D01*
X141402999Y-60705593D01*
X141391187Y-60695504D01*
X140965214Y-60269532D01*
X140965212Y-60269530D01*
X140885288Y-60223386D01*
X140798006Y-60199999D01*
X145269196Y-60199999D01*
X145269196Y-60200000D01*
X145290281Y-60333127D01*
X145290282Y-60333129D01*
X145351470Y-60453217D01*
X145351472Y-60453220D01*
X145446780Y-60548528D01*
X145566874Y-60609719D01*
X145700000Y-60630804D01*
X145833126Y-60609719D01*
X145882060Y-60584785D01*
X145942489Y-60575214D01*
X145997006Y-60602990D01*
X146024785Y-60657506D01*
X146015214Y-60717938D01*
X146015214Y-60717940D01*
X145990281Y-60766874D01*
X145969196Y-60899999D01*
X145969196Y-60900000D01*
X145990281Y-61033127D01*
X145990282Y-61033129D01*
X146051470Y-61153217D01*
X146051472Y-61153220D01*
X146146780Y-61248528D01*
X146266874Y-61309719D01*
X146400000Y-61330804D01*
X146533126Y-61309719D01*
X146653220Y-61248528D01*
X146672253Y-61229494D01*
X146726768Y-61201719D01*
X146742255Y-61200500D01*
X146834521Y-61200500D01*
X146892712Y-61219407D01*
X146904525Y-61229496D01*
X149584540Y-63909511D01*
X149584539Y-63909511D01*
X149640489Y-63965460D01*
X149709007Y-64005019D01*
X149709011Y-64005021D01*
X149785435Y-64025499D01*
X149785437Y-64025500D01*
X149785438Y-64025500D01*
X149864562Y-64025500D01*
X157782741Y-64025500D01*
X157840932Y-64044407D01*
X157852744Y-64054496D01*
X157878842Y-64080593D01*
X157896777Y-64098528D01*
X158016871Y-64159719D01*
X158149997Y-64180804D01*
X158283123Y-64159719D01*
X158403217Y-64098528D01*
X158498525Y-64003220D01*
X158559716Y-63883126D01*
X158580801Y-63750000D01*
X158578341Y-63734468D01*
X158587912Y-63674037D01*
X158631176Y-63630772D01*
X158660632Y-63621200D01*
X158733126Y-63609719D01*
X158853220Y-63548528D01*
X158948528Y-63453220D01*
X159009719Y-63333126D01*
X159030804Y-63200000D01*
X159009719Y-63066874D01*
X158948528Y-62946780D01*
X158853220Y-62851472D01*
X158853217Y-62851470D01*
X158733129Y-62790282D01*
X158733127Y-62790281D01*
X158600000Y-62769196D01*
X158466872Y-62790281D01*
X158466870Y-62790282D01*
X158346782Y-62851470D01*
X158346780Y-62851471D01*
X158346780Y-62851472D01*
X158327746Y-62870505D01*
X158273232Y-62898281D01*
X158257745Y-62899500D01*
X150165479Y-62899500D01*
X150107288Y-62880593D01*
X150095475Y-62870504D01*
X148724471Y-61499500D01*
X148174970Y-60949999D01*
X160119196Y-60949999D01*
X160119196Y-60950000D01*
X160140281Y-61083127D01*
X160140282Y-61083129D01*
X160199831Y-61200000D01*
X160201472Y-61203220D01*
X160296780Y-61298528D01*
X160416874Y-61359719D01*
X160525159Y-61376869D01*
X160579674Y-61404646D01*
X160579675Y-61404646D01*
X161559540Y-62384511D01*
X161559539Y-62384511D01*
X161615489Y-62440460D01*
X161684007Y-62480019D01*
X161684011Y-62480021D01*
X161760435Y-62500499D01*
X161760437Y-62500500D01*
X161760438Y-62500500D01*
X180457745Y-62500500D01*
X180515936Y-62519407D01*
X180527742Y-62529490D01*
X180546780Y-62548528D01*
X180666874Y-62609719D01*
X180800000Y-62630804D01*
X180933126Y-62609719D01*
X181053220Y-62548528D01*
X181148528Y-62453220D01*
X181209719Y-62333126D01*
X181230804Y-62200000D01*
X181209719Y-62066874D01*
X181148528Y-61946780D01*
X181053220Y-61851472D01*
X181053217Y-61851470D01*
X180933129Y-61790282D01*
X180933127Y-61790281D01*
X180800000Y-61769196D01*
X180666872Y-61790281D01*
X180666870Y-61790282D01*
X180546782Y-61851470D01*
X180546780Y-61851471D01*
X180546780Y-61851472D01*
X180527746Y-61870505D01*
X180473232Y-61898281D01*
X180457745Y-61899500D01*
X161965479Y-61899500D01*
X161907288Y-61880593D01*
X161895475Y-61870504D01*
X161004646Y-60979675D01*
X160976869Y-60925158D01*
X160959719Y-60816874D01*
X160898528Y-60696780D01*
X160803220Y-60601472D01*
X160803217Y-60601470D01*
X160683129Y-60540282D01*
X160683127Y-60540281D01*
X160550000Y-60519196D01*
X160416872Y-60540281D01*
X160416870Y-60540282D01*
X160296782Y-60601470D01*
X160201470Y-60696782D01*
X160140282Y-60816870D01*
X160140281Y-60816872D01*
X160119196Y-60949999D01*
X148174970Y-60949999D01*
X147255975Y-60031004D01*
X148399500Y-60031004D01*
X148399500Y-60168995D01*
X148426420Y-60304327D01*
X148426420Y-60304329D01*
X148479222Y-60431806D01*
X148479228Y-60431817D01*
X148555885Y-60546541D01*
X148653458Y-60644114D01*
X148768182Y-60720771D01*
X148768193Y-60720777D01*
X148815283Y-60740282D01*
X148895672Y-60773580D01*
X149031007Y-60800500D01*
X149031008Y-60800500D01*
X153068993Y-60800500D01*
X153068994Y-60800500D01*
X153204328Y-60773580D01*
X153331811Y-60720775D01*
X153446543Y-60644114D01*
X153986161Y-60104496D01*
X154040678Y-60076719D01*
X154056165Y-60075500D01*
X158568992Y-60075500D01*
X158568993Y-60075500D01*
X158704328Y-60048580D01*
X158831811Y-59995775D01*
X158946542Y-59919114D01*
X159044114Y-59821542D01*
X159120775Y-59706811D01*
X159173580Y-59579328D01*
X159200500Y-59443993D01*
X159200500Y-59306007D01*
X159173580Y-59170672D01*
X159127622Y-59059718D01*
X159120777Y-59043193D01*
X159120771Y-59043182D01*
X159044114Y-58928458D01*
X158946541Y-58830885D01*
X158831817Y-58754228D01*
X158831806Y-58754222D01*
X158704328Y-58701420D01*
X158568995Y-58674500D01*
X158568993Y-58674500D01*
X157468993Y-58674500D01*
X156368993Y-58674500D01*
X153793994Y-58674500D01*
X153656006Y-58674500D01*
X153656003Y-58674500D01*
X153520672Y-58701420D01*
X153520670Y-58701420D01*
X153393191Y-58754223D01*
X153278460Y-58830883D01*
X152738839Y-59370504D01*
X152684322Y-59398281D01*
X152668835Y-59399500D01*
X149031004Y-59399500D01*
X148895672Y-59426420D01*
X148895670Y-59426420D01*
X148768193Y-59479222D01*
X148768182Y-59479228D01*
X148653458Y-59555885D01*
X148555885Y-59653458D01*
X148479228Y-59768182D01*
X148479222Y-59768193D01*
X148426420Y-59895670D01*
X148426420Y-59895672D01*
X148399500Y-60031004D01*
X147255975Y-60031004D01*
X147184511Y-59959540D01*
X147184508Y-59959538D01*
X147115992Y-59919980D01*
X147115988Y-59919978D01*
X147039564Y-59899500D01*
X147039562Y-59899500D01*
X146042255Y-59899500D01*
X145984064Y-59880593D01*
X145972257Y-59870509D01*
X145953220Y-59851472D01*
X145953217Y-59851470D01*
X145833129Y-59790282D01*
X145833127Y-59790281D01*
X145700000Y-59769196D01*
X145566872Y-59790281D01*
X145566870Y-59790282D01*
X145446782Y-59851470D01*
X145351470Y-59946782D01*
X145290282Y-60066870D01*
X145290281Y-60066872D01*
X145269196Y-60199999D01*
X140798006Y-60199999D01*
X140796144Y-60199500D01*
X140796142Y-60199500D01*
X134986190Y-60199500D01*
X134927999Y-60180593D01*
X134916186Y-60170504D01*
X134120681Y-59374999D01*
X138719196Y-59374999D01*
X138719196Y-59375000D01*
X138740281Y-59508127D01*
X138740282Y-59508129D01*
X138801470Y-59628217D01*
X138801472Y-59628220D01*
X138896780Y-59723528D01*
X139016874Y-59784719D01*
X139150000Y-59805804D01*
X139283126Y-59784719D01*
X139403220Y-59723528D01*
X139403226Y-59723521D01*
X139408893Y-59719406D01*
X139467082Y-59700500D01*
X140367851Y-59700500D01*
X140367853Y-59700500D01*
X140450639Y-59678318D01*
X140450641Y-59678316D01*
X140450643Y-59678316D01*
X140524857Y-59635468D01*
X140524857Y-59635467D01*
X140524862Y-59635465D01*
X141335330Y-58824997D01*
X143319610Y-58824997D01*
X143319610Y-58825002D01*
X143339067Y-58960337D01*
X143339069Y-58960345D01*
X143395868Y-59084715D01*
X143395869Y-59084716D01*
X143395870Y-59084718D01*
X143485411Y-59188055D01*
X143600439Y-59261978D01*
X143731633Y-59300500D01*
X143731634Y-59300500D01*
X143868366Y-59300500D01*
X143868367Y-59300500D01*
X143999561Y-59261978D01*
X144109672Y-59191214D01*
X144163194Y-59175500D01*
X145375708Y-59175500D01*
X145429227Y-59191214D01*
X145500439Y-59236978D01*
X145631633Y-59275500D01*
X145631634Y-59275500D01*
X145768366Y-59275500D01*
X145768367Y-59275500D01*
X145899561Y-59236978D01*
X146014589Y-59163055D01*
X146104130Y-59059718D01*
X146147258Y-58965281D01*
X146160930Y-58935345D01*
X146160932Y-58935337D01*
X146180390Y-58800002D01*
X146180390Y-58799997D01*
X146160932Y-58664662D01*
X146160930Y-58664654D01*
X146104131Y-58540284D01*
X146104130Y-58540283D01*
X146104130Y-58540282D01*
X146014589Y-58436945D01*
X145899561Y-58363022D01*
X145899558Y-58363021D01*
X145768368Y-58324500D01*
X145768367Y-58324500D01*
X145631633Y-58324500D01*
X145631631Y-58324500D01*
X145500441Y-58363021D01*
X145385409Y-58436946D01*
X145382475Y-58440333D01*
X145330078Y-58471928D01*
X145307657Y-58474500D01*
X144163194Y-58474500D01*
X144109672Y-58458785D01*
X143999561Y-58388022D01*
X143971754Y-58379857D01*
X143868368Y-58349500D01*
X143868367Y-58349500D01*
X143731633Y-58349500D01*
X143731631Y-58349500D01*
X143600441Y-58388021D01*
X143600439Y-58388021D01*
X143600439Y-58388022D01*
X143485411Y-58461945D01*
X143485410Y-58461945D01*
X143485410Y-58461946D01*
X143395868Y-58565284D01*
X143339069Y-58689654D01*
X143339067Y-58689662D01*
X143319610Y-58824997D01*
X141335330Y-58824997D01*
X142155831Y-58004496D01*
X142210348Y-57976719D01*
X142225835Y-57975500D01*
X146628761Y-57975500D01*
X146686952Y-57994407D01*
X146698765Y-58004496D01*
X146833239Y-58138970D01*
X146861016Y-58193486D01*
X146871514Y-58259764D01*
X146871515Y-58259766D01*
X146924127Y-58363022D01*
X146932705Y-58379857D01*
X147028013Y-58475165D01*
X147148107Y-58536356D01*
X147281233Y-58557441D01*
X147414359Y-58536356D01*
X147534453Y-58475165D01*
X147629761Y-58379857D01*
X147690952Y-58259763D01*
X147712037Y-58126637D01*
X147690952Y-57993511D01*
X147629761Y-57873417D01*
X147534453Y-57778109D01*
X147534450Y-57778107D01*
X147414362Y-57716919D01*
X147414360Y-57716918D01*
X147348082Y-57706420D01*
X147293567Y-57678643D01*
X147004458Y-57389535D01*
X147004453Y-57389531D01*
X146930238Y-57346683D01*
X146930240Y-57346683D01*
X146898117Y-57338076D01*
X146847449Y-57324500D01*
X142007147Y-57324500D01*
X141924362Y-57346682D01*
X141924361Y-57346682D01*
X141924359Y-57346683D01*
X141867998Y-57379224D01*
X141867994Y-57379226D01*
X141850141Y-57389532D01*
X140219169Y-59020504D01*
X140164652Y-59048281D01*
X140149165Y-59049500D01*
X139467082Y-59049500D01*
X139408893Y-59030594D01*
X139403223Y-59026475D01*
X139403220Y-59026472D01*
X139391507Y-59020504D01*
X139283129Y-58965282D01*
X139283127Y-58965281D01*
X139150000Y-58944196D01*
X139016872Y-58965281D01*
X139016870Y-58965282D01*
X138896782Y-59026470D01*
X138801470Y-59121782D01*
X138740282Y-59241870D01*
X138740281Y-59241872D01*
X138719196Y-59374999D01*
X134120681Y-59374999D01*
X132872318Y-58126636D01*
X130665212Y-55919530D01*
X130585288Y-55873386D01*
X130585285Y-55873385D01*
X130565892Y-55868188D01*
X130565892Y-55868189D01*
X130496144Y-55849500D01*
X130496142Y-55849500D01*
X127373118Y-55849500D01*
X127328173Y-55838710D01*
X127233126Y-55790281D01*
X127100000Y-55769196D01*
X126966872Y-55790281D01*
X126966870Y-55790282D01*
X126846782Y-55851470D01*
X126751470Y-55946782D01*
X126690282Y-56066870D01*
X126690281Y-56066872D01*
X126669196Y-56199999D01*
X125000500Y-56199999D01*
X125000500Y-56131007D01*
X125000500Y-55090502D01*
X125019407Y-55032311D01*
X125068907Y-54996347D01*
X125130093Y-54996347D01*
X125179593Y-55032311D01*
X125190964Y-55052617D01*
X125218206Y-55118387D01*
X125218206Y-55118388D01*
X125274205Y-55202195D01*
X125298700Y-55238854D01*
X125401146Y-55341300D01*
X125521610Y-55421792D01*
X125655462Y-55477235D01*
X125797560Y-55505500D01*
X125797561Y-55505500D01*
X125942439Y-55505500D01*
X125942440Y-55505500D01*
X126084538Y-55477235D01*
X126218390Y-55421792D01*
X126338854Y-55341300D01*
X126441300Y-55238854D01*
X126521792Y-55118390D01*
X126577235Y-54984538D01*
X126605500Y-54842440D01*
X126605500Y-54697560D01*
X126601868Y-54679301D01*
X126609059Y-54618541D01*
X126650592Y-54573610D01*
X126710601Y-54561673D01*
X126729554Y-54565831D01*
X126872932Y-54612417D01*
X126872933Y-54612417D01*
X126872936Y-54612418D01*
X127050238Y-54640500D01*
X127050241Y-54640500D01*
X127229762Y-54640500D01*
X127407063Y-54612418D01*
X127407064Y-54612417D01*
X127407068Y-54612417D01*
X127550442Y-54565832D01*
X127611625Y-54565832D01*
X127661126Y-54601796D01*
X127680033Y-54659987D01*
X127678131Y-54679298D01*
X127674501Y-54697549D01*
X127674500Y-54697561D01*
X127674500Y-54842442D01*
X127702765Y-54984537D01*
X127702765Y-54984539D01*
X127758206Y-55118387D01*
X127758206Y-55118388D01*
X127814205Y-55202195D01*
X127838700Y-55238854D01*
X127941146Y-55341300D01*
X128061610Y-55421792D01*
X128195462Y-55477235D01*
X128337560Y-55505500D01*
X128337561Y-55505500D01*
X128482439Y-55505500D01*
X128482440Y-55505500D01*
X128624538Y-55477235D01*
X128758390Y-55421792D01*
X128878854Y-55341300D01*
X128981300Y-55238854D01*
X129061792Y-55118390D01*
X129117235Y-54984538D01*
X129145500Y-54842440D01*
X129145500Y-54697560D01*
X129145499Y-54697557D01*
X130214500Y-54697557D01*
X130214500Y-54842442D01*
X130242765Y-54984537D01*
X130242765Y-54984539D01*
X130298206Y-55118387D01*
X130298206Y-55118388D01*
X130354205Y-55202195D01*
X130378700Y-55238854D01*
X130481146Y-55341300D01*
X130601610Y-55421792D01*
X130735462Y-55477235D01*
X130877560Y-55505500D01*
X130877561Y-55505500D01*
X131022439Y-55505500D01*
X131022440Y-55505500D01*
X131164538Y-55477235D01*
X131298390Y-55421792D01*
X131418854Y-55341300D01*
X131521300Y-55238854D01*
X131601792Y-55118390D01*
X131657235Y-54984538D01*
X131685500Y-54842440D01*
X131685500Y-54697560D01*
X131685499Y-54697557D01*
X132754500Y-54697557D01*
X132754500Y-54842442D01*
X132782765Y-54984537D01*
X132782765Y-54984539D01*
X132838206Y-55118387D01*
X132838206Y-55118388D01*
X132894205Y-55202195D01*
X132918700Y-55238854D01*
X133021146Y-55341300D01*
X133141610Y-55421792D01*
X133275462Y-55477235D01*
X133417560Y-55505500D01*
X133417561Y-55505500D01*
X133562439Y-55505500D01*
X133562440Y-55505500D01*
X133704538Y-55477235D01*
X133838390Y-55421792D01*
X133958854Y-55341300D01*
X134061300Y-55238854D01*
X134141792Y-55118390D01*
X134197235Y-54984538D01*
X134225500Y-54842440D01*
X134225500Y-54697560D01*
X134225499Y-54697557D01*
X135294500Y-54697557D01*
X135294500Y-54842442D01*
X135322765Y-54984537D01*
X135322765Y-54984539D01*
X135378206Y-55118387D01*
X135378206Y-55118388D01*
X135434205Y-55202195D01*
X135458700Y-55238854D01*
X135561146Y-55341300D01*
X135681610Y-55421792D01*
X135815462Y-55477235D01*
X135957560Y-55505500D01*
X135957561Y-55505500D01*
X136102439Y-55505500D01*
X136102440Y-55505500D01*
X136244538Y-55477235D01*
X136378390Y-55421792D01*
X136498854Y-55341300D01*
X136601300Y-55238854D01*
X136681792Y-55118390D01*
X136737235Y-54984538D01*
X136765500Y-54842440D01*
X136765500Y-54697560D01*
X136765499Y-54697557D01*
X137834500Y-54697557D01*
X137834500Y-54842442D01*
X137862765Y-54984537D01*
X137862765Y-54984539D01*
X137918206Y-55118387D01*
X137918206Y-55118388D01*
X137974205Y-55202195D01*
X137998700Y-55238854D01*
X138101146Y-55341300D01*
X138221610Y-55421792D01*
X138355462Y-55477235D01*
X138497560Y-55505500D01*
X138497561Y-55505500D01*
X138642439Y-55505500D01*
X138642440Y-55505500D01*
X138784538Y-55477235D01*
X138918390Y-55421792D01*
X139038854Y-55341300D01*
X139141300Y-55238854D01*
X139221792Y-55118390D01*
X139277235Y-54984538D01*
X139305500Y-54842440D01*
X139305500Y-54697560D01*
X139305499Y-54697557D01*
X140374500Y-54697557D01*
X140374500Y-54842442D01*
X140402765Y-54984537D01*
X140402765Y-54984539D01*
X140458206Y-55118387D01*
X140458206Y-55118388D01*
X140514205Y-55202195D01*
X140538700Y-55238854D01*
X140641146Y-55341300D01*
X140761610Y-55421792D01*
X140895462Y-55477235D01*
X141037560Y-55505500D01*
X141037561Y-55505500D01*
X141182439Y-55505500D01*
X141182440Y-55505500D01*
X141324538Y-55477235D01*
X141458390Y-55421792D01*
X141578854Y-55341300D01*
X141681300Y-55238854D01*
X141761792Y-55118390D01*
X141817235Y-54984538D01*
X141845500Y-54842440D01*
X141845500Y-54697560D01*
X141845499Y-54697557D01*
X142914500Y-54697557D01*
X142914500Y-54842442D01*
X142942765Y-54984537D01*
X142942765Y-54984539D01*
X142998206Y-55118387D01*
X142998206Y-55118388D01*
X143054205Y-55202195D01*
X143078700Y-55238854D01*
X143181146Y-55341300D01*
X143301610Y-55421792D01*
X143435462Y-55477235D01*
X143577560Y-55505500D01*
X143577561Y-55505500D01*
X143722439Y-55505500D01*
X143722440Y-55505500D01*
X143864538Y-55477235D01*
X143998390Y-55421792D01*
X144118854Y-55341300D01*
X144221300Y-55238854D01*
X144301792Y-55118390D01*
X144357235Y-54984538D01*
X144385500Y-54842440D01*
X144385500Y-54697560D01*
X144385499Y-54697557D01*
X145454500Y-54697557D01*
X145454500Y-54842442D01*
X145482765Y-54984537D01*
X145482765Y-54984539D01*
X145538206Y-55118387D01*
X145538206Y-55118388D01*
X145594205Y-55202195D01*
X145618700Y-55238854D01*
X145721146Y-55341300D01*
X145841610Y-55421792D01*
X145975462Y-55477235D01*
X146117560Y-55505500D01*
X146117561Y-55505500D01*
X146262439Y-55505500D01*
X146262440Y-55505500D01*
X146404538Y-55477235D01*
X146538390Y-55421792D01*
X146658854Y-55341300D01*
X146761300Y-55238854D01*
X146841792Y-55118390D01*
X146897235Y-54984538D01*
X146925500Y-54842440D01*
X146925500Y-54697560D01*
X146925499Y-54697557D01*
X147994500Y-54697557D01*
X147994500Y-54842442D01*
X148022765Y-54984537D01*
X148022765Y-54984539D01*
X148078206Y-55118387D01*
X148078206Y-55118388D01*
X148134205Y-55202195D01*
X148158700Y-55238854D01*
X148261146Y-55341300D01*
X148381610Y-55421792D01*
X148515462Y-55477235D01*
X148657560Y-55505500D01*
X148657561Y-55505500D01*
X148802439Y-55505500D01*
X148802440Y-55505500D01*
X148944538Y-55477235D01*
X149078390Y-55421792D01*
X149198854Y-55341300D01*
X149301300Y-55238854D01*
X149381792Y-55118390D01*
X149437235Y-54984538D01*
X149465500Y-54842440D01*
X149465500Y-54697560D01*
X149465499Y-54697557D01*
X150534500Y-54697557D01*
X150534500Y-54842442D01*
X150562765Y-54984537D01*
X150562765Y-54984539D01*
X150618206Y-55118387D01*
X150618206Y-55118388D01*
X150674205Y-55202195D01*
X150698700Y-55238854D01*
X150801146Y-55341300D01*
X150921610Y-55421792D01*
X151055462Y-55477235D01*
X151197560Y-55505500D01*
X151197561Y-55505500D01*
X151342439Y-55505500D01*
X151342440Y-55505500D01*
X151484538Y-55477235D01*
X151618390Y-55421792D01*
X151738854Y-55341300D01*
X151841300Y-55238854D01*
X151921792Y-55118390D01*
X151977235Y-54984538D01*
X152005500Y-54842440D01*
X152005500Y-54697560D01*
X152005499Y-54697557D01*
X153074500Y-54697557D01*
X153074500Y-54842442D01*
X153102765Y-54984537D01*
X153102765Y-54984539D01*
X153158206Y-55118387D01*
X153158206Y-55118388D01*
X153214205Y-55202195D01*
X153238700Y-55238854D01*
X153341146Y-55341300D01*
X153461610Y-55421792D01*
X153595462Y-55477235D01*
X153737560Y-55505500D01*
X153737561Y-55505500D01*
X153882439Y-55505500D01*
X153882440Y-55505500D01*
X154024538Y-55477235D01*
X154158390Y-55421792D01*
X154278854Y-55341300D01*
X154381300Y-55238854D01*
X154461792Y-55118390D01*
X154517235Y-54984538D01*
X154545500Y-54842440D01*
X154545500Y-54697560D01*
X154545499Y-54697557D01*
X155614500Y-54697557D01*
X155614500Y-54842442D01*
X155642765Y-54984537D01*
X155642765Y-54984539D01*
X155698206Y-55118387D01*
X155698206Y-55118388D01*
X155754205Y-55202195D01*
X155778700Y-55238854D01*
X155881146Y-55341300D01*
X156001610Y-55421792D01*
X156135462Y-55477235D01*
X156277560Y-55505500D01*
X156277561Y-55505500D01*
X156422439Y-55505500D01*
X156422440Y-55505500D01*
X156564538Y-55477235D01*
X156698390Y-55421792D01*
X156818854Y-55341300D01*
X156921300Y-55238854D01*
X157001792Y-55118390D01*
X157057235Y-54984538D01*
X157085500Y-54842440D01*
X157085500Y-54697560D01*
X157085499Y-54697557D01*
X158154500Y-54697557D01*
X158154500Y-54842442D01*
X158182765Y-54984537D01*
X158182765Y-54984539D01*
X158238206Y-55118387D01*
X158238206Y-55118388D01*
X158294205Y-55202195D01*
X158318700Y-55238854D01*
X158421146Y-55341300D01*
X158541610Y-55421792D01*
X158675462Y-55477235D01*
X158817560Y-55505500D01*
X158817561Y-55505500D01*
X158962439Y-55505500D01*
X158962440Y-55505500D01*
X159104538Y-55477235D01*
X159238390Y-55421792D01*
X159358854Y-55341300D01*
X159461300Y-55238854D01*
X159541792Y-55118390D01*
X159597235Y-54984538D01*
X159625500Y-54842440D01*
X159625500Y-54697560D01*
X159625499Y-54697557D01*
X160694500Y-54697557D01*
X160694500Y-54842442D01*
X160722765Y-54984537D01*
X160722765Y-54984539D01*
X160778206Y-55118387D01*
X160778206Y-55118388D01*
X160834205Y-55202195D01*
X160858700Y-55238854D01*
X160961146Y-55341300D01*
X161081610Y-55421792D01*
X161215462Y-55477235D01*
X161357560Y-55505500D01*
X161357561Y-55505500D01*
X161502439Y-55505500D01*
X161502440Y-55505500D01*
X161644538Y-55477235D01*
X161778390Y-55421792D01*
X161898854Y-55341300D01*
X162001300Y-55238854D01*
X162081792Y-55118390D01*
X162137235Y-54984538D01*
X162165500Y-54842440D01*
X162165500Y-54697560D01*
X162165499Y-54697557D01*
X163234500Y-54697557D01*
X163234500Y-54842442D01*
X163262765Y-54984537D01*
X163262765Y-54984539D01*
X163318206Y-55118387D01*
X163318206Y-55118388D01*
X163374205Y-55202195D01*
X163398700Y-55238854D01*
X163501146Y-55341300D01*
X163621610Y-55421792D01*
X163755462Y-55477235D01*
X163897560Y-55505500D01*
X163897561Y-55505500D01*
X164042439Y-55505500D01*
X164042440Y-55505500D01*
X164184538Y-55477235D01*
X164318390Y-55421792D01*
X164438854Y-55341300D01*
X164541300Y-55238854D01*
X164621792Y-55118390D01*
X164677235Y-54984538D01*
X164705500Y-54842440D01*
X164705500Y-54697560D01*
X164705499Y-54697557D01*
X165774500Y-54697557D01*
X165774500Y-54842442D01*
X165802765Y-54984537D01*
X165802765Y-54984539D01*
X165858206Y-55118387D01*
X165858206Y-55118388D01*
X165914205Y-55202195D01*
X165938700Y-55238854D01*
X166041146Y-55341300D01*
X166161610Y-55421792D01*
X166295462Y-55477235D01*
X166437560Y-55505500D01*
X166437561Y-55505500D01*
X166582439Y-55505500D01*
X166582440Y-55505500D01*
X166724538Y-55477235D01*
X166858390Y-55421792D01*
X166978854Y-55341300D01*
X167081300Y-55238854D01*
X167161792Y-55118390D01*
X167217235Y-54984538D01*
X167245500Y-54842440D01*
X167245500Y-54697560D01*
X167245499Y-54697557D01*
X168314500Y-54697557D01*
X168314500Y-54842442D01*
X168342765Y-54984537D01*
X168342765Y-54984539D01*
X168398206Y-55118387D01*
X168398206Y-55118388D01*
X168454205Y-55202195D01*
X168478700Y-55238854D01*
X168581146Y-55341300D01*
X168701610Y-55421792D01*
X168835462Y-55477235D01*
X168977560Y-55505500D01*
X168977561Y-55505500D01*
X169122439Y-55505500D01*
X169122440Y-55505500D01*
X169264538Y-55477235D01*
X169398390Y-55421792D01*
X169518854Y-55341300D01*
X169621300Y-55238854D01*
X169701792Y-55118390D01*
X169757235Y-54984538D01*
X169785500Y-54842440D01*
X169785500Y-54697560D01*
X169757235Y-54555462D01*
X169701793Y-54421612D01*
X169701793Y-54421611D01*
X169621300Y-54301146D01*
X169518853Y-54198699D01*
X169398387Y-54118206D01*
X169264538Y-54062765D01*
X169122442Y-54034500D01*
X169122440Y-54034500D01*
X168977560Y-54034500D01*
X168977557Y-54034500D01*
X168835462Y-54062765D01*
X168835460Y-54062765D01*
X168701612Y-54118206D01*
X168701611Y-54118206D01*
X168581146Y-54198699D01*
X168478699Y-54301146D01*
X168398206Y-54421611D01*
X168398206Y-54421612D01*
X168342765Y-54555460D01*
X168342765Y-54555462D01*
X168314500Y-54697557D01*
X167245499Y-54697557D01*
X167217235Y-54555462D01*
X167161793Y-54421612D01*
X167161793Y-54421611D01*
X167081300Y-54301146D01*
X166978853Y-54198699D01*
X166858387Y-54118206D01*
X166724538Y-54062765D01*
X166582442Y-54034500D01*
X166582440Y-54034500D01*
X166437560Y-54034500D01*
X166437557Y-54034500D01*
X166295462Y-54062765D01*
X166295460Y-54062765D01*
X166161612Y-54118206D01*
X166161611Y-54118206D01*
X166041146Y-54198699D01*
X165938699Y-54301146D01*
X165858206Y-54421611D01*
X165858206Y-54421612D01*
X165802765Y-54555460D01*
X165802765Y-54555462D01*
X165774500Y-54697557D01*
X164705499Y-54697557D01*
X164677235Y-54555462D01*
X164621793Y-54421612D01*
X164621793Y-54421611D01*
X164541300Y-54301146D01*
X164438853Y-54198699D01*
X164318387Y-54118206D01*
X164184538Y-54062765D01*
X164042442Y-54034500D01*
X164042440Y-54034500D01*
X163897560Y-54034500D01*
X163897557Y-54034500D01*
X163755462Y-54062765D01*
X163755460Y-54062765D01*
X163621612Y-54118206D01*
X163621611Y-54118206D01*
X163501146Y-54198699D01*
X163398699Y-54301146D01*
X163318206Y-54421611D01*
X163318206Y-54421612D01*
X163262765Y-54555460D01*
X163262765Y-54555462D01*
X163234500Y-54697557D01*
X162165499Y-54697557D01*
X162137235Y-54555462D01*
X162081793Y-54421612D01*
X162081793Y-54421611D01*
X162001300Y-54301146D01*
X161898853Y-54198699D01*
X161778387Y-54118206D01*
X161644538Y-54062765D01*
X161502442Y-54034500D01*
X161502440Y-54034500D01*
X161357560Y-54034500D01*
X161357557Y-54034500D01*
X161215462Y-54062765D01*
X161215460Y-54062765D01*
X161081612Y-54118206D01*
X161081611Y-54118206D01*
X160961146Y-54198699D01*
X160858699Y-54301146D01*
X160778206Y-54421611D01*
X160778206Y-54421612D01*
X160722765Y-54555460D01*
X160722765Y-54555462D01*
X160694500Y-54697557D01*
X159625499Y-54697557D01*
X159597235Y-54555462D01*
X159541793Y-54421612D01*
X159541793Y-54421611D01*
X159461300Y-54301146D01*
X159358853Y-54198699D01*
X159238387Y-54118206D01*
X159104538Y-54062765D01*
X158962442Y-54034500D01*
X158962440Y-54034500D01*
X158817560Y-54034500D01*
X158817557Y-54034500D01*
X158675462Y-54062765D01*
X158675460Y-54062765D01*
X158541612Y-54118206D01*
X158541611Y-54118206D01*
X158421146Y-54198699D01*
X158318699Y-54301146D01*
X158238206Y-54421611D01*
X158238206Y-54421612D01*
X158182765Y-54555460D01*
X158182765Y-54555462D01*
X158154500Y-54697557D01*
X157085499Y-54697557D01*
X157057235Y-54555462D01*
X157001793Y-54421612D01*
X157001793Y-54421611D01*
X156921300Y-54301146D01*
X156818853Y-54198699D01*
X156698387Y-54118206D01*
X156564538Y-54062765D01*
X156422442Y-54034500D01*
X156422440Y-54034500D01*
X156277560Y-54034500D01*
X156277557Y-54034500D01*
X156135462Y-54062765D01*
X156135460Y-54062765D01*
X156001612Y-54118206D01*
X156001611Y-54118206D01*
X155881146Y-54198699D01*
X155778699Y-54301146D01*
X155698206Y-54421611D01*
X155698206Y-54421612D01*
X155642765Y-54555460D01*
X155642765Y-54555462D01*
X155614500Y-54697557D01*
X154545499Y-54697557D01*
X154517235Y-54555462D01*
X154461793Y-54421612D01*
X154461793Y-54421611D01*
X154381300Y-54301146D01*
X154278853Y-54198699D01*
X154158387Y-54118206D01*
X154024538Y-54062765D01*
X153882442Y-54034500D01*
X153882440Y-54034500D01*
X153737560Y-54034500D01*
X153737557Y-54034500D01*
X153595462Y-54062765D01*
X153595460Y-54062765D01*
X153461612Y-54118206D01*
X153461611Y-54118206D01*
X153341146Y-54198699D01*
X153238699Y-54301146D01*
X153158206Y-54421611D01*
X153158206Y-54421612D01*
X153102765Y-54555460D01*
X153102765Y-54555462D01*
X153074500Y-54697557D01*
X152005499Y-54697557D01*
X151977235Y-54555462D01*
X151921793Y-54421612D01*
X151921793Y-54421611D01*
X151841300Y-54301146D01*
X151738853Y-54198699D01*
X151618387Y-54118206D01*
X151484538Y-54062765D01*
X151342442Y-54034500D01*
X151342440Y-54034500D01*
X151197560Y-54034500D01*
X151197557Y-54034500D01*
X151055462Y-54062765D01*
X151055460Y-54062765D01*
X150921612Y-54118206D01*
X150921611Y-54118206D01*
X150801146Y-54198699D01*
X150698699Y-54301146D01*
X150618206Y-54421611D01*
X150618206Y-54421612D01*
X150562765Y-54555460D01*
X150562765Y-54555462D01*
X150534500Y-54697557D01*
X149465499Y-54697557D01*
X149437235Y-54555462D01*
X149381793Y-54421612D01*
X149381793Y-54421611D01*
X149301300Y-54301146D01*
X149198853Y-54198699D01*
X149078387Y-54118206D01*
X148944538Y-54062765D01*
X148802442Y-54034500D01*
X148802440Y-54034500D01*
X148657560Y-54034500D01*
X148657557Y-54034500D01*
X148515462Y-54062765D01*
X148515460Y-54062765D01*
X148381612Y-54118206D01*
X148381611Y-54118206D01*
X148261146Y-54198699D01*
X148158699Y-54301146D01*
X148078206Y-54421611D01*
X148078206Y-54421612D01*
X148022765Y-54555460D01*
X148022765Y-54555462D01*
X147994500Y-54697557D01*
X146925499Y-54697557D01*
X146897235Y-54555462D01*
X146841793Y-54421612D01*
X146841793Y-54421611D01*
X146761300Y-54301146D01*
X146658853Y-54198699D01*
X146538387Y-54118206D01*
X146404538Y-54062765D01*
X146262442Y-54034500D01*
X146262440Y-54034500D01*
X146117560Y-54034500D01*
X146117557Y-54034500D01*
X145975462Y-54062765D01*
X145975460Y-54062765D01*
X145841612Y-54118206D01*
X145841611Y-54118206D01*
X145721146Y-54198699D01*
X145618699Y-54301146D01*
X145538206Y-54421611D01*
X145538206Y-54421612D01*
X145482765Y-54555460D01*
X145482765Y-54555462D01*
X145454500Y-54697557D01*
X144385499Y-54697557D01*
X144357235Y-54555462D01*
X144301793Y-54421612D01*
X144301793Y-54421611D01*
X144221300Y-54301146D01*
X144118853Y-54198699D01*
X143998387Y-54118206D01*
X143864538Y-54062765D01*
X143722442Y-54034500D01*
X143722440Y-54034500D01*
X143577560Y-54034500D01*
X143577557Y-54034500D01*
X143435462Y-54062765D01*
X143435460Y-54062765D01*
X143301612Y-54118206D01*
X143301611Y-54118206D01*
X143181146Y-54198699D01*
X143078699Y-54301146D01*
X142998206Y-54421611D01*
X142998206Y-54421612D01*
X142942765Y-54555460D01*
X142942765Y-54555462D01*
X142914500Y-54697557D01*
X141845499Y-54697557D01*
X141817235Y-54555462D01*
X141761793Y-54421612D01*
X141761793Y-54421611D01*
X141681300Y-54301146D01*
X141578853Y-54198699D01*
X141458387Y-54118206D01*
X141324538Y-54062765D01*
X141182442Y-54034500D01*
X141182440Y-54034500D01*
X141037560Y-54034500D01*
X141037557Y-54034500D01*
X140895462Y-54062765D01*
X140895460Y-54062765D01*
X140761612Y-54118206D01*
X140761611Y-54118206D01*
X140641146Y-54198699D01*
X140538699Y-54301146D01*
X140458206Y-54421611D01*
X140458206Y-54421612D01*
X140402765Y-54555460D01*
X140402765Y-54555462D01*
X140374500Y-54697557D01*
X139305499Y-54697557D01*
X139277235Y-54555462D01*
X139221793Y-54421612D01*
X139221793Y-54421611D01*
X139141300Y-54301146D01*
X139038853Y-54198699D01*
X138918387Y-54118206D01*
X138784538Y-54062765D01*
X138642442Y-54034500D01*
X138642440Y-54034500D01*
X138497560Y-54034500D01*
X138497557Y-54034500D01*
X138355462Y-54062765D01*
X138355460Y-54062765D01*
X138221612Y-54118206D01*
X138221611Y-54118206D01*
X138101146Y-54198699D01*
X137998699Y-54301146D01*
X137918206Y-54421611D01*
X137918206Y-54421612D01*
X137862765Y-54555460D01*
X137862765Y-54555462D01*
X137834500Y-54697557D01*
X136765499Y-54697557D01*
X136737235Y-54555462D01*
X136681793Y-54421612D01*
X136681793Y-54421611D01*
X136601300Y-54301146D01*
X136498853Y-54198699D01*
X136378387Y-54118206D01*
X136244538Y-54062765D01*
X136102442Y-54034500D01*
X136102440Y-54034500D01*
X135957560Y-54034500D01*
X135957557Y-54034500D01*
X135815462Y-54062765D01*
X135815460Y-54062765D01*
X135681612Y-54118206D01*
X135681611Y-54118206D01*
X135561146Y-54198699D01*
X135458699Y-54301146D01*
X135378206Y-54421611D01*
X135378206Y-54421612D01*
X135322765Y-54555460D01*
X135322765Y-54555462D01*
X135294500Y-54697557D01*
X134225499Y-54697557D01*
X134197235Y-54555462D01*
X134141793Y-54421612D01*
X134141793Y-54421611D01*
X134061300Y-54301146D01*
X133958853Y-54198699D01*
X133838387Y-54118206D01*
X133704538Y-54062765D01*
X133562442Y-54034500D01*
X133562440Y-54034500D01*
X133417560Y-54034500D01*
X133417557Y-54034500D01*
X133275462Y-54062765D01*
X133275460Y-54062765D01*
X133141612Y-54118206D01*
X133141611Y-54118206D01*
X133021146Y-54198699D01*
X132918699Y-54301146D01*
X132838206Y-54421611D01*
X132838206Y-54421612D01*
X132782765Y-54555460D01*
X132782765Y-54555462D01*
X132754500Y-54697557D01*
X131685499Y-54697557D01*
X131657235Y-54555462D01*
X131601793Y-54421612D01*
X131601793Y-54421611D01*
X131521300Y-54301146D01*
X131418853Y-54198699D01*
X131298387Y-54118206D01*
X131164538Y-54062765D01*
X131022442Y-54034500D01*
X131022440Y-54034500D01*
X130877560Y-54034500D01*
X130877557Y-54034500D01*
X130735462Y-54062765D01*
X130735460Y-54062765D01*
X130601612Y-54118206D01*
X130601611Y-54118206D01*
X130481146Y-54198699D01*
X130378699Y-54301146D01*
X130298206Y-54421611D01*
X130298206Y-54421612D01*
X130242765Y-54555460D01*
X130242765Y-54555462D01*
X130214500Y-54697557D01*
X129145499Y-54697557D01*
X129117235Y-54555462D01*
X129061793Y-54421612D01*
X129061793Y-54421611D01*
X128981300Y-54301146D01*
X128878853Y-54198699D01*
X128758387Y-54118206D01*
X128624538Y-54062765D01*
X128482442Y-54034500D01*
X128482440Y-54034500D01*
X128337560Y-54034500D01*
X128337559Y-54034500D01*
X128337549Y-54034501D01*
X128319298Y-54038131D01*
X128258537Y-54030938D01*
X128213608Y-53989404D01*
X128201674Y-53929394D01*
X128205832Y-53910441D01*
X128252417Y-53767068D01*
X128252418Y-53767063D01*
X128280500Y-53589762D01*
X128280500Y-53410237D01*
X128252418Y-53232936D01*
X128205832Y-53089559D01*
X128205832Y-53028373D01*
X128241796Y-52978873D01*
X128299987Y-52959966D01*
X128319299Y-52961867D01*
X128337560Y-52965500D01*
X128337561Y-52965500D01*
X128482439Y-52965500D01*
X128482440Y-52965500D01*
X128624538Y-52937235D01*
X128758390Y-52881792D01*
X128878854Y-52801300D01*
X128981300Y-52698854D01*
X129061792Y-52578390D01*
X129117235Y-52444538D01*
X129145500Y-52302440D01*
X129145500Y-52157560D01*
X129145499Y-52157557D01*
X130214500Y-52157557D01*
X130214500Y-52302442D01*
X130218131Y-52320696D01*
X130242470Y-52443057D01*
X130242765Y-52444537D01*
X130242765Y-52444539D01*
X130298206Y-52578387D01*
X130298206Y-52578388D01*
X130378699Y-52698853D01*
X130378700Y-52698854D01*
X130481146Y-52801300D01*
X130601610Y-52881792D01*
X130735462Y-52937235D01*
X130877560Y-52965500D01*
X130877561Y-52965500D01*
X131022439Y-52965500D01*
X131022440Y-52965500D01*
X131164538Y-52937235D01*
X131298390Y-52881792D01*
X131418854Y-52801300D01*
X131521300Y-52698854D01*
X131601792Y-52578390D01*
X131657235Y-52444538D01*
X131685500Y-52302440D01*
X131685500Y-52157560D01*
X131685499Y-52157557D01*
X132754500Y-52157557D01*
X132754500Y-52302442D01*
X132758131Y-52320696D01*
X132782470Y-52443057D01*
X132782765Y-52444537D01*
X132782765Y-52444539D01*
X132838206Y-52578387D01*
X132838206Y-52578388D01*
X132918699Y-52698853D01*
X132918700Y-52698854D01*
X133021146Y-52801300D01*
X133141610Y-52881792D01*
X133275462Y-52937235D01*
X133417560Y-52965500D01*
X133417561Y-52965500D01*
X133562439Y-52965500D01*
X133562440Y-52965500D01*
X133704538Y-52937235D01*
X133838390Y-52881792D01*
X133958854Y-52801300D01*
X134061300Y-52698854D01*
X134141792Y-52578390D01*
X134197235Y-52444538D01*
X134225500Y-52302440D01*
X134225500Y-52157560D01*
X134225499Y-52157557D01*
X135294500Y-52157557D01*
X135294500Y-52302442D01*
X135298131Y-52320696D01*
X135322470Y-52443057D01*
X135322765Y-52444537D01*
X135322765Y-52444539D01*
X135378206Y-52578387D01*
X135378206Y-52578388D01*
X135458699Y-52698853D01*
X135458700Y-52698854D01*
X135561146Y-52801300D01*
X135681610Y-52881792D01*
X135815462Y-52937235D01*
X135957560Y-52965500D01*
X135957561Y-52965500D01*
X136102439Y-52965500D01*
X136102440Y-52965500D01*
X136244538Y-52937235D01*
X136378390Y-52881792D01*
X136498854Y-52801300D01*
X136601300Y-52698854D01*
X136681792Y-52578390D01*
X136737235Y-52444538D01*
X136765500Y-52302440D01*
X136765500Y-52157560D01*
X136765499Y-52157557D01*
X137834500Y-52157557D01*
X137834500Y-52302442D01*
X137838131Y-52320696D01*
X137862470Y-52443057D01*
X137862765Y-52444537D01*
X137862765Y-52444539D01*
X137918206Y-52578387D01*
X137918206Y-52578388D01*
X137998699Y-52698853D01*
X137998700Y-52698854D01*
X138101146Y-52801300D01*
X138221610Y-52881792D01*
X138355462Y-52937235D01*
X138497560Y-52965500D01*
X138497561Y-52965500D01*
X138642439Y-52965500D01*
X138642440Y-52965500D01*
X138784538Y-52937235D01*
X138918390Y-52881792D01*
X139038854Y-52801300D01*
X139141300Y-52698854D01*
X139221792Y-52578390D01*
X139277235Y-52444538D01*
X139305500Y-52302440D01*
X139305500Y-52157560D01*
X139305499Y-52157557D01*
X140374500Y-52157557D01*
X140374500Y-52302442D01*
X140378131Y-52320696D01*
X140402470Y-52443057D01*
X140402765Y-52444537D01*
X140402765Y-52444539D01*
X140458206Y-52578387D01*
X140458206Y-52578388D01*
X140538699Y-52698853D01*
X140538700Y-52698854D01*
X140641146Y-52801300D01*
X140761610Y-52881792D01*
X140895462Y-52937235D01*
X141037560Y-52965500D01*
X141037561Y-52965500D01*
X141182439Y-52965500D01*
X141182440Y-52965500D01*
X141324538Y-52937235D01*
X141458390Y-52881792D01*
X141578854Y-52801300D01*
X141681300Y-52698854D01*
X141761792Y-52578390D01*
X141817235Y-52444538D01*
X141845500Y-52302440D01*
X141845500Y-52157560D01*
X141845499Y-52157557D01*
X142914500Y-52157557D01*
X142914500Y-52302442D01*
X142918131Y-52320696D01*
X142942470Y-52443057D01*
X142942765Y-52444537D01*
X142942765Y-52444539D01*
X142998206Y-52578387D01*
X142998206Y-52578388D01*
X143078699Y-52698853D01*
X143078700Y-52698854D01*
X143181146Y-52801300D01*
X143301610Y-52881792D01*
X143435462Y-52937235D01*
X143577560Y-52965500D01*
X143577561Y-52965500D01*
X143722439Y-52965500D01*
X143722440Y-52965500D01*
X143864538Y-52937235D01*
X143998390Y-52881792D01*
X144118854Y-52801300D01*
X144221300Y-52698854D01*
X144301792Y-52578390D01*
X144357235Y-52444538D01*
X144385500Y-52302440D01*
X144385500Y-52157560D01*
X144385499Y-52157557D01*
X145454500Y-52157557D01*
X145454500Y-52302442D01*
X145458131Y-52320696D01*
X145482470Y-52443057D01*
X145482765Y-52444537D01*
X145482765Y-52444539D01*
X145538206Y-52578387D01*
X145538206Y-52578388D01*
X145618699Y-52698853D01*
X145618700Y-52698854D01*
X145721146Y-52801300D01*
X145841610Y-52881792D01*
X145975462Y-52937235D01*
X146117560Y-52965500D01*
X146117561Y-52965500D01*
X146262439Y-52965500D01*
X146262440Y-52965500D01*
X146404538Y-52937235D01*
X146538390Y-52881792D01*
X146658854Y-52801300D01*
X146761300Y-52698854D01*
X146841792Y-52578390D01*
X146897235Y-52444538D01*
X146925500Y-52302440D01*
X146925500Y-52157560D01*
X146925499Y-52157557D01*
X147994500Y-52157557D01*
X147994500Y-52302442D01*
X147998131Y-52320696D01*
X148022470Y-52443057D01*
X148022765Y-52444537D01*
X148022765Y-52444539D01*
X148078206Y-52578387D01*
X148078206Y-52578388D01*
X148158699Y-52698853D01*
X148158700Y-52698854D01*
X148261146Y-52801300D01*
X148381610Y-52881792D01*
X148515462Y-52937235D01*
X148657560Y-52965500D01*
X148657561Y-52965500D01*
X148802439Y-52965500D01*
X148802440Y-52965500D01*
X148944538Y-52937235D01*
X149078390Y-52881792D01*
X149198854Y-52801300D01*
X149301300Y-52698854D01*
X149381792Y-52578390D01*
X149437235Y-52444538D01*
X149465500Y-52302440D01*
X149465500Y-52157560D01*
X149465499Y-52157557D01*
X150534500Y-52157557D01*
X150534500Y-52302442D01*
X150538131Y-52320696D01*
X150562470Y-52443057D01*
X150562765Y-52444537D01*
X150562765Y-52444539D01*
X150618206Y-52578387D01*
X150618206Y-52578388D01*
X150698699Y-52698853D01*
X150698700Y-52698854D01*
X150801146Y-52801300D01*
X150921610Y-52881792D01*
X151055462Y-52937235D01*
X151197560Y-52965500D01*
X151197561Y-52965500D01*
X151342439Y-52965500D01*
X151342440Y-52965500D01*
X151484538Y-52937235D01*
X151618390Y-52881792D01*
X151738854Y-52801300D01*
X151841300Y-52698854D01*
X151921792Y-52578390D01*
X151977235Y-52444538D01*
X152005500Y-52302440D01*
X152005500Y-52157560D01*
X152005499Y-52157557D01*
X153074500Y-52157557D01*
X153074500Y-52302442D01*
X153078131Y-52320696D01*
X153102470Y-52443057D01*
X153102765Y-52444537D01*
X153102765Y-52444539D01*
X153158206Y-52578387D01*
X153158206Y-52578388D01*
X153238699Y-52698853D01*
X153238700Y-52698854D01*
X153341146Y-52801300D01*
X153461610Y-52881792D01*
X153595462Y-52937235D01*
X153737560Y-52965500D01*
X153737561Y-52965500D01*
X153882439Y-52965500D01*
X153882440Y-52965500D01*
X154024538Y-52937235D01*
X154158390Y-52881792D01*
X154278854Y-52801300D01*
X154381300Y-52698854D01*
X154461792Y-52578390D01*
X154517235Y-52444538D01*
X154545500Y-52302440D01*
X154545500Y-52157560D01*
X154545499Y-52157557D01*
X155614500Y-52157557D01*
X155614500Y-52302442D01*
X155618131Y-52320696D01*
X155642470Y-52443057D01*
X155642765Y-52444537D01*
X155642765Y-52444539D01*
X155698206Y-52578387D01*
X155698206Y-52578388D01*
X155778699Y-52698853D01*
X155778700Y-52698854D01*
X155881146Y-52801300D01*
X156001610Y-52881792D01*
X156135462Y-52937235D01*
X156277560Y-52965500D01*
X156277561Y-52965500D01*
X156422439Y-52965500D01*
X156422440Y-52965500D01*
X156564538Y-52937235D01*
X156698390Y-52881792D01*
X156818854Y-52801300D01*
X156921300Y-52698854D01*
X157001792Y-52578390D01*
X157057235Y-52444538D01*
X157085500Y-52302440D01*
X157085500Y-52157560D01*
X157085499Y-52157557D01*
X158154500Y-52157557D01*
X158154500Y-52302442D01*
X158158131Y-52320696D01*
X158182470Y-52443057D01*
X158182765Y-52444537D01*
X158182765Y-52444539D01*
X158238206Y-52578387D01*
X158238206Y-52578388D01*
X158318699Y-52698853D01*
X158318700Y-52698854D01*
X158421146Y-52801300D01*
X158541610Y-52881792D01*
X158675462Y-52937235D01*
X158817560Y-52965500D01*
X158817561Y-52965500D01*
X158962439Y-52965500D01*
X158962440Y-52965500D01*
X159104538Y-52937235D01*
X159238390Y-52881792D01*
X159358854Y-52801300D01*
X159461300Y-52698854D01*
X159541792Y-52578390D01*
X159597235Y-52444538D01*
X159625500Y-52302440D01*
X159625500Y-52157560D01*
X159625499Y-52157557D01*
X160694500Y-52157557D01*
X160694500Y-52302442D01*
X160698131Y-52320696D01*
X160722470Y-52443057D01*
X160722765Y-52444537D01*
X160722765Y-52444539D01*
X160778206Y-52578387D01*
X160778206Y-52578388D01*
X160858699Y-52698853D01*
X160858700Y-52698854D01*
X160961146Y-52801300D01*
X161081610Y-52881792D01*
X161215462Y-52937235D01*
X161357560Y-52965500D01*
X161357561Y-52965500D01*
X161502439Y-52965500D01*
X161502440Y-52965500D01*
X161644538Y-52937235D01*
X161778390Y-52881792D01*
X161898854Y-52801300D01*
X162001300Y-52698854D01*
X162081792Y-52578390D01*
X162137235Y-52444538D01*
X162165500Y-52302440D01*
X162165500Y-52157560D01*
X162165499Y-52157557D01*
X163234500Y-52157557D01*
X163234500Y-52302442D01*
X163238131Y-52320696D01*
X163262470Y-52443057D01*
X163262765Y-52444537D01*
X163262765Y-52444539D01*
X163318206Y-52578387D01*
X163318206Y-52578388D01*
X163398699Y-52698853D01*
X163398700Y-52698854D01*
X163501146Y-52801300D01*
X163621610Y-52881792D01*
X163755462Y-52937235D01*
X163897560Y-52965500D01*
X163897561Y-52965500D01*
X164042439Y-52965500D01*
X164042440Y-52965500D01*
X164184538Y-52937235D01*
X164318390Y-52881792D01*
X164438854Y-52801300D01*
X164541300Y-52698854D01*
X164621792Y-52578390D01*
X164677235Y-52444538D01*
X164705500Y-52302440D01*
X164705500Y-52157560D01*
X164705499Y-52157557D01*
X165774500Y-52157557D01*
X165774500Y-52302442D01*
X165778131Y-52320696D01*
X165802470Y-52443057D01*
X165802765Y-52444537D01*
X165802765Y-52444539D01*
X165858206Y-52578387D01*
X165858206Y-52578388D01*
X165938699Y-52698853D01*
X165938700Y-52698854D01*
X166041146Y-52801300D01*
X166161610Y-52881792D01*
X166295462Y-52937235D01*
X166437560Y-52965500D01*
X166437561Y-52965500D01*
X166582439Y-52965500D01*
X166582440Y-52965500D01*
X166724538Y-52937235D01*
X166858390Y-52881792D01*
X166978854Y-52801300D01*
X167081300Y-52698854D01*
X167161792Y-52578390D01*
X167217235Y-52444538D01*
X167245500Y-52302440D01*
X167245500Y-52157560D01*
X167245499Y-52157557D01*
X168314500Y-52157557D01*
X168314500Y-52302442D01*
X168318131Y-52320696D01*
X168342470Y-52443057D01*
X168342765Y-52444537D01*
X168342765Y-52444539D01*
X168398206Y-52578387D01*
X168398206Y-52578388D01*
X168478699Y-52698853D01*
X168478700Y-52698854D01*
X168581146Y-52801300D01*
X168701610Y-52881792D01*
X168835462Y-52937235D01*
X168977560Y-52965500D01*
X168977561Y-52965500D01*
X169122439Y-52965500D01*
X169122440Y-52965500D01*
X169264538Y-52937235D01*
X169398390Y-52881792D01*
X169518854Y-52801300D01*
X169621300Y-52698854D01*
X169701792Y-52578390D01*
X169757235Y-52444538D01*
X169785500Y-52302440D01*
X169785500Y-52157560D01*
X169785499Y-52157557D01*
X170854500Y-52157557D01*
X170854500Y-52302442D01*
X170858131Y-52320696D01*
X170882470Y-52443057D01*
X170882765Y-52444537D01*
X170882765Y-52444539D01*
X170938206Y-52578387D01*
X170938206Y-52578388D01*
X171018699Y-52698853D01*
X171018700Y-52698854D01*
X171121146Y-52801300D01*
X171241610Y-52881792D01*
X171375462Y-52937235D01*
X171517560Y-52965500D01*
X171517561Y-52965500D01*
X171662439Y-52965500D01*
X171662440Y-52965500D01*
X171662441Y-52965499D01*
X171662448Y-52965499D01*
X171680696Y-52961869D01*
X171741458Y-52969059D01*
X171786388Y-53010591D01*
X171798326Y-53070600D01*
X171794167Y-53089558D01*
X171747582Y-53232934D01*
X171719500Y-53410237D01*
X171719500Y-53589762D01*
X171747582Y-53767065D01*
X171794167Y-53910441D01*
X171794166Y-53971626D01*
X171758202Y-54021126D01*
X171700012Y-54040033D01*
X171680700Y-54038131D01*
X171662448Y-54034500D01*
X171662440Y-54034500D01*
X171517560Y-54034500D01*
X171517557Y-54034500D01*
X171375462Y-54062765D01*
X171375460Y-54062765D01*
X171241612Y-54118206D01*
X171241611Y-54118206D01*
X171121146Y-54198699D01*
X171018699Y-54301146D01*
X170938206Y-54421611D01*
X170938206Y-54421612D01*
X170882765Y-54555460D01*
X170882765Y-54555462D01*
X170854500Y-54697557D01*
X170854500Y-54842442D01*
X170882765Y-54984537D01*
X170882765Y-54984539D01*
X170938206Y-55118387D01*
X170938206Y-55118388D01*
X170994205Y-55202195D01*
X171018700Y-55238854D01*
X171121146Y-55341300D01*
X171241610Y-55421792D01*
X171375462Y-55477235D01*
X171517560Y-55505500D01*
X171517561Y-55505500D01*
X171662439Y-55505500D01*
X171662440Y-55505500D01*
X171804538Y-55477235D01*
X171938390Y-55421792D01*
X172058854Y-55341300D01*
X172161300Y-55238854D01*
X172241792Y-55118390D01*
X172297235Y-54984538D01*
X172325500Y-54842440D01*
X172325500Y-54697560D01*
X172321868Y-54679301D01*
X172329059Y-54618541D01*
X172370592Y-54573610D01*
X172430601Y-54561673D01*
X172449554Y-54565831D01*
X172592932Y-54612417D01*
X172592933Y-54612417D01*
X172592936Y-54612418D01*
X172770238Y-54640500D01*
X172770241Y-54640500D01*
X172949762Y-54640500D01*
X173127063Y-54612418D01*
X173127064Y-54612417D01*
X173127068Y-54612417D01*
X173270442Y-54565832D01*
X173331625Y-54565832D01*
X173381126Y-54601796D01*
X173400033Y-54659987D01*
X173398131Y-54679298D01*
X173394501Y-54697549D01*
X173394500Y-54697561D01*
X173394500Y-54842442D01*
X173422765Y-54984537D01*
X173422765Y-54984539D01*
X173478206Y-55118387D01*
X173478206Y-55118388D01*
X173534205Y-55202195D01*
X173558700Y-55238854D01*
X173661146Y-55341300D01*
X173781610Y-55421792D01*
X173915462Y-55477235D01*
X174057560Y-55505500D01*
X174057561Y-55505500D01*
X174202439Y-55505500D01*
X174202440Y-55505500D01*
X174344538Y-55477235D01*
X174478390Y-55421792D01*
X174598854Y-55341300D01*
X174701300Y-55238854D01*
X174781792Y-55118390D01*
X174837235Y-54984538D01*
X174865500Y-54842440D01*
X174865500Y-54697560D01*
X174837235Y-54555462D01*
X174781793Y-54421612D01*
X174781793Y-54421611D01*
X174701300Y-54301146D01*
X174598853Y-54198699D01*
X174478387Y-54118206D01*
X174344538Y-54062765D01*
X174202442Y-54034500D01*
X174202440Y-54034500D01*
X174057560Y-54034500D01*
X174057559Y-54034500D01*
X174057549Y-54034501D01*
X174039298Y-54038131D01*
X173978537Y-54030938D01*
X173933608Y-53989404D01*
X173921674Y-53929394D01*
X173925832Y-53910441D01*
X173972417Y-53767068D01*
X173972418Y-53767063D01*
X174000500Y-53589762D01*
X174000500Y-53410237D01*
X173992031Y-53356765D01*
X176449500Y-53356765D01*
X176449500Y-53643234D01*
X176481573Y-53927896D01*
X176545318Y-54207185D01*
X176639930Y-54477569D01*
X176764223Y-54735667D01*
X176916634Y-54978227D01*
X177095243Y-55202195D01*
X177297805Y-55404757D01*
X177521773Y-55583366D01*
X177643052Y-55659570D01*
X177764332Y-55735776D01*
X177833730Y-55769196D01*
X178022428Y-55860068D01*
X178022431Y-55860069D01*
X178022430Y-55860069D01*
X178292814Y-55954681D01*
X178292817Y-55954681D01*
X178292818Y-55954682D01*
X178572102Y-56018426D01*
X178856767Y-56050500D01*
X178856768Y-56050500D01*
X179143232Y-56050500D01*
X179143233Y-56050500D01*
X179427898Y-56018426D01*
X179707182Y-55954682D01*
X179977572Y-55860068D01*
X180235669Y-55735775D01*
X180478227Y-55583366D01*
X180702195Y-55404757D01*
X180904757Y-55202195D01*
X181083366Y-54978227D01*
X181235775Y-54735669D01*
X181360068Y-54477572D01*
X181454682Y-54207182D01*
X181518426Y-53927898D01*
X181550500Y-53643233D01*
X181550500Y-53356767D01*
X181518426Y-53072102D01*
X181454682Y-52792818D01*
X181448208Y-52774317D01*
X181360069Y-52522430D01*
X181235776Y-52264332D01*
X181083365Y-52021772D01*
X181078333Y-52015462D01*
X180904757Y-51797805D01*
X180702195Y-51595243D01*
X180478227Y-51416634D01*
X180235667Y-51264223D01*
X179977568Y-51139930D01*
X179977569Y-51139930D01*
X179707185Y-51045318D01*
X179427896Y-50981573D01*
X179143234Y-50949500D01*
X179143233Y-50949500D01*
X178856767Y-50949500D01*
X178856765Y-50949500D01*
X178572103Y-50981573D01*
X178292814Y-51045318D01*
X178022430Y-51139930D01*
X177764332Y-51264223D01*
X177521772Y-51416634D01*
X177297806Y-51595242D01*
X177095242Y-51797806D01*
X176916634Y-52021772D01*
X176764223Y-52264332D01*
X176639930Y-52522430D01*
X176545318Y-52792814D01*
X176481573Y-53072103D01*
X176449500Y-53356765D01*
X173992031Y-53356765D01*
X173972418Y-53232936D01*
X173925832Y-53089559D01*
X173925832Y-53028373D01*
X173961796Y-52978873D01*
X174019987Y-52959966D01*
X174039299Y-52961867D01*
X174057560Y-52965500D01*
X174057561Y-52965500D01*
X174202439Y-52965500D01*
X174202440Y-52965500D01*
X174344538Y-52937235D01*
X174478390Y-52881792D01*
X174598854Y-52801300D01*
X174701300Y-52698854D01*
X174781792Y-52578390D01*
X174837235Y-52444538D01*
X174865500Y-52302440D01*
X174865500Y-52157560D01*
X174837235Y-52015462D01*
X174781793Y-51881612D01*
X174781793Y-51881611D01*
X174701300Y-51761146D01*
X174598853Y-51658699D01*
X174478387Y-51578206D01*
X174344538Y-51522765D01*
X174202442Y-51494500D01*
X174202440Y-51494500D01*
X174057560Y-51494500D01*
X174057557Y-51494500D01*
X173915462Y-51522765D01*
X173915460Y-51522765D01*
X173781612Y-51578206D01*
X173781611Y-51578206D01*
X173661146Y-51658699D01*
X173558699Y-51761146D01*
X173478206Y-51881611D01*
X173478206Y-51881612D01*
X173422765Y-52015460D01*
X173422765Y-52015462D01*
X173394500Y-52157557D01*
X173394500Y-52302448D01*
X173398131Y-52320700D01*
X173390938Y-52381461D01*
X173349405Y-52426390D01*
X173289395Y-52438326D01*
X173270441Y-52434167D01*
X173127065Y-52387582D01*
X172949762Y-52359500D01*
X172949759Y-52359500D01*
X172770241Y-52359500D01*
X172770238Y-52359500D01*
X172592934Y-52387582D01*
X172449558Y-52434167D01*
X172388373Y-52434166D01*
X172338873Y-52398202D01*
X172319966Y-52340011D01*
X172321869Y-52320696D01*
X172325499Y-52302448D01*
X172325500Y-52302438D01*
X172325500Y-52157561D01*
X172325499Y-52157557D01*
X172322921Y-52144596D01*
X172297235Y-52015462D01*
X172241793Y-51881612D01*
X172241793Y-51881611D01*
X172161300Y-51761146D01*
X172058853Y-51658699D01*
X171938387Y-51578206D01*
X171804538Y-51522765D01*
X171662442Y-51494500D01*
X171662440Y-51494500D01*
X171517560Y-51494500D01*
X171517557Y-51494500D01*
X171375462Y-51522765D01*
X171375460Y-51522765D01*
X171241612Y-51578206D01*
X171241611Y-51578206D01*
X171121146Y-51658699D01*
X171018699Y-51761146D01*
X170938206Y-51881611D01*
X170938206Y-51881612D01*
X170882765Y-52015460D01*
X170882765Y-52015462D01*
X170854500Y-52157557D01*
X169785499Y-52157557D01*
X169757235Y-52015462D01*
X169701793Y-51881612D01*
X169701793Y-51881611D01*
X169621300Y-51761146D01*
X169518853Y-51658699D01*
X169398387Y-51578206D01*
X169264538Y-51522765D01*
X169122442Y-51494500D01*
X169122440Y-51494500D01*
X168977560Y-51494500D01*
X168977557Y-51494500D01*
X168835462Y-51522765D01*
X168835460Y-51522765D01*
X168701612Y-51578206D01*
X168701611Y-51578206D01*
X168581146Y-51658699D01*
X168478699Y-51761146D01*
X168398206Y-51881611D01*
X168398206Y-51881612D01*
X168342765Y-52015460D01*
X168342765Y-52015462D01*
X168314500Y-52157557D01*
X167245499Y-52157557D01*
X167217235Y-52015462D01*
X167161793Y-51881612D01*
X167161793Y-51881611D01*
X167081300Y-51761146D01*
X166978853Y-51658699D01*
X166858387Y-51578206D01*
X166724538Y-51522765D01*
X166582442Y-51494500D01*
X166582440Y-51494500D01*
X166437560Y-51494500D01*
X166437557Y-51494500D01*
X166295462Y-51522765D01*
X166295460Y-51522765D01*
X166161612Y-51578206D01*
X166161611Y-51578206D01*
X166041146Y-51658699D01*
X165938699Y-51761146D01*
X165858206Y-51881611D01*
X165858206Y-51881612D01*
X165802765Y-52015460D01*
X165802765Y-52015462D01*
X165774500Y-52157557D01*
X164705499Y-52157557D01*
X164677235Y-52015462D01*
X164621793Y-51881612D01*
X164621793Y-51881611D01*
X164541300Y-51761146D01*
X164438853Y-51658699D01*
X164318387Y-51578206D01*
X164184538Y-51522765D01*
X164042442Y-51494500D01*
X164042440Y-51494500D01*
X163897560Y-51494500D01*
X163897557Y-51494500D01*
X163755462Y-51522765D01*
X163755460Y-51522765D01*
X163621612Y-51578206D01*
X163621611Y-51578206D01*
X163501146Y-51658699D01*
X163398699Y-51761146D01*
X163318206Y-51881611D01*
X163318206Y-51881612D01*
X163262765Y-52015460D01*
X163262765Y-52015462D01*
X163234500Y-52157557D01*
X162165499Y-52157557D01*
X162137235Y-52015462D01*
X162081793Y-51881612D01*
X162081793Y-51881611D01*
X162001300Y-51761146D01*
X161898853Y-51658699D01*
X161778387Y-51578206D01*
X161644538Y-51522765D01*
X161502442Y-51494500D01*
X161502440Y-51494500D01*
X161357560Y-51494500D01*
X161357557Y-51494500D01*
X161215462Y-51522765D01*
X161215460Y-51522765D01*
X161081612Y-51578206D01*
X161081611Y-51578206D01*
X160961146Y-51658699D01*
X160858699Y-51761146D01*
X160778206Y-51881611D01*
X160778206Y-51881612D01*
X160722765Y-52015460D01*
X160722765Y-52015462D01*
X160694500Y-52157557D01*
X159625499Y-52157557D01*
X159597235Y-52015462D01*
X159541793Y-51881612D01*
X159541793Y-51881611D01*
X159461300Y-51761146D01*
X159358853Y-51658699D01*
X159238387Y-51578206D01*
X159104538Y-51522765D01*
X158962442Y-51494500D01*
X158962440Y-51494500D01*
X158817560Y-51494500D01*
X158817557Y-51494500D01*
X158675462Y-51522765D01*
X158675460Y-51522765D01*
X158541612Y-51578206D01*
X158541611Y-51578206D01*
X158421146Y-51658699D01*
X158318699Y-51761146D01*
X158238206Y-51881611D01*
X158238206Y-51881612D01*
X158182765Y-52015460D01*
X158182765Y-52015462D01*
X158154500Y-52157557D01*
X157085499Y-52157557D01*
X157057235Y-52015462D01*
X157001793Y-51881612D01*
X157001793Y-51881611D01*
X156921300Y-51761146D01*
X156818853Y-51658699D01*
X156698387Y-51578206D01*
X156564538Y-51522765D01*
X156422442Y-51494500D01*
X156422440Y-51494500D01*
X156277560Y-51494500D01*
X156277557Y-51494500D01*
X156135462Y-51522765D01*
X156135460Y-51522765D01*
X156001612Y-51578206D01*
X156001611Y-51578206D01*
X155881146Y-51658699D01*
X155778699Y-51761146D01*
X155698206Y-51881611D01*
X155698206Y-51881612D01*
X155642765Y-52015460D01*
X155642765Y-52015462D01*
X155614500Y-52157557D01*
X154545499Y-52157557D01*
X154517235Y-52015462D01*
X154461793Y-51881612D01*
X154461793Y-51881611D01*
X154381300Y-51761146D01*
X154278853Y-51658699D01*
X154158387Y-51578206D01*
X154024538Y-51522765D01*
X153882442Y-51494500D01*
X153882440Y-51494500D01*
X153737560Y-51494500D01*
X153737557Y-51494500D01*
X153595462Y-51522765D01*
X153595460Y-51522765D01*
X153461612Y-51578206D01*
X153461611Y-51578206D01*
X153341146Y-51658699D01*
X153238699Y-51761146D01*
X153158206Y-51881611D01*
X153158206Y-51881612D01*
X153102765Y-52015460D01*
X153102765Y-52015462D01*
X153074500Y-52157557D01*
X152005499Y-52157557D01*
X151977235Y-52015462D01*
X151921793Y-51881612D01*
X151921793Y-51881611D01*
X151841300Y-51761146D01*
X151738853Y-51658699D01*
X151618387Y-51578206D01*
X151484538Y-51522765D01*
X151342442Y-51494500D01*
X151342440Y-51494500D01*
X151197560Y-51494500D01*
X151197557Y-51494500D01*
X151055462Y-51522765D01*
X151055460Y-51522765D01*
X150921612Y-51578206D01*
X150921611Y-51578206D01*
X150801146Y-51658699D01*
X150698699Y-51761146D01*
X150618206Y-51881611D01*
X150618206Y-51881612D01*
X150562765Y-52015460D01*
X150562765Y-52015462D01*
X150534500Y-52157557D01*
X149465499Y-52157557D01*
X149437235Y-52015462D01*
X149381793Y-51881612D01*
X149381793Y-51881611D01*
X149301300Y-51761146D01*
X149198853Y-51658699D01*
X149078387Y-51578206D01*
X148944538Y-51522765D01*
X148802442Y-51494500D01*
X148802440Y-51494500D01*
X148657560Y-51494500D01*
X148657557Y-51494500D01*
X148515462Y-51522765D01*
X148515460Y-51522765D01*
X148381612Y-51578206D01*
X148381611Y-51578206D01*
X148261146Y-51658699D01*
X148158699Y-51761146D01*
X148078206Y-51881611D01*
X148078206Y-51881612D01*
X148022765Y-52015460D01*
X148022765Y-52015462D01*
X147994500Y-52157557D01*
X146925499Y-52157557D01*
X146897235Y-52015462D01*
X146841793Y-51881612D01*
X146841793Y-51881611D01*
X146761300Y-51761146D01*
X146658853Y-51658699D01*
X146538387Y-51578206D01*
X146404538Y-51522765D01*
X146262442Y-51494500D01*
X146262440Y-51494500D01*
X146117560Y-51494500D01*
X146117557Y-51494500D01*
X145975462Y-51522765D01*
X145975460Y-51522765D01*
X145841612Y-51578206D01*
X145841611Y-51578206D01*
X145721146Y-51658699D01*
X145618699Y-51761146D01*
X145538206Y-51881611D01*
X145538206Y-51881612D01*
X145482765Y-52015460D01*
X145482765Y-52015462D01*
X145454500Y-52157557D01*
X144385499Y-52157557D01*
X144357235Y-52015462D01*
X144301793Y-51881612D01*
X144301793Y-51881611D01*
X144221300Y-51761146D01*
X144118853Y-51658699D01*
X143998387Y-51578206D01*
X143864538Y-51522765D01*
X143722442Y-51494500D01*
X143722440Y-51494500D01*
X143577560Y-51494500D01*
X143577557Y-51494500D01*
X143435462Y-51522765D01*
X143435460Y-51522765D01*
X143301612Y-51578206D01*
X143301611Y-51578206D01*
X143181146Y-51658699D01*
X143078699Y-51761146D01*
X142998206Y-51881611D01*
X142998206Y-51881612D01*
X142942765Y-52015460D01*
X142942765Y-52015462D01*
X142914500Y-52157557D01*
X141845499Y-52157557D01*
X141817235Y-52015462D01*
X141761793Y-51881612D01*
X141761793Y-51881611D01*
X141681300Y-51761146D01*
X141578853Y-51658699D01*
X141458387Y-51578206D01*
X141324538Y-51522765D01*
X141182442Y-51494500D01*
X141182440Y-51494500D01*
X141037560Y-51494500D01*
X141037557Y-51494500D01*
X140895462Y-51522765D01*
X140895460Y-51522765D01*
X140761612Y-51578206D01*
X140761611Y-51578206D01*
X140641146Y-51658699D01*
X140538699Y-51761146D01*
X140458206Y-51881611D01*
X140458206Y-51881612D01*
X140402765Y-52015460D01*
X140402765Y-52015462D01*
X140374500Y-52157557D01*
X139305499Y-52157557D01*
X139277235Y-52015462D01*
X139221793Y-51881612D01*
X139221793Y-51881611D01*
X139141300Y-51761146D01*
X139038853Y-51658699D01*
X138918387Y-51578206D01*
X138784538Y-51522765D01*
X138642442Y-51494500D01*
X138642440Y-51494500D01*
X138497560Y-51494500D01*
X138497557Y-51494500D01*
X138355462Y-51522765D01*
X138355460Y-51522765D01*
X138221612Y-51578206D01*
X138221611Y-51578206D01*
X138101146Y-51658699D01*
X137998699Y-51761146D01*
X137918206Y-51881611D01*
X137918206Y-51881612D01*
X137862765Y-52015460D01*
X137862765Y-52015462D01*
X137834500Y-52157557D01*
X136765499Y-52157557D01*
X136737235Y-52015462D01*
X136681793Y-51881612D01*
X136681793Y-51881611D01*
X136601300Y-51761146D01*
X136498853Y-51658699D01*
X136378387Y-51578206D01*
X136244538Y-51522765D01*
X136102442Y-51494500D01*
X136102440Y-51494500D01*
X135957560Y-51494500D01*
X135957557Y-51494500D01*
X135815462Y-51522765D01*
X135815460Y-51522765D01*
X135681612Y-51578206D01*
X135681611Y-51578206D01*
X135561146Y-51658699D01*
X135458699Y-51761146D01*
X135378206Y-51881611D01*
X135378206Y-51881612D01*
X135322765Y-52015460D01*
X135322765Y-52015462D01*
X135294500Y-52157557D01*
X134225499Y-52157557D01*
X134197235Y-52015462D01*
X134141793Y-51881612D01*
X134141793Y-51881611D01*
X134061300Y-51761146D01*
X133958853Y-51658699D01*
X133838387Y-51578206D01*
X133704538Y-51522765D01*
X133562442Y-51494500D01*
X133562440Y-51494500D01*
X133417560Y-51494500D01*
X133417557Y-51494500D01*
X133275462Y-51522765D01*
X133275460Y-51522765D01*
X133141612Y-51578206D01*
X133141611Y-51578206D01*
X133021146Y-51658699D01*
X132918699Y-51761146D01*
X132838206Y-51881611D01*
X132838206Y-51881612D01*
X132782765Y-52015460D01*
X132782765Y-52015462D01*
X132754500Y-52157557D01*
X131685499Y-52157557D01*
X131657235Y-52015462D01*
X131601793Y-51881612D01*
X131601793Y-51881611D01*
X131521300Y-51761146D01*
X131418853Y-51658699D01*
X131298387Y-51578206D01*
X131164538Y-51522765D01*
X131022442Y-51494500D01*
X131022440Y-51494500D01*
X130877560Y-51494500D01*
X130877557Y-51494500D01*
X130735462Y-51522765D01*
X130735460Y-51522765D01*
X130601612Y-51578206D01*
X130601611Y-51578206D01*
X130481146Y-51658699D01*
X130378699Y-51761146D01*
X130298206Y-51881611D01*
X130298206Y-51881612D01*
X130242765Y-52015460D01*
X130242765Y-52015462D01*
X130214500Y-52157557D01*
X129145499Y-52157557D01*
X129117235Y-52015462D01*
X129061793Y-51881612D01*
X129061793Y-51881611D01*
X128981300Y-51761146D01*
X128878853Y-51658699D01*
X128758387Y-51578206D01*
X128624538Y-51522765D01*
X128482442Y-51494500D01*
X128482440Y-51494500D01*
X128337560Y-51494500D01*
X128337557Y-51494500D01*
X128195462Y-51522765D01*
X128195460Y-51522765D01*
X128061612Y-51578206D01*
X128061611Y-51578206D01*
X127941146Y-51658699D01*
X127838699Y-51761146D01*
X127758206Y-51881611D01*
X127758206Y-51881612D01*
X127702765Y-52015460D01*
X127702765Y-52015462D01*
X127674500Y-52157557D01*
X127674500Y-52302448D01*
X127678131Y-52320700D01*
X127670938Y-52381461D01*
X127629405Y-52426390D01*
X127569395Y-52438326D01*
X127550441Y-52434167D01*
X127407065Y-52387582D01*
X127229762Y-52359500D01*
X127229759Y-52359500D01*
X127050241Y-52359500D01*
X127050238Y-52359500D01*
X126872934Y-52387582D01*
X126729558Y-52434167D01*
X126668373Y-52434166D01*
X126618873Y-52398202D01*
X126599966Y-52340011D01*
X126601869Y-52320696D01*
X126605499Y-52302448D01*
X126605500Y-52302438D01*
X126605500Y-52157561D01*
X126605499Y-52157557D01*
X126602921Y-52144596D01*
X126577235Y-52015462D01*
X126521793Y-51881612D01*
X126521793Y-51881611D01*
X126441300Y-51761146D01*
X126338853Y-51658699D01*
X126218387Y-51578206D01*
X126084538Y-51522765D01*
X125942442Y-51494500D01*
X125942440Y-51494500D01*
X125797560Y-51494500D01*
X125797557Y-51494500D01*
X125655462Y-51522765D01*
X125655460Y-51522765D01*
X125521612Y-51578206D01*
X125521611Y-51578206D01*
X125401146Y-51658699D01*
X125298699Y-51761146D01*
X125218206Y-51881611D01*
X125218206Y-51881612D01*
X125162765Y-52015460D01*
X125162765Y-52015462D01*
X125134500Y-52157557D01*
X125134500Y-52302442D01*
X125138131Y-52320696D01*
X125162470Y-52443057D01*
X125162765Y-52444537D01*
X125162765Y-52444539D01*
X125218206Y-52578387D01*
X125218206Y-52578388D01*
X125298699Y-52698853D01*
X125298700Y-52698854D01*
X125401146Y-52801300D01*
X125521610Y-52881792D01*
X125655462Y-52937235D01*
X125797560Y-52965500D01*
X125797561Y-52965500D01*
X125942439Y-52965500D01*
X125942440Y-52965500D01*
X125942441Y-52965499D01*
X125942448Y-52965499D01*
X125960696Y-52961869D01*
X126021458Y-52969059D01*
X126066388Y-53010591D01*
X126078326Y-53070600D01*
X126074167Y-53089558D01*
X126027582Y-53232934D01*
X125999500Y-53410237D01*
X125999500Y-53589762D01*
X126027582Y-53767065D01*
X126074167Y-53910441D01*
X126074166Y-53971626D01*
X126038202Y-54021126D01*
X125980012Y-54040033D01*
X125960700Y-54038131D01*
X125942448Y-54034500D01*
X125942440Y-54034500D01*
X125797560Y-54034500D01*
X125797557Y-54034500D01*
X125655462Y-54062765D01*
X125655460Y-54062765D01*
X125521612Y-54118206D01*
X125521611Y-54118206D01*
X125401146Y-54198699D01*
X125298699Y-54301146D01*
X125218207Y-54421610D01*
X125190964Y-54487383D01*
X125151227Y-54533908D01*
X125091733Y-54548192D01*
X125035205Y-54524777D01*
X125003235Y-54472608D01*
X125000500Y-54449497D01*
X125000500Y-52931008D01*
X125000499Y-52931004D01*
X124973580Y-52795672D01*
X124933477Y-52698854D01*
X124920777Y-52668193D01*
X124920771Y-52668182D01*
X124844114Y-52553458D01*
X124746541Y-52455885D01*
X124631817Y-52379228D01*
X124631806Y-52379222D01*
X124504328Y-52326420D01*
X124368995Y-52299500D01*
X124368993Y-52299500D01*
X124231007Y-52299500D01*
X124231004Y-52299500D01*
X124095672Y-52326420D01*
X124095670Y-52326420D01*
X123968193Y-52379222D01*
X123968182Y-52379228D01*
X123853458Y-52455885D01*
X123755885Y-52553458D01*
X123679228Y-52668182D01*
X123679224Y-52668190D01*
X123633116Y-52779505D01*
X123593379Y-52826031D01*
X123533884Y-52840314D01*
X123477356Y-52816899D01*
X123448208Y-52774317D01*
X123360069Y-52522430D01*
X123235776Y-52264332D01*
X123083365Y-52021772D01*
X123078333Y-52015462D01*
X122904757Y-51797805D01*
X122702195Y-51595243D01*
X122478227Y-51416634D01*
X122235667Y-51264223D01*
X121977568Y-51139930D01*
X121977569Y-51139930D01*
X121707185Y-51045318D01*
X121427896Y-50981573D01*
X121143234Y-50949500D01*
X121143233Y-50949500D01*
X120856767Y-50949500D01*
X120856765Y-50949500D01*
X120572103Y-50981573D01*
X120292814Y-51045318D01*
X120022430Y-51139930D01*
X119764332Y-51264223D01*
X119521772Y-51416634D01*
X119297806Y-51595242D01*
X119095242Y-51797806D01*
X118916634Y-52021772D01*
X118764223Y-52264332D01*
X118639930Y-52522430D01*
X118545318Y-52792814D01*
X118481573Y-53072103D01*
X118449500Y-53356765D01*
X117800500Y-53356765D01*
X117800500Y-53002773D01*
X117800656Y-52997222D01*
X117804025Y-52937234D01*
X117817162Y-52703296D01*
X117818405Y-52692270D01*
X117822496Y-52668193D01*
X117867253Y-52404771D01*
X117869714Y-52393985D01*
X117950451Y-52113742D01*
X117954111Y-52103283D01*
X118065711Y-51833858D01*
X118070525Y-51823863D01*
X118075101Y-51815584D01*
X118211583Y-51568636D01*
X118217479Y-51559253D01*
X118386230Y-51321421D01*
X118393149Y-51312745D01*
X118436511Y-51264223D01*
X118587475Y-51095293D01*
X118595293Y-51087475D01*
X118812748Y-50893146D01*
X118821424Y-50886228D01*
X119059253Y-50717479D01*
X119068636Y-50711583D01*
X119323869Y-50570522D01*
X119333858Y-50565711D01*
X119603283Y-50454111D01*
X119613742Y-50450451D01*
X119893985Y-50369714D01*
X119904771Y-50367253D01*
X120192277Y-50318404D01*
X120203296Y-50317162D01*
X120497222Y-50300655D01*
X120502773Y-50300500D01*
X120547595Y-50300500D01*
X179452405Y-50300500D01*
X179497227Y-50300500D01*
X179502777Y-50300655D01*
G37*
%TD.AperFunction*%
%TA.AperFunction,Conductor*%
G36*
X144869499Y-71154826D02*
G01*
X145045505Y-71330831D01*
X145073281Y-71385346D01*
X145074500Y-71400833D01*
X145074500Y-72324165D01*
X145055593Y-72382356D01*
X145045503Y-72394170D01*
X145011005Y-72428667D01*
X144956488Y-72456443D01*
X144896060Y-72446873D01*
X144883131Y-72440286D01*
X144883127Y-72440284D01*
X144883126Y-72440284D01*
X144750000Y-72419199D01*
X144616872Y-72440284D01*
X144594444Y-72451712D01*
X144534012Y-72461283D01*
X144479496Y-72433505D01*
X144451719Y-72378988D01*
X144450500Y-72363502D01*
X144450500Y-72136188D01*
X144469407Y-72077997D01*
X144479490Y-72066190D01*
X144630469Y-71915212D01*
X144676614Y-71835288D01*
X144685935Y-71800500D01*
X144700500Y-71746144D01*
X144700500Y-71224833D01*
X144719407Y-71166642D01*
X144768907Y-71130678D01*
X144830093Y-71130678D01*
X144869499Y-71154826D01*
G37*
%TD.AperFunction*%
%TD*%
%TA.AperFunction,Conductor*%
%TO.N,Net-(L1-Pad2)*%
G36*
X142059191Y-69518907D02*
G01*
X142095155Y-69568407D01*
X142100000Y-69599000D01*
X142100000Y-79501000D01*
X142081093Y-79559191D01*
X142031593Y-79595155D01*
X142001000Y-79600000D01*
X139649000Y-79600000D01*
X139590809Y-79581093D01*
X139554845Y-79531593D01*
X139550000Y-79501000D01*
X139550000Y-69599000D01*
X139568907Y-69540809D01*
X139618407Y-69504845D01*
X139649000Y-69500000D01*
X142001000Y-69500000D01*
X142059191Y-69518907D01*
G37*
%TD.AperFunction*%
%TD*%
M02*
