%TF.GenerationSoftware,KiCad,Pcbnew,8.0.4*%
%TF.CreationDate,2024-08-29T10:26:41+02:00*%
%TF.ProjectId,soleil_powerpack,736f6c65-696c-45f7-906f-776572706163,rev?*%
%TF.SameCoordinates,Original*%
%TF.FileFunction,Copper,L2,Inr*%
%TF.FilePolarity,Positive*%
%FSLAX46Y46*%
G04 Gerber Fmt 4.6, Leading zero omitted, Abs format (unit mm)*
G04 Created by KiCad (PCBNEW 8.0.4) date 2024-08-29 10:26:41*
%MOMM*%
%LPD*%
G01*
G04 APERTURE LIST*
G04 Aperture macros list*
%AMRoundRect*
0 Rectangle with rounded corners*
0 $1 Rounding radius*
0 $2 $3 $4 $5 $6 $7 $8 $9 X,Y pos of 4 corners*
0 Add a 4 corners polygon primitive as box body*
4,1,4,$2,$3,$4,$5,$6,$7,$8,$9,$2,$3,0*
0 Add four circle primitives for the rounded corners*
1,1,$1+$1,$2,$3*
1,1,$1+$1,$4,$5*
1,1,$1+$1,$6,$7*
1,1,$1+$1,$8,$9*
0 Add four rect primitives between the rounded corners*
20,1,$1+$1,$2,$3,$4,$5,0*
20,1,$1+$1,$4,$5,$6,$7,0*
20,1,$1+$1,$6,$7,$8,$9,0*
20,1,$1+$1,$8,$9,$2,$3,0*%
G04 Aperture macros list end*
%TA.AperFunction,ComponentPad*%
%ADD10RoundRect,0.249900X-0.400100X0.275100X-0.400100X-0.275100X0.400100X-0.275100X0.400100X0.275100X0*%
%TD*%
%TA.AperFunction,ComponentPad*%
%ADD11O,1.300000X1.050000*%
%TD*%
%TA.AperFunction,ComponentPad*%
%ADD12O,1.100000X1.700000*%
%TD*%
%TA.AperFunction,ViaPad*%
%ADD13C,0.600000*%
%TD*%
%TA.AperFunction,ViaPad*%
%ADD14C,0.450000*%
%TD*%
%TA.AperFunction,ViaPad*%
%ADD15C,0.550000*%
%TD*%
%TA.AperFunction,ViaPad*%
%ADD16C,0.800000*%
%TD*%
%TA.AperFunction,ViaPad*%
%ADD17C,0.700000*%
%TD*%
G04 APERTURE END LIST*
D10*
%TO.N,+4V*%
%TO.C,U5*%
X119700000Y-63230000D03*
D11*
%TO.N,GND*%
X119700000Y-64500000D03*
%TO.N,Net-(JP2-A)*%
X119700000Y-65770000D03*
%TD*%
D12*
%TO.N,GND*%
%TO.C,J1*%
X165780000Y-73500000D03*
X165780000Y-77300000D03*
X174420000Y-73500000D03*
X174420000Y-77300000D03*
%TD*%
D13*
%TO.N,GND*%
X167300000Y-75500000D03*
X172900000Y-75500000D03*
X124400000Y-78500000D03*
X121800000Y-61500000D03*
X136100000Y-61200000D03*
X149800000Y-61700000D03*
X155500000Y-61500000D03*
X162700000Y-61600000D03*
X158200000Y-60600000D03*
X164000000Y-66000000D03*
X159800000Y-78500000D03*
X157700000Y-78500000D03*
X159800000Y-76000000D03*
X157700000Y-76000000D03*
X151700000Y-78500000D03*
X151700000Y-76000000D03*
X148700000Y-76000000D03*
X148700000Y-78500000D03*
X144800000Y-78500000D03*
X144800000Y-76000000D03*
X142800000Y-78500000D03*
X142800000Y-73500000D03*
X142800000Y-76000000D03*
X152500000Y-71700000D03*
X156000000Y-69800000D03*
X147100000Y-68700000D03*
X152500000Y-69800000D03*
X161500000Y-71000000D03*
X166500000Y-60500000D03*
X139500000Y-53500000D03*
X124500000Y-59500000D03*
X134500000Y-53500000D03*
X132000000Y-53500000D03*
X136100000Y-70000000D03*
X126500000Y-59000000D03*
X172500000Y-77500000D03*
X158000000Y-66000000D03*
X170000000Y-66000000D03*
D14*
X129175003Y-66800000D03*
D13*
X180000000Y-57500000D03*
X137500000Y-76000000D03*
X141500000Y-60000000D03*
X152500000Y-53500000D03*
X129500000Y-78500000D03*
D14*
X144750000Y-72200000D03*
D13*
X170000000Y-63500000D03*
X126500000Y-70000000D03*
X133500000Y-70000000D03*
D14*
X158150000Y-64400002D03*
D13*
X164000000Y-71000000D03*
D14*
X135400000Y-63000000D03*
D13*
X156000000Y-67500000D03*
X170100000Y-77500000D03*
X128500000Y-59000000D03*
X130500000Y-70000000D03*
D14*
X145700000Y-59500003D03*
X145700000Y-60900000D03*
D13*
X152500000Y-67500000D03*
X155000000Y-53500000D03*
X170000000Y-60500000D03*
X120000000Y-61500000D03*
X176500000Y-71000000D03*
D14*
X126600000Y-67450003D03*
D13*
X160000000Y-53500000D03*
X176500000Y-57500000D03*
X149500000Y-53500000D03*
X162500000Y-53500000D03*
X147000000Y-53500000D03*
X167700000Y-77500000D03*
X137250000Y-57500000D03*
X120000000Y-70500000D03*
X137500000Y-78500000D03*
X131900000Y-73000000D03*
X129500000Y-53500000D03*
X144500000Y-53500000D03*
X137000000Y-53500000D03*
X166500000Y-66000000D03*
X165000000Y-53500000D03*
X149027225Y-64008732D03*
X134750000Y-57500000D03*
X126500000Y-73000000D03*
X139500000Y-61500000D03*
X157500000Y-53500000D03*
X180000000Y-71000000D03*
X161500000Y-66000000D03*
X167500000Y-53500000D03*
X137500000Y-73500000D03*
D14*
X143800000Y-59525003D03*
D13*
X149000000Y-67500000D03*
X142000000Y-53500000D03*
X139500000Y-63000000D03*
X170000000Y-53500000D03*
D14*
%TO.N,+BATT*%
X146743241Y-66343241D03*
X153425000Y-65075000D03*
D15*
%TO.N,+3V3*%
X141400000Y-61200000D03*
X145300000Y-63000000D03*
D14*
X127100000Y-56200000D03*
D13*
%TO.N,+4V*%
X133600000Y-66800000D03*
D15*
X145700000Y-69800000D03*
X145700000Y-69100000D03*
D14*
X124425000Y-63875000D03*
D13*
X132000000Y-66800000D03*
X132800000Y-66800000D03*
D15*
X145700000Y-70500000D03*
D14*
%TO.N,Net-(D2-A)*%
X126099958Y-65750706D03*
X126100000Y-60059882D03*
D16*
%TO.N,+6V*%
X131700000Y-63300000D03*
X158500000Y-59375000D03*
X138500000Y-64800000D03*
X131700000Y-62200000D03*
X131700000Y-64500000D03*
X149100000Y-60100000D03*
X156300000Y-59375000D03*
X137408565Y-64625000D03*
X157400000Y-59375000D03*
%TO.N,+5V*%
X124300000Y-56200000D03*
X123500000Y-62000000D03*
X124300000Y-53000000D03*
X123500000Y-59000000D03*
X123500000Y-60500000D03*
X124300000Y-54700000D03*
D14*
%TO.N,/POWER_OFF*%
X139150000Y-59375000D03*
X147281233Y-58126637D03*
%TO.N,/I2C2_SDA*%
X158149997Y-63750000D03*
X146400000Y-60900000D03*
D15*
X145700000Y-58800000D03*
X143800000Y-58825000D03*
D14*
%TO.N,/I2C2_SCL*%
X158600000Y-63200000D03*
X145700000Y-60200000D03*
%TO.N,/~{RTC_ALARM}*%
X180800000Y-62200000D03*
X160550000Y-60950000D03*
%TO.N,/~{POWER_ON}*%
X138670406Y-68075000D03*
X172150000Y-68800000D03*
X126600000Y-66800000D03*
X153350000Y-68800000D03*
%TO.N,Net-(JP2-A)*%
X180800000Y-64700000D03*
%TO.N,Net-(L1-Pad2)*%
X139900000Y-73300000D03*
X140500000Y-79200000D03*
X139900000Y-79200000D03*
X141100000Y-78500000D03*
X141100000Y-73300000D03*
X139900000Y-78500000D03*
X140500000Y-74000000D03*
X141700000Y-73300000D03*
X141700000Y-74000000D03*
X141700000Y-70750006D03*
X141100000Y-74000000D03*
X139900000Y-74000000D03*
X141100000Y-70750000D03*
X140500000Y-78500000D03*
X140500000Y-70750000D03*
X141700000Y-78500000D03*
X140500000Y-73300000D03*
X141700000Y-79200000D03*
X141100000Y-79200000D03*
X139900000Y-70750000D03*
X141700000Y-69550000D03*
X141700000Y-70150003D03*
%TO.N,/5V_EN*%
X128525000Y-66800000D03*
X144750000Y-72850003D03*
%TO.N,Net-(JP3-B)*%
X180800000Y-67200000D03*
D17*
X122250000Y-67100000D03*
%TD*%
%TA.AperFunction,Conductor*%
%TO.N,GND*%
G36*
X179502777Y-50300655D02*
G01*
X179796701Y-50317162D01*
X179807724Y-50318404D01*
X180095224Y-50367252D01*
X180106018Y-50369715D01*
X180386251Y-50450449D01*
X180396722Y-50454113D01*
X180666134Y-50565708D01*
X180676136Y-50570525D01*
X180931354Y-50711578D01*
X180940755Y-50717485D01*
X181178575Y-50886228D01*
X181187254Y-50893149D01*
X181272966Y-50969745D01*
X181404697Y-51087467D01*
X181412532Y-51095302D01*
X181452416Y-51139932D01*
X181606850Y-51312745D01*
X181613771Y-51321424D01*
X181782514Y-51559244D01*
X181788421Y-51568645D01*
X181929474Y-51823863D01*
X181934291Y-51833865D01*
X182045884Y-52103273D01*
X182049551Y-52113752D01*
X182130280Y-52393966D01*
X182132750Y-52404790D01*
X182181594Y-52692270D01*
X182182837Y-52703302D01*
X182199344Y-52997222D01*
X182199500Y-53002773D01*
X182199500Y-76997226D01*
X182199344Y-77002777D01*
X182182837Y-77296697D01*
X182181594Y-77307729D01*
X182132750Y-77595209D01*
X182130280Y-77606033D01*
X182049551Y-77886247D01*
X182045884Y-77896726D01*
X181934291Y-78166134D01*
X181929474Y-78176136D01*
X181788421Y-78431354D01*
X181782514Y-78440755D01*
X181613771Y-78678575D01*
X181606850Y-78687254D01*
X181412540Y-78904689D01*
X181404689Y-78912540D01*
X181187254Y-79106850D01*
X181178575Y-79113771D01*
X180940755Y-79282514D01*
X180931354Y-79288421D01*
X180676136Y-79429474D01*
X180666134Y-79434291D01*
X180396726Y-79545884D01*
X180386247Y-79549551D01*
X180106033Y-79630280D01*
X180095209Y-79632750D01*
X179807729Y-79681594D01*
X179796697Y-79682837D01*
X179502778Y-79699344D01*
X179497227Y-79699500D01*
X142041255Y-79699500D01*
X141983064Y-79680593D01*
X141947100Y-79631093D01*
X141947100Y-79569907D01*
X141971249Y-79530498D01*
X142048528Y-79453220D01*
X142109719Y-79333126D01*
X142130804Y-79200000D01*
X142109719Y-79066874D01*
X142085033Y-79018426D01*
X142048529Y-78946782D01*
X142048528Y-78946780D01*
X142021749Y-78920001D01*
X141993974Y-78865487D01*
X142003545Y-78805055D01*
X142021750Y-78779998D01*
X142048528Y-78753220D01*
X142109719Y-78633126D01*
X142130804Y-78500000D01*
X142109719Y-78366874D01*
X142093404Y-78334855D01*
X142048529Y-78246782D01*
X142048528Y-78246780D01*
X141953220Y-78151472D01*
X141953217Y-78151470D01*
X141833129Y-78090282D01*
X141833127Y-78090281D01*
X141700000Y-78069196D01*
X141566874Y-78090281D01*
X141444945Y-78152407D01*
X141384513Y-78161978D01*
X141355055Y-78152407D01*
X141353216Y-78151470D01*
X141233126Y-78090281D01*
X141100000Y-78069196D01*
X140966874Y-78090281D01*
X140844945Y-78152407D01*
X140784513Y-78161978D01*
X140755055Y-78152407D01*
X140753216Y-78151470D01*
X140633126Y-78090281D01*
X140500000Y-78069196D01*
X140366874Y-78090281D01*
X140244945Y-78152407D01*
X140184513Y-78161978D01*
X140155055Y-78152407D01*
X140153216Y-78151470D01*
X140033126Y-78090281D01*
X139900000Y-78069196D01*
X139766872Y-78090281D01*
X139766870Y-78090282D01*
X139646782Y-78151470D01*
X139551470Y-78246782D01*
X139490282Y-78366870D01*
X139490281Y-78366872D01*
X139469196Y-78499999D01*
X139469196Y-78500000D01*
X139490281Y-78633127D01*
X139490282Y-78633129D01*
X139551470Y-78753217D01*
X139551473Y-78753222D01*
X139578249Y-78779998D01*
X139606025Y-78834515D01*
X139596453Y-78894946D01*
X139578249Y-78920002D01*
X139551473Y-78946777D01*
X139551470Y-78946782D01*
X139490282Y-79066870D01*
X139490281Y-79066872D01*
X139469196Y-79199999D01*
X139469196Y-79200000D01*
X139490281Y-79333127D01*
X139490282Y-79333129D01*
X139541827Y-79434291D01*
X139551472Y-79453220D01*
X139628750Y-79530498D01*
X139656526Y-79585013D01*
X139646955Y-79645445D01*
X139603690Y-79688710D01*
X139558745Y-79699500D01*
X120502773Y-79699500D01*
X120497222Y-79699344D01*
X120203302Y-79682837D01*
X120192270Y-79681594D01*
X119904790Y-79632750D01*
X119893966Y-79630280D01*
X119613752Y-79549551D01*
X119603273Y-79545884D01*
X119333865Y-79434291D01*
X119323863Y-79429474D01*
X119068645Y-79288421D01*
X119059244Y-79282514D01*
X118821424Y-79113771D01*
X118812745Y-79106850D01*
X118711695Y-79016547D01*
X118595302Y-78912532D01*
X118587467Y-78904697D01*
X118452099Y-78753220D01*
X118393149Y-78687254D01*
X118386228Y-78678575D01*
X118217485Y-78440755D01*
X118211578Y-78431354D01*
X118196878Y-78404757D01*
X118070525Y-78176136D01*
X118065708Y-78166134D01*
X117987874Y-77978227D01*
X117954113Y-77896722D01*
X117950448Y-77886247D01*
X117869715Y-77606018D01*
X117867252Y-77595224D01*
X117818404Y-77307724D01*
X117817162Y-77296697D01*
X117800656Y-77002777D01*
X117800500Y-76997226D01*
X117800500Y-76356765D01*
X118449500Y-76356765D01*
X118449500Y-76643234D01*
X118481573Y-76927896D01*
X118545318Y-77207185D01*
X118639930Y-77477569D01*
X118764223Y-77735667D01*
X118867481Y-77900000D01*
X118916634Y-77978227D01*
X119095243Y-78202195D01*
X119297805Y-78404757D01*
X119521773Y-78583366D01*
X119600971Y-78633129D01*
X119764332Y-78735776D01*
X119856161Y-78779998D01*
X120022428Y-78860068D01*
X120022431Y-78860069D01*
X120022430Y-78860069D01*
X120292814Y-78954681D01*
X120292817Y-78954681D01*
X120292818Y-78954682D01*
X120572102Y-79018426D01*
X120856767Y-79050500D01*
X120856768Y-79050500D01*
X121143232Y-79050500D01*
X121143233Y-79050500D01*
X121427898Y-79018426D01*
X121707182Y-78954682D01*
X121977572Y-78860068D01*
X122235669Y-78735775D01*
X122478227Y-78583366D01*
X122702195Y-78404757D01*
X122904757Y-78202195D01*
X123083366Y-77978227D01*
X123235775Y-77735669D01*
X123360068Y-77477572D01*
X123454682Y-77207182D01*
X123518426Y-76927898D01*
X123518625Y-76926128D01*
X165030000Y-76926128D01*
X165030000Y-77149999D01*
X165030001Y-77150000D01*
X165480000Y-77150000D01*
X165480000Y-77450000D01*
X165030001Y-77450000D01*
X165030000Y-77450001D01*
X165030000Y-77673871D01*
X165058821Y-77818764D01*
X165058823Y-77818770D01*
X165115358Y-77955257D01*
X165197434Y-78078093D01*
X165301906Y-78182565D01*
X165424742Y-78264641D01*
X165561235Y-78321178D01*
X165561234Y-78321178D01*
X165630000Y-78334855D01*
X165630000Y-77859808D01*
X165664204Y-77879556D01*
X165740504Y-77900000D01*
X165819496Y-77900000D01*
X165895796Y-77879556D01*
X165930000Y-77859808D01*
X165930000Y-78334854D01*
X165998765Y-78321178D01*
X166135257Y-78264641D01*
X166258093Y-78182565D01*
X166362565Y-78078093D01*
X166444641Y-77955257D01*
X166501176Y-77818770D01*
X166501178Y-77818764D01*
X166529999Y-77673871D01*
X166530000Y-77673867D01*
X166530000Y-77450001D01*
X166529999Y-77450000D01*
X166080000Y-77450000D01*
X166080000Y-77150000D01*
X166529999Y-77150000D01*
X166530000Y-77149999D01*
X166530000Y-76926132D01*
X166529999Y-76926128D01*
X173670000Y-76926128D01*
X173670000Y-77149999D01*
X173670001Y-77150000D01*
X174120000Y-77150000D01*
X174120000Y-77450000D01*
X173670001Y-77450000D01*
X173670000Y-77450001D01*
X173670000Y-77673871D01*
X173698821Y-77818764D01*
X173698823Y-77818770D01*
X173755358Y-77955257D01*
X173837434Y-78078093D01*
X173941906Y-78182565D01*
X174064742Y-78264641D01*
X174201235Y-78321178D01*
X174201234Y-78321178D01*
X174270000Y-78334855D01*
X174270000Y-77859808D01*
X174304204Y-77879556D01*
X174380504Y-77900000D01*
X174459496Y-77900000D01*
X174535796Y-77879556D01*
X174570000Y-77859808D01*
X174570000Y-78334854D01*
X174638765Y-78321178D01*
X174775257Y-78264641D01*
X174898093Y-78182565D01*
X175002565Y-78078093D01*
X175084641Y-77955257D01*
X175141176Y-77818770D01*
X175141178Y-77818764D01*
X175169999Y-77673871D01*
X175170000Y-77673867D01*
X175170000Y-77450001D01*
X175169999Y-77450000D01*
X174720000Y-77450000D01*
X174720000Y-77150000D01*
X175169999Y-77150000D01*
X175170000Y-77149999D01*
X175170000Y-76926132D01*
X175169999Y-76926128D01*
X175141178Y-76781235D01*
X175141176Y-76781229D01*
X175084641Y-76644742D01*
X175002565Y-76521906D01*
X174898093Y-76417434D01*
X174807295Y-76356765D01*
X176449500Y-76356765D01*
X176449500Y-76643234D01*
X176481573Y-76927896D01*
X176545318Y-77207185D01*
X176639930Y-77477569D01*
X176764223Y-77735667D01*
X176867481Y-77900000D01*
X176916634Y-77978227D01*
X177095243Y-78202195D01*
X177297805Y-78404757D01*
X177521773Y-78583366D01*
X177600971Y-78633129D01*
X177764332Y-78735776D01*
X177856161Y-78779998D01*
X178022428Y-78860068D01*
X178022431Y-78860069D01*
X178022430Y-78860069D01*
X178292814Y-78954681D01*
X178292817Y-78954681D01*
X178292818Y-78954682D01*
X178572102Y-79018426D01*
X178856767Y-79050500D01*
X178856768Y-79050500D01*
X179143232Y-79050500D01*
X179143233Y-79050500D01*
X179427898Y-79018426D01*
X179707182Y-78954682D01*
X179977572Y-78860068D01*
X180235669Y-78735775D01*
X180478227Y-78583366D01*
X180702195Y-78404757D01*
X180904757Y-78202195D01*
X181083366Y-77978227D01*
X181235775Y-77735669D01*
X181360068Y-77477572D01*
X181454682Y-77207182D01*
X181518426Y-76927898D01*
X181550500Y-76643233D01*
X181550500Y-76356767D01*
X181518426Y-76072102D01*
X181454682Y-75792818D01*
X181360068Y-75522428D01*
X181235776Y-75264332D01*
X181083365Y-75021772D01*
X180904757Y-74797805D01*
X180702195Y-74595243D01*
X180478227Y-74416634D01*
X180467219Y-74409717D01*
X180235667Y-74264223D01*
X179977568Y-74139930D01*
X179977569Y-74139930D01*
X179707185Y-74045318D01*
X179427896Y-73981573D01*
X179143234Y-73949500D01*
X179143233Y-73949500D01*
X178856767Y-73949500D01*
X178856765Y-73949500D01*
X178572103Y-73981573D01*
X178292814Y-74045318D01*
X178022430Y-74139930D01*
X177764332Y-74264223D01*
X177521772Y-74416634D01*
X177297806Y-74595242D01*
X177095242Y-74797806D01*
X176916634Y-75021772D01*
X176764223Y-75264332D01*
X176639930Y-75522430D01*
X176545318Y-75792814D01*
X176481573Y-76072103D01*
X176449500Y-76356765D01*
X174807295Y-76356765D01*
X174775257Y-76335358D01*
X174638767Y-76278822D01*
X174570000Y-76265143D01*
X174570000Y-76740191D01*
X174535796Y-76720444D01*
X174459496Y-76700000D01*
X174380504Y-76700000D01*
X174304204Y-76720444D01*
X174270000Y-76740191D01*
X174270000Y-76265143D01*
X174201232Y-76278822D01*
X174064742Y-76335358D01*
X173941906Y-76417434D01*
X173837434Y-76521906D01*
X173755358Y-76644742D01*
X173698823Y-76781229D01*
X173698821Y-76781235D01*
X173670000Y-76926128D01*
X166529999Y-76926128D01*
X166501178Y-76781235D01*
X166501176Y-76781229D01*
X166444641Y-76644742D01*
X166362565Y-76521906D01*
X166258093Y-76417434D01*
X166135257Y-76335358D01*
X165998767Y-76278822D01*
X165930000Y-76265143D01*
X165930000Y-76740191D01*
X165895796Y-76720444D01*
X165819496Y-76700000D01*
X165740504Y-76700000D01*
X165664204Y-76720444D01*
X165630000Y-76740191D01*
X165630000Y-76265143D01*
X165561232Y-76278822D01*
X165424742Y-76335358D01*
X165301906Y-76417434D01*
X165197434Y-76521906D01*
X165115358Y-76644742D01*
X165058823Y-76781229D01*
X165058821Y-76781235D01*
X165030000Y-76926128D01*
X123518625Y-76926128D01*
X123550500Y-76643233D01*
X123550500Y-76356767D01*
X123518426Y-76072102D01*
X123454682Y-75792818D01*
X123360068Y-75522428D01*
X123235776Y-75264332D01*
X123083365Y-75021772D01*
X122904757Y-74797805D01*
X122702195Y-74595243D01*
X122478227Y-74416634D01*
X122467219Y-74409717D01*
X122235667Y-74264223D01*
X121977568Y-74139930D01*
X121977569Y-74139930D01*
X121707185Y-74045318D01*
X121427896Y-73981573D01*
X121143234Y-73949500D01*
X121143233Y-73949500D01*
X120856767Y-73949500D01*
X120856765Y-73949500D01*
X120572103Y-73981573D01*
X120292814Y-74045318D01*
X120022430Y-74139930D01*
X119764332Y-74264223D01*
X119521772Y-74416634D01*
X119297806Y-74595242D01*
X119095242Y-74797806D01*
X118916634Y-75021772D01*
X118764223Y-75264332D01*
X118639930Y-75522430D01*
X118545318Y-75792814D01*
X118481573Y-76072103D01*
X118449500Y-76356765D01*
X117800500Y-76356765D01*
X117800500Y-73299999D01*
X139469196Y-73299999D01*
X139469196Y-73300000D01*
X139490281Y-73433127D01*
X139490282Y-73433129D01*
X139551470Y-73553217D01*
X139551473Y-73553222D01*
X139578249Y-73579998D01*
X139606025Y-73634515D01*
X139596453Y-73694946D01*
X139578249Y-73720002D01*
X139551473Y-73746777D01*
X139551470Y-73746782D01*
X139490282Y-73866870D01*
X139490281Y-73866872D01*
X139469196Y-73999999D01*
X139469196Y-74000000D01*
X139490281Y-74133127D01*
X139490282Y-74133129D01*
X139501557Y-74155257D01*
X139551472Y-74253220D01*
X139646780Y-74348528D01*
X139766874Y-74409719D01*
X139900000Y-74430804D01*
X140033126Y-74409719D01*
X140153220Y-74348528D01*
X140153221Y-74348526D01*
X140155054Y-74347593D01*
X140215486Y-74338021D01*
X140244946Y-74347593D01*
X140246778Y-74348526D01*
X140246780Y-74348528D01*
X140366874Y-74409719D01*
X140500000Y-74430804D01*
X140633126Y-74409719D01*
X140753220Y-74348528D01*
X140753221Y-74348526D01*
X140755054Y-74347593D01*
X140815486Y-74338021D01*
X140844946Y-74347593D01*
X140846778Y-74348526D01*
X140846780Y-74348528D01*
X140966874Y-74409719D01*
X141100000Y-74430804D01*
X141233126Y-74409719D01*
X141353220Y-74348528D01*
X141353221Y-74348526D01*
X141355054Y-74347593D01*
X141415486Y-74338021D01*
X141444946Y-74347593D01*
X141446778Y-74348526D01*
X141446780Y-74348528D01*
X141566874Y-74409719D01*
X141700000Y-74430804D01*
X141833126Y-74409719D01*
X141953220Y-74348528D01*
X142048528Y-74253220D01*
X142109719Y-74133126D01*
X142130804Y-74000000D01*
X142127885Y-73981573D01*
X142126835Y-73974945D01*
X142109719Y-73866874D01*
X142048528Y-73746780D01*
X142021749Y-73720001D01*
X141993974Y-73665487D01*
X142003545Y-73605055D01*
X142021750Y-73579998D01*
X142048528Y-73553220D01*
X142109719Y-73433126D01*
X142130804Y-73300000D01*
X142109719Y-73166874D01*
X142048528Y-73046780D01*
X141953220Y-72951472D01*
X141953217Y-72951470D01*
X141833129Y-72890282D01*
X141833127Y-72890281D01*
X141700000Y-72869196D01*
X141566874Y-72890281D01*
X141444945Y-72952407D01*
X141384513Y-72961978D01*
X141355055Y-72952407D01*
X141292324Y-72920444D01*
X141233126Y-72890281D01*
X141100000Y-72869196D01*
X140966874Y-72890281D01*
X140844945Y-72952407D01*
X140784513Y-72961978D01*
X140755055Y-72952407D01*
X140692324Y-72920444D01*
X140633126Y-72890281D01*
X140500000Y-72869196D01*
X140366874Y-72890281D01*
X140244945Y-72952407D01*
X140184513Y-72961978D01*
X140155055Y-72952407D01*
X140092324Y-72920444D01*
X140033126Y-72890281D01*
X139900000Y-72869196D01*
X139766872Y-72890281D01*
X139766870Y-72890282D01*
X139646782Y-72951470D01*
X139551470Y-73046782D01*
X139490282Y-73166870D01*
X139490281Y-73166872D01*
X139469196Y-73299999D01*
X117800500Y-73299999D01*
X117800500Y-72850002D01*
X144319196Y-72850002D01*
X144319196Y-72850003D01*
X144340281Y-72983130D01*
X144340282Y-72983132D01*
X144391781Y-73084204D01*
X144401472Y-73103223D01*
X144496780Y-73198531D01*
X144616874Y-73259722D01*
X144750000Y-73280807D01*
X144883126Y-73259722D01*
X145003220Y-73198531D01*
X145075623Y-73126128D01*
X165030000Y-73126128D01*
X165030000Y-73349999D01*
X165030001Y-73350000D01*
X165480000Y-73350000D01*
X165480000Y-73650000D01*
X165030001Y-73650000D01*
X165030000Y-73650001D01*
X165030000Y-73873871D01*
X165058821Y-74018764D01*
X165058823Y-74018770D01*
X165115358Y-74155257D01*
X165197434Y-74278093D01*
X165301906Y-74382565D01*
X165424742Y-74464641D01*
X165561235Y-74521178D01*
X165561234Y-74521178D01*
X165630000Y-74534855D01*
X165630000Y-74059808D01*
X165664204Y-74079556D01*
X165740504Y-74100000D01*
X165819496Y-74100000D01*
X165895796Y-74079556D01*
X165930000Y-74059808D01*
X165930000Y-74534854D01*
X165998765Y-74521178D01*
X166135257Y-74464641D01*
X166258093Y-74382565D01*
X166362565Y-74278093D01*
X166444641Y-74155257D01*
X166501176Y-74018770D01*
X166501178Y-74018764D01*
X166529999Y-73873871D01*
X166530000Y-73873867D01*
X166530000Y-73650001D01*
X166529999Y-73650000D01*
X166080000Y-73650000D01*
X166080000Y-73350000D01*
X166529999Y-73350000D01*
X166530000Y-73349999D01*
X166530000Y-73126132D01*
X166529999Y-73126128D01*
X173670000Y-73126128D01*
X173670000Y-73349999D01*
X173670001Y-73350000D01*
X174120000Y-73350000D01*
X174120000Y-73650000D01*
X173670001Y-73650000D01*
X173670000Y-73650001D01*
X173670000Y-73873871D01*
X173698821Y-74018764D01*
X173698823Y-74018770D01*
X173755358Y-74155257D01*
X173837434Y-74278093D01*
X173941906Y-74382565D01*
X174064742Y-74464641D01*
X174201235Y-74521178D01*
X174201234Y-74521178D01*
X174270000Y-74534855D01*
X174270000Y-74059808D01*
X174304204Y-74079556D01*
X174380504Y-74100000D01*
X174459496Y-74100000D01*
X174535796Y-74079556D01*
X174570000Y-74059808D01*
X174570000Y-74534854D01*
X174638765Y-74521178D01*
X174775257Y-74464641D01*
X174898093Y-74382565D01*
X175002565Y-74278093D01*
X175084641Y-74155257D01*
X175141176Y-74018770D01*
X175141178Y-74018764D01*
X175169999Y-73873871D01*
X175170000Y-73873867D01*
X175170000Y-73650001D01*
X175169999Y-73650000D01*
X174720000Y-73650000D01*
X174720000Y-73350000D01*
X175169999Y-73350000D01*
X175170000Y-73349999D01*
X175170000Y-73126132D01*
X175169999Y-73126128D01*
X175141178Y-72981235D01*
X175141176Y-72981229D01*
X175084641Y-72844742D01*
X175002565Y-72721906D01*
X174898093Y-72617434D01*
X174775257Y-72535358D01*
X174638767Y-72478822D01*
X174570000Y-72465143D01*
X174570000Y-72940191D01*
X174535796Y-72920444D01*
X174459496Y-72900000D01*
X174380504Y-72900000D01*
X174304204Y-72920444D01*
X174270000Y-72940191D01*
X174270000Y-72465143D01*
X174201232Y-72478822D01*
X174064742Y-72535358D01*
X173941906Y-72617434D01*
X173837434Y-72721906D01*
X173755358Y-72844742D01*
X173698823Y-72981229D01*
X173698821Y-72981235D01*
X173670000Y-73126128D01*
X166529999Y-73126128D01*
X166501178Y-72981235D01*
X166501176Y-72981229D01*
X166444641Y-72844742D01*
X166362565Y-72721906D01*
X166258093Y-72617434D01*
X166135257Y-72535358D01*
X165998767Y-72478822D01*
X165930000Y-72465143D01*
X165930000Y-72940191D01*
X165895796Y-72920444D01*
X165819496Y-72900000D01*
X165740504Y-72900000D01*
X165664204Y-72920444D01*
X165630000Y-72940191D01*
X165630000Y-72465143D01*
X165561232Y-72478822D01*
X165424742Y-72535358D01*
X165301906Y-72617434D01*
X165197434Y-72721906D01*
X165115358Y-72844742D01*
X165058823Y-72981229D01*
X165058821Y-72981235D01*
X165030000Y-73126128D01*
X145075623Y-73126128D01*
X145098528Y-73103223D01*
X145159719Y-72983129D01*
X145180804Y-72850003D01*
X145159719Y-72716877D01*
X145098528Y-72596783D01*
X145003220Y-72501475D01*
X145003217Y-72501473D01*
X144883129Y-72440285D01*
X144883127Y-72440284D01*
X144750000Y-72419199D01*
X144616872Y-72440284D01*
X144616870Y-72440285D01*
X144496782Y-72501473D01*
X144401470Y-72596785D01*
X144340282Y-72716873D01*
X144340281Y-72716875D01*
X144319196Y-72850002D01*
X117800500Y-72850002D01*
X117800500Y-70749999D01*
X139469196Y-70749999D01*
X139469196Y-70750000D01*
X139490281Y-70883127D01*
X139490282Y-70883129D01*
X139551470Y-71003217D01*
X139551472Y-71003220D01*
X139646780Y-71098528D01*
X139766874Y-71159719D01*
X139900000Y-71180804D01*
X140033126Y-71159719D01*
X140153220Y-71098528D01*
X140153221Y-71098526D01*
X140155054Y-71097593D01*
X140215486Y-71088021D01*
X140244946Y-71097593D01*
X140246778Y-71098526D01*
X140246780Y-71098528D01*
X140366874Y-71159719D01*
X140500000Y-71180804D01*
X140633126Y-71159719D01*
X140753220Y-71098528D01*
X140753221Y-71098526D01*
X140755054Y-71097593D01*
X140815486Y-71088021D01*
X140844946Y-71097593D01*
X140846778Y-71098526D01*
X140846780Y-71098528D01*
X140966874Y-71159719D01*
X141100000Y-71180804D01*
X141233126Y-71159719D01*
X141353220Y-71098528D01*
X141353221Y-71098526D01*
X141355048Y-71097596D01*
X141415480Y-71088024D01*
X141444940Y-71097596D01*
X141446779Y-71098533D01*
X141446780Y-71098534D01*
X141566874Y-71159725D01*
X141700000Y-71180810D01*
X141833126Y-71159725D01*
X141953220Y-71098534D01*
X142048528Y-71003226D01*
X142109719Y-70883132D01*
X142130804Y-70750006D01*
X142109719Y-70616880D01*
X142048528Y-70496786D01*
X142048526Y-70496784D01*
X142047592Y-70494950D01*
X142038020Y-70434518D01*
X142047592Y-70405058D01*
X142048525Y-70403225D01*
X142048528Y-70403223D01*
X142109719Y-70283129D01*
X142130804Y-70150003D01*
X142109719Y-70016877D01*
X142048528Y-69896783D01*
X142048526Y-69896781D01*
X142047592Y-69894947D01*
X142038020Y-69834515D01*
X142047592Y-69805055D01*
X142048525Y-69803222D01*
X142048528Y-69803220D01*
X142109719Y-69683126D01*
X142130804Y-69550000D01*
X142109719Y-69416874D01*
X142093564Y-69385169D01*
X142048529Y-69296782D01*
X142048528Y-69296780D01*
X141953220Y-69201472D01*
X141953217Y-69201470D01*
X141833129Y-69140282D01*
X141833127Y-69140281D01*
X141700000Y-69119196D01*
X141566872Y-69140281D01*
X141566870Y-69140282D01*
X141446782Y-69201470D01*
X141351470Y-69296782D01*
X141290282Y-69416870D01*
X141290281Y-69416872D01*
X141269196Y-69549999D01*
X141269196Y-69550000D01*
X141290281Y-69683127D01*
X141320745Y-69742915D01*
X141351472Y-69803220D01*
X141351473Y-69803221D01*
X141352407Y-69805054D01*
X141361979Y-69865486D01*
X141352408Y-69894945D01*
X141290281Y-70016877D01*
X141269196Y-70150002D01*
X141269196Y-70150004D01*
X141279720Y-70216454D01*
X141270148Y-70276886D01*
X141226883Y-70320150D01*
X141166452Y-70329720D01*
X141100000Y-70319196D01*
X140966874Y-70340281D01*
X140844945Y-70402407D01*
X140784513Y-70411978D01*
X140755055Y-70402407D01*
X140680976Y-70364662D01*
X140633126Y-70340281D01*
X140500000Y-70319196D01*
X140366874Y-70340281D01*
X140244945Y-70402407D01*
X140184513Y-70411978D01*
X140155055Y-70402407D01*
X140080976Y-70364662D01*
X140033126Y-70340281D01*
X139900000Y-70319196D01*
X139766872Y-70340281D01*
X139766870Y-70340282D01*
X139646782Y-70401470D01*
X139551470Y-70496782D01*
X139490282Y-70616870D01*
X139490281Y-70616872D01*
X139469196Y-70749999D01*
X117800500Y-70749999D01*
X117800500Y-69099997D01*
X145219610Y-69099997D01*
X145219610Y-69100002D01*
X145239067Y-69235337D01*
X145239069Y-69235345D01*
X145295866Y-69359712D01*
X145295870Y-69359718D01*
X145317924Y-69385170D01*
X145341741Y-69441530D01*
X145327882Y-69501125D01*
X145317924Y-69514830D01*
X145295870Y-69540281D01*
X145295866Y-69540287D01*
X145239069Y-69664654D01*
X145239067Y-69664662D01*
X145219610Y-69799997D01*
X145219610Y-69800002D01*
X145239067Y-69935337D01*
X145239069Y-69935345D01*
X145295866Y-70059712D01*
X145295870Y-70059718D01*
X145317924Y-70085170D01*
X145341741Y-70141530D01*
X145327882Y-70201125D01*
X145317924Y-70214830D01*
X145295870Y-70240281D01*
X145295866Y-70240287D01*
X145239069Y-70364654D01*
X145239067Y-70364662D01*
X145219610Y-70499997D01*
X145219610Y-70500002D01*
X145239067Y-70635337D01*
X145239069Y-70635345D01*
X145295868Y-70759715D01*
X145295869Y-70759716D01*
X145295870Y-70759718D01*
X145385411Y-70863055D01*
X145500439Y-70936978D01*
X145631633Y-70975500D01*
X145631634Y-70975500D01*
X145768366Y-70975500D01*
X145768367Y-70975500D01*
X145899561Y-70936978D01*
X146014589Y-70863055D01*
X146104130Y-70759718D01*
X146160931Y-70635342D01*
X146160932Y-70635337D01*
X146180390Y-70500002D01*
X146180390Y-70499997D01*
X146160932Y-70364662D01*
X146160930Y-70364654D01*
X146104131Y-70240283D01*
X146104130Y-70240281D01*
X146082077Y-70214831D01*
X146058259Y-70158472D01*
X146072118Y-70098877D01*
X146082077Y-70085169D01*
X146104130Y-70059718D01*
X146104131Y-70059716D01*
X146160930Y-69935345D01*
X146160932Y-69935337D01*
X146180390Y-69800002D01*
X146180390Y-69799997D01*
X146160932Y-69664662D01*
X146160930Y-69664654D01*
X146104131Y-69540283D01*
X146104130Y-69540281D01*
X146082077Y-69514831D01*
X146058259Y-69458472D01*
X146072118Y-69398877D01*
X146082077Y-69385169D01*
X146104130Y-69359718D01*
X146104131Y-69359716D01*
X146160930Y-69235345D01*
X146160932Y-69235337D01*
X146180390Y-69100002D01*
X146180390Y-69099997D01*
X146160932Y-68964662D01*
X146160930Y-68964654D01*
X146104131Y-68840284D01*
X146104130Y-68840283D01*
X146104130Y-68840282D01*
X146069225Y-68799999D01*
X152919196Y-68799999D01*
X152919196Y-68800000D01*
X152940281Y-68933127D01*
X152940282Y-68933129D01*
X152956345Y-68964654D01*
X153001472Y-69053220D01*
X153096780Y-69148528D01*
X153216874Y-69209719D01*
X153350000Y-69230804D01*
X153483126Y-69209719D01*
X153603220Y-69148528D01*
X153698528Y-69053220D01*
X153759719Y-68933126D01*
X153780804Y-68800000D01*
X153780804Y-68799999D01*
X171719196Y-68799999D01*
X171719196Y-68800000D01*
X171740281Y-68933127D01*
X171740282Y-68933129D01*
X171756345Y-68964654D01*
X171801472Y-69053220D01*
X171896780Y-69148528D01*
X172016874Y-69209719D01*
X172150000Y-69230804D01*
X172283126Y-69209719D01*
X172403220Y-69148528D01*
X172498528Y-69053220D01*
X172559719Y-68933126D01*
X172580804Y-68800000D01*
X172559719Y-68666874D01*
X172498528Y-68546780D01*
X172403220Y-68451472D01*
X172403217Y-68451470D01*
X172283129Y-68390282D01*
X172283127Y-68390281D01*
X172150000Y-68369196D01*
X172016872Y-68390281D01*
X172016870Y-68390282D01*
X171896782Y-68451470D01*
X171801470Y-68546782D01*
X171740282Y-68666870D01*
X171740281Y-68666872D01*
X171719196Y-68799999D01*
X153780804Y-68799999D01*
X153759719Y-68666874D01*
X153698528Y-68546780D01*
X153603220Y-68451472D01*
X153603217Y-68451470D01*
X153483129Y-68390282D01*
X153483127Y-68390281D01*
X153350000Y-68369196D01*
X153216872Y-68390281D01*
X153216870Y-68390282D01*
X153096782Y-68451470D01*
X153001470Y-68546782D01*
X152940282Y-68666870D01*
X152940281Y-68666872D01*
X152919196Y-68799999D01*
X146069225Y-68799999D01*
X146014589Y-68736945D01*
X145899561Y-68663022D01*
X145899558Y-68663021D01*
X145768368Y-68624500D01*
X145768367Y-68624500D01*
X145631633Y-68624500D01*
X145631631Y-68624500D01*
X145500441Y-68663021D01*
X145500439Y-68663021D01*
X145500439Y-68663022D01*
X145385411Y-68736945D01*
X145385410Y-68736945D01*
X145385410Y-68736946D01*
X145295868Y-68840284D01*
X145239069Y-68964654D01*
X145239067Y-68964662D01*
X145219610Y-69099997D01*
X117800500Y-69099997D01*
X117800500Y-68074999D01*
X138239602Y-68074999D01*
X138239602Y-68075000D01*
X138260687Y-68208127D01*
X138260688Y-68208129D01*
X138321876Y-68328217D01*
X138321878Y-68328220D01*
X138417186Y-68423528D01*
X138537280Y-68484719D01*
X138670406Y-68505804D01*
X138803532Y-68484719D01*
X138923626Y-68423528D01*
X139018934Y-68328220D01*
X139080125Y-68208126D01*
X139101210Y-68075000D01*
X139080125Y-67941874D01*
X139018934Y-67821780D01*
X138923626Y-67726472D01*
X138923623Y-67726470D01*
X138803535Y-67665282D01*
X138803533Y-67665281D01*
X138670406Y-67644196D01*
X138537278Y-67665281D01*
X138537276Y-67665282D01*
X138417188Y-67726470D01*
X138321876Y-67821782D01*
X138260688Y-67941870D01*
X138260687Y-67941872D01*
X138239602Y-68074999D01*
X117800500Y-68074999D01*
X117800500Y-67099999D01*
X121694750Y-67099999D01*
X121694750Y-67100000D01*
X121713669Y-67243708D01*
X121713670Y-67243709D01*
X121750707Y-67333127D01*
X121769139Y-67377625D01*
X121857379Y-67492621D01*
X121972375Y-67580861D01*
X122106291Y-67636330D01*
X122250000Y-67655250D01*
X122393709Y-67636330D01*
X122527625Y-67580861D01*
X122642621Y-67492621D01*
X122730861Y-67377625D01*
X122786330Y-67243709D01*
X122805250Y-67100000D01*
X122801744Y-67073373D01*
X122786330Y-66956291D01*
X122730861Y-66822375D01*
X122713691Y-66799999D01*
X126169196Y-66799999D01*
X126169196Y-66800000D01*
X126190281Y-66933127D01*
X126190282Y-66933129D01*
X126202084Y-66956291D01*
X126251472Y-67053220D01*
X126346780Y-67148528D01*
X126466874Y-67209719D01*
X126600000Y-67230804D01*
X126733126Y-67209719D01*
X126853220Y-67148528D01*
X126948528Y-67053220D01*
X127009719Y-66933126D01*
X127030804Y-66800000D01*
X127030804Y-66799999D01*
X128094196Y-66799999D01*
X128094196Y-66800000D01*
X128115281Y-66933127D01*
X128115282Y-66933129D01*
X128127084Y-66956291D01*
X128176472Y-67053220D01*
X128271780Y-67148528D01*
X128391874Y-67209719D01*
X128525000Y-67230804D01*
X128658126Y-67209719D01*
X128778220Y-67148528D01*
X128873528Y-67053220D01*
X128934719Y-66933126D01*
X128955804Y-66800000D01*
X128955804Y-66799997D01*
X131494353Y-66799997D01*
X131494353Y-66800002D01*
X131514834Y-66942456D01*
X131565418Y-67053217D01*
X131574623Y-67073373D01*
X131665840Y-67178644D01*
X131668873Y-67182144D01*
X131789942Y-67259950D01*
X131789947Y-67259953D01*
X131896403Y-67291211D01*
X131928035Y-67300499D01*
X131928036Y-67300499D01*
X131928039Y-67300500D01*
X131928041Y-67300500D01*
X132071959Y-67300500D01*
X132071961Y-67300500D01*
X132210053Y-67259953D01*
X132331128Y-67182143D01*
X132331136Y-67182133D01*
X132335165Y-67178644D01*
X132391523Y-67154824D01*
X132451119Y-67168679D01*
X132464835Y-67178644D01*
X132468866Y-67182137D01*
X132468872Y-67182143D01*
X132589947Y-67259953D01*
X132696403Y-67291211D01*
X132728035Y-67300499D01*
X132728036Y-67300499D01*
X132728039Y-67300500D01*
X132728041Y-67300500D01*
X132871959Y-67300500D01*
X132871961Y-67300500D01*
X133010053Y-67259953D01*
X133131128Y-67182143D01*
X133131136Y-67182133D01*
X133135165Y-67178644D01*
X133191523Y-67154824D01*
X133251119Y-67168679D01*
X133264835Y-67178644D01*
X133268866Y-67182137D01*
X133268872Y-67182143D01*
X133389947Y-67259953D01*
X133496403Y-67291211D01*
X133528035Y-67300499D01*
X133528036Y-67300499D01*
X133528039Y-67300500D01*
X133528041Y-67300500D01*
X133671959Y-67300500D01*
X133671961Y-67300500D01*
X133810053Y-67259953D01*
X133903343Y-67199999D01*
X180369196Y-67199999D01*
X180369196Y-67200000D01*
X180390281Y-67333127D01*
X180390282Y-67333129D01*
X180412952Y-67377621D01*
X180451472Y-67453220D01*
X180546780Y-67548528D01*
X180666874Y-67609719D01*
X180800000Y-67630804D01*
X180933126Y-67609719D01*
X181053220Y-67548528D01*
X181148528Y-67453220D01*
X181209719Y-67333126D01*
X181230804Y-67200000D01*
X181209719Y-67066874D01*
X181148528Y-66946780D01*
X181053220Y-66851472D01*
X181053217Y-66851470D01*
X180933129Y-66790282D01*
X180933127Y-66790281D01*
X180800000Y-66769196D01*
X180666872Y-66790281D01*
X180666870Y-66790282D01*
X180546782Y-66851470D01*
X180451470Y-66946782D01*
X180390282Y-67066870D01*
X180390281Y-67066872D01*
X180369196Y-67199999D01*
X133903343Y-67199999D01*
X133931128Y-67182143D01*
X134025377Y-67073373D01*
X134085165Y-66942457D01*
X134105647Y-66800000D01*
X134101915Y-66774045D01*
X134085165Y-66657543D01*
X134042294Y-66563670D01*
X134025377Y-66526627D01*
X133931128Y-66417857D01*
X133931127Y-66417856D01*
X133931126Y-66417855D01*
X133815022Y-66343240D01*
X146312437Y-66343240D01*
X146312437Y-66343241D01*
X146333522Y-66476368D01*
X146333523Y-66476370D01*
X146378005Y-66563670D01*
X146394713Y-66596461D01*
X146490021Y-66691769D01*
X146610115Y-66752960D01*
X146743241Y-66774045D01*
X146876367Y-66752960D01*
X146996461Y-66691769D01*
X147091769Y-66596461D01*
X147152960Y-66476367D01*
X147174045Y-66343241D01*
X147173539Y-66340049D01*
X147167117Y-66299500D01*
X147152960Y-66210115D01*
X147091769Y-66090021D01*
X146996461Y-65994713D01*
X146996458Y-65994711D01*
X146876370Y-65933523D01*
X146876368Y-65933522D01*
X146743241Y-65912437D01*
X146610113Y-65933522D01*
X146610111Y-65933523D01*
X146490023Y-65994711D01*
X146394711Y-66090023D01*
X146333523Y-66210111D01*
X146333522Y-66210113D01*
X146312437Y-66343240D01*
X133815022Y-66343240D01*
X133810057Y-66340049D01*
X133810054Y-66340047D01*
X133810053Y-66340047D01*
X133810050Y-66340046D01*
X133671964Y-66299500D01*
X133671961Y-66299500D01*
X133528039Y-66299500D01*
X133528035Y-66299500D01*
X133389949Y-66340046D01*
X133389942Y-66340049D01*
X133268872Y-66417856D01*
X133264830Y-66421359D01*
X133208471Y-66445176D01*
X133148876Y-66431317D01*
X133135170Y-66421359D01*
X133131127Y-66417856D01*
X133010057Y-66340049D01*
X133010054Y-66340047D01*
X133010053Y-66340047D01*
X133010050Y-66340046D01*
X132871964Y-66299500D01*
X132871961Y-66299500D01*
X132728039Y-66299500D01*
X132728035Y-66299500D01*
X132589949Y-66340046D01*
X132589942Y-66340049D01*
X132468872Y-66417856D01*
X132464830Y-66421359D01*
X132408471Y-66445176D01*
X132348876Y-66431317D01*
X132335170Y-66421359D01*
X132331127Y-66417856D01*
X132210057Y-66340049D01*
X132210054Y-66340047D01*
X132210053Y-66340047D01*
X132210050Y-66340046D01*
X132071964Y-66299500D01*
X132071961Y-66299500D01*
X131928039Y-66299500D01*
X131928035Y-66299500D01*
X131789949Y-66340046D01*
X131789942Y-66340049D01*
X131668873Y-66417855D01*
X131574622Y-66526628D01*
X131514834Y-66657543D01*
X131494353Y-66799997D01*
X128955804Y-66799997D01*
X128934719Y-66666874D01*
X128873528Y-66546780D01*
X128778220Y-66451472D01*
X128778217Y-66451470D01*
X128658129Y-66390282D01*
X128658127Y-66390281D01*
X128525000Y-66369196D01*
X128391872Y-66390281D01*
X128391870Y-66390282D01*
X128271782Y-66451470D01*
X128176470Y-66546782D01*
X128115282Y-66666870D01*
X128115281Y-66666872D01*
X128094196Y-66799999D01*
X127030804Y-66799999D01*
X127009719Y-66666874D01*
X126948528Y-66546780D01*
X126853220Y-66451472D01*
X126853217Y-66451470D01*
X126733129Y-66390282D01*
X126733127Y-66390281D01*
X126600000Y-66369196D01*
X126466872Y-66390281D01*
X126466870Y-66390282D01*
X126346782Y-66451470D01*
X126251470Y-66546782D01*
X126190282Y-66666870D01*
X126190281Y-66666872D01*
X126169196Y-66799999D01*
X122713691Y-66799999D01*
X122642621Y-66707379D01*
X122527625Y-66619139D01*
X122527621Y-66619137D01*
X122393709Y-66563670D01*
X122393708Y-66563669D01*
X122250000Y-66544750D01*
X122106291Y-66563669D01*
X122106290Y-66563670D01*
X121972378Y-66619137D01*
X121972374Y-66619139D01*
X121857381Y-66707377D01*
X121857377Y-66707381D01*
X121769139Y-66822374D01*
X121769137Y-66822378D01*
X121713670Y-66956290D01*
X121713669Y-66956291D01*
X121694750Y-67099999D01*
X117800500Y-67099999D01*
X117800500Y-62900645D01*
X118849500Y-62900645D01*
X118849500Y-63559354D01*
X118852353Y-63589776D01*
X118852353Y-63589778D01*
X118852354Y-63589780D01*
X118863551Y-63621780D01*
X118897198Y-63717938D01*
X118977818Y-63827174D01*
X118977822Y-63827178D01*
X119026048Y-63862770D01*
X119061641Y-63912538D01*
X119061183Y-63973722D01*
X119037265Y-64012428D01*
X119011864Y-64037829D01*
X119011856Y-64037839D01*
X118932511Y-64156585D01*
X118932511Y-64156586D01*
X118877861Y-64288523D01*
X118877860Y-64288526D01*
X118865633Y-64349999D01*
X118865634Y-64350000D01*
X119353590Y-64350000D01*
X119350556Y-64355255D01*
X119325000Y-64450630D01*
X119325000Y-64549370D01*
X119350556Y-64644745D01*
X119353590Y-64650000D01*
X118865633Y-64650000D01*
X118877860Y-64711473D01*
X118877861Y-64711476D01*
X118932511Y-64843413D01*
X118932511Y-64843414D01*
X119011856Y-64962160D01*
X119011859Y-64962164D01*
X119114338Y-65064643D01*
X119142115Y-65119160D01*
X119132544Y-65179592D01*
X119114338Y-65204651D01*
X119011471Y-65307517D01*
X119011468Y-65307521D01*
X118932074Y-65426340D01*
X118932068Y-65426351D01*
X118877381Y-65558378D01*
X118877381Y-65558380D01*
X118849500Y-65698542D01*
X118849500Y-65841457D01*
X118877381Y-65981619D01*
X118877381Y-65981621D01*
X118932068Y-66113648D01*
X118932074Y-66113659D01*
X118963322Y-66160424D01*
X119011468Y-66232479D01*
X119112521Y-66333532D01*
X119165896Y-66369196D01*
X119231340Y-66412925D01*
X119231351Y-66412931D01*
X119275739Y-66431317D01*
X119363380Y-66467619D01*
X119503545Y-66495500D01*
X119503546Y-66495500D01*
X119896454Y-66495500D01*
X119896455Y-66495500D01*
X120036620Y-66467619D01*
X120168653Y-66412929D01*
X120287479Y-66333532D01*
X120388532Y-66232479D01*
X120467929Y-66113653D01*
X120522619Y-65981620D01*
X120550500Y-65841455D01*
X120550500Y-65750705D01*
X125669154Y-65750705D01*
X125669154Y-65750706D01*
X125690239Y-65883833D01*
X125690240Y-65883835D01*
X125751428Y-66003923D01*
X125751430Y-66003926D01*
X125846738Y-66099234D01*
X125966832Y-66160425D01*
X126099958Y-66181510D01*
X126233084Y-66160425D01*
X126353178Y-66099234D01*
X126448486Y-66003926D01*
X126509677Y-65883832D01*
X126530762Y-65750706D01*
X126509677Y-65617580D01*
X126448486Y-65497486D01*
X126353178Y-65402178D01*
X126353175Y-65402176D01*
X126233087Y-65340988D01*
X126233085Y-65340987D01*
X126099958Y-65319902D01*
X125966830Y-65340987D01*
X125966828Y-65340988D01*
X125846740Y-65402176D01*
X125751428Y-65497488D01*
X125690240Y-65617576D01*
X125690239Y-65617578D01*
X125669154Y-65750705D01*
X120550500Y-65750705D01*
X120550500Y-65698545D01*
X120522619Y-65558380D01*
X120467929Y-65426347D01*
X120467928Y-65426345D01*
X120467925Y-65426340D01*
X120435866Y-65378362D01*
X120388532Y-65307521D01*
X120287479Y-65206468D01*
X120285661Y-65204650D01*
X120257884Y-65150133D01*
X120267455Y-65089701D01*
X120285662Y-65064642D01*
X120388136Y-64962169D01*
X120388143Y-64962160D01*
X120467488Y-64843414D01*
X120467488Y-64843413D01*
X120522138Y-64711476D01*
X120522139Y-64711473D01*
X120534367Y-64650000D01*
X120046410Y-64650000D01*
X120049444Y-64644745D01*
X120075000Y-64549370D01*
X120075000Y-64450630D01*
X120049444Y-64355255D01*
X120046410Y-64350000D01*
X120534366Y-64350000D01*
X120534366Y-64349999D01*
X120522139Y-64288526D01*
X120522138Y-64288523D01*
X120467488Y-64156586D01*
X120467488Y-64156585D01*
X120388143Y-64037839D01*
X120388140Y-64037835D01*
X120362735Y-64012430D01*
X120334958Y-63957913D01*
X120344529Y-63897481D01*
X120363586Y-63874999D01*
X123994196Y-63874999D01*
X123994196Y-63875000D01*
X124015281Y-64008127D01*
X124015282Y-64008129D01*
X124074831Y-64125000D01*
X124076472Y-64128220D01*
X124171780Y-64223528D01*
X124291874Y-64284719D01*
X124425000Y-64305804D01*
X124558126Y-64284719D01*
X124678220Y-64223528D01*
X124773528Y-64128220D01*
X124834719Y-64008126D01*
X124855804Y-63875000D01*
X124854529Y-63866953D01*
X124847324Y-63821458D01*
X124834719Y-63741874D01*
X124773528Y-63621780D01*
X124678220Y-63526472D01*
X124678217Y-63526470D01*
X124558129Y-63465282D01*
X124558127Y-63465281D01*
X124425000Y-63444196D01*
X124291872Y-63465281D01*
X124291870Y-63465282D01*
X124171782Y-63526470D01*
X124076470Y-63621782D01*
X124015282Y-63741870D01*
X124015281Y-63741872D01*
X123994196Y-63874999D01*
X120363586Y-63874999D01*
X120373951Y-63862771D01*
X120422178Y-63827178D01*
X120485138Y-63741870D01*
X120502801Y-63717938D01*
X120502801Y-63717937D01*
X120502803Y-63717935D01*
X120547646Y-63589780D01*
X120550499Y-63559353D01*
X120550500Y-63559353D01*
X120550500Y-62900647D01*
X120550499Y-62900645D01*
X120547646Y-62870223D01*
X120547646Y-62870220D01*
X120502803Y-62742065D01*
X120502801Y-62742063D01*
X120502801Y-62742061D01*
X120422181Y-62632825D01*
X120422174Y-62632818D01*
X120312938Y-62552198D01*
X120298753Y-62547234D01*
X120184780Y-62507354D01*
X120184778Y-62507353D01*
X120184776Y-62507353D01*
X120154354Y-62504500D01*
X120154346Y-62504500D01*
X119245654Y-62504500D01*
X119245645Y-62504500D01*
X119215223Y-62507353D01*
X119087061Y-62552198D01*
X118977825Y-62632818D01*
X118977818Y-62632825D01*
X118897198Y-62742061D01*
X118852353Y-62870223D01*
X118849500Y-62900645D01*
X117800500Y-62900645D01*
X117800500Y-61999999D01*
X122894318Y-61999999D01*
X122894318Y-62000000D01*
X122914955Y-62156758D01*
X122914957Y-62156766D01*
X122975462Y-62302838D01*
X122975462Y-62302839D01*
X123016842Y-62356766D01*
X123071718Y-62428282D01*
X123197159Y-62524536D01*
X123197160Y-62524536D01*
X123197161Y-62524537D01*
X123255083Y-62548529D01*
X123343238Y-62585044D01*
X123460809Y-62600522D01*
X123499999Y-62605682D01*
X123500000Y-62605682D01*
X123500001Y-62605682D01*
X123531352Y-62601554D01*
X123656762Y-62585044D01*
X123802841Y-62524536D01*
X123928282Y-62428282D01*
X124024536Y-62302841D01*
X124067135Y-62199999D01*
X131094318Y-62199999D01*
X131094318Y-62200000D01*
X131114955Y-62356758D01*
X131114957Y-62356766D01*
X131175462Y-62502838D01*
X131175462Y-62502839D01*
X131257473Y-62609718D01*
X131271718Y-62628282D01*
X131271722Y-62628285D01*
X131271723Y-62628286D01*
X131327986Y-62671458D01*
X131362642Y-62721882D01*
X131361041Y-62783047D01*
X131327986Y-62828542D01*
X131271723Y-62871713D01*
X131271713Y-62871723D01*
X131175462Y-62997160D01*
X131175462Y-62997161D01*
X131114957Y-63143233D01*
X131114955Y-63143241D01*
X131094318Y-63299999D01*
X131094318Y-63300000D01*
X131114955Y-63456758D01*
X131114957Y-63456766D01*
X131175462Y-63602838D01*
X131175462Y-63602839D01*
X131271713Y-63728276D01*
X131271718Y-63728282D01*
X131271722Y-63728285D01*
X131271723Y-63728286D01*
X131393147Y-63821458D01*
X131427803Y-63871883D01*
X131426201Y-63933047D01*
X131393147Y-63978542D01*
X131271723Y-64071713D01*
X131271713Y-64071723D01*
X131175462Y-64197160D01*
X131175462Y-64197161D01*
X131114957Y-64343233D01*
X131114955Y-64343241D01*
X131094318Y-64499999D01*
X131094318Y-64500000D01*
X131114955Y-64656758D01*
X131114957Y-64656766D01*
X131175462Y-64802838D01*
X131175462Y-64802839D01*
X131271713Y-64928276D01*
X131271718Y-64928282D01*
X131397159Y-65024536D01*
X131397160Y-65024536D01*
X131397161Y-65024537D01*
X131543233Y-65085042D01*
X131543238Y-65085044D01*
X131660809Y-65100522D01*
X131699999Y-65105682D01*
X131700000Y-65105682D01*
X131700001Y-65105682D01*
X131731352Y-65101554D01*
X131856762Y-65085044D01*
X132002841Y-65024536D01*
X132128282Y-64928282D01*
X132224536Y-64802841D01*
X132285044Y-64656762D01*
X132289226Y-64624999D01*
X136802883Y-64624999D01*
X136802883Y-64625000D01*
X136823520Y-64781758D01*
X136823522Y-64781766D01*
X136884027Y-64927838D01*
X136884027Y-64927839D01*
X136973544Y-65044500D01*
X136980283Y-65053282D01*
X137105724Y-65149536D01*
X137105725Y-65149536D01*
X137105726Y-65149537D01*
X137247175Y-65208127D01*
X137251803Y-65210044D01*
X137369374Y-65225522D01*
X137408564Y-65230682D01*
X137408565Y-65230682D01*
X137408566Y-65230682D01*
X137439917Y-65226554D01*
X137565327Y-65210044D01*
X137711406Y-65149536D01*
X137824097Y-65063064D01*
X137881773Y-65042641D01*
X137940438Y-65060019D01*
X137971089Y-65097868D01*
X137972217Y-65097218D01*
X137975462Y-65102839D01*
X138071713Y-65228276D01*
X138071718Y-65228282D01*
X138197159Y-65324536D01*
X138197160Y-65324536D01*
X138197161Y-65324537D01*
X138343233Y-65385042D01*
X138343238Y-65385044D01*
X138460809Y-65400522D01*
X138499999Y-65405682D01*
X138500000Y-65405682D01*
X138500001Y-65405682D01*
X138531352Y-65401554D01*
X138656762Y-65385044D01*
X138802841Y-65324536D01*
X138928282Y-65228282D01*
X139024536Y-65102841D01*
X139036069Y-65074999D01*
X152994196Y-65074999D01*
X152994196Y-65075000D01*
X153015281Y-65208127D01*
X153015282Y-65208129D01*
X153074595Y-65324537D01*
X153076472Y-65328220D01*
X153171780Y-65423528D01*
X153291874Y-65484719D01*
X153425000Y-65505804D01*
X153558126Y-65484719D01*
X153678220Y-65423528D01*
X153773528Y-65328220D01*
X153834719Y-65208126D01*
X153855804Y-65075000D01*
X153854163Y-65064642D01*
X153837933Y-64962169D01*
X153834719Y-64941874D01*
X153773528Y-64821780D01*
X153678220Y-64726472D01*
X153678217Y-64726470D01*
X153626265Y-64699999D01*
X180369196Y-64699999D01*
X180369196Y-64700000D01*
X180390281Y-64833127D01*
X180390282Y-64833129D01*
X180451470Y-64953217D01*
X180451472Y-64953220D01*
X180546780Y-65048528D01*
X180666874Y-65109719D01*
X180800000Y-65130804D01*
X180933126Y-65109719D01*
X181053220Y-65048528D01*
X181148528Y-64953220D01*
X181209719Y-64833126D01*
X181230804Y-64700000D01*
X181209719Y-64566874D01*
X181148528Y-64446780D01*
X181053220Y-64351472D01*
X181053217Y-64351470D01*
X180933129Y-64290282D01*
X180933127Y-64290281D01*
X180800000Y-64269196D01*
X180666872Y-64290281D01*
X180666870Y-64290282D01*
X180546782Y-64351470D01*
X180451470Y-64446782D01*
X180390282Y-64566870D01*
X180390281Y-64566872D01*
X180369196Y-64699999D01*
X153626265Y-64699999D01*
X153558129Y-64665282D01*
X153558127Y-64665281D01*
X153425000Y-64644196D01*
X153291872Y-64665281D01*
X153291870Y-64665282D01*
X153171782Y-64726470D01*
X153076470Y-64821782D01*
X153015282Y-64941870D01*
X153015281Y-64941872D01*
X152994196Y-65074999D01*
X139036069Y-65074999D01*
X139085044Y-64956762D01*
X139105682Y-64800000D01*
X139103281Y-64781766D01*
X139096002Y-64726470D01*
X139085044Y-64643238D01*
X139025713Y-64500000D01*
X139024537Y-64497161D01*
X139024537Y-64497160D01*
X138928286Y-64371723D01*
X138928285Y-64371722D01*
X138928282Y-64371718D01*
X138928277Y-64371714D01*
X138928276Y-64371713D01*
X138814901Y-64284718D01*
X138802841Y-64275464D01*
X138802840Y-64275463D01*
X138802838Y-64275462D01*
X138656766Y-64214957D01*
X138656758Y-64214955D01*
X138500001Y-64194318D01*
X138499999Y-64194318D01*
X138343241Y-64214955D01*
X138343233Y-64214957D01*
X138197163Y-64275461D01*
X138084467Y-64361935D01*
X138026791Y-64382358D01*
X137968125Y-64364980D01*
X137937476Y-64327130D01*
X137936348Y-64327782D01*
X137933102Y-64322160D01*
X137836851Y-64196723D01*
X137836850Y-64196722D01*
X137836847Y-64196718D01*
X137836842Y-64196714D01*
X137836841Y-64196713D01*
X137747578Y-64128220D01*
X137711406Y-64100464D01*
X137711405Y-64100463D01*
X137711403Y-64100462D01*
X137565331Y-64039957D01*
X137565323Y-64039955D01*
X137408566Y-64019318D01*
X137408564Y-64019318D01*
X137251806Y-64039955D01*
X137251798Y-64039957D01*
X137105726Y-64100462D01*
X137105725Y-64100462D01*
X136980288Y-64196713D01*
X136980278Y-64196723D01*
X136884027Y-64322160D01*
X136884027Y-64322161D01*
X136823522Y-64468233D01*
X136823520Y-64468241D01*
X136802883Y-64624999D01*
X132289226Y-64624999D01*
X132305682Y-64500000D01*
X132301500Y-64468238D01*
X132288793Y-64371718D01*
X132285044Y-64343238D01*
X132263109Y-64290282D01*
X132224537Y-64197161D01*
X132224537Y-64197160D01*
X132128286Y-64071723D01*
X132128285Y-64071722D01*
X132128282Y-64071718D01*
X132128277Y-64071714D01*
X132128276Y-64071713D01*
X132039013Y-64003220D01*
X132006851Y-63978541D01*
X131972196Y-63928118D01*
X131973797Y-63866953D01*
X132006852Y-63821458D01*
X132099978Y-63750000D01*
X132099979Y-63749999D01*
X157719193Y-63749999D01*
X157719193Y-63750000D01*
X157740278Y-63883127D01*
X157740279Y-63883129D01*
X157801467Y-64003217D01*
X157801469Y-64003220D01*
X157896777Y-64098528D01*
X158016871Y-64159719D01*
X158149997Y-64180804D01*
X158283123Y-64159719D01*
X158403217Y-64098528D01*
X158498525Y-64003220D01*
X158559716Y-63883126D01*
X158580801Y-63750000D01*
X158578341Y-63734468D01*
X158587912Y-63674037D01*
X158631176Y-63630772D01*
X158660632Y-63621200D01*
X158733126Y-63609719D01*
X158853220Y-63548528D01*
X158948528Y-63453220D01*
X159009719Y-63333126D01*
X159030804Y-63200000D01*
X159009719Y-63066874D01*
X158948528Y-62946780D01*
X158853220Y-62851472D01*
X158853217Y-62851470D01*
X158733129Y-62790282D01*
X158733127Y-62790281D01*
X158600000Y-62769196D01*
X158466872Y-62790281D01*
X158466870Y-62790282D01*
X158346782Y-62851470D01*
X158251470Y-62946782D01*
X158190282Y-63066870D01*
X158190281Y-63066872D01*
X158169196Y-63199998D01*
X158171656Y-63215534D01*
X158162082Y-63275966D01*
X158118816Y-63319229D01*
X158089362Y-63328799D01*
X158016869Y-63340281D01*
X158016867Y-63340282D01*
X157896779Y-63401470D01*
X157801467Y-63496782D01*
X157740279Y-63616870D01*
X157740278Y-63616872D01*
X157719193Y-63749999D01*
X132099979Y-63749999D01*
X132128282Y-63728282D01*
X132224536Y-63602841D01*
X132285044Y-63456762D01*
X132305682Y-63300000D01*
X132285044Y-63143238D01*
X132225712Y-62999997D01*
X144819610Y-62999997D01*
X144819610Y-63000002D01*
X144839067Y-63135337D01*
X144839069Y-63135345D01*
X144895868Y-63259715D01*
X144895869Y-63259716D01*
X144895870Y-63259718D01*
X144985411Y-63363055D01*
X145100439Y-63436978D01*
X145231633Y-63475500D01*
X145231634Y-63475500D01*
X145368366Y-63475500D01*
X145368367Y-63475500D01*
X145499561Y-63436978D01*
X145614589Y-63363055D01*
X145704130Y-63259718D01*
X145757325Y-63143238D01*
X145760930Y-63135345D01*
X145760932Y-63135337D01*
X145780390Y-63000002D01*
X145780390Y-62999997D01*
X145760932Y-62864662D01*
X145760930Y-62864654D01*
X145704131Y-62740284D01*
X145704130Y-62740283D01*
X145704130Y-62740282D01*
X145614589Y-62636945D01*
X145499561Y-62563022D01*
X145462698Y-62552198D01*
X145368368Y-62524500D01*
X145368367Y-62524500D01*
X145231633Y-62524500D01*
X145231631Y-62524500D01*
X145100441Y-62563021D01*
X145100439Y-62563021D01*
X145100439Y-62563022D01*
X144985411Y-62636945D01*
X144985410Y-62636945D01*
X144985410Y-62636946D01*
X144895868Y-62740284D01*
X144839069Y-62864654D01*
X144839067Y-62864662D01*
X144819610Y-62999997D01*
X132225712Y-62999997D01*
X132224537Y-62997161D01*
X132224537Y-62997160D01*
X132128286Y-62871723D01*
X132128285Y-62871722D01*
X132128282Y-62871718D01*
X132072010Y-62828539D01*
X132037357Y-62778118D01*
X132038958Y-62716954D01*
X132072010Y-62671460D01*
X132128282Y-62628282D01*
X132224536Y-62502841D01*
X132285044Y-62356762D01*
X132305682Y-62200000D01*
X132305682Y-62199999D01*
X180369196Y-62199999D01*
X180369196Y-62200000D01*
X180390281Y-62333127D01*
X180390282Y-62333129D01*
X180402322Y-62356758D01*
X180451472Y-62453220D01*
X180546780Y-62548528D01*
X180666874Y-62609719D01*
X180800000Y-62630804D01*
X180933126Y-62609719D01*
X181053220Y-62548528D01*
X181148528Y-62453220D01*
X181209719Y-62333126D01*
X181230804Y-62200000D01*
X181209719Y-62066874D01*
X181148528Y-61946780D01*
X181053220Y-61851472D01*
X181053217Y-61851470D01*
X180933129Y-61790282D01*
X180933127Y-61790281D01*
X180800000Y-61769196D01*
X180666872Y-61790281D01*
X180666870Y-61790282D01*
X180546782Y-61851470D01*
X180451470Y-61946782D01*
X180390282Y-62066870D01*
X180390281Y-62066872D01*
X180369196Y-62199999D01*
X132305682Y-62199999D01*
X132285044Y-62043238D01*
X132224537Y-61897161D01*
X132224537Y-61897160D01*
X132128286Y-61771723D01*
X132128285Y-61771722D01*
X132128282Y-61771718D01*
X132128277Y-61771714D01*
X132128276Y-61771713D01*
X132031116Y-61697160D01*
X132002841Y-61675464D01*
X132002840Y-61675463D01*
X132002838Y-61675462D01*
X131856766Y-61614957D01*
X131856758Y-61614955D01*
X131700001Y-61594318D01*
X131699999Y-61594318D01*
X131543241Y-61614955D01*
X131543233Y-61614957D01*
X131397161Y-61675462D01*
X131397160Y-61675462D01*
X131271723Y-61771713D01*
X131271713Y-61771723D01*
X131175462Y-61897160D01*
X131175462Y-61897161D01*
X131114957Y-62043233D01*
X131114955Y-62043241D01*
X131094318Y-62199999D01*
X124067135Y-62199999D01*
X124085044Y-62156762D01*
X124105682Y-62000000D01*
X124085044Y-61843238D01*
X124063109Y-61790282D01*
X124024537Y-61697161D01*
X124024537Y-61697160D01*
X123928286Y-61571723D01*
X123928285Y-61571722D01*
X123928282Y-61571718D01*
X123928277Y-61571714D01*
X123928276Y-61571713D01*
X123802838Y-61475462D01*
X123656766Y-61414957D01*
X123656758Y-61414955D01*
X123500001Y-61394318D01*
X123499999Y-61394318D01*
X123343241Y-61414955D01*
X123343233Y-61414957D01*
X123197161Y-61475462D01*
X123197160Y-61475462D01*
X123071723Y-61571713D01*
X123071713Y-61571723D01*
X122975462Y-61697160D01*
X122975462Y-61697161D01*
X122914957Y-61843233D01*
X122914955Y-61843241D01*
X122894318Y-61999999D01*
X117800500Y-61999999D01*
X117800500Y-61199997D01*
X140919610Y-61199997D01*
X140919610Y-61200002D01*
X140939067Y-61335337D01*
X140939069Y-61335345D01*
X140995868Y-61459715D01*
X140995869Y-61459716D01*
X140995870Y-61459718D01*
X141085411Y-61563055D01*
X141200439Y-61636978D01*
X141331633Y-61675500D01*
X141331634Y-61675500D01*
X141468366Y-61675500D01*
X141468367Y-61675500D01*
X141599561Y-61636978D01*
X141714589Y-61563055D01*
X141804130Y-61459718D01*
X141840169Y-61380804D01*
X141860930Y-61335345D01*
X141860932Y-61335337D01*
X141880390Y-61200002D01*
X141880390Y-61199997D01*
X141860932Y-61064662D01*
X141860930Y-61064654D01*
X141804131Y-60940284D01*
X141804130Y-60940283D01*
X141804130Y-60940282D01*
X141714589Y-60836945D01*
X141599561Y-60763022D01*
X141599558Y-60763021D01*
X141468368Y-60724500D01*
X141468367Y-60724500D01*
X141331633Y-60724500D01*
X141331631Y-60724500D01*
X141200441Y-60763021D01*
X141200439Y-60763021D01*
X141200439Y-60763022D01*
X141085411Y-60836945D01*
X141085410Y-60836945D01*
X141085410Y-60836946D01*
X140995868Y-60940284D01*
X140939069Y-61064654D01*
X140939067Y-61064662D01*
X140919610Y-61199997D01*
X117800500Y-61199997D01*
X117800500Y-60499999D01*
X122894318Y-60499999D01*
X122894318Y-60500000D01*
X122914955Y-60656758D01*
X122914957Y-60656766D01*
X122975462Y-60802838D01*
X122975462Y-60802839D01*
X123071713Y-60928276D01*
X123071718Y-60928282D01*
X123197159Y-61024536D01*
X123197160Y-61024536D01*
X123197161Y-61024537D01*
X123338610Y-61083127D01*
X123343238Y-61085044D01*
X123460809Y-61100522D01*
X123499999Y-61105682D01*
X123500000Y-61105682D01*
X123500001Y-61105682D01*
X123531352Y-61101554D01*
X123656762Y-61085044D01*
X123802841Y-61024536D01*
X123928282Y-60928282D01*
X124024536Y-60802841D01*
X124085044Y-60656762D01*
X124105682Y-60500000D01*
X124104402Y-60490281D01*
X124092891Y-60402841D01*
X124085044Y-60343238D01*
X124080856Y-60333127D01*
X124024537Y-60197161D01*
X124024537Y-60197160D01*
X123928286Y-60071723D01*
X123928285Y-60071722D01*
X123928282Y-60071718D01*
X123928277Y-60071714D01*
X123928276Y-60071713D01*
X123912856Y-60059881D01*
X125669196Y-60059881D01*
X125669196Y-60059882D01*
X125690281Y-60193009D01*
X125690282Y-60193011D01*
X125722763Y-60256758D01*
X125751472Y-60313102D01*
X125846780Y-60408410D01*
X125846782Y-60408411D01*
X125934724Y-60453220D01*
X125966874Y-60469601D01*
X126100000Y-60490686D01*
X126233126Y-60469601D01*
X126353220Y-60408410D01*
X126448528Y-60313102D01*
X126506157Y-60199999D01*
X145269196Y-60199999D01*
X145269196Y-60200000D01*
X145290281Y-60333127D01*
X145290282Y-60333129D01*
X145346005Y-60442491D01*
X145351472Y-60453220D01*
X145446780Y-60548528D01*
X145566874Y-60609719D01*
X145700000Y-60630804D01*
X145833126Y-60609719D01*
X145882060Y-60584785D01*
X145942489Y-60575214D01*
X145997006Y-60602990D01*
X146024785Y-60657506D01*
X146015214Y-60717938D01*
X146015214Y-60717940D01*
X145990281Y-60766874D01*
X145969196Y-60899999D01*
X145969196Y-60900000D01*
X145990281Y-61033127D01*
X145990282Y-61033129D01*
X146027250Y-61105682D01*
X146051472Y-61153220D01*
X146146780Y-61248528D01*
X146266874Y-61309719D01*
X146400000Y-61330804D01*
X146533126Y-61309719D01*
X146653220Y-61248528D01*
X146748528Y-61153220D01*
X146809719Y-61033126D01*
X146822885Y-60949999D01*
X160119196Y-60949999D01*
X160119196Y-60950000D01*
X160140281Y-61083127D01*
X160140282Y-61083129D01*
X160199831Y-61200000D01*
X160201472Y-61203220D01*
X160296780Y-61298528D01*
X160416874Y-61359719D01*
X160550000Y-61380804D01*
X160683126Y-61359719D01*
X160803220Y-61298528D01*
X160898528Y-61203220D01*
X160959719Y-61083126D01*
X160980804Y-60950000D01*
X160959719Y-60816874D01*
X160898528Y-60696780D01*
X160803220Y-60601472D01*
X160803217Y-60601470D01*
X160683129Y-60540282D01*
X160683127Y-60540281D01*
X160550000Y-60519196D01*
X160416872Y-60540281D01*
X160416870Y-60540282D01*
X160296782Y-60601470D01*
X160201470Y-60696782D01*
X160140282Y-60816870D01*
X160140281Y-60816872D01*
X160119196Y-60949999D01*
X146822885Y-60949999D01*
X146830804Y-60900000D01*
X146809719Y-60766874D01*
X146748528Y-60646780D01*
X146653220Y-60551472D01*
X146653217Y-60551470D01*
X146533129Y-60490282D01*
X146533127Y-60490281D01*
X146400000Y-60469196D01*
X146266874Y-60490281D01*
X146217940Y-60515214D01*
X146157508Y-60524785D01*
X146102991Y-60497007D01*
X146075214Y-60442491D01*
X146084786Y-60382059D01*
X146109719Y-60333126D01*
X146130804Y-60200000D01*
X146114965Y-60099999D01*
X148494318Y-60099999D01*
X148494318Y-60100000D01*
X148514955Y-60256758D01*
X148514957Y-60256766D01*
X148575462Y-60402838D01*
X148575462Y-60402839D01*
X148671713Y-60528276D01*
X148671718Y-60528282D01*
X148797159Y-60624536D01*
X148797160Y-60624536D01*
X148797161Y-60624537D01*
X148874959Y-60656762D01*
X148943238Y-60685044D01*
X149060809Y-60700522D01*
X149099999Y-60705682D01*
X149100000Y-60705682D01*
X149100001Y-60705682D01*
X149131352Y-60701554D01*
X149256762Y-60685044D01*
X149402841Y-60624536D01*
X149528282Y-60528282D01*
X149624536Y-60402841D01*
X149685044Y-60256762D01*
X149705682Y-60100000D01*
X149685044Y-59943238D01*
X149673329Y-59914955D01*
X149624537Y-59797161D01*
X149624537Y-59797160D01*
X149528286Y-59671723D01*
X149528285Y-59671722D01*
X149528282Y-59671718D01*
X149528277Y-59671714D01*
X149528276Y-59671713D01*
X149402838Y-59575462D01*
X149256766Y-59514957D01*
X149256758Y-59514955D01*
X149100001Y-59494318D01*
X149099999Y-59494318D01*
X148943241Y-59514955D01*
X148943233Y-59514957D01*
X148797161Y-59575462D01*
X148797160Y-59575462D01*
X148671723Y-59671713D01*
X148671713Y-59671723D01*
X148575462Y-59797160D01*
X148575462Y-59797161D01*
X148514957Y-59943233D01*
X148514955Y-59943241D01*
X148494318Y-60099999D01*
X146114965Y-60099999D01*
X146109719Y-60066874D01*
X146048528Y-59946780D01*
X145953220Y-59851472D01*
X145953217Y-59851470D01*
X145833129Y-59790282D01*
X145833127Y-59790281D01*
X145700000Y-59769196D01*
X145566872Y-59790281D01*
X145566870Y-59790282D01*
X145446782Y-59851470D01*
X145351470Y-59946782D01*
X145290282Y-60066870D01*
X145290281Y-60066872D01*
X145269196Y-60199999D01*
X126506157Y-60199999D01*
X126509719Y-60193008D01*
X126530804Y-60059882D01*
X126509719Y-59926756D01*
X126448528Y-59806662D01*
X126353220Y-59711354D01*
X126353217Y-59711352D01*
X126233129Y-59650164D01*
X126233127Y-59650163D01*
X126100000Y-59629078D01*
X125966872Y-59650163D01*
X125966870Y-59650164D01*
X125846782Y-59711352D01*
X125751470Y-59806664D01*
X125690282Y-59926752D01*
X125690281Y-59926754D01*
X125669196Y-60059881D01*
X123912856Y-60059881D01*
X123802838Y-59975462D01*
X123656766Y-59914957D01*
X123656758Y-59914955D01*
X123500001Y-59894318D01*
X123499999Y-59894318D01*
X123343241Y-59914955D01*
X123343233Y-59914957D01*
X123197161Y-59975462D01*
X123197160Y-59975462D01*
X123071723Y-60071713D01*
X123071713Y-60071723D01*
X122975462Y-60197160D01*
X122975462Y-60197161D01*
X122914957Y-60343233D01*
X122914955Y-60343241D01*
X122894318Y-60499999D01*
X117800500Y-60499999D01*
X117800500Y-58999999D01*
X122894318Y-58999999D01*
X122894318Y-59000000D01*
X122914955Y-59156758D01*
X122914957Y-59156766D01*
X122975462Y-59302838D01*
X122975462Y-59302839D01*
X123030833Y-59375000D01*
X123071718Y-59428282D01*
X123197159Y-59524536D01*
X123197160Y-59524536D01*
X123197161Y-59524537D01*
X123320105Y-59575462D01*
X123343238Y-59585044D01*
X123460809Y-59600522D01*
X123499999Y-59605682D01*
X123500000Y-59605682D01*
X123500001Y-59605682D01*
X123531352Y-59601554D01*
X123656762Y-59585044D01*
X123802841Y-59524536D01*
X123928282Y-59428282D01*
X123969167Y-59374999D01*
X138719196Y-59374999D01*
X138719196Y-59375000D01*
X138740281Y-59508127D01*
X138740282Y-59508129D01*
X138801470Y-59628217D01*
X138801472Y-59628220D01*
X138896780Y-59723528D01*
X139016874Y-59784719D01*
X139150000Y-59805804D01*
X139283126Y-59784719D01*
X139403220Y-59723528D01*
X139498528Y-59628220D01*
X139559719Y-59508126D01*
X139580804Y-59375000D01*
X139580804Y-59374999D01*
X155694318Y-59374999D01*
X155694318Y-59375000D01*
X155714955Y-59531758D01*
X155714957Y-59531766D01*
X155775462Y-59677838D01*
X155775462Y-59677839D01*
X155867020Y-59797160D01*
X155871718Y-59803282D01*
X155871722Y-59803285D01*
X155871723Y-59803286D01*
X155901082Y-59825813D01*
X155997159Y-59899536D01*
X155997160Y-59899536D01*
X155997161Y-59899537D01*
X156102665Y-59943238D01*
X156143238Y-59960044D01*
X156260350Y-59975462D01*
X156299999Y-59980682D01*
X156300000Y-59980682D01*
X156300001Y-59980682D01*
X156339650Y-59975462D01*
X156456762Y-59960044D01*
X156602841Y-59899536D01*
X156728282Y-59803282D01*
X156771460Y-59747010D01*
X156821882Y-59712357D01*
X156883046Y-59713958D01*
X156928539Y-59747010D01*
X156971718Y-59803282D01*
X156971722Y-59803285D01*
X156971723Y-59803286D01*
X157001082Y-59825813D01*
X157097159Y-59899536D01*
X157097160Y-59899536D01*
X157097161Y-59899537D01*
X157202665Y-59943238D01*
X157243238Y-59960044D01*
X157360350Y-59975462D01*
X157399999Y-59980682D01*
X157400000Y-59980682D01*
X157400001Y-59980682D01*
X157439650Y-59975462D01*
X157556762Y-59960044D01*
X157702841Y-59899536D01*
X157828282Y-59803282D01*
X157871460Y-59747010D01*
X157921882Y-59712357D01*
X157983046Y-59713958D01*
X158028539Y-59747010D01*
X158071718Y-59803282D01*
X158071722Y-59803285D01*
X158071723Y-59803286D01*
X158101082Y-59825813D01*
X158197159Y-59899536D01*
X158197160Y-59899536D01*
X158197161Y-59899537D01*
X158302665Y-59943238D01*
X158343238Y-59960044D01*
X158460350Y-59975462D01*
X158499999Y-59980682D01*
X158500000Y-59980682D01*
X158500001Y-59980682D01*
X158539650Y-59975462D01*
X158656762Y-59960044D01*
X158802841Y-59899536D01*
X158928282Y-59803282D01*
X159024536Y-59677841D01*
X159085044Y-59531762D01*
X159105682Y-59375000D01*
X159085044Y-59218238D01*
X159072541Y-59188053D01*
X159024537Y-59072161D01*
X159024537Y-59072160D01*
X158928286Y-58946723D01*
X158928285Y-58946722D01*
X158928282Y-58946718D01*
X158928277Y-58946714D01*
X158928276Y-58946713D01*
X158802838Y-58850462D01*
X158656766Y-58789957D01*
X158656758Y-58789955D01*
X158500001Y-58769318D01*
X158499999Y-58769318D01*
X158343241Y-58789955D01*
X158343233Y-58789957D01*
X158197161Y-58850462D01*
X158197160Y-58850462D01*
X158071723Y-58946713D01*
X158071713Y-58946723D01*
X158028542Y-59002986D01*
X157978118Y-59037642D01*
X157916953Y-59036041D01*
X157871458Y-59002986D01*
X157828286Y-58946723D01*
X157828285Y-58946722D01*
X157828282Y-58946718D01*
X157828277Y-58946714D01*
X157828276Y-58946713D01*
X157702838Y-58850462D01*
X157556766Y-58789957D01*
X157556758Y-58789955D01*
X157400001Y-58769318D01*
X157399999Y-58769318D01*
X157243241Y-58789955D01*
X157243233Y-58789957D01*
X157097161Y-58850462D01*
X157097160Y-58850462D01*
X156971723Y-58946713D01*
X156971713Y-58946723D01*
X156928542Y-59002986D01*
X156878118Y-59037642D01*
X156816953Y-59036041D01*
X156771458Y-59002986D01*
X156728286Y-58946723D01*
X156728285Y-58946722D01*
X156728282Y-58946718D01*
X156728277Y-58946714D01*
X156728276Y-58946713D01*
X156602838Y-58850462D01*
X156456766Y-58789957D01*
X156456758Y-58789955D01*
X156300001Y-58769318D01*
X156299999Y-58769318D01*
X156143241Y-58789955D01*
X156143233Y-58789957D01*
X155997161Y-58850462D01*
X155997160Y-58850462D01*
X155871723Y-58946713D01*
X155871713Y-58946723D01*
X155775462Y-59072160D01*
X155775462Y-59072161D01*
X155714957Y-59218233D01*
X155714955Y-59218241D01*
X155694318Y-59374999D01*
X139580804Y-59374999D01*
X139559719Y-59241874D01*
X139498528Y-59121780D01*
X139403220Y-59026472D01*
X139403217Y-59026470D01*
X139283129Y-58965282D01*
X139283127Y-58965281D01*
X139150000Y-58944196D01*
X139016872Y-58965281D01*
X139016870Y-58965282D01*
X138896782Y-59026470D01*
X138801470Y-59121782D01*
X138740282Y-59241870D01*
X138740281Y-59241872D01*
X138719196Y-59374999D01*
X123969167Y-59374999D01*
X124024536Y-59302841D01*
X124085044Y-59156762D01*
X124105682Y-59000000D01*
X124085044Y-58843238D01*
X124077488Y-58824997D01*
X143319610Y-58824997D01*
X143319610Y-58825002D01*
X143339067Y-58960337D01*
X143339069Y-58960345D01*
X143395868Y-59084715D01*
X143395869Y-59084716D01*
X143395870Y-59084718D01*
X143485411Y-59188055D01*
X143600439Y-59261978D01*
X143731633Y-59300500D01*
X143731634Y-59300500D01*
X143868366Y-59300500D01*
X143868367Y-59300500D01*
X143999561Y-59261978D01*
X144114589Y-59188055D01*
X144204130Y-59084718D01*
X144258675Y-58965282D01*
X144260930Y-58960345D01*
X144260932Y-58960337D01*
X144280390Y-58825002D01*
X144280390Y-58824997D01*
X144276796Y-58799997D01*
X145219610Y-58799997D01*
X145219610Y-58800002D01*
X145239067Y-58935337D01*
X145239069Y-58935345D01*
X145295868Y-59059715D01*
X145295869Y-59059716D01*
X145295870Y-59059718D01*
X145385411Y-59163055D01*
X145500439Y-59236978D01*
X145631633Y-59275500D01*
X145631634Y-59275500D01*
X145768366Y-59275500D01*
X145768367Y-59275500D01*
X145899561Y-59236978D01*
X146014589Y-59163055D01*
X146104130Y-59059718D01*
X146147258Y-58965281D01*
X146160930Y-58935345D01*
X146160932Y-58935337D01*
X146180390Y-58800002D01*
X146180390Y-58799997D01*
X146160932Y-58664662D01*
X146160930Y-58664654D01*
X146104131Y-58540284D01*
X146104130Y-58540283D01*
X146104130Y-58540282D01*
X146014589Y-58436945D01*
X145899561Y-58363022D01*
X145899558Y-58363021D01*
X145768368Y-58324500D01*
X145768367Y-58324500D01*
X145631633Y-58324500D01*
X145631631Y-58324500D01*
X145500441Y-58363021D01*
X145500439Y-58363021D01*
X145500439Y-58363022D01*
X145385411Y-58436945D01*
X145385410Y-58436945D01*
X145385410Y-58436946D01*
X145295868Y-58540284D01*
X145239069Y-58664654D01*
X145239067Y-58664662D01*
X145219610Y-58799997D01*
X144276796Y-58799997D01*
X144260932Y-58689662D01*
X144260930Y-58689654D01*
X144204131Y-58565284D01*
X144204130Y-58565283D01*
X144204130Y-58565282D01*
X144114589Y-58461945D01*
X143999561Y-58388022D01*
X143971754Y-58379857D01*
X143868368Y-58349500D01*
X143868367Y-58349500D01*
X143731633Y-58349500D01*
X143731631Y-58349500D01*
X143600441Y-58388021D01*
X143600439Y-58388021D01*
X143600439Y-58388022D01*
X143485411Y-58461945D01*
X143485410Y-58461945D01*
X143485410Y-58461946D01*
X143395868Y-58565284D01*
X143339069Y-58689654D01*
X143339067Y-58689662D01*
X143319610Y-58824997D01*
X124077488Y-58824997D01*
X124062974Y-58789956D01*
X124024537Y-58697161D01*
X124024537Y-58697160D01*
X123928286Y-58571723D01*
X123928285Y-58571722D01*
X123928282Y-58571718D01*
X123928277Y-58571714D01*
X123928276Y-58571713D01*
X123802838Y-58475462D01*
X123656766Y-58414957D01*
X123656758Y-58414955D01*
X123500001Y-58394318D01*
X123499999Y-58394318D01*
X123343241Y-58414955D01*
X123343233Y-58414957D01*
X123197161Y-58475462D01*
X123197160Y-58475462D01*
X123071723Y-58571713D01*
X123071713Y-58571723D01*
X122975462Y-58697160D01*
X122975462Y-58697161D01*
X122914957Y-58843233D01*
X122914955Y-58843241D01*
X122894318Y-58999999D01*
X117800500Y-58999999D01*
X117800500Y-58126636D01*
X146850429Y-58126636D01*
X146850429Y-58126637D01*
X146871514Y-58259764D01*
X146871515Y-58259766D01*
X146924127Y-58363022D01*
X146932705Y-58379857D01*
X147028013Y-58475165D01*
X147148107Y-58536356D01*
X147281233Y-58557441D01*
X147414359Y-58536356D01*
X147534453Y-58475165D01*
X147629761Y-58379857D01*
X147690952Y-58259763D01*
X147712037Y-58126637D01*
X147690952Y-57993511D01*
X147629761Y-57873417D01*
X147534453Y-57778109D01*
X147534450Y-57778107D01*
X147414362Y-57716919D01*
X147414360Y-57716918D01*
X147281233Y-57695833D01*
X147148105Y-57716918D01*
X147148103Y-57716919D01*
X147028015Y-57778107D01*
X146932703Y-57873419D01*
X146871515Y-57993507D01*
X146871514Y-57993509D01*
X146850429Y-58126636D01*
X117800500Y-58126636D01*
X117800500Y-56199999D01*
X123694318Y-56199999D01*
X123694318Y-56200000D01*
X123714955Y-56356758D01*
X123714957Y-56356766D01*
X123775462Y-56502838D01*
X123775462Y-56502839D01*
X123857473Y-56609718D01*
X123871718Y-56628282D01*
X123997159Y-56724536D01*
X124143238Y-56785044D01*
X124260809Y-56800522D01*
X124299999Y-56805682D01*
X124300000Y-56805682D01*
X124300001Y-56805682D01*
X124331352Y-56801554D01*
X124456762Y-56785044D01*
X124602841Y-56724536D01*
X124728282Y-56628282D01*
X124824536Y-56502841D01*
X124885044Y-56356762D01*
X124905682Y-56200000D01*
X124905682Y-56199999D01*
X126669196Y-56199999D01*
X126669196Y-56200000D01*
X126690281Y-56333127D01*
X126690282Y-56333129D01*
X126702322Y-56356758D01*
X126751472Y-56453220D01*
X126846780Y-56548528D01*
X126966874Y-56609719D01*
X127100000Y-56630804D01*
X127233126Y-56609719D01*
X127353220Y-56548528D01*
X127448528Y-56453220D01*
X127509719Y-56333126D01*
X127530804Y-56200000D01*
X127509719Y-56066874D01*
X127485033Y-56018426D01*
X127448529Y-55946782D01*
X127448528Y-55946780D01*
X127353220Y-55851472D01*
X127353217Y-55851470D01*
X127233129Y-55790282D01*
X127233127Y-55790281D01*
X127100000Y-55769196D01*
X126966872Y-55790281D01*
X126966870Y-55790282D01*
X126846782Y-55851470D01*
X126751470Y-55946782D01*
X126690282Y-56066870D01*
X126690281Y-56066872D01*
X126669196Y-56199999D01*
X124905682Y-56199999D01*
X124885044Y-56043238D01*
X124848363Y-55954682D01*
X124824537Y-55897161D01*
X124824537Y-55897160D01*
X124728286Y-55771723D01*
X124728285Y-55771722D01*
X124728282Y-55771718D01*
X124728277Y-55771714D01*
X124728276Y-55771713D01*
X124602838Y-55675462D01*
X124456766Y-55614957D01*
X124456758Y-55614955D01*
X124300001Y-55594318D01*
X124299999Y-55594318D01*
X124143241Y-55614955D01*
X124143233Y-55614957D01*
X123997161Y-55675462D01*
X123997160Y-55675462D01*
X123871723Y-55771713D01*
X123871713Y-55771723D01*
X123775462Y-55897160D01*
X123775462Y-55897161D01*
X123714957Y-56043233D01*
X123714955Y-56043241D01*
X123694318Y-56199999D01*
X117800500Y-56199999D01*
X117800500Y-53356765D01*
X118449500Y-53356765D01*
X118449500Y-53643234D01*
X118481573Y-53927896D01*
X118545318Y-54207185D01*
X118639930Y-54477569D01*
X118764223Y-54735667D01*
X118840315Y-54856766D01*
X118916634Y-54978227D01*
X119095243Y-55202195D01*
X119297805Y-55404757D01*
X119521773Y-55583366D01*
X119572050Y-55614957D01*
X119764332Y-55735776D01*
X119877514Y-55790281D01*
X120022428Y-55860068D01*
X120022431Y-55860069D01*
X120022430Y-55860069D01*
X120292814Y-55954681D01*
X120292817Y-55954681D01*
X120292818Y-55954682D01*
X120572102Y-56018426D01*
X120856767Y-56050500D01*
X120856768Y-56050500D01*
X121143232Y-56050500D01*
X121143233Y-56050500D01*
X121427898Y-56018426D01*
X121707182Y-55954682D01*
X121977572Y-55860068D01*
X122235669Y-55735775D01*
X122478227Y-55583366D01*
X122702195Y-55404757D01*
X122904757Y-55202195D01*
X123083366Y-54978227D01*
X123235775Y-54735669D01*
X123252953Y-54699999D01*
X123694318Y-54699999D01*
X123694318Y-54700000D01*
X123714955Y-54856758D01*
X123714957Y-54856766D01*
X123775462Y-55002838D01*
X123775462Y-55002839D01*
X123871713Y-55128276D01*
X123871718Y-55128282D01*
X123997159Y-55224536D01*
X123997160Y-55224536D01*
X123997161Y-55224537D01*
X124143233Y-55285042D01*
X124143238Y-55285044D01*
X124260809Y-55300522D01*
X124299999Y-55305682D01*
X124300000Y-55305682D01*
X124300001Y-55305682D01*
X124331352Y-55301554D01*
X124456762Y-55285044D01*
X124602841Y-55224536D01*
X124728282Y-55128282D01*
X124824536Y-55002841D01*
X124885044Y-54856762D01*
X124905682Y-54700000D01*
X124885044Y-54543238D01*
X124834665Y-54421612D01*
X124824537Y-54397161D01*
X124824537Y-54397160D01*
X124728286Y-54271723D01*
X124728285Y-54271722D01*
X124728282Y-54271718D01*
X124728277Y-54271714D01*
X124728276Y-54271713D01*
X124633123Y-54198700D01*
X124602841Y-54175464D01*
X124602840Y-54175463D01*
X124602838Y-54175462D01*
X124456766Y-54114957D01*
X124456758Y-54114955D01*
X124300001Y-54094318D01*
X124299999Y-54094318D01*
X124143241Y-54114955D01*
X124143233Y-54114957D01*
X123997161Y-54175462D01*
X123997160Y-54175462D01*
X123871723Y-54271713D01*
X123871713Y-54271723D01*
X123775462Y-54397160D01*
X123775462Y-54397161D01*
X123714957Y-54543233D01*
X123714955Y-54543241D01*
X123694318Y-54699999D01*
X123252953Y-54699999D01*
X123360068Y-54477572D01*
X123454682Y-54207182D01*
X123518426Y-53927898D01*
X123550500Y-53643233D01*
X123550500Y-53356767D01*
X123550500Y-53356765D01*
X123550499Y-53356750D01*
X123536610Y-53233485D01*
X123548882Y-53173543D01*
X123594044Y-53132263D01*
X123654845Y-53125412D01*
X123708061Y-53155607D01*
X123726451Y-53184514D01*
X123746508Y-53232936D01*
X123775464Y-53302841D01*
X123816830Y-53356750D01*
X123857874Y-53410241D01*
X123871718Y-53428282D01*
X123997159Y-53524536D01*
X124143238Y-53585044D01*
X124260809Y-53600522D01*
X124299999Y-53605682D01*
X124300000Y-53605682D01*
X124300001Y-53605682D01*
X124331352Y-53601554D01*
X124456762Y-53585044D01*
X124602841Y-53524536D01*
X124728282Y-53428282D01*
X124824536Y-53302841D01*
X124885044Y-53156762D01*
X124905682Y-53000000D01*
X124885044Y-52843238D01*
X124824537Y-52697161D01*
X124824537Y-52697160D01*
X124728286Y-52571723D01*
X124728285Y-52571722D01*
X124728282Y-52571718D01*
X124728277Y-52571714D01*
X124728276Y-52571713D01*
X124602838Y-52475462D01*
X124456766Y-52414957D01*
X124456758Y-52414955D01*
X124300001Y-52394318D01*
X124299999Y-52394318D01*
X124143241Y-52414955D01*
X124143233Y-52414957D01*
X123997161Y-52475462D01*
X123997160Y-52475462D01*
X123871723Y-52571713D01*
X123871713Y-52571723D01*
X123775462Y-52697160D01*
X123775462Y-52697161D01*
X123714957Y-52843233D01*
X123714955Y-52843240D01*
X123695927Y-52987772D01*
X123669586Y-53042997D01*
X123615815Y-53072191D01*
X123555153Y-53064205D01*
X123510771Y-53022087D01*
X123501258Y-52996883D01*
X123454682Y-52792818D01*
X123421802Y-52698854D01*
X123360069Y-52522430D01*
X123235776Y-52264332D01*
X123168685Y-52157557D01*
X125134500Y-52157557D01*
X125134500Y-52302442D01*
X125138131Y-52320696D01*
X125162470Y-52443057D01*
X125162765Y-52444537D01*
X125162765Y-52444539D01*
X125218206Y-52578387D01*
X125218206Y-52578388D01*
X125298699Y-52698853D01*
X125298700Y-52698854D01*
X125401146Y-52801300D01*
X125521610Y-52881792D01*
X125655462Y-52937235D01*
X125797560Y-52965500D01*
X125797561Y-52965500D01*
X125942439Y-52965500D01*
X125942440Y-52965500D01*
X125942441Y-52965499D01*
X125942448Y-52965499D01*
X125960696Y-52961869D01*
X126021458Y-52969059D01*
X126066388Y-53010591D01*
X126078326Y-53070600D01*
X126074167Y-53089558D01*
X126027582Y-53232934D01*
X125999500Y-53410237D01*
X125999500Y-53589762D01*
X126027582Y-53767065D01*
X126074167Y-53910441D01*
X126074166Y-53971626D01*
X126038202Y-54021126D01*
X125980012Y-54040033D01*
X125960700Y-54038131D01*
X125942448Y-54034500D01*
X125942440Y-54034500D01*
X125797560Y-54034500D01*
X125797557Y-54034500D01*
X125655462Y-54062765D01*
X125655460Y-54062765D01*
X125521612Y-54118206D01*
X125521611Y-54118206D01*
X125401146Y-54198699D01*
X125298699Y-54301146D01*
X125218206Y-54421611D01*
X125218206Y-54421612D01*
X125162765Y-54555460D01*
X125162765Y-54555462D01*
X125134500Y-54697557D01*
X125134500Y-54842442D01*
X125162765Y-54984537D01*
X125162765Y-54984539D01*
X125218206Y-55118387D01*
X125218206Y-55118388D01*
X125298699Y-55238853D01*
X125298700Y-55238854D01*
X125401146Y-55341300D01*
X125521610Y-55421792D01*
X125655462Y-55477235D01*
X125797560Y-55505500D01*
X125797561Y-55505500D01*
X125942439Y-55505500D01*
X125942440Y-55505500D01*
X126084538Y-55477235D01*
X126218390Y-55421792D01*
X126338854Y-55341300D01*
X126441300Y-55238854D01*
X126521792Y-55118390D01*
X126577235Y-54984538D01*
X126605500Y-54842440D01*
X126605500Y-54697560D01*
X126601868Y-54679301D01*
X126609059Y-54618541D01*
X126650592Y-54573610D01*
X126710601Y-54561673D01*
X126729554Y-54565831D01*
X126872932Y-54612417D01*
X126872933Y-54612417D01*
X126872936Y-54612418D01*
X127050238Y-54640500D01*
X127050241Y-54640500D01*
X127229762Y-54640500D01*
X127407063Y-54612418D01*
X127407064Y-54612417D01*
X127407068Y-54612417D01*
X127550442Y-54565832D01*
X127611625Y-54565832D01*
X127661126Y-54601796D01*
X127680033Y-54659987D01*
X127678131Y-54679298D01*
X127674501Y-54697549D01*
X127674500Y-54697561D01*
X127674500Y-54842442D01*
X127702765Y-54984537D01*
X127702765Y-54984539D01*
X127758206Y-55118387D01*
X127758206Y-55118388D01*
X127838699Y-55238853D01*
X127838700Y-55238854D01*
X127941146Y-55341300D01*
X128061610Y-55421792D01*
X128195462Y-55477235D01*
X128337560Y-55505500D01*
X128337561Y-55505500D01*
X128482439Y-55505500D01*
X128482440Y-55505500D01*
X128624538Y-55477235D01*
X128758390Y-55421792D01*
X128878854Y-55341300D01*
X128981300Y-55238854D01*
X129061792Y-55118390D01*
X129117235Y-54984538D01*
X129145500Y-54842440D01*
X129145500Y-54697560D01*
X129145499Y-54697557D01*
X130214500Y-54697557D01*
X130214500Y-54842442D01*
X130242765Y-54984537D01*
X130242765Y-54984539D01*
X130298206Y-55118387D01*
X130298206Y-55118388D01*
X130378699Y-55238853D01*
X130378700Y-55238854D01*
X130481146Y-55341300D01*
X130601610Y-55421792D01*
X130735462Y-55477235D01*
X130877560Y-55505500D01*
X130877561Y-55505500D01*
X131022439Y-55505500D01*
X131022440Y-55505500D01*
X131164538Y-55477235D01*
X131298390Y-55421792D01*
X131418854Y-55341300D01*
X131521300Y-55238854D01*
X131601792Y-55118390D01*
X131657235Y-54984538D01*
X131685500Y-54842440D01*
X131685500Y-54697560D01*
X131685499Y-54697557D01*
X132754500Y-54697557D01*
X132754500Y-54842442D01*
X132782765Y-54984537D01*
X132782765Y-54984539D01*
X132838206Y-55118387D01*
X132838206Y-55118388D01*
X132918699Y-55238853D01*
X132918700Y-55238854D01*
X133021146Y-55341300D01*
X133141610Y-55421792D01*
X133275462Y-55477235D01*
X133417560Y-55505500D01*
X133417561Y-55505500D01*
X133562439Y-55505500D01*
X133562440Y-55505500D01*
X133704538Y-55477235D01*
X133838390Y-55421792D01*
X133958854Y-55341300D01*
X134061300Y-55238854D01*
X134141792Y-55118390D01*
X134197235Y-54984538D01*
X134225500Y-54842440D01*
X134225500Y-54697560D01*
X134225499Y-54697557D01*
X135294500Y-54697557D01*
X135294500Y-54842442D01*
X135322765Y-54984537D01*
X135322765Y-54984539D01*
X135378206Y-55118387D01*
X135378206Y-55118388D01*
X135458699Y-55238853D01*
X135458700Y-55238854D01*
X135561146Y-55341300D01*
X135681610Y-55421792D01*
X135815462Y-55477235D01*
X135957560Y-55505500D01*
X135957561Y-55505500D01*
X136102439Y-55505500D01*
X136102440Y-55505500D01*
X136244538Y-55477235D01*
X136378390Y-55421792D01*
X136498854Y-55341300D01*
X136601300Y-55238854D01*
X136681792Y-55118390D01*
X136737235Y-54984538D01*
X136765500Y-54842440D01*
X136765500Y-54697560D01*
X136765499Y-54697557D01*
X137834500Y-54697557D01*
X137834500Y-54842442D01*
X137862765Y-54984537D01*
X137862765Y-54984539D01*
X137918206Y-55118387D01*
X137918206Y-55118388D01*
X137998699Y-55238853D01*
X137998700Y-55238854D01*
X138101146Y-55341300D01*
X138221610Y-55421792D01*
X138355462Y-55477235D01*
X138497560Y-55505500D01*
X138497561Y-55505500D01*
X138642439Y-55505500D01*
X138642440Y-55505500D01*
X138784538Y-55477235D01*
X138918390Y-55421792D01*
X139038854Y-55341300D01*
X139141300Y-55238854D01*
X139221792Y-55118390D01*
X139277235Y-54984538D01*
X139305500Y-54842440D01*
X139305500Y-54697560D01*
X139305499Y-54697557D01*
X140374500Y-54697557D01*
X140374500Y-54842442D01*
X140402765Y-54984537D01*
X140402765Y-54984539D01*
X140458206Y-55118387D01*
X140458206Y-55118388D01*
X140538699Y-55238853D01*
X140538700Y-55238854D01*
X140641146Y-55341300D01*
X140761610Y-55421792D01*
X140895462Y-55477235D01*
X141037560Y-55505500D01*
X141037561Y-55505500D01*
X141182439Y-55505500D01*
X141182440Y-55505500D01*
X141324538Y-55477235D01*
X141458390Y-55421792D01*
X141578854Y-55341300D01*
X141681300Y-55238854D01*
X141761792Y-55118390D01*
X141817235Y-54984538D01*
X141845500Y-54842440D01*
X141845500Y-54697560D01*
X141845499Y-54697557D01*
X142914500Y-54697557D01*
X142914500Y-54842442D01*
X142942765Y-54984537D01*
X142942765Y-54984539D01*
X142998206Y-55118387D01*
X142998206Y-55118388D01*
X143078699Y-55238853D01*
X143078700Y-55238854D01*
X143181146Y-55341300D01*
X143301610Y-55421792D01*
X143435462Y-55477235D01*
X143577560Y-55505500D01*
X143577561Y-55505500D01*
X143722439Y-55505500D01*
X143722440Y-55505500D01*
X143864538Y-55477235D01*
X143998390Y-55421792D01*
X144118854Y-55341300D01*
X144221300Y-55238854D01*
X144301792Y-55118390D01*
X144357235Y-54984538D01*
X144385500Y-54842440D01*
X144385500Y-54697560D01*
X144385499Y-54697557D01*
X145454500Y-54697557D01*
X145454500Y-54842442D01*
X145482765Y-54984537D01*
X145482765Y-54984539D01*
X145538206Y-55118387D01*
X145538206Y-55118388D01*
X145618699Y-55238853D01*
X145618700Y-55238854D01*
X145721146Y-55341300D01*
X145841610Y-55421792D01*
X145975462Y-55477235D01*
X146117560Y-55505500D01*
X146117561Y-55505500D01*
X146262439Y-55505500D01*
X146262440Y-55505500D01*
X146404538Y-55477235D01*
X146538390Y-55421792D01*
X146658854Y-55341300D01*
X146761300Y-55238854D01*
X146841792Y-55118390D01*
X146897235Y-54984538D01*
X146925500Y-54842440D01*
X146925500Y-54697560D01*
X146925499Y-54697557D01*
X147994500Y-54697557D01*
X147994500Y-54842442D01*
X148022765Y-54984537D01*
X148022765Y-54984539D01*
X148078206Y-55118387D01*
X148078206Y-55118388D01*
X148158699Y-55238853D01*
X148158700Y-55238854D01*
X148261146Y-55341300D01*
X148381610Y-55421792D01*
X148515462Y-55477235D01*
X148657560Y-55505500D01*
X148657561Y-55505500D01*
X148802439Y-55505500D01*
X148802440Y-55505500D01*
X148944538Y-55477235D01*
X149078390Y-55421792D01*
X149198854Y-55341300D01*
X149301300Y-55238854D01*
X149381792Y-55118390D01*
X149437235Y-54984538D01*
X149465500Y-54842440D01*
X149465500Y-54697560D01*
X149465499Y-54697557D01*
X150534500Y-54697557D01*
X150534500Y-54842442D01*
X150562765Y-54984537D01*
X150562765Y-54984539D01*
X150618206Y-55118387D01*
X150618206Y-55118388D01*
X150698699Y-55238853D01*
X150698700Y-55238854D01*
X150801146Y-55341300D01*
X150921610Y-55421792D01*
X151055462Y-55477235D01*
X151197560Y-55505500D01*
X151197561Y-55505500D01*
X151342439Y-55505500D01*
X151342440Y-55505500D01*
X151484538Y-55477235D01*
X151618390Y-55421792D01*
X151738854Y-55341300D01*
X151841300Y-55238854D01*
X151921792Y-55118390D01*
X151977235Y-54984538D01*
X152005500Y-54842440D01*
X152005500Y-54697560D01*
X152005499Y-54697557D01*
X153074500Y-54697557D01*
X153074500Y-54842442D01*
X153102765Y-54984537D01*
X153102765Y-54984539D01*
X153158206Y-55118387D01*
X153158206Y-55118388D01*
X153238699Y-55238853D01*
X153238700Y-55238854D01*
X153341146Y-55341300D01*
X153461610Y-55421792D01*
X153595462Y-55477235D01*
X153737560Y-55505500D01*
X153737561Y-55505500D01*
X153882439Y-55505500D01*
X153882440Y-55505500D01*
X154024538Y-55477235D01*
X154158390Y-55421792D01*
X154278854Y-55341300D01*
X154381300Y-55238854D01*
X154461792Y-55118390D01*
X154517235Y-54984538D01*
X154545500Y-54842440D01*
X154545500Y-54697560D01*
X154545499Y-54697557D01*
X155614500Y-54697557D01*
X155614500Y-54842442D01*
X155642765Y-54984537D01*
X155642765Y-54984539D01*
X155698206Y-55118387D01*
X155698206Y-55118388D01*
X155778699Y-55238853D01*
X155778700Y-55238854D01*
X155881146Y-55341300D01*
X156001610Y-55421792D01*
X156135462Y-55477235D01*
X156277560Y-55505500D01*
X156277561Y-55505500D01*
X156422439Y-55505500D01*
X156422440Y-55505500D01*
X156564538Y-55477235D01*
X156698390Y-55421792D01*
X156818854Y-55341300D01*
X156921300Y-55238854D01*
X157001792Y-55118390D01*
X157057235Y-54984538D01*
X157085500Y-54842440D01*
X157085500Y-54697560D01*
X157085499Y-54697557D01*
X158154500Y-54697557D01*
X158154500Y-54842442D01*
X158182765Y-54984537D01*
X158182765Y-54984539D01*
X158238206Y-55118387D01*
X158238206Y-55118388D01*
X158318699Y-55238853D01*
X158318700Y-55238854D01*
X158421146Y-55341300D01*
X158541610Y-55421792D01*
X158675462Y-55477235D01*
X158817560Y-55505500D01*
X158817561Y-55505500D01*
X158962439Y-55505500D01*
X158962440Y-55505500D01*
X159104538Y-55477235D01*
X159238390Y-55421792D01*
X159358854Y-55341300D01*
X159461300Y-55238854D01*
X159541792Y-55118390D01*
X159597235Y-54984538D01*
X159625500Y-54842440D01*
X159625500Y-54697560D01*
X159625499Y-54697557D01*
X160694500Y-54697557D01*
X160694500Y-54842442D01*
X160722765Y-54984537D01*
X160722765Y-54984539D01*
X160778206Y-55118387D01*
X160778206Y-55118388D01*
X160858699Y-55238853D01*
X160858700Y-55238854D01*
X160961146Y-55341300D01*
X161081610Y-55421792D01*
X161215462Y-55477235D01*
X161357560Y-55505500D01*
X161357561Y-55505500D01*
X161502439Y-55505500D01*
X161502440Y-55505500D01*
X161644538Y-55477235D01*
X161778390Y-55421792D01*
X161898854Y-55341300D01*
X162001300Y-55238854D01*
X162081792Y-55118390D01*
X162137235Y-54984538D01*
X162165500Y-54842440D01*
X162165500Y-54697560D01*
X162165499Y-54697557D01*
X163234500Y-54697557D01*
X163234500Y-54842442D01*
X163262765Y-54984537D01*
X163262765Y-54984539D01*
X163318206Y-55118387D01*
X163318206Y-55118388D01*
X163398699Y-55238853D01*
X163398700Y-55238854D01*
X163501146Y-55341300D01*
X163621610Y-55421792D01*
X163755462Y-55477235D01*
X163897560Y-55505500D01*
X163897561Y-55505500D01*
X164042439Y-55505500D01*
X164042440Y-55505500D01*
X164184538Y-55477235D01*
X164318390Y-55421792D01*
X164438854Y-55341300D01*
X164541300Y-55238854D01*
X164621792Y-55118390D01*
X164677235Y-54984538D01*
X164705500Y-54842440D01*
X164705500Y-54697560D01*
X164705499Y-54697557D01*
X165774500Y-54697557D01*
X165774500Y-54842442D01*
X165802765Y-54984537D01*
X165802765Y-54984539D01*
X165858206Y-55118387D01*
X165858206Y-55118388D01*
X165938699Y-55238853D01*
X165938700Y-55238854D01*
X166041146Y-55341300D01*
X166161610Y-55421792D01*
X166295462Y-55477235D01*
X166437560Y-55505500D01*
X166437561Y-55505500D01*
X166582439Y-55505500D01*
X166582440Y-55505500D01*
X166724538Y-55477235D01*
X166858390Y-55421792D01*
X166978854Y-55341300D01*
X167081300Y-55238854D01*
X167161792Y-55118390D01*
X167217235Y-54984538D01*
X167245500Y-54842440D01*
X167245500Y-54697560D01*
X167245499Y-54697557D01*
X168314500Y-54697557D01*
X168314500Y-54842442D01*
X168342765Y-54984537D01*
X168342765Y-54984539D01*
X168398206Y-55118387D01*
X168398206Y-55118388D01*
X168478699Y-55238853D01*
X168478700Y-55238854D01*
X168581146Y-55341300D01*
X168701610Y-55421792D01*
X168835462Y-55477235D01*
X168977560Y-55505500D01*
X168977561Y-55505500D01*
X169122439Y-55505500D01*
X169122440Y-55505500D01*
X169264538Y-55477235D01*
X169398390Y-55421792D01*
X169518854Y-55341300D01*
X169621300Y-55238854D01*
X169701792Y-55118390D01*
X169757235Y-54984538D01*
X169785500Y-54842440D01*
X169785500Y-54697560D01*
X169757235Y-54555462D01*
X169701793Y-54421612D01*
X169701793Y-54421611D01*
X169621300Y-54301146D01*
X169518853Y-54198699D01*
X169398387Y-54118206D01*
X169264538Y-54062765D01*
X169122442Y-54034500D01*
X169122440Y-54034500D01*
X168977560Y-54034500D01*
X168977557Y-54034500D01*
X168835462Y-54062765D01*
X168835460Y-54062765D01*
X168701612Y-54118206D01*
X168701611Y-54118206D01*
X168581146Y-54198699D01*
X168478699Y-54301146D01*
X168398206Y-54421611D01*
X168398206Y-54421612D01*
X168342765Y-54555460D01*
X168342765Y-54555462D01*
X168314500Y-54697557D01*
X167245499Y-54697557D01*
X167217235Y-54555462D01*
X167161793Y-54421612D01*
X167161793Y-54421611D01*
X167081300Y-54301146D01*
X166978853Y-54198699D01*
X166858387Y-54118206D01*
X166724538Y-54062765D01*
X166582442Y-54034500D01*
X166582440Y-54034500D01*
X166437560Y-54034500D01*
X166437557Y-54034500D01*
X166295462Y-54062765D01*
X166295460Y-54062765D01*
X166161612Y-54118206D01*
X166161611Y-54118206D01*
X166041146Y-54198699D01*
X165938699Y-54301146D01*
X165858206Y-54421611D01*
X165858206Y-54421612D01*
X165802765Y-54555460D01*
X165802765Y-54555462D01*
X165774500Y-54697557D01*
X164705499Y-54697557D01*
X164677235Y-54555462D01*
X164621793Y-54421612D01*
X164621793Y-54421611D01*
X164541300Y-54301146D01*
X164438853Y-54198699D01*
X164318387Y-54118206D01*
X164184538Y-54062765D01*
X164042442Y-54034500D01*
X164042440Y-54034500D01*
X163897560Y-54034500D01*
X163897557Y-54034500D01*
X163755462Y-54062765D01*
X163755460Y-54062765D01*
X163621612Y-54118206D01*
X163621611Y-54118206D01*
X163501146Y-54198699D01*
X163398699Y-54301146D01*
X163318206Y-54421611D01*
X163318206Y-54421612D01*
X163262765Y-54555460D01*
X163262765Y-54555462D01*
X163234500Y-54697557D01*
X162165499Y-54697557D01*
X162137235Y-54555462D01*
X162081793Y-54421612D01*
X162081793Y-54421611D01*
X162001300Y-54301146D01*
X161898853Y-54198699D01*
X161778387Y-54118206D01*
X161644538Y-54062765D01*
X161502442Y-54034500D01*
X161502440Y-54034500D01*
X161357560Y-54034500D01*
X161357557Y-54034500D01*
X161215462Y-54062765D01*
X161215460Y-54062765D01*
X161081612Y-54118206D01*
X161081611Y-54118206D01*
X160961146Y-54198699D01*
X160858699Y-54301146D01*
X160778206Y-54421611D01*
X160778206Y-54421612D01*
X160722765Y-54555460D01*
X160722765Y-54555462D01*
X160694500Y-54697557D01*
X159625499Y-54697557D01*
X159597235Y-54555462D01*
X159541793Y-54421612D01*
X159541793Y-54421611D01*
X159461300Y-54301146D01*
X159358853Y-54198699D01*
X159238387Y-54118206D01*
X159104538Y-54062765D01*
X158962442Y-54034500D01*
X158962440Y-54034500D01*
X158817560Y-54034500D01*
X158817557Y-54034500D01*
X158675462Y-54062765D01*
X158675460Y-54062765D01*
X158541612Y-54118206D01*
X158541611Y-54118206D01*
X158421146Y-54198699D01*
X158318699Y-54301146D01*
X158238206Y-54421611D01*
X158238206Y-54421612D01*
X158182765Y-54555460D01*
X158182765Y-54555462D01*
X158154500Y-54697557D01*
X157085499Y-54697557D01*
X157057235Y-54555462D01*
X157001793Y-54421612D01*
X157001793Y-54421611D01*
X156921300Y-54301146D01*
X156818853Y-54198699D01*
X156698387Y-54118206D01*
X156564538Y-54062765D01*
X156422442Y-54034500D01*
X156422440Y-54034500D01*
X156277560Y-54034500D01*
X156277557Y-54034500D01*
X156135462Y-54062765D01*
X156135460Y-54062765D01*
X156001612Y-54118206D01*
X156001611Y-54118206D01*
X155881146Y-54198699D01*
X155778699Y-54301146D01*
X155698206Y-54421611D01*
X155698206Y-54421612D01*
X155642765Y-54555460D01*
X155642765Y-54555462D01*
X155614500Y-54697557D01*
X154545499Y-54697557D01*
X154517235Y-54555462D01*
X154461793Y-54421612D01*
X154461793Y-54421611D01*
X154381300Y-54301146D01*
X154278853Y-54198699D01*
X154158387Y-54118206D01*
X154024538Y-54062765D01*
X153882442Y-54034500D01*
X153882440Y-54034500D01*
X153737560Y-54034500D01*
X153737557Y-54034500D01*
X153595462Y-54062765D01*
X153595460Y-54062765D01*
X153461612Y-54118206D01*
X153461611Y-54118206D01*
X153341146Y-54198699D01*
X153238699Y-54301146D01*
X153158206Y-54421611D01*
X153158206Y-54421612D01*
X153102765Y-54555460D01*
X153102765Y-54555462D01*
X153074500Y-54697557D01*
X152005499Y-54697557D01*
X151977235Y-54555462D01*
X151921793Y-54421612D01*
X151921793Y-54421611D01*
X151841300Y-54301146D01*
X151738853Y-54198699D01*
X151618387Y-54118206D01*
X151484538Y-54062765D01*
X151342442Y-54034500D01*
X151342440Y-54034500D01*
X151197560Y-54034500D01*
X151197557Y-54034500D01*
X151055462Y-54062765D01*
X151055460Y-54062765D01*
X150921612Y-54118206D01*
X150921611Y-54118206D01*
X150801146Y-54198699D01*
X150698699Y-54301146D01*
X150618206Y-54421611D01*
X150618206Y-54421612D01*
X150562765Y-54555460D01*
X150562765Y-54555462D01*
X150534500Y-54697557D01*
X149465499Y-54697557D01*
X149437235Y-54555462D01*
X149381793Y-54421612D01*
X149381793Y-54421611D01*
X149301300Y-54301146D01*
X149198853Y-54198699D01*
X149078387Y-54118206D01*
X148944538Y-54062765D01*
X148802442Y-54034500D01*
X148802440Y-54034500D01*
X148657560Y-54034500D01*
X148657557Y-54034500D01*
X148515462Y-54062765D01*
X148515460Y-54062765D01*
X148381612Y-54118206D01*
X148381611Y-54118206D01*
X148261146Y-54198699D01*
X148158699Y-54301146D01*
X148078206Y-54421611D01*
X148078206Y-54421612D01*
X148022765Y-54555460D01*
X148022765Y-54555462D01*
X147994500Y-54697557D01*
X146925499Y-54697557D01*
X146897235Y-54555462D01*
X146841793Y-54421612D01*
X146841793Y-54421611D01*
X146761300Y-54301146D01*
X146658853Y-54198699D01*
X146538387Y-54118206D01*
X146404538Y-54062765D01*
X146262442Y-54034500D01*
X146262440Y-54034500D01*
X146117560Y-54034500D01*
X146117557Y-54034500D01*
X145975462Y-54062765D01*
X145975460Y-54062765D01*
X145841612Y-54118206D01*
X145841611Y-54118206D01*
X145721146Y-54198699D01*
X145618699Y-54301146D01*
X145538206Y-54421611D01*
X145538206Y-54421612D01*
X145482765Y-54555460D01*
X145482765Y-54555462D01*
X145454500Y-54697557D01*
X144385499Y-54697557D01*
X144357235Y-54555462D01*
X144301793Y-54421612D01*
X144301793Y-54421611D01*
X144221300Y-54301146D01*
X144118853Y-54198699D01*
X143998387Y-54118206D01*
X143864538Y-54062765D01*
X143722442Y-54034500D01*
X143722440Y-54034500D01*
X143577560Y-54034500D01*
X143577557Y-54034500D01*
X143435462Y-54062765D01*
X143435460Y-54062765D01*
X143301612Y-54118206D01*
X143301611Y-54118206D01*
X143181146Y-54198699D01*
X143078699Y-54301146D01*
X142998206Y-54421611D01*
X142998206Y-54421612D01*
X142942765Y-54555460D01*
X142942765Y-54555462D01*
X142914500Y-54697557D01*
X141845499Y-54697557D01*
X141817235Y-54555462D01*
X141761793Y-54421612D01*
X141761793Y-54421611D01*
X141681300Y-54301146D01*
X141578853Y-54198699D01*
X141458387Y-54118206D01*
X141324538Y-54062765D01*
X141182442Y-54034500D01*
X141182440Y-54034500D01*
X141037560Y-54034500D01*
X141037557Y-54034500D01*
X140895462Y-54062765D01*
X140895460Y-54062765D01*
X140761612Y-54118206D01*
X140761611Y-54118206D01*
X140641146Y-54198699D01*
X140538699Y-54301146D01*
X140458206Y-54421611D01*
X140458206Y-54421612D01*
X140402765Y-54555460D01*
X140402765Y-54555462D01*
X140374500Y-54697557D01*
X139305499Y-54697557D01*
X139277235Y-54555462D01*
X139221793Y-54421612D01*
X139221793Y-54421611D01*
X139141300Y-54301146D01*
X139038853Y-54198699D01*
X138918387Y-54118206D01*
X138784538Y-54062765D01*
X138642442Y-54034500D01*
X138642440Y-54034500D01*
X138497560Y-54034500D01*
X138497557Y-54034500D01*
X138355462Y-54062765D01*
X138355460Y-54062765D01*
X138221612Y-54118206D01*
X138221611Y-54118206D01*
X138101146Y-54198699D01*
X137998699Y-54301146D01*
X137918206Y-54421611D01*
X137918206Y-54421612D01*
X137862765Y-54555460D01*
X137862765Y-54555462D01*
X137834500Y-54697557D01*
X136765499Y-54697557D01*
X136737235Y-54555462D01*
X136681793Y-54421612D01*
X136681793Y-54421611D01*
X136601300Y-54301146D01*
X136498853Y-54198699D01*
X136378387Y-54118206D01*
X136244538Y-54062765D01*
X136102442Y-54034500D01*
X136102440Y-54034500D01*
X135957560Y-54034500D01*
X135957557Y-54034500D01*
X135815462Y-54062765D01*
X135815460Y-54062765D01*
X135681612Y-54118206D01*
X135681611Y-54118206D01*
X135561146Y-54198699D01*
X135458699Y-54301146D01*
X135378206Y-54421611D01*
X135378206Y-54421612D01*
X135322765Y-54555460D01*
X135322765Y-54555462D01*
X135294500Y-54697557D01*
X134225499Y-54697557D01*
X134197235Y-54555462D01*
X134141793Y-54421612D01*
X134141793Y-54421611D01*
X134061300Y-54301146D01*
X133958853Y-54198699D01*
X133838387Y-54118206D01*
X133704538Y-54062765D01*
X133562442Y-54034500D01*
X133562440Y-54034500D01*
X133417560Y-54034500D01*
X133417557Y-54034500D01*
X133275462Y-54062765D01*
X133275460Y-54062765D01*
X133141612Y-54118206D01*
X133141611Y-54118206D01*
X133021146Y-54198699D01*
X132918699Y-54301146D01*
X132838206Y-54421611D01*
X132838206Y-54421612D01*
X132782765Y-54555460D01*
X132782765Y-54555462D01*
X132754500Y-54697557D01*
X131685499Y-54697557D01*
X131657235Y-54555462D01*
X131601793Y-54421612D01*
X131601793Y-54421611D01*
X131521300Y-54301146D01*
X131418853Y-54198699D01*
X131298387Y-54118206D01*
X131164538Y-54062765D01*
X131022442Y-54034500D01*
X131022440Y-54034500D01*
X130877560Y-54034500D01*
X130877557Y-54034500D01*
X130735462Y-54062765D01*
X130735460Y-54062765D01*
X130601612Y-54118206D01*
X130601611Y-54118206D01*
X130481146Y-54198699D01*
X130378699Y-54301146D01*
X130298206Y-54421611D01*
X130298206Y-54421612D01*
X130242765Y-54555460D01*
X130242765Y-54555462D01*
X130214500Y-54697557D01*
X129145499Y-54697557D01*
X129117235Y-54555462D01*
X129061793Y-54421612D01*
X129061793Y-54421611D01*
X128981300Y-54301146D01*
X128878853Y-54198699D01*
X128758387Y-54118206D01*
X128624538Y-54062765D01*
X128482442Y-54034500D01*
X128482440Y-54034500D01*
X128337560Y-54034500D01*
X128337559Y-54034500D01*
X128337549Y-54034501D01*
X128319298Y-54038131D01*
X128258537Y-54030938D01*
X128213608Y-53989404D01*
X128201674Y-53929394D01*
X128205832Y-53910441D01*
X128252417Y-53767068D01*
X128252418Y-53767063D01*
X128280500Y-53589762D01*
X128280500Y-53410237D01*
X128252418Y-53232936D01*
X128227668Y-53156762D01*
X128205832Y-53089557D01*
X128205832Y-53028373D01*
X128241796Y-52978873D01*
X128299987Y-52959966D01*
X128319299Y-52961867D01*
X128337560Y-52965500D01*
X128337561Y-52965500D01*
X128482439Y-52965500D01*
X128482440Y-52965500D01*
X128624538Y-52937235D01*
X128758390Y-52881792D01*
X128878854Y-52801300D01*
X128981300Y-52698854D01*
X129061792Y-52578390D01*
X129117235Y-52444538D01*
X129145500Y-52302440D01*
X129145500Y-52157560D01*
X129145499Y-52157557D01*
X130214500Y-52157557D01*
X130214500Y-52302442D01*
X130218131Y-52320696D01*
X130242470Y-52443057D01*
X130242765Y-52444537D01*
X130242765Y-52444539D01*
X130298206Y-52578387D01*
X130298206Y-52578388D01*
X130378699Y-52698853D01*
X130378700Y-52698854D01*
X130481146Y-52801300D01*
X130601610Y-52881792D01*
X130735462Y-52937235D01*
X130877560Y-52965500D01*
X130877561Y-52965500D01*
X131022439Y-52965500D01*
X131022440Y-52965500D01*
X131164538Y-52937235D01*
X131298390Y-52881792D01*
X131418854Y-52801300D01*
X131521300Y-52698854D01*
X131601792Y-52578390D01*
X131657235Y-52444538D01*
X131685500Y-52302440D01*
X131685500Y-52157560D01*
X131685499Y-52157557D01*
X132754500Y-52157557D01*
X132754500Y-52302442D01*
X132758131Y-52320696D01*
X132782470Y-52443057D01*
X132782765Y-52444537D01*
X132782765Y-52444539D01*
X132838206Y-52578387D01*
X132838206Y-52578388D01*
X132918699Y-52698853D01*
X132918700Y-52698854D01*
X133021146Y-52801300D01*
X133141610Y-52881792D01*
X133275462Y-52937235D01*
X133417560Y-52965500D01*
X133417561Y-52965500D01*
X133562439Y-52965500D01*
X133562440Y-52965500D01*
X133704538Y-52937235D01*
X133838390Y-52881792D01*
X133958854Y-52801300D01*
X134061300Y-52698854D01*
X134141792Y-52578390D01*
X134197235Y-52444538D01*
X134225500Y-52302440D01*
X134225500Y-52157560D01*
X134225499Y-52157557D01*
X135294500Y-52157557D01*
X135294500Y-52302442D01*
X135298131Y-52320696D01*
X135322470Y-52443057D01*
X135322765Y-52444537D01*
X135322765Y-52444539D01*
X135378206Y-52578387D01*
X135378206Y-52578388D01*
X135458699Y-52698853D01*
X135458700Y-52698854D01*
X135561146Y-52801300D01*
X135681610Y-52881792D01*
X135815462Y-52937235D01*
X135957560Y-52965500D01*
X135957561Y-52965500D01*
X136102439Y-52965500D01*
X136102440Y-52965500D01*
X136244538Y-52937235D01*
X136378390Y-52881792D01*
X136498854Y-52801300D01*
X136601300Y-52698854D01*
X136681792Y-52578390D01*
X136737235Y-52444538D01*
X136765500Y-52302440D01*
X136765500Y-52157560D01*
X136765499Y-52157557D01*
X137834500Y-52157557D01*
X137834500Y-52302442D01*
X137838131Y-52320696D01*
X137862470Y-52443057D01*
X137862765Y-52444537D01*
X137862765Y-52444539D01*
X137918206Y-52578387D01*
X137918206Y-52578388D01*
X137998699Y-52698853D01*
X137998700Y-52698854D01*
X138101146Y-52801300D01*
X138221610Y-52881792D01*
X138355462Y-52937235D01*
X138497560Y-52965500D01*
X138497561Y-52965500D01*
X138642439Y-52965500D01*
X138642440Y-52965500D01*
X138784538Y-52937235D01*
X138918390Y-52881792D01*
X139038854Y-52801300D01*
X139141300Y-52698854D01*
X139221792Y-52578390D01*
X139277235Y-52444538D01*
X139305500Y-52302440D01*
X139305500Y-52157560D01*
X139305499Y-52157557D01*
X140374500Y-52157557D01*
X140374500Y-52302442D01*
X140378131Y-52320696D01*
X140402470Y-52443057D01*
X140402765Y-52444537D01*
X140402765Y-52444539D01*
X140458206Y-52578387D01*
X140458206Y-52578388D01*
X140538699Y-52698853D01*
X140538700Y-52698854D01*
X140641146Y-52801300D01*
X140761610Y-52881792D01*
X140895462Y-52937235D01*
X141037560Y-52965500D01*
X141037561Y-52965500D01*
X141182439Y-52965500D01*
X141182440Y-52965500D01*
X141324538Y-52937235D01*
X141458390Y-52881792D01*
X141578854Y-52801300D01*
X141681300Y-52698854D01*
X141761792Y-52578390D01*
X141817235Y-52444538D01*
X141845500Y-52302440D01*
X141845500Y-52157560D01*
X141845499Y-52157557D01*
X142914500Y-52157557D01*
X142914500Y-52302442D01*
X142918131Y-52320696D01*
X142942470Y-52443057D01*
X142942765Y-52444537D01*
X142942765Y-52444539D01*
X142998206Y-52578387D01*
X142998206Y-52578388D01*
X143078699Y-52698853D01*
X143078700Y-52698854D01*
X143181146Y-52801300D01*
X143301610Y-52881792D01*
X143435462Y-52937235D01*
X143577560Y-52965500D01*
X143577561Y-52965500D01*
X143722439Y-52965500D01*
X143722440Y-52965500D01*
X143864538Y-52937235D01*
X143998390Y-52881792D01*
X144118854Y-52801300D01*
X144221300Y-52698854D01*
X144301792Y-52578390D01*
X144357235Y-52444538D01*
X144385500Y-52302440D01*
X144385500Y-52157560D01*
X144385499Y-52157557D01*
X145454500Y-52157557D01*
X145454500Y-52302442D01*
X145458131Y-52320696D01*
X145482470Y-52443057D01*
X145482765Y-52444537D01*
X145482765Y-52444539D01*
X145538206Y-52578387D01*
X145538206Y-52578388D01*
X145618699Y-52698853D01*
X145618700Y-52698854D01*
X145721146Y-52801300D01*
X145841610Y-52881792D01*
X145975462Y-52937235D01*
X146117560Y-52965500D01*
X146117561Y-52965500D01*
X146262439Y-52965500D01*
X146262440Y-52965500D01*
X146404538Y-52937235D01*
X146538390Y-52881792D01*
X146658854Y-52801300D01*
X146761300Y-52698854D01*
X146841792Y-52578390D01*
X146897235Y-52444538D01*
X146925500Y-52302440D01*
X146925500Y-52157560D01*
X146925499Y-52157557D01*
X147994500Y-52157557D01*
X147994500Y-52302442D01*
X147998131Y-52320696D01*
X148022470Y-52443057D01*
X148022765Y-52444537D01*
X148022765Y-52444539D01*
X148078206Y-52578387D01*
X148078206Y-52578388D01*
X148158699Y-52698853D01*
X148158700Y-52698854D01*
X148261146Y-52801300D01*
X148381610Y-52881792D01*
X148515462Y-52937235D01*
X148657560Y-52965500D01*
X148657561Y-52965500D01*
X148802439Y-52965500D01*
X148802440Y-52965500D01*
X148944538Y-52937235D01*
X149078390Y-52881792D01*
X149198854Y-52801300D01*
X149301300Y-52698854D01*
X149381792Y-52578390D01*
X149437235Y-52444538D01*
X149465500Y-52302440D01*
X149465500Y-52157560D01*
X149465499Y-52157557D01*
X150534500Y-52157557D01*
X150534500Y-52302442D01*
X150538131Y-52320696D01*
X150562470Y-52443057D01*
X150562765Y-52444537D01*
X150562765Y-52444539D01*
X150618206Y-52578387D01*
X150618206Y-52578388D01*
X150698699Y-52698853D01*
X150698700Y-52698854D01*
X150801146Y-52801300D01*
X150921610Y-52881792D01*
X151055462Y-52937235D01*
X151197560Y-52965500D01*
X151197561Y-52965500D01*
X151342439Y-52965500D01*
X151342440Y-52965500D01*
X151484538Y-52937235D01*
X151618390Y-52881792D01*
X151738854Y-52801300D01*
X151841300Y-52698854D01*
X151921792Y-52578390D01*
X151977235Y-52444538D01*
X152005500Y-52302440D01*
X152005500Y-52157560D01*
X152005499Y-52157557D01*
X153074500Y-52157557D01*
X153074500Y-52302442D01*
X153078131Y-52320696D01*
X153102470Y-52443057D01*
X153102765Y-52444537D01*
X153102765Y-52444539D01*
X153158206Y-52578387D01*
X153158206Y-52578388D01*
X153238699Y-52698853D01*
X153238700Y-52698854D01*
X153341146Y-52801300D01*
X153461610Y-52881792D01*
X153595462Y-52937235D01*
X153737560Y-52965500D01*
X153737561Y-52965500D01*
X153882439Y-52965500D01*
X153882440Y-52965500D01*
X154024538Y-52937235D01*
X154158390Y-52881792D01*
X154278854Y-52801300D01*
X154381300Y-52698854D01*
X154461792Y-52578390D01*
X154517235Y-52444538D01*
X154545500Y-52302440D01*
X154545500Y-52157560D01*
X154545499Y-52157557D01*
X155614500Y-52157557D01*
X155614500Y-52302442D01*
X155618131Y-52320696D01*
X155642470Y-52443057D01*
X155642765Y-52444537D01*
X155642765Y-52444539D01*
X155698206Y-52578387D01*
X155698206Y-52578388D01*
X155778699Y-52698853D01*
X155778700Y-52698854D01*
X155881146Y-52801300D01*
X156001610Y-52881792D01*
X156135462Y-52937235D01*
X156277560Y-52965500D01*
X156277561Y-52965500D01*
X156422439Y-52965500D01*
X156422440Y-52965500D01*
X156564538Y-52937235D01*
X156698390Y-52881792D01*
X156818854Y-52801300D01*
X156921300Y-52698854D01*
X157001792Y-52578390D01*
X157057235Y-52444538D01*
X157085500Y-52302440D01*
X157085500Y-52157560D01*
X157085499Y-52157557D01*
X158154500Y-52157557D01*
X158154500Y-52302442D01*
X158158131Y-52320696D01*
X158182470Y-52443057D01*
X158182765Y-52444537D01*
X158182765Y-52444539D01*
X158238206Y-52578387D01*
X158238206Y-52578388D01*
X158318699Y-52698853D01*
X158318700Y-52698854D01*
X158421146Y-52801300D01*
X158541610Y-52881792D01*
X158675462Y-52937235D01*
X158817560Y-52965500D01*
X158817561Y-52965500D01*
X158962439Y-52965500D01*
X158962440Y-52965500D01*
X159104538Y-52937235D01*
X159238390Y-52881792D01*
X159358854Y-52801300D01*
X159461300Y-52698854D01*
X159541792Y-52578390D01*
X159597235Y-52444538D01*
X159625500Y-52302440D01*
X159625500Y-52157560D01*
X159625499Y-52157557D01*
X160694500Y-52157557D01*
X160694500Y-52302442D01*
X160698131Y-52320696D01*
X160722470Y-52443057D01*
X160722765Y-52444537D01*
X160722765Y-52444539D01*
X160778206Y-52578387D01*
X160778206Y-52578388D01*
X160858699Y-52698853D01*
X160858700Y-52698854D01*
X160961146Y-52801300D01*
X161081610Y-52881792D01*
X161215462Y-52937235D01*
X161357560Y-52965500D01*
X161357561Y-52965500D01*
X161502439Y-52965500D01*
X161502440Y-52965500D01*
X161644538Y-52937235D01*
X161778390Y-52881792D01*
X161898854Y-52801300D01*
X162001300Y-52698854D01*
X162081792Y-52578390D01*
X162137235Y-52444538D01*
X162165500Y-52302440D01*
X162165500Y-52157560D01*
X162165499Y-52157557D01*
X163234500Y-52157557D01*
X163234500Y-52302442D01*
X163238131Y-52320696D01*
X163262470Y-52443057D01*
X163262765Y-52444537D01*
X163262765Y-52444539D01*
X163318206Y-52578387D01*
X163318206Y-52578388D01*
X163398699Y-52698853D01*
X163398700Y-52698854D01*
X163501146Y-52801300D01*
X163621610Y-52881792D01*
X163755462Y-52937235D01*
X163897560Y-52965500D01*
X163897561Y-52965500D01*
X164042439Y-52965500D01*
X164042440Y-52965500D01*
X164184538Y-52937235D01*
X164318390Y-52881792D01*
X164438854Y-52801300D01*
X164541300Y-52698854D01*
X164621792Y-52578390D01*
X164677235Y-52444538D01*
X164705500Y-52302440D01*
X164705500Y-52157560D01*
X164705499Y-52157557D01*
X165774500Y-52157557D01*
X165774500Y-52302442D01*
X165778131Y-52320696D01*
X165802470Y-52443057D01*
X165802765Y-52444537D01*
X165802765Y-52444539D01*
X165858206Y-52578387D01*
X165858206Y-52578388D01*
X165938699Y-52698853D01*
X165938700Y-52698854D01*
X166041146Y-52801300D01*
X166161610Y-52881792D01*
X166295462Y-52937235D01*
X166437560Y-52965500D01*
X166437561Y-52965500D01*
X166582439Y-52965500D01*
X166582440Y-52965500D01*
X166724538Y-52937235D01*
X166858390Y-52881792D01*
X166978854Y-52801300D01*
X167081300Y-52698854D01*
X167161792Y-52578390D01*
X167217235Y-52444538D01*
X167245500Y-52302440D01*
X167245500Y-52157560D01*
X167245499Y-52157557D01*
X168314500Y-52157557D01*
X168314500Y-52302442D01*
X168318131Y-52320696D01*
X168342470Y-52443057D01*
X168342765Y-52444537D01*
X168342765Y-52444539D01*
X168398206Y-52578387D01*
X168398206Y-52578388D01*
X168478699Y-52698853D01*
X168478700Y-52698854D01*
X168581146Y-52801300D01*
X168701610Y-52881792D01*
X168835462Y-52937235D01*
X168977560Y-52965500D01*
X168977561Y-52965500D01*
X169122439Y-52965500D01*
X169122440Y-52965500D01*
X169264538Y-52937235D01*
X169398390Y-52881792D01*
X169518854Y-52801300D01*
X169621300Y-52698854D01*
X169701792Y-52578390D01*
X169757235Y-52444538D01*
X169785500Y-52302440D01*
X169785500Y-52157560D01*
X169785499Y-52157557D01*
X170854500Y-52157557D01*
X170854500Y-52302442D01*
X170858131Y-52320696D01*
X170882470Y-52443057D01*
X170882765Y-52444537D01*
X170882765Y-52444539D01*
X170938206Y-52578387D01*
X170938206Y-52578388D01*
X171018699Y-52698853D01*
X171018700Y-52698854D01*
X171121146Y-52801300D01*
X171241610Y-52881792D01*
X171375462Y-52937235D01*
X171517560Y-52965500D01*
X171517561Y-52965500D01*
X171662439Y-52965500D01*
X171662440Y-52965500D01*
X171662441Y-52965499D01*
X171662448Y-52965499D01*
X171680696Y-52961869D01*
X171741458Y-52969059D01*
X171786388Y-53010591D01*
X171798326Y-53070600D01*
X171794167Y-53089558D01*
X171747582Y-53232934D01*
X171719500Y-53410237D01*
X171719500Y-53589762D01*
X171747582Y-53767065D01*
X171794167Y-53910441D01*
X171794166Y-53971626D01*
X171758202Y-54021126D01*
X171700012Y-54040033D01*
X171680700Y-54038131D01*
X171662448Y-54034500D01*
X171662440Y-54034500D01*
X171517560Y-54034500D01*
X171517557Y-54034500D01*
X171375462Y-54062765D01*
X171375460Y-54062765D01*
X171241612Y-54118206D01*
X171241611Y-54118206D01*
X171121146Y-54198699D01*
X171018699Y-54301146D01*
X170938206Y-54421611D01*
X170938206Y-54421612D01*
X170882765Y-54555460D01*
X170882765Y-54555462D01*
X170854500Y-54697557D01*
X170854500Y-54842442D01*
X170882765Y-54984537D01*
X170882765Y-54984539D01*
X170938206Y-55118387D01*
X170938206Y-55118388D01*
X171018699Y-55238853D01*
X171018700Y-55238854D01*
X171121146Y-55341300D01*
X171241610Y-55421792D01*
X171375462Y-55477235D01*
X171517560Y-55505500D01*
X171517561Y-55505500D01*
X171662439Y-55505500D01*
X171662440Y-55505500D01*
X171804538Y-55477235D01*
X171938390Y-55421792D01*
X172058854Y-55341300D01*
X172161300Y-55238854D01*
X172241792Y-55118390D01*
X172297235Y-54984538D01*
X172325500Y-54842440D01*
X172325500Y-54697560D01*
X172321868Y-54679301D01*
X172329059Y-54618541D01*
X172370592Y-54573610D01*
X172430601Y-54561673D01*
X172449554Y-54565831D01*
X172592932Y-54612417D01*
X172592933Y-54612417D01*
X172592936Y-54612418D01*
X172770238Y-54640500D01*
X172770241Y-54640500D01*
X172949762Y-54640500D01*
X173127063Y-54612418D01*
X173127064Y-54612417D01*
X173127068Y-54612417D01*
X173270442Y-54565832D01*
X173331625Y-54565832D01*
X173381126Y-54601796D01*
X173400033Y-54659987D01*
X173398131Y-54679298D01*
X173394501Y-54697549D01*
X173394500Y-54697561D01*
X173394500Y-54842442D01*
X173422765Y-54984537D01*
X173422765Y-54984539D01*
X173478206Y-55118387D01*
X173478206Y-55118388D01*
X173558699Y-55238853D01*
X173558700Y-55238854D01*
X173661146Y-55341300D01*
X173781610Y-55421792D01*
X173915462Y-55477235D01*
X174057560Y-55505500D01*
X174057561Y-55505500D01*
X174202439Y-55505500D01*
X174202440Y-55505500D01*
X174344538Y-55477235D01*
X174478390Y-55421792D01*
X174598854Y-55341300D01*
X174701300Y-55238854D01*
X174781792Y-55118390D01*
X174837235Y-54984538D01*
X174865500Y-54842440D01*
X174865500Y-54697560D01*
X174837235Y-54555462D01*
X174781793Y-54421612D01*
X174781793Y-54421611D01*
X174701300Y-54301146D01*
X174598853Y-54198699D01*
X174478387Y-54118206D01*
X174344538Y-54062765D01*
X174202442Y-54034500D01*
X174202440Y-54034500D01*
X174057560Y-54034500D01*
X174057559Y-54034500D01*
X174057549Y-54034501D01*
X174039298Y-54038131D01*
X173978537Y-54030938D01*
X173933608Y-53989404D01*
X173921674Y-53929394D01*
X173925832Y-53910441D01*
X173972417Y-53767068D01*
X173972418Y-53767063D01*
X174000500Y-53589762D01*
X174000500Y-53410237D01*
X173992031Y-53356765D01*
X176449500Y-53356765D01*
X176449500Y-53643234D01*
X176481573Y-53927896D01*
X176545318Y-54207185D01*
X176639930Y-54477569D01*
X176764223Y-54735667D01*
X176840315Y-54856766D01*
X176916634Y-54978227D01*
X177095243Y-55202195D01*
X177297805Y-55404757D01*
X177521773Y-55583366D01*
X177572050Y-55614957D01*
X177764332Y-55735776D01*
X177877514Y-55790281D01*
X178022428Y-55860068D01*
X178022431Y-55860069D01*
X178022430Y-55860069D01*
X178292814Y-55954681D01*
X178292817Y-55954681D01*
X178292818Y-55954682D01*
X178572102Y-56018426D01*
X178856767Y-56050500D01*
X178856768Y-56050500D01*
X179143232Y-56050500D01*
X179143233Y-56050500D01*
X179427898Y-56018426D01*
X179707182Y-55954682D01*
X179977572Y-55860068D01*
X180235669Y-55735775D01*
X180478227Y-55583366D01*
X180702195Y-55404757D01*
X180904757Y-55202195D01*
X181083366Y-54978227D01*
X181235775Y-54735669D01*
X181360068Y-54477572D01*
X181454682Y-54207182D01*
X181518426Y-53927898D01*
X181550500Y-53643233D01*
X181550500Y-53356767D01*
X181518426Y-53072102D01*
X181454682Y-52792818D01*
X181421802Y-52698854D01*
X181360069Y-52522430D01*
X181235776Y-52264332D01*
X181083365Y-52021772D01*
X181078333Y-52015462D01*
X180904757Y-51797805D01*
X180702195Y-51595243D01*
X180478227Y-51416634D01*
X180235667Y-51264223D01*
X179977568Y-51139930D01*
X179977569Y-51139930D01*
X179707185Y-51045318D01*
X179427896Y-50981573D01*
X179143234Y-50949500D01*
X179143233Y-50949500D01*
X178856767Y-50949500D01*
X178856765Y-50949500D01*
X178572103Y-50981573D01*
X178292814Y-51045318D01*
X178022430Y-51139930D01*
X177764332Y-51264223D01*
X177521772Y-51416634D01*
X177297806Y-51595242D01*
X177095242Y-51797806D01*
X176916634Y-52021772D01*
X176764223Y-52264332D01*
X176639930Y-52522430D01*
X176545318Y-52792814D01*
X176481573Y-53072103D01*
X176449500Y-53356765D01*
X173992031Y-53356765D01*
X173972418Y-53232936D01*
X173947668Y-53156762D01*
X173925832Y-53089557D01*
X173925832Y-53028373D01*
X173961796Y-52978873D01*
X174019987Y-52959966D01*
X174039299Y-52961867D01*
X174057560Y-52965500D01*
X174057561Y-52965500D01*
X174202439Y-52965500D01*
X174202440Y-52965500D01*
X174344538Y-52937235D01*
X174478390Y-52881792D01*
X174598854Y-52801300D01*
X174701300Y-52698854D01*
X174781792Y-52578390D01*
X174837235Y-52444538D01*
X174865500Y-52302440D01*
X174865500Y-52157560D01*
X174837235Y-52015462D01*
X174781793Y-51881612D01*
X174781793Y-51881611D01*
X174701300Y-51761146D01*
X174598853Y-51658699D01*
X174478387Y-51578206D01*
X174344538Y-51522765D01*
X174202442Y-51494500D01*
X174202440Y-51494500D01*
X174057560Y-51494500D01*
X174057557Y-51494500D01*
X173915462Y-51522765D01*
X173915460Y-51522765D01*
X173781612Y-51578206D01*
X173781611Y-51578206D01*
X173661146Y-51658699D01*
X173558699Y-51761146D01*
X173478206Y-51881611D01*
X173478206Y-51881612D01*
X173422765Y-52015460D01*
X173422765Y-52015462D01*
X173394500Y-52157557D01*
X173394500Y-52302448D01*
X173398131Y-52320700D01*
X173390938Y-52381461D01*
X173349405Y-52426390D01*
X173289395Y-52438326D01*
X173270441Y-52434167D01*
X173127065Y-52387582D01*
X172949762Y-52359500D01*
X172949759Y-52359500D01*
X172770241Y-52359500D01*
X172770238Y-52359500D01*
X172592934Y-52387582D01*
X172449558Y-52434167D01*
X172388373Y-52434166D01*
X172338873Y-52398202D01*
X172319966Y-52340011D01*
X172321869Y-52320696D01*
X172325499Y-52302448D01*
X172325500Y-52302438D01*
X172325500Y-52157561D01*
X172325499Y-52157557D01*
X172322921Y-52144596D01*
X172297235Y-52015462D01*
X172241793Y-51881612D01*
X172241793Y-51881611D01*
X172161300Y-51761146D01*
X172058853Y-51658699D01*
X171938387Y-51578206D01*
X171804538Y-51522765D01*
X171662442Y-51494500D01*
X171662440Y-51494500D01*
X171517560Y-51494500D01*
X171517557Y-51494500D01*
X171375462Y-51522765D01*
X171375460Y-51522765D01*
X171241612Y-51578206D01*
X171241611Y-51578206D01*
X171121146Y-51658699D01*
X171018699Y-51761146D01*
X170938206Y-51881611D01*
X170938206Y-51881612D01*
X170882765Y-52015460D01*
X170882765Y-52015462D01*
X170854500Y-52157557D01*
X169785499Y-52157557D01*
X169757235Y-52015462D01*
X169701793Y-51881612D01*
X169701793Y-51881611D01*
X169621300Y-51761146D01*
X169518853Y-51658699D01*
X169398387Y-51578206D01*
X169264538Y-51522765D01*
X169122442Y-51494500D01*
X169122440Y-51494500D01*
X168977560Y-51494500D01*
X168977557Y-51494500D01*
X168835462Y-51522765D01*
X168835460Y-51522765D01*
X168701612Y-51578206D01*
X168701611Y-51578206D01*
X168581146Y-51658699D01*
X168478699Y-51761146D01*
X168398206Y-51881611D01*
X168398206Y-51881612D01*
X168342765Y-52015460D01*
X168342765Y-52015462D01*
X168314500Y-52157557D01*
X167245499Y-52157557D01*
X167217235Y-52015462D01*
X167161793Y-51881612D01*
X167161793Y-51881611D01*
X167081300Y-51761146D01*
X166978853Y-51658699D01*
X166858387Y-51578206D01*
X166724538Y-51522765D01*
X166582442Y-51494500D01*
X166582440Y-51494500D01*
X166437560Y-51494500D01*
X166437557Y-51494500D01*
X166295462Y-51522765D01*
X166295460Y-51522765D01*
X166161612Y-51578206D01*
X166161611Y-51578206D01*
X166041146Y-51658699D01*
X165938699Y-51761146D01*
X165858206Y-51881611D01*
X165858206Y-51881612D01*
X165802765Y-52015460D01*
X165802765Y-52015462D01*
X165774500Y-52157557D01*
X164705499Y-52157557D01*
X164677235Y-52015462D01*
X164621793Y-51881612D01*
X164621793Y-51881611D01*
X164541300Y-51761146D01*
X164438853Y-51658699D01*
X164318387Y-51578206D01*
X164184538Y-51522765D01*
X164042442Y-51494500D01*
X164042440Y-51494500D01*
X163897560Y-51494500D01*
X163897557Y-51494500D01*
X163755462Y-51522765D01*
X163755460Y-51522765D01*
X163621612Y-51578206D01*
X163621611Y-51578206D01*
X163501146Y-51658699D01*
X163398699Y-51761146D01*
X163318206Y-51881611D01*
X163318206Y-51881612D01*
X163262765Y-52015460D01*
X163262765Y-52015462D01*
X163234500Y-52157557D01*
X162165499Y-52157557D01*
X162137235Y-52015462D01*
X162081793Y-51881612D01*
X162081793Y-51881611D01*
X162001300Y-51761146D01*
X161898853Y-51658699D01*
X161778387Y-51578206D01*
X161644538Y-51522765D01*
X161502442Y-51494500D01*
X161502440Y-51494500D01*
X161357560Y-51494500D01*
X161357557Y-51494500D01*
X161215462Y-51522765D01*
X161215460Y-51522765D01*
X161081612Y-51578206D01*
X161081611Y-51578206D01*
X160961146Y-51658699D01*
X160858699Y-51761146D01*
X160778206Y-51881611D01*
X160778206Y-51881612D01*
X160722765Y-52015460D01*
X160722765Y-52015462D01*
X160694500Y-52157557D01*
X159625499Y-52157557D01*
X159597235Y-52015462D01*
X159541793Y-51881612D01*
X159541793Y-51881611D01*
X159461300Y-51761146D01*
X159358853Y-51658699D01*
X159238387Y-51578206D01*
X159104538Y-51522765D01*
X158962442Y-51494500D01*
X158962440Y-51494500D01*
X158817560Y-51494500D01*
X158817557Y-51494500D01*
X158675462Y-51522765D01*
X158675460Y-51522765D01*
X158541612Y-51578206D01*
X158541611Y-51578206D01*
X158421146Y-51658699D01*
X158318699Y-51761146D01*
X158238206Y-51881611D01*
X158238206Y-51881612D01*
X158182765Y-52015460D01*
X158182765Y-52015462D01*
X158154500Y-52157557D01*
X157085499Y-52157557D01*
X157057235Y-52015462D01*
X157001793Y-51881612D01*
X157001793Y-51881611D01*
X156921300Y-51761146D01*
X156818853Y-51658699D01*
X156698387Y-51578206D01*
X156564538Y-51522765D01*
X156422442Y-51494500D01*
X156422440Y-51494500D01*
X156277560Y-51494500D01*
X156277557Y-51494500D01*
X156135462Y-51522765D01*
X156135460Y-51522765D01*
X156001612Y-51578206D01*
X156001611Y-51578206D01*
X155881146Y-51658699D01*
X155778699Y-51761146D01*
X155698206Y-51881611D01*
X155698206Y-51881612D01*
X155642765Y-52015460D01*
X155642765Y-52015462D01*
X155614500Y-52157557D01*
X154545499Y-52157557D01*
X154517235Y-52015462D01*
X154461793Y-51881612D01*
X154461793Y-51881611D01*
X154381300Y-51761146D01*
X154278853Y-51658699D01*
X154158387Y-51578206D01*
X154024538Y-51522765D01*
X153882442Y-51494500D01*
X153882440Y-51494500D01*
X153737560Y-51494500D01*
X153737557Y-51494500D01*
X153595462Y-51522765D01*
X153595460Y-51522765D01*
X153461612Y-51578206D01*
X153461611Y-51578206D01*
X153341146Y-51658699D01*
X153238699Y-51761146D01*
X153158206Y-51881611D01*
X153158206Y-51881612D01*
X153102765Y-52015460D01*
X153102765Y-52015462D01*
X153074500Y-52157557D01*
X152005499Y-52157557D01*
X151977235Y-52015462D01*
X151921793Y-51881612D01*
X151921793Y-51881611D01*
X151841300Y-51761146D01*
X151738853Y-51658699D01*
X151618387Y-51578206D01*
X151484538Y-51522765D01*
X151342442Y-51494500D01*
X151342440Y-51494500D01*
X151197560Y-51494500D01*
X151197557Y-51494500D01*
X151055462Y-51522765D01*
X151055460Y-51522765D01*
X150921612Y-51578206D01*
X150921611Y-51578206D01*
X150801146Y-51658699D01*
X150698699Y-51761146D01*
X150618206Y-51881611D01*
X150618206Y-51881612D01*
X150562765Y-52015460D01*
X150562765Y-52015462D01*
X150534500Y-52157557D01*
X149465499Y-52157557D01*
X149437235Y-52015462D01*
X149381793Y-51881612D01*
X149381793Y-51881611D01*
X149301300Y-51761146D01*
X149198853Y-51658699D01*
X149078387Y-51578206D01*
X148944538Y-51522765D01*
X148802442Y-51494500D01*
X148802440Y-51494500D01*
X148657560Y-51494500D01*
X148657557Y-51494500D01*
X148515462Y-51522765D01*
X148515460Y-51522765D01*
X148381612Y-51578206D01*
X148381611Y-51578206D01*
X148261146Y-51658699D01*
X148158699Y-51761146D01*
X148078206Y-51881611D01*
X148078206Y-51881612D01*
X148022765Y-52015460D01*
X148022765Y-52015462D01*
X147994500Y-52157557D01*
X146925499Y-52157557D01*
X146897235Y-52015462D01*
X146841793Y-51881612D01*
X146841793Y-51881611D01*
X146761300Y-51761146D01*
X146658853Y-51658699D01*
X146538387Y-51578206D01*
X146404538Y-51522765D01*
X146262442Y-51494500D01*
X146262440Y-51494500D01*
X146117560Y-51494500D01*
X146117557Y-51494500D01*
X145975462Y-51522765D01*
X145975460Y-51522765D01*
X145841612Y-51578206D01*
X145841611Y-51578206D01*
X145721146Y-51658699D01*
X145618699Y-51761146D01*
X145538206Y-51881611D01*
X145538206Y-51881612D01*
X145482765Y-52015460D01*
X145482765Y-52015462D01*
X145454500Y-52157557D01*
X144385499Y-52157557D01*
X144357235Y-52015462D01*
X144301793Y-51881612D01*
X144301793Y-51881611D01*
X144221300Y-51761146D01*
X144118853Y-51658699D01*
X143998387Y-51578206D01*
X143864538Y-51522765D01*
X143722442Y-51494500D01*
X143722440Y-51494500D01*
X143577560Y-51494500D01*
X143577557Y-51494500D01*
X143435462Y-51522765D01*
X143435460Y-51522765D01*
X143301612Y-51578206D01*
X143301611Y-51578206D01*
X143181146Y-51658699D01*
X143078699Y-51761146D01*
X142998206Y-51881611D01*
X142998206Y-51881612D01*
X142942765Y-52015460D01*
X142942765Y-52015462D01*
X142914500Y-52157557D01*
X141845499Y-52157557D01*
X141817235Y-52015462D01*
X141761793Y-51881612D01*
X141761793Y-51881611D01*
X141681300Y-51761146D01*
X141578853Y-51658699D01*
X141458387Y-51578206D01*
X141324538Y-51522765D01*
X141182442Y-51494500D01*
X141182440Y-51494500D01*
X141037560Y-51494500D01*
X141037557Y-51494500D01*
X140895462Y-51522765D01*
X140895460Y-51522765D01*
X140761612Y-51578206D01*
X140761611Y-51578206D01*
X140641146Y-51658699D01*
X140538699Y-51761146D01*
X140458206Y-51881611D01*
X140458206Y-51881612D01*
X140402765Y-52015460D01*
X140402765Y-52015462D01*
X140374500Y-52157557D01*
X139305499Y-52157557D01*
X139277235Y-52015462D01*
X139221793Y-51881612D01*
X139221793Y-51881611D01*
X139141300Y-51761146D01*
X139038853Y-51658699D01*
X138918387Y-51578206D01*
X138784538Y-51522765D01*
X138642442Y-51494500D01*
X138642440Y-51494500D01*
X138497560Y-51494500D01*
X138497557Y-51494500D01*
X138355462Y-51522765D01*
X138355460Y-51522765D01*
X138221612Y-51578206D01*
X138221611Y-51578206D01*
X138101146Y-51658699D01*
X137998699Y-51761146D01*
X137918206Y-51881611D01*
X137918206Y-51881612D01*
X137862765Y-52015460D01*
X137862765Y-52015462D01*
X137834500Y-52157557D01*
X136765499Y-52157557D01*
X136737235Y-52015462D01*
X136681793Y-51881612D01*
X136681793Y-51881611D01*
X136601300Y-51761146D01*
X136498853Y-51658699D01*
X136378387Y-51578206D01*
X136244538Y-51522765D01*
X136102442Y-51494500D01*
X136102440Y-51494500D01*
X135957560Y-51494500D01*
X135957557Y-51494500D01*
X135815462Y-51522765D01*
X135815460Y-51522765D01*
X135681612Y-51578206D01*
X135681611Y-51578206D01*
X135561146Y-51658699D01*
X135458699Y-51761146D01*
X135378206Y-51881611D01*
X135378206Y-51881612D01*
X135322765Y-52015460D01*
X135322765Y-52015462D01*
X135294500Y-52157557D01*
X134225499Y-52157557D01*
X134197235Y-52015462D01*
X134141793Y-51881612D01*
X134141793Y-51881611D01*
X134061300Y-51761146D01*
X133958853Y-51658699D01*
X133838387Y-51578206D01*
X133704538Y-51522765D01*
X133562442Y-51494500D01*
X133562440Y-51494500D01*
X133417560Y-51494500D01*
X133417557Y-51494500D01*
X133275462Y-51522765D01*
X133275460Y-51522765D01*
X133141612Y-51578206D01*
X133141611Y-51578206D01*
X133021146Y-51658699D01*
X132918699Y-51761146D01*
X132838206Y-51881611D01*
X132838206Y-51881612D01*
X132782765Y-52015460D01*
X132782765Y-52015462D01*
X132754500Y-52157557D01*
X131685499Y-52157557D01*
X131657235Y-52015462D01*
X131601793Y-51881612D01*
X131601793Y-51881611D01*
X131521300Y-51761146D01*
X131418853Y-51658699D01*
X131298387Y-51578206D01*
X131164538Y-51522765D01*
X131022442Y-51494500D01*
X131022440Y-51494500D01*
X130877560Y-51494500D01*
X130877557Y-51494500D01*
X130735462Y-51522765D01*
X130735460Y-51522765D01*
X130601612Y-51578206D01*
X130601611Y-51578206D01*
X130481146Y-51658699D01*
X130378699Y-51761146D01*
X130298206Y-51881611D01*
X130298206Y-51881612D01*
X130242765Y-52015460D01*
X130242765Y-52015462D01*
X130214500Y-52157557D01*
X129145499Y-52157557D01*
X129117235Y-52015462D01*
X129061793Y-51881612D01*
X129061793Y-51881611D01*
X128981300Y-51761146D01*
X128878853Y-51658699D01*
X128758387Y-51578206D01*
X128624538Y-51522765D01*
X128482442Y-51494500D01*
X128482440Y-51494500D01*
X128337560Y-51494500D01*
X128337557Y-51494500D01*
X128195462Y-51522765D01*
X128195460Y-51522765D01*
X128061612Y-51578206D01*
X128061611Y-51578206D01*
X127941146Y-51658699D01*
X127838699Y-51761146D01*
X127758206Y-51881611D01*
X127758206Y-51881612D01*
X127702765Y-52015460D01*
X127702765Y-52015462D01*
X127674500Y-52157557D01*
X127674500Y-52302448D01*
X127678131Y-52320700D01*
X127670938Y-52381461D01*
X127629405Y-52426390D01*
X127569395Y-52438326D01*
X127550441Y-52434167D01*
X127407065Y-52387582D01*
X127229762Y-52359500D01*
X127229759Y-52359500D01*
X127050241Y-52359500D01*
X127050238Y-52359500D01*
X126872934Y-52387582D01*
X126729558Y-52434167D01*
X126668373Y-52434166D01*
X126618873Y-52398202D01*
X126599966Y-52340011D01*
X126601869Y-52320696D01*
X126605499Y-52302448D01*
X126605500Y-52302438D01*
X126605500Y-52157561D01*
X126605499Y-52157557D01*
X126602921Y-52144596D01*
X126577235Y-52015462D01*
X126521793Y-51881612D01*
X126521793Y-51881611D01*
X126441300Y-51761146D01*
X126338853Y-51658699D01*
X126218387Y-51578206D01*
X126084538Y-51522765D01*
X125942442Y-51494500D01*
X125942440Y-51494500D01*
X125797560Y-51494500D01*
X125797557Y-51494500D01*
X125655462Y-51522765D01*
X125655460Y-51522765D01*
X125521612Y-51578206D01*
X125521611Y-51578206D01*
X125401146Y-51658699D01*
X125298699Y-51761146D01*
X125218206Y-51881611D01*
X125218206Y-51881612D01*
X125162765Y-52015460D01*
X125162765Y-52015462D01*
X125134500Y-52157557D01*
X123168685Y-52157557D01*
X123083365Y-52021772D01*
X123078333Y-52015462D01*
X122904757Y-51797805D01*
X122702195Y-51595243D01*
X122478227Y-51416634D01*
X122235667Y-51264223D01*
X121977568Y-51139930D01*
X121977569Y-51139930D01*
X121707185Y-51045318D01*
X121427896Y-50981573D01*
X121143234Y-50949500D01*
X121143233Y-50949500D01*
X120856767Y-50949500D01*
X120856765Y-50949500D01*
X120572103Y-50981573D01*
X120292814Y-51045318D01*
X120022430Y-51139930D01*
X119764332Y-51264223D01*
X119521772Y-51416634D01*
X119297806Y-51595242D01*
X119095242Y-51797806D01*
X118916634Y-52021772D01*
X118764223Y-52264332D01*
X118639930Y-52522430D01*
X118545318Y-52792814D01*
X118481573Y-53072103D01*
X118449500Y-53356765D01*
X117800500Y-53356765D01*
X117800500Y-53002773D01*
X117800656Y-52997222D01*
X117804025Y-52937234D01*
X117817162Y-52703296D01*
X117818405Y-52692270D01*
X117837754Y-52578390D01*
X117867253Y-52404771D01*
X117869714Y-52393985D01*
X117950451Y-52113742D01*
X117954111Y-52103283D01*
X118065711Y-51833858D01*
X118070525Y-51823863D01*
X118075101Y-51815584D01*
X118211583Y-51568636D01*
X118217479Y-51559253D01*
X118386230Y-51321421D01*
X118393149Y-51312745D01*
X118436511Y-51264223D01*
X118587475Y-51095293D01*
X118595293Y-51087475D01*
X118812748Y-50893146D01*
X118821424Y-50886228D01*
X119059253Y-50717479D01*
X119068636Y-50711583D01*
X119323869Y-50570522D01*
X119333858Y-50565711D01*
X119603283Y-50454111D01*
X119613742Y-50450451D01*
X119893985Y-50369714D01*
X119904771Y-50367253D01*
X120192277Y-50318404D01*
X120203296Y-50317162D01*
X120497222Y-50300655D01*
X120502773Y-50300500D01*
X120547595Y-50300500D01*
X179452405Y-50300500D01*
X179497227Y-50300500D01*
X179502777Y-50300655D01*
G37*
%TD.AperFunction*%
%TD*%
M02*
