%TF.GenerationSoftware,KiCad,Pcbnew,8.0.4*%
%TF.CreationDate,2024-09-21T11:57:21+02:00*%
%TF.ProjectId,soleil_powerpack,736f6c65-696c-45f7-906f-776572706163,rev?*%
%TF.SameCoordinates,Original*%
%TF.FileFunction,Copper,L2,Inr*%
%TF.FilePolarity,Positive*%
%FSLAX46Y46*%
G04 Gerber Fmt 4.6, Leading zero omitted, Abs format (unit mm)*
G04 Created by KiCad (PCBNEW 8.0.4) date 2024-09-21 11:57:21*
%MOMM*%
%LPD*%
G01*
G04 APERTURE LIST*
G04 Aperture macros list*
%AMRoundRect*
0 Rectangle with rounded corners*
0 $1 Rounding radius*
0 $2 $3 $4 $5 $6 $7 $8 $9 X,Y pos of 4 corners*
0 Add a 4 corners polygon primitive as box body*
4,1,4,$2,$3,$4,$5,$6,$7,$8,$9,$2,$3,0*
0 Add four circle primitives for the rounded corners*
1,1,$1+$1,$2,$3*
1,1,$1+$1,$4,$5*
1,1,$1+$1,$6,$7*
1,1,$1+$1,$8,$9*
0 Add four rect primitives between the rounded corners*
20,1,$1+$1,$2,$3,$4,$5,0*
20,1,$1+$1,$4,$5,$6,$7,0*
20,1,$1+$1,$6,$7,$8,$9,0*
20,1,$1+$1,$8,$9,$2,$3,0*%
G04 Aperture macros list end*
%TA.AperFunction,ComponentPad*%
%ADD10O,1.300000X1.050000*%
%TD*%
%TA.AperFunction,ComponentPad*%
%ADD11RoundRect,0.249900X-0.400100X0.275100X-0.400100X-0.275100X0.400100X-0.275100X0.400100X0.275100X0*%
%TD*%
%TA.AperFunction,HeatsinkPad*%
%ADD12C,0.500000*%
%TD*%
%TA.AperFunction,ComponentPad*%
%ADD13O,1.100000X1.700000*%
%TD*%
%TA.AperFunction,ViaPad*%
%ADD14C,0.500000*%
%TD*%
%TA.AperFunction,ViaPad*%
%ADD15C,0.600000*%
%TD*%
%TA.AperFunction,ViaPad*%
%ADD16C,1.000000*%
%TD*%
G04 APERTURE END LIST*
D10*
%TO.N,Net-(JP2-A)*%
%TO.C,U5*%
X119700000Y-65770000D03*
%TO.N,GND*%
X119700000Y-64500000D03*
D11*
%TO.N,+4V*%
X119700000Y-63230000D03*
%TD*%
D12*
%TO.N,GND*%
%TO.C,U8*%
X157550000Y-63500000D03*
X156450000Y-63500000D03*
%TD*%
D13*
%TO.N,GND*%
%TO.C,J1*%
X173320000Y-77300000D03*
X173320000Y-73500000D03*
X164680000Y-77300000D03*
X164680000Y-73500000D03*
%TD*%
D14*
%TO.N,/~{RTC_ALARM}*%
X181000000Y-62500000D03*
X172750000Y-61000000D03*
%TO.N,Net-(JP3-B)*%
X181000000Y-67500000D03*
X171250000Y-75750000D03*
%TO.N,Net-(JP2-A)*%
X181000000Y-65000000D03*
X171000000Y-75000000D03*
%TO.N,GND*%
X138503554Y-62246446D03*
%TO.N,/I2C2_SCL*%
X160250000Y-60000000D03*
%TO.N,/I2C2_SDA*%
X155000000Y-64750000D03*
%TO.N,GND*%
X143800000Y-65300000D03*
X142000000Y-66100000D03*
X131500000Y-60600000D03*
X173400000Y-59100000D03*
X175400000Y-59100000D03*
X175400000Y-66200000D03*
X173400000Y-66200000D03*
X173400000Y-63700000D03*
X175400000Y-63700000D03*
X127100000Y-55400000D03*
X129700000Y-55400000D03*
X132200000Y-51400000D03*
X134800000Y-51400000D03*
X142400000Y-51500000D03*
X144900000Y-51500000D03*
X150000000Y-51500000D03*
X152600000Y-51500000D03*
X155100000Y-51500000D03*
X157600000Y-55400000D03*
X157600000Y-51500000D03*
X162700000Y-51500000D03*
X167800000Y-51600000D03*
X167800000Y-55400000D03*
X162700000Y-55400000D03*
X160200000Y-55400000D03*
X152600000Y-55400000D03*
X150000000Y-55400000D03*
X144900000Y-55400000D03*
X142400000Y-55400000D03*
X139800000Y-55400000D03*
X181418750Y-73415000D03*
X181418750Y-71415000D03*
X181418750Y-69415000D03*
X181418750Y-63700000D03*
X181418750Y-61415000D03*
X181400000Y-59100000D03*
X179418750Y-73415000D03*
X179000000Y-59100000D03*
X175418750Y-77415000D03*
X175418750Y-68600000D03*
X175418750Y-53415000D03*
X175418750Y-51415000D03*
X173418750Y-68600000D03*
X171418750Y-77415000D03*
X171418750Y-53415000D03*
X169418750Y-77415000D03*
X169418750Y-69415000D03*
X167418750Y-77415000D03*
X165418750Y-55415000D03*
X163418750Y-77415000D03*
X161418750Y-71415000D03*
X161418750Y-65415000D03*
X159418750Y-73415000D03*
X159418750Y-71415000D03*
X159418750Y-59415000D03*
X157418750Y-77415000D03*
X157418750Y-59415000D03*
X155418750Y-77415000D03*
X155418750Y-59415000D03*
X153418750Y-73415000D03*
X153418750Y-71415000D03*
X153418750Y-69415000D03*
X153418750Y-59415000D03*
X151418750Y-77415000D03*
X151418750Y-73415000D03*
X151418750Y-71415000D03*
X151418750Y-69415000D03*
X151418750Y-59415000D03*
X149418750Y-77415000D03*
X149418750Y-73415000D03*
X149418750Y-71415000D03*
X149418750Y-69415000D03*
X147418750Y-73415000D03*
X147418750Y-71415000D03*
X147418750Y-69415000D03*
X147418750Y-61415000D03*
X147418750Y-55415000D03*
X145418750Y-77415000D03*
X143418750Y-77415000D03*
X139418750Y-77415000D03*
X139418750Y-75415000D03*
X139418750Y-73415000D03*
X137418750Y-55415000D03*
X137418750Y-51415000D03*
X131418750Y-73415000D03*
X131418750Y-67415000D03*
X131418750Y-53415000D03*
X129418750Y-53415000D03*
X127418750Y-69415000D03*
X125418750Y-69415000D03*
X125418750Y-67415000D03*
X125418750Y-61415000D03*
X125418750Y-53415000D03*
X123418750Y-71415000D03*
X123418750Y-69415000D03*
X123418750Y-67415000D03*
X123418750Y-61415000D03*
X121418750Y-67415000D03*
X121418750Y-61415000D03*
X121400000Y-56500000D03*
X119418750Y-61415000D03*
X119400000Y-56500000D03*
D15*
%TO.N,+3V3*%
X134000000Y-59750000D03*
X129600000Y-59260000D03*
%TO.N,+5V*%
X127150000Y-50860000D03*
X124750000Y-50850000D03*
X128750000Y-79250000D03*
X123800000Y-79250000D03*
X126250000Y-79250000D03*
X123800000Y-75750000D03*
X126250000Y-75750000D03*
X126250000Y-77500000D03*
X123800000Y-77500000D03*
D14*
%TO.N,GND*%
X124500000Y-73250000D03*
%TO.N,+BATT*%
X164250000Y-64250000D03*
X141750000Y-65000000D03*
%TO.N,/I2C2_SDA*%
X169250000Y-68000000D03*
%TO.N,+3V3*%
X166750000Y-64259999D03*
X169750000Y-60000000D03*
%TO.N,/~{POWER_ON}*%
X177000000Y-67500000D03*
X162500000Y-73500000D03*
%TO.N,GND*%
X158000000Y-70250000D03*
X145500000Y-70250000D03*
%TO.N,/~{POWER_ON}*%
X140500000Y-70000000D03*
X132000000Y-68650000D03*
%TO.N,VBUS*%
X125986091Y-60050000D03*
X140000000Y-60500000D03*
%TO.N,Net-(JP3-B)*%
X128750000Y-69000000D03*
X139000000Y-71250000D03*
%TO.N,Net-(JP2-A)*%
X139750000Y-70650000D03*
X129750000Y-69000000D03*
%TO.N,GND*%
X166250000Y-65900000D03*
X165000000Y-65000000D03*
%TO.N,/I2C2_SDA*%
X169236091Y-66486091D03*
X169250000Y-62500000D03*
%TO.N,/I2C2_SCL*%
X169500000Y-61850000D03*
%TO.N,/I2C2_SDA*%
X144300000Y-61800000D03*
%TO.N,/I2C2_SCL*%
X145000000Y-61800000D03*
X131640000Y-58250000D03*
%TO.N,/I2C2_SDA*%
X129100000Y-58250000D03*
%TO.N,GND*%
X121500000Y-65000000D03*
X127500000Y-77500000D03*
X125000000Y-77500000D03*
X155750000Y-65750000D03*
X154500000Y-61250000D03*
X159250000Y-64750000D03*
X166250000Y-60000000D03*
X163250000Y-59000000D03*
X165000000Y-59000000D03*
X167500000Y-63500000D03*
%TO.N,Net-(U7-STAT2)*%
X128250000Y-64250000D03*
%TO.N,/Power/5V_EN*%
X134000000Y-68050000D03*
X135300000Y-69300000D03*
%TO.N,GND*%
X135250000Y-62750000D03*
%TO.N,+4V*%
X140000000Y-63500000D03*
X135250000Y-63500000D03*
%TO.N,GND*%
X163250000Y-63500000D03*
X125750000Y-70750000D03*
X121400000Y-69300000D03*
X121400000Y-71700000D03*
X129900000Y-50900000D03*
X140100000Y-50900000D03*
X147700000Y-50900000D03*
X160400000Y-50900000D03*
X165500000Y-50900000D03*
X135000000Y-56200000D03*
X155300000Y-56200000D03*
X173100000Y-56200000D03*
X171750000Y-74250000D03*
X166250000Y-74250000D03*
X123500000Y-58250000D03*
X147000000Y-60000000D03*
%TO.N,/Power/BATT_LOW*%
X147000000Y-67000000D03*
X142000000Y-67000000D03*
%TO.N,GND*%
X143000000Y-67750000D03*
X144500000Y-67750000D03*
X146000000Y-67750000D03*
X146000000Y-69000000D03*
D16*
%TO.N,VBUS*%
X159250000Y-67000000D03*
X154750000Y-67000000D03*
D14*
%TO.N,GND*%
X135750000Y-78450000D03*
%TO.N,/Power/5V_EN*%
X136750000Y-74500000D03*
X133000000Y-77550000D03*
%TO.N,Net-(U7-STAT2)*%
X138450000Y-65350000D03*
%TO.N,GND*%
X136910000Y-59770000D03*
X139250000Y-59750000D03*
X136910000Y-67230000D03*
X140000000Y-66500000D03*
X140000000Y-65050000D03*
X140000000Y-62800000D03*
X134000000Y-61250000D03*
X128250000Y-61250000D03*
X128250000Y-63000000D03*
X130000000Y-64980001D03*
X131500000Y-62063174D03*
%TO.N,Net-(D2-A)*%
X133250000Y-62250000D03*
X130686826Y-61250000D03*
%TO.N,GND*%
X142400000Y-64125000D03*
X132000000Y-78750000D03*
%TO.N,Net-(U6-FB)*%
X130750000Y-75500000D03*
X125750000Y-73250000D03*
%TO.N,GND*%
X130000000Y-75500000D03*
X158500000Y-69250000D03*
X163250000Y-71000000D03*
X170500000Y-70000000D03*
X167500000Y-70000000D03*
X153500000Y-64750000D03*
X150250000Y-65750000D03*
X149250000Y-64750000D03*
X152250000Y-62250000D03*
X150750000Y-62250000D03*
%TO.N,Net-(U9-BIN)*%
X143000000Y-65325000D03*
X143000000Y-63500000D03*
%TD*%
%TA.AperFunction,Conductor*%
%TO.N,GND*%
G36*
X124359405Y-50320185D02*
G01*
X124405160Y-50372989D01*
X124415104Y-50442147D01*
X124386079Y-50505703D01*
X124324623Y-50576626D01*
X124324622Y-50576628D01*
X124264834Y-50707543D01*
X124244353Y-50850000D01*
X124264834Y-50992456D01*
X124288976Y-51045318D01*
X124324623Y-51123373D01*
X124418872Y-51232143D01*
X124539947Y-51309953D01*
X124539950Y-51309954D01*
X124539949Y-51309954D01*
X124678036Y-51350499D01*
X124678038Y-51350500D01*
X124678039Y-51350500D01*
X124821962Y-51350500D01*
X124821962Y-51350499D01*
X124936431Y-51316889D01*
X124960050Y-51309954D01*
X124960050Y-51309953D01*
X124960053Y-51309953D01*
X125081128Y-51232143D01*
X125175377Y-51123373D01*
X125235165Y-50992457D01*
X125255647Y-50850000D01*
X125235165Y-50707543D01*
X125175377Y-50576627D01*
X125113920Y-50505701D01*
X125084896Y-50442147D01*
X125094840Y-50372988D01*
X125140595Y-50320184D01*
X125207634Y-50300500D01*
X126701031Y-50300500D01*
X126768070Y-50320185D01*
X126813825Y-50372989D01*
X126823769Y-50442147D01*
X126794744Y-50505701D01*
X126768875Y-50535556D01*
X126724623Y-50586626D01*
X126724622Y-50586628D01*
X126664834Y-50717543D01*
X126644353Y-50860000D01*
X126664834Y-51002456D01*
X126705347Y-51091165D01*
X126724623Y-51133373D01*
X126818872Y-51242143D01*
X126939947Y-51319953D01*
X126939950Y-51319954D01*
X126939949Y-51319954D01*
X127078036Y-51360499D01*
X127078038Y-51360500D01*
X127078039Y-51360500D01*
X127221962Y-51360500D01*
X127221962Y-51360499D01*
X127360053Y-51319953D01*
X127481128Y-51242143D01*
X127575377Y-51133373D01*
X127635165Y-51002457D01*
X127655647Y-50860000D01*
X127635165Y-50717543D01*
X127575377Y-50586627D01*
X127505255Y-50505701D01*
X127476231Y-50442147D01*
X127486175Y-50372988D01*
X127531930Y-50320184D01*
X127598969Y-50300500D01*
X179452405Y-50300500D01*
X179496519Y-50300500D01*
X179503472Y-50300695D01*
X179795306Y-50317084D01*
X179809103Y-50318638D01*
X180093827Y-50367015D01*
X180107382Y-50370108D01*
X180176590Y-50390047D01*
X180384899Y-50450060D01*
X180398025Y-50454653D01*
X180664841Y-50565172D01*
X180677355Y-50571198D01*
X180705271Y-50586627D01*
X180930125Y-50710899D01*
X180941899Y-50718297D01*
X181177430Y-50885415D01*
X181188302Y-50894085D01*
X181357535Y-51045321D01*
X181403642Y-51086524D01*
X181413473Y-51096355D01*
X181506053Y-51199952D01*
X181605914Y-51311697D01*
X181614584Y-51322569D01*
X181781702Y-51558100D01*
X181789100Y-51569874D01*
X181928797Y-51822637D01*
X181934830Y-51835165D01*
X182045346Y-52101975D01*
X182049939Y-52115100D01*
X182129890Y-52392615D01*
X182132984Y-52406172D01*
X182181359Y-52690885D01*
X182182916Y-52704703D01*
X182199305Y-52996527D01*
X182199500Y-53003480D01*
X182199500Y-76996519D01*
X182199305Y-77003472D01*
X182182916Y-77295296D01*
X182181359Y-77309114D01*
X182132984Y-77593827D01*
X182129890Y-77607384D01*
X182049939Y-77884899D01*
X182045346Y-77898024D01*
X181934830Y-78164834D01*
X181928797Y-78177362D01*
X181789100Y-78430125D01*
X181781702Y-78441899D01*
X181614584Y-78677430D01*
X181605914Y-78688302D01*
X181413475Y-78903642D01*
X181403642Y-78913475D01*
X181188302Y-79105914D01*
X181177430Y-79114584D01*
X180941899Y-79281702D01*
X180930125Y-79289100D01*
X180677362Y-79428797D01*
X180664834Y-79434830D01*
X180398024Y-79545346D01*
X180384899Y-79549939D01*
X180107384Y-79629890D01*
X180093827Y-79632984D01*
X179809114Y-79681359D01*
X179795296Y-79682916D01*
X179503472Y-79699305D01*
X179496519Y-79699500D01*
X129287890Y-79699500D01*
X129220851Y-79679815D01*
X129175096Y-79627011D01*
X129165152Y-79557853D01*
X129175096Y-79523988D01*
X129175377Y-79523373D01*
X129235165Y-79392457D01*
X129255647Y-79250000D01*
X129235165Y-79107543D01*
X129175377Y-78976627D01*
X129081128Y-78867857D01*
X128960053Y-78790047D01*
X128960051Y-78790046D01*
X128960049Y-78790045D01*
X128960050Y-78790045D01*
X128821963Y-78749500D01*
X128821961Y-78749500D01*
X128678039Y-78749500D01*
X128678036Y-78749500D01*
X128539949Y-78790045D01*
X128418873Y-78867856D01*
X128324623Y-78976626D01*
X128324622Y-78976628D01*
X128264834Y-79107543D01*
X128244353Y-79250000D01*
X128264834Y-79392456D01*
X128324904Y-79523988D01*
X128334848Y-79593147D01*
X128305823Y-79656702D01*
X128247045Y-79694477D01*
X128212110Y-79699500D01*
X126787890Y-79699500D01*
X126720851Y-79679815D01*
X126675096Y-79627011D01*
X126665152Y-79557853D01*
X126675096Y-79523988D01*
X126675377Y-79523373D01*
X126735165Y-79392457D01*
X126755647Y-79250000D01*
X126735165Y-79107543D01*
X126675377Y-78976627D01*
X126581128Y-78867857D01*
X126460053Y-78790047D01*
X126460051Y-78790046D01*
X126460049Y-78790045D01*
X126460050Y-78790045D01*
X126321963Y-78749500D01*
X126321961Y-78749500D01*
X126178039Y-78749500D01*
X126178036Y-78749500D01*
X126039949Y-78790045D01*
X125918873Y-78867856D01*
X125824623Y-78976626D01*
X125824622Y-78976628D01*
X125764834Y-79107543D01*
X125744353Y-79250000D01*
X125764834Y-79392456D01*
X125824904Y-79523988D01*
X125834848Y-79593147D01*
X125805823Y-79656702D01*
X125747045Y-79694477D01*
X125712110Y-79699500D01*
X124337890Y-79699500D01*
X124270851Y-79679815D01*
X124225096Y-79627011D01*
X124215152Y-79557853D01*
X124225096Y-79523988D01*
X124225377Y-79523373D01*
X124285165Y-79392457D01*
X124305647Y-79250000D01*
X124285165Y-79107543D01*
X124225377Y-78976627D01*
X124131128Y-78867857D01*
X124010053Y-78790047D01*
X124010051Y-78790046D01*
X124010049Y-78790045D01*
X124010050Y-78790045D01*
X123871963Y-78749500D01*
X123871961Y-78749500D01*
X123728039Y-78749500D01*
X123728036Y-78749500D01*
X123589949Y-78790045D01*
X123468873Y-78867856D01*
X123374623Y-78976626D01*
X123374622Y-78976628D01*
X123314834Y-79107543D01*
X123294353Y-79250000D01*
X123314834Y-79392456D01*
X123374904Y-79523988D01*
X123384848Y-79593147D01*
X123355823Y-79656702D01*
X123297045Y-79694477D01*
X123262110Y-79699500D01*
X120503481Y-79699500D01*
X120496528Y-79699305D01*
X120204703Y-79682916D01*
X120190885Y-79681359D01*
X119906172Y-79632984D01*
X119892615Y-79629890D01*
X119615100Y-79549939D01*
X119601975Y-79545346D01*
X119335165Y-79434830D01*
X119322637Y-79428797D01*
X119069874Y-79289100D01*
X119058100Y-79281702D01*
X118822569Y-79114584D01*
X118811697Y-79105914D01*
X118704027Y-79009694D01*
X118596355Y-78913473D01*
X118586524Y-78903642D01*
X118547580Y-78860064D01*
X118394085Y-78688302D01*
X118385415Y-78677430D01*
X118218297Y-78441899D01*
X118210899Y-78430125D01*
X118084927Y-78202195D01*
X118071198Y-78177355D01*
X118065172Y-78164841D01*
X117954653Y-77898024D01*
X117950060Y-77884899D01*
X117870109Y-77607384D01*
X117867015Y-77593827D01*
X117865993Y-77587813D01*
X117818638Y-77309103D01*
X117817084Y-77295306D01*
X117800695Y-77003472D01*
X117800500Y-76996519D01*
X117800500Y-76356762D01*
X118449500Y-76356762D01*
X118449500Y-76643237D01*
X118481572Y-76927891D01*
X118545317Y-77207181D01*
X118545321Y-77207193D01*
X118639929Y-77477565D01*
X118639935Y-77477579D01*
X118764223Y-77735666D01*
X118764225Y-77735669D01*
X118916634Y-77978227D01*
X119021695Y-78109969D01*
X119065448Y-78164834D01*
X119095243Y-78202195D01*
X119297805Y-78404757D01*
X119521773Y-78583366D01*
X119764331Y-78735775D01*
X120022428Y-78860068D01*
X120022434Y-78860070D01*
X120292806Y-78954678D01*
X120292818Y-78954682D01*
X120572102Y-79018426D01*
X120572105Y-79018426D01*
X120572108Y-79018427D01*
X120572107Y-79018427D01*
X120714434Y-79034463D01*
X120856763Y-79050499D01*
X120856764Y-79050500D01*
X120856767Y-79050500D01*
X121143236Y-79050500D01*
X121143236Y-79050499D01*
X121348815Y-79027336D01*
X121427891Y-79018427D01*
X121427892Y-79018426D01*
X121427898Y-79018426D01*
X121707182Y-78954682D01*
X121977572Y-78860068D01*
X122235669Y-78735775D01*
X122478227Y-78583366D01*
X122702195Y-78404757D01*
X122904757Y-78202195D01*
X123083366Y-77978227D01*
X123191334Y-77806395D01*
X123243667Y-77760105D01*
X123312720Y-77749456D01*
X123376569Y-77777831D01*
X123390038Y-77791163D01*
X123468872Y-77882143D01*
X123589947Y-77959953D01*
X123589950Y-77959954D01*
X123589949Y-77959954D01*
X123728036Y-78000499D01*
X123728038Y-78000500D01*
X123728039Y-78000500D01*
X123871962Y-78000500D01*
X123871962Y-78000499D01*
X123996253Y-77964005D01*
X124010050Y-77959954D01*
X124010050Y-77959953D01*
X124010053Y-77959953D01*
X124131128Y-77882143D01*
X124225377Y-77773373D01*
X124285165Y-77642457D01*
X124305647Y-77500000D01*
X125744353Y-77500000D01*
X125764834Y-77642456D01*
X125807404Y-77735669D01*
X125824623Y-77773373D01*
X125918872Y-77882143D01*
X126039947Y-77959953D01*
X126039950Y-77959954D01*
X126039949Y-77959954D01*
X126178036Y-78000499D01*
X126178038Y-78000500D01*
X126178039Y-78000500D01*
X126321962Y-78000500D01*
X126321962Y-78000499D01*
X126446253Y-77964005D01*
X126460050Y-77959954D01*
X126460050Y-77959953D01*
X126460053Y-77959953D01*
X126581128Y-77882143D01*
X126675377Y-77773373D01*
X126735165Y-77642457D01*
X126748458Y-77550000D01*
X132544867Y-77550000D01*
X132563302Y-77678225D01*
X132614881Y-77791165D01*
X132617118Y-77796063D01*
X132701951Y-77893967D01*
X132810931Y-77964004D01*
X132861827Y-77978948D01*
X132935225Y-78000499D01*
X132935227Y-78000500D01*
X132935228Y-78000500D01*
X133064773Y-78000500D01*
X133064773Y-78000499D01*
X133189069Y-77964004D01*
X133298049Y-77893967D01*
X133382882Y-77796063D01*
X133436697Y-77678226D01*
X133455133Y-77550000D01*
X133436697Y-77421774D01*
X133382882Y-77303937D01*
X133298049Y-77206033D01*
X133189069Y-77135996D01*
X133189065Y-77135994D01*
X133189064Y-77135994D01*
X133064774Y-77099500D01*
X133064772Y-77099500D01*
X132935228Y-77099500D01*
X132935226Y-77099500D01*
X132810935Y-77135994D01*
X132810932Y-77135995D01*
X132810931Y-77135996D01*
X132759677Y-77168934D01*
X132701950Y-77206033D01*
X132617118Y-77303937D01*
X132617117Y-77303938D01*
X132563302Y-77421774D01*
X132544867Y-77550000D01*
X126748458Y-77550000D01*
X126755647Y-77500000D01*
X126735165Y-77357543D01*
X126675377Y-77226627D01*
X126581128Y-77117857D01*
X126460053Y-77040047D01*
X126460051Y-77040046D01*
X126460049Y-77040045D01*
X126460050Y-77040045D01*
X126321963Y-76999500D01*
X126321961Y-76999500D01*
X126178039Y-76999500D01*
X126178036Y-76999500D01*
X126039949Y-77040045D01*
X125918873Y-77117856D01*
X125824623Y-77226626D01*
X125824622Y-77226628D01*
X125764834Y-77357543D01*
X125744353Y-77500000D01*
X124305647Y-77500000D01*
X124285165Y-77357543D01*
X124225377Y-77226627D01*
X124131128Y-77117857D01*
X124010053Y-77040047D01*
X124010051Y-77040046D01*
X124010049Y-77040045D01*
X124010050Y-77040045D01*
X123871963Y-76999500D01*
X123871961Y-76999500D01*
X123728039Y-76999500D01*
X123681957Y-77013030D01*
X123612087Y-77013028D01*
X123553310Y-76975253D01*
X123528627Y-76921202D01*
X163880000Y-76921202D01*
X163880000Y-77050000D01*
X164380000Y-77050000D01*
X164380000Y-77550000D01*
X163880000Y-77550000D01*
X163880000Y-77678797D01*
X163910741Y-77833343D01*
X163910743Y-77833351D01*
X163971047Y-77978939D01*
X163971052Y-77978948D01*
X164058598Y-78109969D01*
X164058601Y-78109973D01*
X164170026Y-78221398D01*
X164170034Y-78221404D01*
X164301047Y-78308944D01*
X164301065Y-78308954D01*
X164429999Y-78362360D01*
X164430000Y-78362360D01*
X164430000Y-77766988D01*
X164439940Y-77784205D01*
X164495795Y-77840060D01*
X164564204Y-77879556D01*
X164640504Y-77900000D01*
X164719496Y-77900000D01*
X164795796Y-77879556D01*
X164864205Y-77840060D01*
X164920060Y-77784205D01*
X164930000Y-77766988D01*
X164930000Y-78362360D01*
X165058934Y-78308954D01*
X165058952Y-78308944D01*
X165189965Y-78221404D01*
X165189973Y-78221398D01*
X165301398Y-78109973D01*
X165301401Y-78109969D01*
X165388947Y-77978948D01*
X165388952Y-77978939D01*
X165449256Y-77833351D01*
X165449258Y-77833343D01*
X165479999Y-77678797D01*
X165480000Y-77678794D01*
X165480000Y-77550000D01*
X164980000Y-77550000D01*
X164980000Y-77050000D01*
X165480000Y-77050000D01*
X165480000Y-76921206D01*
X165479999Y-76921202D01*
X172520000Y-76921202D01*
X172520000Y-77050000D01*
X173020000Y-77050000D01*
X173020000Y-77550000D01*
X172520000Y-77550000D01*
X172520000Y-77678797D01*
X172550741Y-77833343D01*
X172550743Y-77833351D01*
X172611047Y-77978939D01*
X172611052Y-77978948D01*
X172698598Y-78109969D01*
X172698601Y-78109973D01*
X172810026Y-78221398D01*
X172810034Y-78221404D01*
X172941047Y-78308944D01*
X172941065Y-78308954D01*
X173069999Y-78362360D01*
X173070000Y-78362360D01*
X173070000Y-77766988D01*
X173079940Y-77784205D01*
X173135795Y-77840060D01*
X173204204Y-77879556D01*
X173280504Y-77900000D01*
X173359496Y-77900000D01*
X173435796Y-77879556D01*
X173504205Y-77840060D01*
X173560060Y-77784205D01*
X173570000Y-77766988D01*
X173570000Y-78362360D01*
X173698934Y-78308954D01*
X173698952Y-78308944D01*
X173829965Y-78221404D01*
X173829973Y-78221398D01*
X173941398Y-78109973D01*
X173941401Y-78109969D01*
X174028947Y-77978948D01*
X174028952Y-77978939D01*
X174089256Y-77833351D01*
X174089258Y-77833343D01*
X174119999Y-77678797D01*
X174120000Y-77678794D01*
X174120000Y-77550000D01*
X173620000Y-77550000D01*
X173620000Y-77050000D01*
X174120000Y-77050000D01*
X174120000Y-76921206D01*
X174119999Y-76921202D01*
X174089258Y-76766656D01*
X174089256Y-76766648D01*
X174028952Y-76621060D01*
X174028947Y-76621051D01*
X173941401Y-76490030D01*
X173941398Y-76490026D01*
X173829973Y-76378601D01*
X173829969Y-76378598D01*
X173797289Y-76356762D01*
X176449500Y-76356762D01*
X176449500Y-76643237D01*
X176481572Y-76927891D01*
X176545317Y-77207181D01*
X176545321Y-77207193D01*
X176639929Y-77477565D01*
X176639935Y-77477579D01*
X176764223Y-77735666D01*
X176764225Y-77735669D01*
X176916634Y-77978227D01*
X177021695Y-78109969D01*
X177065448Y-78164834D01*
X177095243Y-78202195D01*
X177297805Y-78404757D01*
X177521773Y-78583366D01*
X177764331Y-78735775D01*
X178022428Y-78860068D01*
X178022434Y-78860070D01*
X178292806Y-78954678D01*
X178292818Y-78954682D01*
X178572102Y-79018426D01*
X178572105Y-79018426D01*
X178572108Y-79018427D01*
X178572107Y-79018427D01*
X178714434Y-79034463D01*
X178856763Y-79050499D01*
X178856764Y-79050500D01*
X178856767Y-79050500D01*
X179143236Y-79050500D01*
X179143236Y-79050499D01*
X179348815Y-79027336D01*
X179427891Y-79018427D01*
X179427892Y-79018426D01*
X179427898Y-79018426D01*
X179707182Y-78954682D01*
X179977572Y-78860068D01*
X180235669Y-78735775D01*
X180478227Y-78583366D01*
X180702195Y-78404757D01*
X180904757Y-78202195D01*
X181083366Y-77978227D01*
X181235775Y-77735669D01*
X181360068Y-77477572D01*
X181454682Y-77207182D01*
X181518426Y-76927898D01*
X181519181Y-76921202D01*
X181531057Y-76815795D01*
X181550500Y-76643233D01*
X181550500Y-76356767D01*
X181520890Y-76093967D01*
X181518427Y-76072108D01*
X181507303Y-76023371D01*
X181454682Y-75792818D01*
X181397088Y-75628226D01*
X181360070Y-75522434D01*
X181360068Y-75522428D01*
X181255169Y-75304604D01*
X181235776Y-75264333D01*
X181235775Y-75264331D01*
X181083366Y-75021773D01*
X180904757Y-74797805D01*
X180702195Y-74595243D01*
X180478227Y-74416634D01*
X180235669Y-74264225D01*
X180235666Y-74264223D01*
X179977579Y-74139935D01*
X179977565Y-74139929D01*
X179707193Y-74045321D01*
X179707181Y-74045317D01*
X179427891Y-73981572D01*
X179427892Y-73981572D01*
X179143237Y-73949500D01*
X179143233Y-73949500D01*
X178856767Y-73949500D01*
X178856762Y-73949500D01*
X178572108Y-73981572D01*
X178292818Y-74045317D01*
X178292806Y-74045321D01*
X178022434Y-74139929D01*
X178022420Y-74139935D01*
X177764333Y-74264223D01*
X177521774Y-74416633D01*
X177297805Y-74595242D01*
X177095242Y-74797805D01*
X176916633Y-75021774D01*
X176764223Y-75264333D01*
X176639935Y-75522420D01*
X176639929Y-75522434D01*
X176545321Y-75792806D01*
X176545317Y-75792818D01*
X176481572Y-76072108D01*
X176449500Y-76356762D01*
X173797289Y-76356762D01*
X173698948Y-76291052D01*
X173698938Y-76291047D01*
X173570000Y-76237639D01*
X173570000Y-76833011D01*
X173560060Y-76815795D01*
X173504205Y-76759940D01*
X173435796Y-76720444D01*
X173359496Y-76700000D01*
X173280504Y-76700000D01*
X173204204Y-76720444D01*
X173135795Y-76759940D01*
X173079940Y-76815795D01*
X173070000Y-76833011D01*
X173070000Y-76237639D01*
X173069999Y-76237639D01*
X172941061Y-76291047D01*
X172941051Y-76291052D01*
X172810030Y-76378598D01*
X172810026Y-76378601D01*
X172698601Y-76490026D01*
X172698598Y-76490030D01*
X172611052Y-76621051D01*
X172611047Y-76621060D01*
X172550743Y-76766648D01*
X172550741Y-76766656D01*
X172520000Y-76921202D01*
X165479999Y-76921202D01*
X165449258Y-76766656D01*
X165449256Y-76766648D01*
X165388952Y-76621060D01*
X165388947Y-76621051D01*
X165301401Y-76490030D01*
X165301398Y-76490026D01*
X165189973Y-76378601D01*
X165189969Y-76378598D01*
X165058948Y-76291052D01*
X165058938Y-76291047D01*
X164930000Y-76237639D01*
X164930000Y-76833011D01*
X164920060Y-76815795D01*
X164864205Y-76759940D01*
X164795796Y-76720444D01*
X164719496Y-76700000D01*
X164640504Y-76700000D01*
X164564204Y-76720444D01*
X164495795Y-76759940D01*
X164439940Y-76815795D01*
X164430000Y-76833011D01*
X164430000Y-76237639D01*
X164429999Y-76237639D01*
X164301061Y-76291047D01*
X164301051Y-76291052D01*
X164170030Y-76378598D01*
X164170026Y-76378601D01*
X164058601Y-76490026D01*
X164058598Y-76490030D01*
X163971052Y-76621051D01*
X163971047Y-76621060D01*
X163910743Y-76766648D01*
X163910741Y-76766656D01*
X163880000Y-76921202D01*
X123528627Y-76921202D01*
X123524286Y-76911697D01*
X123523804Y-76880168D01*
X123531057Y-76815795D01*
X123550500Y-76643233D01*
X123550500Y-76364014D01*
X123570185Y-76296975D01*
X123622989Y-76251220D01*
X123692147Y-76241276D01*
X123709437Y-76245038D01*
X123728036Y-76250499D01*
X123728038Y-76250500D01*
X123728039Y-76250500D01*
X123871962Y-76250500D01*
X123871962Y-76250499D01*
X124010053Y-76209953D01*
X124131128Y-76132143D01*
X124225377Y-76023373D01*
X124285165Y-75892457D01*
X124305647Y-75750000D01*
X125744353Y-75750000D01*
X125764834Y-75892456D01*
X125812150Y-75996061D01*
X125824623Y-76023373D01*
X125918872Y-76132143D01*
X126039947Y-76209953D01*
X126039950Y-76209954D01*
X126039949Y-76209954D01*
X126178036Y-76250499D01*
X126178038Y-76250500D01*
X126178039Y-76250500D01*
X126321962Y-76250500D01*
X126321962Y-76250499D01*
X126460053Y-76209953D01*
X126581128Y-76132143D01*
X126675377Y-76023373D01*
X126735165Y-75892457D01*
X126755647Y-75750000D01*
X126735165Y-75607543D01*
X126686051Y-75500000D01*
X130294867Y-75500000D01*
X130313302Y-75628225D01*
X130367117Y-75746061D01*
X130367118Y-75746063D01*
X130451951Y-75843967D01*
X130560931Y-75914004D01*
X130685225Y-75950499D01*
X130685227Y-75950500D01*
X130685228Y-75950500D01*
X130814773Y-75950500D01*
X130814773Y-75950499D01*
X130939069Y-75914004D01*
X131048049Y-75843967D01*
X131132882Y-75746063D01*
X131186697Y-75628226D01*
X131205133Y-75500000D01*
X131186697Y-75371774D01*
X131132882Y-75253937D01*
X131048049Y-75156033D01*
X130939069Y-75085996D01*
X130939065Y-75085994D01*
X130939064Y-75085994D01*
X130814774Y-75049500D01*
X130814772Y-75049500D01*
X130685228Y-75049500D01*
X130685226Y-75049500D01*
X130560935Y-75085994D01*
X130560932Y-75085995D01*
X130560931Y-75085996D01*
X130509677Y-75118934D01*
X130451950Y-75156033D01*
X130367118Y-75253937D01*
X130367117Y-75253938D01*
X130313302Y-75371774D01*
X130294867Y-75500000D01*
X126686051Y-75500000D01*
X126675377Y-75476627D01*
X126581128Y-75367857D01*
X126460053Y-75290047D01*
X126460051Y-75290046D01*
X126460049Y-75290045D01*
X126460050Y-75290045D01*
X126321963Y-75249500D01*
X126321961Y-75249500D01*
X126178039Y-75249500D01*
X126178036Y-75249500D01*
X126039949Y-75290045D01*
X125918873Y-75367856D01*
X125824623Y-75476626D01*
X125824622Y-75476628D01*
X125764834Y-75607543D01*
X125744353Y-75750000D01*
X124305647Y-75750000D01*
X124285165Y-75607543D01*
X124225377Y-75476627D01*
X124131128Y-75367857D01*
X124010053Y-75290047D01*
X124010051Y-75290046D01*
X124010049Y-75290045D01*
X124010050Y-75290045D01*
X123871963Y-75249500D01*
X123871961Y-75249500D01*
X123728039Y-75249500D01*
X123728036Y-75249500D01*
X123589949Y-75290045D01*
X123468872Y-75367857D01*
X123462172Y-75373663D01*
X123459894Y-75371035D01*
X123413859Y-75399532D01*
X123344000Y-75398350D01*
X123285869Y-75359588D01*
X123269221Y-75333782D01*
X123235778Y-75264336D01*
X123235775Y-75264331D01*
X123083366Y-75021773D01*
X123066003Y-75000000D01*
X170544867Y-75000000D01*
X170563302Y-75128225D01*
X170576002Y-75156033D01*
X170617118Y-75246063D01*
X170701951Y-75343967D01*
X170795731Y-75404236D01*
X170841485Y-75457038D01*
X170851429Y-75526196D01*
X170841486Y-75560060D01*
X170813302Y-75621774D01*
X170794867Y-75750000D01*
X170813302Y-75878225D01*
X170819802Y-75892457D01*
X170867118Y-75996063D01*
X170951951Y-76093967D01*
X171060931Y-76164004D01*
X171085310Y-76171162D01*
X171185225Y-76200499D01*
X171185227Y-76200500D01*
X171185228Y-76200500D01*
X171314773Y-76200500D01*
X171314773Y-76200499D01*
X171439069Y-76164004D01*
X171548049Y-76093967D01*
X171632882Y-75996063D01*
X171686697Y-75878226D01*
X171705133Y-75750000D01*
X171686697Y-75621774D01*
X171632882Y-75503937D01*
X171548049Y-75406033D01*
X171454267Y-75345763D01*
X171408514Y-75292961D01*
X171398570Y-75223803D01*
X171408514Y-75189937D01*
X171436697Y-75128226D01*
X171455133Y-75000000D01*
X171436697Y-74871774D01*
X171382882Y-74753937D01*
X171298049Y-74656033D01*
X171189069Y-74585996D01*
X171189065Y-74585994D01*
X171189064Y-74585994D01*
X171064774Y-74549500D01*
X171064772Y-74549500D01*
X170935228Y-74549500D01*
X170935226Y-74549500D01*
X170810935Y-74585994D01*
X170810932Y-74585995D01*
X170810931Y-74585996D01*
X170759677Y-74618934D01*
X170701950Y-74656033D01*
X170617118Y-74753937D01*
X170617117Y-74753938D01*
X170563302Y-74871774D01*
X170544867Y-75000000D01*
X123066003Y-75000000D01*
X122904757Y-74797805D01*
X122702195Y-74595243D01*
X122582764Y-74500000D01*
X136294867Y-74500000D01*
X136313302Y-74628225D01*
X136326002Y-74656033D01*
X136367118Y-74746063D01*
X136451951Y-74843967D01*
X136560931Y-74914004D01*
X136685225Y-74950499D01*
X136685227Y-74950500D01*
X136685228Y-74950500D01*
X136814773Y-74950500D01*
X136814773Y-74950499D01*
X136939069Y-74914004D01*
X137048049Y-74843967D01*
X137132882Y-74746063D01*
X137186697Y-74628226D01*
X137205133Y-74500000D01*
X137186697Y-74371774D01*
X137132882Y-74253937D01*
X137048049Y-74156033D01*
X136939069Y-74085996D01*
X136939065Y-74085994D01*
X136939064Y-74085994D01*
X136814774Y-74049500D01*
X136814772Y-74049500D01*
X136685228Y-74049500D01*
X136685226Y-74049500D01*
X136560935Y-74085994D01*
X136560932Y-74085995D01*
X136560931Y-74085996D01*
X136509677Y-74118934D01*
X136451950Y-74156033D01*
X136367118Y-74253937D01*
X136367117Y-74253938D01*
X136313302Y-74371774D01*
X136294867Y-74500000D01*
X122582764Y-74500000D01*
X122478227Y-74416634D01*
X122235669Y-74264225D01*
X122235666Y-74264223D01*
X121977579Y-74139935D01*
X121977565Y-74139929D01*
X121707193Y-74045321D01*
X121707181Y-74045317D01*
X121427891Y-73981572D01*
X121427892Y-73981572D01*
X121143237Y-73949500D01*
X121143233Y-73949500D01*
X120856767Y-73949500D01*
X120856762Y-73949500D01*
X120572108Y-73981572D01*
X120292818Y-74045317D01*
X120292806Y-74045321D01*
X120022434Y-74139929D01*
X120022420Y-74139935D01*
X119764333Y-74264223D01*
X119521774Y-74416633D01*
X119297805Y-74595242D01*
X119095242Y-74797805D01*
X118916633Y-75021774D01*
X118764223Y-75264333D01*
X118639935Y-75522420D01*
X118639929Y-75522434D01*
X118545321Y-75792806D01*
X118545317Y-75792818D01*
X118481572Y-76072108D01*
X118449500Y-76356762D01*
X117800500Y-76356762D01*
X117800500Y-73250000D01*
X125294867Y-73250000D01*
X125313302Y-73378225D01*
X125367117Y-73496061D01*
X125367118Y-73496063D01*
X125451951Y-73593967D01*
X125560931Y-73664004D01*
X125685225Y-73700499D01*
X125685227Y-73700500D01*
X125685228Y-73700500D01*
X125814773Y-73700500D01*
X125814773Y-73700499D01*
X125939069Y-73664004D01*
X126048049Y-73593967D01*
X126129471Y-73500000D01*
X162044867Y-73500000D01*
X162063302Y-73628225D01*
X162079642Y-73664004D01*
X162117118Y-73746063D01*
X162201951Y-73843967D01*
X162310931Y-73914004D01*
X162435225Y-73950499D01*
X162435227Y-73950500D01*
X162435228Y-73950500D01*
X162564773Y-73950500D01*
X162564773Y-73950499D01*
X162689069Y-73914004D01*
X162798049Y-73843967D01*
X162882882Y-73746063D01*
X162936697Y-73628226D01*
X162955133Y-73500000D01*
X162936697Y-73371774D01*
X162882882Y-73253937D01*
X162798049Y-73156033D01*
X162743851Y-73121202D01*
X163880000Y-73121202D01*
X163880000Y-73250000D01*
X164380000Y-73250000D01*
X164380000Y-73750000D01*
X163880000Y-73750000D01*
X163880000Y-73878797D01*
X163910741Y-74033343D01*
X163910743Y-74033351D01*
X163971047Y-74178939D01*
X163971052Y-74178948D01*
X164058598Y-74309969D01*
X164058601Y-74309973D01*
X164170026Y-74421398D01*
X164170034Y-74421404D01*
X164301047Y-74508944D01*
X164301065Y-74508954D01*
X164429999Y-74562360D01*
X164430000Y-74562360D01*
X164430000Y-73966988D01*
X164439940Y-73984205D01*
X164495795Y-74040060D01*
X164564204Y-74079556D01*
X164640504Y-74100000D01*
X164719496Y-74100000D01*
X164795796Y-74079556D01*
X164864205Y-74040060D01*
X164920060Y-73984205D01*
X164930000Y-73966988D01*
X164930000Y-74562360D01*
X165058934Y-74508954D01*
X165058952Y-74508944D01*
X165189965Y-74421404D01*
X165189973Y-74421398D01*
X165301398Y-74309973D01*
X165301401Y-74309969D01*
X165388947Y-74178948D01*
X165388952Y-74178939D01*
X165449256Y-74033351D01*
X165449258Y-74033343D01*
X165479999Y-73878797D01*
X165480000Y-73878794D01*
X165480000Y-73750000D01*
X164980000Y-73750000D01*
X164980000Y-73250000D01*
X165480000Y-73250000D01*
X165480000Y-73121206D01*
X165479999Y-73121202D01*
X172520000Y-73121202D01*
X172520000Y-73250000D01*
X173020000Y-73250000D01*
X173020000Y-73750000D01*
X172520000Y-73750000D01*
X172520000Y-73878797D01*
X172550741Y-74033343D01*
X172550743Y-74033351D01*
X172611047Y-74178939D01*
X172611052Y-74178948D01*
X172698598Y-74309969D01*
X172698601Y-74309973D01*
X172810026Y-74421398D01*
X172810034Y-74421404D01*
X172941047Y-74508944D01*
X172941065Y-74508954D01*
X173069999Y-74562360D01*
X173070000Y-74562360D01*
X173070000Y-73966988D01*
X173079940Y-73984205D01*
X173135795Y-74040060D01*
X173204204Y-74079556D01*
X173280504Y-74100000D01*
X173359496Y-74100000D01*
X173435796Y-74079556D01*
X173504205Y-74040060D01*
X173560060Y-73984205D01*
X173570000Y-73966988D01*
X173570000Y-74562360D01*
X173698934Y-74508954D01*
X173698952Y-74508944D01*
X173829965Y-74421404D01*
X173829973Y-74421398D01*
X173941398Y-74309973D01*
X173941401Y-74309969D01*
X174028947Y-74178948D01*
X174028952Y-74178939D01*
X174089256Y-74033351D01*
X174089258Y-74033343D01*
X174119999Y-73878797D01*
X174120000Y-73878794D01*
X174120000Y-73750000D01*
X173620000Y-73750000D01*
X173620000Y-73250000D01*
X174120000Y-73250000D01*
X174120000Y-73121206D01*
X174119999Y-73121202D01*
X174089258Y-72966656D01*
X174089256Y-72966648D01*
X174028952Y-72821060D01*
X174028947Y-72821051D01*
X173941401Y-72690030D01*
X173941398Y-72690026D01*
X173829973Y-72578601D01*
X173829969Y-72578598D01*
X173698948Y-72491052D01*
X173698938Y-72491047D01*
X173570000Y-72437639D01*
X173570000Y-73033011D01*
X173560060Y-73015795D01*
X173504205Y-72959940D01*
X173435796Y-72920444D01*
X173359496Y-72900000D01*
X173280504Y-72900000D01*
X173204204Y-72920444D01*
X173135795Y-72959940D01*
X173079940Y-73015795D01*
X173070000Y-73033011D01*
X173070000Y-72437639D01*
X173069999Y-72437639D01*
X172941061Y-72491047D01*
X172941051Y-72491052D01*
X172810030Y-72578598D01*
X172810026Y-72578601D01*
X172698601Y-72690026D01*
X172698598Y-72690030D01*
X172611052Y-72821051D01*
X172611047Y-72821060D01*
X172550743Y-72966648D01*
X172550741Y-72966656D01*
X172520000Y-73121202D01*
X165479999Y-73121202D01*
X165449258Y-72966656D01*
X165449256Y-72966648D01*
X165388952Y-72821060D01*
X165388947Y-72821051D01*
X165301401Y-72690030D01*
X165301398Y-72690026D01*
X165189973Y-72578601D01*
X165189969Y-72578598D01*
X165058948Y-72491052D01*
X165058938Y-72491047D01*
X164930000Y-72437639D01*
X164930000Y-73033011D01*
X164920060Y-73015795D01*
X164864205Y-72959940D01*
X164795796Y-72920444D01*
X164719496Y-72900000D01*
X164640504Y-72900000D01*
X164564204Y-72920444D01*
X164495795Y-72959940D01*
X164439940Y-73015795D01*
X164430000Y-73033011D01*
X164430000Y-72437639D01*
X164429999Y-72437639D01*
X164301061Y-72491047D01*
X164301051Y-72491052D01*
X164170030Y-72578598D01*
X164170026Y-72578601D01*
X164058601Y-72690026D01*
X164058598Y-72690030D01*
X163971052Y-72821051D01*
X163971047Y-72821060D01*
X163910743Y-72966648D01*
X163910741Y-72966656D01*
X163880000Y-73121202D01*
X162743851Y-73121202D01*
X162689069Y-73085996D01*
X162689065Y-73085994D01*
X162689064Y-73085994D01*
X162564774Y-73049500D01*
X162564772Y-73049500D01*
X162435228Y-73049500D01*
X162435226Y-73049500D01*
X162310935Y-73085994D01*
X162310932Y-73085995D01*
X162310931Y-73085996D01*
X162259677Y-73118934D01*
X162201950Y-73156033D01*
X162117118Y-73253937D01*
X162117117Y-73253938D01*
X162063302Y-73371774D01*
X162044867Y-73500000D01*
X126129471Y-73500000D01*
X126132882Y-73496063D01*
X126186697Y-73378226D01*
X126205133Y-73250000D01*
X126186697Y-73121774D01*
X126132882Y-73003937D01*
X126048049Y-72906033D01*
X125939069Y-72835996D01*
X125939065Y-72835994D01*
X125939064Y-72835994D01*
X125814774Y-72799500D01*
X125814772Y-72799500D01*
X125685228Y-72799500D01*
X125685226Y-72799500D01*
X125560935Y-72835994D01*
X125560932Y-72835995D01*
X125560931Y-72835996D01*
X125509677Y-72868934D01*
X125451950Y-72906033D01*
X125367118Y-73003937D01*
X125367117Y-73003938D01*
X125313302Y-73121774D01*
X125294867Y-73250000D01*
X117800500Y-73250000D01*
X117800500Y-71250000D01*
X138544867Y-71250000D01*
X138563302Y-71378225D01*
X138617117Y-71496061D01*
X138617118Y-71496063D01*
X138701951Y-71593967D01*
X138810931Y-71664004D01*
X138935225Y-71700499D01*
X138935227Y-71700500D01*
X138935228Y-71700500D01*
X139064773Y-71700500D01*
X139064773Y-71700499D01*
X139189069Y-71664004D01*
X139298049Y-71593967D01*
X139382882Y-71496063D01*
X139436697Y-71378226D01*
X139455133Y-71250000D01*
X139450008Y-71214354D01*
X139459952Y-71145196D01*
X139505707Y-71092392D01*
X139572746Y-71072708D01*
X139607680Y-71077731D01*
X139685225Y-71100499D01*
X139685227Y-71100500D01*
X139685228Y-71100500D01*
X139814773Y-71100500D01*
X139814773Y-71100499D01*
X139939069Y-71064004D01*
X140048049Y-70993967D01*
X140132882Y-70896063D01*
X140186697Y-70778226D01*
X140205133Y-70650000D01*
X140192502Y-70562149D01*
X140202446Y-70492993D01*
X140248200Y-70440189D01*
X140315240Y-70420504D01*
X140350174Y-70425527D01*
X140435225Y-70450499D01*
X140435227Y-70450500D01*
X140435228Y-70450500D01*
X140564773Y-70450500D01*
X140564773Y-70450499D01*
X140689069Y-70414004D01*
X140798049Y-70343967D01*
X140882882Y-70246063D01*
X140936697Y-70128226D01*
X140955133Y-70000000D01*
X140936697Y-69871774D01*
X140882882Y-69753937D01*
X140798049Y-69656033D01*
X140689069Y-69585996D01*
X140689065Y-69585994D01*
X140689064Y-69585994D01*
X140564774Y-69549500D01*
X140564772Y-69549500D01*
X140435228Y-69549500D01*
X140435226Y-69549500D01*
X140310935Y-69585994D01*
X140310932Y-69585995D01*
X140310931Y-69585996D01*
X140259677Y-69618934D01*
X140201950Y-69656033D01*
X140117118Y-69753937D01*
X140117117Y-69753938D01*
X140063302Y-69871774D01*
X140044867Y-70000000D01*
X140057497Y-70087849D01*
X140047553Y-70157007D01*
X140001798Y-70209811D01*
X139934758Y-70229495D01*
X139899826Y-70224473D01*
X139814772Y-70199500D01*
X139685228Y-70199500D01*
X139685226Y-70199500D01*
X139560935Y-70235994D01*
X139560932Y-70235995D01*
X139560931Y-70235996D01*
X139509677Y-70268934D01*
X139451950Y-70306033D01*
X139367118Y-70403937D01*
X139367117Y-70403938D01*
X139313302Y-70521774D01*
X139294867Y-70650000D01*
X139294867Y-70650002D01*
X139299991Y-70685646D01*
X139290046Y-70754805D01*
X139244290Y-70807608D01*
X139177250Y-70827291D01*
X139142320Y-70822269D01*
X139064772Y-70799500D01*
X138935228Y-70799500D01*
X138935226Y-70799500D01*
X138810935Y-70835994D01*
X138810932Y-70835995D01*
X138810931Y-70835996D01*
X138759677Y-70868934D01*
X138701950Y-70906033D01*
X138617118Y-71003937D01*
X138617117Y-71003938D01*
X138563302Y-71121774D01*
X138544867Y-71250000D01*
X117800500Y-71250000D01*
X117800500Y-69000000D01*
X128294867Y-69000000D01*
X128313302Y-69128225D01*
X128333191Y-69171774D01*
X128367118Y-69246063D01*
X128451951Y-69343967D01*
X128560931Y-69414004D01*
X128609368Y-69428226D01*
X128685225Y-69450499D01*
X128685227Y-69450500D01*
X128685228Y-69450500D01*
X128814773Y-69450500D01*
X128814773Y-69450499D01*
X128939069Y-69414004D01*
X129048049Y-69343967D01*
X129132882Y-69246063D01*
X129137206Y-69236595D01*
X129182961Y-69183791D01*
X129250000Y-69164107D01*
X129317040Y-69183792D01*
X129362794Y-69236595D01*
X129367118Y-69246063D01*
X129451951Y-69343967D01*
X129560931Y-69414004D01*
X129609368Y-69428226D01*
X129685225Y-69450499D01*
X129685227Y-69450500D01*
X129685228Y-69450500D01*
X129814773Y-69450500D01*
X129814773Y-69450499D01*
X129939069Y-69414004D01*
X130048049Y-69343967D01*
X130086146Y-69300000D01*
X134844867Y-69300000D01*
X134863302Y-69428225D01*
X134873475Y-69450500D01*
X134917118Y-69546063D01*
X135001951Y-69643967D01*
X135110931Y-69714004D01*
X135235225Y-69750499D01*
X135235227Y-69750500D01*
X135235228Y-69750500D01*
X135364773Y-69750500D01*
X135364773Y-69750499D01*
X135489069Y-69714004D01*
X135598049Y-69643967D01*
X135682882Y-69546063D01*
X135736697Y-69428226D01*
X135755133Y-69300000D01*
X135736697Y-69171774D01*
X135682882Y-69053937D01*
X135598049Y-68956033D01*
X135489069Y-68885996D01*
X135489065Y-68885994D01*
X135489064Y-68885994D01*
X135364774Y-68849500D01*
X135364772Y-68849500D01*
X135235228Y-68849500D01*
X135235226Y-68849500D01*
X135110935Y-68885994D01*
X135110932Y-68885995D01*
X135110931Y-68885996D01*
X135059677Y-68918934D01*
X135001950Y-68956033D01*
X134917118Y-69053937D01*
X134917117Y-69053938D01*
X134863302Y-69171774D01*
X134844867Y-69300000D01*
X130086146Y-69300000D01*
X130132882Y-69246063D01*
X130186697Y-69128226D01*
X130205133Y-69000000D01*
X130186697Y-68871774D01*
X130132882Y-68753937D01*
X130048049Y-68656033D01*
X130038661Y-68650000D01*
X131544867Y-68650000D01*
X131563302Y-68778225D01*
X131617117Y-68896061D01*
X131617118Y-68896063D01*
X131701951Y-68993967D01*
X131810931Y-69064004D01*
X131935225Y-69100499D01*
X131935227Y-69100500D01*
X131935228Y-69100500D01*
X132064773Y-69100500D01*
X132064773Y-69100499D01*
X132189069Y-69064004D01*
X132298049Y-68993967D01*
X132382882Y-68896063D01*
X132436697Y-68778226D01*
X132455133Y-68650000D01*
X132436697Y-68521774D01*
X132382882Y-68403937D01*
X132298049Y-68306033D01*
X132189069Y-68235996D01*
X132189065Y-68235994D01*
X132189064Y-68235994D01*
X132064774Y-68199500D01*
X132064772Y-68199500D01*
X131935228Y-68199500D01*
X131935226Y-68199500D01*
X131810935Y-68235994D01*
X131810932Y-68235995D01*
X131810931Y-68235996D01*
X131759677Y-68268934D01*
X131701950Y-68306033D01*
X131617118Y-68403937D01*
X131617117Y-68403938D01*
X131563302Y-68521774D01*
X131544867Y-68650000D01*
X130038661Y-68650000D01*
X129939069Y-68585996D01*
X129939065Y-68585994D01*
X129939064Y-68585994D01*
X129814774Y-68549500D01*
X129814772Y-68549500D01*
X129685228Y-68549500D01*
X129685226Y-68549500D01*
X129560935Y-68585994D01*
X129560932Y-68585995D01*
X129560931Y-68585996D01*
X129509677Y-68618934D01*
X129451950Y-68656033D01*
X129367118Y-68753937D01*
X129367116Y-68753940D01*
X129362793Y-68763406D01*
X129317037Y-68816209D01*
X129249997Y-68835892D01*
X129182958Y-68816206D01*
X129137207Y-68763406D01*
X129132883Y-68753940D01*
X129132882Y-68753938D01*
X129132882Y-68753937D01*
X129048049Y-68656033D01*
X128939069Y-68585996D01*
X128939065Y-68585994D01*
X128939064Y-68585994D01*
X128814774Y-68549500D01*
X128814772Y-68549500D01*
X128685228Y-68549500D01*
X128685226Y-68549500D01*
X128560935Y-68585994D01*
X128560932Y-68585995D01*
X128560931Y-68585996D01*
X128509677Y-68618934D01*
X128451950Y-68656033D01*
X128367118Y-68753937D01*
X128367117Y-68753938D01*
X128313302Y-68871774D01*
X128294867Y-69000000D01*
X117800500Y-69000000D01*
X117800500Y-68050000D01*
X133544867Y-68050000D01*
X133563302Y-68178225D01*
X133594283Y-68246062D01*
X133617118Y-68296063D01*
X133701951Y-68393967D01*
X133810931Y-68464004D01*
X133935225Y-68500499D01*
X133935227Y-68500500D01*
X133935228Y-68500500D01*
X134064773Y-68500500D01*
X134064773Y-68500499D01*
X134189069Y-68464004D01*
X134298049Y-68393967D01*
X134382882Y-68296063D01*
X134436697Y-68178226D01*
X134455133Y-68050000D01*
X134447944Y-68000000D01*
X168794867Y-68000000D01*
X168813302Y-68128225D01*
X168867117Y-68246061D01*
X168867118Y-68246063D01*
X168951951Y-68343967D01*
X169060931Y-68414004D01*
X169185225Y-68450499D01*
X169185227Y-68450500D01*
X169185228Y-68450500D01*
X169314773Y-68450500D01*
X169314773Y-68450499D01*
X169439069Y-68414004D01*
X169548049Y-68343967D01*
X169632882Y-68246063D01*
X169686697Y-68128226D01*
X169705133Y-68000000D01*
X169686697Y-67871774D01*
X169632882Y-67753937D01*
X169548049Y-67656033D01*
X169439069Y-67585996D01*
X169439065Y-67585994D01*
X169439064Y-67585994D01*
X169314774Y-67549500D01*
X169314772Y-67549500D01*
X169185228Y-67549500D01*
X169185226Y-67549500D01*
X169060935Y-67585994D01*
X169060932Y-67585995D01*
X169060931Y-67585996D01*
X169009677Y-67618934D01*
X168951950Y-67656033D01*
X168867118Y-67753937D01*
X168867117Y-67753938D01*
X168813302Y-67871774D01*
X168794867Y-68000000D01*
X134447944Y-68000000D01*
X134436697Y-67921774D01*
X134382882Y-67803937D01*
X134298049Y-67706033D01*
X134189069Y-67635996D01*
X134189065Y-67635994D01*
X134189064Y-67635994D01*
X134064774Y-67599500D01*
X134064772Y-67599500D01*
X133935228Y-67599500D01*
X133935226Y-67599500D01*
X133810935Y-67635994D01*
X133810932Y-67635995D01*
X133810931Y-67635996D01*
X133773907Y-67659790D01*
X133701950Y-67706033D01*
X133617118Y-67803937D01*
X133617117Y-67803938D01*
X133563302Y-67921774D01*
X133544867Y-68050000D01*
X117800500Y-68050000D01*
X117800500Y-67000000D01*
X141544867Y-67000000D01*
X141563302Y-67128225D01*
X141617117Y-67246061D01*
X141617118Y-67246063D01*
X141701951Y-67343967D01*
X141810931Y-67414004D01*
X141935225Y-67450499D01*
X141935227Y-67450500D01*
X141935228Y-67450500D01*
X142064773Y-67450500D01*
X142064773Y-67450499D01*
X142189069Y-67414004D01*
X142298049Y-67343967D01*
X142382882Y-67246063D01*
X142436697Y-67128226D01*
X142455133Y-67000000D01*
X146544867Y-67000000D01*
X146563302Y-67128225D01*
X146617117Y-67246061D01*
X146617118Y-67246063D01*
X146701951Y-67343967D01*
X146810931Y-67414004D01*
X146935225Y-67450499D01*
X146935227Y-67450500D01*
X146935228Y-67450500D01*
X147064773Y-67450500D01*
X147064773Y-67450499D01*
X147189069Y-67414004D01*
X147298049Y-67343967D01*
X147382882Y-67246063D01*
X147436697Y-67128226D01*
X147455133Y-67000000D01*
X154044355Y-67000000D01*
X154064859Y-67168869D01*
X154064860Y-67168874D01*
X154125182Y-67327931D01*
X154184595Y-67414004D01*
X154221817Y-67467929D01*
X154313892Y-67549500D01*
X154349150Y-67580736D01*
X154492617Y-67656033D01*
X154499775Y-67659790D01*
X154664944Y-67700500D01*
X154835056Y-67700500D01*
X155000225Y-67659790D01*
X155115097Y-67599500D01*
X155150849Y-67580736D01*
X155150850Y-67580734D01*
X155150852Y-67580734D01*
X155278183Y-67467929D01*
X155374818Y-67327930D01*
X155435140Y-67168872D01*
X155455645Y-67000000D01*
X158544355Y-67000000D01*
X158564859Y-67168869D01*
X158564860Y-67168874D01*
X158625182Y-67327931D01*
X158684595Y-67414004D01*
X158721817Y-67467929D01*
X158813892Y-67549500D01*
X158849150Y-67580736D01*
X158992617Y-67656033D01*
X158999775Y-67659790D01*
X159164944Y-67700500D01*
X159335056Y-67700500D01*
X159500225Y-67659790D01*
X159615097Y-67599500D01*
X159650849Y-67580736D01*
X159650850Y-67580734D01*
X159650852Y-67580734D01*
X159741982Y-67500000D01*
X176544867Y-67500000D01*
X176563302Y-67628225D01*
X176617117Y-67746061D01*
X176617118Y-67746063D01*
X176701951Y-67843967D01*
X176810931Y-67914004D01*
X176837394Y-67921774D01*
X176935225Y-67950499D01*
X176935227Y-67950500D01*
X176935228Y-67950500D01*
X177064773Y-67950500D01*
X177064773Y-67950499D01*
X177189069Y-67914004D01*
X177298049Y-67843967D01*
X177382882Y-67746063D01*
X177436697Y-67628226D01*
X177455133Y-67500000D01*
X180544867Y-67500000D01*
X180563302Y-67628225D01*
X180617117Y-67746061D01*
X180617118Y-67746063D01*
X180701951Y-67843967D01*
X180810931Y-67914004D01*
X180837394Y-67921774D01*
X180935225Y-67950499D01*
X180935227Y-67950500D01*
X180935228Y-67950500D01*
X181064773Y-67950500D01*
X181064773Y-67950499D01*
X181189069Y-67914004D01*
X181298049Y-67843967D01*
X181382882Y-67746063D01*
X181436697Y-67628226D01*
X181455133Y-67500000D01*
X181436697Y-67371774D01*
X181382882Y-67253937D01*
X181298049Y-67156033D01*
X181189069Y-67085996D01*
X181189065Y-67085994D01*
X181189064Y-67085994D01*
X181064774Y-67049500D01*
X181064772Y-67049500D01*
X180935228Y-67049500D01*
X180935226Y-67049500D01*
X180810935Y-67085994D01*
X180810932Y-67085995D01*
X180810931Y-67085996D01*
X180759677Y-67118934D01*
X180701950Y-67156033D01*
X180617118Y-67253937D01*
X180617117Y-67253938D01*
X180563302Y-67371774D01*
X180544867Y-67500000D01*
X177455133Y-67500000D01*
X177436697Y-67371774D01*
X177382882Y-67253937D01*
X177298049Y-67156033D01*
X177189069Y-67085996D01*
X177189065Y-67085994D01*
X177189064Y-67085994D01*
X177064774Y-67049500D01*
X177064772Y-67049500D01*
X176935228Y-67049500D01*
X176935226Y-67049500D01*
X176810935Y-67085994D01*
X176810932Y-67085995D01*
X176810931Y-67085996D01*
X176759677Y-67118934D01*
X176701950Y-67156033D01*
X176617118Y-67253937D01*
X176617117Y-67253938D01*
X176563302Y-67371774D01*
X176544867Y-67500000D01*
X159741982Y-67500000D01*
X159778183Y-67467929D01*
X159874818Y-67327930D01*
X159935140Y-67168872D01*
X159955645Y-67000000D01*
X159935140Y-66831128D01*
X159874818Y-66672070D01*
X159863748Y-66656033D01*
X159815405Y-66585996D01*
X159778183Y-66532071D01*
X159726282Y-66486091D01*
X168780958Y-66486091D01*
X168799393Y-66614316D01*
X168818445Y-66656033D01*
X168853209Y-66732154D01*
X168938042Y-66830058D01*
X169047022Y-66900095D01*
X169171316Y-66936590D01*
X169171318Y-66936591D01*
X169171319Y-66936591D01*
X169300864Y-66936591D01*
X169300864Y-66936590D01*
X169425160Y-66900095D01*
X169534140Y-66830058D01*
X169618973Y-66732154D01*
X169672788Y-66614317D01*
X169691224Y-66486091D01*
X169672788Y-66357865D01*
X169618973Y-66240028D01*
X169534140Y-66142124D01*
X169425160Y-66072087D01*
X169425156Y-66072085D01*
X169425155Y-66072085D01*
X169300865Y-66035591D01*
X169300863Y-66035591D01*
X169171319Y-66035591D01*
X169171317Y-66035591D01*
X169047026Y-66072085D01*
X169047023Y-66072086D01*
X169047022Y-66072087D01*
X168995768Y-66105025D01*
X168938041Y-66142124D01*
X168853209Y-66240028D01*
X168853208Y-66240029D01*
X168799393Y-66357865D01*
X168780958Y-66486091D01*
X159726282Y-66486091D01*
X159650852Y-66419266D01*
X159650849Y-66419263D01*
X159500226Y-66340210D01*
X159335056Y-66299500D01*
X159164944Y-66299500D01*
X158999773Y-66340210D01*
X158849150Y-66419263D01*
X158721816Y-66532072D01*
X158625182Y-66672068D01*
X158564860Y-66831125D01*
X158564859Y-66831130D01*
X158544355Y-67000000D01*
X155455645Y-67000000D01*
X155435140Y-66831128D01*
X155374818Y-66672070D01*
X155363748Y-66656033D01*
X155315405Y-66585996D01*
X155278183Y-66532071D01*
X155150852Y-66419266D01*
X155150849Y-66419263D01*
X155000226Y-66340210D01*
X154835056Y-66299500D01*
X154664944Y-66299500D01*
X154499773Y-66340210D01*
X154349150Y-66419263D01*
X154221816Y-66532072D01*
X154125182Y-66672068D01*
X154064860Y-66831125D01*
X154064859Y-66831130D01*
X154044355Y-67000000D01*
X147455133Y-67000000D01*
X147436697Y-66871774D01*
X147382882Y-66753937D01*
X147298049Y-66656033D01*
X147189069Y-66585996D01*
X147189065Y-66585994D01*
X147189064Y-66585994D01*
X147064774Y-66549500D01*
X147064772Y-66549500D01*
X146935228Y-66549500D01*
X146935226Y-66549500D01*
X146810935Y-66585994D01*
X146810932Y-66585995D01*
X146810931Y-66585996D01*
X146766864Y-66614316D01*
X146701950Y-66656033D01*
X146617118Y-66753937D01*
X146617117Y-66753938D01*
X146563302Y-66871774D01*
X146544867Y-67000000D01*
X142455133Y-67000000D01*
X142436697Y-66871774D01*
X142382882Y-66753937D01*
X142298049Y-66656033D01*
X142189069Y-66585996D01*
X142189065Y-66585994D01*
X142189064Y-66585994D01*
X142064774Y-66549500D01*
X142064772Y-66549500D01*
X141935228Y-66549500D01*
X141935226Y-66549500D01*
X141810935Y-66585994D01*
X141810932Y-66585995D01*
X141810931Y-66585996D01*
X141766864Y-66614316D01*
X141701950Y-66656033D01*
X141617118Y-66753937D01*
X141617117Y-66753938D01*
X141563302Y-66871774D01*
X141544867Y-67000000D01*
X117800500Y-67000000D01*
X117800500Y-64249999D01*
X118839699Y-64249999D01*
X118839700Y-64250000D01*
X119419670Y-64250000D01*
X119399925Y-64269745D01*
X119350556Y-64355255D01*
X119325000Y-64450630D01*
X119325000Y-64549370D01*
X119350556Y-64644745D01*
X119399925Y-64730255D01*
X119419670Y-64750000D01*
X118839700Y-64750000D01*
X118888200Y-64867092D01*
X118888206Y-64867103D01*
X118973019Y-64994036D01*
X119061304Y-65082321D01*
X119094789Y-65143644D01*
X119089805Y-65213336D01*
X119061305Y-65257682D01*
X119011471Y-65307516D01*
X119011467Y-65307521D01*
X118932074Y-65426340D01*
X118932069Y-65426349D01*
X118877381Y-65558379D01*
X118877379Y-65558385D01*
X118849500Y-65698542D01*
X118849500Y-65698545D01*
X118849500Y-65841455D01*
X118849500Y-65841457D01*
X118849499Y-65841457D01*
X118877379Y-65981614D01*
X118877381Y-65981620D01*
X118932069Y-66113650D01*
X118932074Y-66113659D01*
X119011467Y-66232478D01*
X119011470Y-66232482D01*
X119112517Y-66333529D01*
X119112521Y-66333532D01*
X119231340Y-66412925D01*
X119231349Y-66412930D01*
X119246646Y-66419266D01*
X119363380Y-66467619D01*
X119363384Y-66467619D01*
X119363385Y-66467620D01*
X119503542Y-66495500D01*
X119503545Y-66495500D01*
X119896457Y-66495500D01*
X119990751Y-66476742D01*
X120036620Y-66467619D01*
X120168653Y-66412929D01*
X120287479Y-66333532D01*
X120388532Y-66232479D01*
X120467929Y-66113653D01*
X120522619Y-65981620D01*
X120550500Y-65841455D01*
X120550500Y-65698545D01*
X120550500Y-65698542D01*
X120522620Y-65558385D01*
X120522619Y-65558384D01*
X120522619Y-65558380D01*
X120467929Y-65426347D01*
X120467928Y-65426346D01*
X120467925Y-65426340D01*
X120416916Y-65350000D01*
X137994867Y-65350000D01*
X138013302Y-65478225D01*
X138049911Y-65558385D01*
X138067118Y-65596063D01*
X138151951Y-65693967D01*
X138260931Y-65764004D01*
X138300084Y-65775500D01*
X138385225Y-65800499D01*
X138385227Y-65800500D01*
X138385228Y-65800500D01*
X138514773Y-65800500D01*
X138514773Y-65800499D01*
X138639069Y-65764004D01*
X138748049Y-65693967D01*
X138832882Y-65596063D01*
X138886697Y-65478226D01*
X138905133Y-65350000D01*
X138886697Y-65221774D01*
X138832882Y-65103937D01*
X138748049Y-65006033D01*
X138738661Y-65000000D01*
X141294867Y-65000000D01*
X141313302Y-65128225D01*
X141320344Y-65143644D01*
X141367118Y-65246063D01*
X141451951Y-65343967D01*
X141560931Y-65414004D01*
X141685225Y-65450499D01*
X141685227Y-65450500D01*
X141685228Y-65450500D01*
X141814773Y-65450500D01*
X141814773Y-65450499D01*
X141939069Y-65414004D01*
X142048049Y-65343967D01*
X142064484Y-65325000D01*
X142544867Y-65325000D01*
X142563302Y-65453225D01*
X142574720Y-65478226D01*
X142617118Y-65571063D01*
X142701951Y-65668967D01*
X142810931Y-65739004D01*
X142896079Y-65764005D01*
X142935225Y-65775499D01*
X142935227Y-65775500D01*
X142935228Y-65775500D01*
X143064773Y-65775500D01*
X143064773Y-65775499D01*
X143189069Y-65739004D01*
X143298049Y-65668967D01*
X143382882Y-65571063D01*
X143436697Y-65453226D01*
X143455133Y-65325000D01*
X143436697Y-65196774D01*
X143382882Y-65078937D01*
X143298049Y-64981033D01*
X143189069Y-64910996D01*
X143189065Y-64910994D01*
X143189064Y-64910994D01*
X143064774Y-64874500D01*
X143064772Y-64874500D01*
X142935228Y-64874500D01*
X142935226Y-64874500D01*
X142810935Y-64910994D01*
X142810932Y-64910995D01*
X142810931Y-64910996D01*
X142772033Y-64935994D01*
X142701950Y-64981033D01*
X142617118Y-65078937D01*
X142617117Y-65078938D01*
X142563302Y-65196774D01*
X142544867Y-65325000D01*
X142064484Y-65325000D01*
X142132882Y-65246063D01*
X142186697Y-65128226D01*
X142205133Y-65000000D01*
X142186697Y-64871774D01*
X142132882Y-64753937D01*
X142129471Y-64750000D01*
X154544867Y-64750000D01*
X154563302Y-64878225D01*
X154589685Y-64935994D01*
X154617118Y-64996063D01*
X154701951Y-65093967D01*
X154810931Y-65164004D01*
X154935225Y-65200499D01*
X154935227Y-65200500D01*
X154935228Y-65200500D01*
X155064773Y-65200500D01*
X155064773Y-65200499D01*
X155189069Y-65164004D01*
X155298049Y-65093967D01*
X155379471Y-65000000D01*
X180544867Y-65000000D01*
X180563302Y-65128225D01*
X180570344Y-65143644D01*
X180617118Y-65246063D01*
X180701951Y-65343967D01*
X180810931Y-65414004D01*
X180935225Y-65450499D01*
X180935227Y-65450500D01*
X180935228Y-65450500D01*
X181064773Y-65450500D01*
X181064773Y-65450499D01*
X181189069Y-65414004D01*
X181298049Y-65343967D01*
X181382882Y-65246063D01*
X181436697Y-65128226D01*
X181455133Y-65000000D01*
X181436697Y-64871774D01*
X181382882Y-64753937D01*
X181298049Y-64656033D01*
X181189069Y-64585996D01*
X181189065Y-64585994D01*
X181189064Y-64585994D01*
X181064774Y-64549500D01*
X181064772Y-64549500D01*
X180935228Y-64549500D01*
X180935226Y-64549500D01*
X180810935Y-64585994D01*
X180810932Y-64585995D01*
X180810931Y-64585996D01*
X180782971Y-64603965D01*
X180701950Y-64656033D01*
X180617118Y-64753937D01*
X180617117Y-64753938D01*
X180563302Y-64871774D01*
X180544867Y-65000000D01*
X155379471Y-65000000D01*
X155382882Y-64996063D01*
X155436697Y-64878226D01*
X155455133Y-64750000D01*
X155436697Y-64621774D01*
X155382882Y-64503937D01*
X155298049Y-64406033D01*
X155189069Y-64335996D01*
X155189065Y-64335994D01*
X155189064Y-64335994D01*
X155064774Y-64299500D01*
X155064772Y-64299500D01*
X154935228Y-64299500D01*
X154935226Y-64299500D01*
X154810935Y-64335994D01*
X154810932Y-64335995D01*
X154810931Y-64335996D01*
X154759677Y-64368934D01*
X154701950Y-64406033D01*
X154617118Y-64503937D01*
X154617117Y-64503938D01*
X154563302Y-64621774D01*
X154544867Y-64750000D01*
X142129471Y-64750000D01*
X142048049Y-64656033D01*
X141939069Y-64585996D01*
X141939065Y-64585994D01*
X141939064Y-64585994D01*
X141814774Y-64549500D01*
X141814772Y-64549500D01*
X141685228Y-64549500D01*
X141685226Y-64549500D01*
X141560935Y-64585994D01*
X141560932Y-64585995D01*
X141560931Y-64585996D01*
X141532971Y-64603965D01*
X141451950Y-64656033D01*
X141367118Y-64753937D01*
X141367117Y-64753938D01*
X141313302Y-64871774D01*
X141294867Y-65000000D01*
X138738661Y-65000000D01*
X138639069Y-64935996D01*
X138639065Y-64935994D01*
X138639064Y-64935994D01*
X138514774Y-64899500D01*
X138514772Y-64899500D01*
X138385228Y-64899500D01*
X138385226Y-64899500D01*
X138260935Y-64935994D01*
X138260932Y-64935995D01*
X138260931Y-64935996D01*
X138209677Y-64968934D01*
X138151950Y-65006033D01*
X138067118Y-65103937D01*
X138067117Y-65103938D01*
X138013302Y-65221774D01*
X137994867Y-65350000D01*
X120416916Y-65350000D01*
X120388532Y-65307521D01*
X120388529Y-65307517D01*
X120338695Y-65257683D01*
X120305210Y-65196360D01*
X120310194Y-65126668D01*
X120338695Y-65082320D01*
X120426981Y-64994033D01*
X120511793Y-64867103D01*
X120511799Y-64867092D01*
X120560300Y-64750000D01*
X119980330Y-64750000D01*
X120000075Y-64730255D01*
X120049444Y-64644745D01*
X120075000Y-64549370D01*
X120075000Y-64450630D01*
X120049444Y-64355255D01*
X120000075Y-64269745D01*
X119980330Y-64250000D01*
X120560300Y-64250000D01*
X127794867Y-64250000D01*
X127813302Y-64378225D01*
X127817869Y-64388225D01*
X127867118Y-64496063D01*
X127951951Y-64593967D01*
X128060931Y-64664004D01*
X128094989Y-64674004D01*
X128185225Y-64700499D01*
X128185227Y-64700500D01*
X128185228Y-64700500D01*
X128314773Y-64700500D01*
X128314773Y-64700499D01*
X128439069Y-64664004D01*
X128548049Y-64593967D01*
X128632882Y-64496063D01*
X128686697Y-64378226D01*
X128705133Y-64250000D01*
X163794867Y-64250000D01*
X163813302Y-64378225D01*
X163817869Y-64388225D01*
X163867118Y-64496063D01*
X163951951Y-64593967D01*
X164060931Y-64664004D01*
X164094989Y-64674004D01*
X164185225Y-64700499D01*
X164185227Y-64700500D01*
X164185228Y-64700500D01*
X164314773Y-64700500D01*
X164314773Y-64700499D01*
X164439069Y-64664004D01*
X164548049Y-64593967D01*
X164632882Y-64496063D01*
X164686697Y-64378226D01*
X164703695Y-64259999D01*
X166294867Y-64259999D01*
X166313302Y-64388224D01*
X166366148Y-64503938D01*
X166367118Y-64506062D01*
X166451951Y-64603966D01*
X166560931Y-64674003D01*
X166651174Y-64700500D01*
X166685225Y-64710498D01*
X166685227Y-64710499D01*
X166685228Y-64710499D01*
X166814773Y-64710499D01*
X166814773Y-64710498D01*
X166939069Y-64674003D01*
X167048049Y-64603966D01*
X167132882Y-64506062D01*
X167186697Y-64388225D01*
X167205133Y-64259999D01*
X167186697Y-64131773D01*
X167132882Y-64013936D01*
X167048049Y-63916032D01*
X166939069Y-63845995D01*
X166939065Y-63845993D01*
X166939064Y-63845993D01*
X166814774Y-63809499D01*
X166814772Y-63809499D01*
X166685228Y-63809499D01*
X166685226Y-63809499D01*
X166560935Y-63845993D01*
X166560932Y-63845994D01*
X166560931Y-63845995D01*
X166522279Y-63870835D01*
X166451950Y-63916032D01*
X166367118Y-64013936D01*
X166367117Y-64013937D01*
X166313302Y-64131773D01*
X166294867Y-64259999D01*
X164703695Y-64259999D01*
X164705133Y-64250000D01*
X164686697Y-64121774D01*
X164632882Y-64003937D01*
X164548049Y-63906033D01*
X164439069Y-63835996D01*
X164439065Y-63835994D01*
X164439064Y-63835994D01*
X164314774Y-63799500D01*
X164314772Y-63799500D01*
X164185228Y-63799500D01*
X164185226Y-63799500D01*
X164060935Y-63835994D01*
X164060932Y-63835995D01*
X164060931Y-63835996D01*
X164033612Y-63853553D01*
X163951950Y-63906033D01*
X163867118Y-64003937D01*
X163867117Y-64003938D01*
X163813302Y-64121774D01*
X163794867Y-64250000D01*
X128705133Y-64250000D01*
X128686697Y-64121774D01*
X128632882Y-64003937D01*
X128614806Y-63983076D01*
X156320476Y-63983076D01*
X156320476Y-63983077D01*
X156378110Y-64000000D01*
X156521890Y-64000000D01*
X156579523Y-63983077D01*
X156579522Y-63983076D01*
X157420476Y-63983076D01*
X157420476Y-63983077D01*
X157478110Y-64000000D01*
X157621890Y-64000000D01*
X157679523Y-63983077D01*
X157550000Y-63853553D01*
X157420476Y-63983076D01*
X156579522Y-63983076D01*
X156450000Y-63853553D01*
X156320476Y-63983076D01*
X128614806Y-63983076D01*
X128548049Y-63906033D01*
X128439069Y-63835996D01*
X128439065Y-63835994D01*
X128439064Y-63835994D01*
X128314774Y-63799500D01*
X128314772Y-63799500D01*
X128185228Y-63799500D01*
X128185226Y-63799500D01*
X128060935Y-63835994D01*
X128060932Y-63835995D01*
X128060931Y-63835996D01*
X128033612Y-63853553D01*
X127951950Y-63906033D01*
X127867118Y-64003937D01*
X127867117Y-64003938D01*
X127813302Y-64121774D01*
X127794867Y-64250000D01*
X120560300Y-64250000D01*
X120560300Y-64249999D01*
X120511799Y-64132907D01*
X120511793Y-64132896D01*
X120426980Y-64005963D01*
X120422867Y-64001850D01*
X120389382Y-63940527D01*
X120394366Y-63870835D01*
X120417311Y-63835134D01*
X120416660Y-63834654D01*
X120422178Y-63827178D01*
X120502803Y-63717935D01*
X120547646Y-63589780D01*
X120550500Y-63559346D01*
X120550500Y-63500000D01*
X134794867Y-63500000D01*
X134813302Y-63628225D01*
X134815269Y-63632531D01*
X134867118Y-63746063D01*
X134951951Y-63843967D01*
X135060931Y-63914004D01*
X135185225Y-63950499D01*
X135185227Y-63950500D01*
X135185228Y-63950500D01*
X135314773Y-63950500D01*
X135314773Y-63950499D01*
X135439069Y-63914004D01*
X135548049Y-63843967D01*
X135632882Y-63746063D01*
X135686697Y-63628226D01*
X135705133Y-63500000D01*
X139544867Y-63500000D01*
X139563302Y-63628225D01*
X139565269Y-63632531D01*
X139617118Y-63746063D01*
X139701951Y-63843967D01*
X139810931Y-63914004D01*
X139935225Y-63950499D01*
X139935227Y-63950500D01*
X139935228Y-63950500D01*
X140064773Y-63950500D01*
X140064773Y-63950499D01*
X140189069Y-63914004D01*
X140298049Y-63843967D01*
X140382882Y-63746063D01*
X140436697Y-63628226D01*
X140455133Y-63500000D01*
X142544867Y-63500000D01*
X142563302Y-63628225D01*
X142565269Y-63632531D01*
X142617118Y-63746063D01*
X142701951Y-63843967D01*
X142810931Y-63914004D01*
X142935225Y-63950499D01*
X142935227Y-63950500D01*
X142935228Y-63950500D01*
X143064773Y-63950500D01*
X143064773Y-63950499D01*
X143189069Y-63914004D01*
X143298049Y-63843967D01*
X143382882Y-63746063D01*
X143436697Y-63628226D01*
X143455133Y-63500000D01*
X155944858Y-63500000D01*
X155963913Y-63632531D01*
X156096446Y-63499999D01*
X156076556Y-63480109D01*
X156350000Y-63480109D01*
X156350000Y-63519891D01*
X156365224Y-63556645D01*
X156393355Y-63584776D01*
X156430109Y-63600000D01*
X156469891Y-63600000D01*
X156506645Y-63584776D01*
X156534776Y-63556645D01*
X156550000Y-63519891D01*
X156550000Y-63499999D01*
X156803553Y-63499999D01*
X156936086Y-63632531D01*
X156960839Y-63624293D01*
X157030664Y-63621799D01*
X157039159Y-63624293D01*
X157063912Y-63632531D01*
X157196445Y-63499999D01*
X157176555Y-63480109D01*
X157450000Y-63480109D01*
X157450000Y-63519891D01*
X157465224Y-63556645D01*
X157493355Y-63584776D01*
X157530109Y-63600000D01*
X157569891Y-63600000D01*
X157606645Y-63584776D01*
X157634776Y-63556645D01*
X157650000Y-63519891D01*
X157650000Y-63499999D01*
X157903553Y-63499999D01*
X158036085Y-63632531D01*
X158055141Y-63499999D01*
X158036085Y-63367466D01*
X157903553Y-63499999D01*
X157650000Y-63499999D01*
X157650000Y-63480109D01*
X157634776Y-63443355D01*
X157606645Y-63415224D01*
X157569891Y-63400000D01*
X157530109Y-63400000D01*
X157493355Y-63415224D01*
X157465224Y-63443355D01*
X157450000Y-63480109D01*
X157176555Y-63480109D01*
X157063913Y-63367466D01*
X157039157Y-63375706D01*
X156969332Y-63378199D01*
X156960840Y-63375706D01*
X156936085Y-63367466D01*
X156803553Y-63499999D01*
X156550000Y-63499999D01*
X156550000Y-63480109D01*
X156534776Y-63443355D01*
X156506645Y-63415224D01*
X156469891Y-63400000D01*
X156430109Y-63400000D01*
X156393355Y-63415224D01*
X156365224Y-63443355D01*
X156350000Y-63480109D01*
X156076556Y-63480109D01*
X155963913Y-63367466D01*
X155944858Y-63500000D01*
X143455133Y-63500000D01*
X143436697Y-63371774D01*
X143382882Y-63253937D01*
X143298049Y-63156033D01*
X143189069Y-63085996D01*
X143189065Y-63085994D01*
X143189064Y-63085994D01*
X143064774Y-63049500D01*
X143064772Y-63049500D01*
X142935228Y-63049500D01*
X142935226Y-63049500D01*
X142810935Y-63085994D01*
X142810932Y-63085995D01*
X142810931Y-63085996D01*
X142759677Y-63118934D01*
X142701950Y-63156033D01*
X142617118Y-63253937D01*
X142617117Y-63253938D01*
X142563302Y-63371774D01*
X142544867Y-63500000D01*
X140455133Y-63500000D01*
X140436697Y-63371774D01*
X140382882Y-63253937D01*
X140298049Y-63156033D01*
X140189069Y-63085996D01*
X140189065Y-63085994D01*
X140189064Y-63085994D01*
X140064774Y-63049500D01*
X140064772Y-63049500D01*
X139935228Y-63049500D01*
X139935226Y-63049500D01*
X139810935Y-63085994D01*
X139810932Y-63085995D01*
X139810931Y-63085996D01*
X139759677Y-63118934D01*
X139701950Y-63156033D01*
X139617118Y-63253937D01*
X139617117Y-63253938D01*
X139563302Y-63371774D01*
X139544867Y-63500000D01*
X135705133Y-63500000D01*
X135686697Y-63371774D01*
X135632882Y-63253937D01*
X135548049Y-63156033D01*
X135439069Y-63085996D01*
X135439065Y-63085994D01*
X135439064Y-63085994D01*
X135314774Y-63049500D01*
X135314772Y-63049500D01*
X135185228Y-63049500D01*
X135185226Y-63049500D01*
X135060935Y-63085994D01*
X135060932Y-63085995D01*
X135060931Y-63085996D01*
X135009677Y-63118934D01*
X134951950Y-63156033D01*
X134867118Y-63253937D01*
X134867117Y-63253938D01*
X134813302Y-63371774D01*
X134794867Y-63500000D01*
X120550500Y-63500000D01*
X120550500Y-63016922D01*
X156320476Y-63016922D01*
X156449999Y-63146445D01*
X156579522Y-63016922D01*
X157420476Y-63016922D01*
X157549999Y-63146445D01*
X157679522Y-63016922D01*
X157621888Y-63000000D01*
X157478112Y-63000000D01*
X157420476Y-63016922D01*
X156579522Y-63016922D01*
X156521888Y-63000000D01*
X156378112Y-63000000D01*
X156320476Y-63016922D01*
X120550500Y-63016922D01*
X120550500Y-62900654D01*
X120547646Y-62870220D01*
X120502803Y-62742065D01*
X120422178Y-62632822D01*
X120312935Y-62552197D01*
X120312934Y-62552196D01*
X120184779Y-62507353D01*
X120154350Y-62504500D01*
X120154346Y-62504500D01*
X119245654Y-62504500D01*
X119245650Y-62504500D01*
X119215220Y-62507353D01*
X119087065Y-62552196D01*
X118977822Y-62632822D01*
X118897196Y-62742065D01*
X118852353Y-62870220D01*
X118849500Y-62900650D01*
X118849500Y-63559349D01*
X118852353Y-63589779D01*
X118897196Y-63717934D01*
X118897197Y-63717935D01*
X118964774Y-63809499D01*
X118983340Y-63834654D01*
X118982095Y-63835572D01*
X119010619Y-63887822D01*
X119005629Y-63957513D01*
X118977137Y-64001846D01*
X118973017Y-64005966D01*
X118888207Y-64132894D01*
X118888200Y-64132907D01*
X118839699Y-64249999D01*
X117800500Y-64249999D01*
X117800500Y-62250000D01*
X132794867Y-62250000D01*
X132813302Y-62378225D01*
X132867117Y-62496061D01*
X132867118Y-62496063D01*
X132951951Y-62593967D01*
X133060931Y-62664004D01*
X133185225Y-62700499D01*
X133185227Y-62700500D01*
X133185228Y-62700500D01*
X133314773Y-62700500D01*
X133314773Y-62700499D01*
X133439069Y-62664004D01*
X133548049Y-62593967D01*
X133629471Y-62500000D01*
X168794867Y-62500000D01*
X168813302Y-62628225D01*
X168829642Y-62664004D01*
X168867118Y-62746063D01*
X168951951Y-62843967D01*
X169060931Y-62914004D01*
X169185225Y-62950499D01*
X169185227Y-62950500D01*
X169185228Y-62950500D01*
X169314773Y-62950500D01*
X169314773Y-62950499D01*
X169439069Y-62914004D01*
X169548049Y-62843967D01*
X169632882Y-62746063D01*
X169686697Y-62628226D01*
X169705133Y-62500000D01*
X180544867Y-62500000D01*
X180563302Y-62628225D01*
X180579642Y-62664004D01*
X180617118Y-62746063D01*
X180701951Y-62843967D01*
X180810931Y-62914004D01*
X180935225Y-62950499D01*
X180935227Y-62950500D01*
X180935228Y-62950500D01*
X181064773Y-62950500D01*
X181064773Y-62950499D01*
X181189069Y-62914004D01*
X181298049Y-62843967D01*
X181382882Y-62746063D01*
X181436697Y-62628226D01*
X181455133Y-62500000D01*
X181436697Y-62371774D01*
X181382882Y-62253937D01*
X181298049Y-62156033D01*
X181189069Y-62085996D01*
X181189065Y-62085994D01*
X181189064Y-62085994D01*
X181064774Y-62049500D01*
X181064772Y-62049500D01*
X180935228Y-62049500D01*
X180935226Y-62049500D01*
X180810935Y-62085994D01*
X180810932Y-62085995D01*
X180810931Y-62085996D01*
X180777943Y-62107196D01*
X180701950Y-62156033D01*
X180617118Y-62253937D01*
X180617117Y-62253938D01*
X180563302Y-62371774D01*
X180544867Y-62500000D01*
X169705133Y-62500000D01*
X169686697Y-62371774D01*
X169686693Y-62371766D01*
X169686608Y-62371473D01*
X169686607Y-62371154D01*
X169685435Y-62362996D01*
X169686607Y-62362827D01*
X169686600Y-62301603D01*
X169724368Y-62242821D01*
X169738535Y-62232214D01*
X169798049Y-62193967D01*
X169882882Y-62096063D01*
X169936697Y-61978226D01*
X169955133Y-61850000D01*
X169936697Y-61721774D01*
X169882882Y-61603937D01*
X169798049Y-61506033D01*
X169689069Y-61435996D01*
X169689065Y-61435994D01*
X169689064Y-61435994D01*
X169564774Y-61399500D01*
X169564772Y-61399500D01*
X169435228Y-61399500D01*
X169435226Y-61399500D01*
X169310935Y-61435994D01*
X169310932Y-61435995D01*
X169310931Y-61435996D01*
X169279753Y-61456033D01*
X169201950Y-61506033D01*
X169117118Y-61603937D01*
X169117117Y-61603938D01*
X169063302Y-61721774D01*
X169044867Y-61850000D01*
X169063303Y-61978230D01*
X169063398Y-61978552D01*
X169063397Y-61978886D01*
X169064565Y-61987004D01*
X169063397Y-61987171D01*
X169063391Y-62048422D01*
X169025610Y-62107196D01*
X169011457Y-62117790D01*
X168951951Y-62156032D01*
X168867118Y-62253937D01*
X168867117Y-62253938D01*
X168813302Y-62371774D01*
X168794867Y-62500000D01*
X133629471Y-62500000D01*
X133632882Y-62496063D01*
X133686697Y-62378226D01*
X133705133Y-62250000D01*
X133686697Y-62121774D01*
X133632882Y-62003937D01*
X133548049Y-61906033D01*
X133439069Y-61835996D01*
X133439065Y-61835994D01*
X133439064Y-61835994D01*
X133316477Y-61800000D01*
X143844867Y-61800000D01*
X143863302Y-61928225D01*
X143897879Y-62003937D01*
X143917118Y-62046063D01*
X144001951Y-62143967D01*
X144110931Y-62214004D01*
X144235225Y-62250499D01*
X144235227Y-62250500D01*
X144235228Y-62250500D01*
X144364773Y-62250500D01*
X144364773Y-62250499D01*
X144489069Y-62214004D01*
X144582962Y-62153662D01*
X144650001Y-62133979D01*
X144717037Y-62153662D01*
X144810931Y-62214004D01*
X144935225Y-62250499D01*
X144935227Y-62250500D01*
X144935228Y-62250500D01*
X145064773Y-62250500D01*
X145064773Y-62250499D01*
X145189069Y-62214004D01*
X145298049Y-62143967D01*
X145382882Y-62046063D01*
X145436697Y-61928226D01*
X145455133Y-61800000D01*
X145436697Y-61671774D01*
X145382882Y-61553937D01*
X145298049Y-61456033D01*
X145189069Y-61385996D01*
X145189065Y-61385994D01*
X145189064Y-61385994D01*
X145064774Y-61349500D01*
X145064772Y-61349500D01*
X144935228Y-61349500D01*
X144935226Y-61349500D01*
X144810933Y-61385994D01*
X144810932Y-61385994D01*
X144717038Y-61446336D01*
X144649999Y-61466020D01*
X144582962Y-61446336D01*
X144489066Y-61385994D01*
X144364774Y-61349500D01*
X144364772Y-61349500D01*
X144235228Y-61349500D01*
X144235226Y-61349500D01*
X144110935Y-61385994D01*
X144110932Y-61385995D01*
X144110931Y-61385996D01*
X144067350Y-61414004D01*
X144001950Y-61456033D01*
X143917118Y-61553937D01*
X143917117Y-61553938D01*
X143863302Y-61671774D01*
X143844867Y-61800000D01*
X133316477Y-61800000D01*
X133314774Y-61799500D01*
X133314772Y-61799500D01*
X133185228Y-61799500D01*
X133185226Y-61799500D01*
X133060935Y-61835994D01*
X133060932Y-61835995D01*
X133060931Y-61835996D01*
X133009677Y-61868934D01*
X132951950Y-61906033D01*
X132867118Y-62003937D01*
X132867117Y-62003938D01*
X132813302Y-62121774D01*
X132794867Y-62250000D01*
X117800500Y-62250000D01*
X117800500Y-61250000D01*
X130231693Y-61250000D01*
X130250128Y-61378225D01*
X130303943Y-61496061D01*
X130303944Y-61496063D01*
X130388777Y-61593967D01*
X130497757Y-61664004D01*
X130524220Y-61671774D01*
X130622051Y-61700499D01*
X130622053Y-61700500D01*
X130622054Y-61700500D01*
X130751599Y-61700500D01*
X130751599Y-61700499D01*
X130875895Y-61664004D01*
X130984875Y-61593967D01*
X131069708Y-61496063D01*
X131123523Y-61378226D01*
X131141959Y-61250000D01*
X131123523Y-61121774D01*
X131069708Y-61003937D01*
X131066297Y-61000000D01*
X172294867Y-61000000D01*
X172313302Y-61128225D01*
X172367117Y-61246061D01*
X172367118Y-61246063D01*
X172451951Y-61343967D01*
X172560931Y-61414004D01*
X172685225Y-61450499D01*
X172685227Y-61450500D01*
X172685228Y-61450500D01*
X172814773Y-61450500D01*
X172814773Y-61450499D01*
X172939069Y-61414004D01*
X173048049Y-61343967D01*
X173132882Y-61246063D01*
X173186697Y-61128226D01*
X173205133Y-61000000D01*
X173186697Y-60871774D01*
X173132882Y-60753937D01*
X173048049Y-60656033D01*
X172939069Y-60585996D01*
X172939065Y-60585994D01*
X172939064Y-60585994D01*
X172814774Y-60549500D01*
X172814772Y-60549500D01*
X172685228Y-60549500D01*
X172685226Y-60549500D01*
X172560935Y-60585994D01*
X172560932Y-60585995D01*
X172560931Y-60585996D01*
X172509677Y-60618934D01*
X172451950Y-60656033D01*
X172367118Y-60753937D01*
X172367117Y-60753938D01*
X172313302Y-60871774D01*
X172294867Y-61000000D01*
X131066297Y-61000000D01*
X130984875Y-60906033D01*
X130875895Y-60835996D01*
X130875891Y-60835994D01*
X130875890Y-60835994D01*
X130751600Y-60799500D01*
X130751598Y-60799500D01*
X130622054Y-60799500D01*
X130622052Y-60799500D01*
X130497761Y-60835994D01*
X130497758Y-60835995D01*
X130497757Y-60835996D01*
X130446503Y-60868934D01*
X130388776Y-60906033D01*
X130303944Y-61003937D01*
X130303943Y-61003938D01*
X130250128Y-61121774D01*
X130231693Y-61250000D01*
X117800500Y-61250000D01*
X117800500Y-60050000D01*
X125530958Y-60050000D01*
X125549393Y-60178225D01*
X125580374Y-60246062D01*
X125603209Y-60296063D01*
X125688042Y-60393967D01*
X125797022Y-60464004D01*
X125921316Y-60500499D01*
X125921318Y-60500500D01*
X125921319Y-60500500D01*
X126050864Y-60500500D01*
X126050864Y-60500499D01*
X126052564Y-60500000D01*
X139544867Y-60500000D01*
X139563302Y-60628225D01*
X139576002Y-60656033D01*
X139617118Y-60746063D01*
X139701951Y-60843967D01*
X139810931Y-60914004D01*
X139935225Y-60950499D01*
X139935227Y-60950500D01*
X139935228Y-60950500D01*
X140064773Y-60950500D01*
X140064773Y-60950499D01*
X140189069Y-60914004D01*
X140298049Y-60843967D01*
X140382882Y-60746063D01*
X140436697Y-60628226D01*
X140455133Y-60500000D01*
X140436697Y-60371774D01*
X140382882Y-60253937D01*
X140298049Y-60156033D01*
X140189069Y-60085996D01*
X140189065Y-60085994D01*
X140189064Y-60085994D01*
X140064774Y-60049500D01*
X140064772Y-60049500D01*
X139935228Y-60049500D01*
X139935226Y-60049500D01*
X139810935Y-60085994D01*
X139810932Y-60085995D01*
X139810931Y-60085996D01*
X139759677Y-60118934D01*
X139701950Y-60156033D01*
X139617118Y-60253937D01*
X139617117Y-60253938D01*
X139563302Y-60371774D01*
X139544867Y-60500000D01*
X126052564Y-60500000D01*
X126175160Y-60464004D01*
X126284140Y-60393967D01*
X126368973Y-60296063D01*
X126422788Y-60178226D01*
X126441224Y-60050000D01*
X126422788Y-59921774D01*
X126368973Y-59803937D01*
X126284140Y-59706033D01*
X126175160Y-59635996D01*
X126175156Y-59635994D01*
X126175155Y-59635994D01*
X126050865Y-59599500D01*
X126050863Y-59599500D01*
X125921319Y-59599500D01*
X125921317Y-59599500D01*
X125797026Y-59635994D01*
X125797023Y-59635995D01*
X125797022Y-59635996D01*
X125765844Y-59656033D01*
X125688041Y-59706033D01*
X125603209Y-59803937D01*
X125603208Y-59803938D01*
X125549393Y-59921774D01*
X125530958Y-60050000D01*
X117800500Y-60050000D01*
X117800500Y-58250000D01*
X128644867Y-58250000D01*
X128663302Y-58378225D01*
X128717117Y-58496061D01*
X128717118Y-58496063D01*
X128801951Y-58593967D01*
X128910931Y-58664004D01*
X128989288Y-58687011D01*
X129035225Y-58700499D01*
X129035227Y-58700500D01*
X129151031Y-58700500D01*
X129218070Y-58720185D01*
X129263825Y-58772989D01*
X129273769Y-58842147D01*
X129244744Y-58905701D01*
X129218875Y-58935556D01*
X129174623Y-58986626D01*
X129174622Y-58986628D01*
X129114834Y-59117543D01*
X129094353Y-59260000D01*
X129114834Y-59402456D01*
X129148708Y-59476628D01*
X129174623Y-59533373D01*
X129268872Y-59642143D01*
X129389947Y-59719953D01*
X129389950Y-59719954D01*
X129389949Y-59719954D01*
X129528036Y-59760499D01*
X129528038Y-59760500D01*
X129528039Y-59760500D01*
X129671962Y-59760500D01*
X129671962Y-59760499D01*
X129707719Y-59750000D01*
X133494353Y-59750000D01*
X133514834Y-59892456D01*
X133563949Y-60000000D01*
X133574623Y-60023373D01*
X133668872Y-60132143D01*
X133789947Y-60209953D01*
X133789950Y-60209954D01*
X133789949Y-60209954D01*
X133897107Y-60241417D01*
X133912924Y-60246062D01*
X133928036Y-60250499D01*
X133928038Y-60250500D01*
X133928039Y-60250500D01*
X134071962Y-60250500D01*
X134071962Y-60250499D01*
X134210053Y-60209953D01*
X134331128Y-60132143D01*
X134425377Y-60023373D01*
X134436051Y-60000000D01*
X159794867Y-60000000D01*
X159813302Y-60128225D01*
X159850627Y-60209953D01*
X159867118Y-60246063D01*
X159951951Y-60343967D01*
X160060931Y-60414004D01*
X160185225Y-60450499D01*
X160185227Y-60450500D01*
X160185228Y-60450500D01*
X160314773Y-60450500D01*
X160314773Y-60450499D01*
X160439069Y-60414004D01*
X160548049Y-60343967D01*
X160632882Y-60246063D01*
X160686697Y-60128226D01*
X160705133Y-60000000D01*
X169294867Y-60000000D01*
X169313302Y-60128225D01*
X169350627Y-60209953D01*
X169367118Y-60246063D01*
X169451951Y-60343967D01*
X169560931Y-60414004D01*
X169685225Y-60450499D01*
X169685227Y-60450500D01*
X169685228Y-60450500D01*
X169814773Y-60450500D01*
X169814773Y-60450499D01*
X169939069Y-60414004D01*
X170048049Y-60343967D01*
X170132882Y-60246063D01*
X170186697Y-60128226D01*
X170205133Y-60000000D01*
X170186697Y-59871774D01*
X170132882Y-59753937D01*
X170048049Y-59656033D01*
X169939069Y-59585996D01*
X169939065Y-59585994D01*
X169939064Y-59585994D01*
X169814774Y-59549500D01*
X169814772Y-59549500D01*
X169685228Y-59549500D01*
X169685226Y-59549500D01*
X169560935Y-59585994D01*
X169560932Y-59585995D01*
X169560931Y-59585996D01*
X169527403Y-59607543D01*
X169451950Y-59656033D01*
X169367118Y-59753937D01*
X169367117Y-59753938D01*
X169313302Y-59871774D01*
X169294867Y-60000000D01*
X160705133Y-60000000D01*
X160686697Y-59871774D01*
X160632882Y-59753937D01*
X160548049Y-59656033D01*
X160439069Y-59585996D01*
X160439065Y-59585994D01*
X160439064Y-59585994D01*
X160314774Y-59549500D01*
X160314772Y-59549500D01*
X160185228Y-59549500D01*
X160185226Y-59549500D01*
X160060935Y-59585994D01*
X160060932Y-59585995D01*
X160060931Y-59585996D01*
X160027403Y-59607543D01*
X159951950Y-59656033D01*
X159867118Y-59753937D01*
X159867117Y-59753938D01*
X159813302Y-59871774D01*
X159794867Y-60000000D01*
X134436051Y-60000000D01*
X134485165Y-59892457D01*
X134505647Y-59750000D01*
X134485165Y-59607543D01*
X134425377Y-59476627D01*
X134331128Y-59367857D01*
X134210053Y-59290047D01*
X134210051Y-59290046D01*
X134210049Y-59290045D01*
X134210050Y-59290045D01*
X134071963Y-59249500D01*
X134071961Y-59249500D01*
X133928039Y-59249500D01*
X133928036Y-59249500D01*
X133789949Y-59290045D01*
X133668873Y-59367856D01*
X133574623Y-59476626D01*
X133574622Y-59476628D01*
X133514834Y-59607543D01*
X133494353Y-59750000D01*
X129707719Y-59750000D01*
X129810053Y-59719953D01*
X129931128Y-59642143D01*
X130025377Y-59533373D01*
X130085165Y-59402457D01*
X130105647Y-59260000D01*
X130085165Y-59117543D01*
X130025377Y-58986627D01*
X129931128Y-58877857D01*
X129810053Y-58800047D01*
X129810051Y-58800046D01*
X129810049Y-58800045D01*
X129810050Y-58800045D01*
X129671963Y-58759500D01*
X129671961Y-58759500D01*
X129528039Y-58759500D01*
X129526136Y-58759500D01*
X129459097Y-58739815D01*
X129413342Y-58687011D01*
X129403398Y-58617853D01*
X129432422Y-58554298D01*
X129435992Y-58550177D01*
X129482882Y-58496063D01*
X129536697Y-58378226D01*
X129555133Y-58250000D01*
X131184867Y-58250000D01*
X131203302Y-58378225D01*
X131257117Y-58496061D01*
X131257118Y-58496063D01*
X131341951Y-58593967D01*
X131450931Y-58664004D01*
X131529288Y-58687011D01*
X131575225Y-58700499D01*
X131575227Y-58700500D01*
X131575228Y-58700500D01*
X131704773Y-58700500D01*
X131704773Y-58700499D01*
X131829069Y-58664004D01*
X131938049Y-58593967D01*
X132022882Y-58496063D01*
X132076697Y-58378226D01*
X132095133Y-58250000D01*
X132076697Y-58121774D01*
X132022882Y-58003937D01*
X131938049Y-57906033D01*
X131829069Y-57835996D01*
X131829065Y-57835994D01*
X131829064Y-57835994D01*
X131704774Y-57799500D01*
X131704772Y-57799500D01*
X131575228Y-57799500D01*
X131575226Y-57799500D01*
X131450935Y-57835994D01*
X131450932Y-57835995D01*
X131450931Y-57835996D01*
X131399677Y-57868934D01*
X131341950Y-57906033D01*
X131257118Y-58003937D01*
X131257117Y-58003938D01*
X131203302Y-58121774D01*
X131184867Y-58250000D01*
X129555133Y-58250000D01*
X129536697Y-58121774D01*
X129482882Y-58003937D01*
X129398049Y-57906033D01*
X129289069Y-57835996D01*
X129289065Y-57835994D01*
X129289064Y-57835994D01*
X129164774Y-57799500D01*
X129164772Y-57799500D01*
X129035228Y-57799500D01*
X129035226Y-57799500D01*
X128910935Y-57835994D01*
X128910932Y-57835995D01*
X128910931Y-57835996D01*
X128859677Y-57868934D01*
X128801950Y-57906033D01*
X128717118Y-58003937D01*
X128717117Y-58003938D01*
X128663302Y-58121774D01*
X128644867Y-58250000D01*
X117800500Y-58250000D01*
X117800500Y-53356762D01*
X118449500Y-53356762D01*
X118449500Y-53643237D01*
X118481572Y-53927891D01*
X118545317Y-54207181D01*
X118545321Y-54207193D01*
X118639929Y-54477565D01*
X118639935Y-54477579D01*
X118764223Y-54735666D01*
X118764225Y-54735669D01*
X118916634Y-54978227D01*
X119095243Y-55202195D01*
X119297805Y-55404757D01*
X119521773Y-55583366D01*
X119764331Y-55735775D01*
X120022428Y-55860068D01*
X120022434Y-55860070D01*
X120292806Y-55954678D01*
X120292818Y-55954682D01*
X120572102Y-56018426D01*
X120572105Y-56018426D01*
X120572108Y-56018427D01*
X120572107Y-56018427D01*
X120714434Y-56034463D01*
X120856763Y-56050499D01*
X120856764Y-56050500D01*
X120856767Y-56050500D01*
X121143236Y-56050500D01*
X121143236Y-56050499D01*
X121348815Y-56027336D01*
X121427891Y-56018427D01*
X121427892Y-56018426D01*
X121427898Y-56018426D01*
X121707182Y-55954682D01*
X121977572Y-55860068D01*
X122235669Y-55735775D01*
X122478227Y-55583366D01*
X122702195Y-55404757D01*
X122904757Y-55202195D01*
X123083366Y-54978227D01*
X123235775Y-54735669D01*
X123360068Y-54477572D01*
X123454682Y-54207182D01*
X123518426Y-53927898D01*
X123550500Y-53643233D01*
X123550500Y-53356767D01*
X123518426Y-53072102D01*
X123454682Y-52792818D01*
X123421803Y-52698857D01*
X123379648Y-52578383D01*
X123360068Y-52522428D01*
X123235775Y-52264331D01*
X123168683Y-52157555D01*
X125134500Y-52157555D01*
X125134500Y-52302444D01*
X125162763Y-52444530D01*
X125162766Y-52444542D01*
X125218204Y-52578383D01*
X125218211Y-52578396D01*
X125298699Y-52698853D01*
X125298702Y-52698857D01*
X125401142Y-52801297D01*
X125401146Y-52801300D01*
X125521603Y-52881788D01*
X125521616Y-52881795D01*
X125655457Y-52937233D01*
X125655462Y-52937235D01*
X125772112Y-52960438D01*
X125797555Y-52965499D01*
X125797559Y-52965500D01*
X125943805Y-52965500D01*
X126010844Y-52985185D01*
X126056599Y-53037989D01*
X126066543Y-53107147D01*
X126061736Y-53127818D01*
X126027583Y-53232930D01*
X125999500Y-53410241D01*
X125999500Y-53589758D01*
X126027582Y-53767066D01*
X126027583Y-53767068D01*
X126061737Y-53872183D01*
X126063732Y-53942022D01*
X126027652Y-54001855D01*
X125964951Y-54032684D01*
X125943806Y-54034500D01*
X125797555Y-54034500D01*
X125655469Y-54062763D01*
X125655457Y-54062766D01*
X125521616Y-54118204D01*
X125521603Y-54118211D01*
X125401146Y-54198699D01*
X125401142Y-54198702D01*
X125298702Y-54301142D01*
X125298699Y-54301146D01*
X125218211Y-54421603D01*
X125218204Y-54421616D01*
X125162766Y-54555457D01*
X125162763Y-54555469D01*
X125134500Y-54697555D01*
X125134500Y-54842444D01*
X125162763Y-54984530D01*
X125162766Y-54984542D01*
X125218204Y-55118383D01*
X125218211Y-55118396D01*
X125298699Y-55238853D01*
X125298702Y-55238857D01*
X125401142Y-55341297D01*
X125401146Y-55341300D01*
X125521603Y-55421788D01*
X125521616Y-55421795D01*
X125655457Y-55477233D01*
X125655462Y-55477235D01*
X125797555Y-55505499D01*
X125797559Y-55505500D01*
X125797560Y-55505500D01*
X125942441Y-55505500D01*
X125942442Y-55505499D01*
X126084538Y-55477235D01*
X126218390Y-55421792D01*
X126338854Y-55341300D01*
X126441300Y-55238854D01*
X126521792Y-55118390D01*
X126577235Y-54984538D01*
X126605500Y-54842440D01*
X126605500Y-54697560D01*
X126605500Y-54697559D01*
X126605500Y-54696194D01*
X126625185Y-54629155D01*
X126677989Y-54583400D01*
X126747147Y-54573456D01*
X126767809Y-54578260D01*
X126872932Y-54612417D01*
X127050241Y-54640500D01*
X127050242Y-54640500D01*
X127229758Y-54640500D01*
X127229759Y-54640500D01*
X127407068Y-54612417D01*
X127512183Y-54578262D01*
X127582022Y-54576268D01*
X127641855Y-54612348D01*
X127672684Y-54675049D01*
X127674500Y-54696194D01*
X127674500Y-54842444D01*
X127702763Y-54984530D01*
X127702766Y-54984542D01*
X127758204Y-55118383D01*
X127758211Y-55118396D01*
X127838699Y-55238853D01*
X127838702Y-55238857D01*
X127941142Y-55341297D01*
X127941146Y-55341300D01*
X128061603Y-55421788D01*
X128061616Y-55421795D01*
X128195457Y-55477233D01*
X128195462Y-55477235D01*
X128337555Y-55505499D01*
X128337559Y-55505500D01*
X128337560Y-55505500D01*
X128482441Y-55505500D01*
X128482442Y-55505499D01*
X128624538Y-55477235D01*
X128758390Y-55421792D01*
X128878854Y-55341300D01*
X128981300Y-55238854D01*
X129061792Y-55118390D01*
X129117235Y-54984538D01*
X129145500Y-54842440D01*
X129145500Y-54697560D01*
X129145499Y-54697555D01*
X130214500Y-54697555D01*
X130214500Y-54842444D01*
X130242763Y-54984530D01*
X130242766Y-54984542D01*
X130298204Y-55118383D01*
X130298211Y-55118396D01*
X130378699Y-55238853D01*
X130378702Y-55238857D01*
X130481142Y-55341297D01*
X130481146Y-55341300D01*
X130601603Y-55421788D01*
X130601616Y-55421795D01*
X130735457Y-55477233D01*
X130735462Y-55477235D01*
X130877555Y-55505499D01*
X130877559Y-55505500D01*
X130877560Y-55505500D01*
X131022441Y-55505500D01*
X131022442Y-55505499D01*
X131164538Y-55477235D01*
X131298390Y-55421792D01*
X131418854Y-55341300D01*
X131521300Y-55238854D01*
X131601792Y-55118390D01*
X131657235Y-54984538D01*
X131685500Y-54842440D01*
X131685500Y-54697560D01*
X131685499Y-54697555D01*
X132754500Y-54697555D01*
X132754500Y-54842444D01*
X132782763Y-54984530D01*
X132782766Y-54984542D01*
X132838204Y-55118383D01*
X132838211Y-55118396D01*
X132918699Y-55238853D01*
X132918702Y-55238857D01*
X133021142Y-55341297D01*
X133021146Y-55341300D01*
X133141603Y-55421788D01*
X133141616Y-55421795D01*
X133275457Y-55477233D01*
X133275462Y-55477235D01*
X133417555Y-55505499D01*
X133417559Y-55505500D01*
X133417560Y-55505500D01*
X133562441Y-55505500D01*
X133562442Y-55505499D01*
X133704538Y-55477235D01*
X133838390Y-55421792D01*
X133958854Y-55341300D01*
X134061300Y-55238854D01*
X134141792Y-55118390D01*
X134197235Y-54984538D01*
X134225500Y-54842440D01*
X134225500Y-54697560D01*
X134225499Y-54697555D01*
X135294500Y-54697555D01*
X135294500Y-54842444D01*
X135322763Y-54984530D01*
X135322766Y-54984542D01*
X135378204Y-55118383D01*
X135378211Y-55118396D01*
X135458699Y-55238853D01*
X135458702Y-55238857D01*
X135561142Y-55341297D01*
X135561146Y-55341300D01*
X135681603Y-55421788D01*
X135681616Y-55421795D01*
X135815457Y-55477233D01*
X135815462Y-55477235D01*
X135957555Y-55505499D01*
X135957559Y-55505500D01*
X135957560Y-55505500D01*
X136102441Y-55505500D01*
X136102442Y-55505499D01*
X136244538Y-55477235D01*
X136378390Y-55421792D01*
X136498854Y-55341300D01*
X136601300Y-55238854D01*
X136681792Y-55118390D01*
X136737235Y-54984538D01*
X136765500Y-54842440D01*
X136765500Y-54697560D01*
X136765499Y-54697555D01*
X137834500Y-54697555D01*
X137834500Y-54842444D01*
X137862763Y-54984530D01*
X137862766Y-54984542D01*
X137918204Y-55118383D01*
X137918211Y-55118396D01*
X137998699Y-55238853D01*
X137998702Y-55238857D01*
X138101142Y-55341297D01*
X138101146Y-55341300D01*
X138221603Y-55421788D01*
X138221616Y-55421795D01*
X138355457Y-55477233D01*
X138355462Y-55477235D01*
X138497555Y-55505499D01*
X138497559Y-55505500D01*
X138497560Y-55505500D01*
X138642441Y-55505500D01*
X138642442Y-55505499D01*
X138784538Y-55477235D01*
X138918390Y-55421792D01*
X139038854Y-55341300D01*
X139141300Y-55238854D01*
X139221792Y-55118390D01*
X139277235Y-54984538D01*
X139305500Y-54842440D01*
X139305500Y-54697560D01*
X139305499Y-54697555D01*
X140374500Y-54697555D01*
X140374500Y-54842444D01*
X140402763Y-54984530D01*
X140402766Y-54984542D01*
X140458204Y-55118383D01*
X140458211Y-55118396D01*
X140538699Y-55238853D01*
X140538702Y-55238857D01*
X140641142Y-55341297D01*
X140641146Y-55341300D01*
X140761603Y-55421788D01*
X140761616Y-55421795D01*
X140895457Y-55477233D01*
X140895462Y-55477235D01*
X141037555Y-55505499D01*
X141037559Y-55505500D01*
X141037560Y-55505500D01*
X141182441Y-55505500D01*
X141182442Y-55505499D01*
X141324538Y-55477235D01*
X141458390Y-55421792D01*
X141578854Y-55341300D01*
X141681300Y-55238854D01*
X141761792Y-55118390D01*
X141817235Y-54984538D01*
X141845500Y-54842440D01*
X141845500Y-54697560D01*
X141845499Y-54697555D01*
X142914500Y-54697555D01*
X142914500Y-54842444D01*
X142942763Y-54984530D01*
X142942766Y-54984542D01*
X142998204Y-55118383D01*
X142998211Y-55118396D01*
X143078699Y-55238853D01*
X143078702Y-55238857D01*
X143181142Y-55341297D01*
X143181146Y-55341300D01*
X143301603Y-55421788D01*
X143301616Y-55421795D01*
X143435457Y-55477233D01*
X143435462Y-55477235D01*
X143577555Y-55505499D01*
X143577559Y-55505500D01*
X143577560Y-55505500D01*
X143722441Y-55505500D01*
X143722442Y-55505499D01*
X143864538Y-55477235D01*
X143998390Y-55421792D01*
X144118854Y-55341300D01*
X144221300Y-55238854D01*
X144301792Y-55118390D01*
X144357235Y-54984538D01*
X144385500Y-54842440D01*
X144385500Y-54697560D01*
X144385499Y-54697555D01*
X145454500Y-54697555D01*
X145454500Y-54842444D01*
X145482763Y-54984530D01*
X145482766Y-54984542D01*
X145538204Y-55118383D01*
X145538211Y-55118396D01*
X145618699Y-55238853D01*
X145618702Y-55238857D01*
X145721142Y-55341297D01*
X145721146Y-55341300D01*
X145841603Y-55421788D01*
X145841616Y-55421795D01*
X145975457Y-55477233D01*
X145975462Y-55477235D01*
X146117555Y-55505499D01*
X146117559Y-55505500D01*
X146117560Y-55505500D01*
X146262441Y-55505500D01*
X146262442Y-55505499D01*
X146404538Y-55477235D01*
X146538390Y-55421792D01*
X146658854Y-55341300D01*
X146761300Y-55238854D01*
X146841792Y-55118390D01*
X146897235Y-54984538D01*
X146925500Y-54842440D01*
X146925500Y-54697560D01*
X146925499Y-54697555D01*
X147994500Y-54697555D01*
X147994500Y-54842444D01*
X148022763Y-54984530D01*
X148022766Y-54984542D01*
X148078204Y-55118383D01*
X148078211Y-55118396D01*
X148158699Y-55238853D01*
X148158702Y-55238857D01*
X148261142Y-55341297D01*
X148261146Y-55341300D01*
X148381603Y-55421788D01*
X148381616Y-55421795D01*
X148515457Y-55477233D01*
X148515462Y-55477235D01*
X148657555Y-55505499D01*
X148657559Y-55505500D01*
X148657560Y-55505500D01*
X148802441Y-55505500D01*
X148802442Y-55505499D01*
X148944538Y-55477235D01*
X149078390Y-55421792D01*
X149198854Y-55341300D01*
X149301300Y-55238854D01*
X149381792Y-55118390D01*
X149437235Y-54984538D01*
X149465500Y-54842440D01*
X149465500Y-54697560D01*
X149465499Y-54697555D01*
X150534500Y-54697555D01*
X150534500Y-54842444D01*
X150562763Y-54984530D01*
X150562766Y-54984542D01*
X150618204Y-55118383D01*
X150618211Y-55118396D01*
X150698699Y-55238853D01*
X150698702Y-55238857D01*
X150801142Y-55341297D01*
X150801146Y-55341300D01*
X150921603Y-55421788D01*
X150921616Y-55421795D01*
X151055457Y-55477233D01*
X151055462Y-55477235D01*
X151197555Y-55505499D01*
X151197559Y-55505500D01*
X151197560Y-55505500D01*
X151342441Y-55505500D01*
X151342442Y-55505499D01*
X151484538Y-55477235D01*
X151618390Y-55421792D01*
X151738854Y-55341300D01*
X151841300Y-55238854D01*
X151921792Y-55118390D01*
X151977235Y-54984538D01*
X152005500Y-54842440D01*
X152005500Y-54697560D01*
X152005499Y-54697555D01*
X153074500Y-54697555D01*
X153074500Y-54842444D01*
X153102763Y-54984530D01*
X153102766Y-54984542D01*
X153158204Y-55118383D01*
X153158211Y-55118396D01*
X153238699Y-55238853D01*
X153238702Y-55238857D01*
X153341142Y-55341297D01*
X153341146Y-55341300D01*
X153461603Y-55421788D01*
X153461616Y-55421795D01*
X153595457Y-55477233D01*
X153595462Y-55477235D01*
X153737555Y-55505499D01*
X153737559Y-55505500D01*
X153737560Y-55505500D01*
X153882441Y-55505500D01*
X153882442Y-55505499D01*
X154024538Y-55477235D01*
X154158390Y-55421792D01*
X154278854Y-55341300D01*
X154381300Y-55238854D01*
X154461792Y-55118390D01*
X154517235Y-54984538D01*
X154545500Y-54842440D01*
X154545500Y-54697560D01*
X154545499Y-54697555D01*
X155614500Y-54697555D01*
X155614500Y-54842444D01*
X155642763Y-54984530D01*
X155642766Y-54984542D01*
X155698204Y-55118383D01*
X155698211Y-55118396D01*
X155778699Y-55238853D01*
X155778702Y-55238857D01*
X155881142Y-55341297D01*
X155881146Y-55341300D01*
X156001603Y-55421788D01*
X156001616Y-55421795D01*
X156135457Y-55477233D01*
X156135462Y-55477235D01*
X156277555Y-55505499D01*
X156277559Y-55505500D01*
X156277560Y-55505500D01*
X156422441Y-55505500D01*
X156422442Y-55505499D01*
X156564538Y-55477235D01*
X156698390Y-55421792D01*
X156818854Y-55341300D01*
X156921300Y-55238854D01*
X157001792Y-55118390D01*
X157057235Y-54984538D01*
X157085500Y-54842440D01*
X157085500Y-54697560D01*
X157085499Y-54697555D01*
X158154500Y-54697555D01*
X158154500Y-54842444D01*
X158182763Y-54984530D01*
X158182766Y-54984542D01*
X158238204Y-55118383D01*
X158238211Y-55118396D01*
X158318699Y-55238853D01*
X158318702Y-55238857D01*
X158421142Y-55341297D01*
X158421146Y-55341300D01*
X158541603Y-55421788D01*
X158541616Y-55421795D01*
X158675457Y-55477233D01*
X158675462Y-55477235D01*
X158817555Y-55505499D01*
X158817559Y-55505500D01*
X158817560Y-55505500D01*
X158962441Y-55505500D01*
X158962442Y-55505499D01*
X159104538Y-55477235D01*
X159238390Y-55421792D01*
X159358854Y-55341300D01*
X159461300Y-55238854D01*
X159541792Y-55118390D01*
X159597235Y-54984538D01*
X159625500Y-54842440D01*
X159625500Y-54697560D01*
X159625499Y-54697555D01*
X160694500Y-54697555D01*
X160694500Y-54842444D01*
X160722763Y-54984530D01*
X160722766Y-54984542D01*
X160778204Y-55118383D01*
X160778211Y-55118396D01*
X160858699Y-55238853D01*
X160858702Y-55238857D01*
X160961142Y-55341297D01*
X160961146Y-55341300D01*
X161081603Y-55421788D01*
X161081616Y-55421795D01*
X161215457Y-55477233D01*
X161215462Y-55477235D01*
X161357555Y-55505499D01*
X161357559Y-55505500D01*
X161357560Y-55505500D01*
X161502441Y-55505500D01*
X161502442Y-55505499D01*
X161644538Y-55477235D01*
X161778390Y-55421792D01*
X161898854Y-55341300D01*
X162001300Y-55238854D01*
X162081792Y-55118390D01*
X162137235Y-54984538D01*
X162165500Y-54842440D01*
X162165500Y-54697560D01*
X162165499Y-54697555D01*
X163234500Y-54697555D01*
X163234500Y-54842444D01*
X163262763Y-54984530D01*
X163262766Y-54984542D01*
X163318204Y-55118383D01*
X163318211Y-55118396D01*
X163398699Y-55238853D01*
X163398702Y-55238857D01*
X163501142Y-55341297D01*
X163501146Y-55341300D01*
X163621603Y-55421788D01*
X163621616Y-55421795D01*
X163755457Y-55477233D01*
X163755462Y-55477235D01*
X163897555Y-55505499D01*
X163897559Y-55505500D01*
X163897560Y-55505500D01*
X164042441Y-55505500D01*
X164042442Y-55505499D01*
X164184538Y-55477235D01*
X164318390Y-55421792D01*
X164438854Y-55341300D01*
X164541300Y-55238854D01*
X164621792Y-55118390D01*
X164677235Y-54984538D01*
X164705500Y-54842440D01*
X164705500Y-54697560D01*
X164705499Y-54697555D01*
X165774500Y-54697555D01*
X165774500Y-54842444D01*
X165802763Y-54984530D01*
X165802766Y-54984542D01*
X165858204Y-55118383D01*
X165858211Y-55118396D01*
X165938699Y-55238853D01*
X165938702Y-55238857D01*
X166041142Y-55341297D01*
X166041146Y-55341300D01*
X166161603Y-55421788D01*
X166161616Y-55421795D01*
X166295457Y-55477233D01*
X166295462Y-55477235D01*
X166437555Y-55505499D01*
X166437559Y-55505500D01*
X166437560Y-55505500D01*
X166582441Y-55505500D01*
X166582442Y-55505499D01*
X166724538Y-55477235D01*
X166858390Y-55421792D01*
X166978854Y-55341300D01*
X167081300Y-55238854D01*
X167161792Y-55118390D01*
X167217235Y-54984538D01*
X167245500Y-54842440D01*
X167245500Y-54697560D01*
X167245499Y-54697555D01*
X168314500Y-54697555D01*
X168314500Y-54842444D01*
X168342763Y-54984530D01*
X168342766Y-54984542D01*
X168398204Y-55118383D01*
X168398211Y-55118396D01*
X168478699Y-55238853D01*
X168478702Y-55238857D01*
X168581142Y-55341297D01*
X168581146Y-55341300D01*
X168701603Y-55421788D01*
X168701616Y-55421795D01*
X168835457Y-55477233D01*
X168835462Y-55477235D01*
X168977555Y-55505499D01*
X168977559Y-55505500D01*
X168977560Y-55505500D01*
X169122441Y-55505500D01*
X169122442Y-55505499D01*
X169264538Y-55477235D01*
X169398390Y-55421792D01*
X169518854Y-55341300D01*
X169621300Y-55238854D01*
X169701792Y-55118390D01*
X169757235Y-54984538D01*
X169785500Y-54842440D01*
X169785500Y-54697560D01*
X169757235Y-54555462D01*
X169724972Y-54477572D01*
X169701795Y-54421616D01*
X169701788Y-54421603D01*
X169621300Y-54301146D01*
X169621297Y-54301142D01*
X169518857Y-54198702D01*
X169518853Y-54198699D01*
X169398396Y-54118211D01*
X169398383Y-54118204D01*
X169264542Y-54062766D01*
X169264530Y-54062763D01*
X169122444Y-54034500D01*
X169122440Y-54034500D01*
X168977560Y-54034500D01*
X168977555Y-54034500D01*
X168835469Y-54062763D01*
X168835457Y-54062766D01*
X168701616Y-54118204D01*
X168701603Y-54118211D01*
X168581146Y-54198699D01*
X168581142Y-54198702D01*
X168478702Y-54301142D01*
X168478699Y-54301146D01*
X168398211Y-54421603D01*
X168398204Y-54421616D01*
X168342766Y-54555457D01*
X168342763Y-54555469D01*
X168314500Y-54697555D01*
X167245499Y-54697555D01*
X167217235Y-54555462D01*
X167184972Y-54477572D01*
X167161795Y-54421616D01*
X167161788Y-54421603D01*
X167081300Y-54301146D01*
X167081297Y-54301142D01*
X166978857Y-54198702D01*
X166978853Y-54198699D01*
X166858396Y-54118211D01*
X166858383Y-54118204D01*
X166724542Y-54062766D01*
X166724530Y-54062763D01*
X166582444Y-54034500D01*
X166582440Y-54034500D01*
X166437560Y-54034500D01*
X166437555Y-54034500D01*
X166295469Y-54062763D01*
X166295457Y-54062766D01*
X166161616Y-54118204D01*
X166161603Y-54118211D01*
X166041146Y-54198699D01*
X166041142Y-54198702D01*
X165938702Y-54301142D01*
X165938699Y-54301146D01*
X165858211Y-54421603D01*
X165858204Y-54421616D01*
X165802766Y-54555457D01*
X165802763Y-54555469D01*
X165774500Y-54697555D01*
X164705499Y-54697555D01*
X164677235Y-54555462D01*
X164644972Y-54477572D01*
X164621795Y-54421616D01*
X164621788Y-54421603D01*
X164541300Y-54301146D01*
X164541297Y-54301142D01*
X164438857Y-54198702D01*
X164438853Y-54198699D01*
X164318396Y-54118211D01*
X164318383Y-54118204D01*
X164184542Y-54062766D01*
X164184530Y-54062763D01*
X164042444Y-54034500D01*
X164042440Y-54034500D01*
X163897560Y-54034500D01*
X163897555Y-54034500D01*
X163755469Y-54062763D01*
X163755457Y-54062766D01*
X163621616Y-54118204D01*
X163621603Y-54118211D01*
X163501146Y-54198699D01*
X163501142Y-54198702D01*
X163398702Y-54301142D01*
X163398699Y-54301146D01*
X163318211Y-54421603D01*
X163318204Y-54421616D01*
X163262766Y-54555457D01*
X163262763Y-54555469D01*
X163234500Y-54697555D01*
X162165499Y-54697555D01*
X162137235Y-54555462D01*
X162104972Y-54477572D01*
X162081795Y-54421616D01*
X162081788Y-54421603D01*
X162001300Y-54301146D01*
X162001297Y-54301142D01*
X161898857Y-54198702D01*
X161898853Y-54198699D01*
X161778396Y-54118211D01*
X161778383Y-54118204D01*
X161644542Y-54062766D01*
X161644530Y-54062763D01*
X161502444Y-54034500D01*
X161502440Y-54034500D01*
X161357560Y-54034500D01*
X161357555Y-54034500D01*
X161215469Y-54062763D01*
X161215457Y-54062766D01*
X161081616Y-54118204D01*
X161081603Y-54118211D01*
X160961146Y-54198699D01*
X160961142Y-54198702D01*
X160858702Y-54301142D01*
X160858699Y-54301146D01*
X160778211Y-54421603D01*
X160778204Y-54421616D01*
X160722766Y-54555457D01*
X160722763Y-54555469D01*
X160694500Y-54697555D01*
X159625499Y-54697555D01*
X159597235Y-54555462D01*
X159564972Y-54477572D01*
X159541795Y-54421616D01*
X159541788Y-54421603D01*
X159461300Y-54301146D01*
X159461297Y-54301142D01*
X159358857Y-54198702D01*
X159358853Y-54198699D01*
X159238396Y-54118211D01*
X159238383Y-54118204D01*
X159104542Y-54062766D01*
X159104530Y-54062763D01*
X158962444Y-54034500D01*
X158962440Y-54034500D01*
X158817560Y-54034500D01*
X158817555Y-54034500D01*
X158675469Y-54062763D01*
X158675457Y-54062766D01*
X158541616Y-54118204D01*
X158541603Y-54118211D01*
X158421146Y-54198699D01*
X158421142Y-54198702D01*
X158318702Y-54301142D01*
X158318699Y-54301146D01*
X158238211Y-54421603D01*
X158238204Y-54421616D01*
X158182766Y-54555457D01*
X158182763Y-54555469D01*
X158154500Y-54697555D01*
X157085499Y-54697555D01*
X157057235Y-54555462D01*
X157024972Y-54477572D01*
X157001795Y-54421616D01*
X157001788Y-54421603D01*
X156921300Y-54301146D01*
X156921297Y-54301142D01*
X156818857Y-54198702D01*
X156818853Y-54198699D01*
X156698396Y-54118211D01*
X156698383Y-54118204D01*
X156564542Y-54062766D01*
X156564530Y-54062763D01*
X156422444Y-54034500D01*
X156422440Y-54034500D01*
X156277560Y-54034500D01*
X156277555Y-54034500D01*
X156135469Y-54062763D01*
X156135457Y-54062766D01*
X156001616Y-54118204D01*
X156001603Y-54118211D01*
X155881146Y-54198699D01*
X155881142Y-54198702D01*
X155778702Y-54301142D01*
X155778699Y-54301146D01*
X155698211Y-54421603D01*
X155698204Y-54421616D01*
X155642766Y-54555457D01*
X155642763Y-54555469D01*
X155614500Y-54697555D01*
X154545499Y-54697555D01*
X154517235Y-54555462D01*
X154484972Y-54477572D01*
X154461795Y-54421616D01*
X154461788Y-54421603D01*
X154381300Y-54301146D01*
X154381297Y-54301142D01*
X154278857Y-54198702D01*
X154278853Y-54198699D01*
X154158396Y-54118211D01*
X154158383Y-54118204D01*
X154024542Y-54062766D01*
X154024530Y-54062763D01*
X153882444Y-54034500D01*
X153882440Y-54034500D01*
X153737560Y-54034500D01*
X153737555Y-54034500D01*
X153595469Y-54062763D01*
X153595457Y-54062766D01*
X153461616Y-54118204D01*
X153461603Y-54118211D01*
X153341146Y-54198699D01*
X153341142Y-54198702D01*
X153238702Y-54301142D01*
X153238699Y-54301146D01*
X153158211Y-54421603D01*
X153158204Y-54421616D01*
X153102766Y-54555457D01*
X153102763Y-54555469D01*
X153074500Y-54697555D01*
X152005499Y-54697555D01*
X151977235Y-54555462D01*
X151944972Y-54477572D01*
X151921795Y-54421616D01*
X151921788Y-54421603D01*
X151841300Y-54301146D01*
X151841297Y-54301142D01*
X151738857Y-54198702D01*
X151738853Y-54198699D01*
X151618396Y-54118211D01*
X151618383Y-54118204D01*
X151484542Y-54062766D01*
X151484530Y-54062763D01*
X151342444Y-54034500D01*
X151342440Y-54034500D01*
X151197560Y-54034500D01*
X151197555Y-54034500D01*
X151055469Y-54062763D01*
X151055457Y-54062766D01*
X150921616Y-54118204D01*
X150921603Y-54118211D01*
X150801146Y-54198699D01*
X150801142Y-54198702D01*
X150698702Y-54301142D01*
X150698699Y-54301146D01*
X150618211Y-54421603D01*
X150618204Y-54421616D01*
X150562766Y-54555457D01*
X150562763Y-54555469D01*
X150534500Y-54697555D01*
X149465499Y-54697555D01*
X149437235Y-54555462D01*
X149404972Y-54477572D01*
X149381795Y-54421616D01*
X149381788Y-54421603D01*
X149301300Y-54301146D01*
X149301297Y-54301142D01*
X149198857Y-54198702D01*
X149198853Y-54198699D01*
X149078396Y-54118211D01*
X149078383Y-54118204D01*
X148944542Y-54062766D01*
X148944530Y-54062763D01*
X148802444Y-54034500D01*
X148802440Y-54034500D01*
X148657560Y-54034500D01*
X148657555Y-54034500D01*
X148515469Y-54062763D01*
X148515457Y-54062766D01*
X148381616Y-54118204D01*
X148381603Y-54118211D01*
X148261146Y-54198699D01*
X148261142Y-54198702D01*
X148158702Y-54301142D01*
X148158699Y-54301146D01*
X148078211Y-54421603D01*
X148078204Y-54421616D01*
X148022766Y-54555457D01*
X148022763Y-54555469D01*
X147994500Y-54697555D01*
X146925499Y-54697555D01*
X146897235Y-54555462D01*
X146864972Y-54477572D01*
X146841795Y-54421616D01*
X146841788Y-54421603D01*
X146761300Y-54301146D01*
X146761297Y-54301142D01*
X146658857Y-54198702D01*
X146658853Y-54198699D01*
X146538396Y-54118211D01*
X146538383Y-54118204D01*
X146404542Y-54062766D01*
X146404530Y-54062763D01*
X146262444Y-54034500D01*
X146262440Y-54034500D01*
X146117560Y-54034500D01*
X146117555Y-54034500D01*
X145975469Y-54062763D01*
X145975457Y-54062766D01*
X145841616Y-54118204D01*
X145841603Y-54118211D01*
X145721146Y-54198699D01*
X145721142Y-54198702D01*
X145618702Y-54301142D01*
X145618699Y-54301146D01*
X145538211Y-54421603D01*
X145538204Y-54421616D01*
X145482766Y-54555457D01*
X145482763Y-54555469D01*
X145454500Y-54697555D01*
X144385499Y-54697555D01*
X144357235Y-54555462D01*
X144324972Y-54477572D01*
X144301795Y-54421616D01*
X144301788Y-54421603D01*
X144221300Y-54301146D01*
X144221297Y-54301142D01*
X144118857Y-54198702D01*
X144118853Y-54198699D01*
X143998396Y-54118211D01*
X143998383Y-54118204D01*
X143864542Y-54062766D01*
X143864530Y-54062763D01*
X143722444Y-54034500D01*
X143722440Y-54034500D01*
X143577560Y-54034500D01*
X143577555Y-54034500D01*
X143435469Y-54062763D01*
X143435457Y-54062766D01*
X143301616Y-54118204D01*
X143301603Y-54118211D01*
X143181146Y-54198699D01*
X143181142Y-54198702D01*
X143078702Y-54301142D01*
X143078699Y-54301146D01*
X142998211Y-54421603D01*
X142998204Y-54421616D01*
X142942766Y-54555457D01*
X142942763Y-54555469D01*
X142914500Y-54697555D01*
X141845499Y-54697555D01*
X141817235Y-54555462D01*
X141784972Y-54477572D01*
X141761795Y-54421616D01*
X141761788Y-54421603D01*
X141681300Y-54301146D01*
X141681297Y-54301142D01*
X141578857Y-54198702D01*
X141578853Y-54198699D01*
X141458396Y-54118211D01*
X141458383Y-54118204D01*
X141324542Y-54062766D01*
X141324530Y-54062763D01*
X141182444Y-54034500D01*
X141182440Y-54034500D01*
X141037560Y-54034500D01*
X141037555Y-54034500D01*
X140895469Y-54062763D01*
X140895457Y-54062766D01*
X140761616Y-54118204D01*
X140761603Y-54118211D01*
X140641146Y-54198699D01*
X140641142Y-54198702D01*
X140538702Y-54301142D01*
X140538699Y-54301146D01*
X140458211Y-54421603D01*
X140458204Y-54421616D01*
X140402766Y-54555457D01*
X140402763Y-54555469D01*
X140374500Y-54697555D01*
X139305499Y-54697555D01*
X139277235Y-54555462D01*
X139244972Y-54477572D01*
X139221795Y-54421616D01*
X139221788Y-54421603D01*
X139141300Y-54301146D01*
X139141297Y-54301142D01*
X139038857Y-54198702D01*
X139038853Y-54198699D01*
X138918396Y-54118211D01*
X138918383Y-54118204D01*
X138784542Y-54062766D01*
X138784530Y-54062763D01*
X138642444Y-54034500D01*
X138642440Y-54034500D01*
X138497560Y-54034500D01*
X138497555Y-54034500D01*
X138355469Y-54062763D01*
X138355457Y-54062766D01*
X138221616Y-54118204D01*
X138221603Y-54118211D01*
X138101146Y-54198699D01*
X138101142Y-54198702D01*
X137998702Y-54301142D01*
X137998699Y-54301146D01*
X137918211Y-54421603D01*
X137918204Y-54421616D01*
X137862766Y-54555457D01*
X137862763Y-54555469D01*
X137834500Y-54697555D01*
X136765499Y-54697555D01*
X136737235Y-54555462D01*
X136704972Y-54477572D01*
X136681795Y-54421616D01*
X136681788Y-54421603D01*
X136601300Y-54301146D01*
X136601297Y-54301142D01*
X136498857Y-54198702D01*
X136498853Y-54198699D01*
X136378396Y-54118211D01*
X136378383Y-54118204D01*
X136244542Y-54062766D01*
X136244530Y-54062763D01*
X136102444Y-54034500D01*
X136102440Y-54034500D01*
X135957560Y-54034500D01*
X135957555Y-54034500D01*
X135815469Y-54062763D01*
X135815457Y-54062766D01*
X135681616Y-54118204D01*
X135681603Y-54118211D01*
X135561146Y-54198699D01*
X135561142Y-54198702D01*
X135458702Y-54301142D01*
X135458699Y-54301146D01*
X135378211Y-54421603D01*
X135378204Y-54421616D01*
X135322766Y-54555457D01*
X135322763Y-54555469D01*
X135294500Y-54697555D01*
X134225499Y-54697555D01*
X134197235Y-54555462D01*
X134164972Y-54477572D01*
X134141795Y-54421616D01*
X134141788Y-54421603D01*
X134061300Y-54301146D01*
X134061297Y-54301142D01*
X133958857Y-54198702D01*
X133958853Y-54198699D01*
X133838396Y-54118211D01*
X133838383Y-54118204D01*
X133704542Y-54062766D01*
X133704530Y-54062763D01*
X133562444Y-54034500D01*
X133562440Y-54034500D01*
X133417560Y-54034500D01*
X133417555Y-54034500D01*
X133275469Y-54062763D01*
X133275457Y-54062766D01*
X133141616Y-54118204D01*
X133141603Y-54118211D01*
X133021146Y-54198699D01*
X133021142Y-54198702D01*
X132918702Y-54301142D01*
X132918699Y-54301146D01*
X132838211Y-54421603D01*
X132838204Y-54421616D01*
X132782766Y-54555457D01*
X132782763Y-54555469D01*
X132754500Y-54697555D01*
X131685499Y-54697555D01*
X131657235Y-54555462D01*
X131624972Y-54477572D01*
X131601795Y-54421616D01*
X131601788Y-54421603D01*
X131521300Y-54301146D01*
X131521297Y-54301142D01*
X131418857Y-54198702D01*
X131418853Y-54198699D01*
X131298396Y-54118211D01*
X131298383Y-54118204D01*
X131164542Y-54062766D01*
X131164530Y-54062763D01*
X131022444Y-54034500D01*
X131022440Y-54034500D01*
X130877560Y-54034500D01*
X130877555Y-54034500D01*
X130735469Y-54062763D01*
X130735457Y-54062766D01*
X130601616Y-54118204D01*
X130601603Y-54118211D01*
X130481146Y-54198699D01*
X130481142Y-54198702D01*
X130378702Y-54301142D01*
X130378699Y-54301146D01*
X130298211Y-54421603D01*
X130298204Y-54421616D01*
X130242766Y-54555457D01*
X130242763Y-54555469D01*
X130214500Y-54697555D01*
X129145499Y-54697555D01*
X129117235Y-54555462D01*
X129084972Y-54477572D01*
X129061795Y-54421616D01*
X129061788Y-54421603D01*
X128981300Y-54301146D01*
X128981297Y-54301142D01*
X128878857Y-54198702D01*
X128878853Y-54198699D01*
X128758396Y-54118211D01*
X128758383Y-54118204D01*
X128624542Y-54062766D01*
X128624530Y-54062763D01*
X128482444Y-54034500D01*
X128482440Y-54034500D01*
X128337560Y-54034500D01*
X128336194Y-54034500D01*
X128269155Y-54014815D01*
X128223400Y-53962011D01*
X128213456Y-53892853D01*
X128218260Y-53872190D01*
X128252417Y-53767068D01*
X128280500Y-53589759D01*
X128280500Y-53410241D01*
X128252417Y-53232932D01*
X128218262Y-53127816D01*
X128216268Y-53057978D01*
X128252348Y-52998145D01*
X128315049Y-52967316D01*
X128336194Y-52965500D01*
X128482441Y-52965500D01*
X128482442Y-52965499D01*
X128624538Y-52937235D01*
X128758390Y-52881792D01*
X128878854Y-52801300D01*
X128981300Y-52698854D01*
X129061792Y-52578390D01*
X129117235Y-52444538D01*
X129145500Y-52302440D01*
X129145500Y-52157560D01*
X129145499Y-52157555D01*
X130214500Y-52157555D01*
X130214500Y-52302444D01*
X130242763Y-52444530D01*
X130242766Y-52444542D01*
X130298204Y-52578383D01*
X130298211Y-52578396D01*
X130378699Y-52698853D01*
X130378702Y-52698857D01*
X130481142Y-52801297D01*
X130481146Y-52801300D01*
X130601603Y-52881788D01*
X130601616Y-52881795D01*
X130735457Y-52937233D01*
X130735462Y-52937235D01*
X130852112Y-52960438D01*
X130877555Y-52965499D01*
X130877559Y-52965500D01*
X130877560Y-52965500D01*
X131022441Y-52965500D01*
X131022442Y-52965499D01*
X131164538Y-52937235D01*
X131298390Y-52881792D01*
X131418854Y-52801300D01*
X131521300Y-52698854D01*
X131601792Y-52578390D01*
X131657235Y-52444538D01*
X131685500Y-52302440D01*
X131685500Y-52157560D01*
X131685499Y-52157555D01*
X132754500Y-52157555D01*
X132754500Y-52302444D01*
X132782763Y-52444530D01*
X132782766Y-52444542D01*
X132838204Y-52578383D01*
X132838211Y-52578396D01*
X132918699Y-52698853D01*
X132918702Y-52698857D01*
X133021142Y-52801297D01*
X133021146Y-52801300D01*
X133141603Y-52881788D01*
X133141616Y-52881795D01*
X133275457Y-52937233D01*
X133275462Y-52937235D01*
X133392112Y-52960438D01*
X133417555Y-52965499D01*
X133417559Y-52965500D01*
X133417560Y-52965500D01*
X133562441Y-52965500D01*
X133562442Y-52965499D01*
X133704538Y-52937235D01*
X133838390Y-52881792D01*
X133958854Y-52801300D01*
X134061300Y-52698854D01*
X134141792Y-52578390D01*
X134197235Y-52444538D01*
X134225500Y-52302440D01*
X134225500Y-52157560D01*
X134225499Y-52157555D01*
X135294500Y-52157555D01*
X135294500Y-52302444D01*
X135322763Y-52444530D01*
X135322766Y-52444542D01*
X135378204Y-52578383D01*
X135378211Y-52578396D01*
X135458699Y-52698853D01*
X135458702Y-52698857D01*
X135561142Y-52801297D01*
X135561146Y-52801300D01*
X135681603Y-52881788D01*
X135681616Y-52881795D01*
X135815457Y-52937233D01*
X135815462Y-52937235D01*
X135932112Y-52960438D01*
X135957555Y-52965499D01*
X135957559Y-52965500D01*
X135957560Y-52965500D01*
X136102441Y-52965500D01*
X136102442Y-52965499D01*
X136244538Y-52937235D01*
X136378390Y-52881792D01*
X136498854Y-52801300D01*
X136601300Y-52698854D01*
X136681792Y-52578390D01*
X136737235Y-52444538D01*
X136765500Y-52302440D01*
X136765500Y-52157560D01*
X136765499Y-52157555D01*
X137834500Y-52157555D01*
X137834500Y-52302444D01*
X137862763Y-52444530D01*
X137862766Y-52444542D01*
X137918204Y-52578383D01*
X137918211Y-52578396D01*
X137998699Y-52698853D01*
X137998702Y-52698857D01*
X138101142Y-52801297D01*
X138101146Y-52801300D01*
X138221603Y-52881788D01*
X138221616Y-52881795D01*
X138355457Y-52937233D01*
X138355462Y-52937235D01*
X138472112Y-52960438D01*
X138497555Y-52965499D01*
X138497559Y-52965500D01*
X138497560Y-52965500D01*
X138642441Y-52965500D01*
X138642442Y-52965499D01*
X138784538Y-52937235D01*
X138918390Y-52881792D01*
X139038854Y-52801300D01*
X139141300Y-52698854D01*
X139221792Y-52578390D01*
X139277235Y-52444538D01*
X139305500Y-52302440D01*
X139305500Y-52157560D01*
X139305499Y-52157555D01*
X140374500Y-52157555D01*
X140374500Y-52302444D01*
X140402763Y-52444530D01*
X140402766Y-52444542D01*
X140458204Y-52578383D01*
X140458211Y-52578396D01*
X140538699Y-52698853D01*
X140538702Y-52698857D01*
X140641142Y-52801297D01*
X140641146Y-52801300D01*
X140761603Y-52881788D01*
X140761616Y-52881795D01*
X140895457Y-52937233D01*
X140895462Y-52937235D01*
X141012112Y-52960438D01*
X141037555Y-52965499D01*
X141037559Y-52965500D01*
X141037560Y-52965500D01*
X141182441Y-52965500D01*
X141182442Y-52965499D01*
X141324538Y-52937235D01*
X141458390Y-52881792D01*
X141578854Y-52801300D01*
X141681300Y-52698854D01*
X141761792Y-52578390D01*
X141817235Y-52444538D01*
X141845500Y-52302440D01*
X141845500Y-52157560D01*
X141845499Y-52157555D01*
X142914500Y-52157555D01*
X142914500Y-52302444D01*
X142942763Y-52444530D01*
X142942766Y-52444542D01*
X142998204Y-52578383D01*
X142998211Y-52578396D01*
X143078699Y-52698853D01*
X143078702Y-52698857D01*
X143181142Y-52801297D01*
X143181146Y-52801300D01*
X143301603Y-52881788D01*
X143301616Y-52881795D01*
X143435457Y-52937233D01*
X143435462Y-52937235D01*
X143552112Y-52960438D01*
X143577555Y-52965499D01*
X143577559Y-52965500D01*
X143577560Y-52965500D01*
X143722441Y-52965500D01*
X143722442Y-52965499D01*
X143864538Y-52937235D01*
X143998390Y-52881792D01*
X144118854Y-52801300D01*
X144221300Y-52698854D01*
X144301792Y-52578390D01*
X144357235Y-52444538D01*
X144385500Y-52302440D01*
X144385500Y-52157560D01*
X144385499Y-52157555D01*
X145454500Y-52157555D01*
X145454500Y-52302444D01*
X145482763Y-52444530D01*
X145482766Y-52444542D01*
X145538204Y-52578383D01*
X145538211Y-52578396D01*
X145618699Y-52698853D01*
X145618702Y-52698857D01*
X145721142Y-52801297D01*
X145721146Y-52801300D01*
X145841603Y-52881788D01*
X145841616Y-52881795D01*
X145975457Y-52937233D01*
X145975462Y-52937235D01*
X146092112Y-52960438D01*
X146117555Y-52965499D01*
X146117559Y-52965500D01*
X146117560Y-52965500D01*
X146262441Y-52965500D01*
X146262442Y-52965499D01*
X146404538Y-52937235D01*
X146538390Y-52881792D01*
X146658854Y-52801300D01*
X146761300Y-52698854D01*
X146841792Y-52578390D01*
X146897235Y-52444538D01*
X146925500Y-52302440D01*
X146925500Y-52157560D01*
X146925499Y-52157555D01*
X147994500Y-52157555D01*
X147994500Y-52302444D01*
X148022763Y-52444530D01*
X148022766Y-52444542D01*
X148078204Y-52578383D01*
X148078211Y-52578396D01*
X148158699Y-52698853D01*
X148158702Y-52698857D01*
X148261142Y-52801297D01*
X148261146Y-52801300D01*
X148381603Y-52881788D01*
X148381616Y-52881795D01*
X148515457Y-52937233D01*
X148515462Y-52937235D01*
X148632112Y-52960438D01*
X148657555Y-52965499D01*
X148657559Y-52965500D01*
X148657560Y-52965500D01*
X148802441Y-52965500D01*
X148802442Y-52965499D01*
X148944538Y-52937235D01*
X149078390Y-52881792D01*
X149198854Y-52801300D01*
X149301300Y-52698854D01*
X149381792Y-52578390D01*
X149437235Y-52444538D01*
X149465500Y-52302440D01*
X149465500Y-52157560D01*
X149465499Y-52157555D01*
X150534500Y-52157555D01*
X150534500Y-52302444D01*
X150562763Y-52444530D01*
X150562766Y-52444542D01*
X150618204Y-52578383D01*
X150618211Y-52578396D01*
X150698699Y-52698853D01*
X150698702Y-52698857D01*
X150801142Y-52801297D01*
X150801146Y-52801300D01*
X150921603Y-52881788D01*
X150921616Y-52881795D01*
X151055457Y-52937233D01*
X151055462Y-52937235D01*
X151172112Y-52960438D01*
X151197555Y-52965499D01*
X151197559Y-52965500D01*
X151197560Y-52965500D01*
X151342441Y-52965500D01*
X151342442Y-52965499D01*
X151484538Y-52937235D01*
X151618390Y-52881792D01*
X151738854Y-52801300D01*
X151841300Y-52698854D01*
X151921792Y-52578390D01*
X151977235Y-52444538D01*
X152005500Y-52302440D01*
X152005500Y-52157560D01*
X152005499Y-52157555D01*
X153074500Y-52157555D01*
X153074500Y-52302444D01*
X153102763Y-52444530D01*
X153102766Y-52444542D01*
X153158204Y-52578383D01*
X153158211Y-52578396D01*
X153238699Y-52698853D01*
X153238702Y-52698857D01*
X153341142Y-52801297D01*
X153341146Y-52801300D01*
X153461603Y-52881788D01*
X153461616Y-52881795D01*
X153595457Y-52937233D01*
X153595462Y-52937235D01*
X153712112Y-52960438D01*
X153737555Y-52965499D01*
X153737559Y-52965500D01*
X153737560Y-52965500D01*
X153882441Y-52965500D01*
X153882442Y-52965499D01*
X154024538Y-52937235D01*
X154158390Y-52881792D01*
X154278854Y-52801300D01*
X154381300Y-52698854D01*
X154461792Y-52578390D01*
X154517235Y-52444538D01*
X154545500Y-52302440D01*
X154545500Y-52157560D01*
X154545499Y-52157555D01*
X155614500Y-52157555D01*
X155614500Y-52302444D01*
X155642763Y-52444530D01*
X155642766Y-52444542D01*
X155698204Y-52578383D01*
X155698211Y-52578396D01*
X155778699Y-52698853D01*
X155778702Y-52698857D01*
X155881142Y-52801297D01*
X155881146Y-52801300D01*
X156001603Y-52881788D01*
X156001616Y-52881795D01*
X156135457Y-52937233D01*
X156135462Y-52937235D01*
X156252112Y-52960438D01*
X156277555Y-52965499D01*
X156277559Y-52965500D01*
X156277560Y-52965500D01*
X156422441Y-52965500D01*
X156422442Y-52965499D01*
X156564538Y-52937235D01*
X156698390Y-52881792D01*
X156818854Y-52801300D01*
X156921300Y-52698854D01*
X157001792Y-52578390D01*
X157057235Y-52444538D01*
X157085500Y-52302440D01*
X157085500Y-52157560D01*
X157085499Y-52157555D01*
X158154500Y-52157555D01*
X158154500Y-52302444D01*
X158182763Y-52444530D01*
X158182766Y-52444542D01*
X158238204Y-52578383D01*
X158238211Y-52578396D01*
X158318699Y-52698853D01*
X158318702Y-52698857D01*
X158421142Y-52801297D01*
X158421146Y-52801300D01*
X158541603Y-52881788D01*
X158541616Y-52881795D01*
X158675457Y-52937233D01*
X158675462Y-52937235D01*
X158792112Y-52960438D01*
X158817555Y-52965499D01*
X158817559Y-52965500D01*
X158817560Y-52965500D01*
X158962441Y-52965500D01*
X158962442Y-52965499D01*
X159104538Y-52937235D01*
X159238390Y-52881792D01*
X159358854Y-52801300D01*
X159461300Y-52698854D01*
X159541792Y-52578390D01*
X159597235Y-52444538D01*
X159625500Y-52302440D01*
X159625500Y-52157560D01*
X159625499Y-52157555D01*
X160694500Y-52157555D01*
X160694500Y-52302444D01*
X160722763Y-52444530D01*
X160722766Y-52444542D01*
X160778204Y-52578383D01*
X160778211Y-52578396D01*
X160858699Y-52698853D01*
X160858702Y-52698857D01*
X160961142Y-52801297D01*
X160961146Y-52801300D01*
X161081603Y-52881788D01*
X161081616Y-52881795D01*
X161215457Y-52937233D01*
X161215462Y-52937235D01*
X161332112Y-52960438D01*
X161357555Y-52965499D01*
X161357559Y-52965500D01*
X161357560Y-52965500D01*
X161502441Y-52965500D01*
X161502442Y-52965499D01*
X161644538Y-52937235D01*
X161778390Y-52881792D01*
X161898854Y-52801300D01*
X162001300Y-52698854D01*
X162081792Y-52578390D01*
X162137235Y-52444538D01*
X162165500Y-52302440D01*
X162165500Y-52157560D01*
X162165499Y-52157555D01*
X163234500Y-52157555D01*
X163234500Y-52302444D01*
X163262763Y-52444530D01*
X163262766Y-52444542D01*
X163318204Y-52578383D01*
X163318211Y-52578396D01*
X163398699Y-52698853D01*
X163398702Y-52698857D01*
X163501142Y-52801297D01*
X163501146Y-52801300D01*
X163621603Y-52881788D01*
X163621616Y-52881795D01*
X163755457Y-52937233D01*
X163755462Y-52937235D01*
X163872112Y-52960438D01*
X163897555Y-52965499D01*
X163897559Y-52965500D01*
X163897560Y-52965500D01*
X164042441Y-52965500D01*
X164042442Y-52965499D01*
X164184538Y-52937235D01*
X164318390Y-52881792D01*
X164438854Y-52801300D01*
X164541300Y-52698854D01*
X164621792Y-52578390D01*
X164677235Y-52444538D01*
X164705500Y-52302440D01*
X164705500Y-52157560D01*
X164705499Y-52157555D01*
X165774500Y-52157555D01*
X165774500Y-52302444D01*
X165802763Y-52444530D01*
X165802766Y-52444542D01*
X165858204Y-52578383D01*
X165858211Y-52578396D01*
X165938699Y-52698853D01*
X165938702Y-52698857D01*
X166041142Y-52801297D01*
X166041146Y-52801300D01*
X166161603Y-52881788D01*
X166161616Y-52881795D01*
X166295457Y-52937233D01*
X166295462Y-52937235D01*
X166412112Y-52960438D01*
X166437555Y-52965499D01*
X166437559Y-52965500D01*
X166437560Y-52965500D01*
X166582441Y-52965500D01*
X166582442Y-52965499D01*
X166724538Y-52937235D01*
X166858390Y-52881792D01*
X166978854Y-52801300D01*
X167081300Y-52698854D01*
X167161792Y-52578390D01*
X167217235Y-52444538D01*
X167245500Y-52302440D01*
X167245500Y-52157560D01*
X167245499Y-52157555D01*
X168314500Y-52157555D01*
X168314500Y-52302444D01*
X168342763Y-52444530D01*
X168342766Y-52444542D01*
X168398204Y-52578383D01*
X168398211Y-52578396D01*
X168478699Y-52698853D01*
X168478702Y-52698857D01*
X168581142Y-52801297D01*
X168581146Y-52801300D01*
X168701603Y-52881788D01*
X168701616Y-52881795D01*
X168835457Y-52937233D01*
X168835462Y-52937235D01*
X168952112Y-52960438D01*
X168977555Y-52965499D01*
X168977559Y-52965500D01*
X168977560Y-52965500D01*
X169122441Y-52965500D01*
X169122442Y-52965499D01*
X169264538Y-52937235D01*
X169398390Y-52881792D01*
X169518854Y-52801300D01*
X169621300Y-52698854D01*
X169701792Y-52578390D01*
X169757235Y-52444538D01*
X169785500Y-52302440D01*
X169785500Y-52157560D01*
X169785499Y-52157555D01*
X170854500Y-52157555D01*
X170854500Y-52302444D01*
X170882763Y-52444530D01*
X170882766Y-52444542D01*
X170938204Y-52578383D01*
X170938211Y-52578396D01*
X171018699Y-52698853D01*
X171018702Y-52698857D01*
X171121142Y-52801297D01*
X171121146Y-52801300D01*
X171241603Y-52881788D01*
X171241616Y-52881795D01*
X171375457Y-52937233D01*
X171375462Y-52937235D01*
X171492112Y-52960438D01*
X171517555Y-52965499D01*
X171517559Y-52965500D01*
X171663805Y-52965500D01*
X171730844Y-52985185D01*
X171776599Y-53037989D01*
X171786543Y-53107147D01*
X171781736Y-53127818D01*
X171747583Y-53232930D01*
X171719500Y-53410241D01*
X171719500Y-53589758D01*
X171747582Y-53767066D01*
X171747583Y-53767068D01*
X171781737Y-53872183D01*
X171783732Y-53942022D01*
X171747652Y-54001855D01*
X171684951Y-54032684D01*
X171663806Y-54034500D01*
X171517555Y-54034500D01*
X171375469Y-54062763D01*
X171375457Y-54062766D01*
X171241616Y-54118204D01*
X171241603Y-54118211D01*
X171121146Y-54198699D01*
X171121142Y-54198702D01*
X171018702Y-54301142D01*
X171018699Y-54301146D01*
X170938211Y-54421603D01*
X170938204Y-54421616D01*
X170882766Y-54555457D01*
X170882763Y-54555469D01*
X170854500Y-54697555D01*
X170854500Y-54842444D01*
X170882763Y-54984530D01*
X170882766Y-54984542D01*
X170938204Y-55118383D01*
X170938211Y-55118396D01*
X171018699Y-55238853D01*
X171018702Y-55238857D01*
X171121142Y-55341297D01*
X171121146Y-55341300D01*
X171241603Y-55421788D01*
X171241616Y-55421795D01*
X171375457Y-55477233D01*
X171375462Y-55477235D01*
X171517555Y-55505499D01*
X171517559Y-55505500D01*
X171517560Y-55505500D01*
X171662441Y-55505500D01*
X171662442Y-55505499D01*
X171804538Y-55477235D01*
X171938390Y-55421792D01*
X172058854Y-55341300D01*
X172161300Y-55238854D01*
X172241792Y-55118390D01*
X172297235Y-54984538D01*
X172325500Y-54842440D01*
X172325500Y-54697560D01*
X172325500Y-54697559D01*
X172325500Y-54696194D01*
X172345185Y-54629155D01*
X172397989Y-54583400D01*
X172467147Y-54573456D01*
X172487809Y-54578260D01*
X172592932Y-54612417D01*
X172770241Y-54640500D01*
X172770242Y-54640500D01*
X172949758Y-54640500D01*
X172949759Y-54640500D01*
X173127068Y-54612417D01*
X173232183Y-54578262D01*
X173302022Y-54576268D01*
X173361855Y-54612348D01*
X173392684Y-54675049D01*
X173394500Y-54696194D01*
X173394500Y-54842444D01*
X173422763Y-54984530D01*
X173422766Y-54984542D01*
X173478204Y-55118383D01*
X173478211Y-55118396D01*
X173558699Y-55238853D01*
X173558702Y-55238857D01*
X173661142Y-55341297D01*
X173661146Y-55341300D01*
X173781603Y-55421788D01*
X173781616Y-55421795D01*
X173915457Y-55477233D01*
X173915462Y-55477235D01*
X174057555Y-55505499D01*
X174057559Y-55505500D01*
X174057560Y-55505500D01*
X174202441Y-55505500D01*
X174202442Y-55505499D01*
X174344538Y-55477235D01*
X174478390Y-55421792D01*
X174598854Y-55341300D01*
X174701300Y-55238854D01*
X174781792Y-55118390D01*
X174837235Y-54984538D01*
X174865500Y-54842440D01*
X174865500Y-54697560D01*
X174837235Y-54555462D01*
X174804972Y-54477572D01*
X174781795Y-54421616D01*
X174781788Y-54421603D01*
X174701300Y-54301146D01*
X174701297Y-54301142D01*
X174598857Y-54198702D01*
X174598853Y-54198699D01*
X174478396Y-54118211D01*
X174478383Y-54118204D01*
X174344542Y-54062766D01*
X174344530Y-54062763D01*
X174202444Y-54034500D01*
X174202440Y-54034500D01*
X174057560Y-54034500D01*
X174056194Y-54034500D01*
X173989155Y-54014815D01*
X173943400Y-53962011D01*
X173933456Y-53892853D01*
X173938260Y-53872190D01*
X173972417Y-53767068D01*
X174000500Y-53589759D01*
X174000500Y-53410241D01*
X173992030Y-53356762D01*
X176449500Y-53356762D01*
X176449500Y-53643237D01*
X176481572Y-53927891D01*
X176545317Y-54207181D01*
X176545321Y-54207193D01*
X176639929Y-54477565D01*
X176639935Y-54477579D01*
X176764223Y-54735666D01*
X176764225Y-54735669D01*
X176916634Y-54978227D01*
X177095243Y-55202195D01*
X177297805Y-55404757D01*
X177521773Y-55583366D01*
X177764331Y-55735775D01*
X178022428Y-55860068D01*
X178022434Y-55860070D01*
X178292806Y-55954678D01*
X178292818Y-55954682D01*
X178572102Y-56018426D01*
X178572105Y-56018426D01*
X178572108Y-56018427D01*
X178572107Y-56018427D01*
X178714434Y-56034463D01*
X178856763Y-56050499D01*
X178856764Y-56050500D01*
X178856767Y-56050500D01*
X179143236Y-56050500D01*
X179143236Y-56050499D01*
X179348815Y-56027336D01*
X179427891Y-56018427D01*
X179427892Y-56018426D01*
X179427898Y-56018426D01*
X179707182Y-55954682D01*
X179977572Y-55860068D01*
X180235669Y-55735775D01*
X180478227Y-55583366D01*
X180702195Y-55404757D01*
X180904757Y-55202195D01*
X181083366Y-54978227D01*
X181235775Y-54735669D01*
X181360068Y-54477572D01*
X181454682Y-54207182D01*
X181518426Y-53927898D01*
X181550500Y-53643233D01*
X181550500Y-53356767D01*
X181518426Y-53072102D01*
X181454682Y-52792818D01*
X181421803Y-52698857D01*
X181379648Y-52578383D01*
X181360068Y-52522428D01*
X181235775Y-52264331D01*
X181083366Y-52021773D01*
X180904757Y-51797805D01*
X180702195Y-51595243D01*
X180662740Y-51563779D01*
X180611308Y-51522763D01*
X180478227Y-51416634D01*
X180235669Y-51264225D01*
X180235666Y-51264223D01*
X179977579Y-51139935D01*
X179977565Y-51139929D01*
X179707193Y-51045321D01*
X179707181Y-51045317D01*
X179427891Y-50981572D01*
X179427892Y-50981572D01*
X179143237Y-50949500D01*
X179143233Y-50949500D01*
X178856767Y-50949500D01*
X178856762Y-50949500D01*
X178572108Y-50981572D01*
X178292818Y-51045317D01*
X178292806Y-51045321D01*
X178022434Y-51139929D01*
X178022420Y-51139935D01*
X177764333Y-51264223D01*
X177521774Y-51416633D01*
X177297805Y-51595242D01*
X177095242Y-51797805D01*
X176916633Y-52021774D01*
X176764223Y-52264333D01*
X176639935Y-52522420D01*
X176639929Y-52522434D01*
X176545321Y-52792806D01*
X176545317Y-52792818D01*
X176481572Y-53072108D01*
X176449500Y-53356762D01*
X173992030Y-53356762D01*
X173972417Y-53232932D01*
X173938262Y-53127816D01*
X173936268Y-53057978D01*
X173972348Y-52998145D01*
X174035049Y-52967316D01*
X174056194Y-52965500D01*
X174202441Y-52965500D01*
X174202442Y-52965499D01*
X174344538Y-52937235D01*
X174478390Y-52881792D01*
X174598854Y-52801300D01*
X174701300Y-52698854D01*
X174781792Y-52578390D01*
X174837235Y-52444538D01*
X174865500Y-52302440D01*
X174865500Y-52157560D01*
X174837235Y-52015462D01*
X174837233Y-52015457D01*
X174781795Y-51881616D01*
X174781788Y-51881603D01*
X174701300Y-51761146D01*
X174701297Y-51761142D01*
X174598857Y-51658702D01*
X174598853Y-51658699D01*
X174478396Y-51578211D01*
X174478383Y-51578204D01*
X174344542Y-51522766D01*
X174344530Y-51522763D01*
X174202444Y-51494500D01*
X174202440Y-51494500D01*
X174057560Y-51494500D01*
X174057555Y-51494500D01*
X173915469Y-51522763D01*
X173915457Y-51522766D01*
X173781616Y-51578204D01*
X173781603Y-51578211D01*
X173661146Y-51658699D01*
X173661142Y-51658702D01*
X173558702Y-51761142D01*
X173558699Y-51761146D01*
X173478211Y-51881603D01*
X173478204Y-51881616D01*
X173422766Y-52015457D01*
X173422763Y-52015469D01*
X173394500Y-52157555D01*
X173394500Y-52303805D01*
X173374815Y-52370844D01*
X173322011Y-52416599D01*
X173252853Y-52426543D01*
X173232182Y-52421736D01*
X173127069Y-52387583D01*
X173021382Y-52370844D01*
X172949759Y-52359500D01*
X172770241Y-52359500D01*
X172734779Y-52365116D01*
X172592928Y-52387583D01*
X172487817Y-52421735D01*
X172417976Y-52423730D01*
X172358143Y-52387649D01*
X172327316Y-52324947D01*
X172325500Y-52303804D01*
X172325500Y-52157559D01*
X172325499Y-52157555D01*
X172314443Y-52101975D01*
X172297235Y-52015462D01*
X172297233Y-52015457D01*
X172241795Y-51881616D01*
X172241788Y-51881603D01*
X172161300Y-51761146D01*
X172161297Y-51761142D01*
X172058857Y-51658702D01*
X172058853Y-51658699D01*
X171938396Y-51578211D01*
X171938383Y-51578204D01*
X171804542Y-51522766D01*
X171804530Y-51522763D01*
X171662444Y-51494500D01*
X171662440Y-51494500D01*
X171517560Y-51494500D01*
X171517555Y-51494500D01*
X171375469Y-51522763D01*
X171375457Y-51522766D01*
X171241616Y-51578204D01*
X171241603Y-51578211D01*
X171121146Y-51658699D01*
X171121142Y-51658702D01*
X171018702Y-51761142D01*
X171018699Y-51761146D01*
X170938211Y-51881603D01*
X170938204Y-51881616D01*
X170882766Y-52015457D01*
X170882763Y-52015469D01*
X170854500Y-52157555D01*
X169785499Y-52157555D01*
X169757235Y-52015462D01*
X169757233Y-52015457D01*
X169701795Y-51881616D01*
X169701788Y-51881603D01*
X169621300Y-51761146D01*
X169621297Y-51761142D01*
X169518857Y-51658702D01*
X169518853Y-51658699D01*
X169398396Y-51578211D01*
X169398383Y-51578204D01*
X169264542Y-51522766D01*
X169264530Y-51522763D01*
X169122444Y-51494500D01*
X169122440Y-51494500D01*
X168977560Y-51494500D01*
X168977555Y-51494500D01*
X168835469Y-51522763D01*
X168835457Y-51522766D01*
X168701616Y-51578204D01*
X168701603Y-51578211D01*
X168581146Y-51658699D01*
X168581142Y-51658702D01*
X168478702Y-51761142D01*
X168478699Y-51761146D01*
X168398211Y-51881603D01*
X168398204Y-51881616D01*
X168342766Y-52015457D01*
X168342763Y-52015469D01*
X168314500Y-52157555D01*
X167245499Y-52157555D01*
X167217235Y-52015462D01*
X167217233Y-52015457D01*
X167161795Y-51881616D01*
X167161788Y-51881603D01*
X167081300Y-51761146D01*
X167081297Y-51761142D01*
X166978857Y-51658702D01*
X166978853Y-51658699D01*
X166858396Y-51578211D01*
X166858383Y-51578204D01*
X166724542Y-51522766D01*
X166724530Y-51522763D01*
X166582444Y-51494500D01*
X166582440Y-51494500D01*
X166437560Y-51494500D01*
X166437555Y-51494500D01*
X166295469Y-51522763D01*
X166295457Y-51522766D01*
X166161616Y-51578204D01*
X166161603Y-51578211D01*
X166041146Y-51658699D01*
X166041142Y-51658702D01*
X165938702Y-51761142D01*
X165938699Y-51761146D01*
X165858211Y-51881603D01*
X165858204Y-51881616D01*
X165802766Y-52015457D01*
X165802763Y-52015469D01*
X165774500Y-52157555D01*
X164705499Y-52157555D01*
X164677235Y-52015462D01*
X164677233Y-52015457D01*
X164621795Y-51881616D01*
X164621788Y-51881603D01*
X164541300Y-51761146D01*
X164541297Y-51761142D01*
X164438857Y-51658702D01*
X164438853Y-51658699D01*
X164318396Y-51578211D01*
X164318383Y-51578204D01*
X164184542Y-51522766D01*
X164184530Y-51522763D01*
X164042444Y-51494500D01*
X164042440Y-51494500D01*
X163897560Y-51494500D01*
X163897555Y-51494500D01*
X163755469Y-51522763D01*
X163755457Y-51522766D01*
X163621616Y-51578204D01*
X163621603Y-51578211D01*
X163501146Y-51658699D01*
X163501142Y-51658702D01*
X163398702Y-51761142D01*
X163398699Y-51761146D01*
X163318211Y-51881603D01*
X163318204Y-51881616D01*
X163262766Y-52015457D01*
X163262763Y-52015469D01*
X163234500Y-52157555D01*
X162165499Y-52157555D01*
X162137235Y-52015462D01*
X162137233Y-52015457D01*
X162081795Y-51881616D01*
X162081788Y-51881603D01*
X162001300Y-51761146D01*
X162001297Y-51761142D01*
X161898857Y-51658702D01*
X161898853Y-51658699D01*
X161778396Y-51578211D01*
X161778383Y-51578204D01*
X161644542Y-51522766D01*
X161644530Y-51522763D01*
X161502444Y-51494500D01*
X161502440Y-51494500D01*
X161357560Y-51494500D01*
X161357555Y-51494500D01*
X161215469Y-51522763D01*
X161215457Y-51522766D01*
X161081616Y-51578204D01*
X161081603Y-51578211D01*
X160961146Y-51658699D01*
X160961142Y-51658702D01*
X160858702Y-51761142D01*
X160858699Y-51761146D01*
X160778211Y-51881603D01*
X160778204Y-51881616D01*
X160722766Y-52015457D01*
X160722763Y-52015469D01*
X160694500Y-52157555D01*
X159625499Y-52157555D01*
X159597235Y-52015462D01*
X159597233Y-52015457D01*
X159541795Y-51881616D01*
X159541788Y-51881603D01*
X159461300Y-51761146D01*
X159461297Y-51761142D01*
X159358857Y-51658702D01*
X159358853Y-51658699D01*
X159238396Y-51578211D01*
X159238383Y-51578204D01*
X159104542Y-51522766D01*
X159104530Y-51522763D01*
X158962444Y-51494500D01*
X158962440Y-51494500D01*
X158817560Y-51494500D01*
X158817555Y-51494500D01*
X158675469Y-51522763D01*
X158675457Y-51522766D01*
X158541616Y-51578204D01*
X158541603Y-51578211D01*
X158421146Y-51658699D01*
X158421142Y-51658702D01*
X158318702Y-51761142D01*
X158318699Y-51761146D01*
X158238211Y-51881603D01*
X158238204Y-51881616D01*
X158182766Y-52015457D01*
X158182763Y-52015469D01*
X158154500Y-52157555D01*
X157085499Y-52157555D01*
X157057235Y-52015462D01*
X157057233Y-52015457D01*
X157001795Y-51881616D01*
X157001788Y-51881603D01*
X156921300Y-51761146D01*
X156921297Y-51761142D01*
X156818857Y-51658702D01*
X156818853Y-51658699D01*
X156698396Y-51578211D01*
X156698383Y-51578204D01*
X156564542Y-51522766D01*
X156564530Y-51522763D01*
X156422444Y-51494500D01*
X156422440Y-51494500D01*
X156277560Y-51494500D01*
X156277555Y-51494500D01*
X156135469Y-51522763D01*
X156135457Y-51522766D01*
X156001616Y-51578204D01*
X156001603Y-51578211D01*
X155881146Y-51658699D01*
X155881142Y-51658702D01*
X155778702Y-51761142D01*
X155778699Y-51761146D01*
X155698211Y-51881603D01*
X155698204Y-51881616D01*
X155642766Y-52015457D01*
X155642763Y-52015469D01*
X155614500Y-52157555D01*
X154545499Y-52157555D01*
X154517235Y-52015462D01*
X154517233Y-52015457D01*
X154461795Y-51881616D01*
X154461788Y-51881603D01*
X154381300Y-51761146D01*
X154381297Y-51761142D01*
X154278857Y-51658702D01*
X154278853Y-51658699D01*
X154158396Y-51578211D01*
X154158383Y-51578204D01*
X154024542Y-51522766D01*
X154024530Y-51522763D01*
X153882444Y-51494500D01*
X153882440Y-51494500D01*
X153737560Y-51494500D01*
X153737555Y-51494500D01*
X153595469Y-51522763D01*
X153595457Y-51522766D01*
X153461616Y-51578204D01*
X153461603Y-51578211D01*
X153341146Y-51658699D01*
X153341142Y-51658702D01*
X153238702Y-51761142D01*
X153238699Y-51761146D01*
X153158211Y-51881603D01*
X153158204Y-51881616D01*
X153102766Y-52015457D01*
X153102763Y-52015469D01*
X153074500Y-52157555D01*
X152005499Y-52157555D01*
X151977235Y-52015462D01*
X151977233Y-52015457D01*
X151921795Y-51881616D01*
X151921788Y-51881603D01*
X151841300Y-51761146D01*
X151841297Y-51761142D01*
X151738857Y-51658702D01*
X151738853Y-51658699D01*
X151618396Y-51578211D01*
X151618383Y-51578204D01*
X151484542Y-51522766D01*
X151484530Y-51522763D01*
X151342444Y-51494500D01*
X151342440Y-51494500D01*
X151197560Y-51494500D01*
X151197555Y-51494500D01*
X151055469Y-51522763D01*
X151055457Y-51522766D01*
X150921616Y-51578204D01*
X150921603Y-51578211D01*
X150801146Y-51658699D01*
X150801142Y-51658702D01*
X150698702Y-51761142D01*
X150698699Y-51761146D01*
X150618211Y-51881603D01*
X150618204Y-51881616D01*
X150562766Y-52015457D01*
X150562763Y-52015469D01*
X150534500Y-52157555D01*
X149465499Y-52157555D01*
X149437235Y-52015462D01*
X149437233Y-52015457D01*
X149381795Y-51881616D01*
X149381788Y-51881603D01*
X149301300Y-51761146D01*
X149301297Y-51761142D01*
X149198857Y-51658702D01*
X149198853Y-51658699D01*
X149078396Y-51578211D01*
X149078383Y-51578204D01*
X148944542Y-51522766D01*
X148944530Y-51522763D01*
X148802444Y-51494500D01*
X148802440Y-51494500D01*
X148657560Y-51494500D01*
X148657555Y-51494500D01*
X148515469Y-51522763D01*
X148515457Y-51522766D01*
X148381616Y-51578204D01*
X148381603Y-51578211D01*
X148261146Y-51658699D01*
X148261142Y-51658702D01*
X148158702Y-51761142D01*
X148158699Y-51761146D01*
X148078211Y-51881603D01*
X148078204Y-51881616D01*
X148022766Y-52015457D01*
X148022763Y-52015469D01*
X147994500Y-52157555D01*
X146925499Y-52157555D01*
X146897235Y-52015462D01*
X146897233Y-52015457D01*
X146841795Y-51881616D01*
X146841788Y-51881603D01*
X146761300Y-51761146D01*
X146761297Y-51761142D01*
X146658857Y-51658702D01*
X146658853Y-51658699D01*
X146538396Y-51578211D01*
X146538383Y-51578204D01*
X146404542Y-51522766D01*
X146404530Y-51522763D01*
X146262444Y-51494500D01*
X146262440Y-51494500D01*
X146117560Y-51494500D01*
X146117555Y-51494500D01*
X145975469Y-51522763D01*
X145975457Y-51522766D01*
X145841616Y-51578204D01*
X145841603Y-51578211D01*
X145721146Y-51658699D01*
X145721142Y-51658702D01*
X145618702Y-51761142D01*
X145618699Y-51761146D01*
X145538211Y-51881603D01*
X145538204Y-51881616D01*
X145482766Y-52015457D01*
X145482763Y-52015469D01*
X145454500Y-52157555D01*
X144385499Y-52157555D01*
X144357235Y-52015462D01*
X144357233Y-52015457D01*
X144301795Y-51881616D01*
X144301788Y-51881603D01*
X144221300Y-51761146D01*
X144221297Y-51761142D01*
X144118857Y-51658702D01*
X144118853Y-51658699D01*
X143998396Y-51578211D01*
X143998383Y-51578204D01*
X143864542Y-51522766D01*
X143864530Y-51522763D01*
X143722444Y-51494500D01*
X143722440Y-51494500D01*
X143577560Y-51494500D01*
X143577555Y-51494500D01*
X143435469Y-51522763D01*
X143435457Y-51522766D01*
X143301616Y-51578204D01*
X143301603Y-51578211D01*
X143181146Y-51658699D01*
X143181142Y-51658702D01*
X143078702Y-51761142D01*
X143078699Y-51761146D01*
X142998211Y-51881603D01*
X142998204Y-51881616D01*
X142942766Y-52015457D01*
X142942763Y-52015469D01*
X142914500Y-52157555D01*
X141845499Y-52157555D01*
X141817235Y-52015462D01*
X141817233Y-52015457D01*
X141761795Y-51881616D01*
X141761788Y-51881603D01*
X141681300Y-51761146D01*
X141681297Y-51761142D01*
X141578857Y-51658702D01*
X141578853Y-51658699D01*
X141458396Y-51578211D01*
X141458383Y-51578204D01*
X141324542Y-51522766D01*
X141324530Y-51522763D01*
X141182444Y-51494500D01*
X141182440Y-51494500D01*
X141037560Y-51494500D01*
X141037555Y-51494500D01*
X140895469Y-51522763D01*
X140895457Y-51522766D01*
X140761616Y-51578204D01*
X140761603Y-51578211D01*
X140641146Y-51658699D01*
X140641142Y-51658702D01*
X140538702Y-51761142D01*
X140538699Y-51761146D01*
X140458211Y-51881603D01*
X140458204Y-51881616D01*
X140402766Y-52015457D01*
X140402763Y-52015469D01*
X140374500Y-52157555D01*
X139305499Y-52157555D01*
X139277235Y-52015462D01*
X139277233Y-52015457D01*
X139221795Y-51881616D01*
X139221788Y-51881603D01*
X139141300Y-51761146D01*
X139141297Y-51761142D01*
X139038857Y-51658702D01*
X139038853Y-51658699D01*
X138918396Y-51578211D01*
X138918383Y-51578204D01*
X138784542Y-51522766D01*
X138784530Y-51522763D01*
X138642444Y-51494500D01*
X138642440Y-51494500D01*
X138497560Y-51494500D01*
X138497555Y-51494500D01*
X138355469Y-51522763D01*
X138355457Y-51522766D01*
X138221616Y-51578204D01*
X138221603Y-51578211D01*
X138101146Y-51658699D01*
X138101142Y-51658702D01*
X137998702Y-51761142D01*
X137998699Y-51761146D01*
X137918211Y-51881603D01*
X137918204Y-51881616D01*
X137862766Y-52015457D01*
X137862763Y-52015469D01*
X137834500Y-52157555D01*
X136765499Y-52157555D01*
X136737235Y-52015462D01*
X136737233Y-52015457D01*
X136681795Y-51881616D01*
X136681788Y-51881603D01*
X136601300Y-51761146D01*
X136601297Y-51761142D01*
X136498857Y-51658702D01*
X136498853Y-51658699D01*
X136378396Y-51578211D01*
X136378383Y-51578204D01*
X136244542Y-51522766D01*
X136244530Y-51522763D01*
X136102444Y-51494500D01*
X136102440Y-51494500D01*
X135957560Y-51494500D01*
X135957555Y-51494500D01*
X135815469Y-51522763D01*
X135815457Y-51522766D01*
X135681616Y-51578204D01*
X135681603Y-51578211D01*
X135561146Y-51658699D01*
X135561142Y-51658702D01*
X135458702Y-51761142D01*
X135458699Y-51761146D01*
X135378211Y-51881603D01*
X135378204Y-51881616D01*
X135322766Y-52015457D01*
X135322763Y-52015469D01*
X135294500Y-52157555D01*
X134225499Y-52157555D01*
X134197235Y-52015462D01*
X134197233Y-52015457D01*
X134141795Y-51881616D01*
X134141788Y-51881603D01*
X134061300Y-51761146D01*
X134061297Y-51761142D01*
X133958857Y-51658702D01*
X133958853Y-51658699D01*
X133838396Y-51578211D01*
X133838383Y-51578204D01*
X133704542Y-51522766D01*
X133704530Y-51522763D01*
X133562444Y-51494500D01*
X133562440Y-51494500D01*
X133417560Y-51494500D01*
X133417555Y-51494500D01*
X133275469Y-51522763D01*
X133275457Y-51522766D01*
X133141616Y-51578204D01*
X133141603Y-51578211D01*
X133021146Y-51658699D01*
X133021142Y-51658702D01*
X132918702Y-51761142D01*
X132918699Y-51761146D01*
X132838211Y-51881603D01*
X132838204Y-51881616D01*
X132782766Y-52015457D01*
X132782763Y-52015469D01*
X132754500Y-52157555D01*
X131685499Y-52157555D01*
X131657235Y-52015462D01*
X131657233Y-52015457D01*
X131601795Y-51881616D01*
X131601788Y-51881603D01*
X131521300Y-51761146D01*
X131521297Y-51761142D01*
X131418857Y-51658702D01*
X131418853Y-51658699D01*
X131298396Y-51578211D01*
X131298383Y-51578204D01*
X131164542Y-51522766D01*
X131164530Y-51522763D01*
X131022444Y-51494500D01*
X131022440Y-51494500D01*
X130877560Y-51494500D01*
X130877555Y-51494500D01*
X130735469Y-51522763D01*
X130735457Y-51522766D01*
X130601616Y-51578204D01*
X130601603Y-51578211D01*
X130481146Y-51658699D01*
X130481142Y-51658702D01*
X130378702Y-51761142D01*
X130378699Y-51761146D01*
X130298211Y-51881603D01*
X130298204Y-51881616D01*
X130242766Y-52015457D01*
X130242763Y-52015469D01*
X130214500Y-52157555D01*
X129145499Y-52157555D01*
X129117235Y-52015462D01*
X129117233Y-52015457D01*
X129061795Y-51881616D01*
X129061788Y-51881603D01*
X128981300Y-51761146D01*
X128981297Y-51761142D01*
X128878857Y-51658702D01*
X128878853Y-51658699D01*
X128758396Y-51578211D01*
X128758383Y-51578204D01*
X128624542Y-51522766D01*
X128624530Y-51522763D01*
X128482444Y-51494500D01*
X128482440Y-51494500D01*
X128337560Y-51494500D01*
X128337555Y-51494500D01*
X128195469Y-51522763D01*
X128195457Y-51522766D01*
X128061616Y-51578204D01*
X128061603Y-51578211D01*
X127941146Y-51658699D01*
X127941142Y-51658702D01*
X127838702Y-51761142D01*
X127838699Y-51761146D01*
X127758211Y-51881603D01*
X127758204Y-51881616D01*
X127702766Y-52015457D01*
X127702763Y-52015469D01*
X127674500Y-52157555D01*
X127674500Y-52303805D01*
X127654815Y-52370844D01*
X127602011Y-52416599D01*
X127532853Y-52426543D01*
X127512182Y-52421736D01*
X127407069Y-52387583D01*
X127301382Y-52370844D01*
X127229759Y-52359500D01*
X127050241Y-52359500D01*
X127014779Y-52365116D01*
X126872928Y-52387583D01*
X126767817Y-52421735D01*
X126697976Y-52423730D01*
X126638143Y-52387649D01*
X126607316Y-52324947D01*
X126605500Y-52303804D01*
X126605500Y-52157559D01*
X126605499Y-52157555D01*
X126594443Y-52101975D01*
X126577235Y-52015462D01*
X126577233Y-52015457D01*
X126521795Y-51881616D01*
X126521788Y-51881603D01*
X126441300Y-51761146D01*
X126441297Y-51761142D01*
X126338857Y-51658702D01*
X126338853Y-51658699D01*
X126218396Y-51578211D01*
X126218383Y-51578204D01*
X126084542Y-51522766D01*
X126084530Y-51522763D01*
X125942444Y-51494500D01*
X125942440Y-51494500D01*
X125797560Y-51494500D01*
X125797555Y-51494500D01*
X125655469Y-51522763D01*
X125655457Y-51522766D01*
X125521616Y-51578204D01*
X125521603Y-51578211D01*
X125401146Y-51658699D01*
X125401142Y-51658702D01*
X125298702Y-51761142D01*
X125298699Y-51761146D01*
X125218211Y-51881603D01*
X125218204Y-51881616D01*
X125162766Y-52015457D01*
X125162763Y-52015469D01*
X125134500Y-52157555D01*
X123168683Y-52157555D01*
X123083366Y-52021773D01*
X122904757Y-51797805D01*
X122702195Y-51595243D01*
X122662740Y-51563779D01*
X122611308Y-51522763D01*
X122478227Y-51416634D01*
X122235669Y-51264225D01*
X122235666Y-51264223D01*
X121977579Y-51139935D01*
X121977565Y-51139929D01*
X121707193Y-51045321D01*
X121707181Y-51045317D01*
X121427891Y-50981572D01*
X121427892Y-50981572D01*
X121143237Y-50949500D01*
X121143233Y-50949500D01*
X120856767Y-50949500D01*
X120856762Y-50949500D01*
X120572108Y-50981572D01*
X120292818Y-51045317D01*
X120292806Y-51045321D01*
X120022434Y-51139929D01*
X120022420Y-51139935D01*
X119764333Y-51264223D01*
X119521774Y-51416633D01*
X119297805Y-51595242D01*
X119095242Y-51797805D01*
X118916633Y-52021774D01*
X118764223Y-52264333D01*
X118639935Y-52522420D01*
X118639929Y-52522434D01*
X118545321Y-52792806D01*
X118545317Y-52792818D01*
X118481572Y-53072108D01*
X118449500Y-53356762D01*
X117800500Y-53356762D01*
X117800500Y-53003480D01*
X117800695Y-52996527D01*
X117801332Y-52985185D01*
X117817084Y-52704691D01*
X117818638Y-52690898D01*
X117867015Y-52406167D01*
X117870109Y-52392615D01*
X117879650Y-52359500D01*
X117950061Y-52115096D01*
X117954653Y-52101975D01*
X118065175Y-51835151D01*
X118071195Y-51822651D01*
X118210902Y-51569868D01*
X118218297Y-51558100D01*
X118243368Y-51522766D01*
X118385422Y-51322559D01*
X118394077Y-51311705D01*
X118586534Y-51096346D01*
X118596346Y-51086534D01*
X118811705Y-50894077D01*
X118822559Y-50885422D01*
X119058105Y-50718293D01*
X119069868Y-50710902D01*
X119322651Y-50571195D01*
X119335151Y-50565175D01*
X119601979Y-50454651D01*
X119615096Y-50450061D01*
X119892621Y-50370107D01*
X119906167Y-50367015D01*
X120190898Y-50318638D01*
X120204691Y-50317084D01*
X120496528Y-50300695D01*
X120503481Y-50300500D01*
X120547595Y-50300500D01*
X124292366Y-50300500D01*
X124359405Y-50320185D01*
G37*
%TD.AperFunction*%
%TD*%
M02*
