M48
; DRILL file {KiCad 8.0.6} date 2025-01-23T17:56:38+0100
; FORMAT={-:-/ absolute / metric / decimal}
; #@! TF.CreationDate,2025-01-23T17:56:38+01:00
; #@! TF.GenerationSoftware,Kicad,Pcbnew,8.0.6
; #@! TF.FileFunction,NonPlated,1,4,NPTH
FMAT,2
METRIC
; #@! TA.AperFunction,NonPlated,NPTH,ComponentDrill
T1C0.970
; #@! TA.AperFunction,NonPlated,NPTH,ComponentDrill
T2C1.780
; #@! TA.AperFunction,NonPlated,NPTH,ComponentDrill
T3C2.700
%
G90
G05
T1
X125.87Y-77.23
X125.87Y-79.77
X128.41Y-77.23
X128.41Y-79.77
X130.95Y-77.23
X130.95Y-79.77
X133.49Y-77.23
X133.49Y-79.77
X136.03Y-77.23
X136.03Y-79.77
X138.57Y-77.23
X138.57Y-79.77
X141.11Y-77.23
X141.11Y-79.77
X143.65Y-77.23
X143.65Y-79.77
X146.19Y-77.23
X146.19Y-79.77
X148.73Y-77.23
X148.73Y-79.77
X151.27Y-77.23
X151.27Y-79.77
X153.81Y-77.23
X153.81Y-79.77
X156.35Y-77.23
X156.35Y-79.77
X158.89Y-77.23
X158.89Y-79.77
X161.43Y-77.23
X161.43Y-79.77
X163.97Y-77.23
X163.97Y-79.77
X166.51Y-77.23
X166.51Y-79.77
X169.05Y-77.23
X169.05Y-79.77
X171.59Y-77.23
X171.59Y-79.77
X174.13Y-77.23
X174.13Y-79.77
T2
X127.14Y-78.5
X172.86Y-78.5
T3
X121.0Y-78.5
X121.0Y-101.5
X179.0Y-78.5
X179.0Y-101.5
M30
