%TF.GenerationSoftware,KiCad,Pcbnew,8.0.4*%
%TF.CreationDate,2024-09-21T11:57:22+02:00*%
%TF.ProjectId,soleil_powerpack,736f6c65-696c-45f7-906f-776572706163,rev?*%
%TF.SameCoordinates,Original*%
%TF.FileFunction,Soldermask,Top*%
%TF.FilePolarity,Negative*%
%FSLAX46Y46*%
G04 Gerber Fmt 4.6, Leading zero omitted, Abs format (unit mm)*
G04 Created by KiCad (PCBNEW 8.0.4) date 2024-09-21 11:57:22*
%MOMM*%
%LPD*%
G01*
G04 APERTURE LIST*
G04 Aperture macros list*
%AMRoundRect*
0 Rectangle with rounded corners*
0 $1 Rounding radius*
0 $2 $3 $4 $5 $6 $7 $8 $9 X,Y pos of 4 corners*
0 Add a 4 corners polygon primitive as box body*
4,1,4,$2,$3,$4,$5,$6,$7,$8,$9,$2,$3,0*
0 Add four circle primitives for the rounded corners*
1,1,$1+$1,$2,$3*
1,1,$1+$1,$4,$5*
1,1,$1+$1,$6,$7*
1,1,$1+$1,$8,$9*
0 Add four rect primitives between the rounded corners*
20,1,$1+$1,$2,$3,$4,$5,0*
20,1,$1+$1,$4,$5,$6,$7,0*
20,1,$1+$1,$6,$7,$8,$9,0*
20,1,$1+$1,$8,$9,$2,$3,0*%
%AMFreePoly0*
4,1,19,0.000000,0.744911,0.071157,0.744911,0.207708,0.704816,0.327430,0.627875,0.420627,0.520320,0.479746,0.390866,0.500000,0.250000,0.500000,-0.250000,0.479746,-0.390866,0.420627,-0.520320,0.327430,-0.627875,0.207708,-0.704816,0.071157,-0.744911,0.000000,-0.744911,0.000000,-0.750000,-0.500000,-0.750000,-0.500000,0.750000,0.000000,0.750000,0.000000,0.744911,0.000000,0.744911,
$1*%
%AMFreePoly1*
4,1,19,0.500000,-0.750000,0.000000,-0.750000,0.000000,-0.744911,-0.071157,-0.744911,-0.207708,-0.704816,-0.327430,-0.627875,-0.420627,-0.520320,-0.479746,-0.390866,-0.500000,-0.250000,-0.500000,0.250000,-0.479746,0.390866,-0.420627,0.520320,-0.327430,0.627875,-0.207708,0.704816,-0.071157,0.744911,0.000000,0.744911,0.000000,0.750000,0.500000,0.750000,0.500000,-0.750000,0.500000,-0.750000,
$1*%
G04 Aperture macros list end*
%ADD10RoundRect,0.135000X-0.185000X0.135000X-0.185000X-0.135000X0.185000X-0.135000X0.185000X0.135000X0*%
%ADD11RoundRect,0.135000X0.185000X-0.135000X0.185000X0.135000X-0.185000X0.135000X-0.185000X-0.135000X0*%
%ADD12C,5.100000*%
%ADD13R,1.100000X0.600000*%
%ADD14RoundRect,0.140000X0.170000X-0.140000X0.170000X0.140000X-0.170000X0.140000X-0.170000X-0.140000X0*%
%ADD15RoundRect,0.150000X0.150000X0.200000X-0.150000X0.200000X-0.150000X-0.200000X0.150000X-0.200000X0*%
%ADD16FreePoly0,0.000000*%
%ADD17FreePoly1,0.000000*%
%ADD18O,1.300000X1.050000*%
%ADD19RoundRect,0.249900X-0.400100X0.275100X-0.400100X-0.275100X0.400100X-0.275100X0.400100X0.275100X0*%
%ADD20RoundRect,0.140000X-0.140000X-0.170000X0.140000X-0.170000X0.140000X0.170000X-0.140000X0.170000X0*%
%ADD21RoundRect,0.147500X0.147500X0.172500X-0.147500X0.172500X-0.147500X-0.172500X0.147500X-0.172500X0*%
%ADD22RoundRect,0.250000X0.475000X-0.250000X0.475000X0.250000X-0.475000X0.250000X-0.475000X-0.250000X0*%
%ADD23RoundRect,0.135000X-0.135000X-0.185000X0.135000X-0.185000X0.135000X0.185000X-0.135000X0.185000X0*%
%ADD24RoundRect,0.140000X-0.170000X0.140000X-0.170000X-0.140000X0.170000X-0.140000X0.170000X0.140000X0*%
%ADD25C,0.970000*%
%ADD26C,1.780000*%
%ADD27R,1.270000X1.680000*%
%ADD28R,1.270000X1.500000*%
%ADD29R,1.360000X1.460000*%
%ADD30R,0.750000X0.300000*%
%ADD31RoundRect,0.250000X-0.475000X0.250000X-0.475000X-0.250000X0.475000X-0.250000X0.475000X0.250000X0*%
%ADD32R,2.413000X3.429000*%
%ADD33RoundRect,0.150000X-0.150000X-0.200000X0.150000X-0.200000X0.150000X0.200000X-0.150000X0.200000X0*%
%ADD34RoundRect,0.050000X0.285000X0.100000X-0.285000X0.100000X-0.285000X-0.100000X0.285000X-0.100000X0*%
%ADD35RoundRect,0.093750X-0.106250X0.093750X-0.106250X-0.093750X0.106250X-0.093750X0.106250X0.093750X0*%
%ADD36R,1.600000X1.000000*%
%ADD37R,1.300000X1.500000*%
%ADD38RoundRect,0.140000X0.140000X0.170000X-0.140000X0.170000X-0.140000X-0.170000X0.140000X-0.170000X0*%
%ADD39RoundRect,0.135000X0.135000X0.185000X-0.135000X0.185000X-0.135000X-0.185000X0.135000X-0.185000X0*%
%ADD40O,1.100000X1.700000*%
%ADD41RoundRect,0.200000X-0.200000X-0.400000X0.200000X-0.400000X0.200000X0.400000X-0.200000X0.400000X0*%
%ADD42RoundRect,0.190000X-0.190000X-0.410000X0.190000X-0.410000X0.190000X0.410000X-0.190000X0.410000X0*%
%ADD43RoundRect,0.175000X0.175000X0.425000X-0.175000X0.425000X-0.175000X-0.425000X0.175000X-0.425000X0*%
%ADD44RoundRect,0.200000X0.200000X0.400000X-0.200000X0.400000X-0.200000X-0.400000X0.200000X-0.400000X0*%
%ADD45RoundRect,0.190000X0.190000X0.410000X-0.190000X0.410000X-0.190000X-0.410000X0.190000X-0.410000X0*%
%ADD46RoundRect,0.175000X-0.175000X-0.425000X0.175000X-0.425000X0.175000X0.425000X-0.175000X0.425000X0*%
%ADD47R,1.800000X1.040000*%
%ADD48R,0.304800X0.254000*%
%ADD49FreePoly0,90.000000*%
%ADD50FreePoly1,90.000000*%
%ADD51R,0.700000X0.250000*%
%ADD52R,0.254000X0.711200*%
%ADD53R,0.711200X0.254000*%
%ADD54FreePoly1,180.000000*%
%ADD55FreePoly0,180.000000*%
%ADD56R,1.000000X0.900000*%
%ADD57RoundRect,0.250001X-0.499999X-1.449999X0.499999X-1.449999X0.499999X1.449999X-0.499999X1.449999X0*%
%ADD58RoundRect,0.250000X-0.250000X-1.500000X0.250000X-1.500000X0.250000X1.500000X-0.250000X1.500000X0*%
%ADD59C,0.345000*%
%ADD60R,0.203200X0.660400*%
%ADD61R,1.500000X0.900000*%
G04 APERTURE END LIST*
D10*
%TO.C,R21*%
X160250000Y-61760000D03*
X160250000Y-60740000D03*
%TD*%
D11*
%TO.C,R20*%
X155000000Y-64010000D03*
X155000000Y-62990000D03*
%TD*%
D12*
%TO.C,H3*%
X179000000Y-53500000D03*
%TD*%
%TO.C,H2*%
X121000000Y-53500000D03*
%TD*%
%TO.C,H1*%
X121000000Y-76500000D03*
%TD*%
D13*
%TO.C,Y1*%
X162000000Y-60550000D03*
X162000000Y-61950000D03*
%TD*%
D14*
%TO.C,C23*%
X146000000Y-60980000D03*
X146000000Y-60020000D03*
%TD*%
D15*
%TO.C,D3*%
X157700000Y-69250000D03*
X156300000Y-69250000D03*
%TD*%
D16*
%TO.C,JP1*%
X179650000Y-62500000D03*
D17*
X178350000Y-62500000D03*
%TD*%
D18*
%TO.C,U5*%
X119700000Y-65770000D03*
X119700000Y-64500000D03*
D19*
X119700000Y-63230000D03*
%TD*%
D14*
%TO.C,C24*%
X124500000Y-74980000D03*
X124500000Y-74020000D03*
%TD*%
D20*
%TO.C,C17*%
X139230000Y-66500000D03*
X138270000Y-66500000D03*
%TD*%
D21*
%TO.C,D2*%
X119265000Y-58250000D03*
X120235000Y-58250000D03*
%TD*%
D22*
%TO.C,C14*%
X125000000Y-76550000D03*
X125000000Y-78450000D03*
%TD*%
D11*
%TO.C,R17*%
X143000000Y-61010000D03*
X143000000Y-59990000D03*
%TD*%
D23*
%TO.C,R13*%
X139260000Y-60500000D03*
X138240000Y-60500000D03*
%TD*%
D24*
%TO.C,C7*%
X149250000Y-63980000D03*
X149250000Y-63020000D03*
%TD*%
D25*
%TO.C,J2*%
X125870000Y-52230000D03*
X125870000Y-54770000D03*
D26*
X127140000Y-53500000D03*
D25*
X128410000Y-52230000D03*
X128410000Y-54770000D03*
X130950000Y-52230000D03*
X130950000Y-54770000D03*
X133490000Y-52230000D03*
X133490000Y-54770000D03*
X136030000Y-52230000D03*
X136030000Y-54770000D03*
X138570000Y-52230000D03*
X138570000Y-54770000D03*
X141110000Y-52230000D03*
X141110000Y-54770000D03*
X143650000Y-52230000D03*
X143650000Y-54770000D03*
X146190000Y-52230000D03*
X146190000Y-54770000D03*
X148730000Y-52230000D03*
X148730000Y-54770000D03*
X151270000Y-52230000D03*
X151270000Y-54770000D03*
X153810000Y-52230000D03*
X153810000Y-54770000D03*
X156350000Y-52230000D03*
X156350000Y-54770000D03*
X158890000Y-52230000D03*
X158890000Y-54770000D03*
X161430000Y-52230000D03*
X161430000Y-54770000D03*
X163970000Y-52230000D03*
X163970000Y-54770000D03*
X166510000Y-52230000D03*
X166510000Y-54770000D03*
X169050000Y-52230000D03*
X169050000Y-54770000D03*
X171590000Y-52230000D03*
X171590000Y-54770000D03*
D26*
X172860000Y-53500000D03*
D25*
X174130000Y-52230000D03*
X174130000Y-54770000D03*
D27*
X125870000Y-56220000D03*
D28*
X125870000Y-50860000D03*
D27*
X128410000Y-56220000D03*
D28*
X128410000Y-50860000D03*
D27*
X130950000Y-56220000D03*
D28*
X130950000Y-50860000D03*
D27*
X133490000Y-56220000D03*
D28*
X133490000Y-50860000D03*
D27*
X136030000Y-56220000D03*
D28*
X136030000Y-50860000D03*
D27*
X138570000Y-56220000D03*
D28*
X138570000Y-50860000D03*
D27*
X141110000Y-56220000D03*
D28*
X141110000Y-50860000D03*
D27*
X143650000Y-56220000D03*
D28*
X143650000Y-50860000D03*
D27*
X146190000Y-56220000D03*
D28*
X146190000Y-50860000D03*
D27*
X148730000Y-56220000D03*
D28*
X148730000Y-50860000D03*
D27*
X151270000Y-56220000D03*
D28*
X151270000Y-50860000D03*
D27*
X153810000Y-56220000D03*
D28*
X153810000Y-50860000D03*
D27*
X156350000Y-56220000D03*
D28*
X156350000Y-50860000D03*
D27*
X158890000Y-56220000D03*
D28*
X158890000Y-50860000D03*
D27*
X161430000Y-56220000D03*
D28*
X161430000Y-50860000D03*
D27*
X163970000Y-56220000D03*
D28*
X163970000Y-50860000D03*
D27*
X166510000Y-56220000D03*
D28*
X166510000Y-50860000D03*
D27*
X169050000Y-56220000D03*
D28*
X169050000Y-50860000D03*
D27*
X171590000Y-56220000D03*
D28*
X171590000Y-50860000D03*
D27*
X174130000Y-56220000D03*
D28*
X174130000Y-50860000D03*
%TD*%
D29*
%TO.C,U1*%
X166250000Y-61250000D03*
D30*
X167750000Y-60500000D03*
X167750000Y-61000000D03*
X167750000Y-61500000D03*
X167750000Y-62000000D03*
X164750000Y-62000000D03*
X164750000Y-61500000D03*
X164750000Y-61000000D03*
X164750000Y-60500000D03*
%TD*%
D11*
%TO.C,R1*%
X128410000Y-58240000D03*
X128410000Y-59260000D03*
%TD*%
D31*
%TO.C,C13*%
X137000000Y-78450000D03*
X137000000Y-76550000D03*
%TD*%
D23*
%TO.C,R8*%
X133260000Y-61250000D03*
X132240000Y-61250000D03*
%TD*%
D32*
%TO.C,L1*%
X128079000Y-72000000D03*
X133921000Y-72000000D03*
%TD*%
D33*
%TO.C,D1*%
X164050000Y-71000000D03*
X165450000Y-71000000D03*
%TD*%
D23*
%TO.C,R5*%
X130010000Y-65750000D03*
X128990000Y-65750000D03*
%TD*%
D34*
%TO.C,U3*%
X150760000Y-64250000D03*
X150760000Y-63750000D03*
X150760000Y-63250000D03*
X150760000Y-62750000D03*
X152240000Y-62750000D03*
X152240000Y-63250000D03*
X152240000Y-63750000D03*
X152240000Y-64250000D03*
%TD*%
D31*
%TO.C,C12*%
X134500000Y-78450000D03*
X134500000Y-76550000D03*
%TD*%
D20*
%TO.C,C2*%
X166730000Y-63500000D03*
X165770000Y-63500000D03*
%TD*%
D15*
%TO.C,D4*%
X145200000Y-69000000D03*
X143800000Y-69000000D03*
%TD*%
D35*
%TO.C,U8*%
X157650000Y-62612500D03*
X157000000Y-62612500D03*
X156350000Y-62612500D03*
X156350000Y-64387500D03*
X157000000Y-64387500D03*
X157650000Y-64387500D03*
D36*
X157000000Y-63500000D03*
%TD*%
D11*
%TO.C,R16*%
X143000000Y-67010000D03*
X143000000Y-65990000D03*
%TD*%
D12*
%TO.C,H4*%
X179000000Y-76500000D03*
%TD*%
D37*
%TO.C,U4*%
X166250000Y-67250000D03*
D30*
X167700000Y-66500000D03*
X167700000Y-67000000D03*
X167700000Y-67500000D03*
X167700000Y-68000000D03*
X164800000Y-68000000D03*
X164800000Y-67500000D03*
X164800000Y-67000000D03*
X164800000Y-66500000D03*
%TD*%
D20*
%TO.C,C16*%
X135950000Y-66500000D03*
X136910000Y-66500000D03*
%TD*%
D38*
%TO.C,C6*%
X129020000Y-61250000D03*
X129980000Y-61250000D03*
%TD*%
D23*
%TO.C,R4*%
X170510000Y-71000000D03*
X169490000Y-71000000D03*
%TD*%
D39*
%TO.C,R7*%
X121740000Y-58250000D03*
X122760000Y-58250000D03*
%TD*%
D24*
%TO.C,C11*%
X121500000Y-64210000D03*
X121500000Y-63250000D03*
%TD*%
D38*
%TO.C,C9*%
X151020000Y-65750000D03*
X151980000Y-65750000D03*
%TD*%
D40*
%TO.C,J1*%
X173320000Y-77300000D03*
X173320000Y-73500000D03*
X164680000Y-77300000D03*
X164680000Y-73500000D03*
D41*
X166250000Y-73420000D03*
D42*
X167480000Y-73420000D03*
D43*
X169500000Y-73420000D03*
D44*
X171750000Y-73420000D03*
D45*
X170520000Y-73420000D03*
D46*
X168500000Y-73420000D03*
%TD*%
D38*
%TO.C,C19*%
X157480000Y-65750000D03*
X156520000Y-65750000D03*
%TD*%
D24*
%TO.C,C21*%
X144500000Y-66020000D03*
X144500000Y-66980000D03*
%TD*%
%TO.C,C20*%
X159250000Y-63020000D03*
X159250000Y-63980000D03*
%TD*%
D39*
%TO.C,R15*%
X156260000Y-61250000D03*
X155240000Y-61250000D03*
%TD*%
D38*
%TO.C,C10*%
X165770000Y-65000000D03*
X166730000Y-65000000D03*
%TD*%
D47*
%TO.C,U2*%
X131000000Y-63500000D03*
D48*
X130249999Y-62649100D03*
X130750000Y-62649100D03*
X131250000Y-62649100D03*
X131750001Y-62649100D03*
X131750001Y-64350900D03*
X131250000Y-64350900D03*
X130750000Y-64350900D03*
X130249999Y-64350900D03*
%TD*%
D49*
%TO.C,JP4*%
X136750000Y-71350000D03*
D50*
X136750000Y-72650000D03*
%TD*%
D11*
%TO.C,R2*%
X130950000Y-58240000D03*
X130950000Y-59260000D03*
%TD*%
D51*
%TO.C,U6*%
X131000000Y-77546700D03*
X131000000Y-77046700D03*
D52*
X130750000Y-76293400D03*
X131250000Y-76293400D03*
D53*
X132003300Y-76546699D03*
X132003300Y-77046700D03*
X132003300Y-77546700D03*
X132003300Y-78046701D03*
D52*
X131250000Y-78300000D03*
X130750000Y-78300000D03*
D53*
X129996700Y-78046701D03*
X129996700Y-77546700D03*
X129996700Y-77046700D03*
X129996700Y-76546699D03*
%TD*%
D17*
%TO.C,JP3*%
X178350000Y-67500000D03*
D16*
X179650000Y-67500000D03*
%TD*%
D39*
%TO.C,R14*%
X158760000Y-61250000D03*
X157740000Y-61250000D03*
%TD*%
D20*
%TO.C,C18*%
X136910000Y-60500000D03*
X135950000Y-60500000D03*
%TD*%
D22*
%TO.C,C15*%
X127500000Y-76550000D03*
X127500000Y-78450000D03*
%TD*%
D14*
%TO.C,C5*%
X129000000Y-63020000D03*
X129000000Y-63980000D03*
%TD*%
D21*
%TO.C,D5*%
X119265000Y-59750000D03*
X120235000Y-59750000D03*
%TD*%
D11*
%TO.C,R9*%
X125750000Y-73990000D03*
X125750000Y-75010000D03*
%TD*%
D24*
%TO.C,C22*%
X146000000Y-66020000D03*
X146000000Y-66980000D03*
%TD*%
D54*
%TO.C,JP2*%
X179650000Y-65000000D03*
D55*
X178350000Y-65000000D03*
%TD*%
D56*
%TO.C,SW1*%
X121400000Y-68450000D03*
X121400000Y-72550000D03*
X119800000Y-68450000D03*
X119800000Y-72550000D03*
%TD*%
D57*
%TO.C,J4*%
X147850000Y-78200000D03*
X141150000Y-78200000D03*
D58*
X145500000Y-72450000D03*
X143500000Y-72450000D03*
%TD*%
D59*
%TO.C,U9*%
X144000000Y-63000000D03*
X144500000Y-63000000D03*
X145000000Y-63000000D03*
X144000000Y-63500000D03*
X144500000Y-63500000D03*
X145000000Y-63500000D03*
X144000000Y-64000000D03*
X144500000Y-64000000D03*
X145000000Y-64000000D03*
%TD*%
D39*
%TO.C,R18*%
X121740000Y-59750000D03*
X122760000Y-59750000D03*
%TD*%
D20*
%TO.C,C4*%
X162480000Y-63500000D03*
X161520000Y-63500000D03*
%TD*%
D24*
%TO.C,C8*%
X153500000Y-63980000D03*
X153500000Y-63020000D03*
%TD*%
D57*
%TO.C,J3*%
X160350000Y-78200000D03*
X153650000Y-78200000D03*
D58*
X158000000Y-72450000D03*
X156000000Y-72450000D03*
%TD*%
D39*
%TO.C,R3*%
X167490000Y-71000000D03*
X168510000Y-71000000D03*
%TD*%
D11*
%TO.C,R19*%
X144500000Y-61010000D03*
X144500000Y-59990000D03*
%TD*%
%TO.C,R10*%
X125750000Y-71490000D03*
X125750000Y-72510000D03*
%TD*%
D38*
%TO.C,C3*%
X165770000Y-59000000D03*
X166730000Y-59000000D03*
%TD*%
D20*
%TO.C,C1*%
X162480000Y-59000000D03*
X161520000Y-59000000D03*
%TD*%
D11*
%TO.C,R6*%
X133250000Y-62990000D03*
X133250000Y-64010000D03*
%TD*%
D10*
%TO.C,R11*%
X139250000Y-65060000D03*
X139250000Y-64040000D03*
%TD*%
D60*
%TO.C,U7*%
X135949900Y-64630300D03*
X136349950Y-64630300D03*
X136750000Y-64630300D03*
X137150050Y-64630300D03*
X137550100Y-64630300D03*
X137550100Y-62369700D03*
X137150050Y-62369700D03*
X136750000Y-62369700D03*
X136349950Y-62369700D03*
X135949900Y-62369700D03*
D61*
X136750000Y-63500000D03*
%TD*%
D10*
%TO.C,R12*%
X139250000Y-62810000D03*
X139250000Y-61790000D03*
%TD*%
M02*
