%TF.GenerationSoftware,KiCad,Pcbnew,8.0.4*%
%TF.CreationDate,2024-09-21T11:57:21+02:00*%
%TF.ProjectId,soleil_powerpack,736f6c65-696c-45f7-906f-776572706163,rev?*%
%TF.SameCoordinates,Original*%
%TF.FileFunction,Copper,L3,Inr*%
%TF.FilePolarity,Positive*%
%FSLAX46Y46*%
G04 Gerber Fmt 4.6, Leading zero omitted, Abs format (unit mm)*
G04 Created by KiCad (PCBNEW 8.0.4) date 2024-09-21 11:57:21*
%MOMM*%
%LPD*%
G01*
G04 APERTURE LIST*
G04 Aperture macros list*
%AMRoundRect*
0 Rectangle with rounded corners*
0 $1 Rounding radius*
0 $2 $3 $4 $5 $6 $7 $8 $9 X,Y pos of 4 corners*
0 Add a 4 corners polygon primitive as box body*
4,1,4,$2,$3,$4,$5,$6,$7,$8,$9,$2,$3,0*
0 Add four circle primitives for the rounded corners*
1,1,$1+$1,$2,$3*
1,1,$1+$1,$4,$5*
1,1,$1+$1,$6,$7*
1,1,$1+$1,$8,$9*
0 Add four rect primitives between the rounded corners*
20,1,$1+$1,$2,$3,$4,$5,0*
20,1,$1+$1,$4,$5,$6,$7,0*
20,1,$1+$1,$6,$7,$8,$9,0*
20,1,$1+$1,$8,$9,$2,$3,0*%
G04 Aperture macros list end*
%TA.AperFunction,ComponentPad*%
%ADD10O,1.300000X1.050000*%
%TD*%
%TA.AperFunction,ComponentPad*%
%ADD11RoundRect,0.249900X-0.400100X0.275100X-0.400100X-0.275100X0.400100X-0.275100X0.400100X0.275100X0*%
%TD*%
%TA.AperFunction,HeatsinkPad*%
%ADD12C,0.500000*%
%TD*%
%TA.AperFunction,ComponentPad*%
%ADD13O,1.100000X1.700000*%
%TD*%
%TA.AperFunction,ViaPad*%
%ADD14C,0.500000*%
%TD*%
%TA.AperFunction,ViaPad*%
%ADD15C,0.600000*%
%TD*%
%TA.AperFunction,ViaPad*%
%ADD16C,1.000000*%
%TD*%
%TA.AperFunction,Conductor*%
%ADD17C,0.300000*%
%TD*%
%TA.AperFunction,Conductor*%
%ADD18C,1.000000*%
%TD*%
%TA.AperFunction,Conductor*%
%ADD19C,0.500000*%
%TD*%
%TA.AperFunction,Conductor*%
%ADD20C,0.250000*%
%TD*%
G04 APERTURE END LIST*
D10*
%TO.N,Net-(JP2-A)*%
%TO.C,U5*%
X119700000Y-65770000D03*
%TO.N,GND*%
X119700000Y-64500000D03*
D11*
%TO.N,+4V*%
X119700000Y-63230000D03*
%TD*%
D12*
%TO.N,GND*%
%TO.C,U8*%
X157550000Y-63500000D03*
X156450000Y-63500000D03*
%TD*%
D13*
%TO.N,GND*%
%TO.C,J1*%
X173320000Y-77300000D03*
X173320000Y-73500000D03*
X164680000Y-77300000D03*
X164680000Y-73500000D03*
%TD*%
D14*
%TO.N,/~{RTC_ALARM}*%
X181000000Y-62500000D03*
X172750000Y-61000000D03*
%TO.N,Net-(JP3-B)*%
X181000000Y-67500000D03*
X171250000Y-75750000D03*
%TO.N,Net-(JP2-A)*%
X181000000Y-65000000D03*
X171000000Y-75000000D03*
%TO.N,GND*%
X138503554Y-62246446D03*
%TO.N,/I2C2_SCL*%
X160250000Y-60000000D03*
%TO.N,/I2C2_SDA*%
X155000000Y-64750000D03*
%TO.N,GND*%
X143800000Y-65300000D03*
X142000000Y-66100000D03*
X131500000Y-60600000D03*
X173400000Y-59100000D03*
X175400000Y-59100000D03*
X175400000Y-66200000D03*
X173400000Y-66200000D03*
X173400000Y-63700000D03*
X175400000Y-63700000D03*
X127100000Y-55400000D03*
X129700000Y-55400000D03*
X132200000Y-51400000D03*
X134800000Y-51400000D03*
X142400000Y-51500000D03*
X144900000Y-51500000D03*
X150000000Y-51500000D03*
X152600000Y-51500000D03*
X155100000Y-51500000D03*
X157600000Y-55400000D03*
X157600000Y-51500000D03*
X162700000Y-51500000D03*
X167800000Y-51600000D03*
X167800000Y-55400000D03*
X162700000Y-55400000D03*
X160200000Y-55400000D03*
X152600000Y-55400000D03*
X150000000Y-55400000D03*
X144900000Y-55400000D03*
X142400000Y-55400000D03*
X139800000Y-55400000D03*
X181418750Y-73415000D03*
X181418750Y-71415000D03*
X181418750Y-69415000D03*
X181418750Y-63700000D03*
X181418750Y-61415000D03*
X181400000Y-59100000D03*
X179418750Y-73415000D03*
X179000000Y-59100000D03*
X175418750Y-77415000D03*
X175418750Y-68600000D03*
X175418750Y-53415000D03*
X175418750Y-51415000D03*
X173418750Y-68600000D03*
X171418750Y-77415000D03*
X171418750Y-53415000D03*
X169418750Y-77415000D03*
X169418750Y-69415000D03*
X167418750Y-77415000D03*
X165418750Y-55415000D03*
X163418750Y-77415000D03*
X161418750Y-71415000D03*
X161418750Y-65415000D03*
X159418750Y-73415000D03*
X159418750Y-71415000D03*
X159418750Y-59415000D03*
X157418750Y-77415000D03*
X157418750Y-59415000D03*
X155418750Y-77415000D03*
X155418750Y-59415000D03*
X153418750Y-73415000D03*
X153418750Y-71415000D03*
X153418750Y-69415000D03*
X153418750Y-59415000D03*
X151418750Y-77415000D03*
X151418750Y-73415000D03*
X151418750Y-71415000D03*
X151418750Y-69415000D03*
X151418750Y-59415000D03*
X149418750Y-77415000D03*
X149418750Y-73415000D03*
X149418750Y-71415000D03*
X149418750Y-69415000D03*
X147418750Y-73415000D03*
X147418750Y-71415000D03*
X147418750Y-69415000D03*
X147418750Y-61415000D03*
X147418750Y-55415000D03*
X145418750Y-77415000D03*
X143418750Y-77415000D03*
X139418750Y-77415000D03*
X139418750Y-75415000D03*
X139418750Y-73415000D03*
X137418750Y-55415000D03*
X137418750Y-51415000D03*
X131418750Y-73415000D03*
X131418750Y-67415000D03*
X131418750Y-53415000D03*
X129418750Y-53415000D03*
X127418750Y-69415000D03*
X125418750Y-69415000D03*
X125418750Y-67415000D03*
X125418750Y-61415000D03*
X125418750Y-53415000D03*
X123418750Y-71415000D03*
X123418750Y-69415000D03*
X123418750Y-67415000D03*
X123418750Y-61415000D03*
X121418750Y-67415000D03*
X121418750Y-61415000D03*
X121400000Y-56500000D03*
X119418750Y-61415000D03*
X119400000Y-56500000D03*
D15*
%TO.N,+3V3*%
X134000000Y-59750000D03*
X129600000Y-59260000D03*
%TO.N,+5V*%
X127150000Y-50860000D03*
X124750000Y-50850000D03*
X128750000Y-79250000D03*
X123800000Y-79250000D03*
X126250000Y-79250000D03*
X123800000Y-75750000D03*
X126250000Y-75750000D03*
X126250000Y-77500000D03*
X123800000Y-77500000D03*
D14*
%TO.N,GND*%
X124500000Y-73250000D03*
%TO.N,+BATT*%
X164250000Y-64250000D03*
X141750000Y-65000000D03*
%TO.N,/I2C2_SDA*%
X169250000Y-68000000D03*
%TO.N,+3V3*%
X166750000Y-64259999D03*
X169750000Y-60000000D03*
%TO.N,/~{POWER_ON}*%
X177000000Y-67500000D03*
X162500000Y-73500000D03*
%TO.N,GND*%
X158000000Y-70250000D03*
X145500000Y-70250000D03*
%TO.N,/~{POWER_ON}*%
X140500000Y-70000000D03*
X132000000Y-68650000D03*
%TO.N,VBUS*%
X125986091Y-60050000D03*
X140000000Y-60500000D03*
%TO.N,Net-(JP3-B)*%
X128750000Y-69000000D03*
X139000000Y-71250000D03*
%TO.N,Net-(JP2-A)*%
X139750000Y-70650000D03*
X129750000Y-69000000D03*
%TO.N,GND*%
X166250000Y-65900000D03*
X165000000Y-65000000D03*
%TO.N,/I2C2_SDA*%
X169236091Y-66486091D03*
X169250000Y-62500000D03*
%TO.N,/I2C2_SCL*%
X169500000Y-61850000D03*
%TO.N,/I2C2_SDA*%
X144300000Y-61800000D03*
%TO.N,/I2C2_SCL*%
X145000000Y-61800000D03*
X131640000Y-58250000D03*
%TO.N,/I2C2_SDA*%
X129100000Y-58250000D03*
%TO.N,GND*%
X121500000Y-65000000D03*
X127500000Y-77500000D03*
X125000000Y-77500000D03*
X155750000Y-65750000D03*
X154500000Y-61250000D03*
X159250000Y-64750000D03*
X166250000Y-60000000D03*
X163250000Y-59000000D03*
X165000000Y-59000000D03*
X167500000Y-63500000D03*
%TO.N,Net-(U7-STAT2)*%
X128250000Y-64250000D03*
%TO.N,/Power/5V_EN*%
X134000000Y-68050000D03*
X135300000Y-69300000D03*
%TO.N,GND*%
X135250000Y-62750000D03*
%TO.N,+4V*%
X140000000Y-63500000D03*
X135250000Y-63500000D03*
%TO.N,GND*%
X163250000Y-63500000D03*
X125750000Y-70750000D03*
X121400000Y-69300000D03*
X121400000Y-71700000D03*
X129900000Y-50900000D03*
X140100000Y-50900000D03*
X147700000Y-50900000D03*
X160400000Y-50900000D03*
X165500000Y-50900000D03*
X135000000Y-56200000D03*
X155300000Y-56200000D03*
X173100000Y-56200000D03*
X171750000Y-74250000D03*
X166250000Y-74250000D03*
X123500000Y-58250000D03*
X147000000Y-60000000D03*
%TO.N,/Power/BATT_LOW*%
X147000000Y-67000000D03*
X142000000Y-67000000D03*
%TO.N,GND*%
X143000000Y-67750000D03*
X144500000Y-67750000D03*
X146000000Y-67750000D03*
X146000000Y-69000000D03*
D16*
%TO.N,VBUS*%
X159250000Y-67000000D03*
X154750000Y-67000000D03*
D14*
%TO.N,GND*%
X135750000Y-78450000D03*
%TO.N,/Power/5V_EN*%
X136750000Y-74500000D03*
X133000000Y-77550000D03*
%TO.N,Net-(U7-STAT2)*%
X138450000Y-65350000D03*
%TO.N,GND*%
X136910000Y-59770000D03*
X139250000Y-59750000D03*
X136910000Y-67230000D03*
X140000000Y-66500000D03*
X140000000Y-65050000D03*
X140000000Y-62800000D03*
X134000000Y-61250000D03*
X128250000Y-61250000D03*
X128250000Y-63000000D03*
X130000000Y-64980001D03*
X131500000Y-62063174D03*
%TO.N,Net-(D2-A)*%
X133250000Y-62250000D03*
X130686826Y-61250000D03*
%TO.N,GND*%
X142400000Y-64125000D03*
X132000000Y-78750000D03*
%TO.N,Net-(U6-FB)*%
X130750000Y-75500000D03*
X125750000Y-73250000D03*
%TO.N,GND*%
X130000000Y-75500000D03*
X158500000Y-69250000D03*
X163250000Y-71000000D03*
X170500000Y-70000000D03*
X167500000Y-70000000D03*
X153500000Y-64750000D03*
X150250000Y-65750000D03*
X149250000Y-64750000D03*
X152250000Y-62250000D03*
X150750000Y-62250000D03*
%TO.N,Net-(U9-BIN)*%
X143000000Y-65325000D03*
X143000000Y-63500000D03*
%TD*%
D17*
%TO.N,/~{RTC_ALARM}*%
X180500000Y-61500000D02*
X181000000Y-62000000D01*
X181000000Y-62000000D02*
X181000000Y-62500000D01*
X172750000Y-61000000D02*
X180000000Y-61000000D01*
X180000000Y-61000000D02*
X180500000Y-61500000D01*
%TO.N,/~{POWER_ON}*%
X177000000Y-67500000D02*
X177000000Y-70000000D01*
X177000000Y-70000000D02*
X176000000Y-71000000D01*
X165000000Y-71000000D02*
X162500000Y-73500000D01*
X176000000Y-71000000D02*
X165000000Y-71000000D01*
%TO.N,Net-(JP3-B)*%
X171250000Y-75750000D02*
X171550000Y-75450000D01*
X171550000Y-75450000D02*
X174436396Y-75450000D01*
X174436396Y-75450000D02*
X181000000Y-68886396D01*
X181000000Y-68886396D02*
X181000000Y-67500000D01*
%TO.N,Net-(JP2-A)*%
X171000000Y-75000000D02*
X174250000Y-75000000D01*
X174250000Y-75000000D02*
X179500000Y-69750000D01*
X179500000Y-65500000D02*
X180000000Y-65000000D01*
X179500000Y-69750000D02*
X179500000Y-65500000D01*
X180000000Y-65000000D02*
X181000000Y-65000000D01*
%TO.N,VBUS*%
X125986091Y-60050000D02*
X126036091Y-60000000D01*
X126036091Y-60000000D02*
X132000000Y-60000000D01*
X132500000Y-60500000D02*
X140000000Y-60500000D01*
%TO.N,/I2C2_SDA*%
X169250000Y-68000000D02*
X169250000Y-66500000D01*
X169250000Y-66500000D02*
X169236091Y-66486091D01*
%TO.N,/I2C2_SCL*%
X169500000Y-61850000D02*
X160250000Y-61850000D01*
%TO.N,+3V3*%
X169750000Y-60000000D02*
X170550000Y-60800000D01*
X170550000Y-60800000D02*
X170550000Y-62700000D01*
X170550000Y-62700000D02*
X168990001Y-64259999D01*
X168990001Y-64259999D02*
X166750000Y-64259999D01*
%TO.N,/I2C2_SDA*%
X169250000Y-62500000D02*
X156400000Y-62500000D01*
X156400000Y-62500000D02*
X155000000Y-63900000D01*
%TO.N,/I2C2_SCL*%
X160250000Y-61850000D02*
X156150000Y-61850000D01*
X160250000Y-60000000D02*
X160250000Y-61850000D01*
%TO.N,/I2C2_SDA*%
X155000000Y-64750000D02*
X155000000Y-63900000D01*
%TO.N,/Power/5V_EN*%
X135250000Y-69300000D02*
X134000000Y-68050000D01*
X135300000Y-69300000D02*
X135250000Y-69300000D01*
D18*
%TO.N,+5V*%
X124750000Y-50850000D02*
X124100000Y-51500000D01*
X124956497Y-75050000D02*
X126250000Y-76343503D01*
X124100000Y-51500000D02*
X124100000Y-54713351D01*
X122450000Y-56363351D02*
X122450000Y-73600000D01*
X122450000Y-73600000D02*
X123900000Y-75050000D01*
X126250000Y-76343503D02*
X126250000Y-79200000D01*
X124750000Y-50850000D02*
X127140000Y-50850000D01*
X127140000Y-50850000D02*
X127150000Y-50860000D01*
D17*
%TO.N,Net-(JP2-A)*%
X139750000Y-70650000D02*
X134857106Y-70650000D01*
X133457106Y-69250000D02*
X130000000Y-69250000D01*
X130000000Y-69250000D02*
X129750000Y-69000000D01*
%TO.N,+3V3*%
X132650000Y-59500000D02*
X130300000Y-59500000D01*
X134000000Y-59750000D02*
X132900000Y-59750000D01*
X130050000Y-59250000D02*
X129610000Y-59250000D01*
X129610000Y-59250000D02*
X129600000Y-59260000D01*
%TO.N,+BATT*%
X141750000Y-65000000D02*
X142750000Y-66000000D01*
X142750000Y-66000000D02*
X147348529Y-66000000D01*
X161750000Y-68000000D02*
X164250000Y-65500000D01*
X149348529Y-68000000D02*
X161750000Y-68000000D01*
X164250000Y-65500000D02*
X164250000Y-64250000D01*
%TO.N,/Power/BATT_LOW*%
X142500000Y-66500000D02*
X146500000Y-66500000D01*
X142000000Y-67000000D02*
X142500000Y-66500000D01*
X146500000Y-66500000D02*
X147000000Y-67000000D01*
%TO.N,/I2C2_SDA*%
X144300000Y-63050000D02*
X144300000Y-61800000D01*
X155000000Y-63900000D02*
X145150000Y-63900000D01*
%TO.N,/I2C2_SCL*%
X154750000Y-63250000D02*
X145450000Y-63250000D01*
X145000000Y-62800000D02*
X145000000Y-61800000D01*
%TO.N,/~{POWER_ON}*%
X133650000Y-68650000D02*
X135000000Y-70000000D01*
X132000000Y-68650000D02*
X133650000Y-68650000D01*
X135000000Y-70000000D02*
X140500000Y-70000000D01*
%TO.N,Net-(JP3-B)*%
X128750000Y-69000000D02*
X129500000Y-69750000D01*
X129500000Y-69750000D02*
X133250000Y-69750000D01*
X134750000Y-71250000D02*
X139000000Y-71250000D01*
%TO.N,/I2C2_SDA*%
X129100000Y-58250000D02*
X130050000Y-58250000D01*
X130050000Y-58250000D02*
X130800000Y-59000000D01*
X130800000Y-59000000D02*
X143400000Y-59000000D01*
X144300000Y-59900000D02*
X144300000Y-61800000D01*
%TO.N,Net-(U7-STAT2)*%
X138450000Y-65350000D02*
X131600000Y-65350000D01*
X130500000Y-64250000D02*
X128250000Y-64250000D01*
%TO.N,+4V*%
X135250000Y-63500000D02*
X140000000Y-63500000D01*
%TO.N,/Power/5V_EN*%
X136750000Y-74500000D02*
X136750000Y-75900000D01*
X136750000Y-75900000D02*
X135100000Y-77550000D01*
X135100000Y-77550000D02*
X133000000Y-77550000D01*
D19*
%TO.N,VBUS*%
X154750000Y-67000000D02*
X159250000Y-67000000D01*
D20*
%TO.N,Net-(D2-A)*%
X133250000Y-62250000D02*
X132500000Y-62250000D01*
X132500000Y-62250000D02*
X131500000Y-61250000D01*
X131500000Y-61250000D02*
X130686826Y-61250000D01*
D17*
%TO.N,Net-(U6-FB)*%
X129500000Y-73250000D02*
X130750000Y-74500000D01*
X125750000Y-73250000D02*
X129500000Y-73250000D01*
X130750000Y-74500000D02*
X130750000Y-75500000D01*
%TO.N,Net-(U9-BIN)*%
X143000000Y-65325000D02*
X143000000Y-63500000D01*
%TO.N,Net-(U7-STAT2)*%
X131600000Y-65350000D02*
X130500000Y-64250000D01*
%TO.N,/I2C2_SDA*%
X143400000Y-59000000D02*
X144300000Y-59900000D01*
%TO.N,Net-(JP3-B)*%
X133250000Y-69750000D02*
X134750000Y-71250000D01*
%TO.N,/I2C2_SCL*%
X145450000Y-63250000D02*
X145000000Y-62800000D01*
X156150000Y-61850000D02*
X154750000Y-63250000D01*
%TO.N,/I2C2_SDA*%
X145150000Y-63900000D02*
X144300000Y-63050000D01*
%TO.N,+BATT*%
X147348529Y-66000000D02*
X149348529Y-68000000D01*
%TO.N,+3V3*%
X130300000Y-59500000D02*
X130050000Y-59250000D01*
X132900000Y-59750000D02*
X132650000Y-59500000D01*
%TO.N,Net-(JP2-A)*%
X134857106Y-70650000D02*
X133457106Y-69250000D01*
D18*
%TO.N,+5V*%
X123900000Y-75050000D02*
X124956497Y-75050000D01*
X124100000Y-54713351D02*
X122450000Y-56363351D01*
D17*
%TO.N,VBUS*%
X132000000Y-60000000D02*
X132500000Y-60500000D01*
%TO.N,/I2C2_SCL*%
X131640000Y-58250000D02*
X143650000Y-58250000D01*
X143650000Y-58250000D02*
X145000000Y-59600000D01*
X145000000Y-59600000D02*
X145000000Y-61800000D01*
%TD*%
%TA.AperFunction,Conductor*%
%TO.N,GND*%
G36*
X124076520Y-50320185D02*
G01*
X124122275Y-50372989D01*
X124132219Y-50442147D01*
X124103194Y-50505703D01*
X124097162Y-50512181D01*
X123555888Y-51053453D01*
X123555887Y-51053454D01*
X123479222Y-51168192D01*
X123426421Y-51295667D01*
X123426418Y-51295679D01*
X123406839Y-51394112D01*
X123406839Y-51394115D01*
X123399500Y-51431006D01*
X123399500Y-52094483D01*
X123379815Y-52161522D01*
X123327011Y-52207277D01*
X123257853Y-52217221D01*
X123194297Y-52188196D01*
X123170506Y-52160455D01*
X123129053Y-52094483D01*
X123083366Y-52021773D01*
X122904757Y-51797805D01*
X122702195Y-51595243D01*
X122662740Y-51563779D01*
X122645315Y-51549883D01*
X122478227Y-51416634D01*
X122235669Y-51264225D01*
X122235666Y-51264223D01*
X121977579Y-51139935D01*
X121977565Y-51139929D01*
X121707193Y-51045321D01*
X121707181Y-51045317D01*
X121427891Y-50981572D01*
X121427892Y-50981572D01*
X121143237Y-50949500D01*
X121143233Y-50949500D01*
X120856767Y-50949500D01*
X120856762Y-50949500D01*
X120572108Y-50981572D01*
X120292818Y-51045317D01*
X120292806Y-51045321D01*
X120022434Y-51139929D01*
X120022420Y-51139935D01*
X119764333Y-51264223D01*
X119521774Y-51416633D01*
X119297805Y-51595242D01*
X119095242Y-51797805D01*
X118916633Y-52021774D01*
X118764223Y-52264333D01*
X118639935Y-52522420D01*
X118639929Y-52522434D01*
X118545321Y-52792806D01*
X118545317Y-52792818D01*
X118481572Y-53072108D01*
X118449500Y-53356762D01*
X118449500Y-53643237D01*
X118481572Y-53927891D01*
X118545317Y-54207181D01*
X118545321Y-54207193D01*
X118639929Y-54477565D01*
X118639935Y-54477579D01*
X118764223Y-54735666D01*
X118764225Y-54735669D01*
X118916634Y-54978227D01*
X119095243Y-55202195D01*
X119297805Y-55404757D01*
X119521773Y-55583366D01*
X119764331Y-55735775D01*
X120022428Y-55860068D01*
X120112558Y-55891606D01*
X120292806Y-55954678D01*
X120292818Y-55954682D01*
X120572102Y-56018426D01*
X120572105Y-56018426D01*
X120572108Y-56018427D01*
X120572107Y-56018427D01*
X120714434Y-56034463D01*
X120856763Y-56050499D01*
X120856764Y-56050500D01*
X120856767Y-56050500D01*
X121143236Y-56050500D01*
X121143236Y-56050499D01*
X121348815Y-56027336D01*
X121427891Y-56018427D01*
X121427892Y-56018426D01*
X121427898Y-56018426D01*
X121643122Y-55969303D01*
X121712860Y-55973576D01*
X121769217Y-56014875D01*
X121794300Y-56080087D01*
X121785275Y-56137645D01*
X121776420Y-56159023D01*
X121776418Y-56159028D01*
X121749500Y-56294355D01*
X121749500Y-56294358D01*
X121749500Y-73531006D01*
X121749500Y-73668994D01*
X121749500Y-73668996D01*
X121749499Y-73668996D01*
X121776418Y-73804322D01*
X121776421Y-73804332D01*
X121802039Y-73866180D01*
X121809508Y-73935650D01*
X121778232Y-73998129D01*
X121718143Y-74033781D01*
X121659886Y-74034523D01*
X121427891Y-73981572D01*
X121427892Y-73981572D01*
X121143237Y-73949500D01*
X121143233Y-73949500D01*
X120856767Y-73949500D01*
X120856762Y-73949500D01*
X120572108Y-73981572D01*
X120292818Y-74045317D01*
X120292806Y-74045321D01*
X120022434Y-74139929D01*
X120022420Y-74139935D01*
X119764333Y-74264223D01*
X119521774Y-74416633D01*
X119297805Y-74595242D01*
X119095242Y-74797805D01*
X118916633Y-75021774D01*
X118764223Y-75264333D01*
X118639935Y-75522420D01*
X118639929Y-75522434D01*
X118545321Y-75792806D01*
X118545317Y-75792818D01*
X118481572Y-76072108D01*
X118449500Y-76356762D01*
X118449500Y-76643237D01*
X118481572Y-76927891D01*
X118545317Y-77207181D01*
X118545321Y-77207193D01*
X118639929Y-77477565D01*
X118639935Y-77477579D01*
X118764223Y-77735666D01*
X118764225Y-77735669D01*
X118916634Y-77978227D01*
X119021695Y-78109969D01*
X119065448Y-78164834D01*
X119095243Y-78202195D01*
X119297805Y-78404757D01*
X119521773Y-78583366D01*
X119764331Y-78735775D01*
X120022428Y-78860068D01*
X120022434Y-78860070D01*
X120292806Y-78954678D01*
X120292818Y-78954682D01*
X120572102Y-79018426D01*
X120572105Y-79018426D01*
X120572108Y-79018427D01*
X120572107Y-79018427D01*
X120714434Y-79034463D01*
X120856763Y-79050499D01*
X120856764Y-79050500D01*
X120856767Y-79050500D01*
X121143236Y-79050500D01*
X121143236Y-79050499D01*
X121348815Y-79027336D01*
X121427891Y-79018427D01*
X121427892Y-79018426D01*
X121427898Y-79018426D01*
X121707182Y-78954682D01*
X121977572Y-78860068D01*
X122235669Y-78735775D01*
X122478227Y-78583366D01*
X122702195Y-78404757D01*
X122904757Y-78202195D01*
X123073554Y-77990529D01*
X123130741Y-77950391D01*
X123200553Y-77947541D01*
X123260823Y-77982886D01*
X123292416Y-78045205D01*
X123294500Y-78067844D01*
X123294500Y-79240111D01*
X123294352Y-79242179D01*
X123294353Y-79257848D01*
X123294500Y-79259891D01*
X123294500Y-79575500D01*
X123274815Y-79642539D01*
X123222011Y-79688294D01*
X123170500Y-79699500D01*
X120503481Y-79699500D01*
X120496528Y-79699305D01*
X120204703Y-79682916D01*
X120190885Y-79681359D01*
X119906172Y-79632984D01*
X119892615Y-79629890D01*
X119615100Y-79549939D01*
X119601975Y-79545346D01*
X119335165Y-79434830D01*
X119322637Y-79428797D01*
X119069874Y-79289100D01*
X119058100Y-79281702D01*
X118822569Y-79114584D01*
X118811697Y-79105914D01*
X118596357Y-78913475D01*
X118586524Y-78903642D01*
X118547580Y-78860064D01*
X118394085Y-78688302D01*
X118385415Y-78677430D01*
X118218297Y-78441899D01*
X118210899Y-78430125D01*
X118084927Y-78202195D01*
X118071198Y-78177355D01*
X118065172Y-78164841D01*
X117956678Y-77902914D01*
X117954653Y-77898024D01*
X117950060Y-77884899D01*
X117873851Y-77620371D01*
X117870108Y-77607382D01*
X117867015Y-77593827D01*
X117818638Y-77309103D01*
X117817084Y-77295306D01*
X117800695Y-77003472D01*
X117800500Y-76996519D01*
X117800500Y-64249999D01*
X118839699Y-64249999D01*
X118839700Y-64250000D01*
X119419670Y-64250000D01*
X119399925Y-64269745D01*
X119350556Y-64355255D01*
X119325000Y-64450630D01*
X119325000Y-64549370D01*
X119350556Y-64644745D01*
X119399925Y-64730255D01*
X119419670Y-64750000D01*
X118839700Y-64750000D01*
X118888200Y-64867092D01*
X118888206Y-64867103D01*
X118973019Y-64994036D01*
X119061304Y-65082321D01*
X119094789Y-65143644D01*
X119089805Y-65213336D01*
X119061305Y-65257682D01*
X119011471Y-65307516D01*
X119011467Y-65307521D01*
X118932074Y-65426340D01*
X118932069Y-65426349D01*
X118877381Y-65558379D01*
X118877379Y-65558385D01*
X118849500Y-65698542D01*
X118849500Y-65698545D01*
X118849500Y-65841455D01*
X118849500Y-65841457D01*
X118849499Y-65841457D01*
X118877379Y-65981614D01*
X118877381Y-65981620D01*
X118932069Y-66113650D01*
X118932074Y-66113659D01*
X119011467Y-66232478D01*
X119011470Y-66232482D01*
X119112517Y-66333529D01*
X119112521Y-66333532D01*
X119231340Y-66412925D01*
X119231349Y-66412930D01*
X119246646Y-66419266D01*
X119363380Y-66467619D01*
X119363384Y-66467619D01*
X119363385Y-66467620D01*
X119503542Y-66495500D01*
X119503545Y-66495500D01*
X119896457Y-66495500D01*
X119990751Y-66476742D01*
X120036620Y-66467619D01*
X120168653Y-66412929D01*
X120287479Y-66333532D01*
X120388532Y-66232479D01*
X120467929Y-66113653D01*
X120522619Y-65981620D01*
X120550500Y-65841455D01*
X120550500Y-65698545D01*
X120550500Y-65698542D01*
X120522620Y-65558385D01*
X120522619Y-65558384D01*
X120522619Y-65558380D01*
X120467929Y-65426347D01*
X120467928Y-65426346D01*
X120467925Y-65426340D01*
X120388532Y-65307521D01*
X120388529Y-65307517D01*
X120338695Y-65257683D01*
X120305210Y-65196360D01*
X120310194Y-65126668D01*
X120338695Y-65082320D01*
X120426981Y-64994033D01*
X120511793Y-64867103D01*
X120511799Y-64867092D01*
X120560300Y-64750000D01*
X119980330Y-64750000D01*
X120000075Y-64730255D01*
X120049444Y-64644745D01*
X120075000Y-64549370D01*
X120075000Y-64450630D01*
X120049444Y-64355255D01*
X120000075Y-64269745D01*
X119980330Y-64250000D01*
X120560300Y-64250000D01*
X120560300Y-64249999D01*
X120511799Y-64132907D01*
X120511793Y-64132896D01*
X120426980Y-64005963D01*
X120422867Y-64001850D01*
X120389382Y-63940527D01*
X120394366Y-63870835D01*
X120417311Y-63835134D01*
X120416660Y-63834654D01*
X120422178Y-63827178D01*
X120502803Y-63717935D01*
X120547646Y-63589780D01*
X120550500Y-63559346D01*
X120550500Y-62900654D01*
X120547646Y-62870220D01*
X120502803Y-62742065D01*
X120422178Y-62632822D01*
X120337728Y-62570495D01*
X120312934Y-62552196D01*
X120184779Y-62507353D01*
X120154350Y-62504500D01*
X120154346Y-62504500D01*
X119245654Y-62504500D01*
X119245650Y-62504500D01*
X119215220Y-62507353D01*
X119087065Y-62552196D01*
X118977822Y-62632822D01*
X118897196Y-62742065D01*
X118852353Y-62870220D01*
X118849500Y-62900650D01*
X118849500Y-63559349D01*
X118852353Y-63589779D01*
X118897196Y-63717934D01*
X118897197Y-63717935D01*
X118975846Y-63824501D01*
X118983340Y-63834654D01*
X118982095Y-63835572D01*
X119010619Y-63887822D01*
X119005629Y-63957513D01*
X118977137Y-64001846D01*
X118973017Y-64005966D01*
X118888207Y-64132894D01*
X118888200Y-64132907D01*
X118839699Y-64249999D01*
X117800500Y-64249999D01*
X117800500Y-53003480D01*
X117800695Y-52996527D01*
X117801332Y-52985185D01*
X117817084Y-52704691D01*
X117818638Y-52690898D01*
X117867015Y-52406167D01*
X117870109Y-52392615D01*
X117879650Y-52359500D01*
X117950061Y-52115096D01*
X117954653Y-52101975D01*
X118065175Y-51835151D01*
X118071195Y-51822651D01*
X118210902Y-51569868D01*
X118218297Y-51558100D01*
X118221999Y-51552883D01*
X118385422Y-51322559D01*
X118394077Y-51311705D01*
X118586534Y-51096346D01*
X118596346Y-51086534D01*
X118811705Y-50894077D01*
X118822559Y-50885422D01*
X119058105Y-50718293D01*
X119069868Y-50710902D01*
X119322651Y-50571195D01*
X119335151Y-50565175D01*
X119601979Y-50454651D01*
X119615096Y-50450061D01*
X119892621Y-50370107D01*
X119906167Y-50367015D01*
X120190898Y-50318638D01*
X120204691Y-50317084D01*
X120496528Y-50300695D01*
X120503481Y-50300500D01*
X120547595Y-50300500D01*
X124009481Y-50300500D01*
X124076520Y-50320185D01*
G37*
%TD.AperFunction*%
%TA.AperFunction,Conductor*%
G36*
X179503472Y-50300695D02*
G01*
X179795306Y-50317084D01*
X179809103Y-50318638D01*
X180093827Y-50367015D01*
X180107382Y-50370108D01*
X180246141Y-50410084D01*
X180384899Y-50450060D01*
X180398025Y-50454653D01*
X180664841Y-50565172D01*
X180677355Y-50571198D01*
X180843444Y-50662992D01*
X180930125Y-50710899D01*
X180941899Y-50718297D01*
X181177430Y-50885415D01*
X181188302Y-50894085D01*
X181378804Y-51064328D01*
X181403642Y-51086524D01*
X181413473Y-51096355D01*
X181477668Y-51168189D01*
X181605914Y-51311697D01*
X181614584Y-51322569D01*
X181781702Y-51558100D01*
X181789100Y-51569874D01*
X181928797Y-51822637D01*
X181934830Y-51835165D01*
X182045346Y-52101975D01*
X182049939Y-52115100D01*
X182129890Y-52392615D01*
X182132984Y-52406172D01*
X182181359Y-52690885D01*
X182182916Y-52704703D01*
X182199305Y-52996527D01*
X182199500Y-53003480D01*
X182199500Y-76996519D01*
X182199305Y-77003472D01*
X182182916Y-77295296D01*
X182181359Y-77309114D01*
X182132984Y-77593827D01*
X182129890Y-77607384D01*
X182049939Y-77884899D01*
X182045346Y-77898024D01*
X181934830Y-78164834D01*
X181928797Y-78177362D01*
X181789100Y-78430125D01*
X181781702Y-78441899D01*
X181614584Y-78677430D01*
X181605914Y-78688302D01*
X181413475Y-78903642D01*
X181403642Y-78913475D01*
X181188302Y-79105914D01*
X181177430Y-79114584D01*
X180941899Y-79281702D01*
X180930125Y-79289100D01*
X180677362Y-79428797D01*
X180664834Y-79434830D01*
X180398024Y-79545346D01*
X180384899Y-79549939D01*
X180107384Y-79629890D01*
X180093827Y-79632984D01*
X179809114Y-79681359D01*
X179795296Y-79682916D01*
X179503472Y-79699305D01*
X179496519Y-79699500D01*
X131829500Y-79699500D01*
X131762461Y-79679815D01*
X131716706Y-79627011D01*
X131705500Y-79575500D01*
X131705500Y-77849006D01*
X131705500Y-77849000D01*
X131702970Y-77816856D01*
X131698125Y-77786263D01*
X131697352Y-77781713D01*
X131661408Y-77697617D01*
X131625444Y-77648117D01*
X131601203Y-77620372D01*
X131601202Y-77620371D01*
X131522694Y-77573464D01*
X131464504Y-77554557D01*
X131435731Y-77550000D01*
X132544867Y-77550000D01*
X132563302Y-77678225D01*
X132612624Y-77786222D01*
X132617118Y-77796063D01*
X132701951Y-77893967D01*
X132810931Y-77964004D01*
X132875239Y-77982886D01*
X132935225Y-78000499D01*
X132935227Y-78000500D01*
X132935228Y-78000500D01*
X133064771Y-78000500D01*
X133064772Y-78000500D01*
X133115507Y-77985602D01*
X133139447Y-77982150D01*
X133139352Y-77981193D01*
X133145405Y-77980588D01*
X133145414Y-77980588D01*
X133530949Y-77903382D01*
X133530950Y-77903381D01*
X133533285Y-77902914D01*
X133557633Y-77900500D01*
X135146142Y-77900500D01*
X135146144Y-77900500D01*
X135235288Y-77876614D01*
X135315212Y-77830470D01*
X136224479Y-76921202D01*
X163880000Y-76921202D01*
X163880000Y-77050000D01*
X164380000Y-77050000D01*
X164380000Y-77550000D01*
X163880000Y-77550000D01*
X163880000Y-77678797D01*
X163910741Y-77833343D01*
X163910743Y-77833351D01*
X163971047Y-77978939D01*
X163971052Y-77978948D01*
X164058598Y-78109969D01*
X164058601Y-78109973D01*
X164170026Y-78221398D01*
X164170034Y-78221404D01*
X164301047Y-78308944D01*
X164301065Y-78308954D01*
X164429999Y-78362360D01*
X164430000Y-78362360D01*
X164430000Y-77766988D01*
X164439940Y-77784205D01*
X164495795Y-77840060D01*
X164564204Y-77879556D01*
X164640504Y-77900000D01*
X164719496Y-77900000D01*
X164795796Y-77879556D01*
X164864205Y-77840060D01*
X164920060Y-77784205D01*
X164930000Y-77766988D01*
X164930000Y-78362360D01*
X165058934Y-78308954D01*
X165058952Y-78308944D01*
X165189965Y-78221404D01*
X165189973Y-78221398D01*
X165301398Y-78109973D01*
X165301401Y-78109969D01*
X165388947Y-77978948D01*
X165388952Y-77978939D01*
X165449256Y-77833351D01*
X165449258Y-77833343D01*
X165479999Y-77678797D01*
X165480000Y-77678794D01*
X165480000Y-77550000D01*
X164980000Y-77550000D01*
X164980000Y-77050000D01*
X165480000Y-77050000D01*
X165480000Y-76921206D01*
X165479999Y-76921202D01*
X172520000Y-76921202D01*
X172520000Y-77050000D01*
X173020000Y-77050000D01*
X173020000Y-77550000D01*
X172520000Y-77550000D01*
X172520000Y-77678797D01*
X172550741Y-77833343D01*
X172550743Y-77833351D01*
X172611047Y-77978939D01*
X172611052Y-77978948D01*
X172698598Y-78109969D01*
X172698601Y-78109973D01*
X172810026Y-78221398D01*
X172810034Y-78221404D01*
X172941047Y-78308944D01*
X172941065Y-78308954D01*
X173069999Y-78362360D01*
X173070000Y-78362360D01*
X173070000Y-77766988D01*
X173079940Y-77784205D01*
X173135795Y-77840060D01*
X173204204Y-77879556D01*
X173280504Y-77900000D01*
X173359496Y-77900000D01*
X173435796Y-77879556D01*
X173504205Y-77840060D01*
X173560060Y-77784205D01*
X173570000Y-77766988D01*
X173570000Y-78362360D01*
X173698934Y-78308954D01*
X173698952Y-78308944D01*
X173829965Y-78221404D01*
X173829973Y-78221398D01*
X173941398Y-78109973D01*
X173941401Y-78109969D01*
X174028947Y-77978948D01*
X174028952Y-77978939D01*
X174089256Y-77833351D01*
X174089258Y-77833343D01*
X174119999Y-77678797D01*
X174120000Y-77678794D01*
X174120000Y-77550000D01*
X173620000Y-77550000D01*
X173620000Y-77050000D01*
X174120000Y-77050000D01*
X174120000Y-76921206D01*
X174119999Y-76921202D01*
X174089258Y-76766656D01*
X174089256Y-76766648D01*
X174028952Y-76621060D01*
X174028947Y-76621051D01*
X173941401Y-76490030D01*
X173941398Y-76490026D01*
X173829973Y-76378601D01*
X173829969Y-76378598D01*
X173797289Y-76356762D01*
X176449500Y-76356762D01*
X176449500Y-76643237D01*
X176481572Y-76927891D01*
X176545317Y-77207181D01*
X176545321Y-77207193D01*
X176639929Y-77477565D01*
X176639935Y-77477579D01*
X176764223Y-77735666D01*
X176764225Y-77735669D01*
X176916634Y-77978227D01*
X177021695Y-78109969D01*
X177065448Y-78164834D01*
X177095243Y-78202195D01*
X177297805Y-78404757D01*
X177521773Y-78583366D01*
X177764331Y-78735775D01*
X178022428Y-78860068D01*
X178022434Y-78860070D01*
X178292806Y-78954678D01*
X178292818Y-78954682D01*
X178572102Y-79018426D01*
X178572105Y-79018426D01*
X178572108Y-79018427D01*
X178572107Y-79018427D01*
X178714434Y-79034463D01*
X178856763Y-79050499D01*
X178856764Y-79050500D01*
X178856767Y-79050500D01*
X179143236Y-79050500D01*
X179143236Y-79050499D01*
X179348815Y-79027336D01*
X179427891Y-79018427D01*
X179427892Y-79018426D01*
X179427898Y-79018426D01*
X179707182Y-78954682D01*
X179977572Y-78860068D01*
X180235669Y-78735775D01*
X180478227Y-78583366D01*
X180702195Y-78404757D01*
X180904757Y-78202195D01*
X181083366Y-77978227D01*
X181235775Y-77735669D01*
X181360068Y-77477572D01*
X181454682Y-77207182D01*
X181518426Y-76927898D01*
X181519181Y-76921202D01*
X181531452Y-76812287D01*
X181550500Y-76643233D01*
X181550500Y-76356767D01*
X181523284Y-76115214D01*
X181518427Y-76072108D01*
X181510023Y-76035288D01*
X181454682Y-75792818D01*
X181432865Y-75730470D01*
X181389850Y-75607540D01*
X181360068Y-75522428D01*
X181235775Y-75264331D01*
X181083366Y-75021773D01*
X180904757Y-74797805D01*
X180702195Y-74595243D01*
X180478227Y-74416634D01*
X180299857Y-74304557D01*
X180235666Y-74264223D01*
X179977579Y-74139935D01*
X179977565Y-74139929D01*
X179707193Y-74045321D01*
X179707181Y-74045317D01*
X179427891Y-73981572D01*
X179427892Y-73981572D01*
X179143237Y-73949500D01*
X179143233Y-73949500D01*
X178856767Y-73949500D01*
X178856762Y-73949500D01*
X178572108Y-73981572D01*
X178292818Y-74045317D01*
X178292806Y-74045321D01*
X178022434Y-74139929D01*
X178022420Y-74139935D01*
X177764333Y-74264223D01*
X177521774Y-74416633D01*
X177297805Y-74595242D01*
X177095242Y-74797805D01*
X176916633Y-75021774D01*
X176764223Y-75264333D01*
X176639935Y-75522420D01*
X176639929Y-75522434D01*
X176545321Y-75792806D01*
X176545317Y-75792818D01*
X176481572Y-76072108D01*
X176449500Y-76356762D01*
X173797289Y-76356762D01*
X173698948Y-76291052D01*
X173698938Y-76291047D01*
X173570000Y-76237639D01*
X173570000Y-76833011D01*
X173560060Y-76815795D01*
X173504205Y-76759940D01*
X173435796Y-76720444D01*
X173359496Y-76700000D01*
X173280504Y-76700000D01*
X173204204Y-76720444D01*
X173135795Y-76759940D01*
X173079940Y-76815795D01*
X173070000Y-76833011D01*
X173070000Y-76237639D01*
X173069999Y-76237639D01*
X172941061Y-76291047D01*
X172941051Y-76291052D01*
X172810030Y-76378598D01*
X172810026Y-76378601D01*
X172698601Y-76490026D01*
X172698598Y-76490030D01*
X172611052Y-76621051D01*
X172611047Y-76621060D01*
X172550743Y-76766648D01*
X172550741Y-76766656D01*
X172520000Y-76921202D01*
X165479999Y-76921202D01*
X165449258Y-76766656D01*
X165449256Y-76766648D01*
X165388952Y-76621060D01*
X165388947Y-76621051D01*
X165301401Y-76490030D01*
X165301398Y-76490026D01*
X165189973Y-76378601D01*
X165189969Y-76378598D01*
X165058948Y-76291052D01*
X165058938Y-76291047D01*
X164930000Y-76237639D01*
X164930000Y-76833011D01*
X164920060Y-76815795D01*
X164864205Y-76759940D01*
X164795796Y-76720444D01*
X164719496Y-76700000D01*
X164640504Y-76700000D01*
X164564204Y-76720444D01*
X164495795Y-76759940D01*
X164439940Y-76815795D01*
X164430000Y-76833011D01*
X164430000Y-76237639D01*
X164429999Y-76237639D01*
X164301061Y-76291047D01*
X164301051Y-76291052D01*
X164170030Y-76378598D01*
X164170026Y-76378601D01*
X164058601Y-76490026D01*
X164058598Y-76490030D01*
X163971052Y-76621051D01*
X163971047Y-76621060D01*
X163910743Y-76766648D01*
X163910741Y-76766656D01*
X163880000Y-76921202D01*
X136224479Y-76921202D01*
X137030469Y-76115212D01*
X137076614Y-76035288D01*
X137079303Y-76025253D01*
X137100500Y-75946144D01*
X137100500Y-75057632D01*
X137102914Y-75033286D01*
X137109580Y-75000000D01*
X170544867Y-75000000D01*
X170563302Y-75128225D01*
X170617117Y-75246061D01*
X170617118Y-75246063D01*
X170701951Y-75343967D01*
X170795731Y-75404236D01*
X170841485Y-75457038D01*
X170851429Y-75526196D01*
X170841486Y-75560060D01*
X170813302Y-75621774D01*
X170794867Y-75750000D01*
X170813302Y-75878225D01*
X170844320Y-75946144D01*
X170867118Y-75996063D01*
X170951951Y-76093967D01*
X171060931Y-76164004D01*
X171185225Y-76200499D01*
X171185227Y-76200500D01*
X171185228Y-76200500D01*
X171314773Y-76200500D01*
X171314773Y-76200499D01*
X171439069Y-76164004D01*
X171548049Y-76093967D01*
X171632882Y-75996063D01*
X171686697Y-75878226D01*
X171686697Y-75878225D01*
X171689089Y-75872988D01*
X171734844Y-75820184D01*
X171801883Y-75800500D01*
X174482538Y-75800500D01*
X174482540Y-75800500D01*
X174571684Y-75776614D01*
X174651608Y-75730470D01*
X181280470Y-69101608D01*
X181326614Y-69021684D01*
X181350500Y-68932540D01*
X181350500Y-68840252D01*
X181350500Y-67829683D01*
X181370185Y-67762644D01*
X181380780Y-67748487D01*
X181382882Y-67746063D01*
X181436697Y-67628226D01*
X181455133Y-67500000D01*
X181436697Y-67371774D01*
X181382882Y-67253937D01*
X181298049Y-67156033D01*
X181189069Y-67085996D01*
X181189065Y-67085994D01*
X181189064Y-67085994D01*
X181064774Y-67049500D01*
X181064772Y-67049500D01*
X180935228Y-67049500D01*
X180935226Y-67049500D01*
X180810935Y-67085994D01*
X180810932Y-67085995D01*
X180810931Y-67085996D01*
X180759677Y-67118934D01*
X180701950Y-67156033D01*
X180617118Y-67253937D01*
X180617117Y-67253938D01*
X180563302Y-67371774D01*
X180544867Y-67500000D01*
X180563302Y-67628225D01*
X180617116Y-67746059D01*
X180617118Y-67746063D01*
X180619212Y-67748480D01*
X180620540Y-67751388D01*
X180621913Y-67753524D01*
X180621606Y-67753721D01*
X180648237Y-67812032D01*
X180649500Y-67829683D01*
X180649500Y-68689852D01*
X180629815Y-68756891D01*
X180613181Y-68777533D01*
X180062181Y-69328533D01*
X180000858Y-69362018D01*
X179931166Y-69357034D01*
X179875233Y-69315162D01*
X179850816Y-69249698D01*
X179850500Y-69240852D01*
X179850500Y-65696544D01*
X179870185Y-65629505D01*
X179886819Y-65608863D01*
X180108863Y-65386819D01*
X180170186Y-65353334D01*
X180196544Y-65350500D01*
X180675707Y-65350500D01*
X180742746Y-65370185D01*
X180810928Y-65414003D01*
X180810933Y-65414005D01*
X180935225Y-65450499D01*
X180935227Y-65450500D01*
X180935228Y-65450500D01*
X181064773Y-65450500D01*
X181064773Y-65450499D01*
X181189069Y-65414004D01*
X181298049Y-65343967D01*
X181382882Y-65246063D01*
X181436697Y-65128226D01*
X181455133Y-65000000D01*
X181436697Y-64871774D01*
X181382882Y-64753937D01*
X181298049Y-64656033D01*
X181189069Y-64585996D01*
X181189065Y-64585994D01*
X181189064Y-64585994D01*
X181064774Y-64549500D01*
X181064772Y-64549500D01*
X180935228Y-64549500D01*
X180935226Y-64549500D01*
X180810933Y-64585994D01*
X180810928Y-64585996D01*
X180742746Y-64629815D01*
X180675707Y-64649500D01*
X179953856Y-64649500D01*
X179864712Y-64673386D01*
X179864709Y-64673387D01*
X179784791Y-64719527D01*
X179784786Y-64719531D01*
X179219531Y-65284786D01*
X179219529Y-65284789D01*
X179206405Y-65307521D01*
X179179956Y-65353334D01*
X179179757Y-65353678D01*
X179179755Y-65353680D01*
X179173387Y-65364709D01*
X179173386Y-65364711D01*
X179173386Y-65364712D01*
X179150400Y-65450499D01*
X179149500Y-65453856D01*
X179149500Y-69553456D01*
X179129815Y-69620495D01*
X179113181Y-69641137D01*
X174141137Y-74613181D01*
X174079814Y-74646666D01*
X174053456Y-74649500D01*
X173897369Y-74649500D01*
X173830330Y-74629815D01*
X173784575Y-74577011D01*
X173774631Y-74507853D01*
X173803656Y-74444297D01*
X173828481Y-74422396D01*
X173829971Y-74421400D01*
X173941398Y-74309973D01*
X173941401Y-74309969D01*
X174028947Y-74178948D01*
X174028952Y-74178939D01*
X174089256Y-74033351D01*
X174089258Y-74033343D01*
X174119999Y-73878797D01*
X174120000Y-73878794D01*
X174120000Y-73750000D01*
X173620000Y-73750000D01*
X173620000Y-73250000D01*
X174120000Y-73250000D01*
X174120000Y-73121206D01*
X174119999Y-73121202D01*
X174089258Y-72966656D01*
X174089256Y-72966648D01*
X174028952Y-72821060D01*
X174028947Y-72821051D01*
X173941401Y-72690030D01*
X173941398Y-72690026D01*
X173829973Y-72578601D01*
X173829969Y-72578598D01*
X173698948Y-72491052D01*
X173698938Y-72491047D01*
X173570000Y-72437639D01*
X173570000Y-73033011D01*
X173560060Y-73015795D01*
X173504205Y-72959940D01*
X173435796Y-72920444D01*
X173359496Y-72900000D01*
X173280504Y-72900000D01*
X173204204Y-72920444D01*
X173135795Y-72959940D01*
X173079940Y-73015795D01*
X173070000Y-73033011D01*
X173070000Y-72437639D01*
X173069999Y-72437639D01*
X172941061Y-72491047D01*
X172941051Y-72491052D01*
X172810030Y-72578598D01*
X172810026Y-72578601D01*
X172698601Y-72690026D01*
X172698598Y-72690030D01*
X172611052Y-72821051D01*
X172611047Y-72821060D01*
X172550743Y-72966648D01*
X172550741Y-72966656D01*
X172520000Y-73121202D01*
X172520000Y-73250000D01*
X173020000Y-73250000D01*
X173020000Y-73750000D01*
X172520000Y-73750000D01*
X172520000Y-73878797D01*
X172550741Y-74033343D01*
X172550743Y-74033351D01*
X172611047Y-74178939D01*
X172611052Y-74178948D01*
X172698598Y-74309969D01*
X172698601Y-74309973D01*
X172810028Y-74421400D01*
X172811519Y-74422396D01*
X172812123Y-74423119D01*
X172814738Y-74425265D01*
X172814331Y-74425760D01*
X172856326Y-74476007D01*
X172865035Y-74545332D01*
X172834882Y-74608360D01*
X172775440Y-74645081D01*
X172742631Y-74649500D01*
X171324293Y-74649500D01*
X171257254Y-74629815D01*
X171189071Y-74585996D01*
X171189066Y-74585994D01*
X171064774Y-74549500D01*
X171064772Y-74549500D01*
X170935228Y-74549500D01*
X170935226Y-74549500D01*
X170810935Y-74585994D01*
X170810932Y-74585995D01*
X170810931Y-74585996D01*
X170776132Y-74608360D01*
X170701950Y-74656033D01*
X170617118Y-74753937D01*
X170617117Y-74753938D01*
X170563302Y-74871774D01*
X170544867Y-75000000D01*
X137109580Y-75000000D01*
X137135258Y-74871774D01*
X137179125Y-74652715D01*
X137184290Y-74636759D01*
X137184199Y-74636732D01*
X137186695Y-74628229D01*
X137186697Y-74628226D01*
X137205133Y-74500000D01*
X137186697Y-74371774D01*
X137132882Y-74253937D01*
X137048049Y-74156033D01*
X136939069Y-74085996D01*
X136939065Y-74085994D01*
X136939064Y-74085994D01*
X136814774Y-74049500D01*
X136814772Y-74049500D01*
X136685228Y-74049500D01*
X136685226Y-74049500D01*
X136560935Y-74085994D01*
X136560932Y-74085995D01*
X136560931Y-74085996D01*
X136509677Y-74118934D01*
X136451950Y-74156033D01*
X136367118Y-74253937D01*
X136367117Y-74253938D01*
X136313302Y-74371774D01*
X136294867Y-74499999D01*
X136313303Y-74628229D01*
X136315801Y-74636736D01*
X136315710Y-74636762D01*
X136320873Y-74652716D01*
X136383754Y-74966716D01*
X136393821Y-75016983D01*
X136393837Y-75017069D01*
X136397084Y-75033275D01*
X136399500Y-75057632D01*
X136399500Y-75703456D01*
X136379815Y-75770495D01*
X136363181Y-75791137D01*
X134991137Y-77163181D01*
X134929814Y-77196666D01*
X134903456Y-77199500D01*
X133557637Y-77199500D01*
X133533289Y-77197086D01*
X133145407Y-77119409D01*
X133144469Y-77119362D01*
X133142922Y-77119099D01*
X133140897Y-77118846D01*
X133140908Y-77118756D01*
X133115869Y-77114502D01*
X133064772Y-77099500D01*
X132935228Y-77099500D01*
X132935226Y-77099500D01*
X132810935Y-77135994D01*
X132810932Y-77135995D01*
X132810931Y-77135996D01*
X132768630Y-77163181D01*
X132701950Y-77206033D01*
X132617118Y-77303937D01*
X132617117Y-77303938D01*
X132563302Y-77421774D01*
X132544867Y-77550000D01*
X131435731Y-77550000D01*
X131401004Y-77544500D01*
X131401000Y-77544500D01*
X128386482Y-77544500D01*
X128319443Y-77524815D01*
X128298800Y-77508180D01*
X128242870Y-77452249D01*
X128239672Y-77449119D01*
X128236659Y-77446233D01*
X128236655Y-77446230D01*
X128179880Y-77407708D01*
X128179877Y-77407706D01*
X128124228Y-77382291D01*
X128124202Y-77382281D01*
X128089470Y-77370048D01*
X128043753Y-77368928D01*
X127998039Y-77367809D01*
X127998038Y-77367809D01*
X127998037Y-77367809D01*
X127938074Y-77379959D01*
X127902767Y-77390483D01*
X127827485Y-77442411D01*
X127786108Y-77487493D01*
X127771317Y-77509788D01*
X127760847Y-77518595D01*
X127750511Y-77541229D01*
X127750489Y-77541278D01*
X127748666Y-77545264D01*
X127748620Y-77545370D01*
X127715633Y-77617599D01*
X127696553Y-77647287D01*
X127673763Y-77673589D01*
X127647087Y-77696704D01*
X127617819Y-77715513D01*
X127585720Y-77730173D01*
X127567005Y-77735669D01*
X127552336Y-77739976D01*
X127517399Y-77745000D01*
X127482603Y-77745000D01*
X127447666Y-77739976D01*
X127414279Y-77730172D01*
X127382178Y-77715513D01*
X127369980Y-77707674D01*
X127352909Y-77696704D01*
X127326234Y-77673589D01*
X127303445Y-77647288D01*
X127284367Y-77617601D01*
X127269911Y-77585949D01*
X127259967Y-77552086D01*
X127255015Y-77517638D01*
X127255015Y-77482359D01*
X127259967Y-77447909D01*
X127269909Y-77414052D01*
X127284366Y-77382394D01*
X127303441Y-77352712D01*
X127326239Y-77326402D01*
X127352901Y-77303299D01*
X127382177Y-77284484D01*
X127414281Y-77269825D01*
X127421360Y-77267747D01*
X127439388Y-77261532D01*
X127456441Y-77254752D01*
X127525828Y-77209101D01*
X127569093Y-77165836D01*
X127592705Y-77137554D01*
X127626753Y-77052672D01*
X127635095Y-77000000D01*
X127636321Y-76992261D01*
X127636321Y-76992252D01*
X127636324Y-76992240D01*
X127638802Y-76955485D01*
X127616457Y-76866801D01*
X127588680Y-76812284D01*
X127550887Y-76760267D01*
X126936626Y-76146006D01*
X126909746Y-76105777D01*
X126897666Y-76076613D01*
X126886527Y-76049722D01*
X126870775Y-76011692D01*
X126870773Y-76011690D01*
X126870773Y-76011688D01*
X126794114Y-75896961D01*
X126794111Y-75896957D01*
X126785899Y-75888745D01*
X126752414Y-75827422D01*
X126750842Y-75783416D01*
X126751820Y-75776613D01*
X126755647Y-75750000D01*
X126735165Y-75607543D01*
X126716706Y-75567123D01*
X126705500Y-75515611D01*
X126705500Y-74599006D01*
X126705500Y-74599000D01*
X126702970Y-74566856D01*
X126698125Y-74536263D01*
X126697352Y-74531713D01*
X126661408Y-74447617D01*
X126625444Y-74398117D01*
X126601203Y-74370372D01*
X126601202Y-74370371D01*
X126522694Y-74323464D01*
X126464504Y-74304557D01*
X126401004Y-74294500D01*
X126401000Y-74294500D01*
X124186519Y-74294500D01*
X124119480Y-74274815D01*
X124098838Y-74258181D01*
X123186819Y-73346162D01*
X123153334Y-73284839D01*
X123150500Y-73258481D01*
X123150500Y-73250000D01*
X125294867Y-73250000D01*
X125313302Y-73378225D01*
X125367117Y-73496061D01*
X125367118Y-73496063D01*
X125451951Y-73593967D01*
X125560931Y-73664004D01*
X125634496Y-73685604D01*
X125685225Y-73700499D01*
X125685227Y-73700500D01*
X125685228Y-73700500D01*
X125814771Y-73700500D01*
X125814772Y-73700500D01*
X125865507Y-73685602D01*
X125889447Y-73682150D01*
X125889352Y-73681193D01*
X125895405Y-73680588D01*
X125895414Y-73680588D01*
X126280949Y-73603382D01*
X126280950Y-73603381D01*
X126283285Y-73602914D01*
X126307633Y-73600500D01*
X129303456Y-73600500D01*
X129370495Y-73620185D01*
X129391137Y-73636819D01*
X130363181Y-74608863D01*
X130396666Y-74670186D01*
X130399500Y-74696544D01*
X130399500Y-74942367D01*
X130397086Y-74966716D01*
X130396618Y-74969049D01*
X130396618Y-74969051D01*
X130369300Y-75105464D01*
X130320872Y-75347288D01*
X130315709Y-75363241D01*
X130315801Y-75363268D01*
X130313302Y-75371776D01*
X130294867Y-75500000D01*
X130313302Y-75628225D01*
X130347660Y-75703456D01*
X130367118Y-75746063D01*
X130451951Y-75843967D01*
X130560931Y-75914004D01*
X130670396Y-75946145D01*
X130685225Y-75950499D01*
X130685227Y-75950500D01*
X130685228Y-75950500D01*
X130814773Y-75950500D01*
X130814773Y-75950499D01*
X130939069Y-75914004D01*
X131048049Y-75843967D01*
X131132882Y-75746063D01*
X131186697Y-75628226D01*
X131205133Y-75500000D01*
X131186697Y-75371774D01*
X131184198Y-75363263D01*
X131184289Y-75363236D01*
X131179125Y-75347281D01*
X131178461Y-75343967D01*
X131103382Y-74969051D01*
X131103381Y-74969049D01*
X131102914Y-74966715D01*
X131100500Y-74942367D01*
X131100500Y-74453858D01*
X131100500Y-74453856D01*
X131076614Y-74364712D01*
X131073829Y-74359888D01*
X131067831Y-74349499D01*
X131067829Y-74349497D01*
X131036077Y-74294500D01*
X131030470Y-74284788D01*
X130245682Y-73500000D01*
X162044867Y-73500000D01*
X162063302Y-73628225D01*
X162089507Y-73685604D01*
X162117118Y-73746063D01*
X162201951Y-73843967D01*
X162310931Y-73914004D01*
X162435225Y-73950499D01*
X162435227Y-73950500D01*
X162435228Y-73950500D01*
X162564773Y-73950500D01*
X162564773Y-73950499D01*
X162689069Y-73914004D01*
X162798049Y-73843967D01*
X162882882Y-73746063D01*
X162891283Y-73727665D01*
X162904212Y-73706917D01*
X162903916Y-73706720D01*
X162907294Y-73701649D01*
X162907296Y-73701648D01*
X163125316Y-73374440D01*
X163125319Y-73374433D01*
X163126636Y-73372457D01*
X163142142Y-73353538D01*
X163739852Y-72755828D01*
X163801173Y-72722345D01*
X163870865Y-72727329D01*
X163926798Y-72769201D01*
X163951215Y-72834665D01*
X163942093Y-72890963D01*
X163910742Y-72966653D01*
X163910741Y-72966656D01*
X163880000Y-73121202D01*
X163880000Y-73250000D01*
X164380000Y-73250000D01*
X164380000Y-73750000D01*
X163880000Y-73750000D01*
X163880000Y-73878797D01*
X163910741Y-74033343D01*
X163910743Y-74033351D01*
X163971047Y-74178939D01*
X163971052Y-74178948D01*
X164058598Y-74309969D01*
X164058601Y-74309973D01*
X164170026Y-74421398D01*
X164170034Y-74421404D01*
X164301047Y-74508944D01*
X164301065Y-74508954D01*
X164429999Y-74562360D01*
X164430000Y-74562360D01*
X164430000Y-73966988D01*
X164439940Y-73984205D01*
X164495795Y-74040060D01*
X164564204Y-74079556D01*
X164640504Y-74100000D01*
X164719496Y-74100000D01*
X164795796Y-74079556D01*
X164864205Y-74040060D01*
X164920060Y-73984205D01*
X164930000Y-73966988D01*
X164930000Y-74562360D01*
X165058934Y-74508954D01*
X165058952Y-74508944D01*
X165189965Y-74421404D01*
X165189973Y-74421398D01*
X165301398Y-74309973D01*
X165301401Y-74309969D01*
X165388947Y-74178948D01*
X165388952Y-74178939D01*
X165449256Y-74033351D01*
X165449258Y-74033343D01*
X165479999Y-73878797D01*
X165480000Y-73878794D01*
X165480000Y-73750000D01*
X164980000Y-73750000D01*
X164980000Y-73250000D01*
X165480000Y-73250000D01*
X165480000Y-73121206D01*
X165479999Y-73121202D01*
X165449258Y-72966656D01*
X165449256Y-72966648D01*
X165388952Y-72821060D01*
X165388947Y-72821051D01*
X165301401Y-72690030D01*
X165301398Y-72690026D01*
X165189973Y-72578601D01*
X165189969Y-72578598D01*
X165058948Y-72491052D01*
X165058938Y-72491047D01*
X164930000Y-72437639D01*
X164930000Y-73033011D01*
X164920060Y-73015795D01*
X164864205Y-72959940D01*
X164795796Y-72920444D01*
X164719496Y-72900000D01*
X164640504Y-72900000D01*
X164564204Y-72920444D01*
X164495795Y-72959940D01*
X164439940Y-73015795D01*
X164430000Y-73033011D01*
X164430000Y-72437639D01*
X164429999Y-72437639D01*
X164370965Y-72462092D01*
X164301495Y-72469561D01*
X164239016Y-72438286D01*
X164203364Y-72378197D01*
X164205858Y-72308372D01*
X164235830Y-72259851D01*
X165108863Y-71386819D01*
X165170186Y-71353334D01*
X165196544Y-71350500D01*
X176046142Y-71350500D01*
X176046144Y-71350500D01*
X176135288Y-71326614D01*
X176215212Y-71280470D01*
X177280470Y-70215212D01*
X177326614Y-70135288D01*
X177335936Y-70100500D01*
X177335937Y-70100498D01*
X177343218Y-70073321D01*
X177350500Y-70046144D01*
X177350500Y-68057632D01*
X177352914Y-68033286D01*
X177387840Y-67858879D01*
X177429125Y-67652715D01*
X177434290Y-67636759D01*
X177434199Y-67636732D01*
X177436695Y-67628229D01*
X177436697Y-67628226D01*
X177455133Y-67500000D01*
X177436697Y-67371774D01*
X177382882Y-67253937D01*
X177298049Y-67156033D01*
X177189069Y-67085996D01*
X177189065Y-67085994D01*
X177189064Y-67085994D01*
X177064774Y-67049500D01*
X177064772Y-67049500D01*
X176935228Y-67049500D01*
X176935226Y-67049500D01*
X176810935Y-67085994D01*
X176810932Y-67085995D01*
X176810931Y-67085996D01*
X176759677Y-67118934D01*
X176701950Y-67156033D01*
X176617118Y-67253937D01*
X176617117Y-67253938D01*
X176563302Y-67371774D01*
X176544867Y-67499999D01*
X176563303Y-67628229D01*
X176565801Y-67636736D01*
X176565710Y-67636762D01*
X176570873Y-67652716D01*
X176626078Y-67928385D01*
X176643821Y-68016983D01*
X176643837Y-68017069D01*
X176647084Y-68033275D01*
X176649500Y-68057632D01*
X176649500Y-69803456D01*
X176629815Y-69870495D01*
X176613181Y-69891137D01*
X175891137Y-70613181D01*
X175829814Y-70646666D01*
X175803456Y-70649500D01*
X164953856Y-70649500D01*
X164864712Y-70673386D01*
X164864709Y-70673387D01*
X164784791Y-70719527D01*
X164784786Y-70719531D01*
X162646465Y-72857851D01*
X162627541Y-72873361D01*
X162298348Y-73092705D01*
X162294757Y-73095499D01*
X162294583Y-73095276D01*
X162284533Y-73102960D01*
X162201949Y-73156034D01*
X162117118Y-73253937D01*
X162117117Y-73253938D01*
X162063302Y-73371774D01*
X162044867Y-73500000D01*
X130245682Y-73500000D01*
X129715212Y-72969530D01*
X129715211Y-72969529D01*
X129715208Y-72969527D01*
X129635290Y-72923387D01*
X129635289Y-72923386D01*
X129635288Y-72923386D01*
X129546144Y-72899500D01*
X129546143Y-72899500D01*
X126307637Y-72899500D01*
X126283289Y-72897086D01*
X125895407Y-72819409D01*
X125894469Y-72819362D01*
X125892922Y-72819099D01*
X125890897Y-72818846D01*
X125890908Y-72818756D01*
X125865869Y-72814502D01*
X125814772Y-72799500D01*
X125685228Y-72799500D01*
X125685226Y-72799500D01*
X125560935Y-72835994D01*
X125560932Y-72835995D01*
X125560931Y-72835996D01*
X125526924Y-72857851D01*
X125451950Y-72906033D01*
X125367118Y-73003937D01*
X125367117Y-73003938D01*
X125313302Y-73121774D01*
X125294867Y-73250000D01*
X123150500Y-73250000D01*
X123150500Y-69000000D01*
X128294867Y-69000000D01*
X128313302Y-69128225D01*
X128333191Y-69171774D01*
X128367118Y-69246063D01*
X128451951Y-69343967D01*
X128534536Y-69397041D01*
X128546034Y-69405400D01*
X128548349Y-69407295D01*
X128630817Y-69462243D01*
X128672119Y-69489763D01*
X128877540Y-69626636D01*
X128896464Y-69642146D01*
X129284788Y-70030470D01*
X129364712Y-70076614D01*
X129453856Y-70100500D01*
X133053456Y-70100500D01*
X133120495Y-70120185D01*
X133141137Y-70136819D01*
X134469531Y-71465212D01*
X134534788Y-71530469D01*
X134534791Y-71530470D01*
X134534794Y-71530473D01*
X134614706Y-71576611D01*
X134614707Y-71576611D01*
X134614712Y-71576614D01*
X134703856Y-71600500D01*
X138442367Y-71600500D01*
X138466715Y-71602914D01*
X138469050Y-71603381D01*
X138469051Y-71603382D01*
X138854585Y-71680588D01*
X138855512Y-71680635D01*
X138857040Y-71680894D01*
X138859099Y-71681152D01*
X138859087Y-71681242D01*
X138884131Y-71685496D01*
X138935228Y-71700500D01*
X139064773Y-71700500D01*
X139064773Y-71700499D01*
X139189069Y-71664004D01*
X139298049Y-71593967D01*
X139382882Y-71496063D01*
X139436697Y-71378226D01*
X139455133Y-71250000D01*
X139450595Y-71218437D01*
X139460539Y-71149279D01*
X139506294Y-71096476D01*
X139573333Y-71076791D01*
X139597683Y-71079205D01*
X139604585Y-71080588D01*
X139605512Y-71080635D01*
X139607040Y-71080894D01*
X139609099Y-71081152D01*
X139609087Y-71081242D01*
X139634131Y-71085496D01*
X139685228Y-71100500D01*
X139814773Y-71100500D01*
X139814773Y-71100499D01*
X139939069Y-71064004D01*
X140048049Y-70993967D01*
X140132882Y-70896063D01*
X140186697Y-70778226D01*
X140205133Y-70650000D01*
X140193193Y-70566955D01*
X140203137Y-70497798D01*
X140248892Y-70444994D01*
X140315931Y-70425309D01*
X140340278Y-70427722D01*
X140354585Y-70430588D01*
X140355512Y-70430635D01*
X140357040Y-70430894D01*
X140359099Y-70431152D01*
X140359087Y-70431242D01*
X140384131Y-70435496D01*
X140435228Y-70450500D01*
X140564773Y-70450500D01*
X140564773Y-70450499D01*
X140689069Y-70414004D01*
X140798049Y-70343967D01*
X140882882Y-70246063D01*
X140936697Y-70128226D01*
X140955133Y-70000000D01*
X140936697Y-69871774D01*
X140882882Y-69753937D01*
X140798049Y-69656033D01*
X140689069Y-69585996D01*
X140689065Y-69585994D01*
X140689064Y-69585994D01*
X140564774Y-69549500D01*
X140564772Y-69549500D01*
X140435228Y-69549500D01*
X140435226Y-69549500D01*
X140384500Y-69564394D01*
X140360554Y-69567856D01*
X140360649Y-69568806D01*
X140354584Y-69569411D01*
X139966711Y-69647086D01*
X139942363Y-69649500D01*
X135828592Y-69649500D01*
X135761553Y-69629815D01*
X135715798Y-69577011D01*
X135705854Y-69507853D01*
X135715798Y-69473988D01*
X135736697Y-69428225D01*
X135739979Y-69405400D01*
X135755133Y-69300000D01*
X135736697Y-69171774D01*
X135682882Y-69053937D01*
X135598049Y-68956033D01*
X135598048Y-68956032D01*
X135598047Y-68956031D01*
X135487409Y-68884928D01*
X135486379Y-68884412D01*
X135156948Y-68704201D01*
X135128777Y-68683095D01*
X134642148Y-68196466D01*
X134626638Y-68177542D01*
X134460622Y-67928384D01*
X134460622Y-67928385D01*
X134407290Y-67848344D01*
X134406195Y-67846937D01*
X134391273Y-67822312D01*
X134382882Y-67803937D01*
X134298049Y-67706033D01*
X134189069Y-67635996D01*
X134189065Y-67635994D01*
X134189064Y-67635994D01*
X134064774Y-67599500D01*
X134064772Y-67599500D01*
X133935228Y-67599500D01*
X133935226Y-67599500D01*
X133810935Y-67635994D01*
X133810932Y-67635995D01*
X133810931Y-67635996D01*
X133784913Y-67652717D01*
X133701950Y-67706033D01*
X133617118Y-67803937D01*
X133617117Y-67803938D01*
X133563302Y-67921774D01*
X133544867Y-68049999D01*
X133560374Y-68157853D01*
X133550430Y-68227011D01*
X133504675Y-68279815D01*
X133437636Y-68299500D01*
X132557637Y-68299500D01*
X132533289Y-68297086D01*
X132145407Y-68219409D01*
X132144469Y-68219362D01*
X132142922Y-68219099D01*
X132140897Y-68218846D01*
X132140908Y-68218756D01*
X132115869Y-68214502D01*
X132064772Y-68199500D01*
X131935228Y-68199500D01*
X131935226Y-68199500D01*
X131810935Y-68235994D01*
X131810932Y-68235995D01*
X131810931Y-68235996D01*
X131759677Y-68268934D01*
X131701950Y-68306033D01*
X131617118Y-68403937D01*
X131617117Y-68403938D01*
X131563302Y-68521774D01*
X131554069Y-68585996D01*
X131544867Y-68650000D01*
X131559810Y-68753934D01*
X131560374Y-68757853D01*
X131550430Y-68827011D01*
X131504675Y-68879815D01*
X131437636Y-68899500D01*
X130309567Y-68899500D01*
X130242528Y-68879815D01*
X130212440Y-68852587D01*
X130202650Y-68840252D01*
X130095875Y-68705719D01*
X130088469Y-68696906D01*
X130087601Y-68695930D01*
X130086569Y-68695194D01*
X130064880Y-68675458D01*
X130048049Y-68656033D01*
X130048044Y-68656030D01*
X130048042Y-68656028D01*
X129939066Y-68585994D01*
X129814774Y-68549500D01*
X129814772Y-68549500D01*
X129685228Y-68549500D01*
X129685226Y-68549500D01*
X129560935Y-68585994D01*
X129560932Y-68585995D01*
X129560931Y-68585996D01*
X129509677Y-68618934D01*
X129451950Y-68656033D01*
X129367118Y-68753937D01*
X129367116Y-68753939D01*
X129362791Y-68763410D01*
X129317033Y-68816212D01*
X129249993Y-68835893D01*
X129182954Y-68816205D01*
X129137206Y-68763405D01*
X129132882Y-68753937D01*
X129048049Y-68656033D01*
X128939069Y-68585996D01*
X128939065Y-68585994D01*
X128939064Y-68585994D01*
X128814774Y-68549500D01*
X128814772Y-68549500D01*
X128685228Y-68549500D01*
X128685226Y-68549500D01*
X128560935Y-68585994D01*
X128560932Y-68585995D01*
X128560931Y-68585996D01*
X128509677Y-68618934D01*
X128451950Y-68656033D01*
X128367118Y-68753937D01*
X128367117Y-68753938D01*
X128313302Y-68871774D01*
X128294867Y-69000000D01*
X123150500Y-69000000D01*
X123150500Y-64250000D01*
X127794867Y-64250000D01*
X127813302Y-64378225D01*
X127824488Y-64402718D01*
X127867118Y-64496063D01*
X127951951Y-64593967D01*
X128060931Y-64664004D01*
X128168550Y-64695603D01*
X128185225Y-64700499D01*
X128185227Y-64700500D01*
X128185228Y-64700500D01*
X128314771Y-64700500D01*
X128314772Y-64700500D01*
X128365507Y-64685602D01*
X128389447Y-64682150D01*
X128389352Y-64681193D01*
X128395405Y-64680588D01*
X128395414Y-64680588D01*
X128780949Y-64603382D01*
X128780950Y-64603381D01*
X128783285Y-64602914D01*
X128807633Y-64600500D01*
X130303456Y-64600500D01*
X130370495Y-64620185D01*
X130391137Y-64636819D01*
X131384788Y-65630470D01*
X131384789Y-65630471D01*
X131384791Y-65630472D01*
X131405011Y-65642146D01*
X131464712Y-65676614D01*
X131553856Y-65700500D01*
X137892367Y-65700500D01*
X137916715Y-65702914D01*
X137919050Y-65703381D01*
X137919051Y-65703382D01*
X138304585Y-65780588D01*
X138305512Y-65780635D01*
X138307040Y-65780894D01*
X138309099Y-65781152D01*
X138309087Y-65781242D01*
X138334131Y-65785496D01*
X138385228Y-65800500D01*
X138514773Y-65800500D01*
X138514773Y-65800499D01*
X138639069Y-65764004D01*
X138748049Y-65693967D01*
X138832882Y-65596063D01*
X138886697Y-65478226D01*
X138905133Y-65350000D01*
X138886697Y-65221774D01*
X138832882Y-65103937D01*
X138748049Y-65006033D01*
X138738661Y-65000000D01*
X141294867Y-65000000D01*
X141313302Y-65128225D01*
X141320344Y-65143644D01*
X141367118Y-65246063D01*
X141451951Y-65343967D01*
X141534536Y-65397041D01*
X141546034Y-65405400D01*
X141548349Y-65407295D01*
X141617282Y-65453225D01*
X141672119Y-65489763D01*
X141877540Y-65626636D01*
X141896464Y-65642146D01*
X142291782Y-66037464D01*
X142325267Y-66098787D01*
X142320283Y-66168479D01*
X142288380Y-66211630D01*
X142290534Y-66213784D01*
X142146461Y-66357854D01*
X142127538Y-66373363D01*
X141798348Y-66592705D01*
X141794757Y-66595499D01*
X141794583Y-66595276D01*
X141784535Y-66602958D01*
X141766861Y-66614317D01*
X141701949Y-66656034D01*
X141617118Y-66753937D01*
X141617117Y-66753938D01*
X141563302Y-66871774D01*
X141544867Y-67000000D01*
X141563302Y-67128225D01*
X141617116Y-67246058D01*
X141617118Y-67246063D01*
X141701951Y-67343967D01*
X141810931Y-67414004D01*
X141907529Y-67442367D01*
X141935225Y-67450499D01*
X141935227Y-67450500D01*
X141935228Y-67450500D01*
X142064773Y-67450500D01*
X142064773Y-67450499D01*
X142189069Y-67414004D01*
X142298049Y-67343967D01*
X142382882Y-67246063D01*
X142391283Y-67227665D01*
X142404212Y-67206917D01*
X142403916Y-67206720D01*
X142407294Y-67201649D01*
X142407296Y-67201648D01*
X142604459Y-66905741D01*
X142658013Y-66860868D01*
X142707650Y-66850500D01*
X146292349Y-66850500D01*
X146359388Y-66870185D01*
X146395541Y-66905744D01*
X146447481Y-66983698D01*
X146592702Y-67201648D01*
X146593807Y-67203068D01*
X146608728Y-67227693D01*
X146617115Y-67246058D01*
X146617117Y-67246061D01*
X146617118Y-67246063D01*
X146701951Y-67343967D01*
X146810931Y-67414004D01*
X146907529Y-67442367D01*
X146935225Y-67450499D01*
X146935227Y-67450500D01*
X146935228Y-67450500D01*
X147064773Y-67450500D01*
X147064773Y-67450499D01*
X147189069Y-67414004D01*
X147298049Y-67343967D01*
X147382882Y-67246063D01*
X147436697Y-67128226D01*
X147455133Y-67000000D01*
X147441369Y-66904268D01*
X147451313Y-66835110D01*
X147497068Y-66782306D01*
X147564107Y-66762622D01*
X147631147Y-66782307D01*
X147651788Y-66798941D01*
X149133317Y-68280470D01*
X149188795Y-68312500D01*
X149188797Y-68312501D01*
X149213238Y-68326613D01*
X149213240Y-68326613D01*
X149213241Y-68326614D01*
X149302385Y-68350500D01*
X149302387Y-68350500D01*
X161796142Y-68350500D01*
X161796144Y-68350500D01*
X161885288Y-68326614D01*
X161909734Y-68312500D01*
X161965212Y-68280470D01*
X163759591Y-66486091D01*
X168780958Y-66486091D01*
X168799394Y-66614317D01*
X168799971Y-66616283D01*
X168806887Y-66636463D01*
X168869607Y-66901917D01*
X168888930Y-66983698D01*
X168896177Y-67014367D01*
X168899500Y-67042880D01*
X168899500Y-67442367D01*
X168897086Y-67466716D01*
X168896618Y-67469049D01*
X168896618Y-67469051D01*
X168872584Y-67589066D01*
X168820872Y-67847288D01*
X168815709Y-67863241D01*
X168815801Y-67863268D01*
X168813302Y-67871776D01*
X168794867Y-68000000D01*
X168813302Y-68128225D01*
X168867117Y-68246061D01*
X168867118Y-68246063D01*
X168951951Y-68343967D01*
X169060931Y-68414004D01*
X169185225Y-68450499D01*
X169185227Y-68450500D01*
X169185228Y-68450500D01*
X169314773Y-68450500D01*
X169314773Y-68450499D01*
X169439069Y-68414004D01*
X169548049Y-68343967D01*
X169632882Y-68246063D01*
X169686697Y-68128226D01*
X169705133Y-68000000D01*
X169686697Y-67871774D01*
X169684198Y-67863263D01*
X169684289Y-67863236D01*
X169679125Y-67847281D01*
X169670445Y-67803938D01*
X169603382Y-67469051D01*
X169603381Y-67469049D01*
X169602914Y-67466715D01*
X169600500Y-67442367D01*
X169600500Y-67038767D01*
X169603753Y-67014791D01*
X169603128Y-67014683D01*
X169646769Y-66762622D01*
X169670746Y-66624134D01*
X169672395Y-66617049D01*
X169674205Y-66604459D01*
X169674761Y-66600948D01*
X169675362Y-66597479D01*
X169686216Y-66534790D01*
X169686955Y-66529125D01*
X169688431Y-66517816D01*
X169688433Y-66517796D01*
X169688605Y-66515847D01*
X169689030Y-66510121D01*
X169689029Y-66510119D01*
X169689578Y-66502738D01*
X169689861Y-66502759D01*
X169690392Y-66491872D01*
X169691224Y-66486091D01*
X169672788Y-66357865D01*
X169618973Y-66240028D01*
X169534140Y-66142124D01*
X169425160Y-66072087D01*
X169425156Y-66072085D01*
X169425155Y-66072085D01*
X169300865Y-66035591D01*
X169300863Y-66035591D01*
X169171319Y-66035591D01*
X169171317Y-66035591D01*
X169047026Y-66072085D01*
X169047023Y-66072086D01*
X169047022Y-66072087D01*
X169005476Y-66098787D01*
X168938041Y-66142124D01*
X168853209Y-66240028D01*
X168853208Y-66240029D01*
X168799393Y-66357865D01*
X168780958Y-66486091D01*
X163759591Y-66486091D01*
X164530470Y-65715212D01*
X164576614Y-65635288D01*
X164579286Y-65625316D01*
X164600500Y-65546144D01*
X164600500Y-64807632D01*
X164602914Y-64783286D01*
X164623359Y-64681193D01*
X164679125Y-64402715D01*
X164684290Y-64386759D01*
X164684199Y-64386732D01*
X164686695Y-64378229D01*
X164686697Y-64378226D01*
X164703695Y-64259999D01*
X166294867Y-64259999D01*
X166313302Y-64388224D01*
X166367117Y-64506060D01*
X166367118Y-64506062D01*
X166431069Y-64579866D01*
X166446158Y-64597281D01*
X166451951Y-64603966D01*
X166560931Y-64674003D01*
X166651174Y-64700500D01*
X166685225Y-64710498D01*
X166685227Y-64710499D01*
X166685228Y-64710499D01*
X166814771Y-64710499D01*
X166814772Y-64710499D01*
X166865507Y-64695601D01*
X166889447Y-64692149D01*
X166889352Y-64691192D01*
X166895405Y-64690587D01*
X166895414Y-64690587D01*
X167280949Y-64613381D01*
X167280950Y-64613380D01*
X167283285Y-64612913D01*
X167307633Y-64610499D01*
X169036143Y-64610499D01*
X169036145Y-64610499D01*
X169125289Y-64586613D01*
X169136987Y-64579859D01*
X169205213Y-64540469D01*
X170830470Y-62915212D01*
X170876614Y-62835288D01*
X170894234Y-62769530D01*
X170900500Y-62746144D01*
X170900500Y-61000000D01*
X172294867Y-61000000D01*
X172313302Y-61128225D01*
X172365430Y-61242367D01*
X172367118Y-61246063D01*
X172451951Y-61343967D01*
X172560931Y-61414004D01*
X172605230Y-61427011D01*
X172685225Y-61450499D01*
X172685227Y-61450500D01*
X172685228Y-61450500D01*
X172814773Y-61450500D01*
X172814773Y-61450499D01*
X172920712Y-61419394D01*
X172939066Y-61414005D01*
X172939067Y-61414004D01*
X172939069Y-61414004D01*
X172961638Y-61399500D01*
X173007254Y-61370185D01*
X173074293Y-61350500D01*
X179803456Y-61350500D01*
X179870495Y-61370185D01*
X179891137Y-61386819D01*
X180601677Y-62097359D01*
X180635162Y-62158682D01*
X180630178Y-62228374D01*
X180618313Y-62252077D01*
X180617118Y-62253936D01*
X180563302Y-62371774D01*
X180544867Y-62500000D01*
X180563302Y-62628225D01*
X180575447Y-62654818D01*
X180617118Y-62746063D01*
X180701951Y-62843967D01*
X180810931Y-62914004D01*
X180935225Y-62950499D01*
X180935227Y-62950500D01*
X180935228Y-62950500D01*
X181064773Y-62950500D01*
X181064773Y-62950499D01*
X181189069Y-62914004D01*
X181298049Y-62843967D01*
X181382882Y-62746063D01*
X181436697Y-62628226D01*
X181455133Y-62500000D01*
X181436697Y-62371774D01*
X181411689Y-62317014D01*
X181382883Y-62253939D01*
X181382882Y-62253938D01*
X181382882Y-62253937D01*
X181380784Y-62251516D01*
X181379456Y-62248607D01*
X181378089Y-62246480D01*
X181378395Y-62246283D01*
X181351762Y-62187961D01*
X181350500Y-62170317D01*
X181350500Y-61953858D01*
X181350500Y-61953856D01*
X181326614Y-61864712D01*
X181319742Y-61852809D01*
X181280470Y-61784788D01*
X180715212Y-61219530D01*
X180215212Y-60719530D01*
X180215211Y-60719529D01*
X180215208Y-60719527D01*
X180135290Y-60673387D01*
X180135289Y-60673386D01*
X180135288Y-60673386D01*
X180046144Y-60649500D01*
X180046143Y-60649500D01*
X173074293Y-60649500D01*
X173007254Y-60629815D01*
X172939071Y-60585996D01*
X172939066Y-60585994D01*
X172814774Y-60549500D01*
X172814772Y-60549500D01*
X172685228Y-60549500D01*
X172685226Y-60549500D01*
X172560935Y-60585994D01*
X172560932Y-60585995D01*
X172560931Y-60585996D01*
X172509677Y-60618934D01*
X172451950Y-60656033D01*
X172367118Y-60753937D01*
X172367117Y-60753938D01*
X172313302Y-60871774D01*
X172294867Y-61000000D01*
X170900500Y-61000000D01*
X170900500Y-60753856D01*
X170876614Y-60664712D01*
X170869828Y-60652958D01*
X170830470Y-60584788D01*
X170392148Y-60146466D01*
X170376638Y-60127542D01*
X170210622Y-59878384D01*
X170210622Y-59878385D01*
X170157290Y-59798344D01*
X170156195Y-59796937D01*
X170141273Y-59772312D01*
X170132882Y-59753937D01*
X170048049Y-59656033D01*
X169939069Y-59585996D01*
X169939065Y-59585994D01*
X169939064Y-59585994D01*
X169814774Y-59549500D01*
X169814772Y-59549500D01*
X169685228Y-59549500D01*
X169685226Y-59549500D01*
X169560935Y-59585994D01*
X169560932Y-59585995D01*
X169560931Y-59585996D01*
X169527405Y-59607542D01*
X169451950Y-59656033D01*
X169367118Y-59753937D01*
X169367117Y-59753938D01*
X169313302Y-59871774D01*
X169294867Y-60000000D01*
X169313302Y-60128225D01*
X169367117Y-60246061D01*
X169367118Y-60246063D01*
X169451951Y-60343967D01*
X169534536Y-60397041D01*
X169546034Y-60405400D01*
X169548349Y-60407295D01*
X169630817Y-60462243D01*
X169672119Y-60489763D01*
X169877540Y-60626636D01*
X169896464Y-60642146D01*
X170163181Y-60908863D01*
X170196666Y-60970186D01*
X170199500Y-60996544D01*
X170199500Y-61815862D01*
X170189957Y-61848358D01*
X170198238Y-61866490D01*
X170199500Y-61884137D01*
X170199500Y-62503456D01*
X170179815Y-62570495D01*
X170163181Y-62591137D01*
X168881138Y-63873180D01*
X168819815Y-63906665D01*
X168793457Y-63909499D01*
X167307637Y-63909499D01*
X167283289Y-63907085D01*
X166895407Y-63829408D01*
X166894469Y-63829361D01*
X166892922Y-63829098D01*
X166890897Y-63828845D01*
X166890908Y-63828755D01*
X166865869Y-63824501D01*
X166814772Y-63809499D01*
X166685228Y-63809499D01*
X166685226Y-63809499D01*
X166560935Y-63845993D01*
X166560932Y-63845994D01*
X166560931Y-63845995D01*
X166522279Y-63870835D01*
X166451950Y-63916032D01*
X166367118Y-64013936D01*
X166367117Y-64013937D01*
X166313302Y-64131773D01*
X166294867Y-64259999D01*
X164703695Y-64259999D01*
X164705133Y-64250000D01*
X164686697Y-64121774D01*
X164632882Y-64003937D01*
X164548049Y-63906033D01*
X164439069Y-63835996D01*
X164439065Y-63835994D01*
X164439064Y-63835994D01*
X164314774Y-63799500D01*
X164314772Y-63799500D01*
X164185228Y-63799500D01*
X164185226Y-63799500D01*
X164060935Y-63835994D01*
X164060932Y-63835995D01*
X164060931Y-63835996D01*
X164034606Y-63852914D01*
X163951950Y-63906033D01*
X163867118Y-64003937D01*
X163867117Y-64003938D01*
X163813302Y-64121774D01*
X163794867Y-64249999D01*
X163813303Y-64378229D01*
X163815801Y-64386736D01*
X163815710Y-64386762D01*
X163820873Y-64402716D01*
X163891208Y-64753938D01*
X163893821Y-64766983D01*
X163893837Y-64767069D01*
X163897084Y-64783275D01*
X163899500Y-64807632D01*
X163899500Y-65303456D01*
X163879815Y-65370495D01*
X163863181Y-65391137D01*
X161641137Y-67613181D01*
X161579814Y-67646666D01*
X161553456Y-67649500D01*
X159889116Y-67649500D01*
X159822077Y-67629815D01*
X159776322Y-67577011D01*
X159766378Y-67507853D01*
X159787066Y-67455060D01*
X159874817Y-67327931D01*
X159874816Y-67327931D01*
X159874818Y-67327930D01*
X159935140Y-67168872D01*
X159955645Y-67000000D01*
X159935140Y-66831128D01*
X159916624Y-66782306D01*
X159874817Y-66672068D01*
X159821964Y-66595499D01*
X159778183Y-66532071D01*
X159650852Y-66419266D01*
X159650849Y-66419263D01*
X159500226Y-66340210D01*
X159335056Y-66299500D01*
X159164944Y-66299500D01*
X158999772Y-66340210D01*
X158998735Y-66340604D01*
X158986224Y-66344602D01*
X158554861Y-66457658D01*
X158219893Y-66545449D01*
X158188459Y-66549500D01*
X155811540Y-66549500D01*
X155780103Y-66545449D01*
X155739395Y-66534780D01*
X155013785Y-66344606D01*
X155001253Y-66340600D01*
X155000225Y-66340210D01*
X154835056Y-66299500D01*
X154664944Y-66299500D01*
X154499773Y-66340210D01*
X154349150Y-66419263D01*
X154221816Y-66532072D01*
X154125182Y-66672068D01*
X154064860Y-66831125D01*
X154064859Y-66831130D01*
X154044355Y-67000000D01*
X154064859Y-67168869D01*
X154064860Y-67168874D01*
X154125182Y-67327931D01*
X154212934Y-67455060D01*
X154234817Y-67521414D01*
X154217352Y-67589066D01*
X154166084Y-67636536D01*
X154110884Y-67649500D01*
X149545073Y-67649500D01*
X149478034Y-67629815D01*
X149457392Y-67613181D01*
X147563742Y-65719531D01*
X147563737Y-65719527D01*
X147483819Y-65673387D01*
X147483818Y-65673386D01*
X147483817Y-65673386D01*
X147394673Y-65649500D01*
X147394672Y-65649500D01*
X143540009Y-65649500D01*
X143472970Y-65629815D01*
X143427215Y-65577011D01*
X143417271Y-65507853D01*
X143427215Y-65473988D01*
X143436697Y-65453225D01*
X143440561Y-65426349D01*
X143455133Y-65325000D01*
X143436697Y-65196774D01*
X143434198Y-65188263D01*
X143434289Y-65188236D01*
X143429125Y-65172281D01*
X143427467Y-65164004D01*
X143353382Y-64794051D01*
X143353381Y-64794049D01*
X143352914Y-64791715D01*
X143350500Y-64767367D01*
X143350500Y-64057634D01*
X143352914Y-64033286D01*
X143373419Y-63930894D01*
X143429125Y-63652715D01*
X143434290Y-63636759D01*
X143434199Y-63636732D01*
X143436695Y-63628229D01*
X143436697Y-63628226D01*
X143455133Y-63500000D01*
X143436697Y-63371774D01*
X143382882Y-63253937D01*
X143298049Y-63156033D01*
X143189069Y-63085996D01*
X143189065Y-63085994D01*
X143189064Y-63085994D01*
X143064774Y-63049500D01*
X143064772Y-63049500D01*
X142935228Y-63049500D01*
X142935226Y-63049500D01*
X142810935Y-63085994D01*
X142810932Y-63085995D01*
X142810931Y-63085996D01*
X142759677Y-63118934D01*
X142701950Y-63156033D01*
X142617118Y-63253937D01*
X142617117Y-63253938D01*
X142563302Y-63371774D01*
X142544867Y-63499999D01*
X142563303Y-63628229D01*
X142565801Y-63636736D01*
X142565710Y-63636762D01*
X142570873Y-63652716D01*
X142641208Y-64003938D01*
X142643821Y-64016983D01*
X142643837Y-64017069D01*
X142647084Y-64033275D01*
X142649500Y-64057632D01*
X142649500Y-64767367D01*
X142647086Y-64791716D01*
X142646618Y-64794049D01*
X142646618Y-64794051D01*
X142643898Y-64807634D01*
X142591658Y-65068491D01*
X142559192Y-65130360D01*
X142498432Y-65164855D01*
X142428667Y-65161025D01*
X142372048Y-65120085D01*
X142366881Y-65112899D01*
X142210622Y-64878384D01*
X142210622Y-64878385D01*
X142210515Y-64878225D01*
X142163480Y-64807634D01*
X142157290Y-64798344D01*
X142156195Y-64796937D01*
X142141273Y-64772312D01*
X142132882Y-64753937D01*
X142048049Y-64656033D01*
X141939069Y-64585996D01*
X141939065Y-64585994D01*
X141939064Y-64585994D01*
X141814774Y-64549500D01*
X141814772Y-64549500D01*
X141685228Y-64549500D01*
X141685226Y-64549500D01*
X141560935Y-64585994D01*
X141560932Y-64585995D01*
X141560931Y-64585996D01*
X141519047Y-64612913D01*
X141451950Y-64656033D01*
X141367118Y-64753937D01*
X141367117Y-64753938D01*
X141313302Y-64871774D01*
X141294867Y-65000000D01*
X138738661Y-65000000D01*
X138639069Y-64935996D01*
X138639065Y-64935994D01*
X138639064Y-64935994D01*
X138514774Y-64899500D01*
X138514772Y-64899500D01*
X138385228Y-64899500D01*
X138385226Y-64899500D01*
X138334500Y-64914394D01*
X138310554Y-64917856D01*
X138310649Y-64918806D01*
X138304584Y-64919411D01*
X137916711Y-64997086D01*
X137892363Y-64999500D01*
X131796544Y-64999500D01*
X131729505Y-64979815D01*
X131708863Y-64963181D01*
X130715213Y-63969531D01*
X130715208Y-63969527D01*
X130635292Y-63923388D01*
X130635290Y-63923387D01*
X130635288Y-63923386D01*
X130631978Y-63922499D01*
X130631975Y-63922498D01*
X130577131Y-63907803D01*
X130546144Y-63899500D01*
X130546143Y-63899500D01*
X128807637Y-63899500D01*
X128783289Y-63897086D01*
X128395407Y-63819409D01*
X128394469Y-63819362D01*
X128392922Y-63819099D01*
X128390897Y-63818846D01*
X128390908Y-63818756D01*
X128365869Y-63814502D01*
X128314772Y-63799500D01*
X128185228Y-63799500D01*
X128185226Y-63799500D01*
X128060935Y-63835994D01*
X128060932Y-63835995D01*
X128060931Y-63835996D01*
X128034606Y-63852914D01*
X127951950Y-63906033D01*
X127867118Y-64003937D01*
X127867117Y-64003938D01*
X127813302Y-64121774D01*
X127794867Y-64250000D01*
X123150500Y-64250000D01*
X123150500Y-63500000D01*
X134794867Y-63500000D01*
X134813302Y-63628225D01*
X134824488Y-63652718D01*
X134867118Y-63746063D01*
X134951951Y-63843967D01*
X135060931Y-63914004D01*
X135185225Y-63950499D01*
X135185227Y-63950500D01*
X135185228Y-63950500D01*
X135314771Y-63950500D01*
X135314772Y-63950500D01*
X135365507Y-63935602D01*
X135389447Y-63932150D01*
X135389352Y-63931193D01*
X135395405Y-63930588D01*
X135395414Y-63930588D01*
X135780949Y-63853382D01*
X135780950Y-63853381D01*
X135783285Y-63852914D01*
X135807633Y-63850500D01*
X139442367Y-63850500D01*
X139466715Y-63852914D01*
X139469050Y-63853381D01*
X139469051Y-63853382D01*
X139854585Y-63930588D01*
X139855512Y-63930635D01*
X139857040Y-63930894D01*
X139859099Y-63931152D01*
X139859087Y-63931242D01*
X139884131Y-63935496D01*
X139935228Y-63950500D01*
X140064773Y-63950500D01*
X140064773Y-63950499D01*
X140189069Y-63914004D01*
X140298049Y-63843967D01*
X140382882Y-63746063D01*
X140436697Y-63628226D01*
X140455133Y-63500000D01*
X140436697Y-63371774D01*
X140382882Y-63253937D01*
X140298049Y-63156033D01*
X140189069Y-63085996D01*
X140189065Y-63085994D01*
X140189064Y-63085994D01*
X140064774Y-63049500D01*
X140064772Y-63049500D01*
X139935228Y-63049500D01*
X139935226Y-63049500D01*
X139884500Y-63064394D01*
X139860554Y-63067856D01*
X139860649Y-63068806D01*
X139854584Y-63069411D01*
X139466711Y-63147086D01*
X139442363Y-63149500D01*
X135807637Y-63149500D01*
X135783289Y-63147086D01*
X135395407Y-63069409D01*
X135394469Y-63069362D01*
X135392922Y-63069099D01*
X135390897Y-63068846D01*
X135390908Y-63068756D01*
X135365869Y-63064502D01*
X135314772Y-63049500D01*
X135185228Y-63049500D01*
X135185226Y-63049500D01*
X135060935Y-63085994D01*
X135060932Y-63085995D01*
X135060931Y-63085996D01*
X135009677Y-63118934D01*
X134951950Y-63156033D01*
X134867118Y-63253937D01*
X134867117Y-63253938D01*
X134813302Y-63371774D01*
X134794867Y-63500000D01*
X123150500Y-63500000D01*
X123150500Y-61250000D01*
X130231693Y-61250000D01*
X130250128Y-61378225D01*
X130276511Y-61435994D01*
X130303944Y-61496063D01*
X130388777Y-61593967D01*
X130497757Y-61664004D01*
X130622051Y-61700499D01*
X130622053Y-61700500D01*
X130622054Y-61700500D01*
X130751600Y-61700500D01*
X130751600Y-61700499D01*
X130814098Y-61682147D01*
X130841617Y-61677346D01*
X130844429Y-61677178D01*
X131216929Y-61579550D01*
X131248364Y-61575500D01*
X131313811Y-61575500D01*
X131380850Y-61595185D01*
X131401492Y-61611819D01*
X132235194Y-62445520D01*
X132235204Y-62445531D01*
X132239534Y-62449861D01*
X132239535Y-62449862D01*
X132300138Y-62510465D01*
X132346263Y-62537095D01*
X132346264Y-62537096D01*
X132374356Y-62553315D01*
X132374359Y-62553317D01*
X132374361Y-62553317D01*
X132374362Y-62553318D01*
X132457148Y-62575501D01*
X132457150Y-62575501D01*
X132550449Y-62575501D01*
X132550465Y-62575500D01*
X132688461Y-62575500D01*
X132719897Y-62579550D01*
X133092396Y-62677178D01*
X133100437Y-62677944D01*
X133123609Y-62682407D01*
X133151002Y-62690450D01*
X133185227Y-62700500D01*
X133185228Y-62700500D01*
X133314773Y-62700500D01*
X133314773Y-62700499D01*
X133439069Y-62664004D01*
X133548049Y-62593967D01*
X133632882Y-62496063D01*
X133686697Y-62378226D01*
X133705133Y-62250000D01*
X133686697Y-62121774D01*
X133632882Y-62003937D01*
X133548049Y-61906033D01*
X133439069Y-61835996D01*
X133439065Y-61835994D01*
X133439064Y-61835994D01*
X133314774Y-61799500D01*
X133314772Y-61799500D01*
X133185228Y-61799500D01*
X133185225Y-61799500D01*
X133122721Y-61817851D01*
X133095237Y-61822649D01*
X133092406Y-61822819D01*
X133092398Y-61822820D01*
X132925776Y-61866490D01*
X132719893Y-61920449D01*
X132688459Y-61924500D01*
X132686188Y-61924500D01*
X132619149Y-61904815D01*
X132598507Y-61888181D01*
X132160826Y-61450500D01*
X131699862Y-60989535D01*
X131662750Y-60968108D01*
X131625640Y-60946682D01*
X131566716Y-60930894D01*
X131542853Y-60924500D01*
X131542852Y-60924500D01*
X131248368Y-60924500D01*
X131216931Y-60920449D01*
X130844430Y-60822821D01*
X130844419Y-60822819D01*
X130836377Y-60822053D01*
X130813210Y-60817590D01*
X130751600Y-60799500D01*
X130751598Y-60799500D01*
X130622054Y-60799500D01*
X130622052Y-60799500D01*
X130497761Y-60835994D01*
X130497758Y-60835995D01*
X130497757Y-60835996D01*
X130471432Y-60852914D01*
X130388776Y-60906033D01*
X130303944Y-61003937D01*
X130303943Y-61003938D01*
X130250128Y-61121774D01*
X130231693Y-61250000D01*
X123150500Y-61250000D01*
X123150500Y-60050000D01*
X125530958Y-60050000D01*
X125549393Y-60178225D01*
X125580374Y-60246062D01*
X125603209Y-60296063D01*
X125688042Y-60393967D01*
X125797022Y-60464004D01*
X125921316Y-60500499D01*
X125921318Y-60500500D01*
X125921319Y-60500500D01*
X126050862Y-60500500D01*
X126050863Y-60500500D01*
X126128311Y-60477759D01*
X126147859Y-60473697D01*
X126156820Y-60472578D01*
X126505402Y-60356819D01*
X126544482Y-60350500D01*
X131803456Y-60350500D01*
X131870495Y-60370185D01*
X131891137Y-60386819D01*
X132284788Y-60780470D01*
X132364712Y-60826614D01*
X132453856Y-60850500D01*
X132546144Y-60850500D01*
X139442367Y-60850500D01*
X139466715Y-60852914D01*
X139469050Y-60853381D01*
X139469051Y-60853382D01*
X139854585Y-60930588D01*
X139855512Y-60930635D01*
X139857040Y-60930894D01*
X139859099Y-60931152D01*
X139859087Y-60931242D01*
X139884131Y-60935496D01*
X139935228Y-60950500D01*
X140064773Y-60950500D01*
X140064773Y-60950499D01*
X140189069Y-60914004D01*
X140298049Y-60843967D01*
X140382882Y-60746063D01*
X140436697Y-60628226D01*
X140455133Y-60500000D01*
X140436697Y-60371774D01*
X140382882Y-60253937D01*
X140298049Y-60156033D01*
X140189069Y-60085996D01*
X140189065Y-60085994D01*
X140189064Y-60085994D01*
X140064774Y-60049500D01*
X140064772Y-60049500D01*
X139935228Y-60049500D01*
X139935226Y-60049500D01*
X139884500Y-60064394D01*
X139860554Y-60067856D01*
X139860649Y-60068806D01*
X139854584Y-60069411D01*
X139466711Y-60147086D01*
X139442363Y-60149500D01*
X134560725Y-60149500D01*
X134493686Y-60129815D01*
X134447931Y-60077011D01*
X134437987Y-60007853D01*
X134447931Y-59973989D01*
X134471776Y-59921774D01*
X134485165Y-59892457D01*
X134505647Y-59750000D01*
X134485165Y-59607543D01*
X134460647Y-59553856D01*
X134447931Y-59526011D01*
X134437987Y-59456853D01*
X134467012Y-59393297D01*
X134525790Y-59355523D01*
X134560725Y-59350500D01*
X143203456Y-59350500D01*
X143270495Y-59370185D01*
X143291137Y-59386819D01*
X143913181Y-60008863D01*
X143946666Y-60070186D01*
X143949500Y-60096544D01*
X143949500Y-61242367D01*
X143947086Y-61266716D01*
X143946618Y-61269049D01*
X143946618Y-61269051D01*
X143930307Y-61350500D01*
X143870872Y-61647288D01*
X143865709Y-61663241D01*
X143865801Y-61663268D01*
X143863302Y-61671776D01*
X143844867Y-61800000D01*
X143863303Y-61928229D01*
X143865801Y-61936736D01*
X143865710Y-61936762D01*
X143870873Y-61952716D01*
X143933211Y-62264004D01*
X143943821Y-62316983D01*
X143943837Y-62317069D01*
X143947084Y-62333275D01*
X143949500Y-62357632D01*
X143949500Y-63096143D01*
X143972605Y-63182373D01*
X143972608Y-63182383D01*
X143973386Y-63185289D01*
X144019527Y-63265208D01*
X144019529Y-63265211D01*
X144019530Y-63265212D01*
X144934788Y-64180470D01*
X144934790Y-64180471D01*
X144934794Y-64180474D01*
X145008318Y-64222923D01*
X145008319Y-64222923D01*
X145014712Y-64226614D01*
X145103856Y-64250500D01*
X145103857Y-64250500D01*
X145196144Y-64250500D01*
X154489026Y-64250500D01*
X154556065Y-64270185D01*
X154601820Y-64322989D01*
X154611764Y-64392147D01*
X154610612Y-64398849D01*
X154570872Y-64597288D01*
X154565709Y-64613241D01*
X154565801Y-64613268D01*
X154563302Y-64621776D01*
X154544867Y-64750000D01*
X154563302Y-64878225D01*
X154589685Y-64935994D01*
X154617118Y-64996063D01*
X154701951Y-65093967D01*
X154810931Y-65164004D01*
X154935225Y-65200499D01*
X154935227Y-65200500D01*
X154935228Y-65200500D01*
X155064773Y-65200500D01*
X155064773Y-65200499D01*
X155189069Y-65164004D01*
X155298049Y-65093967D01*
X155382882Y-64996063D01*
X155436697Y-64878226D01*
X155455133Y-64750000D01*
X155436697Y-64621774D01*
X155434198Y-64613263D01*
X155434289Y-64613236D01*
X155429125Y-64597281D01*
X155428461Y-64593967D01*
X155353382Y-64219051D01*
X155353381Y-64219049D01*
X155352914Y-64216715D01*
X155350500Y-64192367D01*
X155350500Y-64096543D01*
X155370185Y-64029504D01*
X155386814Y-64008867D01*
X155412605Y-63983076D01*
X156320476Y-63983076D01*
X156320476Y-63983077D01*
X156378110Y-64000000D01*
X156521890Y-64000000D01*
X156579523Y-63983077D01*
X156579522Y-63983076D01*
X157420476Y-63983076D01*
X157420476Y-63983077D01*
X157478110Y-64000000D01*
X157621890Y-64000000D01*
X157679523Y-63983077D01*
X157550000Y-63853553D01*
X157420476Y-63983076D01*
X156579522Y-63983076D01*
X156450000Y-63853553D01*
X156320476Y-63983076D01*
X155412605Y-63983076D01*
X155763515Y-63632166D01*
X155824834Y-63598684D01*
X155894525Y-63603668D01*
X155908403Y-63614057D01*
X155963912Y-63632532D01*
X156116336Y-63480109D01*
X156350000Y-63480109D01*
X156350000Y-63519891D01*
X156365224Y-63556645D01*
X156393355Y-63584776D01*
X156430109Y-63600000D01*
X156469891Y-63600000D01*
X156506645Y-63584776D01*
X156534776Y-63556645D01*
X156550000Y-63519891D01*
X156550000Y-63499999D01*
X156803553Y-63499999D01*
X156936086Y-63632531D01*
X156960839Y-63624293D01*
X157030664Y-63621799D01*
X157039159Y-63624293D01*
X157063912Y-63632531D01*
X157196445Y-63499999D01*
X157176555Y-63480109D01*
X157450000Y-63480109D01*
X157450000Y-63519891D01*
X157465224Y-63556645D01*
X157493355Y-63584776D01*
X157530109Y-63600000D01*
X157569891Y-63600000D01*
X157606645Y-63584776D01*
X157634776Y-63556645D01*
X157650000Y-63519891D01*
X157650000Y-63499999D01*
X157903553Y-63499999D01*
X158036085Y-63632531D01*
X158055141Y-63499999D01*
X158036085Y-63367466D01*
X157903553Y-63499999D01*
X157650000Y-63499999D01*
X157650000Y-63480109D01*
X157634776Y-63443355D01*
X157606645Y-63415224D01*
X157569891Y-63400000D01*
X157530109Y-63400000D01*
X157493355Y-63415224D01*
X157465224Y-63443355D01*
X157450000Y-63480109D01*
X157176555Y-63480109D01*
X157063913Y-63367466D01*
X157039157Y-63375706D01*
X156969332Y-63378199D01*
X156960840Y-63375706D01*
X156936085Y-63367466D01*
X156803553Y-63499999D01*
X156550000Y-63499999D01*
X156550000Y-63480109D01*
X156534776Y-63443355D01*
X156506645Y-63415224D01*
X156469891Y-63400000D01*
X156430109Y-63400000D01*
X156393355Y-63415224D01*
X156365224Y-63443355D01*
X156350000Y-63480109D01*
X156116336Y-63480109D01*
X156369546Y-63226900D01*
X156579523Y-63016921D01*
X156576523Y-63005166D01*
X156579017Y-62935341D01*
X156618865Y-62877949D01*
X156683416Y-62851210D01*
X156696671Y-62850500D01*
X157303328Y-62850500D01*
X157370367Y-62870185D01*
X157416122Y-62922989D01*
X157426066Y-62992147D01*
X157423476Y-63005166D01*
X157420475Y-63016921D01*
X157549999Y-63146445D01*
X157679523Y-63016921D01*
X157676523Y-63005166D01*
X157679017Y-62935341D01*
X157718865Y-62877949D01*
X157783416Y-62851210D01*
X157796671Y-62850500D01*
X168692367Y-62850500D01*
X168716715Y-62852914D01*
X168719050Y-62853381D01*
X168719051Y-62853382D01*
X169104585Y-62930588D01*
X169105512Y-62930635D01*
X169107040Y-62930894D01*
X169109099Y-62931152D01*
X169109087Y-62931242D01*
X169134131Y-62935496D01*
X169185228Y-62950500D01*
X169314773Y-62950500D01*
X169314773Y-62950499D01*
X169439069Y-62914004D01*
X169548049Y-62843967D01*
X169632882Y-62746063D01*
X169686697Y-62628226D01*
X169705133Y-62500000D01*
X169686697Y-62371774D01*
X169686693Y-62371766D01*
X169686608Y-62371473D01*
X169686607Y-62371154D01*
X169685435Y-62362996D01*
X169686607Y-62362827D01*
X169686600Y-62301603D01*
X169724368Y-62242821D01*
X169738535Y-62232214D01*
X169798049Y-62193967D01*
X169882882Y-62096063D01*
X169936697Y-61978226D01*
X169952762Y-61866489D01*
X169958513Y-61853894D01*
X169956523Y-61850797D01*
X169952762Y-61833509D01*
X169936697Y-61721774D01*
X169909978Y-61663268D01*
X169882882Y-61603937D01*
X169798049Y-61506033D01*
X169689069Y-61435996D01*
X169689065Y-61435994D01*
X169689064Y-61435994D01*
X169564774Y-61399500D01*
X169564772Y-61399500D01*
X169435228Y-61399500D01*
X169435226Y-61399500D01*
X169384500Y-61414394D01*
X169360554Y-61417856D01*
X169360649Y-61418806D01*
X169354584Y-61419411D01*
X168966711Y-61497086D01*
X168942363Y-61499500D01*
X160724500Y-61499500D01*
X160657461Y-61479815D01*
X160611706Y-61427011D01*
X160600500Y-61375500D01*
X160600500Y-60557634D01*
X160602914Y-60533286D01*
X160614598Y-60474939D01*
X160679125Y-60152715D01*
X160684290Y-60136759D01*
X160684199Y-60136732D01*
X160686695Y-60128229D01*
X160686697Y-60128226D01*
X160705133Y-60000000D01*
X160686697Y-59871774D01*
X160632882Y-59753937D01*
X160548049Y-59656033D01*
X160439069Y-59585996D01*
X160439065Y-59585994D01*
X160439064Y-59585994D01*
X160314774Y-59549500D01*
X160314772Y-59549500D01*
X160185228Y-59549500D01*
X160185226Y-59549500D01*
X160060935Y-59585994D01*
X160060932Y-59585995D01*
X160060931Y-59585996D01*
X160027405Y-59607542D01*
X159951950Y-59656033D01*
X159867118Y-59753937D01*
X159867117Y-59753938D01*
X159813302Y-59871774D01*
X159794867Y-59999999D01*
X159813303Y-60128229D01*
X159815801Y-60136736D01*
X159815710Y-60136762D01*
X159820873Y-60152716D01*
X159884928Y-60472578D01*
X159893821Y-60516983D01*
X159893837Y-60517069D01*
X159897084Y-60533275D01*
X159899500Y-60557632D01*
X159899500Y-61375500D01*
X159879815Y-61442539D01*
X159827011Y-61488294D01*
X159775500Y-61499500D01*
X156103856Y-61499500D01*
X156014712Y-61523386D01*
X156014709Y-61523387D01*
X155934791Y-61569527D01*
X155934786Y-61569531D01*
X154641137Y-62863181D01*
X154579814Y-62896666D01*
X154553456Y-62899500D01*
X145646544Y-62899500D01*
X145579505Y-62879815D01*
X145558863Y-62863181D01*
X145386819Y-62691137D01*
X145353334Y-62629814D01*
X145350500Y-62603456D01*
X145350500Y-62357634D01*
X145352914Y-62333286D01*
X145369593Y-62250000D01*
X145429125Y-61952715D01*
X145434290Y-61936759D01*
X145434199Y-61936732D01*
X145436695Y-61928229D01*
X145436697Y-61928226D01*
X145455133Y-61800000D01*
X145436697Y-61671774D01*
X145434198Y-61663263D01*
X145434289Y-61663236D01*
X145429125Y-61647281D01*
X145422023Y-61611819D01*
X145353382Y-61269051D01*
X145353381Y-61269049D01*
X145352914Y-61266715D01*
X145350500Y-61242367D01*
X145350500Y-59553858D01*
X145350500Y-59553856D01*
X145326614Y-59464712D01*
X145290671Y-59402458D01*
X145280473Y-59384794D01*
X145280470Y-59384791D01*
X145280469Y-59384788D01*
X145215212Y-59319531D01*
X143865212Y-57969530D01*
X143865211Y-57969529D01*
X143865208Y-57969527D01*
X143785290Y-57923387D01*
X143785289Y-57923386D01*
X143785288Y-57923386D01*
X143696144Y-57899500D01*
X143696143Y-57899500D01*
X132197637Y-57899500D01*
X132173289Y-57897086D01*
X131785407Y-57819409D01*
X131784469Y-57819362D01*
X131782922Y-57819099D01*
X131780897Y-57818846D01*
X131780908Y-57818756D01*
X131755869Y-57814502D01*
X131704772Y-57799500D01*
X131575228Y-57799500D01*
X131575226Y-57799500D01*
X131450935Y-57835994D01*
X131450932Y-57835995D01*
X131450931Y-57835996D01*
X131399677Y-57868934D01*
X131341950Y-57906033D01*
X131257118Y-58003937D01*
X131257117Y-58003938D01*
X131203302Y-58121774D01*
X131184867Y-58250000D01*
X131203302Y-58378226D01*
X131203303Y-58378227D01*
X131247036Y-58473989D01*
X131256980Y-58543147D01*
X131227955Y-58606703D01*
X131169177Y-58644477D01*
X131134242Y-58649500D01*
X130996544Y-58649500D01*
X130929505Y-58629815D01*
X130908863Y-58613181D01*
X130265213Y-57969531D01*
X130265208Y-57969527D01*
X130185290Y-57923387D01*
X130185289Y-57923386D01*
X130185288Y-57923386D01*
X130096144Y-57899500D01*
X130096143Y-57899500D01*
X129657637Y-57899500D01*
X129633289Y-57897086D01*
X129245407Y-57819409D01*
X129244469Y-57819362D01*
X129242922Y-57819099D01*
X129240897Y-57818846D01*
X129240908Y-57818756D01*
X129215869Y-57814502D01*
X129164772Y-57799500D01*
X129035228Y-57799500D01*
X129035226Y-57799500D01*
X128910935Y-57835994D01*
X128910932Y-57835995D01*
X128910931Y-57835996D01*
X128859677Y-57868934D01*
X128801950Y-57906033D01*
X128717118Y-58003937D01*
X128717117Y-58003938D01*
X128663302Y-58121774D01*
X128644867Y-58250000D01*
X128663302Y-58378225D01*
X128663303Y-58378227D01*
X128717118Y-58496063D01*
X128801951Y-58593967D01*
X128910931Y-58664004D01*
X129035225Y-58700499D01*
X129035227Y-58700500D01*
X129151031Y-58700500D01*
X129218070Y-58720185D01*
X129263825Y-58772989D01*
X129273769Y-58842147D01*
X129244744Y-58905701D01*
X129229421Y-58923386D01*
X129174623Y-58986626D01*
X129174622Y-58986628D01*
X129114834Y-59117543D01*
X129094353Y-59260000D01*
X129114834Y-59402457D01*
X129114835Y-59402458D01*
X129147502Y-59473989D01*
X129157446Y-59543147D01*
X129128421Y-59606703D01*
X129069643Y-59644477D01*
X129034708Y-59649500D01*
X126521425Y-59649500D01*
X126492571Y-59645168D01*
X126492464Y-59645698D01*
X126486494Y-59644488D01*
X126065057Y-59601489D01*
X126059685Y-59600435D01*
X126059639Y-59600761D01*
X126050316Y-59599420D01*
X126039288Y-59598860D01*
X126019784Y-59596870D01*
X126019774Y-59596869D01*
X126019772Y-59596869D01*
X126009656Y-59596089D01*
X126009655Y-59596088D01*
X126009643Y-59596088D01*
X126008536Y-59596030D01*
X126008524Y-59596030D01*
X125998400Y-59597750D01*
X125977642Y-59599500D01*
X125921317Y-59599500D01*
X125797026Y-59635994D01*
X125797023Y-59635995D01*
X125797022Y-59635996D01*
X125765844Y-59656033D01*
X125688041Y-59706033D01*
X125603209Y-59803937D01*
X125603208Y-59803938D01*
X125549393Y-59921774D01*
X125530958Y-60050000D01*
X123150500Y-60050000D01*
X123150500Y-56704869D01*
X123170185Y-56637830D01*
X123186819Y-56617188D01*
X124644113Y-55159894D01*
X124720774Y-55045163D01*
X124720775Y-55045162D01*
X124773580Y-54917679D01*
X124800500Y-54782344D01*
X124800500Y-51841519D01*
X124820185Y-51774480D01*
X124836819Y-51753838D01*
X125003838Y-51586819D01*
X125065161Y-51553334D01*
X125091519Y-51550500D01*
X125209983Y-51550500D01*
X125277022Y-51570185D01*
X125322777Y-51622989D01*
X125332721Y-51692147D01*
X125303696Y-51755703D01*
X125299233Y-51760494D01*
X125298699Y-51761146D01*
X125218211Y-51881603D01*
X125218204Y-51881616D01*
X125162766Y-52015457D01*
X125162763Y-52015469D01*
X125134500Y-52157555D01*
X125134500Y-52302444D01*
X125162763Y-52444530D01*
X125162766Y-52444542D01*
X125218204Y-52578383D01*
X125218211Y-52578396D01*
X125298699Y-52698853D01*
X125298702Y-52698857D01*
X125401142Y-52801297D01*
X125401146Y-52801300D01*
X125521603Y-52881788D01*
X125521616Y-52881795D01*
X125655457Y-52937233D01*
X125655462Y-52937235D01*
X125772112Y-52960438D01*
X125797555Y-52965499D01*
X125797559Y-52965500D01*
X125943805Y-52965500D01*
X126010844Y-52985185D01*
X126056599Y-53037989D01*
X126066543Y-53107147D01*
X126061736Y-53127818D01*
X126027583Y-53232930D01*
X125999500Y-53410241D01*
X125999500Y-53589758D01*
X126027582Y-53767066D01*
X126027583Y-53767068D01*
X126061737Y-53872183D01*
X126063732Y-53942022D01*
X126027652Y-54001855D01*
X125964951Y-54032684D01*
X125943806Y-54034500D01*
X125797555Y-54034500D01*
X125655469Y-54062763D01*
X125655457Y-54062766D01*
X125521616Y-54118204D01*
X125521603Y-54118211D01*
X125401146Y-54198699D01*
X125401142Y-54198702D01*
X125298702Y-54301142D01*
X125298699Y-54301146D01*
X125218211Y-54421603D01*
X125218204Y-54421616D01*
X125162766Y-54555457D01*
X125162763Y-54555469D01*
X125134500Y-54697555D01*
X125134500Y-54842444D01*
X125162763Y-54984530D01*
X125162766Y-54984542D01*
X125218204Y-55118383D01*
X125218211Y-55118396D01*
X125298699Y-55238853D01*
X125298702Y-55238857D01*
X125401142Y-55341297D01*
X125401146Y-55341300D01*
X125521603Y-55421788D01*
X125521616Y-55421795D01*
X125655457Y-55477233D01*
X125655462Y-55477235D01*
X125797555Y-55505499D01*
X125797559Y-55505500D01*
X125797560Y-55505500D01*
X125942441Y-55505500D01*
X125942442Y-55505499D01*
X126084538Y-55477235D01*
X126218390Y-55421792D01*
X126338854Y-55341300D01*
X126441300Y-55238854D01*
X126521792Y-55118390D01*
X126577235Y-54984538D01*
X126605500Y-54842440D01*
X126605500Y-54697560D01*
X126605500Y-54697559D01*
X126605500Y-54696194D01*
X126625185Y-54629155D01*
X126677989Y-54583400D01*
X126747147Y-54573456D01*
X126767809Y-54578260D01*
X126872932Y-54612417D01*
X127050241Y-54640500D01*
X127050242Y-54640500D01*
X127229758Y-54640500D01*
X127229759Y-54640500D01*
X127407068Y-54612417D01*
X127512183Y-54578262D01*
X127582022Y-54576268D01*
X127641855Y-54612348D01*
X127672684Y-54675049D01*
X127674500Y-54696194D01*
X127674500Y-54842444D01*
X127702763Y-54984530D01*
X127702766Y-54984542D01*
X127758204Y-55118383D01*
X127758211Y-55118396D01*
X127838699Y-55238853D01*
X127838702Y-55238857D01*
X127941142Y-55341297D01*
X127941146Y-55341300D01*
X128061603Y-55421788D01*
X128061616Y-55421795D01*
X128195457Y-55477233D01*
X128195462Y-55477235D01*
X128337555Y-55505499D01*
X128337559Y-55505500D01*
X128337560Y-55505500D01*
X128482441Y-55505500D01*
X128482442Y-55505499D01*
X128624538Y-55477235D01*
X128758390Y-55421792D01*
X128878854Y-55341300D01*
X128981300Y-55238854D01*
X129061792Y-55118390D01*
X129117235Y-54984538D01*
X129145500Y-54842440D01*
X129145500Y-54697560D01*
X129145499Y-54697555D01*
X130214500Y-54697555D01*
X130214500Y-54842444D01*
X130242763Y-54984530D01*
X130242766Y-54984542D01*
X130298204Y-55118383D01*
X130298211Y-55118396D01*
X130378699Y-55238853D01*
X130378702Y-55238857D01*
X130481142Y-55341297D01*
X130481146Y-55341300D01*
X130601603Y-55421788D01*
X130601616Y-55421795D01*
X130735457Y-55477233D01*
X130735462Y-55477235D01*
X130877555Y-55505499D01*
X130877559Y-55505500D01*
X130877560Y-55505500D01*
X131022441Y-55505500D01*
X131022442Y-55505499D01*
X131164538Y-55477235D01*
X131298390Y-55421792D01*
X131418854Y-55341300D01*
X131521300Y-55238854D01*
X131601792Y-55118390D01*
X131657235Y-54984538D01*
X131685500Y-54842440D01*
X131685500Y-54697560D01*
X131685499Y-54697555D01*
X132754500Y-54697555D01*
X132754500Y-54842444D01*
X132782763Y-54984530D01*
X132782766Y-54984542D01*
X132838204Y-55118383D01*
X132838211Y-55118396D01*
X132918699Y-55238853D01*
X132918702Y-55238857D01*
X133021142Y-55341297D01*
X133021146Y-55341300D01*
X133141603Y-55421788D01*
X133141616Y-55421795D01*
X133275457Y-55477233D01*
X133275462Y-55477235D01*
X133417555Y-55505499D01*
X133417559Y-55505500D01*
X133417560Y-55505500D01*
X133562441Y-55505500D01*
X133562442Y-55505499D01*
X133704538Y-55477235D01*
X133838390Y-55421792D01*
X133958854Y-55341300D01*
X134061300Y-55238854D01*
X134141792Y-55118390D01*
X134197235Y-54984538D01*
X134225500Y-54842440D01*
X134225500Y-54697560D01*
X134225499Y-54697555D01*
X135294500Y-54697555D01*
X135294500Y-54842444D01*
X135322763Y-54984530D01*
X135322766Y-54984542D01*
X135378204Y-55118383D01*
X135378211Y-55118396D01*
X135458699Y-55238853D01*
X135458702Y-55238857D01*
X135561142Y-55341297D01*
X135561146Y-55341300D01*
X135681603Y-55421788D01*
X135681616Y-55421795D01*
X135815457Y-55477233D01*
X135815462Y-55477235D01*
X135957555Y-55505499D01*
X135957559Y-55505500D01*
X135957560Y-55505500D01*
X136102441Y-55505500D01*
X136102442Y-55505499D01*
X136244538Y-55477235D01*
X136378390Y-55421792D01*
X136498854Y-55341300D01*
X136601300Y-55238854D01*
X136681792Y-55118390D01*
X136737235Y-54984538D01*
X136765500Y-54842440D01*
X136765500Y-54697560D01*
X136765499Y-54697555D01*
X137834500Y-54697555D01*
X137834500Y-54842444D01*
X137862763Y-54984530D01*
X137862766Y-54984542D01*
X137918204Y-55118383D01*
X137918211Y-55118396D01*
X137998699Y-55238853D01*
X137998702Y-55238857D01*
X138101142Y-55341297D01*
X138101146Y-55341300D01*
X138221603Y-55421788D01*
X138221616Y-55421795D01*
X138355457Y-55477233D01*
X138355462Y-55477235D01*
X138497555Y-55505499D01*
X138497559Y-55505500D01*
X138497560Y-55505500D01*
X138642441Y-55505500D01*
X138642442Y-55505499D01*
X138784538Y-55477235D01*
X138918390Y-55421792D01*
X139038854Y-55341300D01*
X139141300Y-55238854D01*
X139221792Y-55118390D01*
X139277235Y-54984538D01*
X139305500Y-54842440D01*
X139305500Y-54697560D01*
X139305499Y-54697555D01*
X140374500Y-54697555D01*
X140374500Y-54842444D01*
X140402763Y-54984530D01*
X140402766Y-54984542D01*
X140458204Y-55118383D01*
X140458211Y-55118396D01*
X140538699Y-55238853D01*
X140538702Y-55238857D01*
X140641142Y-55341297D01*
X140641146Y-55341300D01*
X140761603Y-55421788D01*
X140761616Y-55421795D01*
X140895457Y-55477233D01*
X140895462Y-55477235D01*
X141037555Y-55505499D01*
X141037559Y-55505500D01*
X141037560Y-55505500D01*
X141182441Y-55505500D01*
X141182442Y-55505499D01*
X141324538Y-55477235D01*
X141458390Y-55421792D01*
X141578854Y-55341300D01*
X141681300Y-55238854D01*
X141761792Y-55118390D01*
X141817235Y-54984538D01*
X141845500Y-54842440D01*
X141845500Y-54697560D01*
X141845499Y-54697555D01*
X142914500Y-54697555D01*
X142914500Y-54842444D01*
X142942763Y-54984530D01*
X142942766Y-54984542D01*
X142998204Y-55118383D01*
X142998211Y-55118396D01*
X143078699Y-55238853D01*
X143078702Y-55238857D01*
X143181142Y-55341297D01*
X143181146Y-55341300D01*
X143301603Y-55421788D01*
X143301616Y-55421795D01*
X143435457Y-55477233D01*
X143435462Y-55477235D01*
X143577555Y-55505499D01*
X143577559Y-55505500D01*
X143577560Y-55505500D01*
X143722441Y-55505500D01*
X143722442Y-55505499D01*
X143864538Y-55477235D01*
X143998390Y-55421792D01*
X144118854Y-55341300D01*
X144221300Y-55238854D01*
X144301792Y-55118390D01*
X144357235Y-54984538D01*
X144385500Y-54842440D01*
X144385500Y-54697560D01*
X144385499Y-54697555D01*
X145454500Y-54697555D01*
X145454500Y-54842444D01*
X145482763Y-54984530D01*
X145482766Y-54984542D01*
X145538204Y-55118383D01*
X145538211Y-55118396D01*
X145618699Y-55238853D01*
X145618702Y-55238857D01*
X145721142Y-55341297D01*
X145721146Y-55341300D01*
X145841603Y-55421788D01*
X145841616Y-55421795D01*
X145975457Y-55477233D01*
X145975462Y-55477235D01*
X146117555Y-55505499D01*
X146117559Y-55505500D01*
X146117560Y-55505500D01*
X146262441Y-55505500D01*
X146262442Y-55505499D01*
X146404538Y-55477235D01*
X146538390Y-55421792D01*
X146658854Y-55341300D01*
X146761300Y-55238854D01*
X146841792Y-55118390D01*
X146897235Y-54984538D01*
X146925500Y-54842440D01*
X146925500Y-54697560D01*
X146925499Y-54697555D01*
X147994500Y-54697555D01*
X147994500Y-54842444D01*
X148022763Y-54984530D01*
X148022766Y-54984542D01*
X148078204Y-55118383D01*
X148078211Y-55118396D01*
X148158699Y-55238853D01*
X148158702Y-55238857D01*
X148261142Y-55341297D01*
X148261146Y-55341300D01*
X148381603Y-55421788D01*
X148381616Y-55421795D01*
X148515457Y-55477233D01*
X148515462Y-55477235D01*
X148657555Y-55505499D01*
X148657559Y-55505500D01*
X148657560Y-55505500D01*
X148802441Y-55505500D01*
X148802442Y-55505499D01*
X148944538Y-55477235D01*
X149078390Y-55421792D01*
X149198854Y-55341300D01*
X149301300Y-55238854D01*
X149381792Y-55118390D01*
X149437235Y-54984538D01*
X149465500Y-54842440D01*
X149465500Y-54697560D01*
X149465499Y-54697555D01*
X150534500Y-54697555D01*
X150534500Y-54842444D01*
X150562763Y-54984530D01*
X150562766Y-54984542D01*
X150618204Y-55118383D01*
X150618211Y-55118396D01*
X150698699Y-55238853D01*
X150698702Y-55238857D01*
X150801142Y-55341297D01*
X150801146Y-55341300D01*
X150921603Y-55421788D01*
X150921616Y-55421795D01*
X151055457Y-55477233D01*
X151055462Y-55477235D01*
X151197555Y-55505499D01*
X151197559Y-55505500D01*
X151197560Y-55505500D01*
X151342441Y-55505500D01*
X151342442Y-55505499D01*
X151484538Y-55477235D01*
X151618390Y-55421792D01*
X151738854Y-55341300D01*
X151841300Y-55238854D01*
X151921792Y-55118390D01*
X151977235Y-54984538D01*
X152005500Y-54842440D01*
X152005500Y-54697560D01*
X152005499Y-54697555D01*
X153074500Y-54697555D01*
X153074500Y-54842444D01*
X153102763Y-54984530D01*
X153102766Y-54984542D01*
X153158204Y-55118383D01*
X153158211Y-55118396D01*
X153238699Y-55238853D01*
X153238702Y-55238857D01*
X153341142Y-55341297D01*
X153341146Y-55341300D01*
X153461603Y-55421788D01*
X153461616Y-55421795D01*
X153595457Y-55477233D01*
X153595462Y-55477235D01*
X153737555Y-55505499D01*
X153737559Y-55505500D01*
X153737560Y-55505500D01*
X153882441Y-55505500D01*
X153882442Y-55505499D01*
X154024538Y-55477235D01*
X154158390Y-55421792D01*
X154278854Y-55341300D01*
X154381300Y-55238854D01*
X154461792Y-55118390D01*
X154517235Y-54984538D01*
X154545500Y-54842440D01*
X154545500Y-54697560D01*
X154545499Y-54697555D01*
X155614500Y-54697555D01*
X155614500Y-54842444D01*
X155642763Y-54984530D01*
X155642766Y-54984542D01*
X155698204Y-55118383D01*
X155698211Y-55118396D01*
X155778699Y-55238853D01*
X155778702Y-55238857D01*
X155881142Y-55341297D01*
X155881146Y-55341300D01*
X156001603Y-55421788D01*
X156001616Y-55421795D01*
X156135457Y-55477233D01*
X156135462Y-55477235D01*
X156277555Y-55505499D01*
X156277559Y-55505500D01*
X156277560Y-55505500D01*
X156422441Y-55505500D01*
X156422442Y-55505499D01*
X156564538Y-55477235D01*
X156698390Y-55421792D01*
X156818854Y-55341300D01*
X156921300Y-55238854D01*
X157001792Y-55118390D01*
X157057235Y-54984538D01*
X157085500Y-54842440D01*
X157085500Y-54697560D01*
X157085499Y-54697555D01*
X158154500Y-54697555D01*
X158154500Y-54842444D01*
X158182763Y-54984530D01*
X158182766Y-54984542D01*
X158238204Y-55118383D01*
X158238211Y-55118396D01*
X158318699Y-55238853D01*
X158318702Y-55238857D01*
X158421142Y-55341297D01*
X158421146Y-55341300D01*
X158541603Y-55421788D01*
X158541616Y-55421795D01*
X158675457Y-55477233D01*
X158675462Y-55477235D01*
X158817555Y-55505499D01*
X158817559Y-55505500D01*
X158817560Y-55505500D01*
X158962441Y-55505500D01*
X158962442Y-55505499D01*
X159104538Y-55477235D01*
X159238390Y-55421792D01*
X159358854Y-55341300D01*
X159461300Y-55238854D01*
X159541792Y-55118390D01*
X159597235Y-54984538D01*
X159625500Y-54842440D01*
X159625500Y-54697560D01*
X159625499Y-54697555D01*
X160694500Y-54697555D01*
X160694500Y-54842444D01*
X160722763Y-54984530D01*
X160722766Y-54984542D01*
X160778204Y-55118383D01*
X160778211Y-55118396D01*
X160858699Y-55238853D01*
X160858702Y-55238857D01*
X160961142Y-55341297D01*
X160961146Y-55341300D01*
X161081603Y-55421788D01*
X161081616Y-55421795D01*
X161215457Y-55477233D01*
X161215462Y-55477235D01*
X161357555Y-55505499D01*
X161357559Y-55505500D01*
X161357560Y-55505500D01*
X161502441Y-55505500D01*
X161502442Y-55505499D01*
X161644538Y-55477235D01*
X161778390Y-55421792D01*
X161898854Y-55341300D01*
X162001300Y-55238854D01*
X162081792Y-55118390D01*
X162137235Y-54984538D01*
X162165500Y-54842440D01*
X162165500Y-54697560D01*
X162165499Y-54697555D01*
X163234500Y-54697555D01*
X163234500Y-54842444D01*
X163262763Y-54984530D01*
X163262766Y-54984542D01*
X163318204Y-55118383D01*
X163318211Y-55118396D01*
X163398699Y-55238853D01*
X163398702Y-55238857D01*
X163501142Y-55341297D01*
X163501146Y-55341300D01*
X163621603Y-55421788D01*
X163621616Y-55421795D01*
X163755457Y-55477233D01*
X163755462Y-55477235D01*
X163897555Y-55505499D01*
X163897559Y-55505500D01*
X163897560Y-55505500D01*
X164042441Y-55505500D01*
X164042442Y-55505499D01*
X164184538Y-55477235D01*
X164318390Y-55421792D01*
X164438854Y-55341300D01*
X164541300Y-55238854D01*
X164621792Y-55118390D01*
X164677235Y-54984538D01*
X164705500Y-54842440D01*
X164705500Y-54697560D01*
X164705499Y-54697555D01*
X165774500Y-54697555D01*
X165774500Y-54842444D01*
X165802763Y-54984530D01*
X165802766Y-54984542D01*
X165858204Y-55118383D01*
X165858211Y-55118396D01*
X165938699Y-55238853D01*
X165938702Y-55238857D01*
X166041142Y-55341297D01*
X166041146Y-55341300D01*
X166161603Y-55421788D01*
X166161616Y-55421795D01*
X166295457Y-55477233D01*
X166295462Y-55477235D01*
X166437555Y-55505499D01*
X166437559Y-55505500D01*
X166437560Y-55505500D01*
X166582441Y-55505500D01*
X166582442Y-55505499D01*
X166724538Y-55477235D01*
X166858390Y-55421792D01*
X166978854Y-55341300D01*
X167081300Y-55238854D01*
X167161792Y-55118390D01*
X167217235Y-54984538D01*
X167245500Y-54842440D01*
X167245500Y-54697560D01*
X167245499Y-54697555D01*
X168314500Y-54697555D01*
X168314500Y-54842444D01*
X168342763Y-54984530D01*
X168342766Y-54984542D01*
X168398204Y-55118383D01*
X168398211Y-55118396D01*
X168478699Y-55238853D01*
X168478702Y-55238857D01*
X168581142Y-55341297D01*
X168581146Y-55341300D01*
X168701603Y-55421788D01*
X168701616Y-55421795D01*
X168835457Y-55477233D01*
X168835462Y-55477235D01*
X168977555Y-55505499D01*
X168977559Y-55505500D01*
X168977560Y-55505500D01*
X169122441Y-55505500D01*
X169122442Y-55505499D01*
X169264538Y-55477235D01*
X169398390Y-55421792D01*
X169518854Y-55341300D01*
X169621300Y-55238854D01*
X169701792Y-55118390D01*
X169757235Y-54984538D01*
X169785500Y-54842440D01*
X169785500Y-54697560D01*
X169757235Y-54555462D01*
X169724972Y-54477572D01*
X169701795Y-54421616D01*
X169701788Y-54421603D01*
X169621300Y-54301146D01*
X169621297Y-54301142D01*
X169518857Y-54198702D01*
X169518853Y-54198699D01*
X169398396Y-54118211D01*
X169398383Y-54118204D01*
X169264542Y-54062766D01*
X169264530Y-54062763D01*
X169122444Y-54034500D01*
X169122440Y-54034500D01*
X168977560Y-54034500D01*
X168977555Y-54034500D01*
X168835469Y-54062763D01*
X168835457Y-54062766D01*
X168701616Y-54118204D01*
X168701603Y-54118211D01*
X168581146Y-54198699D01*
X168581142Y-54198702D01*
X168478702Y-54301142D01*
X168478699Y-54301146D01*
X168398211Y-54421603D01*
X168398204Y-54421616D01*
X168342766Y-54555457D01*
X168342763Y-54555469D01*
X168314500Y-54697555D01*
X167245499Y-54697555D01*
X167217235Y-54555462D01*
X167184972Y-54477572D01*
X167161795Y-54421616D01*
X167161788Y-54421603D01*
X167081300Y-54301146D01*
X167081297Y-54301142D01*
X166978857Y-54198702D01*
X166978853Y-54198699D01*
X166858396Y-54118211D01*
X166858383Y-54118204D01*
X166724542Y-54062766D01*
X166724530Y-54062763D01*
X166582444Y-54034500D01*
X166582440Y-54034500D01*
X166437560Y-54034500D01*
X166437555Y-54034500D01*
X166295469Y-54062763D01*
X166295457Y-54062766D01*
X166161616Y-54118204D01*
X166161603Y-54118211D01*
X166041146Y-54198699D01*
X166041142Y-54198702D01*
X165938702Y-54301142D01*
X165938699Y-54301146D01*
X165858211Y-54421603D01*
X165858204Y-54421616D01*
X165802766Y-54555457D01*
X165802763Y-54555469D01*
X165774500Y-54697555D01*
X164705499Y-54697555D01*
X164677235Y-54555462D01*
X164644972Y-54477572D01*
X164621795Y-54421616D01*
X164621788Y-54421603D01*
X164541300Y-54301146D01*
X164541297Y-54301142D01*
X164438857Y-54198702D01*
X164438853Y-54198699D01*
X164318396Y-54118211D01*
X164318383Y-54118204D01*
X164184542Y-54062766D01*
X164184530Y-54062763D01*
X164042444Y-54034500D01*
X164042440Y-54034500D01*
X163897560Y-54034500D01*
X163897555Y-54034500D01*
X163755469Y-54062763D01*
X163755457Y-54062766D01*
X163621616Y-54118204D01*
X163621603Y-54118211D01*
X163501146Y-54198699D01*
X163501142Y-54198702D01*
X163398702Y-54301142D01*
X163398699Y-54301146D01*
X163318211Y-54421603D01*
X163318204Y-54421616D01*
X163262766Y-54555457D01*
X163262763Y-54555469D01*
X163234500Y-54697555D01*
X162165499Y-54697555D01*
X162137235Y-54555462D01*
X162104972Y-54477572D01*
X162081795Y-54421616D01*
X162081788Y-54421603D01*
X162001300Y-54301146D01*
X162001297Y-54301142D01*
X161898857Y-54198702D01*
X161898853Y-54198699D01*
X161778396Y-54118211D01*
X161778383Y-54118204D01*
X161644542Y-54062766D01*
X161644530Y-54062763D01*
X161502444Y-54034500D01*
X161502440Y-54034500D01*
X161357560Y-54034500D01*
X161357555Y-54034500D01*
X161215469Y-54062763D01*
X161215457Y-54062766D01*
X161081616Y-54118204D01*
X161081603Y-54118211D01*
X160961146Y-54198699D01*
X160961142Y-54198702D01*
X160858702Y-54301142D01*
X160858699Y-54301146D01*
X160778211Y-54421603D01*
X160778204Y-54421616D01*
X160722766Y-54555457D01*
X160722763Y-54555469D01*
X160694500Y-54697555D01*
X159625499Y-54697555D01*
X159597235Y-54555462D01*
X159564972Y-54477572D01*
X159541795Y-54421616D01*
X159541788Y-54421603D01*
X159461300Y-54301146D01*
X159461297Y-54301142D01*
X159358857Y-54198702D01*
X159358853Y-54198699D01*
X159238396Y-54118211D01*
X159238383Y-54118204D01*
X159104542Y-54062766D01*
X159104530Y-54062763D01*
X158962444Y-54034500D01*
X158962440Y-54034500D01*
X158817560Y-54034500D01*
X158817555Y-54034500D01*
X158675469Y-54062763D01*
X158675457Y-54062766D01*
X158541616Y-54118204D01*
X158541603Y-54118211D01*
X158421146Y-54198699D01*
X158421142Y-54198702D01*
X158318702Y-54301142D01*
X158318699Y-54301146D01*
X158238211Y-54421603D01*
X158238204Y-54421616D01*
X158182766Y-54555457D01*
X158182763Y-54555469D01*
X158154500Y-54697555D01*
X157085499Y-54697555D01*
X157057235Y-54555462D01*
X157024972Y-54477572D01*
X157001795Y-54421616D01*
X157001788Y-54421603D01*
X156921300Y-54301146D01*
X156921297Y-54301142D01*
X156818857Y-54198702D01*
X156818853Y-54198699D01*
X156698396Y-54118211D01*
X156698383Y-54118204D01*
X156564542Y-54062766D01*
X156564530Y-54062763D01*
X156422444Y-54034500D01*
X156422440Y-54034500D01*
X156277560Y-54034500D01*
X156277555Y-54034500D01*
X156135469Y-54062763D01*
X156135457Y-54062766D01*
X156001616Y-54118204D01*
X156001603Y-54118211D01*
X155881146Y-54198699D01*
X155881142Y-54198702D01*
X155778702Y-54301142D01*
X155778699Y-54301146D01*
X155698211Y-54421603D01*
X155698204Y-54421616D01*
X155642766Y-54555457D01*
X155642763Y-54555469D01*
X155614500Y-54697555D01*
X154545499Y-54697555D01*
X154517235Y-54555462D01*
X154484972Y-54477572D01*
X154461795Y-54421616D01*
X154461788Y-54421603D01*
X154381300Y-54301146D01*
X154381297Y-54301142D01*
X154278857Y-54198702D01*
X154278853Y-54198699D01*
X154158396Y-54118211D01*
X154158383Y-54118204D01*
X154024542Y-54062766D01*
X154024530Y-54062763D01*
X153882444Y-54034500D01*
X153882440Y-54034500D01*
X153737560Y-54034500D01*
X153737555Y-54034500D01*
X153595469Y-54062763D01*
X153595457Y-54062766D01*
X153461616Y-54118204D01*
X153461603Y-54118211D01*
X153341146Y-54198699D01*
X153341142Y-54198702D01*
X153238702Y-54301142D01*
X153238699Y-54301146D01*
X153158211Y-54421603D01*
X153158204Y-54421616D01*
X153102766Y-54555457D01*
X153102763Y-54555469D01*
X153074500Y-54697555D01*
X152005499Y-54697555D01*
X151977235Y-54555462D01*
X151944972Y-54477572D01*
X151921795Y-54421616D01*
X151921788Y-54421603D01*
X151841300Y-54301146D01*
X151841297Y-54301142D01*
X151738857Y-54198702D01*
X151738853Y-54198699D01*
X151618396Y-54118211D01*
X151618383Y-54118204D01*
X151484542Y-54062766D01*
X151484530Y-54062763D01*
X151342444Y-54034500D01*
X151342440Y-54034500D01*
X151197560Y-54034500D01*
X151197555Y-54034500D01*
X151055469Y-54062763D01*
X151055457Y-54062766D01*
X150921616Y-54118204D01*
X150921603Y-54118211D01*
X150801146Y-54198699D01*
X150801142Y-54198702D01*
X150698702Y-54301142D01*
X150698699Y-54301146D01*
X150618211Y-54421603D01*
X150618204Y-54421616D01*
X150562766Y-54555457D01*
X150562763Y-54555469D01*
X150534500Y-54697555D01*
X149465499Y-54697555D01*
X149437235Y-54555462D01*
X149404972Y-54477572D01*
X149381795Y-54421616D01*
X149381788Y-54421603D01*
X149301300Y-54301146D01*
X149301297Y-54301142D01*
X149198857Y-54198702D01*
X149198853Y-54198699D01*
X149078396Y-54118211D01*
X149078383Y-54118204D01*
X148944542Y-54062766D01*
X148944530Y-54062763D01*
X148802444Y-54034500D01*
X148802440Y-54034500D01*
X148657560Y-54034500D01*
X148657555Y-54034500D01*
X148515469Y-54062763D01*
X148515457Y-54062766D01*
X148381616Y-54118204D01*
X148381603Y-54118211D01*
X148261146Y-54198699D01*
X148261142Y-54198702D01*
X148158702Y-54301142D01*
X148158699Y-54301146D01*
X148078211Y-54421603D01*
X148078204Y-54421616D01*
X148022766Y-54555457D01*
X148022763Y-54555469D01*
X147994500Y-54697555D01*
X146925499Y-54697555D01*
X146897235Y-54555462D01*
X146864972Y-54477572D01*
X146841795Y-54421616D01*
X146841788Y-54421603D01*
X146761300Y-54301146D01*
X146761297Y-54301142D01*
X146658857Y-54198702D01*
X146658853Y-54198699D01*
X146538396Y-54118211D01*
X146538383Y-54118204D01*
X146404542Y-54062766D01*
X146404530Y-54062763D01*
X146262444Y-54034500D01*
X146262440Y-54034500D01*
X146117560Y-54034500D01*
X146117555Y-54034500D01*
X145975469Y-54062763D01*
X145975457Y-54062766D01*
X145841616Y-54118204D01*
X145841603Y-54118211D01*
X145721146Y-54198699D01*
X145721142Y-54198702D01*
X145618702Y-54301142D01*
X145618699Y-54301146D01*
X145538211Y-54421603D01*
X145538204Y-54421616D01*
X145482766Y-54555457D01*
X145482763Y-54555469D01*
X145454500Y-54697555D01*
X144385499Y-54697555D01*
X144357235Y-54555462D01*
X144324972Y-54477572D01*
X144301795Y-54421616D01*
X144301788Y-54421603D01*
X144221300Y-54301146D01*
X144221297Y-54301142D01*
X144118857Y-54198702D01*
X144118853Y-54198699D01*
X143998396Y-54118211D01*
X143998383Y-54118204D01*
X143864542Y-54062766D01*
X143864530Y-54062763D01*
X143722444Y-54034500D01*
X143722440Y-54034500D01*
X143577560Y-54034500D01*
X143577555Y-54034500D01*
X143435469Y-54062763D01*
X143435457Y-54062766D01*
X143301616Y-54118204D01*
X143301603Y-54118211D01*
X143181146Y-54198699D01*
X143181142Y-54198702D01*
X143078702Y-54301142D01*
X143078699Y-54301146D01*
X142998211Y-54421603D01*
X142998204Y-54421616D01*
X142942766Y-54555457D01*
X142942763Y-54555469D01*
X142914500Y-54697555D01*
X141845499Y-54697555D01*
X141817235Y-54555462D01*
X141784972Y-54477572D01*
X141761795Y-54421616D01*
X141761788Y-54421603D01*
X141681300Y-54301146D01*
X141681297Y-54301142D01*
X141578857Y-54198702D01*
X141578853Y-54198699D01*
X141458396Y-54118211D01*
X141458383Y-54118204D01*
X141324542Y-54062766D01*
X141324530Y-54062763D01*
X141182444Y-54034500D01*
X141182440Y-54034500D01*
X141037560Y-54034500D01*
X141037555Y-54034500D01*
X140895469Y-54062763D01*
X140895457Y-54062766D01*
X140761616Y-54118204D01*
X140761603Y-54118211D01*
X140641146Y-54198699D01*
X140641142Y-54198702D01*
X140538702Y-54301142D01*
X140538699Y-54301146D01*
X140458211Y-54421603D01*
X140458204Y-54421616D01*
X140402766Y-54555457D01*
X140402763Y-54555469D01*
X140374500Y-54697555D01*
X139305499Y-54697555D01*
X139277235Y-54555462D01*
X139244972Y-54477572D01*
X139221795Y-54421616D01*
X139221788Y-54421603D01*
X139141300Y-54301146D01*
X139141297Y-54301142D01*
X139038857Y-54198702D01*
X139038853Y-54198699D01*
X138918396Y-54118211D01*
X138918383Y-54118204D01*
X138784542Y-54062766D01*
X138784530Y-54062763D01*
X138642444Y-54034500D01*
X138642440Y-54034500D01*
X138497560Y-54034500D01*
X138497555Y-54034500D01*
X138355469Y-54062763D01*
X138355457Y-54062766D01*
X138221616Y-54118204D01*
X138221603Y-54118211D01*
X138101146Y-54198699D01*
X138101142Y-54198702D01*
X137998702Y-54301142D01*
X137998699Y-54301146D01*
X137918211Y-54421603D01*
X137918204Y-54421616D01*
X137862766Y-54555457D01*
X137862763Y-54555469D01*
X137834500Y-54697555D01*
X136765499Y-54697555D01*
X136737235Y-54555462D01*
X136704972Y-54477572D01*
X136681795Y-54421616D01*
X136681788Y-54421603D01*
X136601300Y-54301146D01*
X136601297Y-54301142D01*
X136498857Y-54198702D01*
X136498853Y-54198699D01*
X136378396Y-54118211D01*
X136378383Y-54118204D01*
X136244542Y-54062766D01*
X136244530Y-54062763D01*
X136102444Y-54034500D01*
X136102440Y-54034500D01*
X135957560Y-54034500D01*
X135957555Y-54034500D01*
X135815469Y-54062763D01*
X135815457Y-54062766D01*
X135681616Y-54118204D01*
X135681603Y-54118211D01*
X135561146Y-54198699D01*
X135561142Y-54198702D01*
X135458702Y-54301142D01*
X135458699Y-54301146D01*
X135378211Y-54421603D01*
X135378204Y-54421616D01*
X135322766Y-54555457D01*
X135322763Y-54555469D01*
X135294500Y-54697555D01*
X134225499Y-54697555D01*
X134197235Y-54555462D01*
X134164972Y-54477572D01*
X134141795Y-54421616D01*
X134141788Y-54421603D01*
X134061300Y-54301146D01*
X134061297Y-54301142D01*
X133958857Y-54198702D01*
X133958853Y-54198699D01*
X133838396Y-54118211D01*
X133838383Y-54118204D01*
X133704542Y-54062766D01*
X133704530Y-54062763D01*
X133562444Y-54034500D01*
X133562440Y-54034500D01*
X133417560Y-54034500D01*
X133417555Y-54034500D01*
X133275469Y-54062763D01*
X133275457Y-54062766D01*
X133141616Y-54118204D01*
X133141603Y-54118211D01*
X133021146Y-54198699D01*
X133021142Y-54198702D01*
X132918702Y-54301142D01*
X132918699Y-54301146D01*
X132838211Y-54421603D01*
X132838204Y-54421616D01*
X132782766Y-54555457D01*
X132782763Y-54555469D01*
X132754500Y-54697555D01*
X131685499Y-54697555D01*
X131657235Y-54555462D01*
X131624972Y-54477572D01*
X131601795Y-54421616D01*
X131601788Y-54421603D01*
X131521300Y-54301146D01*
X131521297Y-54301142D01*
X131418857Y-54198702D01*
X131418853Y-54198699D01*
X131298396Y-54118211D01*
X131298383Y-54118204D01*
X131164542Y-54062766D01*
X131164530Y-54062763D01*
X131022444Y-54034500D01*
X131022440Y-54034500D01*
X130877560Y-54034500D01*
X130877555Y-54034500D01*
X130735469Y-54062763D01*
X130735457Y-54062766D01*
X130601616Y-54118204D01*
X130601603Y-54118211D01*
X130481146Y-54198699D01*
X130481142Y-54198702D01*
X130378702Y-54301142D01*
X130378699Y-54301146D01*
X130298211Y-54421603D01*
X130298204Y-54421616D01*
X130242766Y-54555457D01*
X130242763Y-54555469D01*
X130214500Y-54697555D01*
X129145499Y-54697555D01*
X129117235Y-54555462D01*
X129084972Y-54477572D01*
X129061795Y-54421616D01*
X129061788Y-54421603D01*
X128981300Y-54301146D01*
X128981297Y-54301142D01*
X128878857Y-54198702D01*
X128878853Y-54198699D01*
X128758396Y-54118211D01*
X128758383Y-54118204D01*
X128624542Y-54062766D01*
X128624530Y-54062763D01*
X128482444Y-54034500D01*
X128482440Y-54034500D01*
X128337560Y-54034500D01*
X128336194Y-54034500D01*
X128269155Y-54014815D01*
X128223400Y-53962011D01*
X128213456Y-53892853D01*
X128218260Y-53872190D01*
X128252417Y-53767068D01*
X128280500Y-53589759D01*
X128280500Y-53410241D01*
X128252417Y-53232932D01*
X128218262Y-53127816D01*
X128216268Y-53057978D01*
X128252348Y-52998145D01*
X128315049Y-52967316D01*
X128336194Y-52965500D01*
X128482441Y-52965500D01*
X128482442Y-52965499D01*
X128624538Y-52937235D01*
X128758390Y-52881792D01*
X128878854Y-52801300D01*
X128981300Y-52698854D01*
X129061792Y-52578390D01*
X129117235Y-52444538D01*
X129145500Y-52302440D01*
X129145500Y-52157560D01*
X129145499Y-52157555D01*
X130214500Y-52157555D01*
X130214500Y-52302444D01*
X130242763Y-52444530D01*
X130242766Y-52444542D01*
X130298204Y-52578383D01*
X130298211Y-52578396D01*
X130378699Y-52698853D01*
X130378702Y-52698857D01*
X130481142Y-52801297D01*
X130481146Y-52801300D01*
X130601603Y-52881788D01*
X130601616Y-52881795D01*
X130735457Y-52937233D01*
X130735462Y-52937235D01*
X130852112Y-52960438D01*
X130877555Y-52965499D01*
X130877559Y-52965500D01*
X130877560Y-52965500D01*
X131022441Y-52965500D01*
X131022442Y-52965499D01*
X131164538Y-52937235D01*
X131298390Y-52881792D01*
X131418854Y-52801300D01*
X131521300Y-52698854D01*
X131601792Y-52578390D01*
X131657235Y-52444538D01*
X131685500Y-52302440D01*
X131685500Y-52157560D01*
X131685499Y-52157555D01*
X132754500Y-52157555D01*
X132754500Y-52302444D01*
X132782763Y-52444530D01*
X132782766Y-52444542D01*
X132838204Y-52578383D01*
X132838211Y-52578396D01*
X132918699Y-52698853D01*
X132918702Y-52698857D01*
X133021142Y-52801297D01*
X133021146Y-52801300D01*
X133141603Y-52881788D01*
X133141616Y-52881795D01*
X133275457Y-52937233D01*
X133275462Y-52937235D01*
X133392112Y-52960438D01*
X133417555Y-52965499D01*
X133417559Y-52965500D01*
X133417560Y-52965500D01*
X133562441Y-52965500D01*
X133562442Y-52965499D01*
X133704538Y-52937235D01*
X133838390Y-52881792D01*
X133958854Y-52801300D01*
X134061300Y-52698854D01*
X134141792Y-52578390D01*
X134197235Y-52444538D01*
X134225500Y-52302440D01*
X134225500Y-52157560D01*
X134225499Y-52157555D01*
X135294500Y-52157555D01*
X135294500Y-52302444D01*
X135322763Y-52444530D01*
X135322766Y-52444542D01*
X135378204Y-52578383D01*
X135378211Y-52578396D01*
X135458699Y-52698853D01*
X135458702Y-52698857D01*
X135561142Y-52801297D01*
X135561146Y-52801300D01*
X135681603Y-52881788D01*
X135681616Y-52881795D01*
X135815457Y-52937233D01*
X135815462Y-52937235D01*
X135932112Y-52960438D01*
X135957555Y-52965499D01*
X135957559Y-52965500D01*
X135957560Y-52965500D01*
X136102441Y-52965500D01*
X136102442Y-52965499D01*
X136244538Y-52937235D01*
X136378390Y-52881792D01*
X136498854Y-52801300D01*
X136601300Y-52698854D01*
X136681792Y-52578390D01*
X136737235Y-52444538D01*
X136765500Y-52302440D01*
X136765500Y-52157560D01*
X136765499Y-52157555D01*
X137834500Y-52157555D01*
X137834500Y-52302444D01*
X137862763Y-52444530D01*
X137862766Y-52444542D01*
X137918204Y-52578383D01*
X137918211Y-52578396D01*
X137998699Y-52698853D01*
X137998702Y-52698857D01*
X138101142Y-52801297D01*
X138101146Y-52801300D01*
X138221603Y-52881788D01*
X138221616Y-52881795D01*
X138355457Y-52937233D01*
X138355462Y-52937235D01*
X138472112Y-52960438D01*
X138497555Y-52965499D01*
X138497559Y-52965500D01*
X138497560Y-52965500D01*
X138642441Y-52965500D01*
X138642442Y-52965499D01*
X138784538Y-52937235D01*
X138918390Y-52881792D01*
X139038854Y-52801300D01*
X139141300Y-52698854D01*
X139221792Y-52578390D01*
X139277235Y-52444538D01*
X139305500Y-52302440D01*
X139305500Y-52157560D01*
X139305499Y-52157555D01*
X140374500Y-52157555D01*
X140374500Y-52302444D01*
X140402763Y-52444530D01*
X140402766Y-52444542D01*
X140458204Y-52578383D01*
X140458211Y-52578396D01*
X140538699Y-52698853D01*
X140538702Y-52698857D01*
X140641142Y-52801297D01*
X140641146Y-52801300D01*
X140761603Y-52881788D01*
X140761616Y-52881795D01*
X140895457Y-52937233D01*
X140895462Y-52937235D01*
X141012112Y-52960438D01*
X141037555Y-52965499D01*
X141037559Y-52965500D01*
X141037560Y-52965500D01*
X141182441Y-52965500D01*
X141182442Y-52965499D01*
X141324538Y-52937235D01*
X141458390Y-52881792D01*
X141578854Y-52801300D01*
X141681300Y-52698854D01*
X141761792Y-52578390D01*
X141817235Y-52444538D01*
X141845500Y-52302440D01*
X141845500Y-52157560D01*
X141845499Y-52157555D01*
X142914500Y-52157555D01*
X142914500Y-52302444D01*
X142942763Y-52444530D01*
X142942766Y-52444542D01*
X142998204Y-52578383D01*
X142998211Y-52578396D01*
X143078699Y-52698853D01*
X143078702Y-52698857D01*
X143181142Y-52801297D01*
X143181146Y-52801300D01*
X143301603Y-52881788D01*
X143301616Y-52881795D01*
X143435457Y-52937233D01*
X143435462Y-52937235D01*
X143552112Y-52960438D01*
X143577555Y-52965499D01*
X143577559Y-52965500D01*
X143577560Y-52965500D01*
X143722441Y-52965500D01*
X143722442Y-52965499D01*
X143864538Y-52937235D01*
X143998390Y-52881792D01*
X144118854Y-52801300D01*
X144221300Y-52698854D01*
X144301792Y-52578390D01*
X144357235Y-52444538D01*
X144385500Y-52302440D01*
X144385500Y-52157560D01*
X144385499Y-52157555D01*
X145454500Y-52157555D01*
X145454500Y-52302444D01*
X145482763Y-52444530D01*
X145482766Y-52444542D01*
X145538204Y-52578383D01*
X145538211Y-52578396D01*
X145618699Y-52698853D01*
X145618702Y-52698857D01*
X145721142Y-52801297D01*
X145721146Y-52801300D01*
X145841603Y-52881788D01*
X145841616Y-52881795D01*
X145975457Y-52937233D01*
X145975462Y-52937235D01*
X146092112Y-52960438D01*
X146117555Y-52965499D01*
X146117559Y-52965500D01*
X146117560Y-52965500D01*
X146262441Y-52965500D01*
X146262442Y-52965499D01*
X146404538Y-52937235D01*
X146538390Y-52881792D01*
X146658854Y-52801300D01*
X146761300Y-52698854D01*
X146841792Y-52578390D01*
X146897235Y-52444538D01*
X146925500Y-52302440D01*
X146925500Y-52157560D01*
X146925499Y-52157555D01*
X147994500Y-52157555D01*
X147994500Y-52302444D01*
X148022763Y-52444530D01*
X148022766Y-52444542D01*
X148078204Y-52578383D01*
X148078211Y-52578396D01*
X148158699Y-52698853D01*
X148158702Y-52698857D01*
X148261142Y-52801297D01*
X148261146Y-52801300D01*
X148381603Y-52881788D01*
X148381616Y-52881795D01*
X148515457Y-52937233D01*
X148515462Y-52937235D01*
X148632112Y-52960438D01*
X148657555Y-52965499D01*
X148657559Y-52965500D01*
X148657560Y-52965500D01*
X148802441Y-52965500D01*
X148802442Y-52965499D01*
X148944538Y-52937235D01*
X149078390Y-52881792D01*
X149198854Y-52801300D01*
X149301300Y-52698854D01*
X149381792Y-52578390D01*
X149437235Y-52444538D01*
X149465500Y-52302440D01*
X149465500Y-52157560D01*
X149465499Y-52157555D01*
X150534500Y-52157555D01*
X150534500Y-52302444D01*
X150562763Y-52444530D01*
X150562766Y-52444542D01*
X150618204Y-52578383D01*
X150618211Y-52578396D01*
X150698699Y-52698853D01*
X150698702Y-52698857D01*
X150801142Y-52801297D01*
X150801146Y-52801300D01*
X150921603Y-52881788D01*
X150921616Y-52881795D01*
X151055457Y-52937233D01*
X151055462Y-52937235D01*
X151172112Y-52960438D01*
X151197555Y-52965499D01*
X151197559Y-52965500D01*
X151197560Y-52965500D01*
X151342441Y-52965500D01*
X151342442Y-52965499D01*
X151484538Y-52937235D01*
X151618390Y-52881792D01*
X151738854Y-52801300D01*
X151841300Y-52698854D01*
X151921792Y-52578390D01*
X151977235Y-52444538D01*
X152005500Y-52302440D01*
X152005500Y-52157560D01*
X152005499Y-52157555D01*
X153074500Y-52157555D01*
X153074500Y-52302444D01*
X153102763Y-52444530D01*
X153102766Y-52444542D01*
X153158204Y-52578383D01*
X153158211Y-52578396D01*
X153238699Y-52698853D01*
X153238702Y-52698857D01*
X153341142Y-52801297D01*
X153341146Y-52801300D01*
X153461603Y-52881788D01*
X153461616Y-52881795D01*
X153595457Y-52937233D01*
X153595462Y-52937235D01*
X153712112Y-52960438D01*
X153737555Y-52965499D01*
X153737559Y-52965500D01*
X153737560Y-52965500D01*
X153882441Y-52965500D01*
X153882442Y-52965499D01*
X154024538Y-52937235D01*
X154158390Y-52881792D01*
X154278854Y-52801300D01*
X154381300Y-52698854D01*
X154461792Y-52578390D01*
X154517235Y-52444538D01*
X154545500Y-52302440D01*
X154545500Y-52157560D01*
X154545499Y-52157555D01*
X155614500Y-52157555D01*
X155614500Y-52302444D01*
X155642763Y-52444530D01*
X155642766Y-52444542D01*
X155698204Y-52578383D01*
X155698211Y-52578396D01*
X155778699Y-52698853D01*
X155778702Y-52698857D01*
X155881142Y-52801297D01*
X155881146Y-52801300D01*
X156001603Y-52881788D01*
X156001616Y-52881795D01*
X156135457Y-52937233D01*
X156135462Y-52937235D01*
X156252112Y-52960438D01*
X156277555Y-52965499D01*
X156277559Y-52965500D01*
X156277560Y-52965500D01*
X156422441Y-52965500D01*
X156422442Y-52965499D01*
X156564538Y-52937235D01*
X156698390Y-52881792D01*
X156818854Y-52801300D01*
X156921300Y-52698854D01*
X157001792Y-52578390D01*
X157057235Y-52444538D01*
X157085500Y-52302440D01*
X157085500Y-52157560D01*
X157085499Y-52157555D01*
X158154500Y-52157555D01*
X158154500Y-52302444D01*
X158182763Y-52444530D01*
X158182766Y-52444542D01*
X158238204Y-52578383D01*
X158238211Y-52578396D01*
X158318699Y-52698853D01*
X158318702Y-52698857D01*
X158421142Y-52801297D01*
X158421146Y-52801300D01*
X158541603Y-52881788D01*
X158541616Y-52881795D01*
X158675457Y-52937233D01*
X158675462Y-52937235D01*
X158792112Y-52960438D01*
X158817555Y-52965499D01*
X158817559Y-52965500D01*
X158817560Y-52965500D01*
X158962441Y-52965500D01*
X158962442Y-52965499D01*
X159104538Y-52937235D01*
X159238390Y-52881792D01*
X159358854Y-52801300D01*
X159461300Y-52698854D01*
X159541792Y-52578390D01*
X159597235Y-52444538D01*
X159625500Y-52302440D01*
X159625500Y-52157560D01*
X159625499Y-52157555D01*
X160694500Y-52157555D01*
X160694500Y-52302444D01*
X160722763Y-52444530D01*
X160722766Y-52444542D01*
X160778204Y-52578383D01*
X160778211Y-52578396D01*
X160858699Y-52698853D01*
X160858702Y-52698857D01*
X160961142Y-52801297D01*
X160961146Y-52801300D01*
X161081603Y-52881788D01*
X161081616Y-52881795D01*
X161215457Y-52937233D01*
X161215462Y-52937235D01*
X161332112Y-52960438D01*
X161357555Y-52965499D01*
X161357559Y-52965500D01*
X161357560Y-52965500D01*
X161502441Y-52965500D01*
X161502442Y-52965499D01*
X161644538Y-52937235D01*
X161778390Y-52881792D01*
X161898854Y-52801300D01*
X162001300Y-52698854D01*
X162081792Y-52578390D01*
X162137235Y-52444538D01*
X162165500Y-52302440D01*
X162165500Y-52157560D01*
X162165499Y-52157555D01*
X163234500Y-52157555D01*
X163234500Y-52302444D01*
X163262763Y-52444530D01*
X163262766Y-52444542D01*
X163318204Y-52578383D01*
X163318211Y-52578396D01*
X163398699Y-52698853D01*
X163398702Y-52698857D01*
X163501142Y-52801297D01*
X163501146Y-52801300D01*
X163621603Y-52881788D01*
X163621616Y-52881795D01*
X163755457Y-52937233D01*
X163755462Y-52937235D01*
X163872112Y-52960438D01*
X163897555Y-52965499D01*
X163897559Y-52965500D01*
X163897560Y-52965500D01*
X164042441Y-52965500D01*
X164042442Y-52965499D01*
X164184538Y-52937235D01*
X164318390Y-52881792D01*
X164438854Y-52801300D01*
X164541300Y-52698854D01*
X164621792Y-52578390D01*
X164677235Y-52444538D01*
X164705500Y-52302440D01*
X164705500Y-52157560D01*
X164705499Y-52157555D01*
X165774500Y-52157555D01*
X165774500Y-52302444D01*
X165802763Y-52444530D01*
X165802766Y-52444542D01*
X165858204Y-52578383D01*
X165858211Y-52578396D01*
X165938699Y-52698853D01*
X165938702Y-52698857D01*
X166041142Y-52801297D01*
X166041146Y-52801300D01*
X166161603Y-52881788D01*
X166161616Y-52881795D01*
X166295457Y-52937233D01*
X166295462Y-52937235D01*
X166412112Y-52960438D01*
X166437555Y-52965499D01*
X166437559Y-52965500D01*
X166437560Y-52965500D01*
X166582441Y-52965500D01*
X166582442Y-52965499D01*
X166724538Y-52937235D01*
X166858390Y-52881792D01*
X166978854Y-52801300D01*
X167081300Y-52698854D01*
X167161792Y-52578390D01*
X167217235Y-52444538D01*
X167245500Y-52302440D01*
X167245500Y-52157560D01*
X167245499Y-52157555D01*
X168314500Y-52157555D01*
X168314500Y-52302444D01*
X168342763Y-52444530D01*
X168342766Y-52444542D01*
X168398204Y-52578383D01*
X168398211Y-52578396D01*
X168478699Y-52698853D01*
X168478702Y-52698857D01*
X168581142Y-52801297D01*
X168581146Y-52801300D01*
X168701603Y-52881788D01*
X168701616Y-52881795D01*
X168835457Y-52937233D01*
X168835462Y-52937235D01*
X168952112Y-52960438D01*
X168977555Y-52965499D01*
X168977559Y-52965500D01*
X168977560Y-52965500D01*
X169122441Y-52965500D01*
X169122442Y-52965499D01*
X169264538Y-52937235D01*
X169398390Y-52881792D01*
X169518854Y-52801300D01*
X169621300Y-52698854D01*
X169701792Y-52578390D01*
X169757235Y-52444538D01*
X169785500Y-52302440D01*
X169785500Y-52157560D01*
X169785499Y-52157555D01*
X170854500Y-52157555D01*
X170854500Y-52302444D01*
X170882763Y-52444530D01*
X170882766Y-52444542D01*
X170938204Y-52578383D01*
X170938211Y-52578396D01*
X171018699Y-52698853D01*
X171018702Y-52698857D01*
X171121142Y-52801297D01*
X171121146Y-52801300D01*
X171241603Y-52881788D01*
X171241616Y-52881795D01*
X171375457Y-52937233D01*
X171375462Y-52937235D01*
X171492112Y-52960438D01*
X171517555Y-52965499D01*
X171517559Y-52965500D01*
X171663805Y-52965500D01*
X171730844Y-52985185D01*
X171776599Y-53037989D01*
X171786543Y-53107147D01*
X171781736Y-53127818D01*
X171747583Y-53232930D01*
X171719500Y-53410241D01*
X171719500Y-53589758D01*
X171747582Y-53767066D01*
X171747583Y-53767068D01*
X171781737Y-53872183D01*
X171783732Y-53942022D01*
X171747652Y-54001855D01*
X171684951Y-54032684D01*
X171663806Y-54034500D01*
X171517555Y-54034500D01*
X171375469Y-54062763D01*
X171375457Y-54062766D01*
X171241616Y-54118204D01*
X171241603Y-54118211D01*
X171121146Y-54198699D01*
X171121142Y-54198702D01*
X171018702Y-54301142D01*
X171018699Y-54301146D01*
X170938211Y-54421603D01*
X170938204Y-54421616D01*
X170882766Y-54555457D01*
X170882763Y-54555469D01*
X170854500Y-54697555D01*
X170854500Y-54842444D01*
X170882763Y-54984530D01*
X170882766Y-54984542D01*
X170938204Y-55118383D01*
X170938211Y-55118396D01*
X171018699Y-55238853D01*
X171018702Y-55238857D01*
X171121142Y-55341297D01*
X171121146Y-55341300D01*
X171241603Y-55421788D01*
X171241616Y-55421795D01*
X171375457Y-55477233D01*
X171375462Y-55477235D01*
X171517555Y-55505499D01*
X171517559Y-55505500D01*
X171517560Y-55505500D01*
X171662441Y-55505500D01*
X171662442Y-55505499D01*
X171804538Y-55477235D01*
X171938390Y-55421792D01*
X172058854Y-55341300D01*
X172161300Y-55238854D01*
X172241792Y-55118390D01*
X172297235Y-54984538D01*
X172325500Y-54842440D01*
X172325500Y-54697560D01*
X172325500Y-54697559D01*
X172325500Y-54696194D01*
X172345185Y-54629155D01*
X172397989Y-54583400D01*
X172467147Y-54573456D01*
X172487809Y-54578260D01*
X172592932Y-54612417D01*
X172770241Y-54640500D01*
X172770242Y-54640500D01*
X172949758Y-54640500D01*
X172949759Y-54640500D01*
X173127068Y-54612417D01*
X173232183Y-54578262D01*
X173302022Y-54576268D01*
X173361855Y-54612348D01*
X173392684Y-54675049D01*
X173394500Y-54696194D01*
X173394500Y-54842444D01*
X173422763Y-54984530D01*
X173422766Y-54984542D01*
X173478204Y-55118383D01*
X173478211Y-55118396D01*
X173558699Y-55238853D01*
X173558702Y-55238857D01*
X173661142Y-55341297D01*
X173661146Y-55341300D01*
X173781603Y-55421788D01*
X173781616Y-55421795D01*
X173915457Y-55477233D01*
X173915462Y-55477235D01*
X174057555Y-55505499D01*
X174057559Y-55505500D01*
X174057560Y-55505500D01*
X174202441Y-55505500D01*
X174202442Y-55505499D01*
X174344538Y-55477235D01*
X174478390Y-55421792D01*
X174598854Y-55341300D01*
X174701300Y-55238854D01*
X174781792Y-55118390D01*
X174837235Y-54984538D01*
X174865500Y-54842440D01*
X174865500Y-54697560D01*
X174837235Y-54555462D01*
X174804972Y-54477572D01*
X174781795Y-54421616D01*
X174781788Y-54421603D01*
X174701300Y-54301146D01*
X174701297Y-54301142D01*
X174598857Y-54198702D01*
X174598853Y-54198699D01*
X174478396Y-54118211D01*
X174478383Y-54118204D01*
X174344542Y-54062766D01*
X174344530Y-54062763D01*
X174202444Y-54034500D01*
X174202440Y-54034500D01*
X174057560Y-54034500D01*
X174056194Y-54034500D01*
X173989155Y-54014815D01*
X173943400Y-53962011D01*
X173933456Y-53892853D01*
X173938260Y-53872190D01*
X173972417Y-53767068D01*
X174000500Y-53589759D01*
X174000500Y-53410241D01*
X173992030Y-53356762D01*
X176449500Y-53356762D01*
X176449500Y-53643237D01*
X176481572Y-53927891D01*
X176545317Y-54207181D01*
X176545321Y-54207193D01*
X176639929Y-54477565D01*
X176639935Y-54477579D01*
X176764223Y-54735666D01*
X176764225Y-54735669D01*
X176916634Y-54978227D01*
X177095243Y-55202195D01*
X177297805Y-55404757D01*
X177521773Y-55583366D01*
X177764331Y-55735775D01*
X178022428Y-55860068D01*
X178112558Y-55891606D01*
X178292806Y-55954678D01*
X178292818Y-55954682D01*
X178572102Y-56018426D01*
X178572105Y-56018426D01*
X178572108Y-56018427D01*
X178572107Y-56018427D01*
X178714434Y-56034463D01*
X178856763Y-56050499D01*
X178856764Y-56050500D01*
X178856767Y-56050500D01*
X179143236Y-56050500D01*
X179143236Y-56050499D01*
X179348815Y-56027336D01*
X179427891Y-56018427D01*
X179427892Y-56018426D01*
X179427898Y-56018426D01*
X179707182Y-55954682D01*
X179977572Y-55860068D01*
X180235669Y-55735775D01*
X180478227Y-55583366D01*
X180702195Y-55404757D01*
X180904757Y-55202195D01*
X181083366Y-54978227D01*
X181235775Y-54735669D01*
X181360068Y-54477572D01*
X181454682Y-54207182D01*
X181518426Y-53927898D01*
X181550500Y-53643233D01*
X181550500Y-53356767D01*
X181518426Y-53072102D01*
X181454682Y-52792818D01*
X181421803Y-52698857D01*
X181379648Y-52578383D01*
X181360068Y-52522428D01*
X181235775Y-52264331D01*
X181083366Y-52021773D01*
X180904757Y-51797805D01*
X180702195Y-51595243D01*
X180662740Y-51563779D01*
X180645315Y-51549883D01*
X180478227Y-51416634D01*
X180235669Y-51264225D01*
X180235666Y-51264223D01*
X179977579Y-51139935D01*
X179977565Y-51139929D01*
X179707193Y-51045321D01*
X179707181Y-51045317D01*
X179427891Y-50981572D01*
X179427892Y-50981572D01*
X179143237Y-50949500D01*
X179143233Y-50949500D01*
X178856767Y-50949500D01*
X178856762Y-50949500D01*
X178572108Y-50981572D01*
X178292818Y-51045317D01*
X178292806Y-51045321D01*
X178022434Y-51139929D01*
X178022420Y-51139935D01*
X177764333Y-51264223D01*
X177521774Y-51416633D01*
X177297805Y-51595242D01*
X177095242Y-51797805D01*
X176916633Y-52021774D01*
X176764223Y-52264333D01*
X176639935Y-52522420D01*
X176639929Y-52522434D01*
X176545321Y-52792806D01*
X176545317Y-52792818D01*
X176481572Y-53072108D01*
X176449500Y-53356762D01*
X173992030Y-53356762D01*
X173972417Y-53232932D01*
X173938262Y-53127816D01*
X173936268Y-53057978D01*
X173972348Y-52998145D01*
X174035049Y-52967316D01*
X174056194Y-52965500D01*
X174202441Y-52965500D01*
X174202442Y-52965499D01*
X174344538Y-52937235D01*
X174478390Y-52881792D01*
X174598854Y-52801300D01*
X174701300Y-52698854D01*
X174781792Y-52578390D01*
X174837235Y-52444538D01*
X174865500Y-52302440D01*
X174865500Y-52157560D01*
X174837235Y-52015462D01*
X174837233Y-52015457D01*
X174781795Y-51881616D01*
X174781788Y-51881603D01*
X174701300Y-51761146D01*
X174701297Y-51761142D01*
X174598857Y-51658702D01*
X174598853Y-51658699D01*
X174478396Y-51578211D01*
X174478383Y-51578204D01*
X174344542Y-51522766D01*
X174344530Y-51522763D01*
X174202444Y-51494500D01*
X174202440Y-51494500D01*
X174057560Y-51494500D01*
X174057555Y-51494500D01*
X173915469Y-51522763D01*
X173915457Y-51522766D01*
X173781616Y-51578204D01*
X173781603Y-51578211D01*
X173661146Y-51658699D01*
X173661142Y-51658702D01*
X173558702Y-51761142D01*
X173558699Y-51761146D01*
X173478211Y-51881603D01*
X173478204Y-51881616D01*
X173422766Y-52015457D01*
X173422763Y-52015469D01*
X173394500Y-52157555D01*
X173394500Y-52303805D01*
X173374815Y-52370844D01*
X173322011Y-52416599D01*
X173252853Y-52426543D01*
X173232182Y-52421736D01*
X173127069Y-52387583D01*
X173021382Y-52370844D01*
X172949759Y-52359500D01*
X172770241Y-52359500D01*
X172734779Y-52365116D01*
X172592928Y-52387583D01*
X172487817Y-52421735D01*
X172417976Y-52423730D01*
X172358143Y-52387649D01*
X172327316Y-52324947D01*
X172325500Y-52303804D01*
X172325500Y-52157559D01*
X172325499Y-52157555D01*
X172312953Y-52094483D01*
X172297235Y-52015462D01*
X172297233Y-52015457D01*
X172241795Y-51881616D01*
X172241788Y-51881603D01*
X172161300Y-51761146D01*
X172161297Y-51761142D01*
X172058857Y-51658702D01*
X172058853Y-51658699D01*
X171938396Y-51578211D01*
X171938383Y-51578204D01*
X171804542Y-51522766D01*
X171804530Y-51522763D01*
X171662444Y-51494500D01*
X171662440Y-51494500D01*
X171517560Y-51494500D01*
X171517555Y-51494500D01*
X171375469Y-51522763D01*
X171375457Y-51522766D01*
X171241616Y-51578204D01*
X171241603Y-51578211D01*
X171121146Y-51658699D01*
X171121142Y-51658702D01*
X171018702Y-51761142D01*
X171018699Y-51761146D01*
X170938211Y-51881603D01*
X170938204Y-51881616D01*
X170882766Y-52015457D01*
X170882763Y-52015469D01*
X170854500Y-52157555D01*
X169785499Y-52157555D01*
X169757235Y-52015462D01*
X169757233Y-52015457D01*
X169701795Y-51881616D01*
X169701788Y-51881603D01*
X169621300Y-51761146D01*
X169621297Y-51761142D01*
X169518857Y-51658702D01*
X169518853Y-51658699D01*
X169398396Y-51578211D01*
X169398383Y-51578204D01*
X169264542Y-51522766D01*
X169264530Y-51522763D01*
X169122444Y-51494500D01*
X169122440Y-51494500D01*
X168977560Y-51494500D01*
X168977555Y-51494500D01*
X168835469Y-51522763D01*
X168835457Y-51522766D01*
X168701616Y-51578204D01*
X168701603Y-51578211D01*
X168581146Y-51658699D01*
X168581142Y-51658702D01*
X168478702Y-51761142D01*
X168478699Y-51761146D01*
X168398211Y-51881603D01*
X168398204Y-51881616D01*
X168342766Y-52015457D01*
X168342763Y-52015469D01*
X168314500Y-52157555D01*
X167245499Y-52157555D01*
X167217235Y-52015462D01*
X167217233Y-52015457D01*
X167161795Y-51881616D01*
X167161788Y-51881603D01*
X167081300Y-51761146D01*
X167081297Y-51761142D01*
X166978857Y-51658702D01*
X166978853Y-51658699D01*
X166858396Y-51578211D01*
X166858383Y-51578204D01*
X166724542Y-51522766D01*
X166724530Y-51522763D01*
X166582444Y-51494500D01*
X166582440Y-51494500D01*
X166437560Y-51494500D01*
X166437555Y-51494500D01*
X166295469Y-51522763D01*
X166295457Y-51522766D01*
X166161616Y-51578204D01*
X166161603Y-51578211D01*
X166041146Y-51658699D01*
X166041142Y-51658702D01*
X165938702Y-51761142D01*
X165938699Y-51761146D01*
X165858211Y-51881603D01*
X165858204Y-51881616D01*
X165802766Y-52015457D01*
X165802763Y-52015469D01*
X165774500Y-52157555D01*
X164705499Y-52157555D01*
X164677235Y-52015462D01*
X164677233Y-52015457D01*
X164621795Y-51881616D01*
X164621788Y-51881603D01*
X164541300Y-51761146D01*
X164541297Y-51761142D01*
X164438857Y-51658702D01*
X164438853Y-51658699D01*
X164318396Y-51578211D01*
X164318383Y-51578204D01*
X164184542Y-51522766D01*
X164184530Y-51522763D01*
X164042444Y-51494500D01*
X164042440Y-51494500D01*
X163897560Y-51494500D01*
X163897555Y-51494500D01*
X163755469Y-51522763D01*
X163755457Y-51522766D01*
X163621616Y-51578204D01*
X163621603Y-51578211D01*
X163501146Y-51658699D01*
X163501142Y-51658702D01*
X163398702Y-51761142D01*
X163398699Y-51761146D01*
X163318211Y-51881603D01*
X163318204Y-51881616D01*
X163262766Y-52015457D01*
X163262763Y-52015469D01*
X163234500Y-52157555D01*
X162165499Y-52157555D01*
X162137235Y-52015462D01*
X162137233Y-52015457D01*
X162081795Y-51881616D01*
X162081788Y-51881603D01*
X162001300Y-51761146D01*
X162001297Y-51761142D01*
X161898857Y-51658702D01*
X161898853Y-51658699D01*
X161778396Y-51578211D01*
X161778383Y-51578204D01*
X161644542Y-51522766D01*
X161644530Y-51522763D01*
X161502444Y-51494500D01*
X161502440Y-51494500D01*
X161357560Y-51494500D01*
X161357555Y-51494500D01*
X161215469Y-51522763D01*
X161215457Y-51522766D01*
X161081616Y-51578204D01*
X161081603Y-51578211D01*
X160961146Y-51658699D01*
X160961142Y-51658702D01*
X160858702Y-51761142D01*
X160858699Y-51761146D01*
X160778211Y-51881603D01*
X160778204Y-51881616D01*
X160722766Y-52015457D01*
X160722763Y-52015469D01*
X160694500Y-52157555D01*
X159625499Y-52157555D01*
X159597235Y-52015462D01*
X159597233Y-52015457D01*
X159541795Y-51881616D01*
X159541788Y-51881603D01*
X159461300Y-51761146D01*
X159461297Y-51761142D01*
X159358857Y-51658702D01*
X159358853Y-51658699D01*
X159238396Y-51578211D01*
X159238383Y-51578204D01*
X159104542Y-51522766D01*
X159104530Y-51522763D01*
X158962444Y-51494500D01*
X158962440Y-51494500D01*
X158817560Y-51494500D01*
X158817555Y-51494500D01*
X158675469Y-51522763D01*
X158675457Y-51522766D01*
X158541616Y-51578204D01*
X158541603Y-51578211D01*
X158421146Y-51658699D01*
X158421142Y-51658702D01*
X158318702Y-51761142D01*
X158318699Y-51761146D01*
X158238211Y-51881603D01*
X158238204Y-51881616D01*
X158182766Y-52015457D01*
X158182763Y-52015469D01*
X158154500Y-52157555D01*
X157085499Y-52157555D01*
X157057235Y-52015462D01*
X157057233Y-52015457D01*
X157001795Y-51881616D01*
X157001788Y-51881603D01*
X156921300Y-51761146D01*
X156921297Y-51761142D01*
X156818857Y-51658702D01*
X156818853Y-51658699D01*
X156698396Y-51578211D01*
X156698383Y-51578204D01*
X156564542Y-51522766D01*
X156564530Y-51522763D01*
X156422444Y-51494500D01*
X156422440Y-51494500D01*
X156277560Y-51494500D01*
X156277555Y-51494500D01*
X156135469Y-51522763D01*
X156135457Y-51522766D01*
X156001616Y-51578204D01*
X156001603Y-51578211D01*
X155881146Y-51658699D01*
X155881142Y-51658702D01*
X155778702Y-51761142D01*
X155778699Y-51761146D01*
X155698211Y-51881603D01*
X155698204Y-51881616D01*
X155642766Y-52015457D01*
X155642763Y-52015469D01*
X155614500Y-52157555D01*
X154545499Y-52157555D01*
X154517235Y-52015462D01*
X154517233Y-52015457D01*
X154461795Y-51881616D01*
X154461788Y-51881603D01*
X154381300Y-51761146D01*
X154381297Y-51761142D01*
X154278857Y-51658702D01*
X154278853Y-51658699D01*
X154158396Y-51578211D01*
X154158383Y-51578204D01*
X154024542Y-51522766D01*
X154024530Y-51522763D01*
X153882444Y-51494500D01*
X153882440Y-51494500D01*
X153737560Y-51494500D01*
X153737555Y-51494500D01*
X153595469Y-51522763D01*
X153595457Y-51522766D01*
X153461616Y-51578204D01*
X153461603Y-51578211D01*
X153341146Y-51658699D01*
X153341142Y-51658702D01*
X153238702Y-51761142D01*
X153238699Y-51761146D01*
X153158211Y-51881603D01*
X153158204Y-51881616D01*
X153102766Y-52015457D01*
X153102763Y-52015469D01*
X153074500Y-52157555D01*
X152005499Y-52157555D01*
X151977235Y-52015462D01*
X151977233Y-52015457D01*
X151921795Y-51881616D01*
X151921788Y-51881603D01*
X151841300Y-51761146D01*
X151841297Y-51761142D01*
X151738857Y-51658702D01*
X151738853Y-51658699D01*
X151618396Y-51578211D01*
X151618383Y-51578204D01*
X151484542Y-51522766D01*
X151484530Y-51522763D01*
X151342444Y-51494500D01*
X151342440Y-51494500D01*
X151197560Y-51494500D01*
X151197555Y-51494500D01*
X151055469Y-51522763D01*
X151055457Y-51522766D01*
X150921616Y-51578204D01*
X150921603Y-51578211D01*
X150801146Y-51658699D01*
X150801142Y-51658702D01*
X150698702Y-51761142D01*
X150698699Y-51761146D01*
X150618211Y-51881603D01*
X150618204Y-51881616D01*
X150562766Y-52015457D01*
X150562763Y-52015469D01*
X150534500Y-52157555D01*
X149465499Y-52157555D01*
X149437235Y-52015462D01*
X149437233Y-52015457D01*
X149381795Y-51881616D01*
X149381788Y-51881603D01*
X149301300Y-51761146D01*
X149301297Y-51761142D01*
X149198857Y-51658702D01*
X149198853Y-51658699D01*
X149078396Y-51578211D01*
X149078383Y-51578204D01*
X148944542Y-51522766D01*
X148944530Y-51522763D01*
X148802444Y-51494500D01*
X148802440Y-51494500D01*
X148657560Y-51494500D01*
X148657555Y-51494500D01*
X148515469Y-51522763D01*
X148515457Y-51522766D01*
X148381616Y-51578204D01*
X148381603Y-51578211D01*
X148261146Y-51658699D01*
X148261142Y-51658702D01*
X148158702Y-51761142D01*
X148158699Y-51761146D01*
X148078211Y-51881603D01*
X148078204Y-51881616D01*
X148022766Y-52015457D01*
X148022763Y-52015469D01*
X147994500Y-52157555D01*
X146925499Y-52157555D01*
X146897235Y-52015462D01*
X146897233Y-52015457D01*
X146841795Y-51881616D01*
X146841788Y-51881603D01*
X146761300Y-51761146D01*
X146761297Y-51761142D01*
X146658857Y-51658702D01*
X146658853Y-51658699D01*
X146538396Y-51578211D01*
X146538383Y-51578204D01*
X146404542Y-51522766D01*
X146404530Y-51522763D01*
X146262444Y-51494500D01*
X146262440Y-51494500D01*
X146117560Y-51494500D01*
X146117555Y-51494500D01*
X145975469Y-51522763D01*
X145975457Y-51522766D01*
X145841616Y-51578204D01*
X145841603Y-51578211D01*
X145721146Y-51658699D01*
X145721142Y-51658702D01*
X145618702Y-51761142D01*
X145618699Y-51761146D01*
X145538211Y-51881603D01*
X145538204Y-51881616D01*
X145482766Y-52015457D01*
X145482763Y-52015469D01*
X145454500Y-52157555D01*
X144385499Y-52157555D01*
X144357235Y-52015462D01*
X144357233Y-52015457D01*
X144301795Y-51881616D01*
X144301788Y-51881603D01*
X144221300Y-51761146D01*
X144221297Y-51761142D01*
X144118857Y-51658702D01*
X144118853Y-51658699D01*
X143998396Y-51578211D01*
X143998383Y-51578204D01*
X143864542Y-51522766D01*
X143864530Y-51522763D01*
X143722444Y-51494500D01*
X143722440Y-51494500D01*
X143577560Y-51494500D01*
X143577555Y-51494500D01*
X143435469Y-51522763D01*
X143435457Y-51522766D01*
X143301616Y-51578204D01*
X143301603Y-51578211D01*
X143181146Y-51658699D01*
X143181142Y-51658702D01*
X143078702Y-51761142D01*
X143078699Y-51761146D01*
X142998211Y-51881603D01*
X142998204Y-51881616D01*
X142942766Y-52015457D01*
X142942763Y-52015469D01*
X142914500Y-52157555D01*
X141845499Y-52157555D01*
X141817235Y-52015462D01*
X141817233Y-52015457D01*
X141761795Y-51881616D01*
X141761788Y-51881603D01*
X141681300Y-51761146D01*
X141681297Y-51761142D01*
X141578857Y-51658702D01*
X141578853Y-51658699D01*
X141458396Y-51578211D01*
X141458383Y-51578204D01*
X141324542Y-51522766D01*
X141324530Y-51522763D01*
X141182444Y-51494500D01*
X141182440Y-51494500D01*
X141037560Y-51494500D01*
X141037555Y-51494500D01*
X140895469Y-51522763D01*
X140895457Y-51522766D01*
X140761616Y-51578204D01*
X140761603Y-51578211D01*
X140641146Y-51658699D01*
X140641142Y-51658702D01*
X140538702Y-51761142D01*
X140538699Y-51761146D01*
X140458211Y-51881603D01*
X140458204Y-51881616D01*
X140402766Y-52015457D01*
X140402763Y-52015469D01*
X140374500Y-52157555D01*
X139305499Y-52157555D01*
X139277235Y-52015462D01*
X139277233Y-52015457D01*
X139221795Y-51881616D01*
X139221788Y-51881603D01*
X139141300Y-51761146D01*
X139141297Y-51761142D01*
X139038857Y-51658702D01*
X139038853Y-51658699D01*
X138918396Y-51578211D01*
X138918383Y-51578204D01*
X138784542Y-51522766D01*
X138784530Y-51522763D01*
X138642444Y-51494500D01*
X138642440Y-51494500D01*
X138497560Y-51494500D01*
X138497555Y-51494500D01*
X138355469Y-51522763D01*
X138355457Y-51522766D01*
X138221616Y-51578204D01*
X138221603Y-51578211D01*
X138101146Y-51658699D01*
X138101142Y-51658702D01*
X137998702Y-51761142D01*
X137998699Y-51761146D01*
X137918211Y-51881603D01*
X137918204Y-51881616D01*
X137862766Y-52015457D01*
X137862763Y-52015469D01*
X137834500Y-52157555D01*
X136765499Y-52157555D01*
X136737235Y-52015462D01*
X136737233Y-52015457D01*
X136681795Y-51881616D01*
X136681788Y-51881603D01*
X136601300Y-51761146D01*
X136601297Y-51761142D01*
X136498857Y-51658702D01*
X136498853Y-51658699D01*
X136378396Y-51578211D01*
X136378383Y-51578204D01*
X136244542Y-51522766D01*
X136244530Y-51522763D01*
X136102444Y-51494500D01*
X136102440Y-51494500D01*
X135957560Y-51494500D01*
X135957555Y-51494500D01*
X135815469Y-51522763D01*
X135815457Y-51522766D01*
X135681616Y-51578204D01*
X135681603Y-51578211D01*
X135561146Y-51658699D01*
X135561142Y-51658702D01*
X135458702Y-51761142D01*
X135458699Y-51761146D01*
X135378211Y-51881603D01*
X135378204Y-51881616D01*
X135322766Y-52015457D01*
X135322763Y-52015469D01*
X135294500Y-52157555D01*
X134225499Y-52157555D01*
X134197235Y-52015462D01*
X134197233Y-52015457D01*
X134141795Y-51881616D01*
X134141788Y-51881603D01*
X134061300Y-51761146D01*
X134061297Y-51761142D01*
X133958857Y-51658702D01*
X133958853Y-51658699D01*
X133838396Y-51578211D01*
X133838383Y-51578204D01*
X133704542Y-51522766D01*
X133704530Y-51522763D01*
X133562444Y-51494500D01*
X133562440Y-51494500D01*
X133417560Y-51494500D01*
X133417555Y-51494500D01*
X133275469Y-51522763D01*
X133275457Y-51522766D01*
X133141616Y-51578204D01*
X133141603Y-51578211D01*
X133021146Y-51658699D01*
X133021142Y-51658702D01*
X132918702Y-51761142D01*
X132918699Y-51761146D01*
X132838211Y-51881603D01*
X132838204Y-51881616D01*
X132782766Y-52015457D01*
X132782763Y-52015469D01*
X132754500Y-52157555D01*
X131685499Y-52157555D01*
X131657235Y-52015462D01*
X131657233Y-52015457D01*
X131601795Y-51881616D01*
X131601788Y-51881603D01*
X131521300Y-51761146D01*
X131521297Y-51761142D01*
X131418857Y-51658702D01*
X131418853Y-51658699D01*
X131298396Y-51578211D01*
X131298383Y-51578204D01*
X131164542Y-51522766D01*
X131164530Y-51522763D01*
X131022444Y-51494500D01*
X131022440Y-51494500D01*
X130877560Y-51494500D01*
X130877555Y-51494500D01*
X130735469Y-51522763D01*
X130735457Y-51522766D01*
X130601616Y-51578204D01*
X130601603Y-51578211D01*
X130481146Y-51658699D01*
X130481142Y-51658702D01*
X130378702Y-51761142D01*
X130378699Y-51761146D01*
X130298211Y-51881603D01*
X130298204Y-51881616D01*
X130242766Y-52015457D01*
X130242763Y-52015469D01*
X130214500Y-52157555D01*
X129145499Y-52157555D01*
X129117235Y-52015462D01*
X129117233Y-52015457D01*
X129061795Y-51881616D01*
X129061788Y-51881603D01*
X128981300Y-51761146D01*
X128981297Y-51761142D01*
X128878857Y-51658702D01*
X128878853Y-51658699D01*
X128758396Y-51578211D01*
X128758383Y-51578204D01*
X128624542Y-51522766D01*
X128624530Y-51522763D01*
X128482444Y-51494500D01*
X128482440Y-51494500D01*
X128337560Y-51494500D01*
X128337555Y-51494500D01*
X128195469Y-51522763D01*
X128195457Y-51522766D01*
X128061616Y-51578204D01*
X128061603Y-51578211D01*
X127941146Y-51658699D01*
X127941142Y-51658702D01*
X127838702Y-51761142D01*
X127838699Y-51761146D01*
X127758211Y-51881603D01*
X127758204Y-51881616D01*
X127702766Y-52015457D01*
X127702763Y-52015469D01*
X127674500Y-52157555D01*
X127674500Y-52303805D01*
X127654815Y-52370844D01*
X127602011Y-52416599D01*
X127532853Y-52426543D01*
X127512182Y-52421736D01*
X127407069Y-52387583D01*
X127301382Y-52370844D01*
X127229759Y-52359500D01*
X127050241Y-52359500D01*
X127014779Y-52365116D01*
X126872928Y-52387583D01*
X126767817Y-52421735D01*
X126697976Y-52423730D01*
X126638143Y-52387649D01*
X126607316Y-52324947D01*
X126605500Y-52303804D01*
X126605500Y-52157559D01*
X126605499Y-52157555D01*
X126592953Y-52094483D01*
X126577235Y-52015462D01*
X126577233Y-52015457D01*
X126521795Y-51881616D01*
X126521788Y-51881603D01*
X126441300Y-51761146D01*
X126437435Y-51756436D01*
X126438653Y-51755436D01*
X126408851Y-51700858D01*
X126413835Y-51631166D01*
X126455707Y-51575233D01*
X126521171Y-51550816D01*
X126530017Y-51550500D01*
X127018526Y-51550500D01*
X127042716Y-51552882D01*
X127081004Y-51560498D01*
X127081005Y-51560499D01*
X127081006Y-51560499D01*
X127218995Y-51560499D01*
X127218996Y-51560498D01*
X127354328Y-51533580D01*
X127481811Y-51480775D01*
X127596543Y-51404114D01*
X127694114Y-51306543D01*
X127770775Y-51191811D01*
X127823580Y-51064328D01*
X127850499Y-50928994D01*
X127850499Y-50791006D01*
X127823580Y-50655672D01*
X127770775Y-50528189D01*
X127747522Y-50493389D01*
X127726646Y-50426713D01*
X127745131Y-50359333D01*
X127797110Y-50312643D01*
X127850626Y-50300500D01*
X179452405Y-50300500D01*
X179496519Y-50300500D01*
X179503472Y-50300695D01*
G37*
%TD.AperFunction*%
%TD*%
%TA.AperFunction,Conductor*%
%TO.N,+5V*%
G36*
X126459191Y-74518907D02*
G01*
X126495155Y-74568407D01*
X126500000Y-74599000D01*
X126500000Y-76000000D01*
X127143232Y-76643232D01*
X127405577Y-76905577D01*
X127433354Y-76960094D01*
X127423783Y-77020526D01*
X127380518Y-77063791D01*
X127363465Y-77070571D01*
X127310931Y-77085996D01*
X127310926Y-77085998D01*
X127201952Y-77156031D01*
X127117117Y-77253938D01*
X127063302Y-77371774D01*
X127044867Y-77499997D01*
X127044867Y-77500002D01*
X127063302Y-77628225D01*
X127112371Y-77735669D01*
X127117118Y-77746063D01*
X127201951Y-77843967D01*
X127201952Y-77843968D01*
X127310926Y-77914001D01*
X127310931Y-77914004D01*
X127435228Y-77950500D01*
X127435230Y-77950500D01*
X127564770Y-77950500D01*
X127564772Y-77950500D01*
X127689069Y-77914004D01*
X127798049Y-77843967D01*
X127882882Y-77746063D01*
X127936697Y-77628226D01*
X127936696Y-77628226D01*
X127937511Y-77626444D01*
X127978883Y-77581367D01*
X128038850Y-77569216D01*
X128094506Y-77594634D01*
X128097544Y-77597544D01*
X128250000Y-77750000D01*
X131401000Y-77750000D01*
X131459191Y-77768907D01*
X131495155Y-77818407D01*
X131500000Y-77849000D01*
X131500000Y-79600500D01*
X131481093Y-79658691D01*
X131431593Y-79694655D01*
X131401000Y-79699500D01*
X123599000Y-79699500D01*
X123540809Y-79680593D01*
X123504845Y-79631093D01*
X123500000Y-79600500D01*
X123500000Y-77499997D01*
X124544867Y-77499997D01*
X124544867Y-77500002D01*
X124563302Y-77628225D01*
X124612371Y-77735669D01*
X124617118Y-77746063D01*
X124701951Y-77843967D01*
X124701952Y-77843968D01*
X124810926Y-77914001D01*
X124810931Y-77914004D01*
X124935228Y-77950500D01*
X124935230Y-77950500D01*
X125064770Y-77950500D01*
X125064772Y-77950500D01*
X125189069Y-77914004D01*
X125298049Y-77843967D01*
X125382882Y-77746063D01*
X125436697Y-77628226D01*
X125455133Y-77500000D01*
X125451908Y-77477572D01*
X125436697Y-77371774D01*
X125382882Y-77253938D01*
X125382882Y-77253937D01*
X125298049Y-77156033D01*
X125298048Y-77156032D01*
X125298047Y-77156031D01*
X125189073Y-77085998D01*
X125189070Y-77085996D01*
X125189069Y-77085996D01*
X125189066Y-77085995D01*
X125064774Y-77049500D01*
X125064772Y-77049500D01*
X124935228Y-77049500D01*
X124935225Y-77049500D01*
X124810933Y-77085995D01*
X124810926Y-77085998D01*
X124701952Y-77156031D01*
X124617117Y-77253938D01*
X124563302Y-77371774D01*
X124544867Y-77499997D01*
X123500000Y-77499997D01*
X123500000Y-77019782D01*
X123502482Y-76997752D01*
X123518426Y-76927898D01*
X123550500Y-76643233D01*
X123550500Y-76356767D01*
X123518426Y-76072102D01*
X123502482Y-76002245D01*
X123500000Y-75980216D01*
X123500000Y-74599000D01*
X123518907Y-74540809D01*
X123568407Y-74504845D01*
X123599000Y-74500000D01*
X126401000Y-74500000D01*
X126459191Y-74518907D01*
G37*
%TD.AperFunction*%
%TD*%
%TA.AperFunction,Conductor*%
%TO.N,/~{POWER_ON}*%
G36*
X177222135Y-67591973D02*
G01*
X177228443Y-67598328D01*
X177229089Y-67605062D01*
X177151883Y-67990597D01*
X177146899Y-67998037D01*
X177140411Y-68000000D01*
X176859589Y-68000000D01*
X176851316Y-67996573D01*
X176848117Y-67990597D01*
X176845326Y-67976662D01*
X176770910Y-67605060D01*
X176772645Y-67596277D01*
X176777862Y-67591974D01*
X176995484Y-67500889D01*
X177004436Y-67500857D01*
X177222135Y-67591973D01*
G37*
%TD.AperFunction*%
%TD*%
%TA.AperFunction,Conductor*%
%TO.N,/~{POWER_ON}*%
G36*
X162754268Y-73047162D02*
G01*
X162952837Y-73245731D01*
X162956264Y-73254004D01*
X162954301Y-73260492D01*
X162736281Y-73587700D01*
X162728841Y-73592684D01*
X162722107Y-73592038D01*
X162503824Y-73502564D01*
X162497468Y-73496255D01*
X162497435Y-73496175D01*
X162407961Y-73277890D01*
X162407994Y-73268938D01*
X162412296Y-73263721D01*
X162739507Y-73045697D01*
X162748292Y-73043963D01*
X162754268Y-73047162D01*
G37*
%TD.AperFunction*%
%TD*%
%TA.AperFunction,Conductor*%
%TO.N,VBUS*%
G36*
X125998913Y-59801308D02*
G01*
X126465634Y-59848927D01*
X126473515Y-59853176D01*
X126476145Y-59860567D01*
X126476145Y-60141557D01*
X126472718Y-60149830D01*
X126468132Y-60152661D01*
X126092054Y-60277551D01*
X126083123Y-60276906D01*
X126077574Y-60270964D01*
X126026874Y-60149830D01*
X125986006Y-60052188D01*
X125985100Y-60047627D01*
X125986039Y-59812901D01*
X125989499Y-59804643D01*
X125997786Y-59801249D01*
X125998913Y-59801308D01*
G37*
%TD.AperFunction*%
%TD*%
%TA.AperFunction,Conductor*%
%TO.N,VBUS*%
G36*
X139903722Y-60272645D02*
G01*
X139908027Y-60277865D01*
X139999109Y-60495483D01*
X139999142Y-60504438D01*
X139999109Y-60504517D01*
X139908027Y-60722134D01*
X139901671Y-60728443D01*
X139894937Y-60729089D01*
X139509403Y-60651883D01*
X139501963Y-60646899D01*
X139500000Y-60640411D01*
X139500000Y-60359588D01*
X139503427Y-60351315D01*
X139509400Y-60348117D01*
X139894939Y-60270910D01*
X139903722Y-60272645D01*
G37*
%TD.AperFunction*%
%TD*%
%TA.AperFunction,Conductor*%
%TO.N,/I2C2_SDA*%
G36*
X169472249Y-66486035D02*
G01*
X169480507Y-66489495D01*
X169483901Y-66497782D01*
X169483729Y-66499731D01*
X169401680Y-66973620D01*
X169396892Y-66981187D01*
X169390152Y-66983324D01*
X169109257Y-66983324D01*
X169100984Y-66979897D01*
X169097871Y-66974314D01*
X169097707Y-66973620D01*
X169007401Y-66591413D01*
X169008833Y-66582576D01*
X169014268Y-66577933D01*
X169233903Y-66486006D01*
X169238462Y-66485100D01*
X169472249Y-66486035D01*
G37*
%TD.AperFunction*%
%TD*%
%TA.AperFunction,Conductor*%
%TO.N,/I2C2_SDA*%
G36*
X169398684Y-67503427D02*
G01*
X169401883Y-67509403D01*
X169479089Y-67894937D01*
X169477354Y-67903722D01*
X169472134Y-67908027D01*
X169254517Y-67999109D01*
X169245563Y-67999142D01*
X169245483Y-67999109D01*
X169027865Y-67908027D01*
X169021556Y-67901672D01*
X169020910Y-67894939D01*
X169098117Y-67509403D01*
X169103101Y-67501963D01*
X169109589Y-67500000D01*
X169390411Y-67500000D01*
X169398684Y-67503427D01*
G37*
%TD.AperFunction*%
%TD*%
%TA.AperFunction,Conductor*%
%TO.N,/I2C2_SCL*%
G36*
X169403722Y-61622645D02*
G01*
X169408027Y-61627865D01*
X169499109Y-61845483D01*
X169499142Y-61854438D01*
X169499109Y-61854517D01*
X169408027Y-62072134D01*
X169401671Y-62078443D01*
X169394937Y-62079089D01*
X169009403Y-62001883D01*
X169001963Y-61996899D01*
X169000000Y-61990411D01*
X169000000Y-61709588D01*
X169003427Y-61701315D01*
X169009400Y-61698117D01*
X169394939Y-61620910D01*
X169403722Y-61622645D01*
G37*
%TD.AperFunction*%
%TD*%
%TA.AperFunction,Conductor*%
%TO.N,+3V3*%
G36*
X169981061Y-59907994D02*
G01*
X169986279Y-59912298D01*
X170043007Y-59997435D01*
X170204301Y-60239507D01*
X170206036Y-60248292D01*
X170202837Y-60254268D01*
X170004268Y-60452837D01*
X169995995Y-60456264D01*
X169989507Y-60454301D01*
X169786067Y-60318748D01*
X169662298Y-60236280D01*
X169657315Y-60228841D01*
X169657960Y-60222109D01*
X169747436Y-60003822D01*
X169753743Y-59997468D01*
X169972109Y-59907961D01*
X169981061Y-59907994D01*
G37*
%TD.AperFunction*%
%TD*%
%TA.AperFunction,Conductor*%
%TO.N,+3V3*%
G36*
X167240599Y-64108116D02*
G01*
X167248037Y-64113099D01*
X167250000Y-64119587D01*
X167250000Y-64400410D01*
X167246573Y-64408683D01*
X167240597Y-64411882D01*
X166855062Y-64489088D01*
X166846277Y-64487353D01*
X166841973Y-64482134D01*
X166750889Y-64264514D01*
X166750857Y-64255562D01*
X166841973Y-64037862D01*
X166848327Y-64031555D01*
X166855059Y-64030909D01*
X167240599Y-64108116D01*
G37*
%TD.AperFunction*%
%TD*%
%TA.AperFunction,Conductor*%
%TO.N,/I2C2_SDA*%
G36*
X169153722Y-62272645D02*
G01*
X169158027Y-62277865D01*
X169249109Y-62495483D01*
X169249142Y-62504438D01*
X169249109Y-62504517D01*
X169158027Y-62722134D01*
X169151671Y-62728443D01*
X169144937Y-62729089D01*
X168759403Y-62651883D01*
X168751963Y-62646899D01*
X168750000Y-62640411D01*
X168750000Y-62359588D01*
X168753427Y-62351315D01*
X168759400Y-62348117D01*
X169144939Y-62270910D01*
X169153722Y-62272645D01*
G37*
%TD.AperFunction*%
%TD*%
%TA.AperFunction,Conductor*%
%TO.N,/I2C2_SCL*%
G36*
X160472135Y-60091973D02*
G01*
X160478443Y-60098328D01*
X160479089Y-60105062D01*
X160401883Y-60490597D01*
X160396899Y-60498037D01*
X160390411Y-60500000D01*
X160109589Y-60500000D01*
X160101316Y-60496573D01*
X160098117Y-60490597D01*
X160095326Y-60476662D01*
X160020910Y-60105060D01*
X160022645Y-60096277D01*
X160027862Y-60091974D01*
X160245484Y-60000889D01*
X160254436Y-60000857D01*
X160472135Y-60091973D01*
G37*
%TD.AperFunction*%
%TD*%
%TA.AperFunction,Conductor*%
%TO.N,/I2C2_SDA*%
G36*
X155148684Y-64253427D02*
G01*
X155151883Y-64259403D01*
X155229089Y-64644937D01*
X155227354Y-64653722D01*
X155222134Y-64658027D01*
X155004517Y-64749109D01*
X154995563Y-64749142D01*
X154995483Y-64749109D01*
X154777865Y-64658027D01*
X154771556Y-64651672D01*
X154770910Y-64644939D01*
X154848117Y-64259403D01*
X154853101Y-64251963D01*
X154859589Y-64250000D01*
X155140411Y-64250000D01*
X155148684Y-64253427D01*
G37*
%TD.AperFunction*%
%TD*%
%TA.AperFunction,Conductor*%
%TO.N,/Power/5V_EN*%
G36*
X134231061Y-67957994D02*
G01*
X134236279Y-67962298D01*
X134293007Y-68047435D01*
X134454301Y-68289507D01*
X134456036Y-68298292D01*
X134452837Y-68304268D01*
X134254268Y-68502837D01*
X134245995Y-68506264D01*
X134239507Y-68504301D01*
X134036067Y-68368748D01*
X133912298Y-68286280D01*
X133907315Y-68278841D01*
X133907960Y-68272109D01*
X133997436Y-68053822D01*
X134003743Y-68047468D01*
X134222109Y-67957961D01*
X134231061Y-67957994D01*
G37*
%TD.AperFunction*%
%TD*%
%TA.AperFunction,Conductor*%
%TO.N,/Power/5V_EN*%
G36*
X135040175Y-68874560D02*
G01*
X135386491Y-69064008D01*
X135392105Y-69070985D01*
X135391702Y-69078710D01*
X135301607Y-69298510D01*
X135299021Y-69302379D01*
X135132651Y-69467423D01*
X135124364Y-69470817D01*
X135116105Y-69467357D01*
X135115132Y-69466244D01*
X134826607Y-69090626D01*
X134824285Y-69081978D01*
X134827612Y-69075227D01*
X135026288Y-68876551D01*
X135034560Y-68873125D01*
X135040175Y-68874560D01*
G37*
%TD.AperFunction*%
%TD*%
%TA.AperFunction,Conductor*%
%TO.N,Net-(JP2-A)*%
G36*
X139653722Y-70422645D02*
G01*
X139658027Y-70427865D01*
X139749109Y-70645483D01*
X139749142Y-70654438D01*
X139749109Y-70654517D01*
X139658027Y-70872134D01*
X139651671Y-70878443D01*
X139644937Y-70879089D01*
X139259403Y-70801883D01*
X139251963Y-70796899D01*
X139250000Y-70790411D01*
X139250000Y-70509588D01*
X139253427Y-70501315D01*
X139259400Y-70498117D01*
X139644939Y-70420910D01*
X139653722Y-70422645D01*
G37*
%TD.AperFunction*%
%TD*%
%TA.AperFunction,Conductor*%
%TO.N,Net-(JP2-A)*%
G36*
X129934043Y-68832496D02*
G01*
X129934911Y-68833472D01*
X130143912Y-69096805D01*
X130146448Y-69104078D01*
X130146448Y-69383610D01*
X130143021Y-69391883D01*
X130134748Y-69395310D01*
X130130947Y-69394675D01*
X129666056Y-69234998D01*
X129659345Y-69229070D01*
X129658792Y-69220132D01*
X129659019Y-69219525D01*
X129748102Y-69002188D01*
X129750678Y-68998331D01*
X129917498Y-68832449D01*
X129925780Y-68829046D01*
X129934043Y-68832496D01*
G37*
%TD.AperFunction*%
%TD*%
%TA.AperFunction,Conductor*%
%TO.N,+3V3*%
G36*
X133884225Y-59476633D02*
G01*
X133889116Y-59482222D01*
X133999115Y-59745489D01*
X133999142Y-59754444D01*
X133999115Y-59754511D01*
X133889116Y-60017777D01*
X133882764Y-60024089D01*
X133875354Y-60024584D01*
X133408734Y-59902289D01*
X133401600Y-59896876D01*
X133400000Y-59890971D01*
X133400000Y-59609028D01*
X133403427Y-59600755D01*
X133408731Y-59597711D01*
X133875354Y-59475415D01*
X133884225Y-59476633D01*
G37*
%TD.AperFunction*%
%TD*%
%TA.AperFunction,Conductor*%
%TO.N,+3V3*%
G36*
X129725335Y-58987983D02*
G01*
X129725943Y-58988258D01*
X130245966Y-59241409D01*
X130251904Y-59248111D01*
X130251364Y-59257049D01*
X130249117Y-59260201D01*
X130050974Y-59458344D01*
X130045313Y-59461476D01*
X129724430Y-59534959D01*
X129715600Y-59533465D01*
X129711014Y-59528045D01*
X129601164Y-59263795D01*
X129601153Y-59254841D01*
X129710028Y-58994267D01*
X129716380Y-58987956D01*
X129725335Y-58987983D01*
G37*
%TD.AperFunction*%
%TD*%
%TA.AperFunction,Conductor*%
%TO.N,+BATT*%
G36*
X141981061Y-64907994D02*
G01*
X141986279Y-64912298D01*
X142043007Y-64997435D01*
X142204301Y-65239507D01*
X142206036Y-65248292D01*
X142202837Y-65254268D01*
X142004268Y-65452837D01*
X141995995Y-65456264D01*
X141989507Y-65454301D01*
X141786067Y-65318748D01*
X141662298Y-65236280D01*
X141657315Y-65228841D01*
X141657960Y-65222109D01*
X141747436Y-65003822D01*
X141753743Y-64997468D01*
X141972109Y-64907961D01*
X141981061Y-64907994D01*
G37*
%TD.AperFunction*%
%TD*%
%TA.AperFunction,Conductor*%
%TO.N,+BATT*%
G36*
X164472135Y-64341973D02*
G01*
X164478443Y-64348328D01*
X164479089Y-64355062D01*
X164401883Y-64740597D01*
X164396899Y-64748037D01*
X164390411Y-64750000D01*
X164109589Y-64750000D01*
X164101316Y-64746573D01*
X164098117Y-64740597D01*
X164095326Y-64726662D01*
X164020910Y-64355060D01*
X164022645Y-64346277D01*
X164027862Y-64341974D01*
X164245484Y-64250889D01*
X164254436Y-64250857D01*
X164472135Y-64341973D01*
G37*
%TD.AperFunction*%
%TD*%
%TA.AperFunction,Conductor*%
%TO.N,/Power/BATT_LOW*%
G36*
X142254268Y-66547162D02*
G01*
X142452837Y-66745731D01*
X142456264Y-66754004D01*
X142454301Y-66760492D01*
X142236281Y-67087700D01*
X142228841Y-67092684D01*
X142222107Y-67092038D01*
X142003824Y-67002564D01*
X141997468Y-66996255D01*
X141997435Y-66996175D01*
X141907961Y-66777890D01*
X141907994Y-66768938D01*
X141912296Y-66763721D01*
X142239507Y-66545697D01*
X142248292Y-66543963D01*
X142254268Y-66547162D01*
G37*
%TD.AperFunction*%
%TD*%
%TA.AperFunction,Conductor*%
%TO.N,/Power/BATT_LOW*%
G36*
X146760492Y-66545698D02*
G01*
X146885023Y-66628673D01*
X147087701Y-66763719D01*
X147092684Y-66771158D01*
X147092038Y-66777892D01*
X147002564Y-66996175D01*
X146996255Y-67002531D01*
X146996175Y-67002564D01*
X146777892Y-67092038D01*
X146768938Y-67092005D01*
X146763719Y-67087701D01*
X146628673Y-66885023D01*
X146545698Y-66760492D01*
X146543963Y-66751707D01*
X146547160Y-66745733D01*
X146745732Y-66547161D01*
X146754004Y-66543735D01*
X146760492Y-66545698D01*
G37*
%TD.AperFunction*%
%TD*%
%TA.AperFunction,Conductor*%
%TO.N,/I2C2_SDA*%
G36*
X144522135Y-61891973D02*
G01*
X144528443Y-61898328D01*
X144529089Y-61905062D01*
X144451883Y-62290597D01*
X144446899Y-62298037D01*
X144440411Y-62300000D01*
X144159589Y-62300000D01*
X144151316Y-62296573D01*
X144148117Y-62290597D01*
X144145326Y-62276662D01*
X144070910Y-61905060D01*
X144072645Y-61896277D01*
X144077862Y-61891974D01*
X144295484Y-61800889D01*
X144304436Y-61800857D01*
X144522135Y-61891973D01*
G37*
%TD.AperFunction*%
%TD*%
%TA.AperFunction,Conductor*%
%TO.N,/I2C2_SCL*%
G36*
X145222135Y-61891973D02*
G01*
X145228443Y-61898328D01*
X145229089Y-61905062D01*
X145151883Y-62290597D01*
X145146899Y-62298037D01*
X145140411Y-62300000D01*
X144859589Y-62300000D01*
X144851316Y-62296573D01*
X144848117Y-62290597D01*
X144845326Y-62276662D01*
X144770910Y-61905060D01*
X144772645Y-61896277D01*
X144777862Y-61891974D01*
X144995484Y-61800889D01*
X145004436Y-61800857D01*
X145222135Y-61891973D01*
G37*
%TD.AperFunction*%
%TD*%
%TA.AperFunction,Conductor*%
%TO.N,/~{POWER_ON}*%
G36*
X132490599Y-68498117D02*
G01*
X132498037Y-68503100D01*
X132500000Y-68509588D01*
X132500000Y-68790411D01*
X132496573Y-68798684D01*
X132490597Y-68801883D01*
X132105062Y-68879089D01*
X132096277Y-68877354D01*
X132091973Y-68872135D01*
X132000889Y-68654515D01*
X132000857Y-68645563D01*
X132091973Y-68427863D01*
X132098327Y-68421556D01*
X132105059Y-68420910D01*
X132490599Y-68498117D01*
G37*
%TD.AperFunction*%
%TD*%
%TA.AperFunction,Conductor*%
%TO.N,/~{POWER_ON}*%
G36*
X140403722Y-69772645D02*
G01*
X140408027Y-69777865D01*
X140499109Y-69995483D01*
X140499142Y-70004438D01*
X140499109Y-70004517D01*
X140408027Y-70222134D01*
X140401671Y-70228443D01*
X140394937Y-70229089D01*
X140009403Y-70151883D01*
X140001963Y-70146899D01*
X140000000Y-70140411D01*
X140000000Y-69859588D01*
X140003427Y-69851315D01*
X140009400Y-69848117D01*
X140394939Y-69770910D01*
X140403722Y-69772645D01*
G37*
%TD.AperFunction*%
%TD*%
%TA.AperFunction,Conductor*%
%TO.N,Net-(JP3-B)*%
G36*
X128981061Y-68907994D02*
G01*
X128986279Y-68912298D01*
X129043007Y-68997435D01*
X129204301Y-69239507D01*
X129206036Y-69248292D01*
X129202837Y-69254268D01*
X129004268Y-69452837D01*
X128995995Y-69456264D01*
X128989507Y-69454301D01*
X128786067Y-69318748D01*
X128662298Y-69236280D01*
X128657315Y-69228841D01*
X128657960Y-69222109D01*
X128747436Y-69003822D01*
X128753743Y-68997468D01*
X128972109Y-68907961D01*
X128981061Y-68907994D01*
G37*
%TD.AperFunction*%
%TD*%
%TA.AperFunction,Conductor*%
%TO.N,Net-(JP3-B)*%
G36*
X138903722Y-71022645D02*
G01*
X138908027Y-71027865D01*
X138999109Y-71245483D01*
X138999142Y-71254438D01*
X138999109Y-71254517D01*
X138908027Y-71472134D01*
X138901671Y-71478443D01*
X138894937Y-71479089D01*
X138509403Y-71401883D01*
X138501963Y-71396899D01*
X138500000Y-71390411D01*
X138500000Y-71109588D01*
X138503427Y-71101315D01*
X138509400Y-71098117D01*
X138894939Y-71020910D01*
X138903722Y-71022645D01*
G37*
%TD.AperFunction*%
%TD*%
%TA.AperFunction,Conductor*%
%TO.N,/I2C2_SDA*%
G36*
X129590599Y-58098117D02*
G01*
X129598037Y-58103100D01*
X129600000Y-58109588D01*
X129600000Y-58390411D01*
X129596573Y-58398684D01*
X129590597Y-58401883D01*
X129205062Y-58479089D01*
X129196277Y-58477354D01*
X129191973Y-58472135D01*
X129100889Y-58254515D01*
X129100857Y-58245563D01*
X129191973Y-58027863D01*
X129198327Y-58021556D01*
X129205059Y-58020910D01*
X129590599Y-58098117D01*
G37*
%TD.AperFunction*%
%TD*%
%TA.AperFunction,Conductor*%
%TO.N,/I2C2_SDA*%
G36*
X144448684Y-61303427D02*
G01*
X144451883Y-61309403D01*
X144529089Y-61694937D01*
X144527354Y-61703722D01*
X144522134Y-61708027D01*
X144304517Y-61799109D01*
X144295563Y-61799142D01*
X144295483Y-61799109D01*
X144077865Y-61708027D01*
X144071556Y-61701672D01*
X144070910Y-61694939D01*
X144148117Y-61309403D01*
X144153101Y-61301963D01*
X144159589Y-61300000D01*
X144440411Y-61300000D01*
X144448684Y-61303427D01*
G37*
%TD.AperFunction*%
%TD*%
%TA.AperFunction,Conductor*%
%TO.N,Net-(U7-STAT2)*%
G36*
X138353722Y-65122645D02*
G01*
X138358027Y-65127865D01*
X138449109Y-65345483D01*
X138449142Y-65354438D01*
X138449109Y-65354517D01*
X138358027Y-65572134D01*
X138351671Y-65578443D01*
X138344937Y-65579089D01*
X137959403Y-65501883D01*
X137951963Y-65496899D01*
X137950000Y-65490411D01*
X137950000Y-65209588D01*
X137953427Y-65201315D01*
X137959400Y-65198117D01*
X138344939Y-65120910D01*
X138353722Y-65122645D01*
G37*
%TD.AperFunction*%
%TD*%
%TA.AperFunction,Conductor*%
%TO.N,Net-(U7-STAT2)*%
G36*
X128740599Y-64098117D02*
G01*
X128748037Y-64103100D01*
X128750000Y-64109588D01*
X128750000Y-64390411D01*
X128746573Y-64398684D01*
X128740597Y-64401883D01*
X128355062Y-64479089D01*
X128346277Y-64477354D01*
X128341973Y-64472135D01*
X128250889Y-64254515D01*
X128250857Y-64245563D01*
X128341973Y-64027863D01*
X128348327Y-64021556D01*
X128355059Y-64020910D01*
X128740599Y-64098117D01*
G37*
%TD.AperFunction*%
%TD*%
%TA.AperFunction,Conductor*%
%TO.N,+4V*%
G36*
X139903722Y-63272645D02*
G01*
X139908027Y-63277865D01*
X139999109Y-63495483D01*
X139999142Y-63504438D01*
X139999109Y-63504517D01*
X139908027Y-63722134D01*
X139901671Y-63728443D01*
X139894937Y-63729089D01*
X139509403Y-63651883D01*
X139501963Y-63646899D01*
X139500000Y-63640411D01*
X139500000Y-63359588D01*
X139503427Y-63351315D01*
X139509400Y-63348117D01*
X139894939Y-63270910D01*
X139903722Y-63272645D01*
G37*
%TD.AperFunction*%
%TD*%
%TA.AperFunction,Conductor*%
%TO.N,+4V*%
G36*
X135740599Y-63348117D02*
G01*
X135748037Y-63353100D01*
X135750000Y-63359588D01*
X135750000Y-63640411D01*
X135746573Y-63648684D01*
X135740597Y-63651883D01*
X135355062Y-63729089D01*
X135346277Y-63727354D01*
X135341973Y-63722135D01*
X135250889Y-63504515D01*
X135250857Y-63495563D01*
X135341973Y-63277863D01*
X135348327Y-63271556D01*
X135355059Y-63270910D01*
X135740599Y-63348117D01*
G37*
%TD.AperFunction*%
%TD*%
%TA.AperFunction,Conductor*%
%TO.N,/Power/5V_EN*%
G36*
X136972135Y-74591973D02*
G01*
X136978443Y-74598328D01*
X136979089Y-74605062D01*
X136901883Y-74990597D01*
X136896899Y-74998037D01*
X136890411Y-75000000D01*
X136609589Y-75000000D01*
X136601316Y-74996573D01*
X136598117Y-74990597D01*
X136595326Y-74976662D01*
X136520910Y-74605060D01*
X136522645Y-74596277D01*
X136527862Y-74591974D01*
X136745484Y-74500889D01*
X136754436Y-74500857D01*
X136972135Y-74591973D01*
G37*
%TD.AperFunction*%
%TD*%
%TA.AperFunction,Conductor*%
%TO.N,/Power/5V_EN*%
G36*
X133490599Y-77398117D02*
G01*
X133498037Y-77403100D01*
X133500000Y-77409588D01*
X133500000Y-77690411D01*
X133496573Y-77698684D01*
X133490597Y-77701883D01*
X133105062Y-77779089D01*
X133096277Y-77777354D01*
X133091973Y-77772135D01*
X133000889Y-77554515D01*
X133000857Y-77545563D01*
X133091973Y-77327863D01*
X133098327Y-77321556D01*
X133105059Y-77320910D01*
X133490599Y-77398117D01*
G37*
%TD.AperFunction*%
%TD*%
%TA.AperFunction,Conductor*%
%TO.N,VBUS*%
G36*
X159057677Y-66541860D02*
G01*
X159062573Y-66547463D01*
X159249127Y-66995503D01*
X159249144Y-67004457D01*
X159249127Y-67004497D01*
X159062573Y-67452536D01*
X159056229Y-67458857D01*
X159048806Y-67459357D01*
X158258734Y-67252289D01*
X158251600Y-67246876D01*
X158250000Y-67240971D01*
X158250000Y-66759028D01*
X158253427Y-66750755D01*
X158258731Y-66747711D01*
X159048806Y-66540642D01*
X159057677Y-66541860D01*
G37*
%TD.AperFunction*%
%TD*%
%TA.AperFunction,Conductor*%
%TO.N,VBUS*%
G36*
X154953101Y-66541142D02*
G01*
X155741267Y-66747711D01*
X155748400Y-66753123D01*
X155750000Y-66759028D01*
X155750000Y-67240971D01*
X155746573Y-67249244D01*
X155741266Y-67252289D01*
X154951193Y-67459357D01*
X154942322Y-67458139D01*
X154937426Y-67452536D01*
X154750871Y-67004495D01*
X154750855Y-66995544D01*
X154937427Y-66547461D01*
X154943770Y-66541142D01*
X154951193Y-66540642D01*
X154953101Y-66541142D01*
G37*
%TD.AperFunction*%
%TD*%
%TA.AperFunction,Conductor*%
%TO.N,Net-(D2-A)*%
G36*
X133153366Y-62022825D02*
G01*
X133158254Y-62028408D01*
X133249109Y-62245483D01*
X133249142Y-62254437D01*
X133249109Y-62254517D01*
X133158254Y-62471591D01*
X133151898Y-62477900D01*
X133144495Y-62478392D01*
X132758734Y-62377289D01*
X132751600Y-62371876D01*
X132750000Y-62365971D01*
X132750000Y-62134028D01*
X132753427Y-62125755D01*
X132758731Y-62122711D01*
X133144495Y-62021607D01*
X133153366Y-62022825D01*
G37*
%TD.AperFunction*%
%TD*%
%TA.AperFunction,Conductor*%
%TO.N,Net-(D2-A)*%
G36*
X131178093Y-61122711D02*
G01*
X131185226Y-61128123D01*
X131186826Y-61134028D01*
X131186826Y-61365971D01*
X131183399Y-61374244D01*
X131178092Y-61377289D01*
X130792330Y-61478392D01*
X130783459Y-61477174D01*
X130778571Y-61471591D01*
X130687715Y-61254515D01*
X130687683Y-61245563D01*
X130778572Y-61028406D01*
X130784927Y-61022099D01*
X130792330Y-61021607D01*
X131178093Y-61122711D01*
G37*
%TD.AperFunction*%
%TD*%
%TA.AperFunction,Conductor*%
%TO.N,Net-(U6-FB)*%
G36*
X126240599Y-73098117D02*
G01*
X126248037Y-73103100D01*
X126250000Y-73109588D01*
X126250000Y-73390411D01*
X126246573Y-73398684D01*
X126240597Y-73401883D01*
X125855062Y-73479089D01*
X125846277Y-73477354D01*
X125841973Y-73472135D01*
X125750889Y-73254515D01*
X125750857Y-73245563D01*
X125841973Y-73027863D01*
X125848327Y-73021556D01*
X125855059Y-73020910D01*
X126240599Y-73098117D01*
G37*
%TD.AperFunction*%
%TD*%
%TA.AperFunction,Conductor*%
%TO.N,Net-(U6-FB)*%
G36*
X130898684Y-75003427D02*
G01*
X130901883Y-75009403D01*
X130979089Y-75394937D01*
X130977354Y-75403722D01*
X130972134Y-75408027D01*
X130754517Y-75499109D01*
X130745563Y-75499142D01*
X130745483Y-75499109D01*
X130527865Y-75408027D01*
X130521556Y-75401672D01*
X130520910Y-75394939D01*
X130598117Y-75009403D01*
X130603101Y-75001963D01*
X130609589Y-75000000D01*
X130890411Y-75000000D01*
X130898684Y-75003427D01*
G37*
%TD.AperFunction*%
%TD*%
%TA.AperFunction,Conductor*%
%TO.N,Net-(U9-BIN)*%
G36*
X143222135Y-63591973D02*
G01*
X143228443Y-63598328D01*
X143229089Y-63605062D01*
X143151883Y-63990597D01*
X143146899Y-63998037D01*
X143140411Y-64000000D01*
X142859589Y-64000000D01*
X142851316Y-63996573D01*
X142848117Y-63990597D01*
X142845326Y-63976662D01*
X142770910Y-63605060D01*
X142772645Y-63596277D01*
X142777862Y-63591974D01*
X142995484Y-63500889D01*
X143004436Y-63500857D01*
X143222135Y-63591973D01*
G37*
%TD.AperFunction*%
%TD*%
%TA.AperFunction,Conductor*%
%TO.N,Net-(U9-BIN)*%
G36*
X143148684Y-64828427D02*
G01*
X143151883Y-64834403D01*
X143229089Y-65219937D01*
X143227354Y-65228722D01*
X143222134Y-65233027D01*
X143004517Y-65324109D01*
X142995563Y-65324142D01*
X142995483Y-65324109D01*
X142777865Y-65233027D01*
X142771556Y-65226672D01*
X142770910Y-65219939D01*
X142848117Y-64834403D01*
X142853101Y-64826963D01*
X142859589Y-64825000D01*
X143140411Y-64825000D01*
X143148684Y-64828427D01*
G37*
%TD.AperFunction*%
%TD*%
%TA.AperFunction,Conductor*%
%TO.N,/I2C2_SCL*%
G36*
X132130599Y-58098117D02*
G01*
X132138037Y-58103100D01*
X132140000Y-58109588D01*
X132140000Y-58390411D01*
X132136573Y-58398684D01*
X132130597Y-58401883D01*
X131745062Y-58479089D01*
X131736277Y-58477354D01*
X131731973Y-58472135D01*
X131640889Y-58254515D01*
X131640857Y-58245563D01*
X131731973Y-58027863D01*
X131738327Y-58021556D01*
X131745059Y-58020910D01*
X132130599Y-58098117D01*
G37*
%TD.AperFunction*%
%TD*%
%TA.AperFunction,Conductor*%
%TO.N,/I2C2_SCL*%
G36*
X145148684Y-61303427D02*
G01*
X145151883Y-61309403D01*
X145229089Y-61694937D01*
X145227354Y-61703722D01*
X145222134Y-61708027D01*
X145004517Y-61799109D01*
X144995563Y-61799142D01*
X144995483Y-61799109D01*
X144777865Y-61708027D01*
X144771556Y-61701672D01*
X144770910Y-61694939D01*
X144848117Y-61309403D01*
X144853101Y-61301963D01*
X144859589Y-61300000D01*
X145140411Y-61300000D01*
X145148684Y-61303427D01*
G37*
%TD.AperFunction*%
%TD*%
M02*
