M48
; DRILL file {KiCad 8.0.4} date 2024-09-21T11:57:24+0200
; FORMAT={-:-/ absolute / metric / decimal}
; #@! TF.CreationDate,2024-09-21T11:57:24+02:00
; #@! TF.GenerationSoftware,Kicad,Pcbnew,8.0.4
; #@! TF.FileFunction,Plated,1,4,PTH
FMAT,2
METRIC
; #@! TA.AperFunction,Plated,PTH,ViaDrill
T1C0.200
; #@! TA.AperFunction,Plated,PTH,ComponentDrill
T2C0.200
; #@! TA.AperFunction,Plated,PTH,ViaDrill
T3C0.300
; #@! TA.AperFunction,Plated,PTH,ViaDrill
T4C0.500
; #@! TA.AperFunction,Plated,PTH,ComponentDrill
T5C0.600
; #@! TA.AperFunction,Plated,PTH,ComponentDrill
T6C0.750
%
G90
G05
T1
X119.4Y-56.5
X119.419Y-61.415
X121.4Y-56.5
X121.4Y-69.3
X121.4Y-71.7
X121.419Y-61.415
X121.419Y-67.415
X121.5Y-65.0
X123.419Y-61.415
X123.419Y-67.415
X123.419Y-69.415
X123.419Y-71.415
X123.5Y-58.25
X124.5Y-73.25
X125.0Y-77.5
X125.419Y-53.415
X125.419Y-61.415
X125.419Y-67.415
X125.419Y-69.415
X125.75Y-70.75
X125.75Y-73.25
X125.986Y-60.05
X127.1Y-55.4
X127.419Y-69.415
X127.5Y-77.5
X128.25Y-61.25
X128.25Y-63.0
X128.25Y-64.25
X128.75Y-69.0
X129.1Y-58.25
X129.419Y-53.415
X129.7Y-55.4
X129.75Y-69.0
X129.9Y-50.9
X130.0Y-64.98
X130.0Y-75.5
X130.687Y-61.25
X130.75Y-75.5
X131.419Y-53.415
X131.419Y-67.415
X131.419Y-73.415
X131.5Y-60.6
X131.5Y-62.063
X131.64Y-58.25
X132.0Y-68.65
X132.0Y-78.75
X132.2Y-51.4
X133.0Y-77.55
X133.25Y-62.25
X134.0Y-61.25
X134.0Y-68.05
X134.8Y-51.4
X135.0Y-56.2
X135.25Y-62.75
X135.25Y-63.5
X135.3Y-69.3
X135.75Y-78.45
X136.75Y-74.5
X136.91Y-59.77
X136.91Y-67.23
X137.419Y-51.415
X137.419Y-55.415
X138.45Y-65.35
X138.504Y-62.246
X139.0Y-71.25
X139.25Y-59.75
X139.419Y-73.415
X139.419Y-75.415
X139.419Y-77.415
X139.75Y-70.65
X139.8Y-55.4
X140.0Y-60.5
X140.0Y-62.8
X140.0Y-63.5
X140.0Y-65.05
X140.0Y-66.5
X140.1Y-50.9
X140.5Y-70.0
X141.75Y-65.0
X142.0Y-66.1
X142.0Y-67.0
X142.4Y-51.5
X142.4Y-55.4
X142.4Y-64.125
X143.0Y-63.5
X143.0Y-65.325
X143.0Y-67.75
X143.419Y-77.415
X143.8Y-65.3
X144.3Y-61.8
X144.5Y-67.75
X144.9Y-51.5
X144.9Y-55.4
X145.0Y-61.8
X145.419Y-77.415
X145.5Y-70.25
X146.0Y-67.75
X146.0Y-69.0
X147.0Y-60.0
X147.0Y-67.0
X147.419Y-55.415
X147.419Y-61.415
X147.419Y-69.415
X147.419Y-71.415
X147.419Y-73.415
X147.7Y-50.9
X149.25Y-64.75
X149.419Y-69.415
X149.419Y-71.415
X149.419Y-73.415
X149.419Y-77.415
X150.0Y-51.5
X150.0Y-55.4
X150.25Y-65.75
X150.75Y-62.25
X151.419Y-59.415
X151.419Y-69.415
X151.419Y-71.415
X151.419Y-73.415
X151.419Y-77.415
X152.25Y-62.25
X152.6Y-51.5
X152.6Y-55.4
X153.419Y-59.415
X153.419Y-69.415
X153.419Y-71.415
X153.419Y-73.415
X153.5Y-64.75
X154.5Y-61.25
X155.0Y-64.75
X155.1Y-51.5
X155.3Y-56.2
X155.419Y-59.415
X155.419Y-77.415
X155.75Y-65.75
X157.419Y-59.415
X157.419Y-77.415
X157.6Y-51.5
X157.6Y-55.4
X158.0Y-70.25
X158.5Y-69.25
X159.25Y-64.75
X159.419Y-59.415
X159.419Y-71.415
X159.419Y-73.415
X160.2Y-55.4
X160.25Y-60.0
X160.4Y-50.9
X161.419Y-65.415
X161.419Y-71.415
X162.5Y-73.5
X162.7Y-51.5
X162.7Y-55.4
X163.25Y-59.0
X163.25Y-63.5
X163.25Y-71.0
X163.419Y-77.415
X164.25Y-64.25
X165.0Y-59.0
X165.0Y-65.0
X165.419Y-55.415
X165.5Y-50.9
X166.25Y-60.0
X166.25Y-65.9
X166.25Y-74.25
X166.75Y-64.26
X167.419Y-77.415
X167.5Y-63.5
X167.5Y-70.0
X167.8Y-51.6
X167.8Y-55.4
X169.236Y-66.486
X169.25Y-62.5
X169.25Y-68.0
X169.419Y-69.415
X169.419Y-77.415
X169.5Y-61.85
X169.75Y-60.0
X170.5Y-70.0
X171.0Y-75.0
X171.25Y-75.75
X171.419Y-53.415
X171.419Y-77.415
X171.75Y-74.25
X172.75Y-61.0
X173.1Y-56.2
X173.4Y-59.1
X173.4Y-63.7
X173.4Y-66.2
X173.419Y-68.6
X175.4Y-59.1
X175.4Y-63.7
X175.4Y-66.2
X175.419Y-51.415
X175.419Y-53.415
X175.419Y-68.6
X175.419Y-77.415
X177.0Y-67.5
X179.0Y-59.1
X179.419Y-73.415
X181.0Y-62.5
X181.0Y-65.0
X181.0Y-67.5
X181.4Y-59.1
X181.419Y-61.415
X181.419Y-63.7
X181.419Y-69.415
X181.419Y-71.415
X181.419Y-73.415
T2
X156.45Y-63.5
X157.55Y-63.5
T3
X123.8Y-75.75
X123.8Y-77.5
X123.8Y-79.25
X124.75Y-50.85
X126.25Y-75.75
X126.25Y-77.5
X126.25Y-79.25
X127.15Y-50.86
X128.75Y-79.25
X129.6Y-59.26
X134.0Y-59.75
T4
X154.75Y-67.0
X159.25Y-67.0
T6
X119.7Y-63.23
X119.7Y-64.5
X119.7Y-65.77
T5
G00X164.68Y-73.2
M15
G01X164.68Y-73.8
M16
G05
G00X164.68Y-77.0
M15
G01X164.68Y-77.6
M16
G05
G00X173.32Y-73.2
M15
G01X173.32Y-73.8
M16
G05
G00X173.32Y-77.0
M15
G01X173.32Y-77.6
M16
G05
M30
