%TF.GenerationSoftware,KiCad,Pcbnew,8.0.4*%
%TF.CreationDate,2024-09-21T11:57:22+02:00*%
%TF.ProjectId,soleil_powerpack,736f6c65-696c-45f7-906f-776572706163,rev?*%
%TF.SameCoordinates,Original*%
%TF.FileFunction,Legend,Top*%
%TF.FilePolarity,Positive*%
%FSLAX46Y46*%
G04 Gerber Fmt 4.6, Leading zero omitted, Abs format (unit mm)*
G04 Created by KiCad (PCBNEW 8.0.4) date 2024-09-21 11:57:22*
%MOMM*%
%LPD*%
G01*
G04 APERTURE LIST*
G04 Aperture macros list*
%AMRoundRect*
0 Rectangle with rounded corners*
0 $1 Rounding radius*
0 $2 $3 $4 $5 $6 $7 $8 $9 X,Y pos of 4 corners*
0 Add a 4 corners polygon primitive as box body*
4,1,4,$2,$3,$4,$5,$6,$7,$8,$9,$2,$3,0*
0 Add four circle primitives for the rounded corners*
1,1,$1+$1,$2,$3*
1,1,$1+$1,$4,$5*
1,1,$1+$1,$6,$7*
1,1,$1+$1,$8,$9*
0 Add four rect primitives between the rounded corners*
20,1,$1+$1,$2,$3,$4,$5,0*
20,1,$1+$1,$4,$5,$6,$7,0*
20,1,$1+$1,$6,$7,$8,$9,0*
20,1,$1+$1,$8,$9,$2,$3,0*%
%AMFreePoly0*
4,1,19,0.000000,0.744911,0.071157,0.744911,0.207708,0.704816,0.327430,0.627875,0.420627,0.520320,0.479746,0.390866,0.500000,0.250000,0.500000,-0.250000,0.479746,-0.390866,0.420627,-0.520320,0.327430,-0.627875,0.207708,-0.704816,0.071157,-0.744911,0.000000,-0.744911,0.000000,-0.750000,-0.500000,-0.750000,-0.500000,0.750000,0.000000,0.750000,0.000000,0.744911,0.000000,0.744911,
$1*%
%AMFreePoly1*
4,1,19,0.500000,-0.750000,0.000000,-0.750000,0.000000,-0.744911,-0.071157,-0.744911,-0.207708,-0.704816,-0.327430,-0.627875,-0.420627,-0.520320,-0.479746,-0.390866,-0.500000,-0.250000,-0.500000,0.250000,-0.479746,0.390866,-0.420627,0.520320,-0.327430,0.627875,-0.207708,0.704816,-0.071157,0.744911,0.000000,0.744911,0.000000,0.750000,0.500000,0.750000,0.500000,-0.750000,0.500000,-0.750000,
$1*%
G04 Aperture macros list end*
%ADD10C,0.100000*%
%ADD11C,0.125000*%
%ADD12C,0.200000*%
%ADD13C,0.187500*%
%ADD14C,0.240000*%
%ADD15C,0.150000*%
%ADD16C,0.225000*%
%ADD17C,0.120000*%
%ADD18C,0.152400*%
%ADD19RoundRect,0.135000X-0.185000X0.135000X-0.185000X-0.135000X0.185000X-0.135000X0.185000X0.135000X0*%
%ADD20RoundRect,0.135000X0.185000X-0.135000X0.185000X0.135000X-0.185000X0.135000X-0.185000X-0.135000X0*%
%ADD21C,5.100000*%
%ADD22R,1.100000X0.600000*%
%ADD23RoundRect,0.140000X0.170000X-0.140000X0.170000X0.140000X-0.170000X0.140000X-0.170000X-0.140000X0*%
%ADD24RoundRect,0.150000X0.150000X0.200000X-0.150000X0.200000X-0.150000X-0.200000X0.150000X-0.200000X0*%
%ADD25FreePoly0,0.000000*%
%ADD26FreePoly1,0.000000*%
%ADD27O,1.300000X1.050000*%
%ADD28RoundRect,0.249900X-0.400100X0.275100X-0.400100X-0.275100X0.400100X-0.275100X0.400100X0.275100X0*%
%ADD29RoundRect,0.140000X-0.140000X-0.170000X0.140000X-0.170000X0.140000X0.170000X-0.140000X0.170000X0*%
%ADD30RoundRect,0.147500X0.147500X0.172500X-0.147500X0.172500X-0.147500X-0.172500X0.147500X-0.172500X0*%
%ADD31RoundRect,0.250000X0.475000X-0.250000X0.475000X0.250000X-0.475000X0.250000X-0.475000X-0.250000X0*%
%ADD32RoundRect,0.135000X-0.135000X-0.185000X0.135000X-0.185000X0.135000X0.185000X-0.135000X0.185000X0*%
%ADD33RoundRect,0.140000X-0.170000X0.140000X-0.170000X-0.140000X0.170000X-0.140000X0.170000X0.140000X0*%
%ADD34C,0.970000*%
%ADD35C,1.780000*%
%ADD36R,1.270000X1.680000*%
%ADD37R,1.270000X1.500000*%
%ADD38R,1.360000X1.460000*%
%ADD39R,0.750000X0.300000*%
%ADD40RoundRect,0.250000X-0.475000X0.250000X-0.475000X-0.250000X0.475000X-0.250000X0.475000X0.250000X0*%
%ADD41R,2.413000X3.429000*%
%ADD42RoundRect,0.150000X-0.150000X-0.200000X0.150000X-0.200000X0.150000X0.200000X-0.150000X0.200000X0*%
%ADD43RoundRect,0.050000X0.285000X0.100000X-0.285000X0.100000X-0.285000X-0.100000X0.285000X-0.100000X0*%
%ADD44RoundRect,0.093750X-0.106250X0.093750X-0.106250X-0.093750X0.106250X-0.093750X0.106250X0.093750X0*%
%ADD45R,1.600000X1.000000*%
%ADD46R,1.300000X1.500000*%
%ADD47RoundRect,0.140000X0.140000X0.170000X-0.140000X0.170000X-0.140000X-0.170000X0.140000X-0.170000X0*%
%ADD48RoundRect,0.135000X0.135000X0.185000X-0.135000X0.185000X-0.135000X-0.185000X0.135000X-0.185000X0*%
%ADD49O,1.100000X1.700000*%
%ADD50RoundRect,0.200000X-0.200000X-0.400000X0.200000X-0.400000X0.200000X0.400000X-0.200000X0.400000X0*%
%ADD51RoundRect,0.190000X-0.190000X-0.410000X0.190000X-0.410000X0.190000X0.410000X-0.190000X0.410000X0*%
%ADD52RoundRect,0.175000X0.175000X0.425000X-0.175000X0.425000X-0.175000X-0.425000X0.175000X-0.425000X0*%
%ADD53RoundRect,0.200000X0.200000X0.400000X-0.200000X0.400000X-0.200000X-0.400000X0.200000X-0.400000X0*%
%ADD54RoundRect,0.190000X0.190000X0.410000X-0.190000X0.410000X-0.190000X-0.410000X0.190000X-0.410000X0*%
%ADD55RoundRect,0.175000X-0.175000X-0.425000X0.175000X-0.425000X0.175000X0.425000X-0.175000X0.425000X0*%
%ADD56R,1.800000X1.040000*%
%ADD57R,0.304800X0.254000*%
%ADD58FreePoly0,90.000000*%
%ADD59FreePoly1,90.000000*%
%ADD60R,0.700000X0.250000*%
%ADD61R,0.254000X0.711200*%
%ADD62R,0.711200X0.254000*%
%ADD63FreePoly1,180.000000*%
%ADD64FreePoly0,180.000000*%
%ADD65R,1.000000X0.900000*%
%ADD66RoundRect,0.250001X-0.499999X-1.449999X0.499999X-1.449999X0.499999X1.449999X-0.499999X1.449999X0*%
%ADD67RoundRect,0.250000X-0.250000X-1.500000X0.250000X-1.500000X0.250000X1.500000X-0.250000X1.500000X0*%
%ADD68C,0.345000*%
%ADD69R,0.203200X0.660400*%
%ADD70R,1.500000X0.900000*%
G04 APERTURE END LIST*
D10*
X141242855Y-74814895D02*
X141433331Y-75614895D01*
X141433331Y-75614895D02*
X141585712Y-75043466D01*
X141585712Y-75043466D02*
X141738093Y-75614895D01*
X141738093Y-75614895D02*
X141928570Y-74814895D01*
X142576189Y-75614895D02*
X142576189Y-75195847D01*
X142576189Y-75195847D02*
X142538094Y-75119657D01*
X142538094Y-75119657D02*
X142461903Y-75081561D01*
X142461903Y-75081561D02*
X142309522Y-75081561D01*
X142309522Y-75081561D02*
X142233332Y-75119657D01*
X142576189Y-75576800D02*
X142499998Y-75614895D01*
X142499998Y-75614895D02*
X142309522Y-75614895D01*
X142309522Y-75614895D02*
X142233332Y-75576800D01*
X142233332Y-75576800D02*
X142195236Y-75500609D01*
X142195236Y-75500609D02*
X142195236Y-75424419D01*
X142195236Y-75424419D02*
X142233332Y-75348228D01*
X142233332Y-75348228D02*
X142309522Y-75310133D01*
X142309522Y-75310133D02*
X142499998Y-75310133D01*
X142499998Y-75310133D02*
X142576189Y-75272038D01*
X142880951Y-75081561D02*
X143071427Y-75614895D01*
X143261904Y-75081561D02*
X143071427Y-75614895D01*
X143071427Y-75614895D02*
X142995237Y-75805371D01*
X142995237Y-75805371D02*
X142957142Y-75843466D01*
X142957142Y-75843466D02*
X142880951Y-75881561D01*
X143490475Y-74814895D02*
X143680951Y-75614895D01*
X143680951Y-75614895D02*
X143833332Y-75043466D01*
X143833332Y-75043466D02*
X143985713Y-75614895D01*
X143985713Y-75614895D02*
X144176190Y-74814895D01*
X144823809Y-75614895D02*
X144823809Y-75195847D01*
X144823809Y-75195847D02*
X144785714Y-75119657D01*
X144785714Y-75119657D02*
X144709523Y-75081561D01*
X144709523Y-75081561D02*
X144557142Y-75081561D01*
X144557142Y-75081561D02*
X144480952Y-75119657D01*
X144823809Y-75576800D02*
X144747618Y-75614895D01*
X144747618Y-75614895D02*
X144557142Y-75614895D01*
X144557142Y-75614895D02*
X144480952Y-75576800D01*
X144480952Y-75576800D02*
X144442856Y-75500609D01*
X144442856Y-75500609D02*
X144442856Y-75424419D01*
X144442856Y-75424419D02*
X144480952Y-75348228D01*
X144480952Y-75348228D02*
X144557142Y-75310133D01*
X144557142Y-75310133D02*
X144747618Y-75310133D01*
X144747618Y-75310133D02*
X144823809Y-75272038D01*
X145128571Y-75081561D02*
X145319047Y-75614895D01*
X145509524Y-75081561D02*
X145319047Y-75614895D01*
X145319047Y-75614895D02*
X145242857Y-75805371D01*
X145242857Y-75805371D02*
X145204762Y-75843466D01*
X145204762Y-75843466D02*
X145128571Y-75881561D01*
X145738095Y-74814895D02*
X145928571Y-75614895D01*
X145928571Y-75614895D02*
X146080952Y-75043466D01*
X146080952Y-75043466D02*
X146233333Y-75614895D01*
X146233333Y-75614895D02*
X146423810Y-74814895D01*
X147071429Y-75614895D02*
X147071429Y-75195847D01*
X147071429Y-75195847D02*
X147033334Y-75119657D01*
X147033334Y-75119657D02*
X146957143Y-75081561D01*
X146957143Y-75081561D02*
X146804762Y-75081561D01*
X146804762Y-75081561D02*
X146728572Y-75119657D01*
X147071429Y-75576800D02*
X146995238Y-75614895D01*
X146995238Y-75614895D02*
X146804762Y-75614895D01*
X146804762Y-75614895D02*
X146728572Y-75576800D01*
X146728572Y-75576800D02*
X146690476Y-75500609D01*
X146690476Y-75500609D02*
X146690476Y-75424419D01*
X146690476Y-75424419D02*
X146728572Y-75348228D01*
X146728572Y-75348228D02*
X146804762Y-75310133D01*
X146804762Y-75310133D02*
X146995238Y-75310133D01*
X146995238Y-75310133D02*
X147071429Y-75272038D01*
X147376191Y-75081561D02*
X147566667Y-75614895D01*
X147757144Y-75081561D02*
X147566667Y-75614895D01*
X147566667Y-75614895D02*
X147490477Y-75805371D01*
X147490477Y-75805371D02*
X147452382Y-75843466D01*
X147452382Y-75843466D02*
X147376191Y-75881561D01*
D11*
G36*
X119239584Y-61141554D02*
G01*
X119222067Y-61159384D01*
X119202612Y-61175259D01*
X119181218Y-61189181D01*
X119157885Y-61201149D01*
X119132720Y-61210766D01*
X119105709Y-61217636D01*
X119080558Y-61221392D01*
X119053994Y-61223045D01*
X119046144Y-61223131D01*
X119021341Y-61222225D01*
X118994010Y-61218972D01*
X118967764Y-61213352D01*
X118942601Y-61205367D01*
X118939532Y-61204202D01*
X118915917Y-61193753D01*
X118893920Y-61181335D01*
X118873541Y-61166948D01*
X118854780Y-61150591D01*
X118837797Y-61132334D01*
X118822753Y-61112367D01*
X118809648Y-61090690D01*
X118798482Y-61067304D01*
X118789559Y-61042452D01*
X118783186Y-61016379D01*
X118779362Y-60989085D01*
X118778107Y-60964201D01*
X118778087Y-60960570D01*
X118779081Y-60935029D01*
X118782061Y-60910551D01*
X118787900Y-60883879D01*
X118796334Y-60858596D01*
X118798848Y-60852493D01*
X118810213Y-60829160D01*
X118823547Y-60807643D01*
X118838850Y-60787944D01*
X118856123Y-60770061D01*
X118875227Y-60754017D01*
X118895904Y-60739958D01*
X118918153Y-60727883D01*
X118941974Y-60717793D01*
X118967116Y-60709778D01*
X118993204Y-60704054D01*
X119020239Y-60700619D01*
X119044671Y-60699492D01*
X119048220Y-60699474D01*
X119074484Y-60700558D01*
X119100519Y-60703810D01*
X119126324Y-60709229D01*
X119151901Y-60716816D01*
X119176219Y-60726494D01*
X119198124Y-60738187D01*
X119219885Y-60753750D01*
X119234699Y-60767618D01*
X119153000Y-60846875D01*
X119136220Y-60828863D01*
X119115373Y-60815432D01*
X119108670Y-60812437D01*
X119084454Y-60804673D01*
X119059677Y-60801257D01*
X119052494Y-60801079D01*
X119027662Y-60803055D01*
X119002858Y-60809600D01*
X118994487Y-60813047D01*
X118972808Y-60825142D01*
X118953935Y-60840696D01*
X118949057Y-60845776D01*
X118934084Y-60865497D01*
X118922290Y-60888118D01*
X118919504Y-60895113D01*
X118912704Y-60919119D01*
X118909371Y-60944898D01*
X118909002Y-60957395D01*
X118910478Y-60982508D01*
X118915412Y-61007892D01*
X118919504Y-61020776D01*
X118930320Y-61044404D01*
X118944174Y-61064854D01*
X118948691Y-61070113D01*
X118967818Y-61087388D01*
X118990165Y-61100746D01*
X118993387Y-61102231D01*
X119017106Y-61110078D01*
X119042742Y-61113531D01*
X119050418Y-61113710D01*
X119075984Y-61111735D01*
X119100811Y-61105138D01*
X119112944Y-61099666D01*
X119134336Y-61085742D01*
X119151706Y-61068544D01*
X119155931Y-61063030D01*
X119239584Y-61141554D01*
G37*
G36*
X119512770Y-61207500D02*
G01*
X119512770Y-61021753D01*
X119510965Y-60996737D01*
X119510572Y-60994275D01*
X119502512Y-60971317D01*
X119486758Y-60955441D01*
X119462435Y-60949585D01*
X119461479Y-60949579D01*
X119436172Y-60954194D01*
X119415980Y-60969292D01*
X119414951Y-60970584D01*
X119403380Y-60992450D01*
X119398972Y-61016779D01*
X119398831Y-61022486D01*
X119398831Y-61207500D01*
X119283426Y-61207500D01*
X119283426Y-60679324D01*
X119398831Y-60679324D01*
X119398831Y-60905127D01*
X119400174Y-60905127D01*
X119415653Y-60884091D01*
X119434957Y-60867639D01*
X119438154Y-60865437D01*
X119461042Y-60854131D01*
X119485282Y-60848810D01*
X119500802Y-60847974D01*
X119526024Y-60849760D01*
X119551369Y-60856358D01*
X119560886Y-60860675D01*
X119581657Y-60874104D01*
X119599376Y-60892037D01*
X119600331Y-60893281D01*
X119613337Y-60914805D01*
X119622069Y-60939321D01*
X119626890Y-60963619D01*
X119628779Y-60989597D01*
X119628785Y-60991222D01*
X119628785Y-61207500D01*
X119512770Y-61207500D01*
G37*
G36*
X119891449Y-60849035D02*
G01*
X119917330Y-60852655D01*
X119939951Y-60858843D01*
X119962921Y-60869629D01*
X119983330Y-60885617D01*
X119989532Y-60892426D01*
X120003318Y-60912857D01*
X120013718Y-60937238D01*
X120017376Y-60949823D01*
X120022382Y-60975113D01*
X120025129Y-61000759D01*
X120026134Y-61026001D01*
X120026168Y-61031889D01*
X120026168Y-61207500D01*
X119920655Y-61207500D01*
X119920655Y-61169153D01*
X119918579Y-61169153D01*
X119901818Y-61188662D01*
X119879838Y-61202460D01*
X119878157Y-61203225D01*
X119853570Y-61211490D01*
X119829191Y-61215020D01*
X119819417Y-61215315D01*
X119793812Y-61213335D01*
X119775697Y-61209698D01*
X119751616Y-61201175D01*
X119734542Y-61191502D01*
X119715746Y-61174685D01*
X119704012Y-61157918D01*
X119695036Y-61134471D01*
X119692091Y-61109947D01*
X119692044Y-61106139D01*
X119692316Y-61103696D01*
X119798290Y-61103696D01*
X119802808Y-61119450D01*
X119814410Y-61129952D01*
X119830652Y-61135570D01*
X119848237Y-61137158D01*
X119874073Y-61134175D01*
X119897071Y-61123320D01*
X119901971Y-61119084D01*
X119915984Y-61097804D01*
X119920637Y-61072031D01*
X119920655Y-61070113D01*
X119920655Y-61059000D01*
X119905879Y-61059000D01*
X119880824Y-61059736D01*
X119867533Y-61060710D01*
X119842964Y-61064336D01*
X119833094Y-61066938D01*
X119810615Y-61078211D01*
X119808060Y-61080371D01*
X119798299Y-61102794D01*
X119798290Y-61103696D01*
X119692316Y-61103696D01*
X119694964Y-61079898D01*
X119704715Y-61056121D01*
X119712805Y-61045322D01*
X119731628Y-61028302D01*
X119754361Y-61014749D01*
X119766172Y-61009663D01*
X119789539Y-61002011D01*
X119814637Y-60996350D01*
X119838956Y-60992932D01*
X119863853Y-60990678D01*
X119888320Y-60989259D01*
X119914738Y-60988662D01*
X119917114Y-60988658D01*
X119917114Y-60983162D01*
X119911318Y-60958935D01*
X119898796Y-60945915D01*
X119875620Y-60936238D01*
X119853855Y-60933948D01*
X119828162Y-60936946D01*
X119806350Y-60944572D01*
X119783947Y-60956937D01*
X119767271Y-60969851D01*
X119708897Y-60907203D01*
X119729274Y-60890111D01*
X119751630Y-60875928D01*
X119775966Y-60864656D01*
X119781071Y-60862751D01*
X119806959Y-60854958D01*
X119833182Y-60850052D01*
X119859739Y-60848032D01*
X119865090Y-60847974D01*
X119891449Y-60849035D01*
G37*
G36*
X120337212Y-60952998D02*
G01*
X120322069Y-60950312D01*
X120307658Y-60949579D01*
X120282688Y-60952550D01*
X120268579Y-60958005D01*
X120248452Y-60972523D01*
X120243300Y-60978278D01*
X120230964Y-60999832D01*
X120229501Y-61004167D01*
X120225348Y-61028592D01*
X120225348Y-61207500D01*
X120110066Y-61207500D01*
X120110066Y-60858476D01*
X120221196Y-60858476D01*
X120221196Y-60909035D01*
X120222540Y-60909035D01*
X120236421Y-60887336D01*
X120254556Y-60869471D01*
X120260519Y-60865071D01*
X120283577Y-60853384D01*
X120307625Y-60848391D01*
X120317550Y-60847974D01*
X120331228Y-60847974D01*
X120342096Y-60847974D01*
X120337212Y-60952998D01*
G37*
G36*
X120547856Y-60850000D02*
G01*
X120573369Y-60856769D01*
X120586706Y-60862384D01*
X120607737Y-60875425D01*
X120625403Y-60892930D01*
X120635310Y-60907081D01*
X120636653Y-60907081D01*
X120636653Y-60862140D01*
X120745708Y-60862140D01*
X120745708Y-61178312D01*
X120744784Y-61203065D01*
X120741537Y-61228923D01*
X120735188Y-61255184D01*
X120730931Y-61267339D01*
X120720527Y-61289724D01*
X120706383Y-61311400D01*
X120689410Y-61329987D01*
X120669652Y-61345614D01*
X120647152Y-61358239D01*
X120624319Y-61367112D01*
X120599618Y-61373617D01*
X120573295Y-61377712D01*
X120548218Y-61379338D01*
X120539567Y-61379446D01*
X120513270Y-61378413D01*
X120486587Y-61375312D01*
X120462544Y-61370820D01*
X120444312Y-61366379D01*
X120420697Y-61359167D01*
X120396064Y-61349282D01*
X120373479Y-61337524D01*
X120359560Y-61328644D01*
X120417201Y-61249143D01*
X120436973Y-61264439D01*
X120460021Y-61277288D01*
X120473133Y-61282604D01*
X120497857Y-61289641D01*
X120522217Y-61293091D01*
X120533339Y-61293473D01*
X120559750Y-61291164D01*
X120584179Y-61283183D01*
X120605073Y-61267820D01*
X120608199Y-61264286D01*
X120622035Y-61242024D01*
X120629630Y-61217829D01*
X120632406Y-61192831D01*
X120632501Y-61186861D01*
X120632501Y-61163902D01*
X120630303Y-61163902D01*
X120611344Y-61181732D01*
X120590096Y-61194127D01*
X120586706Y-61195654D01*
X120563111Y-61203323D01*
X120536976Y-61207083D01*
X120524057Y-61207500D01*
X120497601Y-61205826D01*
X120473310Y-61200804D01*
X120453105Y-61193333D01*
X120431255Y-61181209D01*
X120410568Y-61164896D01*
X120400715Y-61154743D01*
X120384944Y-61133588D01*
X120373392Y-61111735D01*
X120367986Y-61097957D01*
X120361140Y-61073153D01*
X120357453Y-61047284D01*
X120356977Y-61035186D01*
X120468492Y-61035186D01*
X120471652Y-61059893D01*
X120474110Y-61067793D01*
X120485869Y-61089981D01*
X120490230Y-61095392D01*
X120509589Y-61111069D01*
X120515997Y-61114443D01*
X120540100Y-61120966D01*
X120550802Y-61121526D01*
X120575990Y-61118178D01*
X120586217Y-61114443D01*
X120607214Y-61101231D01*
X120612962Y-61095758D01*
X120627079Y-61075171D01*
X120629937Y-61068525D01*
X120635547Y-61043910D01*
X120635921Y-61035186D01*
X120632555Y-61010479D01*
X120629937Y-61002580D01*
X120618007Y-60981262D01*
X120612718Y-60975102D01*
X120592554Y-60959608D01*
X120585973Y-60956418D01*
X120561533Y-60950120D01*
X120550802Y-60949579D01*
X120525903Y-60952811D01*
X120515997Y-60956418D01*
X120495094Y-60969894D01*
X120490230Y-60974736D01*
X120476801Y-60995323D01*
X120474110Y-61001969D01*
X120468843Y-61026516D01*
X120468492Y-61035186D01*
X120356977Y-61035186D01*
X120356751Y-61029446D01*
X120358079Y-61005013D01*
X120362555Y-60979313D01*
X120367986Y-60960692D01*
X120377855Y-60937228D01*
X120390609Y-60915927D01*
X120400715Y-60902929D01*
X120418157Y-60885578D01*
X120438244Y-60871078D01*
X120453105Y-60862995D01*
X120477537Y-60853842D01*
X120501984Y-60849162D01*
X120523447Y-60847974D01*
X120547856Y-60850000D01*
G37*
G36*
X120960153Y-60746369D02*
G01*
X120955225Y-60770318D01*
X120954902Y-60771038D01*
X120940858Y-60790821D01*
X120919731Y-60804010D01*
X120895638Y-60808876D01*
X120893963Y-60808895D01*
X120869616Y-60804843D01*
X120848024Y-60791589D01*
X120846824Y-60790455D01*
X120832628Y-60770213D01*
X120827896Y-60746369D01*
X120832780Y-60722433D01*
X120846824Y-60702650D01*
X120867951Y-60689094D01*
X120892216Y-60683863D01*
X120893963Y-60683843D01*
X120918185Y-60688136D01*
X120919731Y-60688728D01*
X120940858Y-60701917D01*
X120954902Y-60721700D01*
X120960153Y-60746369D01*
G37*
G36*
X120836322Y-61207500D02*
G01*
X120836322Y-60857255D01*
X120951727Y-60857255D01*
X120951727Y-61207500D01*
X120836322Y-61207500D01*
G37*
G36*
X121272051Y-61207500D02*
G01*
X121272051Y-61021386D01*
X121270045Y-60996592D01*
X121269609Y-60994153D01*
X121261549Y-60971195D01*
X121245673Y-60955441D01*
X121221945Y-60949602D01*
X121220027Y-60949579D01*
X121195878Y-60954067D01*
X121192916Y-60955441D01*
X121173499Y-60971439D01*
X121162401Y-60993464D01*
X121161898Y-60995130D01*
X121158145Y-61020059D01*
X121158112Y-61022730D01*
X121158112Y-61207500D01*
X121042096Y-61207500D01*
X121042096Y-60862018D01*
X121153838Y-60862018D01*
X121153838Y-60910500D01*
X121155303Y-60910500D01*
X121169315Y-60889717D01*
X121171789Y-60886809D01*
X121190716Y-60870015D01*
X121195725Y-60866781D01*
X121217730Y-60856042D01*
X121225645Y-60853225D01*
X121250002Y-60848389D01*
X121260083Y-60847974D01*
X121285042Y-60849760D01*
X121310340Y-60856358D01*
X121319923Y-60860675D01*
X121340956Y-60874104D01*
X121358779Y-60892037D01*
X121359734Y-60893281D01*
X121372740Y-60914805D01*
X121381472Y-60939321D01*
X121386293Y-60963619D01*
X121388182Y-60989597D01*
X121388189Y-60991222D01*
X121388189Y-61207500D01*
X121272051Y-61207500D01*
G37*
G36*
X121646460Y-60850000D02*
G01*
X121671973Y-60856769D01*
X121685310Y-60862384D01*
X121706342Y-60875425D01*
X121724007Y-60892930D01*
X121733914Y-60907081D01*
X121735258Y-60907081D01*
X121735258Y-60862140D01*
X121844312Y-60862140D01*
X121844312Y-61178312D01*
X121843389Y-61203065D01*
X121840142Y-61228923D01*
X121833792Y-61255184D01*
X121829535Y-61267339D01*
X121819131Y-61289724D01*
X121804987Y-61311400D01*
X121788014Y-61329987D01*
X121768256Y-61345614D01*
X121745757Y-61358239D01*
X121722923Y-61367112D01*
X121698222Y-61373617D01*
X121671900Y-61377712D01*
X121646822Y-61379338D01*
X121638171Y-61379446D01*
X121611875Y-61378413D01*
X121585191Y-61375312D01*
X121561149Y-61370820D01*
X121542916Y-61366379D01*
X121519301Y-61359167D01*
X121494668Y-61349282D01*
X121472083Y-61337524D01*
X121458164Y-61328644D01*
X121515806Y-61249143D01*
X121535578Y-61264439D01*
X121558626Y-61277288D01*
X121571737Y-61282604D01*
X121596461Y-61289641D01*
X121620822Y-61293091D01*
X121631943Y-61293473D01*
X121658354Y-61291164D01*
X121682784Y-61283183D01*
X121703677Y-61267820D01*
X121706803Y-61264286D01*
X121720640Y-61242024D01*
X121728234Y-61217829D01*
X121731011Y-61192831D01*
X121731106Y-61186861D01*
X121731106Y-61163902D01*
X121728907Y-61163902D01*
X121709948Y-61181732D01*
X121688700Y-61194127D01*
X121685310Y-61195654D01*
X121661715Y-61203323D01*
X121635580Y-61207083D01*
X121622662Y-61207500D01*
X121596206Y-61205826D01*
X121571914Y-61200804D01*
X121551709Y-61193333D01*
X121529859Y-61181209D01*
X121509172Y-61164896D01*
X121499319Y-61154743D01*
X121483549Y-61133588D01*
X121471997Y-61111735D01*
X121466591Y-61097957D01*
X121459744Y-61073153D01*
X121456058Y-61047284D01*
X121455581Y-61035186D01*
X121567096Y-61035186D01*
X121570256Y-61059893D01*
X121572714Y-61067793D01*
X121584473Y-61089981D01*
X121588834Y-61095392D01*
X121608193Y-61111069D01*
X121614602Y-61114443D01*
X121638704Y-61120966D01*
X121649406Y-61121526D01*
X121674594Y-61118178D01*
X121684822Y-61114443D01*
X121705819Y-61101231D01*
X121711566Y-61095758D01*
X121725683Y-61075171D01*
X121728541Y-61068525D01*
X121734151Y-61043910D01*
X121734525Y-61035186D01*
X121731159Y-61010479D01*
X121728541Y-61002580D01*
X121716611Y-60981262D01*
X121711322Y-60975102D01*
X121691158Y-60959608D01*
X121684577Y-60956418D01*
X121660138Y-60950120D01*
X121649406Y-60949579D01*
X121624507Y-60952811D01*
X121614602Y-60956418D01*
X121593699Y-60969894D01*
X121588834Y-60974736D01*
X121575406Y-60995323D01*
X121572714Y-61001969D01*
X121567448Y-61026516D01*
X121567096Y-61035186D01*
X121455581Y-61035186D01*
X121455355Y-61029446D01*
X121456683Y-61005013D01*
X121461160Y-60979313D01*
X121466591Y-60960692D01*
X121476460Y-60937228D01*
X121489214Y-60915927D01*
X121499319Y-60902929D01*
X121516761Y-60885578D01*
X121536849Y-60871078D01*
X121551709Y-60862995D01*
X121576141Y-60853842D01*
X121600589Y-60849162D01*
X121622051Y-60847974D01*
X121646460Y-60850000D01*
G37*
G36*
X119328855Y-57457500D02*
G01*
X119210031Y-57457500D01*
X119111601Y-57119101D01*
X119109403Y-57119101D01*
X119010973Y-57457500D01*
X118891416Y-57457500D01*
X118750000Y-56957290D01*
X118879448Y-56957290D01*
X118958217Y-57290071D01*
X118960293Y-57290071D01*
X119048953Y-56957290D01*
X119174127Y-56957290D01*
X119263520Y-57290071D01*
X119265596Y-57290071D01*
X119345830Y-56957290D01*
X119471004Y-56957290D01*
X119328855Y-57457500D01*
G37*
G36*
X119664792Y-57099035D02*
G01*
X119690673Y-57102655D01*
X119713293Y-57108843D01*
X119736264Y-57119629D01*
X119756673Y-57135617D01*
X119762875Y-57142426D01*
X119776660Y-57162857D01*
X119787060Y-57187238D01*
X119790718Y-57199823D01*
X119795724Y-57225113D01*
X119798472Y-57250759D01*
X119799477Y-57276001D01*
X119799511Y-57281889D01*
X119799511Y-57457500D01*
X119693998Y-57457500D01*
X119693998Y-57419153D01*
X119691922Y-57419153D01*
X119675161Y-57438662D01*
X119653181Y-57452460D01*
X119651500Y-57453225D01*
X119626913Y-57461490D01*
X119602533Y-57465020D01*
X119592759Y-57465315D01*
X119567154Y-57463335D01*
X119549040Y-57459698D01*
X119524959Y-57451175D01*
X119507885Y-57441502D01*
X119489089Y-57424685D01*
X119477355Y-57407918D01*
X119468379Y-57384471D01*
X119465434Y-57359947D01*
X119465387Y-57356139D01*
X119465659Y-57353696D01*
X119571632Y-57353696D01*
X119576151Y-57369450D01*
X119587752Y-57379952D01*
X119603995Y-57385570D01*
X119621580Y-57387158D01*
X119647415Y-57384175D01*
X119670413Y-57373320D01*
X119675314Y-57369084D01*
X119689327Y-57347804D01*
X119693980Y-57322031D01*
X119693998Y-57320113D01*
X119693998Y-57309000D01*
X119679221Y-57309000D01*
X119654167Y-57309736D01*
X119640875Y-57310710D01*
X119616307Y-57314336D01*
X119606437Y-57316938D01*
X119583957Y-57328211D01*
X119581402Y-57330371D01*
X119571642Y-57352794D01*
X119571632Y-57353696D01*
X119465659Y-57353696D01*
X119468306Y-57329898D01*
X119478058Y-57306121D01*
X119486147Y-57295322D01*
X119504970Y-57278302D01*
X119527704Y-57264749D01*
X119539515Y-57259663D01*
X119562881Y-57252011D01*
X119587980Y-57246350D01*
X119612299Y-57242932D01*
X119637195Y-57240678D01*
X119661663Y-57239259D01*
X119688081Y-57238662D01*
X119690457Y-57238658D01*
X119690457Y-57233162D01*
X119684661Y-57208935D01*
X119672138Y-57195915D01*
X119648963Y-57186238D01*
X119627198Y-57183948D01*
X119601504Y-57186946D01*
X119579692Y-57194572D01*
X119557290Y-57206937D01*
X119540614Y-57219851D01*
X119482240Y-57157203D01*
X119502616Y-57140111D01*
X119524973Y-57125928D01*
X119549309Y-57114656D01*
X119554413Y-57112751D01*
X119580302Y-57104958D01*
X119606525Y-57100052D01*
X119633081Y-57098032D01*
X119638433Y-57097974D01*
X119664792Y-57099035D01*
G37*
G36*
X120259665Y-57457500D02*
G01*
X120116905Y-57457500D01*
X120002233Y-57289338D01*
X120000157Y-57289338D01*
X120000157Y-57457500D01*
X119884019Y-57457500D01*
X119884019Y-56925661D01*
X120000157Y-56925661D01*
X120000157Y-57249282D01*
X120002233Y-57249282D01*
X120114096Y-57107255D01*
X120254047Y-57107255D01*
X120118981Y-57265525D01*
X120259665Y-57457500D01*
G37*
G36*
X120484831Y-57099518D02*
G01*
X120509195Y-57104150D01*
X120530041Y-57111041D01*
X120553025Y-57122490D01*
X120573433Y-57137236D01*
X120585607Y-57148899D01*
X120601566Y-57168894D01*
X120614641Y-57191878D01*
X120621755Y-57208860D01*
X120629194Y-57234293D01*
X120633278Y-57259443D01*
X120634809Y-57286524D01*
X120634822Y-57289338D01*
X120634822Y-57303382D01*
X120634089Y-57316816D01*
X120380198Y-57316816D01*
X120387976Y-57340665D01*
X120388869Y-57342095D01*
X120405781Y-57360172D01*
X120407920Y-57361756D01*
X120429616Y-57373162D01*
X120434054Y-57374701D01*
X120458116Y-57379179D01*
X120463852Y-57379342D01*
X120489192Y-57376808D01*
X120510258Y-57369206D01*
X120530384Y-57354958D01*
X120541277Y-57342827D01*
X120621510Y-57393019D01*
X120604554Y-57413210D01*
X120584521Y-57430276D01*
X120561411Y-57444217D01*
X120556420Y-57446631D01*
X120532648Y-57455663D01*
X120506810Y-57461739D01*
X120482107Y-57464658D01*
X120462508Y-57465315D01*
X120435895Y-57463887D01*
X120410291Y-57459601D01*
X120387892Y-57453225D01*
X120364751Y-57443531D01*
X120341876Y-57429992D01*
X120326343Y-57417810D01*
X120308214Y-57398896D01*
X120293210Y-57376960D01*
X120284944Y-57360657D01*
X120276322Y-57336162D01*
X120271590Y-57311891D01*
X120269815Y-57285711D01*
X120269801Y-57282988D01*
X120271244Y-57257354D01*
X120273200Y-57246474D01*
X120380198Y-57246474D01*
X120528576Y-57246474D01*
X120523716Y-57221259D01*
X120511357Y-57202388D01*
X120489833Y-57188558D01*
X120463937Y-57184020D01*
X120459699Y-57183948D01*
X120434965Y-57187004D01*
X120428681Y-57188954D01*
X120406722Y-57200308D01*
X120404012Y-57202388D01*
X120387969Y-57221100D01*
X120387159Y-57222538D01*
X120380198Y-57246474D01*
X120273200Y-57246474D01*
X120275573Y-57233271D01*
X120283668Y-57208570D01*
X120284577Y-57206418D01*
X120295977Y-57184067D01*
X120311244Y-57162514D01*
X120324633Y-57148288D01*
X120344955Y-57131847D01*
X120367818Y-57118429D01*
X120384473Y-57111163D01*
X120408813Y-57103654D01*
X120434480Y-57099262D01*
X120458967Y-57097974D01*
X120484831Y-57099518D01*
G37*
G36*
X121307711Y-57270165D02*
G01*
X121306513Y-57295072D01*
X121302372Y-57321228D01*
X121295274Y-57345786D01*
X121292568Y-57352841D01*
X121281839Y-57375083D01*
X121267117Y-57397153D01*
X121249337Y-57416711D01*
X121228641Y-57433629D01*
X121207422Y-57446604D01*
X121183914Y-57457290D01*
X121181437Y-57458232D01*
X121155761Y-57466089D01*
X121131163Y-57470672D01*
X121105155Y-57472898D01*
X121093143Y-57473131D01*
X121066233Y-57471953D01*
X121040868Y-57468417D01*
X121017048Y-57462524D01*
X121004483Y-57458232D01*
X120981063Y-57447776D01*
X120959956Y-57435029D01*
X120939412Y-57418363D01*
X120937683Y-57416711D01*
X120920362Y-57397153D01*
X120906015Y-57375083D01*
X120895551Y-57352841D01*
X120887758Y-57328763D01*
X120882852Y-57303087D01*
X120880904Y-57278611D01*
X120880774Y-57270165D01*
X120880774Y-56957290D01*
X121000331Y-56957290D01*
X121000331Y-57266013D01*
X121002382Y-57291306D01*
X121005582Y-57305703D01*
X121014894Y-57328703D01*
X121021702Y-57339408D01*
X121040105Y-57356840D01*
X121050645Y-57362855D01*
X121074546Y-57370095D01*
X121093876Y-57371526D01*
X121118762Y-57369079D01*
X121137229Y-57362855D01*
X121157898Y-57348846D01*
X121166416Y-57339408D01*
X121178863Y-57317075D01*
X121182536Y-57305703D01*
X121186839Y-57281383D01*
X121187543Y-57266013D01*
X121187543Y-56957290D01*
X121307711Y-56957290D01*
X121307711Y-57270165D01*
G37*
G36*
X121644639Y-57099706D02*
G01*
X121670301Y-57105545D01*
X121688241Y-57112629D01*
X121710166Y-57125096D01*
X121729411Y-57140518D01*
X121740753Y-57152440D01*
X121755482Y-57172441D01*
X121767429Y-57194709D01*
X121773848Y-57210814D01*
X121780918Y-57236099D01*
X121784725Y-57262311D01*
X121785450Y-57280301D01*
X121784122Y-57304920D01*
X121779645Y-57331052D01*
X121774214Y-57350155D01*
X121764345Y-57374134D01*
X121751591Y-57395882D01*
X121741486Y-57409139D01*
X121724026Y-57426782D01*
X121703888Y-57441608D01*
X121688974Y-57449928D01*
X121664616Y-57459305D01*
X121640207Y-57464098D01*
X121618754Y-57465315D01*
X121593024Y-57463038D01*
X121568423Y-57456205D01*
X121557449Y-57451516D01*
X121536128Y-57438630D01*
X121517856Y-57421013D01*
X121512508Y-57413780D01*
X121511043Y-57413780D01*
X121511043Y-57621264D01*
X121395760Y-57621264D01*
X121395760Y-57281645D01*
X121506891Y-57281645D01*
X121510841Y-57306246D01*
X121512875Y-57311809D01*
X121525823Y-57333607D01*
X121529727Y-57338065D01*
X121549542Y-57353318D01*
X121556106Y-57356627D01*
X121580545Y-57363150D01*
X121591277Y-57363710D01*
X121615940Y-57360660D01*
X121627180Y-57356627D01*
X121648134Y-57342877D01*
X121652826Y-57338065D01*
X121666190Y-57316955D01*
X121668335Y-57311442D01*
X121673402Y-57286791D01*
X121673586Y-57281034D01*
X121670120Y-57256433D01*
X121668335Y-57250870D01*
X121656497Y-57229196D01*
X121652826Y-57224858D01*
X121632807Y-57209423D01*
X121627180Y-57206662D01*
X121603546Y-57200271D01*
X121591277Y-57199579D01*
X121566204Y-57202927D01*
X121556106Y-57206662D01*
X121535452Y-57219714D01*
X121529727Y-57225225D01*
X121515290Y-57246055D01*
X121512875Y-57251481D01*
X121507101Y-57275896D01*
X121506891Y-57281645D01*
X121395760Y-57281645D01*
X121395760Y-57112018D01*
X121505425Y-57112018D01*
X121505425Y-57154883D01*
X121507501Y-57154883D01*
X121524051Y-57136083D01*
X121543604Y-57120551D01*
X121552198Y-57115071D01*
X121574981Y-57104653D01*
X121600649Y-57099043D01*
X121619364Y-57097974D01*
X121644639Y-57099706D01*
G37*
D12*
X146500000Y-71300000D02*
X147300000Y-71300000D01*
X141700000Y-71300000D02*
X142500000Y-71300000D01*
X142100000Y-70900000D02*
X142100000Y-71700000D01*
X154650000Y-70900000D02*
X154650000Y-71700000D01*
X159050000Y-71300000D02*
X159850000Y-71300000D01*
X154250000Y-71300000D02*
X155050000Y-71300000D01*
D13*
G36*
X171212920Y-67032943D02*
G01*
X171254989Y-67037303D01*
X171295073Y-67044756D01*
X171335657Y-67056800D01*
X171372120Y-67073296D01*
X171394138Y-67086766D01*
X171425463Y-67113261D01*
X171450854Y-67145754D01*
X171460572Y-67162774D01*
X171475337Y-67201077D01*
X171482884Y-67241692D01*
X171484801Y-67278838D01*
X171482263Y-67320646D01*
X171473609Y-67361653D01*
X171458814Y-67397443D01*
X171436914Y-67431002D01*
X171409904Y-67459285D01*
X171389058Y-67475210D01*
X171354189Y-67495112D01*
X171315528Y-67510564D01*
X171287648Y-67518392D01*
X171247734Y-67526068D01*
X171206712Y-67530557D01*
X171168458Y-67531874D01*
X171072714Y-67531874D01*
X171072714Y-67832000D01*
X170880251Y-67832000D01*
X170880251Y-67369306D01*
X171072714Y-67369306D01*
X171153803Y-67369306D01*
X171193041Y-67366998D01*
X171205583Y-67365203D01*
X171243841Y-67353636D01*
X171250132Y-67350548D01*
X171280300Y-67323870D01*
X171281005Y-67322802D01*
X171292238Y-67284061D01*
X171292338Y-67279229D01*
X171283661Y-67240547D01*
X171281005Y-67236242D01*
X171250719Y-67210060D01*
X171213319Y-67198241D01*
X171207341Y-67197359D01*
X171166808Y-67194342D01*
X171157125Y-67194233D01*
X171072714Y-67194233D01*
X171072714Y-67369306D01*
X170880251Y-67369306D01*
X170880251Y-67031665D01*
X171172952Y-67031665D01*
X171212920Y-67032943D01*
G37*
G36*
X171907634Y-67832000D02*
G01*
X171907634Y-67745244D01*
X171905289Y-67745244D01*
X171883692Y-67777867D01*
X171878716Y-67783542D01*
X171848621Y-67809528D01*
X171840614Y-67814609D01*
X171805150Y-67831609D01*
X171792156Y-67836103D01*
X171752723Y-67843840D01*
X171736469Y-67844505D01*
X171696709Y-67841482D01*
X171656504Y-67830316D01*
X171641312Y-67823011D01*
X171608219Y-67800114D01*
X171579923Y-67769632D01*
X171578395Y-67767519D01*
X171558643Y-67733616D01*
X171544815Y-67696021D01*
X171543419Y-67690729D01*
X171535846Y-67650796D01*
X171532909Y-67610862D01*
X171532868Y-67605538D01*
X171532868Y-67258908D01*
X171718493Y-67258908D01*
X171718493Y-67562746D01*
X171721036Y-67602475D01*
X171721814Y-67607882D01*
X171734710Y-67645984D01*
X171760112Y-67672362D01*
X171798545Y-67681899D01*
X171801731Y-67681937D01*
X171842051Y-67674037D01*
X171873796Y-67648196D01*
X171875394Y-67645984D01*
X171893627Y-67609531D01*
X171900572Y-67570550D01*
X171900795Y-67561574D01*
X171900795Y-67258908D01*
X172085443Y-67258908D01*
X172085443Y-67832000D01*
X171907634Y-67832000D01*
G37*
G36*
X172555171Y-67444923D02*
G01*
X172523954Y-67420896D01*
X172502219Y-67408971D01*
X172465014Y-67396735D01*
X172438130Y-67394316D01*
X172398668Y-67400895D01*
X172390258Y-67404281D01*
X172368374Y-67438085D01*
X172391112Y-67470275D01*
X172392603Y-67470911D01*
X172431845Y-67483270D01*
X172470761Y-67492600D01*
X172510313Y-67503041D01*
X172534264Y-67511357D01*
X172570276Y-67528267D01*
X172592296Y-67543011D01*
X172620735Y-67570947D01*
X172633915Y-67591078D01*
X172647130Y-67628580D01*
X172649742Y-67658685D01*
X172646194Y-67697826D01*
X172633286Y-67736497D01*
X172628248Y-67745635D01*
X172603677Y-67777778D01*
X172572561Y-67803081D01*
X172536218Y-67821790D01*
X172498242Y-67833917D01*
X172495576Y-67834540D01*
X172455459Y-67841692D01*
X172415342Y-67844466D01*
X172409993Y-67844505D01*
X172367395Y-67842291D01*
X172325332Y-67835651D01*
X172283803Y-67824584D01*
X172275562Y-67821839D01*
X172236544Y-67805471D01*
X172201800Y-67784943D01*
X172171331Y-67760255D01*
X172165750Y-67754819D01*
X172269309Y-67644030D01*
X172298818Y-67670143D01*
X172330077Y-67688971D01*
X172367299Y-67702453D01*
X172406671Y-67706947D01*
X172445545Y-67699018D01*
X172451026Y-67696591D01*
X172473019Y-67663264D01*
X172473105Y-67660053D01*
X172452461Y-67626115D01*
X172446141Y-67622928D01*
X172408888Y-67609780D01*
X172368792Y-67599354D01*
X172361731Y-67597722D01*
X172323262Y-67587151D01*
X172303112Y-67580136D01*
X172267337Y-67562493D01*
X172250747Y-67550632D01*
X172223015Y-67521045D01*
X172213035Y-67504909D01*
X172200442Y-67466441D01*
X172198381Y-67439257D01*
X172202457Y-67399015D01*
X172215873Y-67362207D01*
X172219679Y-67355628D01*
X172244250Y-67324365D01*
X172274975Y-67299355D01*
X172310586Y-67280353D01*
X172349811Y-67267115D01*
X172388194Y-67259681D01*
X172428946Y-67256769D01*
X172431486Y-67256759D01*
X172470542Y-67258762D01*
X172512887Y-67265594D01*
X172550821Y-67276013D01*
X172554585Y-67277275D01*
X172593877Y-67293670D01*
X172628737Y-67314914D01*
X172656580Y-67338434D01*
X172555171Y-67444923D01*
G37*
G36*
X173122987Y-67832000D02*
G01*
X173122987Y-67534805D01*
X173120098Y-67494780D01*
X173119470Y-67490841D01*
X173106573Y-67454107D01*
X173081368Y-67428706D01*
X173042451Y-67419336D01*
X173040921Y-67419327D01*
X173000429Y-67426711D01*
X172968122Y-67450867D01*
X172966476Y-67452935D01*
X172947963Y-67487920D01*
X172940910Y-67526847D01*
X172940684Y-67535977D01*
X172940684Y-67832000D01*
X172756036Y-67832000D01*
X172756036Y-66986919D01*
X172940684Y-66986919D01*
X172940684Y-67348203D01*
X172942833Y-67348203D01*
X172967599Y-67314547D01*
X172998486Y-67288223D01*
X173003601Y-67284700D01*
X173040222Y-67266609D01*
X173079006Y-67258096D01*
X173103838Y-67256759D01*
X173144193Y-67259616D01*
X173184745Y-67270174D01*
X173199972Y-67277080D01*
X173233205Y-67298566D01*
X173261556Y-67327259D01*
X173263084Y-67329250D01*
X173283894Y-67363688D01*
X173297864Y-67402914D01*
X173305578Y-67441791D01*
X173308601Y-67483355D01*
X173308611Y-67485956D01*
X173308611Y-67832000D01*
X173122987Y-67832000D01*
G37*
G36*
X173631598Y-67338043D02*
G01*
X173633943Y-67338043D01*
X173662226Y-67308978D01*
X173694908Y-67285550D01*
X173700181Y-67282355D01*
X173738110Y-67265783D01*
X173778730Y-67257984D01*
X173804913Y-67256759D01*
X173845282Y-67259529D01*
X173886109Y-67268872D01*
X173914529Y-67280206D01*
X173949224Y-67300155D01*
X173979742Y-67324829D01*
X173997767Y-67343905D01*
X174021333Y-67375907D01*
X174040448Y-67411535D01*
X174050719Y-67437303D01*
X174062030Y-67477759D01*
X174068121Y-67519698D01*
X174069281Y-67548482D01*
X174067157Y-67587872D01*
X174059995Y-67629683D01*
X174051305Y-67660248D01*
X174035515Y-67698615D01*
X174015108Y-67733411D01*
X173998939Y-67754623D01*
X173971031Y-67782852D01*
X173938892Y-67806574D01*
X173915115Y-67819885D01*
X173876116Y-67834888D01*
X173836987Y-67842557D01*
X173802568Y-67844505D01*
X173761242Y-67841070D01*
X173721675Y-67830766D01*
X173696273Y-67820080D01*
X173662000Y-67798703D01*
X173632188Y-67768971D01*
X173619288Y-67750129D01*
X173616943Y-67750129D01*
X173616943Y-67832000D01*
X173446950Y-67832000D01*
X173446950Y-67550632D01*
X173623587Y-67550632D01*
X173629907Y-67589994D01*
X173633161Y-67598894D01*
X173653879Y-67633771D01*
X173660125Y-67640904D01*
X173691896Y-67665309D01*
X173702331Y-67670604D01*
X173741434Y-67681040D01*
X173758604Y-67681937D01*
X173798066Y-67677056D01*
X173816050Y-67670604D01*
X173849934Y-67648603D01*
X173857669Y-67640904D01*
X173879617Y-67607128D01*
X173883070Y-67598308D01*
X173891177Y-67558867D01*
X173891472Y-67549655D01*
X173885926Y-67510293D01*
X173883070Y-67501392D01*
X173863742Y-67466714D01*
X173857669Y-67459773D01*
X173826523Y-67435860D01*
X173816050Y-67430660D01*
X173778235Y-67420434D01*
X173758604Y-67419327D01*
X173718489Y-67424683D01*
X173702331Y-67430660D01*
X173668156Y-67452594D01*
X173660125Y-67460360D01*
X173637026Y-67493689D01*
X173633161Y-67502369D01*
X173623923Y-67541434D01*
X173623587Y-67550632D01*
X173446950Y-67550632D01*
X173446950Y-66987896D01*
X173631598Y-66987896D01*
X173631598Y-67338043D01*
G37*
G36*
X174551710Y-67832000D02*
G01*
X174551710Y-67745244D01*
X174549365Y-67745244D01*
X174527768Y-67777867D01*
X174522791Y-67783542D01*
X174492697Y-67809528D01*
X174484689Y-67814609D01*
X174449225Y-67831609D01*
X174436232Y-67836103D01*
X174396799Y-67843840D01*
X174380544Y-67844505D01*
X174340785Y-67841482D01*
X174300580Y-67830316D01*
X174285387Y-67823011D01*
X174252294Y-67800114D01*
X174223999Y-67769632D01*
X174222470Y-67767519D01*
X174202718Y-67733616D01*
X174188891Y-67696021D01*
X174187495Y-67690729D01*
X174179921Y-67650796D01*
X174176985Y-67610862D01*
X174176943Y-67605538D01*
X174176943Y-67258908D01*
X174362568Y-67258908D01*
X174362568Y-67562746D01*
X174365111Y-67602475D01*
X174365890Y-67607882D01*
X174378786Y-67645984D01*
X174404187Y-67672362D01*
X174442621Y-67681899D01*
X174445806Y-67681937D01*
X174486126Y-67674037D01*
X174517871Y-67648196D01*
X174519470Y-67645984D01*
X174537702Y-67609531D01*
X174544648Y-67570550D01*
X174544871Y-67561574D01*
X174544871Y-67258908D01*
X174729518Y-67258908D01*
X174729518Y-67832000D01*
X174551710Y-67832000D01*
G37*
G36*
X175069895Y-67406822D02*
G01*
X175069895Y-67626054D01*
X175074656Y-67665189D01*
X175084941Y-67686822D01*
X175119366Y-67705355D01*
X175139651Y-67706947D01*
X175168374Y-67703235D01*
X175193775Y-67692293D01*
X175195925Y-67827505D01*
X175158100Y-67837458D01*
X175147467Y-67839424D01*
X175107343Y-67844009D01*
X175089044Y-67844505D01*
X175049367Y-67842526D01*
X175009466Y-67835217D01*
X174994473Y-67830436D01*
X174958083Y-67811807D01*
X174933119Y-67789599D01*
X174911261Y-67756489D01*
X174899902Y-67726291D01*
X174892282Y-67687457D01*
X174889752Y-67647234D01*
X174889742Y-67644421D01*
X174889742Y-67406822D01*
X174799860Y-67406822D01*
X174799860Y-67269264D01*
X174888765Y-67269264D01*
X174888765Y-67121741D01*
X175069895Y-67121741D01*
X175069895Y-67269264D01*
X175201591Y-67269264D01*
X175201591Y-67406822D01*
X175069895Y-67406822D01*
G37*
G36*
X175459121Y-67406822D02*
G01*
X175459121Y-67626054D01*
X175463881Y-67665189D01*
X175474166Y-67686822D01*
X175508591Y-67705355D01*
X175528876Y-67706947D01*
X175557599Y-67703235D01*
X175583001Y-67692293D01*
X175585150Y-67827505D01*
X175547326Y-67837458D01*
X175536692Y-67839424D01*
X175496568Y-67844009D01*
X175478269Y-67844505D01*
X175438592Y-67842526D01*
X175398692Y-67835217D01*
X175383698Y-67830436D01*
X175347309Y-67811807D01*
X175322345Y-67789599D01*
X175300486Y-67756489D01*
X175289128Y-67726291D01*
X175281507Y-67687457D01*
X175278977Y-67647234D01*
X175278967Y-67644421D01*
X175278967Y-67406822D01*
X175189086Y-67406822D01*
X175189086Y-67269264D01*
X175277990Y-67269264D01*
X175277990Y-67121741D01*
X175459121Y-67121741D01*
X175459121Y-67269264D01*
X175590816Y-67269264D01*
X175590816Y-67406822D01*
X175459121Y-67406822D01*
G37*
G36*
X175997255Y-67258705D02*
G01*
X176038713Y-67265342D01*
X176078325Y-67276689D01*
X176115420Y-67292492D01*
X176149329Y-67312497D01*
X176177390Y-67334330D01*
X176206928Y-67364949D01*
X176229515Y-67397120D01*
X176244801Y-67426361D01*
X176258929Y-67465299D01*
X176267193Y-67507423D01*
X176269616Y-67548482D01*
X176267193Y-67589496D01*
X176259923Y-67628029D01*
X176246328Y-67667551D01*
X176244801Y-67670995D01*
X176225728Y-67706780D01*
X176202360Y-67738640D01*
X176177390Y-67764198D01*
X176146378Y-67788384D01*
X176112179Y-67808553D01*
X176078325Y-67823402D01*
X176038713Y-67835417D01*
X175997255Y-67842444D01*
X175957962Y-67844505D01*
X175915311Y-67842011D01*
X175874138Y-67834530D01*
X175837990Y-67823402D01*
X175800631Y-67806885D01*
X175766735Y-67786351D01*
X175738925Y-67764198D01*
X175711964Y-67735906D01*
X175689113Y-67703689D01*
X175671905Y-67670995D01*
X175657888Y-67631746D01*
X175649690Y-67589496D01*
X175647354Y-67549655D01*
X175826071Y-67549655D01*
X175831618Y-67589017D01*
X175834473Y-67597917D01*
X175853673Y-67633052D01*
X175859679Y-67640318D01*
X175891011Y-67665281D01*
X175901493Y-67670604D01*
X175939308Y-67680830D01*
X175958939Y-67681937D01*
X175998401Y-67677056D01*
X176016385Y-67670604D01*
X176050269Y-67648245D01*
X176058004Y-67640318D01*
X176079952Y-67606552D01*
X176083405Y-67597917D01*
X176091512Y-67558853D01*
X176091807Y-67549655D01*
X176085874Y-67510293D01*
X176082819Y-67501392D01*
X176062925Y-67466714D01*
X176056832Y-67459773D01*
X176025686Y-67435860D01*
X176015213Y-67430660D01*
X175977398Y-67420434D01*
X175957767Y-67419327D01*
X175918305Y-67424207D01*
X175900321Y-67430660D01*
X175866862Y-67452236D01*
X175859288Y-67459773D01*
X175837905Y-67492726D01*
X175834473Y-67501392D01*
X175826366Y-67540457D01*
X175826071Y-67549655D01*
X175647354Y-67549655D01*
X175647285Y-67548482D01*
X175649690Y-67507423D01*
X175656902Y-67468997D01*
X175670390Y-67429769D01*
X175671905Y-67426361D01*
X175691020Y-67390979D01*
X175714245Y-67359522D01*
X175738925Y-67334330D01*
X175772640Y-67308547D01*
X175807166Y-67289306D01*
X175837990Y-67276689D01*
X175877820Y-67265342D01*
X175919128Y-67258705D01*
X175957962Y-67256759D01*
X175997255Y-67258705D01*
G37*
G36*
X176750677Y-67832000D02*
G01*
X176750677Y-67534219D01*
X176747467Y-67494548D01*
X176746769Y-67490646D01*
X176733873Y-67453912D01*
X176708472Y-67428706D01*
X176670507Y-67419363D01*
X176667439Y-67419327D01*
X176628800Y-67426508D01*
X176624061Y-67428706D01*
X176592994Y-67454302D01*
X176575236Y-67489542D01*
X176574431Y-67492209D01*
X176568427Y-67532095D01*
X176568374Y-67536368D01*
X176568374Y-67832000D01*
X176382749Y-67832000D01*
X176382749Y-67279229D01*
X176561535Y-67279229D01*
X176561535Y-67356801D01*
X176563880Y-67356801D01*
X176586298Y-67323547D01*
X176590258Y-67318894D01*
X176620541Y-67292024D01*
X176628555Y-67286849D01*
X176663763Y-67269667D01*
X176676427Y-67265161D01*
X176715399Y-67257423D01*
X176731528Y-67256759D01*
X176771462Y-67259616D01*
X176811939Y-67270174D01*
X176827271Y-67277080D01*
X176860925Y-67298566D01*
X176889441Y-67327259D01*
X176890970Y-67329250D01*
X176911779Y-67363688D01*
X176925750Y-67402914D01*
X176933464Y-67441791D01*
X176936486Y-67483355D01*
X176936497Y-67485956D01*
X176936497Y-67832000D01*
X176750677Y-67832000D01*
G37*
D14*
G36*
X139458650Y-77839344D02*
G01*
X139458567Y-77847440D01*
X139453374Y-77906169D01*
X139452355Y-77912594D01*
X139433737Y-77968597D01*
X139432828Y-77970327D01*
X139392997Y-78014026D01*
X139382529Y-78020102D01*
X139323828Y-78031905D01*
X139304510Y-78030965D01*
X139248796Y-78012268D01*
X139243477Y-78008543D01*
X139204540Y-77962442D01*
X139199999Y-77952837D01*
X139183144Y-77895031D01*
X139181152Y-77881234D01*
X139177282Y-77822638D01*
X139177282Y-77685764D01*
X139458650Y-77685764D01*
X139458650Y-77839344D01*
G37*
G36*
X139380981Y-73800837D02*
G01*
X138970946Y-73949434D01*
X138970946Y-73648723D01*
X139380981Y-73800837D01*
G37*
G36*
X139008461Y-72627885D02*
G01*
X139008461Y-72632868D01*
X139007493Y-72666400D01*
X138999744Y-72725614D01*
X138980911Y-72781465D01*
X138942443Y-72823231D01*
X138882139Y-72837153D01*
X138869322Y-72836695D01*
X138812969Y-72818395D01*
X138809683Y-72816043D01*
X138771644Y-72770328D01*
X138768186Y-72762891D01*
X138751420Y-72704675D01*
X138749816Y-72693382D01*
X138745852Y-72634626D01*
X138745852Y-72472547D01*
X139008461Y-72472547D01*
X139008461Y-72627885D01*
G37*
G36*
X139458650Y-72614403D02*
G01*
X139458408Y-72631100D01*
X139451762Y-72694344D01*
X139431099Y-72751863D01*
X139400765Y-72783719D01*
X139343465Y-72798464D01*
X139293761Y-72789881D01*
X139247331Y-72753622D01*
X139241517Y-72744946D01*
X139220167Y-72687803D01*
X139214798Y-72627885D01*
X139214798Y-72472547D01*
X139458650Y-72472547D01*
X139458650Y-72614403D01*
G37*
G36*
X139835835Y-79673486D02*
G01*
X138368667Y-79673486D01*
X138368667Y-78792184D01*
X138502000Y-78792184D01*
X138502000Y-79080879D01*
X139010806Y-79080879D01*
X139702502Y-79540153D01*
X139702502Y-79202512D01*
X139258175Y-78947522D01*
X139702502Y-78692533D01*
X139702502Y-78343168D01*
X139010806Y-78792184D01*
X138502000Y-78792184D01*
X138368667Y-78792184D01*
X138368667Y-77687522D01*
X138502000Y-77687522D01*
X138970946Y-77687522D01*
X138970946Y-77785415D01*
X138903421Y-77822638D01*
X138502000Y-78043922D01*
X138502000Y-78381563D01*
X139007582Y-78069127D01*
X139020021Y-78104336D01*
X139048326Y-78161435D01*
X139084236Y-78210467D01*
X139127750Y-78251430D01*
X139160674Y-78273841D01*
X139215239Y-78298764D01*
X139276017Y-78313254D01*
X139335258Y-78317376D01*
X139391402Y-78314292D01*
X139452655Y-78302149D01*
X139510234Y-78278395D01*
X139535644Y-78262959D01*
X139584052Y-78223153D01*
X139623367Y-78174640D01*
X139643334Y-78141045D01*
X139667377Y-78086667D01*
X139684330Y-78027508D01*
X139692280Y-77986366D01*
X139699947Y-77923690D01*
X139702502Y-77859860D01*
X139702502Y-77403810D01*
X138502000Y-77403810D01*
X138502000Y-77687522D01*
X138368667Y-77687522D01*
X138368667Y-77219162D01*
X138502000Y-77219162D01*
X138745852Y-77219162D01*
X138745852Y-76663754D01*
X138989704Y-76663754D01*
X138989704Y-77159958D01*
X139233556Y-77159958D01*
X139233556Y-76663754D01*
X139458650Y-76663754D01*
X139458650Y-77188681D01*
X139702502Y-77188681D01*
X139702502Y-76385024D01*
X138502000Y-76385024D01*
X138502000Y-77219162D01*
X138368667Y-77219162D01*
X138368667Y-75632658D01*
X138502000Y-75632658D01*
X138502000Y-75921354D01*
X139458650Y-75921354D01*
X139458650Y-76258995D01*
X139702502Y-76258995D01*
X139702502Y-75295017D01*
X139458650Y-75295017D01*
X139458650Y-75632658D01*
X138502000Y-75632658D01*
X138368667Y-75632658D01*
X138368667Y-74657250D01*
X138502000Y-74657250D01*
X138502000Y-74945945D01*
X139458650Y-74945945D01*
X139458650Y-75283587D01*
X139702502Y-75283587D01*
X139702502Y-74319609D01*
X139458650Y-74319609D01*
X139458650Y-74657250D01*
X138502000Y-74657250D01*
X138368667Y-74657250D01*
X138368667Y-73478437D01*
X138502000Y-73478437D01*
X138727094Y-73566071D01*
X138727094Y-73949434D01*
X138727094Y-74028569D01*
X138502000Y-74121479D01*
X138502000Y-74442414D01*
X139702502Y-73945917D01*
X139702502Y-73665722D01*
X138502000Y-73164243D01*
X138502000Y-73478437D01*
X138368667Y-73478437D01*
X138368667Y-72634626D01*
X138502000Y-72634626D01*
X138502000Y-72670090D01*
X138503099Y-72712772D01*
X138508869Y-72775832D01*
X138519585Y-72837739D01*
X138528359Y-72872787D01*
X138548424Y-72928889D01*
X138577324Y-72983991D01*
X138593398Y-73007165D01*
X138634447Y-73051224D01*
X138684009Y-73086866D01*
X138723868Y-73105710D01*
X138784586Y-73121241D01*
X138847847Y-73125848D01*
X138893540Y-73122655D01*
X138953360Y-73106504D01*
X138987061Y-73090058D01*
X139035719Y-73054040D01*
X139060504Y-73027731D01*
X139093751Y-72976371D01*
X139109766Y-72939158D01*
X139124819Y-72881116D01*
X139128336Y-72881116D01*
X139147579Y-72927744D01*
X139179032Y-72977493D01*
X139223297Y-73022679D01*
X139272826Y-73053550D01*
X139330735Y-73071606D01*
X139390653Y-73076901D01*
X139429502Y-73075120D01*
X139488921Y-73063779D01*
X139543060Y-73039679D01*
X139557692Y-73030098D01*
X139602772Y-72991085D01*
X139638315Y-72943545D01*
X139648798Y-72924714D01*
X139672744Y-72868486D01*
X139687847Y-72811654D01*
X139691282Y-72793606D01*
X139699697Y-72731231D01*
X139702502Y-72670090D01*
X139702502Y-72193817D01*
X138502000Y-72193817D01*
X138502000Y-72634626D01*
X138368667Y-72634626D01*
X138368667Y-72060484D01*
X139835835Y-72060484D01*
X139835835Y-79673486D01*
G37*
D15*
G36*
X171783321Y-62033368D02*
G01*
X171825105Y-62038479D01*
X171852533Y-62043779D01*
X171891972Y-62055081D01*
X171928224Y-62071110D01*
X171950621Y-62084421D01*
X171982963Y-62110631D01*
X172009500Y-62142903D01*
X172019791Y-62159843D01*
X172035627Y-62198229D01*
X172043722Y-62239064D01*
X172045778Y-62276494D01*
X172043030Y-62315988D01*
X172033370Y-62356506D01*
X172016755Y-62392883D01*
X172001814Y-62414833D01*
X171974505Y-62443842D01*
X171941818Y-62467782D01*
X171903751Y-62486652D01*
X171880279Y-62494944D01*
X172088569Y-62832000D01*
X171863475Y-62832000D01*
X171691137Y-62519369D01*
X171625876Y-62519369D01*
X171625876Y-62832000D01*
X171436734Y-62832000D01*
X171436734Y-62381811D01*
X171624703Y-62381811D01*
X171715953Y-62381811D01*
X171755017Y-62379231D01*
X171764215Y-62377903D01*
X171802752Y-62366667D01*
X171809156Y-62363639D01*
X171839889Y-62337681D01*
X171842373Y-62334135D01*
X171854838Y-62296993D01*
X171855464Y-62284114D01*
X171847596Y-62244980D01*
X171843545Y-62238001D01*
X171814412Y-62211447D01*
X171813259Y-62210841D01*
X171775923Y-62198429D01*
X171771640Y-62197750D01*
X171732488Y-62194288D01*
X171727090Y-62194233D01*
X171624703Y-62194233D01*
X171624703Y-62381811D01*
X171436734Y-62381811D01*
X171436734Y-62031665D01*
X171740768Y-62031665D01*
X171783321Y-62033368D01*
G37*
G36*
X172506322Y-62194233D02*
G01*
X172506322Y-62832000D01*
X172313859Y-62832000D01*
X172313859Y-62194233D01*
X172088765Y-62194233D01*
X172088765Y-62031665D01*
X172731417Y-62031665D01*
X172731417Y-62194233D01*
X172506322Y-62194233D01*
G37*
G36*
X173483098Y-62726487D02*
G01*
X173455072Y-62755014D01*
X173423943Y-62780415D01*
X173389712Y-62802690D01*
X173352380Y-62821839D01*
X173312116Y-62837226D01*
X173268897Y-62848217D01*
X173228657Y-62854228D01*
X173186153Y-62856873D01*
X173173594Y-62857010D01*
X173133909Y-62855561D01*
X173090180Y-62850355D01*
X173048186Y-62841364D01*
X173007925Y-62828587D01*
X173003015Y-62826724D01*
X172965230Y-62810005D01*
X172930035Y-62790136D01*
X172897428Y-62767116D01*
X172867411Y-62740946D01*
X172840239Y-62711734D01*
X172816169Y-62679787D01*
X172795201Y-62645105D01*
X172777334Y-62607687D01*
X172763058Y-62567924D01*
X172752861Y-62526207D01*
X172746743Y-62482537D01*
X172744735Y-62442722D01*
X172744703Y-62436912D01*
X172746293Y-62396046D01*
X172751061Y-62356882D01*
X172760404Y-62314207D01*
X172773898Y-62273754D01*
X172777920Y-62263988D01*
X172796104Y-62226656D01*
X172817439Y-62192230D01*
X172841924Y-62160710D01*
X172869560Y-62132097D01*
X172900127Y-62106427D01*
X172933210Y-62083933D01*
X172968808Y-62064613D01*
X173006923Y-62048468D01*
X173047149Y-62035646D01*
X173088890Y-62026487D01*
X173132146Y-62020991D01*
X173171237Y-62019188D01*
X173176916Y-62019159D01*
X173218938Y-62020893D01*
X173260593Y-62026096D01*
X173301882Y-62034766D01*
X173342805Y-62046905D01*
X173381713Y-62062390D01*
X173416762Y-62081099D01*
X173451579Y-62106001D01*
X173475283Y-62128189D01*
X173344564Y-62255000D01*
X173317716Y-62226181D01*
X173284361Y-62204692D01*
X173273636Y-62199899D01*
X173234890Y-62187477D01*
X173195246Y-62182011D01*
X173183754Y-62181727D01*
X173144023Y-62184888D01*
X173104336Y-62195360D01*
X173090942Y-62200876D01*
X173056257Y-62220228D01*
X173026059Y-62245114D01*
X173018255Y-62253242D01*
X172994298Y-62284796D01*
X172975427Y-62320989D01*
X172970970Y-62332181D01*
X172960090Y-62370590D01*
X172954757Y-62411838D01*
X172954166Y-62431832D01*
X172956529Y-62472013D01*
X172964422Y-62512628D01*
X172970970Y-62533242D01*
X172988275Y-62571047D01*
X173010443Y-62603767D01*
X173017669Y-62612181D01*
X173048272Y-62639821D01*
X173084027Y-62661194D01*
X173089184Y-62663570D01*
X173127133Y-62676125D01*
X173168150Y-62681650D01*
X173180433Y-62681937D01*
X173221337Y-62678777D01*
X173261061Y-62668222D01*
X173280475Y-62659466D01*
X173314701Y-62637187D01*
X173342494Y-62609671D01*
X173349253Y-62600848D01*
X173483098Y-62726487D01*
G37*
G36*
X174574766Y-62832000D02*
G01*
X174360809Y-62832000D01*
X174298869Y-62681937D01*
X173990537Y-62681937D01*
X173932114Y-62832000D01*
X173722652Y-62832000D01*
X173853245Y-62519369D01*
X174045638Y-62519369D01*
X174246113Y-62519369D01*
X174147048Y-62246012D01*
X174045638Y-62519369D01*
X173853245Y-62519369D01*
X174056971Y-62031665D01*
X174243768Y-62031665D01*
X174574766Y-62832000D01*
G37*
G36*
X174628695Y-62832000D02*
G01*
X174628695Y-61981057D01*
X174815492Y-61981057D01*
X174815492Y-62832000D01*
X174628695Y-62832000D01*
G37*
G36*
X175244351Y-62258457D02*
G01*
X175285762Y-62264248D01*
X175321954Y-62274149D01*
X175358706Y-62291406D01*
X175391362Y-62316988D01*
X175401284Y-62327882D01*
X175423341Y-62360571D01*
X175439981Y-62399581D01*
X175445834Y-62419718D01*
X175453844Y-62460181D01*
X175458240Y-62501214D01*
X175459847Y-62541602D01*
X175459902Y-62551023D01*
X175459902Y-62832000D01*
X175291082Y-62832000D01*
X175291082Y-62770646D01*
X175287760Y-62770646D01*
X175260942Y-62801860D01*
X175225774Y-62823936D01*
X175223084Y-62825161D01*
X175183745Y-62838384D01*
X175144738Y-62844032D01*
X175129100Y-62844505D01*
X175088132Y-62841336D01*
X175059149Y-62835517D01*
X175020619Y-62821881D01*
X174993301Y-62806403D01*
X174963227Y-62779496D01*
X174944452Y-62752669D01*
X174930091Y-62715154D01*
X174925378Y-62675916D01*
X174925304Y-62669822D01*
X174925739Y-62665914D01*
X175095297Y-62665914D01*
X175102526Y-62691120D01*
X175121089Y-62707924D01*
X175147076Y-62716912D01*
X175175213Y-62719452D01*
X175216549Y-62714680D01*
X175253346Y-62697312D01*
X175261186Y-62690534D01*
X175283608Y-62656487D01*
X175291052Y-62615251D01*
X175291082Y-62612181D01*
X175291082Y-62594400D01*
X175267439Y-62594400D01*
X175227352Y-62595578D01*
X175206085Y-62597136D01*
X175166776Y-62602937D01*
X175150984Y-62607101D01*
X175115016Y-62625138D01*
X175110928Y-62628594D01*
X175095312Y-62664470D01*
X175095297Y-62665914D01*
X174925739Y-62665914D01*
X174929975Y-62627837D01*
X174945578Y-62589795D01*
X174958521Y-62572516D01*
X174988637Y-62545284D01*
X175025010Y-62523599D01*
X175043908Y-62515461D01*
X175081295Y-62503218D01*
X175121452Y-62494161D01*
X175160363Y-62488692D01*
X175200197Y-62485085D01*
X175239345Y-62482815D01*
X175281614Y-62481860D01*
X175285415Y-62481853D01*
X175285415Y-62473060D01*
X175276142Y-62434297D01*
X175256106Y-62413465D01*
X175219025Y-62397981D01*
X175184201Y-62394316D01*
X175143092Y-62399114D01*
X175108193Y-62411316D01*
X175072348Y-62431100D01*
X175045666Y-62451762D01*
X174952268Y-62351525D01*
X174984871Y-62324177D01*
X175020641Y-62301486D01*
X175059578Y-62283450D01*
X175067746Y-62280401D01*
X175109168Y-62267934D01*
X175151124Y-62260084D01*
X175193615Y-62256851D01*
X175202177Y-62256759D01*
X175244351Y-62258457D01*
G37*
G36*
X175957572Y-62424798D02*
G01*
X175933343Y-62420499D01*
X175910286Y-62419327D01*
X175870333Y-62424080D01*
X175847760Y-62432809D01*
X175815556Y-62456036D01*
X175807313Y-62465244D01*
X175787576Y-62499732D01*
X175785234Y-62506668D01*
X175778590Y-62545747D01*
X175778590Y-62832000D01*
X175594138Y-62832000D01*
X175594138Y-62273563D01*
X175771947Y-62273563D01*
X175771947Y-62354456D01*
X175774096Y-62354456D01*
X175796306Y-62319738D01*
X175825323Y-62291154D01*
X175834864Y-62284114D01*
X175871756Y-62265414D01*
X175910232Y-62257427D01*
X175926113Y-62256759D01*
X175947997Y-62256759D01*
X175965387Y-62256759D01*
X175957572Y-62424798D01*
G37*
G36*
X176753022Y-62832000D02*
G01*
X176753022Y-62534219D01*
X176750133Y-62494067D01*
X176749505Y-62490060D01*
X176737195Y-62453325D01*
X176712966Y-62428706D01*
X176674647Y-62419336D01*
X176673105Y-62419327D01*
X176634271Y-62428085D01*
X176632073Y-62429292D01*
X176602763Y-62455475D01*
X176585733Y-62491859D01*
X176585373Y-62493186D01*
X176579757Y-62533233D01*
X176579707Y-62537540D01*
X176579707Y-62832000D01*
X176395059Y-62832000D01*
X176395059Y-62521127D01*
X176390852Y-62481317D01*
X176375911Y-62446682D01*
X176343197Y-62423174D01*
X176315143Y-62419327D01*
X176276260Y-62427826D01*
X176247146Y-62453325D01*
X176229755Y-62488408D01*
X176223130Y-62527271D01*
X176222917Y-62536368D01*
X176222917Y-62832000D01*
X176037292Y-62832000D01*
X176037292Y-62279229D01*
X176216078Y-62279229D01*
X176216078Y-62356801D01*
X176218423Y-62356801D01*
X176239944Y-62323996D01*
X176243629Y-62319480D01*
X176272394Y-62292789D01*
X176280167Y-62287436D01*
X176315155Y-62269704D01*
X176328039Y-62265161D01*
X176366887Y-62257579D01*
X176386071Y-62256759D01*
X176425655Y-62259899D01*
X176463835Y-62270487D01*
X176489044Y-62283332D01*
X176520272Y-62308570D01*
X176545373Y-62341418D01*
X176554892Y-62359145D01*
X176578193Y-62326667D01*
X176608396Y-62297560D01*
X176626797Y-62284505D01*
X176662462Y-62267597D01*
X176703514Y-62258493D01*
X176733873Y-62256759D01*
X176774347Y-62259699D01*
X176812303Y-62269519D01*
X176830202Y-62277666D01*
X176863307Y-62299831D01*
X176891236Y-62329531D01*
X176892729Y-62331595D01*
X176913098Y-62366619D01*
X176926923Y-62405649D01*
X176934983Y-62446242D01*
X176937669Y-62485956D01*
X176937669Y-62832000D01*
X176753022Y-62832000D01*
G37*
D12*
G36*
X151908650Y-78944885D02*
G01*
X151908567Y-78952982D01*
X151903374Y-79011710D01*
X151902355Y-79018135D01*
X151883737Y-79074139D01*
X151882828Y-79075869D01*
X151842997Y-79119568D01*
X151832529Y-79125644D01*
X151773828Y-79137446D01*
X151754510Y-79136507D01*
X151698796Y-79117809D01*
X151693477Y-79114084D01*
X151654540Y-79067984D01*
X151649999Y-79058378D01*
X151633144Y-79000573D01*
X151631152Y-78986776D01*
X151627282Y-78928179D01*
X151627282Y-78791305D01*
X151908650Y-78791305D01*
X151908650Y-78944885D01*
G37*
G36*
X151830981Y-77775157D02*
G01*
X151420946Y-77923755D01*
X151420946Y-77623043D01*
X151830981Y-77775157D01*
G37*
G36*
X151576453Y-75227583D02*
G01*
X151638975Y-75235304D01*
X151697917Y-75251054D01*
X151715255Y-75257534D01*
X151770890Y-75285335D01*
X151818671Y-75321103D01*
X151830939Y-75332795D01*
X151868614Y-75377826D01*
X151898099Y-75429254D01*
X151906542Y-75449099D01*
X151922571Y-75508244D01*
X151927408Y-75567886D01*
X151926692Y-75591300D01*
X151918134Y-75649298D01*
X151898099Y-75707104D01*
X151892470Y-75718810D01*
X151861231Y-75769075D01*
X151818671Y-75814962D01*
X151802508Y-75828496D01*
X151751922Y-75861290D01*
X151697917Y-75885011D01*
X151666624Y-75894946D01*
X151605754Y-75906924D01*
X151546389Y-75910510D01*
X151509962Y-75909290D01*
X151450453Y-75901520D01*
X151390171Y-75885011D01*
X151372677Y-75878389D01*
X151316353Y-75850163D01*
X151267659Y-75814083D01*
X151255248Y-75802460D01*
X151217149Y-75757596D01*
X151187352Y-75706225D01*
X151178993Y-75686387D01*
X151163125Y-75627338D01*
X151158336Y-75567886D01*
X151158789Y-75549050D01*
X151167517Y-75486515D01*
X151187352Y-75429254D01*
X151195018Y-75413921D01*
X151227187Y-75364586D01*
X151267659Y-75321982D01*
X151284174Y-75308525D01*
X151335593Y-75275795D01*
X151390171Y-75251933D01*
X151426753Y-75240906D01*
X151484716Y-75230272D01*
X151546389Y-75226727D01*
X151576453Y-75227583D01*
G37*
G36*
X151371329Y-71595719D02*
G01*
X151430108Y-71610953D01*
X151481616Y-71646616D01*
X151501830Y-71671097D01*
X151526198Y-71724674D01*
X151533493Y-71783490D01*
X151532205Y-71809045D01*
X151516800Y-71867787D01*
X151480736Y-71918605D01*
X151463577Y-71933212D01*
X151408375Y-71960941D01*
X151347673Y-71969309D01*
X151321751Y-71968050D01*
X151262057Y-71952988D01*
X151210213Y-71917725D01*
X151192583Y-71897317D01*
X151165631Y-71840560D01*
X151158336Y-71781731D01*
X151160273Y-71750764D01*
X151177761Y-71692153D01*
X151213437Y-71645150D01*
X151231277Y-71630543D01*
X151286864Y-71602814D01*
X151345914Y-71594446D01*
X151371329Y-71595719D01*
G37*
G36*
X152304593Y-79620437D02*
G01*
X150781151Y-79620437D01*
X150781151Y-78793064D01*
X150952000Y-78793064D01*
X151420946Y-78793064D01*
X151420946Y-78890956D01*
X151353421Y-78928179D01*
X150952000Y-79149463D01*
X150952000Y-79487104D01*
X151457582Y-79174669D01*
X151470021Y-79209877D01*
X151498326Y-79266977D01*
X151534236Y-79316008D01*
X151577750Y-79356972D01*
X151610674Y-79379383D01*
X151665239Y-79404306D01*
X151726017Y-79418796D01*
X151785258Y-79422917D01*
X151841402Y-79419834D01*
X151902655Y-79407690D01*
X151960234Y-79383936D01*
X151985644Y-79368501D01*
X152034052Y-79328695D01*
X152073367Y-79280182D01*
X152093334Y-79246586D01*
X152117377Y-79192209D01*
X152134330Y-79133050D01*
X152142280Y-79091907D01*
X152149947Y-79029231D01*
X152152502Y-78965402D01*
X152152502Y-78509351D01*
X150952000Y-78509351D01*
X150952000Y-78793064D01*
X150781151Y-78793064D01*
X150781151Y-77138563D01*
X150952000Y-77138563D01*
X150952000Y-77452757D01*
X151177094Y-77540391D01*
X151177094Y-77923755D01*
X151177094Y-78002889D01*
X150952000Y-78095799D01*
X150952000Y-78416734D01*
X152152502Y-77920238D01*
X152152502Y-77640042D01*
X150992694Y-77155562D01*
X151195852Y-77155562D01*
X151195852Y-76693064D01*
X152152502Y-76693064D01*
X152152502Y-76402610D01*
X150952000Y-76402610D01*
X150952000Y-77138563D01*
X150781151Y-77138563D01*
X150781151Y-75567886D01*
X150914484Y-75567886D01*
X150914528Y-75576622D01*
X150917323Y-75636671D01*
X150925841Y-75702928D01*
X150940038Y-75766657D01*
X150959913Y-75827858D01*
X150984991Y-75885725D01*
X151014794Y-75939453D01*
X151049324Y-75989040D01*
X151088580Y-76034487D01*
X151132434Y-76075630D01*
X151180464Y-76112010D01*
X151232671Y-76143627D01*
X151289055Y-76170482D01*
X151303804Y-76176409D01*
X151364703Y-76196293D01*
X151428643Y-76210060D01*
X151487085Y-76217086D01*
X151547854Y-76219428D01*
X151556784Y-76219380D01*
X151617757Y-76216369D01*
X151684142Y-76207192D01*
X151747010Y-76191896D01*
X151806361Y-76170482D01*
X151861938Y-76143627D01*
X151913193Y-76112010D01*
X151960124Y-76075630D01*
X152002732Y-76034487D01*
X152040852Y-75989040D01*
X152074320Y-75939453D01*
X152103134Y-75885725D01*
X152127296Y-75827858D01*
X152132620Y-75812795D01*
X152150480Y-75750962D01*
X152162845Y-75686601D01*
X152169156Y-75628211D01*
X152171260Y-75567886D01*
X152171217Y-75559150D01*
X152168512Y-75499138D01*
X152160269Y-75432991D01*
X152146530Y-75369445D01*
X152127296Y-75308500D01*
X152103134Y-75250999D01*
X152074320Y-75197492D01*
X152040852Y-75147977D01*
X152002732Y-75102457D01*
X151960124Y-75061442D01*
X151913193Y-75025154D01*
X151861938Y-74993592D01*
X151806361Y-74966755D01*
X151791853Y-74960828D01*
X151731623Y-74940944D01*
X151667875Y-74927178D01*
X151609211Y-74920151D01*
X151547854Y-74917809D01*
X151539030Y-74917857D01*
X151478593Y-74920868D01*
X151412373Y-74930046D01*
X151349193Y-74945341D01*
X151289055Y-74966755D01*
X151232671Y-74993592D01*
X151180464Y-75025154D01*
X151132434Y-75061442D01*
X151088580Y-75102457D01*
X151049324Y-75147977D01*
X151014794Y-75197492D01*
X150984991Y-75250999D01*
X150959913Y-75308500D01*
X150954412Y-75323492D01*
X150935956Y-75385087D01*
X150923179Y-75449283D01*
X150916658Y-75507589D01*
X150914484Y-75567886D01*
X150781151Y-75567886D01*
X150781151Y-74330161D01*
X150914484Y-74330161D01*
X150916774Y-74384446D01*
X150924582Y-74443035D01*
X150937931Y-74500447D01*
X150951230Y-74540747D01*
X150977086Y-74596801D01*
X151010032Y-74647579D01*
X151036117Y-74678024D01*
X151081289Y-74717509D01*
X151133716Y-74749575D01*
X151188389Y-74771267D01*
X151249642Y-74783956D01*
X151311036Y-74787677D01*
X151343309Y-74786430D01*
X151401670Y-74776456D01*
X151459341Y-74752212D01*
X151470379Y-74745398D01*
X151517326Y-74709238D01*
X151559285Y-74662527D01*
X151569145Y-74648857D01*
X151599687Y-74598054D01*
X151624058Y-74542652D01*
X151628633Y-74530386D01*
X151648893Y-74474303D01*
X151668608Y-74416330D01*
X151675294Y-74395740D01*
X151694693Y-74340126D01*
X151696278Y-74335948D01*
X151722244Y-74281801D01*
X151757708Y-74244871D01*
X151808120Y-74232268D01*
X151865859Y-74248095D01*
X151903081Y-74287956D01*
X151922425Y-74341005D01*
X151927408Y-74399330D01*
X151919550Y-74459656D01*
X151899564Y-74514808D01*
X151897805Y-74518541D01*
X151866811Y-74569177D01*
X151824240Y-74612115D01*
X152020904Y-74796176D01*
X152043196Y-74770718D01*
X152078887Y-74721684D01*
X152108874Y-74668523D01*
X152133158Y-74611236D01*
X152142088Y-74584921D01*
X152157827Y-74526183D01*
X152167539Y-74468095D01*
X152171260Y-74404313D01*
X152169941Y-74362218D01*
X152163017Y-74299487D01*
X152150157Y-74237251D01*
X152138214Y-74196969D01*
X152114528Y-74140462D01*
X152083919Y-74088654D01*
X152059629Y-74057384D01*
X152017286Y-74016319D01*
X151967854Y-73982261D01*
X151916100Y-73959234D01*
X151857558Y-73945765D01*
X151798448Y-73941815D01*
X151778678Y-73942222D01*
X151719675Y-73949177D01*
X151661574Y-73967900D01*
X151612488Y-73996236D01*
X151565733Y-74037069D01*
X151529756Y-74083085D01*
X151500960Y-74134962D01*
X151477439Y-74190576D01*
X151457289Y-74247216D01*
X151441581Y-74296552D01*
X151422704Y-74352729D01*
X151413523Y-74377714D01*
X151387533Y-74430398D01*
X151385099Y-74434261D01*
X151344742Y-74478465D01*
X151287589Y-74495464D01*
X151285401Y-74495451D01*
X151227212Y-74481982D01*
X151186766Y-74445639D01*
X151165077Y-74392589D01*
X151164261Y-74388773D01*
X151158336Y-74330161D01*
X151159614Y-74303532D01*
X151171148Y-74245624D01*
X151194679Y-74187425D01*
X151206466Y-74165672D01*
X151241130Y-74115545D01*
X151284951Y-74071947D01*
X151090925Y-73882610D01*
X151050991Y-73924852D01*
X151015893Y-73972150D01*
X150985632Y-74024503D01*
X150960206Y-74081912D01*
X150940203Y-74142381D01*
X150925914Y-74203912D01*
X150917341Y-74266505D01*
X150914484Y-74330161D01*
X150781151Y-74330161D01*
X150781151Y-72749812D01*
X150952000Y-72749812D01*
X150952000Y-73038507D01*
X152152502Y-73499540D01*
X152152502Y-73180363D01*
X151301364Y-72905150D01*
X151301364Y-72898409D01*
X152152502Y-72621731D01*
X152152502Y-72297572D01*
X150952000Y-72749812D01*
X150781151Y-72749812D01*
X150781151Y-71782024D01*
X150914484Y-71782024D01*
X150917375Y-71841135D01*
X150927232Y-71903908D01*
X150944086Y-71964327D01*
X150962801Y-72011058D01*
X150991278Y-72063451D01*
X151029376Y-72114683D01*
X151062858Y-72148632D01*
X151113705Y-72187189D01*
X151166542Y-72215799D01*
X151224748Y-72236992D01*
X151287732Y-72249387D01*
X151349138Y-72253022D01*
X151392095Y-72251007D01*
X151452751Y-72240428D01*
X151508873Y-72220782D01*
X151535190Y-72208050D01*
X151587260Y-72175302D01*
X151632558Y-72135492D01*
X151651067Y-72114939D01*
X151685444Y-72065883D01*
X151711986Y-72010635D01*
X151721448Y-71983502D01*
X151735234Y-71923298D01*
X151739829Y-71861159D01*
X151736605Y-71817195D01*
X151726640Y-71776748D01*
X151735140Y-71781731D01*
X152152502Y-72075702D01*
X152152502Y-71733078D01*
X151718140Y-71444383D01*
X151701238Y-71433475D01*
X151650807Y-71403071D01*
X151595263Y-71373366D01*
X151540234Y-71347956D01*
X151523630Y-71341356D01*
X151465790Y-71324045D01*
X151404115Y-71313947D01*
X151345328Y-71311026D01*
X151285428Y-71314633D01*
X151223769Y-71326930D01*
X151166542Y-71347956D01*
X151128019Y-71368252D01*
X151075799Y-71405017D01*
X151030255Y-71449365D01*
X150997689Y-71491543D01*
X150967882Y-71542699D01*
X150944379Y-71598842D01*
X150927359Y-71658968D01*
X150917403Y-71722072D01*
X150914498Y-71781731D01*
X150914484Y-71782024D01*
X150781151Y-71782024D01*
X150781151Y-71177693D01*
X152304593Y-71177693D01*
X152304593Y-79620437D01*
G37*
D13*
G36*
X171351388Y-65332000D02*
G01*
X171351388Y-64994358D01*
X171040711Y-64994358D01*
X171040711Y-65332000D01*
X170848248Y-65332000D01*
X170848248Y-64531665D01*
X171040711Y-64531665D01*
X171040711Y-64831790D01*
X171351388Y-64831790D01*
X171351388Y-64531665D01*
X171543852Y-64531665D01*
X171543852Y-65332000D01*
X171351388Y-65332000D01*
G37*
G36*
X171977400Y-64758457D02*
G01*
X172018811Y-64764248D01*
X172055003Y-64774149D01*
X172091756Y-64791406D01*
X172124411Y-64816988D01*
X172134333Y-64827882D01*
X172156391Y-64860571D01*
X172173030Y-64899581D01*
X172178883Y-64919718D01*
X172186893Y-64960181D01*
X172191289Y-65001214D01*
X172192897Y-65041602D01*
X172192952Y-65051023D01*
X172192952Y-65332000D01*
X172024131Y-65332000D01*
X172024131Y-65270646D01*
X172020809Y-65270646D01*
X171993991Y-65301860D01*
X171958823Y-65323936D01*
X171956134Y-65325161D01*
X171916795Y-65338384D01*
X171877787Y-65344032D01*
X171862149Y-65344505D01*
X171821181Y-65341336D01*
X171792198Y-65335517D01*
X171753668Y-65321881D01*
X171726350Y-65306403D01*
X171696276Y-65279496D01*
X171677501Y-65252669D01*
X171663140Y-65215154D01*
X171658428Y-65175916D01*
X171658353Y-65169822D01*
X171658788Y-65165914D01*
X171828346Y-65165914D01*
X171835575Y-65191120D01*
X171854138Y-65207924D01*
X171880125Y-65216912D01*
X171908262Y-65219452D01*
X171949599Y-65214680D01*
X171986395Y-65197312D01*
X171994236Y-65190534D01*
X172016657Y-65156487D01*
X172024102Y-65115251D01*
X172024131Y-65112181D01*
X172024131Y-65094400D01*
X172000488Y-65094400D01*
X171960401Y-65095578D01*
X171939134Y-65097136D01*
X171899825Y-65102937D01*
X171884033Y-65107101D01*
X171848065Y-65125138D01*
X171843977Y-65128594D01*
X171828361Y-65164470D01*
X171828346Y-65165914D01*
X171658788Y-65165914D01*
X171663024Y-65127837D01*
X171678627Y-65089795D01*
X171691570Y-65072516D01*
X171721687Y-65045284D01*
X171758060Y-65023599D01*
X171776957Y-65015461D01*
X171814344Y-65003218D01*
X171854501Y-64994161D01*
X171893412Y-64988692D01*
X171933247Y-64985085D01*
X171972394Y-64982815D01*
X172014663Y-64981860D01*
X172018464Y-64981853D01*
X172018464Y-64973060D01*
X172009191Y-64934297D01*
X171989155Y-64913465D01*
X171952075Y-64897981D01*
X171917250Y-64894316D01*
X171876141Y-64899114D01*
X171841242Y-64911316D01*
X171805397Y-64931100D01*
X171778716Y-64951762D01*
X171685317Y-64851525D01*
X171717920Y-64824177D01*
X171753690Y-64801486D01*
X171792628Y-64783450D01*
X171800795Y-64780401D01*
X171842217Y-64767934D01*
X171884174Y-64760084D01*
X171926664Y-64756851D01*
X171935226Y-64756759D01*
X171977400Y-64758457D01*
G37*
G36*
X172329337Y-65332000D02*
G01*
X172329337Y-64481057D01*
X172516134Y-64481057D01*
X172516134Y-65332000D01*
X172329337Y-65332000D01*
G37*
G36*
X172663070Y-65332000D02*
G01*
X172663070Y-64481057D01*
X172849867Y-64481057D01*
X172849867Y-65332000D01*
X172663070Y-65332000D01*
G37*
G36*
X173705499Y-64750506D02*
G01*
X173676873Y-64722125D01*
X173643116Y-64701463D01*
X173640628Y-64700290D01*
X173603860Y-64686966D01*
X173563642Y-64681727D01*
X173524759Y-64685049D01*
X173489393Y-64697945D01*
X173462819Y-64722760D01*
X173452268Y-64761253D01*
X173460670Y-64794861D01*
X173485289Y-64818503D01*
X173521388Y-64835814D01*
X173524173Y-64836870D01*
X173561249Y-64849803D01*
X173574975Y-64854260D01*
X173613624Y-64867404D01*
X173651013Y-64880910D01*
X173659190Y-64883960D01*
X173696125Y-64900208D01*
X173729993Y-64920569D01*
X173739106Y-64927143D01*
X173770247Y-64955115D01*
X173794354Y-64986413D01*
X173798897Y-64993772D01*
X173815059Y-65032219D01*
X173821709Y-65071127D01*
X173822540Y-65092642D01*
X173820059Y-65133571D01*
X173811600Y-65174407D01*
X173797139Y-65210855D01*
X173775761Y-65245806D01*
X173749438Y-65275921D01*
X173729141Y-65293311D01*
X173695289Y-65315275D01*
X173657920Y-65332512D01*
X173631053Y-65341378D01*
X173592779Y-65350278D01*
X173553719Y-65355483D01*
X173517529Y-65357010D01*
X173475092Y-65355105D01*
X173433363Y-65349390D01*
X173392343Y-65339864D01*
X173352030Y-65326528D01*
X173313758Y-65309578D01*
X173278855Y-65289404D01*
X173247323Y-65266005D01*
X173219162Y-65239383D01*
X173345387Y-65110032D01*
X173374452Y-65139246D01*
X173407870Y-65162355D01*
X173422372Y-65170213D01*
X173461171Y-65185900D01*
X173499777Y-65193590D01*
X173517529Y-65194442D01*
X173556604Y-65190492D01*
X173559148Y-65189948D01*
X173594515Y-65175489D01*
X173618744Y-65148524D01*
X173627723Y-65109732D01*
X173627732Y-65108273D01*
X173616399Y-65070171D01*
X173586929Y-65043266D01*
X173584354Y-65041644D01*
X173549231Y-65024317D01*
X173532575Y-65018196D01*
X173495123Y-65005612D01*
X173462233Y-64995140D01*
X173424473Y-64981706D01*
X173387397Y-64966026D01*
X173352812Y-64946829D01*
X173322135Y-64922844D01*
X173294913Y-64891674D01*
X173276022Y-64858950D01*
X173263540Y-64820216D01*
X173258904Y-64780881D01*
X173258632Y-64767701D01*
X173261265Y-64728294D01*
X173270245Y-64689266D01*
X173285596Y-64654763D01*
X173308302Y-64621808D01*
X173335678Y-64593580D01*
X173356524Y-64577387D01*
X173391063Y-64556980D01*
X173428735Y-64541190D01*
X173455589Y-64533228D01*
X173497080Y-64524655D01*
X173538901Y-64520039D01*
X173566964Y-64519159D01*
X173609485Y-64521640D01*
X173648211Y-64528114D01*
X173687370Y-64538607D01*
X173704912Y-64544561D01*
X173743104Y-64560750D01*
X173778545Y-64580741D01*
X173811234Y-64604535D01*
X173828206Y-64619397D01*
X173705499Y-64750506D01*
G37*
G36*
X174252367Y-64759229D02*
G01*
X174291349Y-64766641D01*
X174324703Y-64777666D01*
X174361477Y-64795984D01*
X174394129Y-64819578D01*
X174413607Y-64838238D01*
X174439143Y-64870231D01*
X174460062Y-64907005D01*
X174471444Y-64934177D01*
X174483347Y-64974869D01*
X174489881Y-65015108D01*
X174492331Y-65058439D01*
X174492351Y-65062942D01*
X174492351Y-65085412D01*
X174491179Y-65106905D01*
X174084954Y-65106905D01*
X174097399Y-65145064D01*
X174098827Y-65147352D01*
X174125887Y-65176276D01*
X174129309Y-65178810D01*
X174164023Y-65197059D01*
X174171123Y-65199522D01*
X174209622Y-65206686D01*
X174218799Y-65206947D01*
X174259344Y-65202893D01*
X174293049Y-65190729D01*
X174325251Y-65167932D01*
X174342679Y-65148524D01*
X174471053Y-65228831D01*
X174443923Y-65261136D01*
X174411870Y-65288442D01*
X174374894Y-65310748D01*
X174366908Y-65314609D01*
X174328874Y-65329061D01*
X174287533Y-65338783D01*
X174248009Y-65343454D01*
X174216650Y-65344505D01*
X174174068Y-65342219D01*
X174133103Y-65335362D01*
X174097264Y-65325161D01*
X174060238Y-65309649D01*
X174023639Y-65287988D01*
X173998785Y-65268496D01*
X173969779Y-65238235D01*
X173945773Y-65203137D01*
X173932547Y-65177052D01*
X173918752Y-65137860D01*
X173911181Y-65099025D01*
X173908342Y-65057138D01*
X173908318Y-65052781D01*
X173910627Y-65011767D01*
X173913756Y-64994358D01*
X174084954Y-64994358D01*
X174322358Y-64994358D01*
X174314583Y-64954014D01*
X174294808Y-64923821D01*
X174260370Y-64901692D01*
X174218936Y-64894432D01*
X174212156Y-64894316D01*
X174172581Y-64899206D01*
X174162526Y-64902327D01*
X174127392Y-64920493D01*
X174123056Y-64923821D01*
X174097388Y-64953760D01*
X174096092Y-64956061D01*
X174084954Y-64994358D01*
X173913756Y-64994358D01*
X173917553Y-64973234D01*
X173930506Y-64933713D01*
X173931961Y-64930269D01*
X173950201Y-64894507D01*
X173974628Y-64860023D01*
X173996050Y-64837261D01*
X174028565Y-64810956D01*
X174065146Y-64789487D01*
X174091793Y-64777861D01*
X174130737Y-64765847D01*
X174171806Y-64758820D01*
X174210984Y-64756759D01*
X174252367Y-64759229D01*
G37*
G36*
X174971849Y-65332000D02*
G01*
X174971849Y-65034219D01*
X174968639Y-64994548D01*
X174967941Y-64990646D01*
X174955045Y-64953912D01*
X174929644Y-64928706D01*
X174891679Y-64919363D01*
X174888611Y-64919327D01*
X174849972Y-64926508D01*
X174845233Y-64928706D01*
X174814166Y-64954302D01*
X174796409Y-64989542D01*
X174795603Y-64992209D01*
X174789599Y-65032095D01*
X174789546Y-65036368D01*
X174789546Y-65332000D01*
X174603922Y-65332000D01*
X174603922Y-64779229D01*
X174782707Y-64779229D01*
X174782707Y-64856801D01*
X174785052Y-64856801D01*
X174807470Y-64823547D01*
X174811430Y-64818894D01*
X174841713Y-64792024D01*
X174849728Y-64786849D01*
X174884935Y-64769667D01*
X174897599Y-64765161D01*
X174936571Y-64757423D01*
X174952700Y-64756759D01*
X174992634Y-64759616D01*
X175033111Y-64770174D01*
X175048443Y-64777080D01*
X175082097Y-64798566D01*
X175110613Y-64827259D01*
X175112142Y-64829250D01*
X175132952Y-64863688D01*
X175146922Y-64902914D01*
X175154636Y-64941791D01*
X175157658Y-64983355D01*
X175157669Y-64985956D01*
X175157669Y-65332000D01*
X174971849Y-65332000D01*
G37*
G36*
X175622903Y-64944923D02*
G01*
X175591685Y-64920896D01*
X175569951Y-64908971D01*
X175532746Y-64896735D01*
X175505861Y-64894316D01*
X175466400Y-64900895D01*
X175457990Y-64904281D01*
X175436106Y-64938085D01*
X175458844Y-64970275D01*
X175460335Y-64970911D01*
X175499577Y-64983270D01*
X175538492Y-64992600D01*
X175578044Y-65003041D01*
X175601995Y-65011357D01*
X175638007Y-65028267D01*
X175660028Y-65043011D01*
X175688467Y-65070947D01*
X175701647Y-65091078D01*
X175714861Y-65128580D01*
X175717473Y-65158685D01*
X175713926Y-65197826D01*
X175701018Y-65236497D01*
X175695980Y-65245635D01*
X175671409Y-65277778D01*
X175640293Y-65303081D01*
X175603949Y-65321790D01*
X175565973Y-65333917D01*
X175563307Y-65334540D01*
X175523191Y-65341692D01*
X175483074Y-65344466D01*
X175477725Y-65344505D01*
X175435127Y-65342291D01*
X175393064Y-65335651D01*
X175351535Y-65324584D01*
X175343293Y-65321839D01*
X175304276Y-65305471D01*
X175269532Y-65284943D01*
X175239063Y-65260255D01*
X175233482Y-65254819D01*
X175337041Y-65144030D01*
X175366550Y-65170143D01*
X175397808Y-65188971D01*
X175435031Y-65202453D01*
X175474403Y-65206947D01*
X175513277Y-65199018D01*
X175518758Y-65196591D01*
X175540751Y-65163264D01*
X175540837Y-65160053D01*
X175520192Y-65126115D01*
X175513873Y-65122928D01*
X175476620Y-65109780D01*
X175436524Y-65099354D01*
X175429462Y-65097722D01*
X175390994Y-65087151D01*
X175370844Y-65080136D01*
X175335069Y-65062493D01*
X175318478Y-65050632D01*
X175290747Y-65021045D01*
X175280767Y-65004909D01*
X175268174Y-64966441D01*
X175266113Y-64939257D01*
X175270189Y-64899015D01*
X175283605Y-64862207D01*
X175287411Y-64855628D01*
X175311982Y-64824365D01*
X175342707Y-64799355D01*
X175378318Y-64780353D01*
X175417543Y-64767115D01*
X175455926Y-64759681D01*
X175496678Y-64756769D01*
X175499218Y-64756759D01*
X175538274Y-64758762D01*
X175580619Y-64765594D01*
X175618552Y-64776013D01*
X175622316Y-64777275D01*
X175661609Y-64793670D01*
X175696469Y-64814914D01*
X175724312Y-64838434D01*
X175622903Y-64944923D01*
G37*
G36*
X176143451Y-64758705D02*
G01*
X176184910Y-64765342D01*
X176224522Y-64776689D01*
X176261617Y-64792492D01*
X176295525Y-64812497D01*
X176323587Y-64834330D01*
X176353125Y-64864949D01*
X176375712Y-64897120D01*
X176390998Y-64926361D01*
X176405126Y-64965299D01*
X176413389Y-65007423D01*
X176415813Y-65048482D01*
X176413389Y-65089496D01*
X176406119Y-65128029D01*
X176392524Y-65167551D01*
X176390998Y-65170995D01*
X176371924Y-65206780D01*
X176348557Y-65238640D01*
X176323587Y-65264198D01*
X176292574Y-65288384D01*
X176258376Y-65308553D01*
X176224522Y-65323402D01*
X176184910Y-65335417D01*
X176143451Y-65342444D01*
X176104159Y-65344505D01*
X176061508Y-65342011D01*
X176020335Y-65334530D01*
X175984187Y-65323402D01*
X175946827Y-65306885D01*
X175912931Y-65286351D01*
X175885122Y-65264198D01*
X175858161Y-65235906D01*
X175835309Y-65203689D01*
X175818102Y-65170995D01*
X175804085Y-65131746D01*
X175795886Y-65089496D01*
X175793551Y-65049655D01*
X175972268Y-65049655D01*
X175977814Y-65089017D01*
X175980670Y-65097917D01*
X175999869Y-65133052D01*
X176005875Y-65140318D01*
X176037207Y-65165281D01*
X176047690Y-65170604D01*
X176085505Y-65180830D01*
X176105136Y-65181937D01*
X176144598Y-65177056D01*
X176162582Y-65170604D01*
X176196466Y-65148245D01*
X176204201Y-65140318D01*
X176226149Y-65106552D01*
X176229602Y-65097917D01*
X176237708Y-65058853D01*
X176238004Y-65049655D01*
X176232070Y-65010293D01*
X176229016Y-65001392D01*
X176209121Y-64966714D01*
X176203028Y-64959773D01*
X176171883Y-64935860D01*
X176161409Y-64930660D01*
X176123594Y-64920434D01*
X176103963Y-64919327D01*
X176064501Y-64924207D01*
X176046517Y-64930660D01*
X176013058Y-64952236D01*
X176005485Y-64959773D01*
X175984102Y-64992726D01*
X175980670Y-65001392D01*
X175972563Y-65040457D01*
X175972268Y-65049655D01*
X175793551Y-65049655D01*
X175793482Y-65048482D01*
X175795886Y-65007423D01*
X175803099Y-64968997D01*
X175816587Y-64929769D01*
X175818102Y-64926361D01*
X175837217Y-64890979D01*
X175860442Y-64859522D01*
X175885122Y-64834330D01*
X175918836Y-64808547D01*
X175953362Y-64789306D01*
X175984187Y-64776689D01*
X176024017Y-64765342D01*
X176065324Y-64758705D01*
X176104159Y-64756759D01*
X176143451Y-64758705D01*
G37*
G36*
X176892379Y-64924798D02*
G01*
X176868150Y-64920499D01*
X176845094Y-64919327D01*
X176805141Y-64924080D01*
X176782568Y-64932809D01*
X176750364Y-64956036D01*
X176742121Y-64965244D01*
X176722384Y-64999732D01*
X176720042Y-65006668D01*
X176713398Y-65045747D01*
X176713398Y-65332000D01*
X176528946Y-65332000D01*
X176528946Y-64773563D01*
X176706755Y-64773563D01*
X176706755Y-64854456D01*
X176708904Y-64854456D01*
X176731114Y-64819738D01*
X176760131Y-64791154D01*
X176769672Y-64784114D01*
X176806564Y-64765414D01*
X176845040Y-64757427D01*
X176860921Y-64756759D01*
X176882805Y-64756759D01*
X176900195Y-64756759D01*
X176892379Y-64924798D01*
G37*
D16*
G36*
X170513748Y-60715000D02*
G01*
X170276099Y-60715000D01*
X170079240Y-60038203D01*
X170074843Y-60038203D01*
X169877983Y-60715000D01*
X169638870Y-60715000D01*
X169356037Y-59714581D01*
X169614934Y-59714581D01*
X169772471Y-60380143D01*
X169776623Y-60380143D01*
X169953943Y-59714581D01*
X170204292Y-59714581D01*
X170383078Y-60380143D01*
X170387230Y-60380143D01*
X170547697Y-59714581D01*
X170798046Y-59714581D01*
X170513748Y-60715000D01*
G37*
G36*
X171185621Y-59998071D02*
G01*
X171237384Y-60005310D01*
X171282624Y-60017686D01*
X171328565Y-60039258D01*
X171369384Y-60071235D01*
X171381787Y-60084853D01*
X171409358Y-60125714D01*
X171430158Y-60174477D01*
X171437474Y-60199647D01*
X171447486Y-60250227D01*
X171452982Y-60301518D01*
X171454991Y-60352003D01*
X171455060Y-60363778D01*
X171455060Y-60715000D01*
X171244034Y-60715000D01*
X171244034Y-60638307D01*
X171239882Y-60638307D01*
X171206359Y-60677325D01*
X171162399Y-60704920D01*
X171159037Y-60706451D01*
X171109863Y-60722980D01*
X171061104Y-60730041D01*
X171041556Y-60730631D01*
X170990346Y-60726670D01*
X170954117Y-60719396D01*
X170905955Y-60702351D01*
X170871808Y-60683004D01*
X170834215Y-60649370D01*
X170810747Y-60615837D01*
X170792795Y-60568942D01*
X170786905Y-60519895D01*
X170786811Y-60512278D01*
X170787354Y-60507393D01*
X170999302Y-60507393D01*
X171008339Y-60538900D01*
X171031542Y-60559905D01*
X171064027Y-60571140D01*
X171099198Y-60574316D01*
X171150868Y-60568350D01*
X171196864Y-60546640D01*
X171206665Y-60538168D01*
X171234691Y-60495608D01*
X171243997Y-60444063D01*
X171244034Y-60440226D01*
X171244034Y-60418000D01*
X171214480Y-60418000D01*
X171164371Y-60419473D01*
X171137788Y-60421420D01*
X171088651Y-60428672D01*
X171068912Y-60433876D01*
X171023952Y-60456423D01*
X171018842Y-60460743D01*
X170999321Y-60505588D01*
X170999302Y-60507393D01*
X170787354Y-60507393D01*
X170792650Y-60459796D01*
X170812154Y-60412243D01*
X170828332Y-60390645D01*
X170865978Y-60356605D01*
X170911445Y-60329498D01*
X170935067Y-60319326D01*
X170981800Y-60304022D01*
X171031997Y-60292701D01*
X171080635Y-60285865D01*
X171130428Y-60281357D01*
X171179363Y-60278518D01*
X171232199Y-60277325D01*
X171236951Y-60277316D01*
X171236951Y-60266325D01*
X171225359Y-60217871D01*
X171200314Y-60191831D01*
X171153963Y-60172477D01*
X171110433Y-60167896D01*
X171059046Y-60173893D01*
X171015422Y-60189145D01*
X170970617Y-60213875D01*
X170937265Y-60239703D01*
X170820517Y-60114406D01*
X170861270Y-60080222D01*
X170905983Y-60051857D01*
X170954655Y-60029313D01*
X170964864Y-60025502D01*
X171016642Y-60009917D01*
X171069087Y-60000105D01*
X171122200Y-59996064D01*
X171132903Y-59995949D01*
X171185621Y-59998071D01*
G37*
G36*
X172375367Y-60715000D02*
G01*
X172089847Y-60715000D01*
X171860503Y-60378677D01*
X171856351Y-60378677D01*
X171856351Y-60715000D01*
X171624076Y-60715000D01*
X171624076Y-59651322D01*
X171856351Y-59651322D01*
X171856351Y-60298565D01*
X171860503Y-60298565D01*
X172084229Y-60014511D01*
X172364131Y-60014511D01*
X172093999Y-60331050D01*
X172375367Y-60715000D01*
G37*
G36*
X172825700Y-59999037D02*
G01*
X172874427Y-60008301D01*
X172916120Y-60022083D01*
X172962088Y-60044980D01*
X173002903Y-60074473D01*
X173027251Y-60097798D01*
X173059170Y-60137789D01*
X173085319Y-60183756D01*
X173099547Y-60217721D01*
X173114426Y-60268587D01*
X173122593Y-60318886D01*
X173125655Y-60373048D01*
X173125681Y-60378677D01*
X173125681Y-60406765D01*
X173124215Y-60433632D01*
X172616434Y-60433632D01*
X172631990Y-60481331D01*
X172633776Y-60484190D01*
X172667600Y-60520345D01*
X172671877Y-60523513D01*
X172715270Y-60546324D01*
X172724145Y-60549403D01*
X172772269Y-60558358D01*
X172783741Y-60558684D01*
X172834421Y-60553616D01*
X172876553Y-60538412D01*
X172916805Y-60509916D01*
X172938591Y-60485655D01*
X173099058Y-60586039D01*
X173065146Y-60626420D01*
X173025079Y-60660552D01*
X172978859Y-60688435D01*
X172968877Y-60693262D01*
X172921334Y-60711326D01*
X172869658Y-60723478D01*
X172820252Y-60729317D01*
X172781054Y-60730631D01*
X172727827Y-60727774D01*
X172676620Y-60719202D01*
X172631822Y-60706451D01*
X172585539Y-60687062D01*
X172539790Y-60659985D01*
X172508723Y-60635621D01*
X172472465Y-60597793D01*
X172442457Y-60553921D01*
X172425925Y-60521315D01*
X172408682Y-60472325D01*
X172399217Y-60423782D01*
X172395668Y-60371422D01*
X172395639Y-60365976D01*
X172398525Y-60314709D01*
X172402437Y-60292948D01*
X172616434Y-60292948D01*
X172913189Y-60292948D01*
X172903470Y-60242518D01*
X172878751Y-60204776D01*
X172835703Y-60177116D01*
X172783911Y-60168040D01*
X172775436Y-60167896D01*
X172725968Y-60174008D01*
X172713399Y-60177909D01*
X172669481Y-60200616D01*
X172664062Y-60204776D01*
X172631976Y-60242200D01*
X172630356Y-60245076D01*
X172616434Y-60292948D01*
X172402437Y-60292948D01*
X172407183Y-60266543D01*
X172423374Y-60217141D01*
X172425192Y-60212836D01*
X172447992Y-60168134D01*
X172478526Y-60125029D01*
X172505304Y-60096577D01*
X172545947Y-60063695D01*
X172591674Y-60036859D01*
X172624983Y-60022327D01*
X172673663Y-60007309D01*
X172724998Y-59998525D01*
X172773971Y-59995949D01*
X172825700Y-59999037D01*
G37*
G36*
X173726518Y-60715000D02*
G01*
X173726518Y-60606556D01*
X173723587Y-60606556D01*
X173696591Y-60647334D01*
X173690370Y-60654427D01*
X173652752Y-60686911D01*
X173642743Y-60693262D01*
X173598413Y-60714511D01*
X173582170Y-60720129D01*
X173532879Y-60729800D01*
X173512561Y-60730631D01*
X173462862Y-60726853D01*
X173412606Y-60712895D01*
X173393615Y-60703764D01*
X173352249Y-60675142D01*
X173316879Y-60637040D01*
X173314969Y-60634399D01*
X173290279Y-60592021D01*
X173272994Y-60545027D01*
X173271249Y-60538412D01*
X173261783Y-60488495D01*
X173258112Y-60438578D01*
X173258060Y-60431922D01*
X173258060Y-59998635D01*
X173490091Y-59998635D01*
X173490091Y-60378433D01*
X173493270Y-60428094D01*
X173494243Y-60434853D01*
X173510363Y-60482480D01*
X173542115Y-60515453D01*
X173590157Y-60527374D01*
X173594138Y-60527421D01*
X173644539Y-60517546D01*
X173684220Y-60485245D01*
X173686218Y-60482480D01*
X173709008Y-60436914D01*
X173717690Y-60388187D01*
X173717970Y-60376967D01*
X173717970Y-59998635D01*
X173948779Y-59998635D01*
X173948779Y-60715000D01*
X173726518Y-60715000D01*
G37*
G36*
X174621658Y-59999412D02*
G01*
X174672983Y-60011090D01*
X174708863Y-60025258D01*
X174752712Y-60050193D01*
X174791203Y-60081037D01*
X174813887Y-60104881D01*
X174843345Y-60144883D01*
X174867239Y-60189419D01*
X174880077Y-60221629D01*
X174894216Y-60272199D01*
X174901830Y-60324623D01*
X174903280Y-60360603D01*
X174900625Y-60409840D01*
X174891672Y-60462104D01*
X174880810Y-60500310D01*
X174861072Y-60548269D01*
X174835564Y-60591764D01*
X174815353Y-60618279D01*
X174780434Y-60653565D01*
X174740156Y-60683217D01*
X174710328Y-60699856D01*
X174661613Y-60718610D01*
X174612794Y-60728197D01*
X174569889Y-60730631D01*
X174518429Y-60726076D01*
X174469226Y-60712411D01*
X174447279Y-60703032D01*
X174404637Y-60677261D01*
X174368092Y-60642026D01*
X174357397Y-60627561D01*
X174354466Y-60627561D01*
X174354466Y-61042529D01*
X174123901Y-61042529D01*
X174123901Y-60363290D01*
X174346162Y-60363290D01*
X174354063Y-60412492D01*
X174358130Y-60423618D01*
X174384027Y-60467214D01*
X174391836Y-60476130D01*
X174431465Y-60506636D01*
X174444592Y-60513255D01*
X174493472Y-60526300D01*
X174514934Y-60527421D01*
X174564261Y-60521320D01*
X174586741Y-60513255D01*
X174628649Y-60485754D01*
X174638032Y-60476130D01*
X174664761Y-60433910D01*
X174669051Y-60422885D01*
X174679184Y-60373583D01*
X174679554Y-60362069D01*
X174672620Y-60312866D01*
X174669051Y-60301741D01*
X174645374Y-60258392D01*
X174638032Y-60249717D01*
X174597996Y-60218846D01*
X174586741Y-60213325D01*
X174539473Y-60200542D01*
X174514934Y-60199159D01*
X174464790Y-60205854D01*
X174444592Y-60213325D01*
X174403284Y-60239428D01*
X174391836Y-60250450D01*
X174362961Y-60292111D01*
X174358130Y-60302962D01*
X174346583Y-60351792D01*
X174346162Y-60363290D01*
X174123901Y-60363290D01*
X174123901Y-60024036D01*
X174343231Y-60024036D01*
X174343231Y-60109766D01*
X174347383Y-60109766D01*
X174380482Y-60072166D01*
X174419589Y-60041102D01*
X174436776Y-60030143D01*
X174482343Y-60009306D01*
X174533680Y-59998086D01*
X174571110Y-59995949D01*
X174621658Y-59999412D01*
G37*
G36*
X175931787Y-59988133D02*
G01*
X175896005Y-59952657D01*
X175853809Y-59926829D01*
X175850698Y-59925362D01*
X175804738Y-59908708D01*
X175754466Y-59902159D01*
X175705862Y-59906311D01*
X175661654Y-59922431D01*
X175628437Y-59953450D01*
X175615248Y-60001566D01*
X175625750Y-60043576D01*
X175656525Y-60073129D01*
X175701648Y-60094768D01*
X175705129Y-60096088D01*
X175751474Y-60112254D01*
X175768632Y-60117826D01*
X175816943Y-60134255D01*
X175863679Y-60151138D01*
X175873901Y-60154951D01*
X175920070Y-60175260D01*
X175962405Y-60200712D01*
X175973796Y-60208928D01*
X176012723Y-60243894D01*
X176042856Y-60283017D01*
X176048535Y-60292215D01*
X176068737Y-60340274D01*
X176077049Y-60388909D01*
X176078088Y-60415802D01*
X176074987Y-60466964D01*
X176064414Y-60518008D01*
X176046337Y-60563569D01*
X176019615Y-60607258D01*
X175986711Y-60644902D01*
X175961340Y-60666639D01*
X175919025Y-60694094D01*
X175872314Y-60715641D01*
X175838730Y-60726723D01*
X175790887Y-60737848D01*
X175742062Y-60744354D01*
X175696825Y-60746263D01*
X175643779Y-60743881D01*
X175591617Y-60736737D01*
X175540342Y-60724830D01*
X175489951Y-60708161D01*
X175442110Y-60686973D01*
X175398482Y-60661755D01*
X175359068Y-60632506D01*
X175323866Y-60599228D01*
X175481647Y-60437540D01*
X175517978Y-60474058D01*
X175559751Y-60502944D01*
X175577879Y-60512766D01*
X175626377Y-60532375D01*
X175674634Y-60541988D01*
X175696825Y-60543053D01*
X175745669Y-60538115D01*
X175748849Y-60537435D01*
X175793057Y-60519361D01*
X175823343Y-60485655D01*
X175834567Y-60437165D01*
X175834578Y-60435341D01*
X175820412Y-60387714D01*
X175783575Y-60354083D01*
X175780356Y-60352055D01*
X175736452Y-60330396D01*
X175715632Y-60322745D01*
X175668817Y-60307015D01*
X175627704Y-60293925D01*
X175580504Y-60277133D01*
X175534159Y-60257533D01*
X175490928Y-60233536D01*
X175452582Y-60203555D01*
X175418554Y-60164592D01*
X175394941Y-60123688D01*
X175379338Y-60075270D01*
X175373543Y-60026101D01*
X175373203Y-60009626D01*
X175376495Y-59960367D01*
X175387719Y-59911582D01*
X175406909Y-59868454D01*
X175435291Y-59827261D01*
X175469511Y-59791975D01*
X175495569Y-59771734D01*
X175538743Y-59746226D01*
X175585832Y-59726488D01*
X175619400Y-59716535D01*
X175671264Y-59705819D01*
X175723539Y-59700048D01*
X175758618Y-59698949D01*
X175811770Y-59702050D01*
X175860177Y-59710143D01*
X175909126Y-59723259D01*
X175931054Y-59730701D01*
X175978794Y-59750937D01*
X176023094Y-59775927D01*
X176063956Y-59805669D01*
X176085171Y-59824246D01*
X175931787Y-59988133D01*
G37*
G36*
X176622773Y-59998381D02*
G01*
X176674596Y-60006678D01*
X176724110Y-60020861D01*
X176770479Y-60040615D01*
X176812865Y-60065622D01*
X176847942Y-60092913D01*
X176884864Y-60131187D01*
X176913098Y-60171400D01*
X176932205Y-60207951D01*
X176949866Y-60256624D01*
X176960195Y-60309279D01*
X176963224Y-60360603D01*
X176960195Y-60411870D01*
X176951107Y-60460037D01*
X176934114Y-60509438D01*
X176932205Y-60513743D01*
X176908364Y-60558475D01*
X176879154Y-60598300D01*
X176847942Y-60630247D01*
X176809176Y-60660480D01*
X176766428Y-60685691D01*
X176724110Y-60704253D01*
X176674596Y-60719271D01*
X176622773Y-60728055D01*
X176573657Y-60730631D01*
X176520343Y-60727514D01*
X176468877Y-60718163D01*
X176423692Y-60704253D01*
X176376992Y-60683607D01*
X176334622Y-60657939D01*
X176299861Y-60630247D01*
X176266159Y-60594882D01*
X176237595Y-60554611D01*
X176216085Y-60513743D01*
X176198564Y-60464683D01*
X176188316Y-60411870D01*
X176185397Y-60362069D01*
X176408793Y-60362069D01*
X176415726Y-60411271D01*
X176419295Y-60422397D01*
X176443295Y-60466315D01*
X176450803Y-60475397D01*
X176489967Y-60506601D01*
X176503071Y-60513255D01*
X176550339Y-60526038D01*
X176574878Y-60527421D01*
X176624206Y-60521320D01*
X176646685Y-60513255D01*
X176689040Y-60485307D01*
X176698709Y-60475397D01*
X176726145Y-60433190D01*
X176730461Y-60422397D01*
X176740594Y-60373566D01*
X176740963Y-60362069D01*
X176733546Y-60312866D01*
X176729728Y-60301741D01*
X176704860Y-60258392D01*
X176697244Y-60249717D01*
X176658312Y-60219825D01*
X176645220Y-60213325D01*
X176597951Y-60200542D01*
X176573413Y-60199159D01*
X176524085Y-60205259D01*
X176501605Y-60213325D01*
X176459781Y-60240295D01*
X176450314Y-60249717D01*
X176423586Y-60290907D01*
X176419295Y-60301741D01*
X176409162Y-60350571D01*
X176408793Y-60362069D01*
X176185397Y-60362069D01*
X176185311Y-60360603D01*
X176188316Y-60309279D01*
X176197332Y-60261246D01*
X176214192Y-60212212D01*
X176216085Y-60207951D01*
X176239979Y-60163724D01*
X176269011Y-60124402D01*
X176299861Y-60092913D01*
X176342004Y-60060684D01*
X176385161Y-60036633D01*
X176423692Y-60020861D01*
X176473479Y-60006678D01*
X176525114Y-59998381D01*
X176573657Y-59995949D01*
X176622773Y-59998381D01*
G37*
G36*
X177566016Y-60715000D02*
G01*
X177566016Y-60606556D01*
X177563085Y-60606556D01*
X177536088Y-60647334D01*
X177529868Y-60654427D01*
X177492249Y-60686911D01*
X177482240Y-60693262D01*
X177437910Y-60714511D01*
X177421668Y-60720129D01*
X177372377Y-60729800D01*
X177352059Y-60730631D01*
X177302359Y-60726853D01*
X177252103Y-60712895D01*
X177233113Y-60703764D01*
X177191746Y-60675142D01*
X177156377Y-60637040D01*
X177154466Y-60634399D01*
X177129776Y-60592021D01*
X177112492Y-60545027D01*
X177110747Y-60538412D01*
X177101280Y-60488495D01*
X177097609Y-60438578D01*
X177097558Y-60431922D01*
X177097558Y-59998635D01*
X177329588Y-59998635D01*
X177329588Y-60378433D01*
X177332767Y-60428094D01*
X177333741Y-60434853D01*
X177349861Y-60482480D01*
X177381612Y-60515453D01*
X177429655Y-60527374D01*
X177433636Y-60527421D01*
X177484036Y-60517546D01*
X177523718Y-60485245D01*
X177525715Y-60482480D01*
X177548506Y-60436914D01*
X177557188Y-60388187D01*
X177557467Y-60376967D01*
X177557467Y-59998635D01*
X177788277Y-59998635D01*
X177788277Y-60715000D01*
X177566016Y-60715000D01*
G37*
G36*
X178417690Y-60205997D02*
G01*
X178387404Y-60200624D01*
X178358584Y-60199159D01*
X178308643Y-60205100D01*
X178280426Y-60216011D01*
X178240172Y-60245046D01*
X178229868Y-60256556D01*
X178205196Y-60299665D01*
X178202268Y-60308335D01*
X178193964Y-60357184D01*
X178193964Y-60715000D01*
X177963399Y-60715000D01*
X177963399Y-60016953D01*
X178185660Y-60016953D01*
X178185660Y-60118070D01*
X178188346Y-60118070D01*
X178216109Y-60074673D01*
X178252380Y-60038943D01*
X178264306Y-60030143D01*
X178310421Y-60006768D01*
X178358517Y-59996783D01*
X178378367Y-59995949D01*
X178405722Y-59995949D01*
X178427460Y-59995949D01*
X178417690Y-60205997D01*
G37*
G36*
X178974320Y-60255579D02*
G01*
X178936905Y-60223110D01*
X178920831Y-60214790D01*
X178873793Y-60200685D01*
X178851954Y-60199159D01*
X178802948Y-60206224D01*
X178785764Y-60212836D01*
X178743458Y-60240631D01*
X178735206Y-60248740D01*
X178707039Y-60290091D01*
X178702233Y-60301008D01*
X178690838Y-60349570D01*
X178690265Y-60364023D01*
X178697123Y-60413921D01*
X178701501Y-60427037D01*
X178726691Y-60470547D01*
X178734473Y-60479305D01*
X178773739Y-60508601D01*
X178786497Y-60514720D01*
X178834071Y-60526416D01*
X178854885Y-60527421D01*
X178905065Y-60520607D01*
X178924494Y-60514232D01*
X178967060Y-60488739D01*
X178979937Y-60475397D01*
X179108165Y-60636353D01*
X179068451Y-60669128D01*
X179024350Y-60693800D01*
X178995325Y-60705718D01*
X178946991Y-60719902D01*
X178896694Y-60728198D01*
X178849267Y-60730631D01*
X178798463Y-60728198D01*
X178749853Y-60720899D01*
X178698916Y-60707251D01*
X178694418Y-60705718D01*
X178647440Y-60685878D01*
X178604907Y-60660612D01*
X178570098Y-60632934D01*
X178533690Y-60594214D01*
X178505869Y-60553772D01*
X178487055Y-60517163D01*
X178469812Y-60468346D01*
X178460348Y-60420261D01*
X178456799Y-60368645D01*
X178456769Y-60363290D01*
X178459727Y-60312094D01*
X178469812Y-60259526D01*
X178487055Y-60210882D01*
X178510532Y-60166568D01*
X178539319Y-60126987D01*
X178570098Y-60095111D01*
X178608590Y-60064826D01*
X178651527Y-60039793D01*
X178694418Y-60021594D01*
X178744940Y-60006993D01*
X178797770Y-59998453D01*
X178847802Y-59995949D01*
X178897280Y-59999209D01*
X178923029Y-60003520D01*
X178970814Y-60015451D01*
X178994836Y-60023548D01*
X179039534Y-60043562D01*
X179058095Y-60054567D01*
X179097067Y-60084471D01*
X179108165Y-60095355D01*
X178974320Y-60255579D01*
G37*
G36*
X179590250Y-59999037D02*
G01*
X179638977Y-60008301D01*
X179680670Y-60022083D01*
X179726637Y-60044980D01*
X179767453Y-60074473D01*
X179791801Y-60097798D01*
X179823720Y-60137789D01*
X179849869Y-60183756D01*
X179864097Y-60217721D01*
X179878976Y-60268587D01*
X179887142Y-60318886D01*
X179890205Y-60373048D01*
X179890230Y-60378677D01*
X179890230Y-60406765D01*
X179888765Y-60433632D01*
X179380984Y-60433632D01*
X179396540Y-60481331D01*
X179398325Y-60484190D01*
X179432150Y-60520345D01*
X179436427Y-60523513D01*
X179479820Y-60546324D01*
X179488695Y-60549403D01*
X179536819Y-60558358D01*
X179548291Y-60558684D01*
X179598971Y-60553616D01*
X179641103Y-60538412D01*
X179681355Y-60509916D01*
X179703140Y-60485655D01*
X179863608Y-60586039D01*
X179829695Y-60626420D01*
X179789629Y-60660552D01*
X179743409Y-60688435D01*
X179733427Y-60693262D01*
X179685884Y-60711326D01*
X179634208Y-60723478D01*
X179584802Y-60729317D01*
X179545604Y-60730631D01*
X179492377Y-60727774D01*
X179441170Y-60719202D01*
X179396371Y-60706451D01*
X179350089Y-60687062D01*
X179304340Y-60659985D01*
X179273273Y-60635621D01*
X179237014Y-60597793D01*
X179207007Y-60553921D01*
X179190475Y-60521315D01*
X179173232Y-60472325D01*
X179163767Y-60423782D01*
X179160218Y-60371422D01*
X179160189Y-60365976D01*
X179163075Y-60314709D01*
X179166987Y-60292948D01*
X179380984Y-60292948D01*
X179677739Y-60292948D01*
X179668020Y-60242518D01*
X179643301Y-60204776D01*
X179600253Y-60177116D01*
X179548461Y-60168040D01*
X179539986Y-60167896D01*
X179490518Y-60174008D01*
X179477949Y-60177909D01*
X179434031Y-60200616D01*
X179428612Y-60204776D01*
X179396526Y-60242200D01*
X179394906Y-60245076D01*
X179380984Y-60292948D01*
X179166987Y-60292948D01*
X179171733Y-60266543D01*
X179187924Y-60217141D01*
X179189742Y-60212836D01*
X179212542Y-60168134D01*
X179243076Y-60125029D01*
X179269854Y-60096577D01*
X179310497Y-60063695D01*
X179356224Y-60036859D01*
X179389533Y-60022327D01*
X179438213Y-60007309D01*
X179489548Y-59998525D01*
X179538521Y-59995949D01*
X179590250Y-59999037D01*
G37*
G36*
X180441731Y-60231154D02*
G01*
X180402709Y-60201120D01*
X180375541Y-60186214D01*
X180329035Y-60170919D01*
X180295429Y-60167896D01*
X180246103Y-60176119D01*
X180235590Y-60180352D01*
X180208235Y-60222606D01*
X180236657Y-60262844D01*
X180238521Y-60263639D01*
X180287574Y-60279088D01*
X180336218Y-60290750D01*
X180385658Y-60303801D01*
X180415597Y-60314197D01*
X180460612Y-60335334D01*
X180488137Y-60353764D01*
X180523686Y-60388683D01*
X180540161Y-60413848D01*
X180556679Y-60460726D01*
X180559944Y-60498356D01*
X180555510Y-60547283D01*
X180539375Y-60595622D01*
X180533078Y-60607044D01*
X180502364Y-60647222D01*
X180463468Y-60678852D01*
X180418039Y-60702238D01*
X180370569Y-60717397D01*
X180367237Y-60718175D01*
X180317091Y-60727116D01*
X180266945Y-60730582D01*
X180260258Y-60730631D01*
X180207012Y-60727864D01*
X180154433Y-60719564D01*
X180102521Y-60705730D01*
X180092219Y-60702299D01*
X180043447Y-60681839D01*
X180000018Y-60656179D01*
X179961931Y-60625319D01*
X179954955Y-60618524D01*
X180084404Y-60480038D01*
X180121290Y-60512679D01*
X180160363Y-60536214D01*
X180206891Y-60553066D01*
X180256106Y-60558684D01*
X180304699Y-60548773D01*
X180311549Y-60545739D01*
X180339041Y-60504080D01*
X180339149Y-60500066D01*
X180313343Y-60457644D01*
X180305443Y-60453660D01*
X180258878Y-60437225D01*
X180208758Y-60424193D01*
X180199930Y-60422152D01*
X180151845Y-60408939D01*
X180126658Y-60400170D01*
X180081938Y-60378116D01*
X180061200Y-60363290D01*
X180026536Y-60326306D01*
X180014062Y-60306137D01*
X179998319Y-60258052D01*
X179995743Y-60224071D01*
X180000839Y-60173769D01*
X180017608Y-60127759D01*
X180022366Y-60119535D01*
X180053079Y-60080457D01*
X180091487Y-60049193D01*
X180136000Y-60025441D01*
X180185032Y-60008893D01*
X180233010Y-59999602D01*
X180283949Y-59995961D01*
X180287125Y-59995949D01*
X180335945Y-59998453D01*
X180388876Y-60006993D01*
X180436293Y-60020016D01*
X180440998Y-60021594D01*
X180490114Y-60042088D01*
X180533688Y-60068642D01*
X180568493Y-60098042D01*
X180441731Y-60231154D01*
G37*
D17*
%TO.C,R21*%
X159870000Y-61096359D02*
X159870000Y-61403641D01*
X160630000Y-61096359D02*
X160630000Y-61403641D01*
%TO.C,R20*%
X154620000Y-63653641D02*
X154620000Y-63346359D01*
X155380000Y-63653641D02*
X155380000Y-63346359D01*
%TO.C,Y1*%
X161200000Y-60050000D02*
X161200000Y-62450000D01*
X162800000Y-62450000D02*
X162800000Y-60050000D01*
X161200000Y-62450000D02*
X162800000Y-62450000D01*
%TO.C,C23*%
X145640000Y-60607836D02*
X145640000Y-60392164D01*
X146360000Y-60607836D02*
X146360000Y-60392164D01*
%TO.C,D3*%
X157700000Y-69850000D02*
X155740000Y-69850000D01*
X157700000Y-68650000D02*
X155740000Y-68650000D01*
X155740000Y-68650000D02*
X155740000Y-69850000D01*
%TO.C,JP1*%
X180400000Y-62800000D02*
G75*
G02*
X179700000Y-63500000I-700000J0D01*
G01*
X179700000Y-61500000D02*
G75*
G02*
X180400000Y-62200000I0J-700000D01*
G01*
X178300000Y-63500000D02*
G75*
G02*
X177600000Y-62800000I-1J699999D01*
G01*
X177600000Y-62200000D02*
G75*
G02*
X178300000Y-61500000I699999J1D01*
G01*
X180400000Y-62200000D02*
X180400000Y-62800000D01*
X179700000Y-63500000D02*
X178300000Y-63500000D01*
X178300000Y-61500000D02*
X179700000Y-61500000D01*
X177600000Y-62800000D02*
X177600000Y-62200000D01*
%TO.C,U5*%
X120350000Y-66620000D02*
X119400000Y-66620000D01*
X119400000Y-62370000D02*
X120350000Y-62370000D01*
X119250000Y-66470000D02*
X119400000Y-66620000D01*
X119250000Y-62520000D02*
X119400000Y-62370000D01*
X118600000Y-65820000D02*
X118850000Y-66070000D01*
X118600000Y-63220000D02*
X118850000Y-62970000D01*
X118600000Y-63220000D02*
X118600000Y-65820000D01*
%TO.C,C24*%
X124140000Y-74607836D02*
X124140000Y-74392164D01*
X124860000Y-74607836D02*
X124860000Y-74392164D01*
%TO.C,C17*%
X138642164Y-66860000D02*
X138857836Y-66860000D01*
X138642164Y-66140000D02*
X138857836Y-66140000D01*
D10*
%TO.C,D2*%
X120890000Y-58250000D02*
G75*
G02*
X120790000Y-58250000I-50000J0D01*
G01*
X120790000Y-58250000D02*
G75*
G02*
X120890000Y-58250000I50000J0D01*
G01*
D17*
%TO.C,C14*%
X125735000Y-77761252D02*
X125735000Y-77238748D01*
X124265000Y-77761252D02*
X124265000Y-77238748D01*
%TO.C,R17*%
X142620000Y-60653641D02*
X142620000Y-60346359D01*
X143380000Y-60653641D02*
X143380000Y-60346359D01*
%TO.C,R13*%
X138596359Y-60120000D02*
X138903641Y-60120000D01*
X138596359Y-60880000D02*
X138903641Y-60880000D01*
%TO.C,C7*%
X149610000Y-63392164D02*
X149610000Y-63607836D01*
X148890000Y-63392164D02*
X148890000Y-63607836D01*
%TO.C,J2*%
X124490000Y-50850000D02*
X124490000Y-56150000D01*
X124490000Y-56150000D02*
X124975000Y-56150000D01*
X124975000Y-49940000D02*
X124975000Y-50850000D01*
X124975000Y-50850000D02*
X124490000Y-50850000D01*
X126765000Y-50850000D02*
X127515000Y-50850000D01*
X126765000Y-56150000D02*
X127515000Y-56150000D01*
X129305000Y-50850000D02*
X130055000Y-50850000D01*
X129305000Y-56150000D02*
X130055000Y-56150000D01*
X131845000Y-50850000D02*
X132595000Y-50850000D01*
X131845000Y-56150000D02*
X132595000Y-56150000D01*
X134385000Y-50850000D02*
X135135000Y-50850000D01*
X134385000Y-56150000D02*
X135135000Y-56150000D01*
X136925000Y-50850000D02*
X137675000Y-50850000D01*
X136925000Y-56150000D02*
X137675000Y-56150000D01*
X139465000Y-50850000D02*
X140215000Y-50850000D01*
X139465000Y-56150000D02*
X140215000Y-56150000D01*
X142005000Y-50850000D02*
X142755000Y-50850000D01*
X142005000Y-56150000D02*
X142755000Y-56150000D01*
X144545000Y-50850000D02*
X145295000Y-50850000D01*
X144545000Y-56150000D02*
X145295000Y-56150000D01*
X147085000Y-50850000D02*
X147835000Y-50850000D01*
X147085000Y-56150000D02*
X147835000Y-56150000D01*
X149625000Y-50850000D02*
X150375000Y-50850000D01*
X149625000Y-56150000D02*
X150375000Y-56150000D01*
X152165000Y-50850000D02*
X152915000Y-50850000D01*
X152165000Y-56150000D02*
X152915000Y-56150000D01*
X154705000Y-50850000D02*
X155455000Y-50850000D01*
X154705000Y-56150000D02*
X155455000Y-56150000D01*
X157245000Y-50850000D02*
X157995000Y-50850000D01*
X157245000Y-56150000D02*
X157995000Y-56150000D01*
X159785000Y-50850000D02*
X160535000Y-50850000D01*
X159785000Y-56150000D02*
X160535000Y-56150000D01*
X162325000Y-50850000D02*
X163075000Y-50850000D01*
X162325000Y-56150000D02*
X163075000Y-56150000D01*
X164865000Y-50850000D02*
X165615000Y-50850000D01*
X164865000Y-56150000D02*
X165615000Y-56150000D01*
X167405000Y-50850000D02*
X168155000Y-50850000D01*
X167405000Y-56150000D02*
X168155000Y-56150000D01*
X169945000Y-50850000D02*
X170695000Y-50850000D01*
X169945000Y-56150000D02*
X170695000Y-56150000D01*
X172485000Y-50850000D02*
X173235000Y-50850000D01*
X172485000Y-56150000D02*
X173235000Y-56150000D01*
X175025000Y-50850000D02*
X175510000Y-50850000D01*
X175510000Y-50850000D02*
X175510000Y-56150000D01*
X175510000Y-56150000D02*
X175025000Y-56150000D01*
%TO.C,U1*%
X164190000Y-60160000D02*
X163910000Y-60160000D01*
X164190000Y-59880000D01*
X164190000Y-60160000D01*
G36*
X164190000Y-60160000D02*
G01*
X163910000Y-60160000D01*
X164190000Y-59880000D01*
X164190000Y-60160000D01*
G37*
X164750000Y-62360000D02*
X167750000Y-62360000D01*
X164750000Y-60140000D02*
X167750000Y-60140000D01*
%TO.C,R1*%
X128790000Y-58903641D02*
X128790000Y-58596359D01*
X128030000Y-58903641D02*
X128030000Y-58596359D01*
%TO.C,C13*%
X136265000Y-77238748D02*
X136265000Y-77761252D01*
X137735000Y-77238748D02*
X137735000Y-77761252D01*
%TO.C,R8*%
X132596359Y-60870000D02*
X132903641Y-60870000D01*
X132596359Y-61630000D02*
X132903641Y-61630000D01*
%TO.C,L1*%
X134275000Y-75275000D02*
X127725000Y-75275000D01*
X134275000Y-74014500D02*
X134275000Y-75275000D01*
X134275000Y-69985500D02*
X134275000Y-68725000D01*
X134275000Y-68725000D02*
X127725000Y-68725000D01*
X127725000Y-75275000D02*
X127725000Y-74014500D01*
X127725000Y-68725000D02*
X127725000Y-69985500D01*
%TO.C,D1*%
X166010000Y-71600000D02*
X166010000Y-70400000D01*
X164050000Y-71600000D02*
X166010000Y-71600000D01*
X164050000Y-70400000D02*
X166010000Y-70400000D01*
%TO.C,R5*%
X129346359Y-65370000D02*
X129653641Y-65370000D01*
X129346359Y-66130000D02*
X129653641Y-66130000D01*
%TO.C,U3*%
X152260000Y-64940000D02*
X152260000Y-64660000D01*
X152540000Y-64660000D01*
X152260000Y-64940000D01*
G36*
X152260000Y-64940000D02*
G01*
X152260000Y-64660000D01*
X152540000Y-64660000D01*
X152260000Y-64940000D01*
G37*
X150850000Y-62340000D02*
X152150000Y-62340000D01*
X150850000Y-64660000D02*
X151900000Y-64660000D01*
%TO.C,C12*%
X133765000Y-77238748D02*
X133765000Y-77761252D01*
X135235000Y-77238748D02*
X135235000Y-77761252D01*
%TO.C,C2*%
X166142164Y-63860000D02*
X166357836Y-63860000D01*
X166142164Y-63140000D02*
X166357836Y-63140000D01*
%TO.C,D4*%
X145200000Y-69600000D02*
X143240000Y-69600000D01*
X145200000Y-68400000D02*
X143240000Y-68400000D01*
X143240000Y-68400000D02*
X143240000Y-69600000D01*
%TO.C,U8*%
X158110000Y-62500000D02*
X158110000Y-64500000D01*
X155890000Y-62500000D02*
X155890000Y-64500000D01*
X158290000Y-62260000D02*
X158010000Y-62260000D01*
X158010000Y-61980000D01*
X158290000Y-62260000D01*
G36*
X158290000Y-62260000D02*
G01*
X158010000Y-62260000D01*
X158010000Y-61980000D01*
X158290000Y-62260000D01*
G37*
%TO.C,R16*%
X142620000Y-66653641D02*
X142620000Y-66346359D01*
X143380000Y-66653641D02*
X143380000Y-66346359D01*
%TO.C,U4*%
X164240000Y-66160000D02*
X163960000Y-66160000D01*
X164240000Y-65880000D01*
X164240000Y-66160000D01*
G36*
X164240000Y-66160000D02*
G01*
X163960000Y-66160000D01*
X164240000Y-65880000D01*
X164240000Y-66160000D01*
G37*
X164750000Y-68360000D02*
X167750000Y-68360000D01*
X164750000Y-66140000D02*
X167750000Y-66140000D01*
%TO.C,C16*%
X136322164Y-66860000D02*
X136537836Y-66860000D01*
X136322164Y-66140000D02*
X136537836Y-66140000D01*
%TO.C,C6*%
X129607836Y-60890000D02*
X129392164Y-60890000D01*
X129607836Y-61610000D02*
X129392164Y-61610000D01*
%TO.C,R4*%
X169846359Y-71380000D02*
X170153641Y-71380000D01*
X169846359Y-70620000D02*
X170153641Y-70620000D01*
%TO.C,R7*%
X122403641Y-57870000D02*
X122096359Y-57870000D01*
X122403641Y-58630000D02*
X122096359Y-58630000D01*
%TO.C,C11*%
X121860000Y-63622164D02*
X121860000Y-63837836D01*
X121140000Y-63622164D02*
X121140000Y-63837836D01*
%TO.C,C9*%
X151607836Y-65390000D02*
X151392164Y-65390000D01*
X151607836Y-66110000D02*
X151392164Y-66110000D01*
%TO.C,J1*%
X173670000Y-76250000D02*
X173670000Y-74550000D01*
X164330000Y-76250000D02*
X164330000Y-74550000D01*
%TO.C,C19*%
X157107836Y-66110000D02*
X156892164Y-66110000D01*
X157107836Y-65390000D02*
X156892164Y-65390000D01*
%TO.C,C21*%
X144860000Y-66392164D02*
X144860000Y-66607836D01*
X144140000Y-66392164D02*
X144140000Y-66607836D01*
%TO.C,C20*%
X159610000Y-63392164D02*
X159610000Y-63607836D01*
X158890000Y-63392164D02*
X158890000Y-63607836D01*
%TO.C,R15*%
X155903641Y-61630000D02*
X155596359Y-61630000D01*
X155903641Y-60870000D02*
X155596359Y-60870000D01*
%TO.C,C10*%
X166357836Y-65360000D02*
X166142164Y-65360000D01*
X166357836Y-64640000D02*
X166142164Y-64640000D01*
D10*
%TO.C,U2*%
X129984000Y-64770000D02*
X129730000Y-64516000D01*
X129984000Y-64516000D01*
X129984000Y-64770000D01*
G36*
X129984000Y-64770000D02*
G01*
X129730000Y-64516000D01*
X129984000Y-64516000D01*
X129984000Y-64770000D01*
G37*
X132270000Y-64516000D02*
X132270000Y-62484000D01*
X129730000Y-64262000D02*
X129730000Y-62484000D01*
D17*
%TO.C,JP4*%
X137050000Y-70600000D02*
G75*
G02*
X137750000Y-71300000I0J-700000D01*
G01*
X135750000Y-71300000D02*
G75*
G02*
X136450000Y-70600000I700000J0D01*
G01*
X137750000Y-72700000D02*
G75*
G02*
X137050000Y-73400000I-699999J-1D01*
G01*
X136450000Y-73400000D02*
G75*
G02*
X135750000Y-72700000I-1J699999D01*
G01*
X136450000Y-70600000D02*
X137050000Y-70600000D01*
X137750000Y-71300000D02*
X137750000Y-72700000D01*
X135750000Y-72700000D02*
X135750000Y-71300000D01*
X137050000Y-73400000D02*
X136450000Y-73400000D01*
%TO.C,R2*%
X131330000Y-58903641D02*
X131330000Y-58596359D01*
X130570000Y-58903641D02*
X130570000Y-58596359D01*
D10*
%TO.C,U6*%
X129730000Y-76026700D02*
X129476000Y-76026700D01*
X129730000Y-75772700D01*
X129730000Y-76026700D01*
G36*
X129730000Y-76026700D02*
G01*
X129476000Y-76026700D01*
X129730000Y-75772700D01*
X129730000Y-76026700D01*
G37*
X129984000Y-78820700D02*
X132016000Y-78820700D01*
X129984000Y-75772700D02*
X132016000Y-75772700D01*
D17*
%TO.C,JP3*%
X177600000Y-67800000D02*
X177600000Y-67200000D01*
X178300000Y-66500000D02*
X179700000Y-66500000D01*
X179700000Y-68500000D02*
X178300000Y-68500000D01*
X180400000Y-67200000D02*
X180400000Y-67800000D01*
X177600000Y-67200000D02*
G75*
G02*
X178300000Y-66500000I699999J1D01*
G01*
X178300000Y-68500000D02*
G75*
G02*
X177600000Y-67800000I-1J699999D01*
G01*
X179700000Y-66500000D02*
G75*
G02*
X180400000Y-67200000I0J-700000D01*
G01*
X180400000Y-67800000D02*
G75*
G02*
X179700000Y-68500000I-700000J0D01*
G01*
%TO.C,R14*%
X158403641Y-61630000D02*
X158096359Y-61630000D01*
X158403641Y-60870000D02*
X158096359Y-60870000D01*
%TO.C,C18*%
X136322164Y-60140000D02*
X136537836Y-60140000D01*
X136322164Y-60860000D02*
X136537836Y-60860000D01*
%TO.C,C15*%
X128235000Y-77761252D02*
X128235000Y-77238748D01*
X126765000Y-77761252D02*
X126765000Y-77238748D01*
%TO.C,C5*%
X129360000Y-63607836D02*
X129360000Y-63392164D01*
X128640000Y-63607836D02*
X128640000Y-63392164D01*
D10*
%TO.C,D5*%
X120890000Y-59750000D02*
G75*
G02*
X120790000Y-59750000I-50000J0D01*
G01*
X120790000Y-59750000D02*
G75*
G02*
X120890000Y-59750000I50000J0D01*
G01*
D17*
%TO.C,R9*%
X126130000Y-74653641D02*
X126130000Y-74346359D01*
X125370000Y-74653641D02*
X125370000Y-74346359D01*
%TO.C,C22*%
X146360000Y-66392164D02*
X146360000Y-66607836D01*
X145640000Y-66392164D02*
X145640000Y-66607836D01*
%TO.C,JP2*%
X177600000Y-65300000D02*
X177600000Y-64700000D01*
X178300000Y-64000000D02*
X179700000Y-64000000D01*
X179700000Y-66000000D02*
X178300000Y-66000000D01*
X180400000Y-64700000D02*
X180400000Y-65300000D01*
X177600000Y-64700000D02*
G75*
G02*
X178300000Y-64000000I700000J0D01*
G01*
X178300000Y-66000000D02*
G75*
G02*
X177600000Y-65300000I0J700000D01*
G01*
X179700000Y-64000000D02*
G75*
G02*
X180400000Y-64700000I1J-699999D01*
G01*
X180400000Y-65300000D02*
G75*
G02*
X179700000Y-66000000I-699999J-1D01*
G01*
%TO.C,SW1*%
X119050000Y-68300000D02*
X119050000Y-72700000D01*
X120650000Y-68300000D02*
X120550000Y-68300000D01*
X120650000Y-72700000D02*
X120550000Y-72700000D01*
X122150000Y-72700000D02*
X122150000Y-68300000D01*
%TO.C,J4*%
X148560000Y-76240000D02*
X148560000Y-71990000D01*
X148560000Y-71990000D02*
X147540000Y-71990000D01*
X147540000Y-73590000D02*
X146260000Y-73590000D01*
X147540000Y-71990000D02*
X147540000Y-73590000D01*
X142740000Y-73590000D02*
X142740000Y-70700000D01*
X142160000Y-79810000D02*
X146840000Y-79810000D01*
X141460000Y-73590000D02*
X142740000Y-73590000D01*
X141460000Y-71990000D02*
X141460000Y-73590000D01*
X140440000Y-76240000D02*
X140440000Y-71990000D01*
X140440000Y-71990000D02*
X141460000Y-71990000D01*
%TO.C,U9*%
X143580000Y-64400000D02*
X143580000Y-62920000D01*
X145420000Y-62600000D02*
X143900000Y-62600000D01*
X145420000Y-62600000D02*
X145420000Y-64400000D01*
X145420000Y-64400000D02*
X143580000Y-64400000D01*
X143580000Y-62600000D02*
X143080000Y-62600000D01*
X143580000Y-62100000D01*
X143580000Y-62600000D01*
G36*
X143580000Y-62600000D02*
G01*
X143080000Y-62600000D01*
X143580000Y-62100000D01*
X143580000Y-62600000D01*
G37*
%TO.C,R18*%
X122403641Y-59370000D02*
X122096359Y-59370000D01*
X122403641Y-60130000D02*
X122096359Y-60130000D01*
%TO.C,C4*%
X161892164Y-63860000D02*
X162107836Y-63860000D01*
X161892164Y-63140000D02*
X162107836Y-63140000D01*
%TO.C,C8*%
X153860000Y-63392164D02*
X153860000Y-63607836D01*
X153140000Y-63392164D02*
X153140000Y-63607836D01*
%TO.C,J3*%
X161060000Y-76240000D02*
X161060000Y-71990000D01*
X161060000Y-71990000D02*
X160040000Y-71990000D01*
X160040000Y-73590000D02*
X158760000Y-73590000D01*
X160040000Y-71990000D02*
X160040000Y-73590000D01*
X155240000Y-73590000D02*
X155240000Y-70700000D01*
X154660000Y-79810000D02*
X159340000Y-79810000D01*
X153960000Y-73590000D02*
X155240000Y-73590000D01*
X153960000Y-71990000D02*
X153960000Y-73590000D01*
X152940000Y-76240000D02*
X152940000Y-71990000D01*
X152940000Y-71990000D02*
X153960000Y-71990000D01*
%TO.C,R3*%
X168153641Y-71380000D02*
X167846359Y-71380000D01*
X168153641Y-70620000D02*
X167846359Y-70620000D01*
%TO.C,R19*%
X144120000Y-60653641D02*
X144120000Y-60346359D01*
X144880000Y-60653641D02*
X144880000Y-60346359D01*
%TO.C,R10*%
X126130000Y-72153641D02*
X126130000Y-71846359D01*
X125370000Y-72153641D02*
X125370000Y-71846359D01*
%TO.C,C3*%
X166357836Y-59360000D02*
X166142164Y-59360000D01*
X166357836Y-58640000D02*
X166142164Y-58640000D01*
%TO.C,C1*%
X161892164Y-59360000D02*
X162107836Y-59360000D01*
X161892164Y-58640000D02*
X162107836Y-58640000D01*
%TO.C,R6*%
X132870000Y-63653641D02*
X132870000Y-63346359D01*
X133630000Y-63653641D02*
X133630000Y-63346359D01*
%TO.C,R11*%
X139630000Y-64396359D02*
X139630000Y-64703641D01*
X138870000Y-64396359D02*
X138870000Y-64703641D01*
D18*
%TO.C,U7*%
X135568900Y-62484000D02*
X135568900Y-64516000D01*
X137931100Y-64516000D02*
X137931100Y-62484000D01*
D10*
X135734000Y-65278000D02*
X135480000Y-65024000D01*
X135734000Y-65024000D01*
X135734000Y-65278000D01*
G36*
X135734000Y-65278000D02*
G01*
X135480000Y-65024000D01*
X135734000Y-65024000D01*
X135734000Y-65278000D01*
G37*
D17*
%TO.C,R12*%
X138870000Y-62146359D02*
X138870000Y-62453641D01*
X139630000Y-62146359D02*
X139630000Y-62453641D01*
%TD*%
%LPC*%
D19*
%TO.C,R21*%
X160250000Y-61760000D03*
X160250000Y-60740000D03*
%TD*%
D20*
%TO.C,R20*%
X155000000Y-64010000D03*
X155000000Y-62990000D03*
%TD*%
D21*
%TO.C,H3*%
X179000000Y-53500000D03*
%TD*%
%TO.C,H2*%
X121000000Y-53500000D03*
%TD*%
%TO.C,H1*%
X121000000Y-76500000D03*
%TD*%
D22*
%TO.C,Y1*%
X162000000Y-60550000D03*
X162000000Y-61950000D03*
%TD*%
D23*
%TO.C,C23*%
X146000000Y-60980000D03*
X146000000Y-60020000D03*
%TD*%
D24*
%TO.C,D3*%
X157700000Y-69250000D03*
X156300000Y-69250000D03*
%TD*%
D25*
%TO.C,JP1*%
X179650000Y-62500000D03*
D26*
X178350000Y-62500000D03*
%TD*%
D27*
%TO.C,U5*%
X119700000Y-65770000D03*
X119700000Y-64500000D03*
D28*
X119700000Y-63230000D03*
%TD*%
D23*
%TO.C,C24*%
X124500000Y-74980000D03*
X124500000Y-74020000D03*
%TD*%
D29*
%TO.C,C17*%
X139230000Y-66500000D03*
X138270000Y-66500000D03*
%TD*%
D30*
%TO.C,D2*%
X119265000Y-58250000D03*
X120235000Y-58250000D03*
%TD*%
D31*
%TO.C,C14*%
X125000000Y-76550000D03*
X125000000Y-78450000D03*
%TD*%
D20*
%TO.C,R17*%
X143000000Y-61010000D03*
X143000000Y-59990000D03*
%TD*%
D32*
%TO.C,R13*%
X139260000Y-60500000D03*
X138240000Y-60500000D03*
%TD*%
D33*
%TO.C,C7*%
X149250000Y-63980000D03*
X149250000Y-63020000D03*
%TD*%
D34*
%TO.C,J2*%
X125870000Y-52230000D03*
X125870000Y-54770000D03*
D35*
X127140000Y-53500000D03*
D34*
X128410000Y-52230000D03*
X128410000Y-54770000D03*
X130950000Y-52230000D03*
X130950000Y-54770000D03*
X133490000Y-52230000D03*
X133490000Y-54770000D03*
X136030000Y-52230000D03*
X136030000Y-54770000D03*
X138570000Y-52230000D03*
X138570000Y-54770000D03*
X141110000Y-52230000D03*
X141110000Y-54770000D03*
X143650000Y-52230000D03*
X143650000Y-54770000D03*
X146190000Y-52230000D03*
X146190000Y-54770000D03*
X148730000Y-52230000D03*
X148730000Y-54770000D03*
X151270000Y-52230000D03*
X151270000Y-54770000D03*
X153810000Y-52230000D03*
X153810000Y-54770000D03*
X156350000Y-52230000D03*
X156350000Y-54770000D03*
X158890000Y-52230000D03*
X158890000Y-54770000D03*
X161430000Y-52230000D03*
X161430000Y-54770000D03*
X163970000Y-52230000D03*
X163970000Y-54770000D03*
X166510000Y-52230000D03*
X166510000Y-54770000D03*
X169050000Y-52230000D03*
X169050000Y-54770000D03*
X171590000Y-52230000D03*
X171590000Y-54770000D03*
D35*
X172860000Y-53500000D03*
D34*
X174130000Y-52230000D03*
X174130000Y-54770000D03*
D36*
X125870000Y-56220000D03*
D37*
X125870000Y-50860000D03*
D36*
X128410000Y-56220000D03*
D37*
X128410000Y-50860000D03*
D36*
X130950000Y-56220000D03*
D37*
X130950000Y-50860000D03*
D36*
X133490000Y-56220000D03*
D37*
X133490000Y-50860000D03*
D36*
X136030000Y-56220000D03*
D37*
X136030000Y-50860000D03*
D36*
X138570000Y-56220000D03*
D37*
X138570000Y-50860000D03*
D36*
X141110000Y-56220000D03*
D37*
X141110000Y-50860000D03*
D36*
X143650000Y-56220000D03*
D37*
X143650000Y-50860000D03*
D36*
X146190000Y-56220000D03*
D37*
X146190000Y-50860000D03*
D36*
X148730000Y-56220000D03*
D37*
X148730000Y-50860000D03*
D36*
X151270000Y-56220000D03*
D37*
X151270000Y-50860000D03*
D36*
X153810000Y-56220000D03*
D37*
X153810000Y-50860000D03*
D36*
X156350000Y-56220000D03*
D37*
X156350000Y-50860000D03*
D36*
X158890000Y-56220000D03*
D37*
X158890000Y-50860000D03*
D36*
X161430000Y-56220000D03*
D37*
X161430000Y-50860000D03*
D36*
X163970000Y-56220000D03*
D37*
X163970000Y-50860000D03*
D36*
X166510000Y-56220000D03*
D37*
X166510000Y-50860000D03*
D36*
X169050000Y-56220000D03*
D37*
X169050000Y-50860000D03*
D36*
X171590000Y-56220000D03*
D37*
X171590000Y-50860000D03*
D36*
X174130000Y-56220000D03*
D37*
X174130000Y-50860000D03*
%TD*%
D38*
%TO.C,U1*%
X166250000Y-61250000D03*
D39*
X167750000Y-60500000D03*
X167750000Y-61000000D03*
X167750000Y-61500000D03*
X167750000Y-62000000D03*
X164750000Y-62000000D03*
X164750000Y-61500000D03*
X164750000Y-61000000D03*
X164750000Y-60500000D03*
%TD*%
D20*
%TO.C,R1*%
X128410000Y-58240000D03*
X128410000Y-59260000D03*
%TD*%
D40*
%TO.C,C13*%
X137000000Y-78450000D03*
X137000000Y-76550000D03*
%TD*%
D32*
%TO.C,R8*%
X133260000Y-61250000D03*
X132240000Y-61250000D03*
%TD*%
D41*
%TO.C,L1*%
X128079000Y-72000000D03*
X133921000Y-72000000D03*
%TD*%
D42*
%TO.C,D1*%
X164050000Y-71000000D03*
X165450000Y-71000000D03*
%TD*%
D32*
%TO.C,R5*%
X130010000Y-65750000D03*
X128990000Y-65750000D03*
%TD*%
D43*
%TO.C,U3*%
X150760000Y-64250000D03*
X150760000Y-63750000D03*
X150760000Y-63250000D03*
X150760000Y-62750000D03*
X152240000Y-62750000D03*
X152240000Y-63250000D03*
X152240000Y-63750000D03*
X152240000Y-64250000D03*
%TD*%
D40*
%TO.C,C12*%
X134500000Y-78450000D03*
X134500000Y-76550000D03*
%TD*%
D29*
%TO.C,C2*%
X166730000Y-63500000D03*
X165770000Y-63500000D03*
%TD*%
D24*
%TO.C,D4*%
X145200000Y-69000000D03*
X143800000Y-69000000D03*
%TD*%
D44*
%TO.C,U8*%
X157650000Y-62612500D03*
X157000000Y-62612500D03*
X156350000Y-62612500D03*
X156350000Y-64387500D03*
X157000000Y-64387500D03*
X157650000Y-64387500D03*
D45*
X157000000Y-63500000D03*
%TD*%
D20*
%TO.C,R16*%
X143000000Y-67010000D03*
X143000000Y-65990000D03*
%TD*%
D21*
%TO.C,H4*%
X179000000Y-76500000D03*
%TD*%
D46*
%TO.C,U4*%
X166250000Y-67250000D03*
D39*
X167700000Y-66500000D03*
X167700000Y-67000000D03*
X167700000Y-67500000D03*
X167700000Y-68000000D03*
X164800000Y-68000000D03*
X164800000Y-67500000D03*
X164800000Y-67000000D03*
X164800000Y-66500000D03*
%TD*%
D29*
%TO.C,C16*%
X135950000Y-66500000D03*
X136910000Y-66500000D03*
%TD*%
D47*
%TO.C,C6*%
X129020000Y-61250000D03*
X129980000Y-61250000D03*
%TD*%
D32*
%TO.C,R4*%
X170510000Y-71000000D03*
X169490000Y-71000000D03*
%TD*%
D48*
%TO.C,R7*%
X121740000Y-58250000D03*
X122760000Y-58250000D03*
%TD*%
D33*
%TO.C,C11*%
X121500000Y-64210000D03*
X121500000Y-63250000D03*
%TD*%
D47*
%TO.C,C9*%
X151020000Y-65750000D03*
X151980000Y-65750000D03*
%TD*%
D49*
%TO.C,J1*%
X173320000Y-77300000D03*
X173320000Y-73500000D03*
X164680000Y-77300000D03*
X164680000Y-73500000D03*
D50*
X166250000Y-73420000D03*
D51*
X167480000Y-73420000D03*
D52*
X169500000Y-73420000D03*
D53*
X171750000Y-73420000D03*
D54*
X170520000Y-73420000D03*
D55*
X168500000Y-73420000D03*
%TD*%
D47*
%TO.C,C19*%
X157480000Y-65750000D03*
X156520000Y-65750000D03*
%TD*%
D33*
%TO.C,C21*%
X144500000Y-66020000D03*
X144500000Y-66980000D03*
%TD*%
%TO.C,C20*%
X159250000Y-63020000D03*
X159250000Y-63980000D03*
%TD*%
D48*
%TO.C,R15*%
X156260000Y-61250000D03*
X155240000Y-61250000D03*
%TD*%
D47*
%TO.C,C10*%
X165770000Y-65000000D03*
X166730000Y-65000000D03*
%TD*%
D56*
%TO.C,U2*%
X131000000Y-63500000D03*
D57*
X130249999Y-62649100D03*
X130750000Y-62649100D03*
X131250000Y-62649100D03*
X131750001Y-62649100D03*
X131750001Y-64350900D03*
X131250000Y-64350900D03*
X130750000Y-64350900D03*
X130249999Y-64350900D03*
%TD*%
D58*
%TO.C,JP4*%
X136750000Y-71350000D03*
D59*
X136750000Y-72650000D03*
%TD*%
D20*
%TO.C,R2*%
X130950000Y-58240000D03*
X130950000Y-59260000D03*
%TD*%
D60*
%TO.C,U6*%
X131000000Y-77546700D03*
X131000000Y-77046700D03*
D61*
X130750000Y-76293400D03*
X131250000Y-76293400D03*
D62*
X132003300Y-76546699D03*
X132003300Y-77046700D03*
X132003300Y-77546700D03*
X132003300Y-78046701D03*
D61*
X131250000Y-78300000D03*
X130750000Y-78300000D03*
D62*
X129996700Y-78046701D03*
X129996700Y-77546700D03*
X129996700Y-77046700D03*
X129996700Y-76546699D03*
%TD*%
D26*
%TO.C,JP3*%
X178350000Y-67500000D03*
D25*
X179650000Y-67500000D03*
%TD*%
D48*
%TO.C,R14*%
X158760000Y-61250000D03*
X157740000Y-61250000D03*
%TD*%
D29*
%TO.C,C18*%
X136910000Y-60500000D03*
X135950000Y-60500000D03*
%TD*%
D31*
%TO.C,C15*%
X127500000Y-76550000D03*
X127500000Y-78450000D03*
%TD*%
D23*
%TO.C,C5*%
X129000000Y-63020000D03*
X129000000Y-63980000D03*
%TD*%
D30*
%TO.C,D5*%
X119265000Y-59750000D03*
X120235000Y-59750000D03*
%TD*%
D20*
%TO.C,R9*%
X125750000Y-73990000D03*
X125750000Y-75010000D03*
%TD*%
D33*
%TO.C,C22*%
X146000000Y-66020000D03*
X146000000Y-66980000D03*
%TD*%
D63*
%TO.C,JP2*%
X179650000Y-65000000D03*
D64*
X178350000Y-65000000D03*
%TD*%
D65*
%TO.C,SW1*%
X121400000Y-68450000D03*
X121400000Y-72550000D03*
X119800000Y-68450000D03*
X119800000Y-72550000D03*
%TD*%
D66*
%TO.C,J4*%
X147850000Y-78200000D03*
X141150000Y-78200000D03*
D67*
X145500000Y-72450000D03*
X143500000Y-72450000D03*
%TD*%
D68*
%TO.C,U9*%
X144000000Y-63000000D03*
X144500000Y-63000000D03*
X145000000Y-63000000D03*
X144000000Y-63500000D03*
X144500000Y-63500000D03*
X145000000Y-63500000D03*
X144000000Y-64000000D03*
X144500000Y-64000000D03*
X145000000Y-64000000D03*
%TD*%
D48*
%TO.C,R18*%
X121740000Y-59750000D03*
X122760000Y-59750000D03*
%TD*%
D29*
%TO.C,C4*%
X162480000Y-63500000D03*
X161520000Y-63500000D03*
%TD*%
D33*
%TO.C,C8*%
X153500000Y-63980000D03*
X153500000Y-63020000D03*
%TD*%
D66*
%TO.C,J3*%
X160350000Y-78200000D03*
X153650000Y-78200000D03*
D67*
X158000000Y-72450000D03*
X156000000Y-72450000D03*
%TD*%
D48*
%TO.C,R3*%
X167490000Y-71000000D03*
X168510000Y-71000000D03*
%TD*%
D20*
%TO.C,R19*%
X144500000Y-61010000D03*
X144500000Y-59990000D03*
%TD*%
%TO.C,R10*%
X125750000Y-71490000D03*
X125750000Y-72510000D03*
%TD*%
D47*
%TO.C,C3*%
X165770000Y-59000000D03*
X166730000Y-59000000D03*
%TD*%
D29*
%TO.C,C1*%
X162480000Y-59000000D03*
X161520000Y-59000000D03*
%TD*%
D20*
%TO.C,R6*%
X133250000Y-62990000D03*
X133250000Y-64010000D03*
%TD*%
D19*
%TO.C,R11*%
X139250000Y-65060000D03*
X139250000Y-64040000D03*
%TD*%
D69*
%TO.C,U7*%
X135949900Y-64630300D03*
X136349950Y-64630300D03*
X136750000Y-64630300D03*
X137150050Y-64630300D03*
X137550100Y-64630300D03*
X137550100Y-62369700D03*
X137150050Y-62369700D03*
X136750000Y-62369700D03*
X136349950Y-62369700D03*
X135949900Y-62369700D03*
D70*
X136750000Y-63500000D03*
%TD*%
D19*
%TO.C,R12*%
X139250000Y-62810000D03*
X139250000Y-61790000D03*
%TD*%
%LPD*%
M02*
