%TF.GenerationSoftware,KiCad,Pcbnew,8.0.4*%
%TF.CreationDate,2024-08-29T10:26:42+02:00*%
%TF.ProjectId,soleil_powerpack,736f6c65-696c-45f7-906f-776572706163,rev?*%
%TF.SameCoordinates,Original*%
%TF.FileFunction,Paste,Top*%
%TF.FilePolarity,Positive*%
%FSLAX46Y46*%
G04 Gerber Fmt 4.6, Leading zero omitted, Abs format (unit mm)*
G04 Created by KiCad (PCBNEW 8.0.4) date 2024-08-29 10:26:42*
%MOMM*%
%LPD*%
G01*
G04 APERTURE LIST*
G04 Aperture macros list*
%AMRoundRect*
0 Rectangle with rounded corners*
0 $1 Rounding radius*
0 $2 $3 $4 $5 $6 $7 $8 $9 X,Y pos of 4 corners*
0 Add a 4 corners polygon primitive as box body*
4,1,4,$2,$3,$4,$5,$6,$7,$8,$9,$2,$3,0*
0 Add four circle primitives for the rounded corners*
1,1,$1+$1,$2,$3*
1,1,$1+$1,$4,$5*
1,1,$1+$1,$6,$7*
1,1,$1+$1,$8,$9*
0 Add four rect primitives between the rounded corners*
20,1,$1+$1,$2,$3,$4,$5,0*
20,1,$1+$1,$4,$5,$6,$7,0*
20,1,$1+$1,$6,$7,$8,$9,0*
20,1,$1+$1,$8,$9,$2,$3,0*%
G04 Aperture macros list end*
%ADD10RoundRect,0.150000X0.150000X0.200000X-0.150000X0.200000X-0.150000X-0.200000X0.150000X-0.200000X0*%
%ADD11RoundRect,0.225000X-0.225000X-0.250000X0.225000X-0.250000X0.225000X0.250000X-0.225000X0.250000X0*%
%ADD12RoundRect,0.218750X0.256250X-0.218750X0.256250X0.218750X-0.256250X0.218750X-0.256250X-0.218750X0*%
%ADD13RoundRect,0.250000X0.475000X-0.250000X0.475000X0.250000X-0.475000X0.250000X-0.475000X-0.250000X0*%
%ADD14RoundRect,0.200000X0.200000X0.275000X-0.200000X0.275000X-0.200000X-0.275000X0.200000X-0.275000X0*%
%ADD15RoundRect,0.225000X-0.250000X0.225000X-0.250000X-0.225000X0.250000X-0.225000X0.250000X0.225000X0*%
%ADD16R,1.270000X1.680000*%
%ADD17R,1.270000X1.500000*%
%ADD18R,0.500000X0.600000*%
%ADD19R,0.750000X0.300000*%
%ADD20RoundRect,0.200000X0.275000X-0.200000X0.275000X0.200000X-0.275000X0.200000X-0.275000X-0.200000X0*%
%ADD21RoundRect,0.200000X-0.275000X0.200000X-0.275000X-0.200000X0.275000X-0.200000X0.275000X0.200000X0*%
%ADD22R,2.413000X3.429000*%
%ADD23RoundRect,0.150000X-0.150000X-0.200000X0.150000X-0.200000X0.150000X0.200000X-0.150000X0.200000X0*%
%ADD24RoundRect,0.050000X-0.285000X-0.100000X0.285000X-0.100000X0.285000X0.100000X-0.285000X0.100000X0*%
%ADD25RoundRect,0.200000X-0.200000X-0.275000X0.200000X-0.275000X0.200000X0.275000X-0.200000X0.275000X0*%
%ADD26R,0.600000X0.500000*%
%ADD27R,0.300000X0.750000*%
%ADD28RoundRect,0.225000X0.225000X0.250000X-0.225000X0.250000X-0.225000X-0.250000X0.225000X-0.250000X0*%
%ADD29RoundRect,0.175000X-0.175000X-0.425000X0.175000X-0.425000X0.175000X0.425000X-0.175000X0.425000X0*%
%ADD30RoundRect,0.190000X0.190000X0.410000X-0.190000X0.410000X-0.190000X-0.410000X0.190000X-0.410000X0*%
%ADD31RoundRect,0.200000X0.200000X0.400000X-0.200000X0.400000X-0.200000X-0.400000X0.200000X-0.400000X0*%
%ADD32RoundRect,0.175000X0.175000X0.425000X-0.175000X0.425000X-0.175000X-0.425000X0.175000X-0.425000X0*%
%ADD33RoundRect,0.190000X-0.190000X-0.410000X0.190000X-0.410000X0.190000X0.410000X-0.190000X0.410000X0*%
%ADD34RoundRect,0.200000X-0.200000X-0.400000X0.200000X-0.400000X0.200000X0.400000X-0.200000X0.400000X0*%
%ADD35O,1.100000X1.700000*%
%ADD36R,0.304800X0.254000*%
%ADD37R,1.260000X0.728000*%
%ADD38R,0.711200X0.254000*%
%ADD39R,0.254000X0.711200*%
%ADD40R,0.700000X0.250000*%
%ADD41RoundRect,0.225000X0.250000X-0.225000X0.250000X0.225000X-0.250000X0.225000X-0.250000X-0.225000X0*%
%ADD42R,1.000000X0.900000*%
%ADD43RoundRect,0.250000X-0.250000X-1.500000X0.250000X-1.500000X0.250000X1.500000X-0.250000X1.500000X0*%
%ADD44RoundRect,0.250001X-0.499999X-1.449999X0.499999X-1.449999X0.499999X1.449999X-0.499999X1.449999X0*%
%ADD45R,1.800000X1.000000*%
%ADD46R,0.203200X0.660400*%
%ADD47R,1.200000X0.720000*%
G04 APERTURE END LIST*
D10*
%TO.C,D3*%
X158050000Y-69250000D03*
X159450000Y-69250000D03*
%TD*%
D11*
%TO.C,C17*%
X135325000Y-65800000D03*
X136875000Y-65800000D03*
%TD*%
D12*
%TO.C,D2*%
X119700000Y-59987500D03*
X119700000Y-58412500D03*
%TD*%
D13*
%TO.C,C14*%
X137550000Y-71700000D03*
X137550000Y-69800000D03*
%TD*%
D14*
%TO.C,R13*%
X133625000Y-60200000D03*
X131975000Y-60200000D03*
%TD*%
D15*
%TO.C,C7*%
X166300000Y-62225000D03*
X166300000Y-63775000D03*
%TD*%
D16*
%TO.C,J2*%
X125870000Y-56220000D03*
D17*
X125870000Y-50860000D03*
D16*
X128410000Y-56220000D03*
D17*
X128410000Y-50860000D03*
D16*
X130950000Y-56220000D03*
D17*
X130950000Y-50860000D03*
D16*
X133490000Y-56220000D03*
D17*
X133490000Y-50860000D03*
D16*
X136030000Y-56220000D03*
D17*
X136030000Y-50860000D03*
D16*
X138570000Y-56220000D03*
D17*
X138570000Y-50860000D03*
D16*
X141110000Y-56220000D03*
D17*
X141110000Y-50860000D03*
D16*
X143650000Y-56220000D03*
D17*
X143650000Y-50860000D03*
D16*
X146190000Y-56220000D03*
D17*
X146190000Y-50860000D03*
D16*
X148730000Y-56220000D03*
D17*
X148730000Y-50860000D03*
D16*
X151270000Y-56220000D03*
D17*
X151270000Y-50860000D03*
D16*
X153810000Y-56220000D03*
D17*
X153810000Y-50860000D03*
D16*
X156350000Y-56220000D03*
D17*
X156350000Y-50860000D03*
D16*
X158890000Y-56220000D03*
D17*
X158890000Y-50860000D03*
D16*
X161430000Y-56220000D03*
D17*
X161430000Y-50860000D03*
D16*
X163970000Y-56220000D03*
D17*
X163970000Y-50860000D03*
D16*
X166510000Y-56220000D03*
D17*
X166510000Y-50860000D03*
D16*
X169050000Y-56220000D03*
D17*
X169050000Y-50860000D03*
D16*
X171590000Y-56220000D03*
D17*
X171590000Y-50860000D03*
D16*
X174130000Y-56220000D03*
D17*
X174130000Y-50860000D03*
%TD*%
D18*
%TO.C,U1*%
X155150000Y-62600000D03*
X155150000Y-63350000D03*
X155800000Y-62600000D03*
X155800000Y-63350000D03*
D19*
X153975000Y-62225000D03*
X153975000Y-62725000D03*
X153975000Y-63225000D03*
X153975000Y-63725000D03*
X156975000Y-63725000D03*
X156975000Y-63225000D03*
X156975000Y-62725000D03*
X156975000Y-62225000D03*
%TD*%
D20*
%TO.C,R1*%
X146200000Y-63825000D03*
X146200000Y-62175000D03*
%TD*%
D13*
%TO.C,C13*%
X149750000Y-71700000D03*
X149750000Y-69800000D03*
%TD*%
D21*
%TO.C,R8*%
X130200000Y-60475000D03*
X130200000Y-62125000D03*
%TD*%
D22*
%TO.C,L1*%
X146671000Y-76250000D03*
X140829000Y-76250000D03*
%TD*%
D23*
%TO.C,D1*%
X167200000Y-71000000D03*
X165800000Y-71000000D03*
%TD*%
D21*
%TO.C,R5*%
X125200000Y-63875000D03*
X125200000Y-65525000D03*
%TD*%
D24*
%TO.C,U3*%
X163260000Y-62250000D03*
X163260000Y-62750000D03*
X163260000Y-63250000D03*
X163260000Y-63750000D03*
X164740000Y-63750000D03*
X164740000Y-63250000D03*
X164740000Y-62750000D03*
X164740000Y-62250000D03*
%TD*%
D13*
%TO.C,C12*%
X147150000Y-71700000D03*
X147150000Y-69800000D03*
%TD*%
D11*
%TO.C,C2*%
X154625000Y-65300000D03*
X156175000Y-65300000D03*
%TD*%
D10*
%TO.C,D4*%
X128800000Y-69000000D03*
X130200000Y-69000000D03*
%TD*%
D25*
%TO.C,R12*%
X135275000Y-60200000D03*
X136925000Y-60200000D03*
%TD*%
D26*
%TO.C,U4*%
X143425000Y-63725000D03*
X144175000Y-63725000D03*
X143425000Y-63075000D03*
X144175000Y-63075000D03*
D27*
X143050000Y-64850000D03*
X143550000Y-64850000D03*
X144050000Y-64850000D03*
X144550000Y-64850000D03*
X144550000Y-61950000D03*
X144050000Y-61950000D03*
X143550000Y-61950000D03*
X143050000Y-61950000D03*
%TD*%
D28*
%TO.C,C16*%
X133575000Y-65800000D03*
X132025000Y-65800000D03*
%TD*%
D11*
%TO.C,C6*%
X126925000Y-60250000D03*
X128475000Y-60250000D03*
%TD*%
D25*
%TO.C,R4*%
X172675000Y-71000000D03*
X174325000Y-71000000D03*
%TD*%
D20*
%TO.C,R7*%
X121800000Y-60025000D03*
X121800000Y-58375000D03*
%TD*%
D15*
%TO.C,C11*%
X121800000Y-64225000D03*
X121800000Y-65775000D03*
%TD*%
D11*
%TO.C,C9*%
X163225000Y-60500000D03*
X164775000Y-60500000D03*
%TD*%
D29*
%TO.C,J1*%
X169600000Y-73420000D03*
D30*
X171620000Y-73420000D03*
D31*
X172850000Y-73420000D03*
D32*
X170600000Y-73420000D03*
D33*
X168580000Y-73420000D03*
D34*
X167350000Y-73420000D03*
D35*
X165780000Y-73500000D03*
X165780000Y-77300000D03*
X174420000Y-73500000D03*
X174420000Y-77300000D03*
%TD*%
D15*
%TO.C,C10*%
X141400000Y-62225000D03*
X141400000Y-63775000D03*
%TD*%
D36*
%TO.C,U2*%
X126949999Y-63850900D03*
X127450000Y-63850900D03*
X127950000Y-63850900D03*
X128450001Y-63850900D03*
X128450001Y-62149100D03*
X127950000Y-62149100D03*
X127450000Y-62149100D03*
X126949999Y-62149100D03*
D37*
X127700000Y-63000000D03*
%TD*%
D25*
%TO.C,R2*%
X142975000Y-60200000D03*
X144625000Y-60200000D03*
%TD*%
D38*
%TO.C,U6*%
X142746700Y-69999999D03*
X142746700Y-70500000D03*
X142746700Y-71000000D03*
X142746700Y-71500001D03*
D39*
X143500000Y-71753300D03*
X144000000Y-71753300D03*
D38*
X144753300Y-71500001D03*
X144753300Y-71000000D03*
X144753300Y-70500000D03*
X144753300Y-69999999D03*
D39*
X144000000Y-69746700D03*
X143500000Y-69746700D03*
D40*
X143750000Y-70500000D03*
X143750000Y-71000000D03*
%TD*%
D15*
%TO.C,C18*%
X130200000Y-63925000D03*
X130200000Y-65475000D03*
%TD*%
D13*
%TO.C,C15*%
X140250000Y-71700000D03*
X140250000Y-69800000D03*
%TD*%
D41*
%TO.C,C5*%
X125200000Y-62075000D03*
X125200000Y-60525000D03*
%TD*%
D25*
%TO.C,R9*%
X141125000Y-68000000D03*
X142775000Y-68000000D03*
%TD*%
D42*
%TO.C,SW1*%
X121500000Y-68450000D03*
X121500000Y-72550000D03*
X119900000Y-68450000D03*
X119900000Y-72550000D03*
%TD*%
D43*
%TO.C,J4*%
X128500000Y-72450000D03*
X130500000Y-72450000D03*
D44*
X126150000Y-78200000D03*
X132850000Y-78200000D03*
%TD*%
D45*
%TO.C,Y1*%
X151600000Y-64250000D03*
X151600000Y-61750000D03*
%TD*%
D11*
%TO.C,C4*%
X151075000Y-66000000D03*
X152625000Y-66000000D03*
%TD*%
D15*
%TO.C,C8*%
X161700000Y-62225000D03*
X161700000Y-63775000D03*
%TD*%
D43*
%TO.C,J3*%
X157750000Y-72450000D03*
X159750000Y-72450000D03*
D44*
X155400000Y-78200000D03*
X162100000Y-78200000D03*
%TD*%
D14*
%TO.C,R3*%
X170732500Y-71000000D03*
X169082500Y-71000000D03*
%TD*%
D25*
%TO.C,R10*%
X144725000Y-68000000D03*
X146375000Y-68000000D03*
%TD*%
D28*
%TO.C,C3*%
X156175000Y-60600000D03*
X154625000Y-60600000D03*
%TD*%
D11*
%TO.C,C1*%
X151075000Y-60000000D03*
X152625000Y-60000000D03*
%TD*%
D14*
%TO.C,R6*%
X128525000Y-65750000D03*
X126875000Y-65750000D03*
%TD*%
D21*
%TO.C,R11*%
X136400000Y-62175000D03*
X136400000Y-63825000D03*
%TD*%
D46*
%TO.C,U7*%
X132799900Y-64130300D03*
X133199950Y-64130300D03*
X133600000Y-64130300D03*
X134000050Y-64130300D03*
X134400100Y-64130300D03*
X134400100Y-61869700D03*
X134000050Y-61869700D03*
X133600000Y-61869700D03*
X133199950Y-61869700D03*
X132799900Y-61869700D03*
D47*
X133600000Y-63000000D03*
%TD*%
M02*
