M48
; DRILL file {KiCad 8.0.6} date 2025-01-23T17:56:38+0100
; FORMAT={-:-/ absolute / metric / decimal}
; #@! TF.CreationDate,2025-01-23T17:56:38+01:00
; #@! TF.GenerationSoftware,Kicad,Pcbnew,8.0.6
; #@! TF.FileFunction,Plated,1,4,PTH
FMAT,2
METRIC
; #@! TA.AperFunction,Plated,PTH,ComponentDrill
T1C0.200
; #@! TA.AperFunction,Plated,PTH,ViaDrill
T2C0.250
; #@! TA.AperFunction,Plated,PTH,ViaDrill
T3C0.400
; #@! TA.AperFunction,Plated,PTH,ViaDrill
T4C0.500
; #@! TA.AperFunction,Plated,PTH,ComponentDrill
T5C0.600
; #@! TA.AperFunction,Plated,PTH,ComponentDrill
T6C0.750
%
G90
G05
T1
X141.55Y-84.1
X142.65Y-84.1
T2
X118.1Y-94.2
X118.1Y-95.0
X118.1Y-95.8
X120.349Y-85.283
X122.1Y-88.25
X122.3Y-84.0
X122.7Y-97.4
X123.3Y-84.0
X123.7Y-90.9
X124.4Y-81.9
X124.4Y-102.7
X124.5Y-91.7
X126.03Y-97.6
X126.65Y-93.0
X126.9Y-80.5
X126.9Y-81.2
X126.9Y-81.9
X127.0Y-91.8
X127.181Y-97.64
X127.6Y-85.4
X128.1Y-99.5
X128.392Y-84.324
X129.1Y-85.7
X129.1Y-89.3
X129.1Y-90.3
X129.8Y-95.7
X130.5Y-95.7
X130.9Y-83.8
X130.9Y-85.1
X131.4Y-95.7
X132.3Y-95.7
X133.2Y-98.8
X133.3Y-83.8
X133.3Y-85.1
X133.7Y-96.25
X133.9Y-97.35
X133.9Y-100.5
X134.4Y-89.8
X135.1Y-89.8
X135.8Y-83.8
X136.5Y-101.8
X137.6Y-86.8
X138.2Y-93.4
X138.2Y-94.3
X139.024Y-92.071
X140.2Y-94.5
X140.6Y-89.407
X140.637Y-87.386
X140.7Y-91.9
X140.7Y-93.1
X142.08Y-87.2
X142.12Y-88.857
X142.8Y-88.4
X143.49Y-88.857
X144.2Y-88.0
X144.689Y-90.36
X147.2Y-80.5
X147.2Y-81.2
X147.2Y-81.9
X147.25Y-88.1
X147.25Y-90.2
X171.6Y-82.8
X176.1Y-87.9
X176.1Y-88.9
X176.1Y-89.9
X176.1Y-90.9
T3
X121.1Y-92.4
X124.4Y-103.7
X125.6Y-78.5
X127.9Y-103.7
X128.6Y-78.5
X130.9Y-78.5
X133.5Y-78.5
X134.4Y-103.7
X135.9Y-88.2
X135.9Y-90.2
X136.1Y-78.5
X138.6Y-78.5
X141.1Y-78.5
X143.7Y-78.5
X144.5Y-103.7
X146.2Y-78.5
X146.8Y-97.5
X148.7Y-78.5
X151.3Y-78.5
X153.8Y-78.5
X156.4Y-78.5
X157.0Y-103.7
X158.9Y-78.5
X159.3Y-97.5
X161.4Y-78.5
X164.0Y-78.5
X166.5Y-78.5
X169.0Y-78.5
X169.0Y-103.7
X171.3Y-78.5
X174.4Y-78.5
X175.5Y-81.2
T4
X139.9Y-82.6
X144.7Y-82.6
T6
X119.3Y-88.23
X119.3Y-89.5
X119.3Y-90.77
T5
G00X164.68Y-99.6
M15
G01X164.68Y-100.2
M16
G05
G00X164.68Y-103.4
M15
G01X164.68Y-104.0
M16
G05
G00X173.32Y-99.6
M15
G01X173.32Y-100.2
M16
G05
G00X173.32Y-103.4
M15
G01X173.32Y-104.0
M16
G05
M30
