M48
; DRILL file {KiCad 8.0.4} date 2024-08-29T10:26:54+0200
; FORMAT={-:-/ absolute / metric / decimal}
; #@! TF.CreationDate,2024-08-29T10:26:54+02:00
; #@! TF.GenerationSoftware,Kicad,Pcbnew,8.0.4
; #@! TF.FileFunction,Plated,1,4,PTH
FMAT,2
METRIC
; #@! TA.AperFunction,Plated,PTH,ViaDrill
T1C0.250
; #@! TA.AperFunction,Plated,PTH,ViaDrill
T2C0.300
; #@! TA.AperFunction,Plated,PTH,ViaDrill
T3C0.400
; #@! TA.AperFunction,Plated,PTH,ViaDrill
T4C0.450
; #@! TA.AperFunction,Plated,PTH,ComponentDrill
T5C0.600
; #@! TA.AperFunction,Plated,PTH,ComponentDrill
T6C0.750
%
G90
G05
T1
X124.425Y-63.875
X126.1Y-65.751
X126.1Y-60.06
X126.6Y-66.8
X126.6Y-67.45
X127.1Y-56.2
X128.525Y-66.8
X129.175Y-66.8
X135.4Y-63.0
X138.67Y-68.075
X139.15Y-59.375
X139.9Y-70.75
X139.9Y-73.3
X139.9Y-74.0
X139.9Y-78.5
X139.9Y-79.2
X140.5Y-70.75
X140.5Y-73.3
X140.5Y-74.0
X140.5Y-78.5
X140.5Y-79.2
X141.1Y-70.75
X141.1Y-73.3
X141.1Y-74.0
X141.1Y-78.5
X141.1Y-79.2
X141.7Y-69.55
X141.7Y-70.15
X141.7Y-70.75
X141.7Y-73.3
X141.7Y-74.0
X141.7Y-78.5
X141.7Y-79.2
X143.8Y-59.525
X144.75Y-72.2
X144.75Y-72.85
X145.7Y-59.5
X145.7Y-60.2
X145.7Y-60.9
X146.4Y-60.9
X146.743Y-66.343
X147.281Y-58.127
X153.35Y-68.8
X153.425Y-65.075
X158.15Y-63.75
X158.15Y-64.4
X158.6Y-63.2
X160.55Y-60.95
X172.15Y-68.8
X180.8Y-62.2
X180.8Y-64.7
X180.8Y-67.2
T2
X120.0Y-61.5
X120.0Y-70.5
X121.8Y-61.5
X124.4Y-78.5
X124.5Y-59.5
X126.5Y-59.0
X126.5Y-70.0
X126.5Y-73.0
X128.5Y-59.0
X129.5Y-53.5
X129.5Y-78.5
X130.5Y-70.0
X131.9Y-73.0
X132.0Y-53.5
X132.0Y-66.8
X132.8Y-66.8
X133.5Y-70.0
X133.6Y-66.8
X134.5Y-53.5
X134.75Y-57.5
X136.1Y-61.2
X136.1Y-70.0
X137.0Y-53.5
X137.25Y-57.5
X137.5Y-73.5
X137.5Y-76.0
X137.5Y-78.5
X139.5Y-53.5
X139.5Y-61.5
X139.5Y-63.0
X141.4Y-61.2
X141.5Y-60.0
X142.0Y-53.5
X142.8Y-73.5
X142.8Y-76.0
X142.8Y-78.5
X143.8Y-58.825
X144.5Y-53.5
X144.8Y-76.0
X144.8Y-78.5
X145.3Y-63.0
X145.7Y-58.8
X145.7Y-69.1
X145.7Y-69.8
X145.7Y-70.5
X147.0Y-53.5
X147.1Y-68.7
X148.7Y-76.0
X148.7Y-78.5
X149.0Y-67.5
X149.027Y-64.009
X149.5Y-53.5
X149.8Y-61.7
X151.7Y-76.0
X151.7Y-78.5
X152.5Y-53.5
X152.5Y-67.5
X152.5Y-69.8
X152.5Y-71.7
X155.0Y-53.5
X155.5Y-61.5
X156.0Y-67.5
X156.0Y-69.8
X157.5Y-53.5
X157.7Y-76.0
X157.7Y-78.5
X158.0Y-66.0
X158.2Y-60.6
X159.8Y-76.0
X159.8Y-78.5
X160.0Y-53.5
X161.5Y-66.0
X161.5Y-71.0
X162.5Y-53.5
X162.7Y-61.6
X164.0Y-66.0
X164.0Y-71.0
X165.0Y-53.5
X166.5Y-60.5
X166.5Y-66.0
X167.3Y-75.5
X167.5Y-53.5
X167.7Y-77.5
X170.0Y-53.5
X170.0Y-60.5
X170.0Y-63.5
X170.0Y-66.0
X170.1Y-77.5
X172.5Y-77.5
X172.9Y-75.5
X176.5Y-57.5
X176.5Y-71.0
X180.0Y-57.5
X180.0Y-71.0
T3
X122.25Y-67.1
T4
X123.5Y-59.0
X123.5Y-60.5
X123.5Y-62.0
X124.3Y-53.0
X124.3Y-54.7
X124.3Y-56.2
X131.7Y-62.2
X131.7Y-63.3
X131.7Y-64.5
X137.409Y-64.625
X138.5Y-64.8
X149.1Y-60.1
X156.3Y-59.375
X157.4Y-59.375
X158.5Y-59.375
T6
X119.7Y-63.23
X119.7Y-64.5
X119.7Y-65.77
T5
G00X165.78Y-73.2
M15
G01X165.78Y-73.8
M16
G05
G00X165.78Y-77.0
M15
G01X165.78Y-77.6
M16
G05
G00X174.42Y-73.2
M15
G01X174.42Y-73.8
M16
G05
G00X174.42Y-77.0
M15
G01X174.42Y-77.6
M16
G05
M30
