M48
; DRILL file {KiCad 8.0.4} date 2024-09-21T11:57:24+0200
; FORMAT={-:-/ absolute / metric / decimal}
; #@! TF.CreationDate,2024-09-21T11:57:24+02:00
; #@! TF.GenerationSoftware,Kicad,Pcbnew,8.0.4
; #@! TF.FileFunction,NonPlated,1,4,NPTH
FMAT,2
METRIC
; #@! TA.AperFunction,NonPlated,NPTH,ComponentDrill
T1C0.970
; #@! TA.AperFunction,NonPlated,NPTH,ComponentDrill
T2C1.780
; #@! TA.AperFunction,NonPlated,NPTH,ComponentDrill
T3C2.700
%
G90
G05
T1
X125.87Y-52.23
X125.87Y-54.77
X128.41Y-52.23
X128.41Y-54.77
X130.95Y-52.23
X130.95Y-54.77
X133.49Y-52.23
X133.49Y-54.77
X136.03Y-52.23
X136.03Y-54.77
X138.57Y-52.23
X138.57Y-54.77
X141.11Y-52.23
X141.11Y-54.77
X143.65Y-52.23
X143.65Y-54.77
X146.19Y-52.23
X146.19Y-54.77
X148.73Y-52.23
X148.73Y-54.77
X151.27Y-52.23
X151.27Y-54.77
X153.81Y-52.23
X153.81Y-54.77
X156.35Y-52.23
X156.35Y-54.77
X158.89Y-52.23
X158.89Y-54.77
X161.43Y-52.23
X161.43Y-54.77
X163.97Y-52.23
X163.97Y-54.77
X166.51Y-52.23
X166.51Y-54.77
X169.05Y-52.23
X169.05Y-54.77
X171.59Y-52.23
X171.59Y-54.77
X174.13Y-52.23
X174.13Y-54.77
T2
X127.14Y-53.5
X172.86Y-53.5
T3
X121.0Y-53.5
X121.0Y-76.5
X179.0Y-53.5
X179.0Y-76.5
M30
